<svg width="200" height="200" viewBox="0 0 200 200" fill="none" xmlns="http://www.w3.org/2000/svg">
<path d="M48.2725 105.178C71.1705 100.957 87.4752 97.6432 91.6826 121.505C96.2074 147.167 85.0271 194.543 59.3652 199.067C33.7034 203.592 5.1362 163.224 0.611328 137.562C-3.52082 114.127 13.8285 111.061 36.416 107.259C36.4815 107.938 36.5485 108.615 36.6182 109.288C37.784 120.559 39.529 131.065 40.9785 138.74C41.7042 142.583 42.3579 145.728 42.832 147.92C43.0691 149.016 43.2614 149.874 43.3955 150.463C43.4625 150.757 43.5155 150.985 43.5518 151.141C43.5698 151.218 43.584 151.278 43.5938 151.319C43.5986 151.34 43.6027 151.357 43.6055 151.368C43.6068 151.374 43.6076 151.378 43.6084 151.382C43.6088 151.383 43.6092 151.386 43.6094 151.387C43.616 151.387 43.8059 151.343 49.4473 150L43.6104 151.389C44.3775 154.612 47.6124 156.604 50.8359 155.837C53.9587 155.094 55.9252 152.034 55.3477 148.913L55.2842 148.61L55.2822 148.604C55.2806 148.596 55.2782 148.584 55.2744 148.568C55.2668 148.536 55.2542 148.485 55.2383 148.417C55.2064 148.28 55.1581 148.073 55.0957 147.799C54.9707 147.25 54.7879 146.434 54.5605 145.383C54.1057 143.28 53.4731 140.238 52.7695 136.513C51.3603 129.051 49.6749 118.892 48.5537 108.053C48.4549 107.098 48.3616 106.139 48.2725 105.178ZM52.8828 39.8672C56.1619 38.5765 59.5064 38.5624 62.667 39.4824C68.5608 41.1983 73.7234 46.128 78.1396 51.5996C87.1652 62.7821 96.4305 80.6325 105.24 97.5918C114.284 115.002 122.865 131.505 130.809 141.417C134.891 146.511 137.958 148.745 139.915 149.287C140.654 149.492 141.141 149.433 141.634 149.218C142.241 148.953 143.281 148.25 144.62 146.436C147.733 142.219 149.743 134.607 150.51 124.384C151.078 116.81 150.928 108.392 150.372 99.9902C154.484 99.9156 158.475 99.345 162.287 98.335C162.915 107.391 163.119 116.723 162.477 125.281C161.678 135.928 159.511 146.47 154.273 153.563C152.115 156.487 149.54 158.861 146.432 160.217C143.209 161.622 139.879 161.729 136.713 160.853C130.86 159.232 125.764 154.312 121.444 148.922C112.582 137.864 103.394 120.07 94.5908 103.124C85.5539 85.7274 76.8939 69.1617 68.8018 59.1357C64.6594 54.0036 61.4632 51.6301 59.3125 51.0039C58.4515 50.7534 57.8511 50.8078 57.2783 51.0332C56.6109 51.296 55.5324 51.9787 54.1523 53.7227C50.7223 58.0574 48.5425 65.6925 47.708 75.8691C46.9645 84.9365 47.3461 95.1927 48.2725 105.178C46.5449 105.496 44.7798 105.82 42.9795 106.138C40.7537 106.53 38.5612 106.898 36.416 107.259C35.3891 96.5967 34.9019 85.2081 35.748 74.8887C36.6288 64.1482 39.0245 53.5022 44.7422 46.2764C47.0162 43.4027 49.6983 41.1208 52.8828 39.8672ZM149.447 0C177.061 0.000103081 199.447 22.3858 199.447 50C199.447 73.1753 183.68 92.667 162.287 98.335C162.115 95.847 161.912 93.3796 161.684 90.9551C160.621 79.6725 159.031 69.1348 157.709 61.4297C157.047 57.5726 156.452 54.4136 156.02 52.2129C155.803 51.1125 155.628 50.2506 155.506 49.6602C155.445 49.3651 155.397 49.1371 155.364 48.9814C155.348 48.904 155.335 48.8441 155.326 48.8027C155.322 48.7821 155.319 48.7653 155.316 48.7539C155.315 48.7484 155.314 48.7435 155.313 48.7402C155.313 48.7387 155.313 48.7371 155.312 48.7363C155.304 48.7368 155.089 48.7823 149.447 50L155.312 48.7344C154.612 45.4954 151.42 43.4358 148.181 44.1348C144.942 44.8342 142.883 48.0278 143.582 51.2666C143.582 51.2679 143.583 51.2703 143.584 51.2734C143.586 51.2807 143.588 51.2931 143.592 51.3096C143.599 51.3426 143.609 51.394 143.624 51.4629C143.653 51.6013 143.698 51.812 143.755 52.0889C143.869 52.6428 144.036 53.4655 144.244 54.5244C144.66 56.6437 145.239 59.7076 145.882 63.458C147.17 70.9685 148.711 81.1903 149.736 92.0801C149.983 94.6972 150.197 97.343 150.372 99.9902C150.065 99.9958 149.756 100 149.447 100C121.833 99.9999 99.4473 77.6142 99.4473 50C99.4473 22.3858 121.833 5.77331e-05 149.447 0Z" fill="#FF2020"/>
</svg>
