<svg width="200" height="200" viewBox="0 0 200 200" fill="none" xmlns="http://www.w3.org/2000/svg">
<path d="M55.2678 44.5195C57.4194 43.6726 59.6208 43.642 61.8235 44.2832C66.1577 45.5451 70.5007 49.409 74.803 54.7393C83.4397 65.4399 92.4522 82.7557 101.357 99.8975C110.3 117.114 119.134 134.155 127.46 144.544C131.642 149.762 135.554 153.115 139.135 154.106C140.885 154.591 142.557 154.512 144.187 153.801C145.836 153.081 147.516 151.683 149.197 149.406C153.195 143.991 155.27 135.158 156.05 124.758C156.827 114.402 156.31 102.67 155.269 91.6113C154.228 80.558 152.667 70.2049 151.365 62.6133C150.714 58.8183 150.127 55.7148 149.704 53.5615C149.493 52.4853 149.323 51.6464 149.205 51.0772C149.147 50.7927 149.1 50.5754 149.07 50.4297C149.054 50.3569 149.043 50.3012 149.035 50.2647C149.032 50.2465 149.029 50.2326 149.027 50.2236C149.026 50.2192 149.024 50.216 149.024 50.2139V50.2119C149.027 50.2107 149.084 50.198 150.001 50C150.978 49.7891 150.979 49.7893 150.979 49.7901C150.979 49.7907 150.979 49.7917 150.98 49.793C150.98 49.7955 150.981 49.7991 150.982 49.8037C150.984 49.8134 150.986 49.828 150.99 49.8467C150.999 49.8846 151.011 49.9414 151.027 50.0156C151.058 50.1641 151.104 50.3844 151.163 50.6719C151.282 51.2472 151.455 52.0933 151.667 53.1768C152.093 55.3436 152.681 58.4628 153.335 62.2754C154.643 69.8994 156.213 80.3051 157.26 91.4238C158.306 102.537 158.833 114.393 158.044 124.907C157.259 135.378 155.157 144.699 150.805 150.594C148.988 153.055 147.053 154.732 144.987 155.634C142.901 156.543 140.756 156.631 138.601 156.034C134.371 154.863 130.121 151.062 125.9 145.795C117.42 135.215 108.486 117.959 99.5823 100.819C90.64 83.6049 81.7274 66.504 73.2463 55.9961C68.9899 50.7225 64.9752 47.2835 61.2649 46.2031C59.4455 45.6735 57.7017 45.7117 56.0012 46.3809C54.285 47.0565 52.5381 48.4053 50.7854 50.6201C46.4021 56.1596 44.1323 65.0491 43.2786 75.461C42.428 85.8333 42.9946 97.5426 44.135 108.567C45.2748 119.586 46.9844 129.89 48.4104 137.44C49.1232 141.215 49.7649 144.3 50.2278 146.439C50.4592 147.509 50.6459 148.344 50.7747 148.909C50.839 149.192 50.8894 149.407 50.9231 149.552C50.9399 149.624 50.9526 149.679 50.9612 149.715C50.9654 149.733 50.9688 149.747 50.9709 149.756C50.972 149.76 50.9724 149.764 50.9729 149.766L50.9739 149.768L50.0012 150C49.0885 150.217 49.0313 150.23 49.0276 150.23C49.0274 150.23 49.0279 150.229 49.0276 150.228L49.0139 150.173C49.005 150.135 48.992 150.079 48.9749 150.006C48.9404 149.858 48.8896 149.639 48.8245 149.353C48.6942 148.781 48.5057 147.94 48.2727 146.863C47.8066 144.709 47.1621 141.606 46.4456 137.812C45.0128 130.225 43.292 119.864 42.1448 108.773C40.9982 97.6886 40.4207 85.843 41.2854 75.2979C42.1469 64.7921 44.4524 55.4002 49.217 49.3789C51.1186 46.9759 53.1321 45.3603 55.2678 44.5195ZM50.9739 149.769C51.1016 150.306 50.7696 150.845 50.2327 150.973C49.6954 151.101 49.1565 150.769 49.0286 150.231L50.9739 149.769ZM149.79 49.0225C150.33 48.9063 150.862 49.2494 150.979 49.7891L149.024 50.211C148.907 49.6711 149.25 49.139 149.79 49.0225Z" fill="black"/>
<g filter="url(#filter0_f_118_2)">
<path d="M87.7811 121.986C91.7584 144.543 81.7852 186.212 59.0304 190.224C36.2757 194.237 11.0042 158.782 7.02686 136.225C3.04951 113.669 21.8724 112.552 44.6272 108.539C67.382 104.527 83.8037 99.4296 87.7811 121.986Z" fill="#FF2020"/>
</g>
<circle cx="150" cy="50" r="49" stroke="black" stroke-width="2"/>
<defs>
<filter id="filter0_f_118_2" x="-8.50671" y="90.0374" width="112.142" height="115.5" filterUnits="userSpaceOnUse" color-interpolation-filters="sRGB">
<feFlood flood-opacity="0" result="BackgroundImageFix"/>
<feBlend mode="normal" in="SourceGraphic" in2="BackgroundImageFix" result="shape"/>
<feGaussianBlur stdDeviation="7.5" result="effect1_foregroundBlur_118_2"/>
</filter>
</defs>
</svg>
