<svg width="119" height="114" viewBox="0 0 119 114" fill="none" xmlns="http://www.w3.org/2000/svg">
<path d="M15.2678 1.51959C17.4194 0.672683 19.6208 0.642011 21.8235 1.28326C26.1577 2.54515 30.5007 6.40901 34.803 11.7393C43.4397 22.44 52.4522 39.7558 61.3567 56.8975C70.3001 74.1142 79.1341 91.1547 87.4602 101.544C91.6418 106.762 95.5545 110.115 99.135 111.107C100.885 111.591 102.557 111.512 104.187 110.801C105.836 110.081 107.516 108.683 109.197 106.406C113.195 100.991 115.27 92.1577 116.05 81.7579C116.827 71.4017 116.31 59.6704 115.269 48.6114C114.228 37.558 112.667 27.2049 111.365 19.6133C110.714 15.8183 110.127 12.7148 109.704 10.5616C109.493 9.48533 109.323 8.64641 109.205 8.07721C109.147 7.79276 109.1 7.57541 109.07 7.42975C109.054 7.35692 109.043 7.30129 109.035 7.26471C109.032 7.24654 109.029 7.23269 109.027 7.22369C109.026 7.21929 109.024 7.21607 109.024 7.21393V7.21198C109.027 7.21079 109.084 7.19802 110.001 7.00006C110.978 6.78918 110.979 6.78938 110.979 6.7901C110.979 6.79073 110.979 6.79179 110.98 6.79303C110.98 6.7955 110.981 6.79913 110.982 6.80377C110.984 6.81341 110.986 6.82801 110.99 6.84674C110.999 6.88469 111.011 6.94149 111.027 7.01569C111.058 7.16418 111.104 7.3844 111.163 7.67194C111.282 8.24725 111.455 9.09336 111.667 10.1768C112.093 12.3436 112.681 15.4629 113.335 19.2755C114.643 26.8995 116.213 37.3051 117.26 48.4239C118.306 59.5373 118.833 71.393 118.044 81.9073C117.259 92.3776 115.157 101.699 110.805 107.594C108.988 110.055 107.053 111.732 104.987 112.634C102.901 113.543 100.756 113.631 98.6008 113.034C94.3709 111.863 90.1208 108.062 85.8997 102.795C77.4204 92.2146 68.4856 74.9588 59.5823 57.8194C50.64 40.605 41.7274 23.5041 33.2463 12.9962C28.9899 7.72253 24.9752 4.28355 21.2649 3.20319C19.4455 2.67352 17.7017 2.7117 16.0012 3.38092C14.285 4.05652 12.5381 5.40533 10.7854 7.62018C6.40207 13.1596 4.13233 22.0492 3.27856 32.461C2.42804 42.8334 2.99463 54.5427 4.13501 65.5674C5.27477 76.5862 6.9844 86.8897 8.4104 94.4405C9.1232 98.2148 9.76485 101.3 10.2278 103.44C10.4592 104.509 10.6459 105.344 10.7747 105.909C10.839 106.192 10.8894 106.407 10.9231 106.552C10.9399 106.624 10.9526 106.679 10.9612 106.715C10.9654 106.733 10.9688 106.747 10.9709 106.756C10.972 106.76 10.9724 106.764 10.9729 106.766L10.9739 106.768L10.0012 107C9.08846 107.217 9.03127 107.23 9.02759 107.231C9.02745 107.23 9.02785 107.229 9.02759 107.228L9.01392 107.173C9.00502 107.135 8.99196 107.079 8.97485 107.006C8.94043 106.858 8.88961 106.639 8.82446 106.353C8.69419 105.781 8.50569 104.94 8.27271 103.863C7.80655 101.709 7.16208 98.6057 6.44556 94.8116C5.01284 87.2252 3.29198 76.8642 2.14478 65.7735C0.998179 54.6886 0.420743 42.843 1.2854 32.2979C2.14687 21.7922 4.45243 12.4002 9.21704 6.37897C11.1186 3.97599 13.1321 2.36035 15.2678 1.51959ZM10.9739 106.769C11.1016 107.306 10.7696 107.845 10.2327 107.973C9.69544 108.101 9.1565 107.769 9.02856 107.232L10.9739 106.769ZM109.79 6.02252C110.33 5.90635 110.862 6.24945 110.979 6.78912L109.024 7.211C108.907 6.67115 109.25 6.13905 109.79 6.02252Z" fill="black"/>
</svg>
