<svg width="117" height="112" viewBox="0 0 117 112" fill="none" xmlns="http://www.w3.org/2000/svg">
<path d="M14.4502 0.985321C16.489 0.182762 18.5758 0.149396 20.6826 0.762665C24.8609 1.97906 29.1213 5.73756 33.4121 11.0537C42.0099 21.7061 50.9981 38.968 59.9121 56.1279C68.8455 73.3251 77.705 90.4194 86.0693 100.856C90.2607 106.086 94.2572 109.551 98 110.588C99.8514 111.101 101.642 111.02 103.386 110.259C105.139 109.494 106.883 108.026 108.598 105.703C112.685 100.168 114.765 91.2125 115.547 80.7949C116.327 70.3992 115.808 58.637 114.766 47.5644C113.723 36.4946 112.159 26.128 110.855 18.5283C110.204 14.729 109.618 11.6214 109.194 9.46481C108.983 8.38683 108.811 7.54619 108.693 6.97556C108.634 6.69043 108.589 6.47247 108.558 6.32614C108.542 6.25308 108.53 6.19701 108.522 6.16013C108.519 6.14207 108.516 6.12821 108.514 6.11911C108.513 6.11462 108.512 6.11059 108.512 6.10837L108.511 6.10641C108.511 6.10583 108.525 6.10243 109 5.99997C109.435 5.90606 109.483 5.89608 109.488 5.89548C109.488 5.89604 109.489 5.89731 109.489 5.89841C109.49 5.90079 109.49 5.90465 109.491 5.90915C109.493 5.9186 109.497 5.93269 109.501 5.95114C109.509 5.98872 109.521 6.04535 109.536 6.11911C109.567 6.26688 109.614 6.48664 109.673 6.77341C109.791 7.34713 109.963 8.19099 110.176 9.27243C110.601 11.4358 111.188 14.5512 111.841 18.3593C113.147 25.9752 114.715 36.3681 115.761 47.4707C116.806 58.5703 117.331 70.3945 116.545 80.8691C115.761 91.3219 113.666 100.522 109.402 106.297C107.619 108.712 105.747 110.32 103.785 111.176C101.814 112.036 99.7868 112.12 97.7334 111.552C93.666 110.425 89.5002 106.737 85.2891 101.482C76.8481 90.9498 67.9378 73.7475 59.0244 56.5888C50.0915 39.3925 41.1538 22.2376 32.6338 11.6816C28.366 6.39401 24.2695 2.84929 20.4033 1.7236C18.4881 1.16609 16.6297 1.20219 14.8164 1.91599C12.9953 2.63296 11.1816 4.04847 9.3916 6.31052C4.91318 11.9704 2.63499 20.9849 1.7793 31.4199C0.925229 41.8354 1.49381 53.5793 2.63574 64.6191C3.77735 75.6557 5.49031 85.9735 6.91797 93.5332C7.63171 97.3125 8.27454 100.402 8.73828 102.546C8.97004 103.617 9.15699 104.453 9.28613 105.02C9.35065 105.303 9.4007 105.52 9.43457 105.665C9.45143 105.737 9.465 105.792 9.47363 105.829C9.47791 105.847 9.48124 105.862 9.4834 105.871C9.48437 105.875 9.48486 105.879 9.48535 105.881L9.48633 105.884L9.5 105.984C9.50745 106.217 9.35033 106.43 9.11523 106.486C8.84675 106.55 8.57757 106.384 8.51367 106.115L9 106C8.51383 106.116 8.51285 106.115 8.5127 106.114V106.112C8.5121 106.11 8.51085 106.105 8.50977 106.101C8.50752 106.091 8.5043 106.077 8.5 106.059C8.49121 106.021 8.47795 105.966 8.46094 105.893C8.42671 105.746 8.3764 105.527 8.31152 105.242C8.18161 104.672 7.99339 103.832 7.76074 102.757C7.2954 100.606 6.6511 97.5076 5.93555 93.7187C4.50452 86.1412 2.78693 75.7943 1.6416 64.7216C0.496573 53.6518 -0.0779455 41.8398 0.783203 31.3379C1.64279 20.8559 3.93824 11.5901 8.60742 5.68942C10.4719 3.3332 12.4192 1.78486 14.4502 0.985321ZM108.895 5.51071C109.164 5.45271 109.43 5.62485 109.488 5.8945L109 5.99997L108.511 6.10544C108.453 5.83568 108.625 5.56906 108.895 5.51071Z" fill="black"/>
</svg>
