<svg width="150" height="150" viewBox="0 0 150 150" fill="none" xmlns="http://www.w3.org/2000/svg">
<path d="M28.9083 18.562C29.4235 18.4227 30.0915 18.5814 30.595 18.7959C30.7556 18.8624 30.6749 19.1533 30.7811 19.2123C30.995 19.3275 31.1947 19.1861 31.409 19.3229C31.4775 19.3697 31.3878 19.8308 31.4599 19.8692C31.8671 20.0767 32.2445 19.9622 32.6558 20.0638C32.9157 20.1278 33.1649 20.1866 33.4295 20.2413C35.1736 20.614 36.9189 20.7841 38.6975 20.9825C39.3708 21.0571 40.189 21.483 40.8845 21.3055C40.9658 21.2844 40.9208 20.8786 40.9365 20.8454C41.1838 20.336 41.0962 21.1536 41.2554 21.2636C41.8767 21.6981 42.5753 21.7412 43.1852 21.5898C43.4406 21.5242 43.1913 20.717 43.4451 21.171C43.4628 21.2017 43.3941 21.6316 43.4641 21.6781C43.6218 21.7827 43.9315 21.7083 44.054 21.7434C44.2897 21.8133 44.3291 21.8093 44.5555 21.816C44.869 21.8291 45.2287 22.046 45.563 21.9513C45.6343 21.9298 45.5437 21.4877 45.6579 21.4136C45.7735 21.3396 46.0715 21.3794 46.17 21.4843C46.2693 21.5892 46.2238 21.9356 46.2409 22.0153C46.3809 22.6874 46.7364 21.761 46.7819 21.7384C47.5929 21.3535 48.2831 21.8886 49.0497 21.8933C49.6213 21.8958 50.247 21.7261 50.7946 21.7546C51.4542 21.7902 52.005 22.0338 52.6403 21.9979C52.7072 21.9946 52.6331 21.4752 52.7148 21.4701C53.5891 21.4169 54.4588 21.4805 55.317 21.8377C55.4039 21.874 55.2879 22.3286 55.3744 22.3921C55.911 22.7708 56.7351 23.6768 57.0738 21.6962C57.4342 21.7765 57.8667 21.86 58.1893 22.2624C58.3968 22.5214 58.189 23.016 58.4487 22.8063C58.5068 22.7596 58.4357 22.3245 58.5216 22.2873C58.8831 22.1311 59.2794 22.2755 59.6444 22.0539C59.7186 22.0078 59.7016 21.6183 59.7231 21.5483C59.9028 20.9818 60.1818 21.9229 60.245 21.9916C60.7201 22.5041 61.0828 22.3068 61.5254 22.3228C61.6292 22.3267 61.5107 21.8027 61.6107 21.7877C62.1302 21.7169 62.6722 21.7662 63.1764 22.0023C63.2892 22.0561 63.1815 22.5008 63.2352 22.5493C63.4725 22.7578 63.5324 21.9167 63.7614 22.1003C63.8098 22.138 63.7793 22.5192 63.7879 22.5611C63.8254 22.746 63.8625 22.8056 63.8973 22.7954C63.9847 22.7692 64.0572 22.2833 64.0826 22.2687C64.5302 21.9912 64.8092 22.9662 65.2464 22.8319C65.2988 22.8149 65.1849 22.3313 65.3318 22.3129C66.2969 22.1874 67.3221 22.3281 68.2841 22.7217C68.4318 22.7822 68.3232 23.1439 68.3322 23.1887C68.4786 23.8882 68.5847 22.9533 68.6334 22.9185C69.0177 22.6678 69.3714 23.4553 69.6427 22.3429C71.2631 22.7423 72.8863 22.129 74.4944 23.1395C74.5147 23.1512 74.4747 23.6118 74.5152 23.6331C75.0034 23.8956 74.9148 23.1787 75.247 22.3052C75.3307 22.0859 75.573 23.1453 75.5947 23.2229C75.6733 23.5092 75.5844 24.1941 75.6111 24.2496C75.8314 24.6857 75.8134 22.4183 76.1138 22.4198C76.1231 22.4236 76.0807 22.8406 76.1055 22.8823C76.1826 23.0132 76.2613 22.8479 76.3367 22.9921C76.5093 23.3258 76.5635 24.4279 76.8366 23.7887C76.8713 23.7058 76.8286 22.4194 77.0973 22.4821C77.2037 22.5082 77.6825 22.4897 77.8121 22.5739C77.9436 22.6581 77.8499 23.0719 77.8592 23.0899C78.2114 23.6405 78.0747 23.8667 78.2476 24.6793C78.4207 25.4888 78.3851 23.5607 78.4597 23.3461C78.5343 23.132 78.7937 23.5861 78.8572 23.7437C78.9207 23.9014 78.8382 24.1642 78.895 24.2536C79.2721 24.8377 79.0693 23.2979 79.1972 22.9928C79.4974 22.2705 79.7148 23.7018 79.9839 23.8438C80.0567 23.8821 79.9994 23.5561 80.0646 23.5261C80.3231 23.4116 80.4752 23.8588 80.7726 23.4519C80.8217 23.3856 81.0644 22.5277 81.2125 23.1596C81.2335 23.2507 81.1695 23.6065 81.2784 23.6871C81.441 23.808 81.7357 23.8879 81.9131 23.7701C82.0441 23.6829 81.8987 23.0948 82.0616 23.2783C82.134 23.3602 81.9963 23.7027 82.1326 23.828C82.2677 23.9532 82.6191 23.9406 82.7496 23.9296C82.8813 23.9184 82.8124 23.4726 82.8232 23.4427C82.8887 23.2713 83.1432 23.0583 83.1656 23.059C84.2981 23.0123 85.3344 23.7699 86.4373 23.5286C86.5236 23.5104 86.4692 23.0404 86.4824 23.0328C86.7789 22.838 86.538 24.0849 86.7417 24.5042C86.718 23.5511 86.8387 23.7244 87.0479 23.6212C87.1487 23.5708 87.0964 23.2014 87.1058 23.1637C87.2585 22.6043 87.3578 23.3288 87.3836 23.477C87.479 24.0224 87.5908 23.3795 87.6559 23.744C87.7208 24.1058 87.5627 24.6405 87.763 24.6349C87.821 24.2942 87.679 23.4018 87.8309 23.2583C88.4023 22.7155 89.4741 23.4216 89.9294 23.4971C90.3874 23.5725 90.5365 23.5105 90.8039 23.6354C91.2868 23.8612 91.115 23.1988 91.4156 22.8978C91.7175 22.5969 91.5619 24.2233 91.603 24.5734C91.6433 24.9233 91.6917 24.5637 91.7433 24.7562C91.7948 24.9487 91.6795 25.1859 91.8027 25.2587C91.926 25.3316 92.2687 24.7115 92.3148 24.346C92.4124 23.5716 92.2642 22.7574 92.591 23.0451C92.6098 23.0622 92.546 23.4897 92.6181 23.5334C93.1934 23.8662 93.7835 23.89 94.357 24.1846C94.4357 24.2257 94.3624 24.7013 94.4082 24.7307C94.8851 25.0378 94.7194 24.2343 94.9852 23.3441C94.9201 24.5303 95.0601 25.2571 95.4221 25.2661C95.6398 25.2719 95.6052 24.7535 95.7481 24.389C95.791 24.2791 95.9433 24.6358 95.9726 24.3922C96.0692 23.5961 95.9285 22.7035 96.301 23.0606C96.3173 23.0776 96.2626 23.5134 96.3193 23.5401C96.686 23.715 96.733 22.8819 97.1288 22.7831C97.4388 22.7056 97.9882 23.2166 98.3422 23.301C98.3284 24.635 98.6629 24.3312 98.8026 23.4122C99.0312 23.451 99.2789 23.4002 99.5 23.5285C99.5761 23.5722 99.524 23.9582 99.5335 24C99.6778 24.6554 99.7821 23.761 99.8318 23.7262C100.372 23.3878 100.802 24.0681 101.318 23.4078C101.337 23.384 101.37 22.4575 101.504 23.1347C101.513 23.1814 101.341 23.6022 101.582 23.6359C101.824 23.6698 102.276 24.1686 102.611 23.7408C102.692 23.6378 102.9 22.8864 103.062 23.4749C103.083 23.5548 103.058 23.8205 103.089 23.9685C103.189 24.4402 103.249 23.5039 103.366 24.3001C103.482 25.0963 103.73 25.6933 104.07 25.1458C104.081 25.1299 104.163 24.3879 104.269 24.4001C104.438 24.4202 104.678 24.5759 104.854 24.5718C104.939 24.5696 104.887 24.1084 104.901 24.1C105.472 23.8441 105.876 24.2567 106.484 24.4375C106.595 24.4716 106.919 23.8443 107.134 24.3421C107.369 24.887 107.116 27.1491 107.665 26.6121C107.886 26.3973 108.175 23.5273 108.565 25.0162C109.335 24.6505 110.041 25.4143 110.813 24.8906C110.848 24.8674 110.96 24.0664 111.041 24.0776C111.162 24.0957 111.228 24.4705 111.314 24.4954C111.675 24.6094 112.006 24.29 112.354 24.341C112.487 24.3595 112.439 24.7466 112.597 24.7687C112.755 24.7905 112.862 24.2809 113.075 24.5278C113.236 24.716 113.394 25.7587 113.608 25.8809C113.619 24.8528 113.766 24.8744 114.028 24.6037C114.079 24.5512 114.026 24.1932 114.05 24.1499C114.147 23.9658 114.236 24.2626 114.328 24.0621C114.35 24.0139 114.352 23.6628 114.371 23.6037C114.528 23.087 114.782 23.8775 114.825 24.0151C114.993 24.5378 115.073 24.0814 115.202 24.2873C115.33 24.4933 115.137 24.7499 115.287 24.875C115.598 25.1339 116 25.0783 116.317 25.0952C116.444 25.0997 116.359 24.6309 116.377 24.6206C116.639 24.5024 116.903 25.0015 117.05 24.0683C117.227 26.4826 117.209 23.8346 117.582 24.3186C117.611 24.3578 117.646 25.4993 117.532 25.6666C117.419 25.8338 117.248 25.4766 117.091 25.7375C117.053 25.7987 116.837 26.8678 116.808 26.9326C116.579 27.4384 116.551 25.7326 116.539 25.6388C116.405 24.6274 116.142 25.7791 116.073 25.8586C115.758 26.2227 115.493 25.9821 115.23 26.2418C115.058 26.4097 115.038 27.527 114.903 27.4924C114.455 27.3782 114.303 25.819 113.877 27.1693C113.786 27.4573 113.872 28.6788 113.551 27.7176C113.531 27.657 113.293 26.7778 113.152 27.3331C113.134 27.4031 113.133 27.759 113.11 27.7888C112.955 27.9818 112.853 27.6979 112.684 27.8332C112.515 27.9685 112.312 28.1703 112.121 28.049C112.005 27.9764 111.859 27.3129 111.804 27.1503C111.649 26.6822 111.479 27.4484 111.384 26.8818C111.288 26.3123 111.482 25.4485 111.227 25.0799C111.214 26.0046 111.189 26.9536 111.171 27.8835C110.608 27.849 110.057 27.5482 109.494 27.587C109.424 27.5927 109.494 28.0901 109.419 28.1091C109.102 28.1869 108.827 27.8315 108.498 27.9715C108.244 28.0817 107.964 28.6069 107.699 28.7385C107.541 27.6798 107.145 28.0375 106.859 27.9397C106.759 27.9058 106.767 27.6233 106.696 27.5308C106.429 27.1888 106.551 28.1243 106.477 28.2711C106.158 28.8979 106.14 26.7814 105.768 26.8322C105.748 26.8341 105.501 27.9612 105.468 28.0314C105.254 28.4886 105.434 27.6386 105.302 27.5546C105.061 27.4013 104.895 27.1312 104.61 27.4604C104.527 27.5579 104.326 28.2602 104.169 27.7156C104.148 27.6443 104.161 27.2715 104.144 27.2496C103.84 26.8842 103.825 28.0558 103.648 28.4519C103.47 28.8478 103.202 28.0378 103.148 27.8044C103.006 27.2008 103.26 27.5472 103.268 27.4881C103.363 26.7842 103.165 26.9046 103.014 26.8444C102.997 25.6955 102.785 25.7635 102.857 26.7866C102.865 26.8984 102.984 26.7918 103.014 26.8444C102.876 27.971 102.643 28.1143 102.392 27.0598C102.274 26.5656 102.39 25.9905 102.025 26.1994C101.858 26.2937 101.919 27.085 101.771 27.2999C101.434 27.7904 101.004 27.0505 100.66 27.1651C100.535 27.2067 100.654 27.6403 100.569 27.6836C100.342 27.8 100.144 27.4742 99.9148 27.6395C99.894 27.655 99.9423 28.1085 99.8713 28.1139C99.3333 28.1639 98.869 27.8712 98.3093 27.8603C98.0378 27.8552 97.5521 28.1027 97.2723 28.0509C96.7882 27.9639 96.1927 27.3016 95.7765 27.4595C95.5051 27.5605 95.5621 28.0141 95.4445 28.3224C95.2173 28.9199 94.8284 27.8452 94.776 27.6788C94.7747 27.6733 95.0072 27.5678 94.8847 27.3343C94.8154 26.849 94.7787 27.6767 94.776 27.6788C94.7413 27.5714 94.2753 27.4658 94.1824 27.552C94.1318 27.599 94.1575 28.0287 94.1312 28.0451C93.5061 28.426 92.8845 28.5316 92.2524 28.327C92.2414 28.3183 92.2609 27.8379 92.2349 27.8234C91.8706 27.6076 91.6337 28.1939 91.3312 28.5411C91.0283 28.8881 90.7881 28.7698 90.6148 27.9439C90.3865 28.0464 90.0628 27.6797 89.8769 27.4573C89.6911 27.2349 89.6593 28.17 89.6427 28.1884C89.1247 28.777 88.8273 28.2398 88.2945 28.1531C88.0413 28.1103 87.5377 28.2427 87.2603 28.3432C87.0419 28.4242 86.9123 28.2042 86.7112 28.343C86.684 28.3616 86.7086 28.7781 86.7003 28.7941C86.4737 29.2909 86.5877 28.2736 86.5428 28.0915C86.38 27.4292 86.2791 27.0765 85.9921 27.3856C85.9254 27.4564 85.7225 28.9209 85.6012 29.0058C85.4436 29.1135 85.5063 28.5885 85.3413 28.7147C85.3272 28.725 85.3279 29.0492 85.2268 29.0342C84.7569 28.969 84.2506 28.777 83.7592 28.8062C83.6924 28.8089 83.7745 29.3236 83.678 29.336C83.2239 29.3939 82.7344 29.3715 82.2928 29.1278C82.1845 29.0662 82.2552 28.7067 82.2323 28.5996C82.0919 27.9519 81.8803 28.8902 81.8464 28.9078C81.0393 29.3538 80.4251 28.499 79.6029 28.898C79.5576 28.9215 79.2095 29.9264 79.06 29.0613C79.0498 29.0038 78.9036 28.1188 78.7645 28.7222C78.7559 28.7599 78.8475 29.2156 78.6823 29.1681C78.517 29.1206 78.2489 29.4225 78.0261 28.9209C77.9555 28.7629 77.7929 27.88 77.5742 28.5813C77.5597 28.6302 77.2153 30.217 77.105 29.1196C77.0872 28.939 77.1156 27.7789 76.855 28.3719C76.8053 28.4868 76.8921 28.7463 76.7621 28.907C76.5629 29.1546 76.3043 28.8419 76.0592 29.357C76.0172 29.4482 75.8299 30.2344 75.6892 29.6355C75.6672 29.5418 75.7132 29.1547 75.6369 29.1108C75.2742 28.9001 74.8926 29.1564 74.5282 28.8856C74.3989 28.7905 74.4709 28.1648 74.3357 27.9959C74.1999 27.8271 73.926 27.6637 73.7813 27.9488C73.6366 28.234 73.7847 29.2332 73.5707 29.3115C72.6457 29.6513 71.7276 29.0588 70.8019 28.9659C70.6643 28.9521 70.7755 29.3101 70.5728 29.3153C69.8297 29.3361 68.5366 29.6609 67.8952 28.8969C67.3795 28.285 68.038 27.8274 67.6425 27.5769C67.4517 27.4574 67.2362 28.6161 67.1899 28.6523C66.74 29.0199 66.4258 28.5033 66.0188 28.6578C65.9348 28.6899 66.0132 29.1608 65.9417 29.1829C65.6972 29.2625 65.4457 29.0506 65.2124 29.0871C65.107 29.1046 65.1235 29.464 65.027 29.4355C64.7961 29.3714 64.5935 29.2188 64.3725 28.8804C64.3524 28.8495 64.4934 28.4038 64.3238 28.3858C64.1802 28.3713 64.0195 28.2726 63.8539 28.2307C63.7002 28.1925 63.5424 28.2014 63.3896 28.3636C63.2945 28.466 63.2841 29.2869 63.0866 28.7184C63.0452 28.5996 63.1068 27.6143 62.8654 28.4642C62.8239 28.6054 62.4254 29.7511 62.2331 29.009C62.183 28.8137 62.058 28.006 61.9437 28.1318C61.9281 28.1519 61.9862 28.5934 61.8919 28.6356C61.5585 28.7769 61.2208 28.7271 60.8763 28.8625C60.7848 28.8995 60.9169 29.3569 60.7807 29.3975C60.405 29.5098 59.9485 29.39 59.5851 29.2442C59.4506 29.1896 59.5469 28.8124 59.5374 28.7712C59.385 28.1008 59.2849 29.0032 59.2324 29.0554C58.9055 29.3681 58.6654 28.9419 58.3678 29.0518C58.2845 29.0809 58.3399 29.512 58.3231 29.5503C58.1488 29.924 58.2826 29.1518 58.175 29.0657C57.8737 28.8219 57.5382 28.8538 57.2362 28.9064C57.1253 28.9263 57.2456 29.4266 57.1462 29.4387C56.543 29.5199 55.9394 29.4672 55.3538 29.1872C55.2449 29.1336 55.3168 28.7497 55.2947 28.6617C55.1427 28.0461 54.9074 28.8822 54.8543 28.9616C54.6143 29.3242 54.5204 28.9834 54.3067 29.0451C53.2741 29.3527 51.9829 29.117 51.012 28.9699C49.7398 28.7805 48.7466 28.4066 47.5317 28.4916C47.454 28.4965 47.528 29.0086 47.461 29.0194C46.6087 29.1357 45.7485 28.9287 44.8937 29.0694C44.8229 29.08 44.9216 29.5657 44.8063 29.5991C44.5695 29.6709 44.2743 29.6421 44.0431 29.4853C43.9303 29.4098 44.0858 28.995 43.9723 28.9275C43.7019 28.7692 43.4112 28.7323 43.1377 28.8078C43.0213 28.8409 43.1923 29.3383 43.0415 29.3427C41.9967 29.3833 40.9721 29.4602 39.9244 28.8092C39.8526 28.7645 39.8002 27.7562 39.645 27.9482C39.6309 28.2278 39.6288 28.5568 39.6211 28.8557C38.0958 29.004 36.6073 28.6422 35.0821 28.5754C35.0189 28.5727 35.1235 29.1076 35.0015 29.1051C34.4445 29.0944 33.9062 29.176 33.3566 28.9701C33.1847 28.9082 33.021 28.8204 32.8537 28.6964C32.7799 28.6439 32.8236 27.7047 32.6082 27.845C32.5732 27.8706 32.2435 27.9932 32.1603 28.1965C32.1489 28.2271 32.2032 28.6661 32.1007 28.678C31.4986 28.7396 30.8583 28.6342 30.2565 28.3613C30.1588 28.3164 30.2668 27.8503 30.1977 27.8143C29.709 27.5624 29.1715 27.913 28.701 27.4854C28.3913 27.1975 28.5108 26.3912 28.3504 25.5954C28.3295 25.4831 28.1342 25.464 28.1277 25.0017C28.1086 23.8391 28.2111 22.5668 28.1806 21.3275C28.1814 21.0603 27.8745 21.347 28.0593 20.7024C28.0775 20.6592 28.2736 20.4464 28.3218 20.228C28.3564 20.077 28.2996 19.6064 28.3689 19.4132C28.4389 19.2203 28.5062 19.6149 28.6206 19.3883C28.7313 19.1588 28.6877 18.6236 28.9083 18.562ZM89.038 26.4632C88.8667 26.0129 88.8307 27.6578 89.0215 27.2654C89.0307 27.2445 89.0468 26.4852 89.038 26.4632ZM110.065 26.3073C109.84 25.581 109.681 26.6473 109.839 27.2082C109.997 27.7685 110.133 26.5275 110.065 26.3073ZM112.422 25.7853C112.158 25.2124 112.109 27.545 112.395 27.0743C112.412 27.0477 112.437 25.8186 112.422 25.7853ZM29.1284 25.3751C29.1282 25.3533 28.9847 25.3309 28.9823 25.3525C28.9032 25.8743 29.1845 25.9188 29.1284 25.3751ZM114.761 25.2154C114.679 24.8996 114.439 25.2632 114.541 25.6559C114.624 25.9718 114.864 25.6082 114.761 25.2154ZM79.9855 24.6468C79.9829 24.6222 79.8825 24.5995 79.8835 24.738C79.8871 25.1844 80.0281 25.0594 79.9855 24.6468ZM118.734 25.1979C118.147 25.1089 117.795 23.1812 118.434 23.3999C118.55 23.4395 118.183 24.0139 118.33 24.1879C118.599 24.505 118.781 23.2955 119.055 23.9443C119.104 24.0631 118.768 25.2072 118.733 25.2005C118.734 25.1996 118.734 25.1988 118.734 25.1979ZM88.9501 24.4867C88.9467 24.4649 88.8072 24.4434 88.8037 24.465C88.7249 24.9867 89.0059 25.0303 88.9501 24.4867ZM74.1168 23.5865C74.1093 23.5401 73.7851 23.4943 73.7744 23.5369C73.5986 24.3896 74.2539 24.4848 74.1168 23.5865ZM98.3476 23.3366C98.5032 22.8121 98.684 22.7511 98.8019 23.4115C98.651 23.3757 98.5002 23.3698 98.3476 23.3366Z" fill="black"/>
<path d="M124.503 25.5669C124.646 26.1329 124.493 26.8745 124.282 27.4435C124.217 27.6164 123.926 27.5279 123.868 27.6486C123.754 27.8954 123.897 28.1034 123.762 28.3502C123.716 28.431 123.254 28.3327 123.216 28.4135C123.012 28.8528 123.13 29.2921 123.032 29.7394C122.572 31.8738 122.392 33.9531 122.195 36.1206C122.185 36.2326 122.174 36.3458 122.164 36.4603C122.095 37.2125 121.675 38.1298 121.859 38.8934C121.881 38.9834 122.286 38.9297 122.319 38.9468C122.831 39.2165 122.013 39.1269 121.904 39.3044C121.475 40.0023 121.437 40.7914 121.594 41.4507C121.662 41.7364 122.467 41.4493 122.015 41.7381C121.984 41.7582 121.554 41.6853 121.508 41.7642C121.405 41.942 121.482 42.2877 121.448 42.4201C121.38 42.6828 121.384 42.7266 121.379 42.9779C121.369 43.3222 121.155 43.7358 121.253 44.0992C121.275 44.1775 121.716 44.0736 121.791 44.1986C121.866 44.3235 121.829 44.6568 121.725 44.7701C121.621 44.8832 121.274 44.8352 121.195 44.8553C120.524 45.024 121.453 45.3999 121.476 45.4503C121.868 46.3531 121.339 47.1195 121.341 47.9738C121.344 48.6082 121.519 49.3061 121.496 49.9115C121.466 50.6371 121.227 51.2589 121.269 51.9636C121.273 52.0383 121.792 51.9503 121.798 52.0415C121.859 53.0138 121.803 53.9749 121.454 54.9372C121.419 55.0339 120.963 54.9099 120.901 55.0066C120.527 55.5996 119.629 56.5365 121.613 56.885C121.536 57.2865 121.457 57.7733 121.058 58.1319C120.801 58.3634 120.304 58.1398 120.516 58.4234C120.564 58.4874 120.998 58.4033 121.036 58.4993C121.196 58.9037 121.055 59.3461 121.281 59.7453C121.327 59.8266 121.717 59.8036 121.787 59.8265C122.355 60.0191 121.417 60.3435 121.349 60.414C120.841 60.9506 121.042 61.3412 121.031 61.84C121.028 61.9557 121.551 61.8178 121.567 61.9291C121.643 62.5058 121.6 63.1058 121.369 63.6712C121.316 63.797 120.87 63.6825 120.823 63.7427C120.617 64.0081 121.458 64.0642 121.277 64.3196C121.24 64.3734 120.859 64.3441 120.817 64.354C120.16 64.509 121.092 64.6397 121.112 64.679C121.395 65.1769 120.423 65.4949 120.562 65.9771C120.58 66.0348 121.062 65.9033 121.082 66.0654C121.218 67.1429 121.089 68.2823 120.707 69.3505C120.648 69.517 120.285 69.3996 120.241 69.4102C119.543 69.5833 120.479 69.69 120.514 69.7439C120.77 70.1701 119.986 70.5665 121.102 70.8557C120.722 72.6607 121.356 74.4578 120.368 76.2556C120.357 76.2783 119.896 76.2403 119.875 76.2856C119.619 76.8275 120.335 76.7253 121.213 77.0828C121.433 77.1733 120.377 77.4571 120.3 77.4819C120.015 77.5728 119.329 77.4845 119.274 77.5147C118.841 77.7641 121.108 77.7104 121.111 78.0404C121.107 78.0507 120.689 78.0101 120.648 78.038C120.518 78.1258 120.685 78.2134 120.541 78.3002C120.21 78.4993 119.109 78.577 119.752 78.8707C119.836 78.9076 121.121 78.8422 121.063 79.1387C121.038 79.2538 121.064 79.7844 120.982 79.9337C120.9 80.0823 120.484 79.9837 120.467 79.9944C119.921 80.3961 119.693 80.2468 118.883 80.4509C118.077 80.6544 120.004 80.5848 120.22 80.6632C120.435 80.7385 119.985 81.0395 119.828 81.1126C119.672 81.1861 119.408 81.0981 119.319 81.1631C118.741 81.5923 120.278 81.3415 120.585 81.4783C121.312 81.8013 119.884 82.0546 119.747 82.366C119.71 82.4485 120.035 82.3786 120.066 82.4514C120.185 82.7388 119.74 82.915 120.152 83.231C120.175 83.2482 120.285 83.2873 120.399 83.3381L120.398 83.2978C120.631 83.3962 120.88 83.5426 120.464 83.6754C120.374 83.7037 120.015 83.6499 119.941 83.7764C119.829 83.9654 119.766 84.2979 119.893 84.4875C119.988 84.6276 120.567 84.4371 120.393 84.6259C120.315 84.7097 119.965 84.5761 119.848 84.7323C119.73 84.8894 119.762 85.2638 119.78 85.4159C119.799 85.5641 120.24 85.4627 120.271 85.4734C120.446 85.5387 120.673 85.813 120.674 85.8378C120.784 87.0854 120.089 88.2792 120.396 89.4887C120.42 89.5843 120.886 89.4972 120.894 89.5115C121.107 89.8316 119.847 89.6326 119.441 89.8829C120.391 89.8031 120.225 89.9475 120.341 90.1722C120.398 90.2803 120.763 90.2019 120.801 90.2101C121.369 90.3463 120.652 90.4954 120.505 90.532C119.967 90.6677 120.615 90.7495 120.255 90.8453C119.898 90.939 119.354 90.7917 119.373 91.0166C119.716 91.0625 120.598 90.8512 120.751 91.0145C121.329 91.6312 120.691 92.8374 120.646 93.3586C120.6 93.8726 120.671 94.0188 120.564 94.3318C120.371 94.8855 121.021 94.6513 121.341 94.9678C121.661 95.2834 120.028 95.2106 119.681 95.2775C119.334 95.3434 119.697 95.3748 119.508 95.4433C119.319 95.5117 119.075 95.3995 119.01 95.5395C118.946 95.6767 119.588 96.0225 119.956 96.0519C120.735 96.1127 121.538 95.8974 121.273 96.2789C121.257 96.3008 120.826 96.2566 120.787 96.3394C120.494 96.9902 120.512 97.657 120.258 98.3066C120.222 98.3956 119.742 98.3459 119.716 98.398C119.443 98.9385 120.233 98.7051 121.14 98.9456C119.952 98.9492 119.237 99.1568 119.254 99.5596C119.264 99.8011 119.779 99.7284 120.153 99.8613C120.265 99.9011 119.92 100.091 120.165 100.107C120.967 100.159 121.847 99.9439 121.518 100.385C121.502 100.404 121.064 100.372 121.041 100.437C120.894 100.856 121.728 100.854 121.856 101.28C121.956 101.616 121.488 102.27 121.43 102.657C120.098 102.73 120.427 103.088 121.355 103.179C121.333 103.437 121.403 103.706 121.292 103.955C121.254 104.041 120.865 104.012 120.824 104.025C120.182 104.233 121.082 104.287 121.121 104.34C121.501 104.914 120.856 105.44 121.556 105.963C121.582 105.982 122.508 105.951 121.843 106.147C121.798 106.16 121.364 106.004 121.35 106.269C121.335 106.535 120.875 107.084 121.329 107.415C121.438 107.493 122.205 107.675 121.632 107.898C121.554 107.928 121.287 107.92 121.142 107.966C120.68 108.112 121.618 108.108 120.834 108.296C120.05 108.482 119.475 108.804 120.05 109.141C120.067 109.152 120.814 109.187 120.81 109.304C120.804 109.489 120.67 109.768 120.689 109.966C120.699 110.06 121.154 109.966 121.164 109.982C121.467 110.587 121.091 111.072 120.964 111.76C120.94 111.89 121.593 112.191 121.116 112.469C120.593 112.776 118.316 112.68 118.9 113.24C119.133 113.461 122.02 113.566 120.57 114.108C121.002 114.932 120.304 115.779 120.892 116.59C120.918 116.627 121.727 116.688 121.722 116.778C121.714 116.909 121.347 117.016 121.329 117.113C121.245 117.519 121.592 117.865 121.569 118.256C121.561 118.405 121.171 118.38 121.161 118.555C121.151 118.724 121.668 118.818 121.437 119.067C121.261 119.251 120.233 119.506 120.125 119.741C120.481 119.723 120.712 119.731 120.874 119.759L120.874 119.745C121.177 119.809 121.234 119.943 121.418 120.127C121.472 120.181 121.828 120.109 121.872 120.134C122.06 120.235 121.767 120.345 121.971 120.439C122.02 120.462 122.371 120.451 122.431 120.469C122.954 120.622 122.175 120.934 122.04 120.988C121.525 121.195 121.985 121.265 121.785 121.416C121.585 121.567 121.319 121.363 121.201 121.535C120.957 121.893 121.032 122.337 121.03 122.69C121.032 122.831 121.496 122.716 121.507 122.735C121.638 123.021 121.152 123.336 122.092 123.458C119.689 123.762 122.333 123.623 121.868 124.059C121.831 124.093 120.692 124.184 120.519 124.066C120.347 123.947 120.695 123.741 120.427 123.578C120.363 123.539 119.285 123.347 119.219 123.318C118.702 123.085 120.405 122.978 120.498 122.961C121.502 122.766 120.338 122.525 120.256 122.452C119.877 122.118 120.105 121.811 119.833 121.529C119.657 121.344 118.54 121.368 118.569 121.216C118.663 120.708 120.214 120.481 118.848 120.052C118.595 119.972 117.648 120.067 118.015 119.836L118.019 119.924C118.075 119.89 118.162 119.847 118.288 119.793C118.347 119.771 119.208 119.453 118.644 119.337C118.573 119.323 118.218 119.346 118.186 119.323C117.983 119.172 118.258 119.039 118.111 118.864C117.963 118.696 117.746 118.483 117.852 118.267C117.915 118.139 118.565 117.928 118.722 117.855C119.176 117.643 118.399 117.523 118.955 117.374C119.515 117.224 120.393 117.374 120.739 117.061C119.816 117.118 118.867 117.163 117.939 117.215C117.926 116.603 118.177 115.956 118.089 115.345C118.078 115.268 117.588 115.385 117.562 115.303C117.456 114.95 117.787 114.634 117.618 114.271C117.487 114.007 116.938 113.73 116.783 113.447C117.825 113.195 117.433 112.772 117.506 112.454C117.531 112.342 117.813 112.328 117.899 112.242C118.216 111.918 117.295 112.128 117.142 112.057C116.488 111.744 118.597 111.566 118.514 111.155C118.511 111.134 117.365 110.946 117.293 110.913C116.818 110.711 117.681 110.844 117.754 110.693C117.886 110.418 118.141 110.213 117.788 109.917C117.683 109.826 116.967 109.667 117.496 109.449C117.566 109.42 117.938 109.406 117.959 109.386C118.297 109.018 117.128 109.092 116.718 108.921C116.308 108.756 117.094 108.4 117.322 108.322C117.912 108.118 117.588 108.426 117.647 108.431C118.357 108.482 118.221 108.273 118.268 108.099C119.412 107.994 119.327 107.761 118.312 107.919C118.202 107.937 118.318 108.062 118.268 108.099C117.133 108.031 116.97 107.775 118.002 107.423C118.485 107.256 119.068 107.343 118.83 106.951C118.722 106.772 117.938 106.899 117.711 106.749C117.195 106.411 117.898 105.886 117.756 105.502C117.705 105.365 117.282 105.529 117.232 105.439C117.098 105.199 117.407 104.956 117.224 104.713C117.207 104.69 116.759 104.777 116.747 104.698C116.655 104.092 116.912 103.572 116.879 102.937C116.864 102.642 116.58 102.119 116.611 101.797C116.662 101.262 117.278 100.541 117.091 100.096C116.971 99.8036 116.522 99.8958 116.206 99.7856C115.593 99.5732 116.638 99.0625 116.8 98.9919C116.805 98.99 116.927 99.2468 117.152 99.0927C117.631 98.9825 116.802 98.9948 116.8 98.9919C116.904 98.9441 116.977 98.4299 116.885 98.3308C116.834 98.2778 116.407 98.3339 116.389 98.3058C115.965 97.6272 115.817 96.9524 115.978 96.229C115.986 96.216 116.467 96.2083 116.48 96.178C116.67 95.7504 116.069 95.5374 115.703 95.2182C115.336 94.9016 115.438 94.6251 116.251 94.3789C116.134 94.1345 116.479 93.7563 116.689 93.5355C116.899 93.315 115.964 93.3342 115.944 93.3167C115.323 92.7646 115.841 92.4152 115.894 91.8158C115.921 91.5331 115.756 90.9632 115.639 90.6723C115.545 90.4367 115.757 90.2807 115.606 90.0643C115.586 90.035 115.172 90.0859 115.155 90.0774C114.645 89.8519 115.668 89.9223 115.847 89.8619C116.498 89.6422 116.844 89.5098 116.518 89.2008C116.443 89.1314 114.969 88.9912 114.877 88.8621C114.76 88.6943 115.288 88.7348 115.153 88.5592C115.141 88.5441 114.818 88.5628 114.827 88.4496C114.864 87.9253 115.025 87.3333 114.969 86.8017C114.962 86.728 114.453 86.8462 114.435 86.74C114.351 86.2456 114.344 85.6698 114.564 85.1822C114.619 85.0601 114.982 85.119 115.088 85.0884C115.727 84.9008 114.778 84.715 114.759 84.6781C114.537 84.2822 114.583 83.9136 114.659 83.5434C114.661 83.5135 114.652 83.4234 114.655 83.3935C114.762 82.9668 114.913 82.5247 114.687 82.0232C114.663 81.975 113.652 81.6037 114.515 81.4244C114.572 81.4121 115.455 81.2353 114.849 81.0885C114.811 81.0794 114.357 81.19 114.402 81.003C114.447 80.8108 114.141 80.5295 114.639 80.2713C114.796 80.1902 115.676 79.9949 114.971 79.7587C114.922 79.743 113.33 79.3819 114.426 79.2464C114.606 79.2239 115.767 79.2387 115.17 78.9593C115.054 78.9058 114.796 79.0062 114.634 78.8641C114.383 78.6467 114.692 78.3507 114.173 78.0809C114.081 78.0351 113.293 77.8419 113.889 77.6781C113.983 77.6525 114.371 77.6977 114.413 77.6129C114.619 77.2122 114.357 76.7763 114.623 76.3733C114.716 76.2286 115.343 76.2989 115.51 76.1473C115.677 75.9958 115.837 75.6897 115.55 75.5317C115.262 75.3736 114.265 75.5534 114.184 75.3143C113.832 74.2891 114.413 73.2635 114.494 72.2287C114.506 72.0748 114.149 72.2031 114.142 71.9794C114.112 71.153 113.771 69.7211 114.528 68.9943C115.134 68.4178 115.599 69.139 115.845 68.6993C115.962 68.487 114.801 68.261 114.764 68.2097C114.391 67.7096 114.904 67.3561 114.745 66.9075C114.712 66.8145 114.242 66.9073 114.219 66.8281C114.137 66.5577 114.346 66.272 114.307 66.0124C114.288 65.896 113.929 65.9185 113.956 65.8111C114.018 65.5551 114.168 65.3295 114.504 65.0792C114.535 65.0564 114.982 65.2084 114.998 65.0192C115.023 64.7132 115.354 64.3309 115.01 63.9796C114.907 63.8755 114.086 63.8734 114.652 63.6475C114.771 63.6001 115.757 63.6579 114.904 63.3983C114.762 63.3546 113.613 62.9175 114.353 62.6997C114.547 62.6423 115.354 62.4947 115.227 62.3695C115.206 62.3526 114.766 62.4218 114.722 62.3178C114.578 61.9512 114.624 61.5663 114.485 61.1893C114.447 61.0887 113.991 61.2397 113.949 61.0896C113.833 60.677 113.948 60.1609 114.09 59.7572C114.143 59.6083 114.521 59.7104 114.563 59.6995C115.231 59.5242 114.328 59.423 114.275 59.3653C113.959 59.0068 114.383 58.7313 114.27 58.4003C114.24 58.3089 113.81 58.3745 113.771 58.3563C113.396 58.1682 114.169 58.3075 114.254 58.1879C114.495 57.8529 114.46 57.4809 114.405 57.1413C114.384 57.0169 113.884 57.1575 113.871 57.0458C113.784 56.385 113.831 55.6996 114.106 55.0535C114.158 54.9321 114.543 55.008 114.63 54.9826C115.245 54.8076 114.406 54.5538 114.326 54.4954C113.962 54.2303 114.301 54.1239 114.238 53.8876C113.92 52.7337 114.144 51.317 114.282 50.2214C114.46 48.8064 114.825 47.6979 114.73 46.3521C114.724 46.2653 114.213 46.353 114.201 46.2783C114.078 45.3188 114.277 44.3758 114.129 43.4216C114.118 43.3421 113.633 43.4568 113.599 43.3293C113.525 43.0677 113.551 42.7398 113.706 42.4809C113.781 42.3547 114.197 42.5239 114.263 42.3969C114.419 42.1027 114.454 41.7704 114.376 41.4658C114.342 41.3355 113.846 41.5321 113.84 41.3629C113.791 40.2044 113.705 39.0681 114.347 37.8954C114.391 37.8149 115.399 37.7441 115.206 37.5752C114.926 37.5624 114.597 37.5631 114.298 37.5576C114.252 37.0932 114.248 36.5803 114.267 36.1206C114.313 34.9153 114.502 33.72 114.541 32.515C114.543 32.4453 114.009 32.5655 114.01 32.431C114.018 31.6241 113.87 30.8552 114.401 30.04C114.453 29.9574 115.392 29.9974 115.25 29.7586C115.224 29.7172 115.099 29.3613 114.895 29.2641C114.864 29.2514 114.426 29.3172 114.413 29.2009C114.347 28.5285 114.447 27.8206 114.715 27.1515C114.759 27.0466 115.226 27.158 115.261 27.0837C115.509 26.5344 115.154 25.9394 115.578 25.4163C115.863 25.0621 116.671 25.1972 117.465 25.0076C117.577 24.9802 117.595 24.7635 118.057 24.7539C119.22 24.7256 120.493 24.8292 121.732 24.7858C121.999 24.7773 121.711 24.489 122.356 24.6589C122.399 24.6731 122.613 24.8809 122.832 24.9322C122.984 24.969 123.454 24.9015 123.647 24.9786C123.841 25.0496 123.447 25.129 123.674 25.256C123.904 25.3712 124.439 25.327 124.503 25.5669ZM117.627 92.5381C118.066 92.3248 116.422 92.381 116.826 92.5668C116.847 92.5757 117.606 92.549 117.627 92.5381ZM119.415 115.874C120.119 115.56 119.043 115.478 118.497 115.693C117.952 115.914 119.202 115.968 119.415 115.874ZM120.133 118.435C120.684 118.099 118.353 118.215 118.846 118.498C118.873 118.514 120.101 118.454 120.133 118.435ZM117.691 25.8712C117.713 25.8728 117.735 25.7089 117.713 25.7071C117.19 25.6228 117.148 25.9397 117.691 25.8712ZM120.838 120.966C121.149 120.862 120.776 120.609 120.388 120.739C120.076 120.842 120.45 121.095 120.838 120.966ZM118.944 82.3813C118.969 82.3781 118.99 82.2643 118.851 82.2678C118.405 82.2795 118.532 82.4364 118.944 82.3813ZM121.048 125.378C121.107 124.723 123.015 124.244 122.829 124.963C122.795 125.093 122.203 124.713 122.037 124.884C121.733 125.197 122.951 125.343 122.316 125.676C122.2 125.737 121.04 125.416 121.045 125.377C121.046 125.378 121.047 125.378 121.048 125.378ZM119.595 92.327C119.617 92.3221 119.629 92.1682 119.608 92.1656C119.082 92.1095 119.056 92.4198 119.595 92.327ZM119.916 75.8447C119.962 75.8362 120.004 75.475 119.961 75.4632C119.106 75.2793 119.02 76.0099 119.916 75.8447ZM121.395 102.665C121.93 102.796 122.005 103.002 121.355 103.178C121.379 103.009 121.373 102.832 121.395 102.665Z" fill="black"/>
<path d="M32.2582 109.452C32.6646 108.758 33.407 108.167 34.0447 107.783C34.238 107.669 34.3789 107.947 34.5232 107.876C34.8087 107.733 34.8916 107.433 35.1872 107.313C35.2871 107.274 35.5429 107.677 35.64 107.628C36.1681 107.36 36.439 106.899 36.8887 106.566C39.1226 104.905 41.0967 103.112 43.1664 101.293C43.8507 100.691 44.9164 100.203 45.4442 99.4058C45.5048 99.3132 45.1707 99.0748 45.1614 99.0367C45.0248 98.4465 45.532 99.0978 45.7585 99.0229C46.6589 98.7212 47.3429 98.0833 47.8034 97.3977C47.9991 97.1046 47.1833 96.7833 47.7498 96.8544C47.7885 96.8588 48.0318 97.2246 48.1314 97.1896C48.3559 97.1101 48.5878 96.768 48.7297 96.674C49.0041 96.4948 49.0395 96.4531 49.2566 96.2426C49.5561 95.9572 50.0571 95.7587 50.3024 95.376C50.354 95.2933 49.9533 95.0698 50.0074 94.9097C50.0617 94.7496 50.3723 94.4927 50.5416 94.4709C50.711 94.4491 50.9149 94.7355 50.9879 94.7749C51.6008 95.1115 51.2739 94.126 51.3001 94.0675C51.7962 93.0225 52.8335 92.7409 53.559 92.024C53.8619 91.7238 54.1403 91.3755 54.4184 91.0412C54.6442 90.7694 54.8691 90.5057 55.1084 90.2833C55.7433 89.6955 56.43 89.3435 56.9899 88.7145C57.0495 88.6483 56.6062 88.3593 56.678 88.2779C57.4392 87.4153 58.2721 86.6322 59.3164 86.0407C59.4217 85.9816 59.6497 86.403 59.7747 86.3625C60.5314 86.1097 61.9577 85.903 60.7927 84.2431C61.175 83.9466 61.6281 83.5751 62.2123 83.5312C62.5887 83.5024 62.7718 84.0362 62.8463 83.6426C62.8635 83.5541 62.4761 83.3334 62.5261 83.2231C62.7365 82.7592 63.1969 82.4653 63.3536 81.9599C63.3847 81.8566 63.0789 81.614 63.0456 81.5464C62.7813 80.9933 63.7348 81.3398 63.8422 81.3229C64.6496 81.19 64.8157 80.7075 65.2247 80.2719C65.3198 80.171 64.8215 79.9427 64.8989 79.8331C65.3062 79.2686 65.8179 78.765 66.4431 78.4139C66.583 78.3367 66.8228 78.737 66.9067 78.7153C67.2728 78.6155 66.6922 78.0022 67.031 77.8957C67.1016 77.8725 67.3621 78.1534 67.4012 78.1726C68.0143 78.4731 67.4252 77.7338 67.4412 77.6849C67.6294 77.0513 68.6097 77.4129 68.8915 76.8889C68.9245 76.8256 68.4602 76.6214 68.5748 76.4631C69.3361 75.4066 70.3464 74.4686 71.4896 73.7657C71.6669 73.656 71.8427 74.0037 71.8844 74.024C72.542 74.3357 71.9317 73.6142 71.9488 73.5421C72.1018 72.9894 73.0067 73.1542 72.4091 72.1507C74.1493 70.7856 75.146 68.7483 77.351 67.8325C77.3782 67.8201 77.6833 68.169 77.736 68.143C78.3741 67.8341 77.762 67.4413 77.4194 66.5232C77.334 66.292 78.3368 66.7673 78.4134 66.7988C78.6959 66.9149 79.1205 67.4647 79.1856 67.476C79.7065 67.5549 78.0174 66.0416 78.2948 65.7448C78.3062 65.7381 78.5741 66.0626 78.6276 66.0662C78.7164 66.0726 78.7441 66.0222 78.777 65.9769L78.7325 66.0264C78.7596 65.9851 78.7907 65.9477 78.8733 65.9549C79.279 65.9925 80.1699 66.6459 79.9171 65.9558C79.8835 65.8672 78.8622 65.0825 79.1421 64.8495C79.2547 64.757 79.6491 64.2632 79.8284 64.1822C80.0075 64.1012 80.2425 64.4638 80.2644 64.4659C80.9925 64.4586 81.0466 64.7445 81.8187 65.0906C82.5883 65.4347 81.0816 64.2303 80.9819 64.016C80.8827 63.802 81.4539 63.8305 81.6292 63.8676C81.8045 63.9048 81.9346 64.1576 82.0519 64.1575C82.8228 64.1517 81.4701 63.3659 81.3464 63.0402C81.0536 62.2687 82.3397 62.9651 82.681 62.7824C82.7733 62.7329 82.4743 62.5814 82.5078 62.4956C82.6437 62.1584 83.1164 62.2925 83.0607 61.7291C83.0521 61.6368 82.6067 60.8358 83.2192 61.0906C83.3072 61.1277 83.5238 61.4224 83.6801 61.3627C83.914 61.274 84.2302 61.0249 84.2928 60.769C84.3389 60.58 83.7639 60.3487 84.0444 60.3017C84.1694 60.2811 84.313 60.6411 84.526 60.5838C84.7384 60.5271 85.0317 60.1619 85.1379 60.02C85.2439 59.8778 84.8428 59.6614 84.8294 59.631C84.7553 59.4534 84.813 59.0563 84.8329 59.034C85.7748 57.8525 87.2556 57.2795 88.0228 56.0043C88.0833 55.9049 87.6771 55.6571 87.6827 55.6387C87.7914 55.21 88.5353 56.2603 89.033 56.322C88.2839 55.7318 88.5216 55.7197 88.6242 55.4398C88.6729 55.3045 88.3453 55.1197 88.3246 55.0858C88.0293 54.5695 88.6686 54.936 88.8042 55.0055C89.3033 55.2604 88.9082 54.7326 89.2426 54.902C89.5749 55.0697 89.8475 55.5746 90.0156 55.3684C89.8054 55.0896 89.0005 54.6585 89.0224 54.4113C89.1097 53.4707 90.5661 52.8488 91.0259 52.4254C91.4819 52.0062 91.5602 51.8187 91.8882 51.6262C92.4809 51.2788 91.8241 51.0282 91.8566 50.5261C91.8894 50.0238 92.9955 51.2333 93.2985 51.4176C93.6005 51.6027 93.3679 51.3211 93.5595 51.3931C93.7509 51.4653 93.8323 51.7354 93.9944 51.6576C94.1556 51.5808 93.981 50.8299 93.7424 50.5464C93.2363 49.9465 92.4863 49.5711 92.9898 49.4242C93.0191 49.4161 93.2899 49.7573 93.3858 49.7122C94.134 49.3479 94.6728 48.7534 95.3916 48.3654C95.4909 48.3126 95.7903 48.6943 95.8522 48.6671C96.4957 48.3868 95.7426 48.0311 95.296 47.1836C96.1431 48.0183 96.8207 48.3439 97.142 47.9821C97.3352 47.7651 96.91 47.4646 96.7557 47.0842C96.7092 46.9696 97.1115 47.048 96.952 46.8598C96.4299 46.2454 95.6272 45.8106 96.2246 45.6618C96.2517 45.6561 96.5361 45.9941 96.6058 45.9538C97.0575 45.6949 96.465 45.106 96.7321 44.6423C96.9442 44.2755 97.8147 44.0452 98.1822 43.7465C99.1833 44.6283 99.2471 44.0875 98.6703 43.3484C98.9003 43.14 99.0772 42.8562 99.3655 42.7175C99.4644 42.6695 99.7129 42.9724 99.7528 42.9901C100.375 43.2721 99.7889 42.5816 99.8054 42.5089C100.022 41.7382 100.909 41.7503 100.862 40.7928C100.86 40.7588 100.186 40.1214 100.817 40.4271C100.86 40.4488 101.031 40.8953 101.266 40.6744C101.497 40.4572 102.277 40.3179 102.245 39.7003C102.238 39.5508 101.848 38.8528 102.435 39.074C102.514 39.104 102.693 39.303 102.833 39.3677C103.279 39.5728 102.622 38.9009 103.329 39.3017C104.035 39.7025 104.704 39.8415 104.582 39.146C104.579 39.1256 104.09 38.5558 104.194 38.4555C104.359 38.2956 104.687 38.1547 104.838 37.975C104.91 37.8888 104.515 37.6395 104.522 37.6193C104.828 36.8768 105.49 36.7437 106.167 36.2432C106.292 36.152 106.102 35.4153 106.663 35.5303C107.284 35.648 108.767 37.3875 108.845 36.4837C108.874 36.124 106.97 33.9431 108.436 34.53C108.836 33.5217 110.041 33.3112 110.33 32.1991C110.344 32.1486 109.846 31.5038 109.927 31.4301C110.048 31.3217 110.385 31.5069 110.479 31.4393C110.891 31.1497 110.938 30.6187 111.296 30.2978C111.43 30.1777 111.675 30.4837 111.832 30.3432C111.987 30.2043 111.703 29.7585 112.082 29.7089C112.308 29.6821 112.923 30.0175 113.306 30.1031L113.291 30.1199C113.394 30.1429 113.482 30.1479 113.542 30.123C112.808 29.4026 112.959 29.2758 113.009 28.8365C113.018 28.7516 112.712 28.5528 112.703 28.4997C112.661 28.2791 112.96 28.3984 112.903 28.171C112.889 28.116 112.641 27.8676 112.617 27.8079C112.401 27.2909 113.207 27.6051 113.346 27.6621C113.873 27.877 113.631 27.476 113.9 27.5029C114.166 27.5332 114.158 27.8961 114.389 27.8486C114.866 27.7505 115.215 27.3568 115.543 27.0956C115.672 26.99 115.28 26.7091 115.291 26.6858C115.48 26.3655 116.069 26.5258 115.627 25.6808C117.343 27.3959 115.642 25.3647 116.34 25.4235C116.395 25.4295 117.148 26.289 117.136 26.5133C117.125 26.7373 116.724 26.6022 116.73 26.9345C116.729 27.0142 117.199 28.0132 117.215 28.0851C117.322 28.6548 116.191 27.3791 116.117 27.3185C115.324 26.6648 115.818 27.7627 115.809 27.8776C115.753 28.4146 115.344 28.4673 115.28 28.8873C115.238 29.1607 116.001 29.9774 115.857 30.07C115.386 30.3724 114.126 29.4305 114.714 30.7634C114.84 31.0473 115.796 31.8147 114.818 31.4454C114.798 31.4381 114.697 31.3933 114.577 31.3541L114.618 31.3102C114.367 31.229 114.034 31.1724 114.228 31.5191C114.264 31.5834 114.527 31.8232 114.529 31.8658C114.535 32.1454 114.225 32.0642 114.183 32.3123C114.137 32.5642 114.107 32.8993 113.843 33.0109C113.69 33.0722 113.068 32.7721 112.898 32.718C112.412 32.5579 112.829 33.2411 112.321 32.9589C111.813 32.673 111.337 31.9093 110.839 31.9132C111.519 32.5403 112.206 33.1956 112.885 33.8316C112.362 34.3652 111.649 34.7158 111.186 35.2985C111.129 35.3715 111.563 35.631 111.512 35.7178C111.291 36.085 110.781 36.1264 110.601 36.5434C110.461 36.8702 110.606 37.5002 110.477 37.8477C109.544 37.3058 109.455 37.9501 109.14 38.1633C109.027 38.2406 108.821 38.0475 108.689 38.0577C108.197 38.1016 109.01 38.5927 109.055 38.7636C109.247 39.4971 107.632 38.1288 107.347 38.5339C107.331 38.5547 107.968 39.54 107.992 39.6199C108.15 40.135 107.665 39.3965 107.485 39.4755C107.153 39.6241 106.812 39.6049 106.811 40.1083C106.813 40.2555 107.168 40.9175 106.616 40.7233C106.543 40.698 106.273 40.441 106.241 40.4439C105.698 40.5121 106.576 41.2888 106.722 41.7256C106.868 42.1618 106.018 41.9053 105.793 41.8087C105.211 41.5597 105.697 41.5268 105.659 41.4803C105.209 40.9246 105.126 41.2048 104.947 41.3199C104.062 40.5872 103.93 40.8431 104.768 41.4382C104.86 41.5028 104.881 41.3155 104.947 41.3199C105.683 42.1915 105.591 42.5172 104.571 42.0851C104.092 41.8827 103.759 41.3892 103.595 41.8985C103.52 42.1302 104.174 42.5828 104.21 42.8703C104.294 43.5245 103.352 43.4837 103.139 43.9064C103.063 44.0588 103.496 44.2209 103.455 44.3349C103.347 44.6385 102.927 44.627 102.853 44.9668C102.847 44.998 103.234 45.2436 103.176 45.3192C102.743 45.8987 102.122 46.1728 101.623 46.7378C101.387 47.0056 101.154 47.6576 100.868 47.9111C100.383 48.3434 99.3604 48.52 99.1198 49.0441C98.9629 49.383 99.3575 49.6196 99.4907 49.9382C99.7498 50.5545 98.5903 50.257 98.4174 50.2033C98.4119 50.2013 98.5353 49.8944 98.2499 49.869C97.8192 49.626 98.4181 50.1992 98.4174 50.2033C98.3032 50.1714 97.8238 50.57 97.8085 50.7206C97.8008 50.8022 98.1506 51.0542 98.1404 51.0914C97.8875 51.974 97.4308 52.6718 96.7261 53.1828C96.7098 53.1885 96.3603 52.8581 96.3265 52.8753C95.843 53.1096 96.0901 53.7237 96.0913 54.2575C96.0936 54.7897 95.7945 54.9584 95.0141 54.601C94.8964 54.8972 94.3365 54.9891 94.005 55.0354C93.6735 55.0816 94.3598 55.718 94.3594 55.7468C94.3552 56.6597 93.6973 56.6039 93.1664 57.0942C92.9119 57.3273 92.5787 57.9234 92.4169 58.2689C92.2903 58.5428 92.0097 58.5331 91.941 58.8283C91.9315 58.8681 92.2714 59.1115 92.2763 59.1304C92.4588 59.6826 91.7804 58.9101 91.602 58.8387C90.9547 58.5778 90.5987 58.4518 90.586 58.9442C90.5827 59.0574 91.5277 60.2069 91.4878 60.385C91.4339 60.6148 91.0867 60.2126 91.0403 60.4622C91.0359 60.4832 91.2845 60.6913 91.1852 60.785C90.7291 61.2212 90.1436 61.6139 89.7413 62.1327C89.6855 62.2027 90.1504 62.4504 90.0761 62.557C89.7305 63.0535 89.2863 63.5421 88.7188 63.834C88.578 63.9047 88.3641 63.6012 88.2624 63.5556C87.6454 63.2816 88.1819 64.0994 88.166 64.1454C87.8087 65.2556 86.6258 65.3286 86.2185 66.4255C86.198 66.4859 86.6609 67.4936 85.8729 67.0853C85.8201 67.0585 85.0174 66.6367 85.3595 67.1662C85.381 67.1993 85.8086 67.3996 85.6299 67.5368C85.4513 67.674 85.4506 68.1415 84.8731 68.047C84.6911 68.0172 83.8724 67.6175 84.2203 68.2915C84.2454 68.3375 85.1645 69.7071 84.2293 69.1132C84.0756 69.0152 83.2124 68.2393 83.4412 68.8863C83.4862 69.0111 83.76 69.0894 83.7705 69.3254C83.7848 69.6275 83.4651 69.7221 83.4624 70.0828C83.4311 70.1132 83.3495 70.2158 83.3169 70.2448C83.3139 70.316 83.3231 70.3985 83.3497 70.4962C83.3783 70.5994 83.792 71.3095 83.2265 71.0391C83.1379 70.9968 82.8934 70.6911 82.7934 70.7346C82.3167 70.9401 82.1662 71.4827 81.641 71.6561C81.4552 71.7183 81.0549 71.2288 80.8097 71.247C80.5646 71.2651 80.2004 71.4226 80.2841 71.7546C80.3679 72.0868 81.2419 72.6104 81.111 72.8714C80.5429 74.0045 79.2961 74.5086 78.4118 75.3637C78.2806 75.4903 78.647 75.617 78.4729 75.8208C77.8321 76.573 76.9433 78.0717 75.8028 78.2119C74.8892 78.3242 75.1221 77.3665 74.5859 77.5969C74.3281 77.7091 75.0115 78.6867 74.9979 78.757C74.8754 79.4532 74.2129 79.4248 73.9702 79.9352C73.9202 80.0408 74.3447 80.2711 74.2982 80.3574C74.1425 80.6554 73.758 80.7719 73.5793 81.0306C73.5 81.1473 73.7855 81.3668 73.6792 81.4446C73.4276 81.6339 73.1337 81.7369 72.6821 81.7377C72.641 81.7378 72.4303 81.3025 72.266 81.4619C72.0009 81.7211 71.4482 81.8418 71.4203 82.3879C71.4131 82.5509 72.0219 83.1017 71.4182 82.9264C71.2919 82.8899 70.6057 82.1785 71.0296 82.9822C71.0999 83.116 71.5999 84.2799 70.874 83.9799C70.6828 83.9011 69.9651 83.4931 69.9577 83.691C69.959 83.7199 70.3423 83.953 70.2899 84.0757C70.0991 84.5034 69.7526 84.8178 69.5476 85.2507C69.4935 85.3669 69.9543 85.5375 69.8628 85.7009C69.6123 86.1502 69.1035 86.5379 68.667 86.8047C68.5053 86.9027 68.3104 86.5554 68.2711 86.5374C67.634 86.2431 68.2165 86.9444 68.2077 87.0321C68.1448 87.5683 67.6065 87.5276 67.4151 87.9015C67.3615 88.0039 67.7319 88.2373 67.7451 88.2796C67.8649 88.7033 67.4124 88.0532 67.2509 88.1026C66.7969 88.2391 66.5122 88.5977 66.2713 88.9376C66.183 89.0631 66.6651 89.278 66.5815 89.3868C66.0929 90.0383 65.4809 90.6203 64.7371 91.0047C64.5963 91.0765 64.3819 90.7439 64.2968 90.706C63.7043 90.4379 64.096 91.2418 64.1038 91.3492C64.1411 91.8381 63.8069 91.6955 63.6518 91.9489C62.8991 93.1908 61.5066 94.2892 60.4572 95.1371C60.0604 95.4593 59.6767 95.7434 59.3007 96.0177C58.4113 96.6587 57.5843 97.2426 56.8174 98.0973C56.7483 98.1736 57.1819 98.464 57.1271 98.5344C56.4023 99.4263 55.4644 100.078 54.7588 100.993C54.7003 101.068 55.139 101.315 55.0567 101.446C54.8905 101.716 54.5957 101.974 54.2648 102.087C54.1042 102.143 53.954 101.704 53.7983 101.766C53.4352 101.909 53.1414 102.156 52.9365 102.472C52.8505 102.607 53.3687 102.789 53.2295 102.938C52.2889 103.955 51.3986 104.978 49.9596 105.527C49.8619 105.564 49.0826 104.919 49.0769 105.201C49.2658 105.408 49.5013 105.637 49.7101 105.851C48.4146 107.403 46.7747 108.588 45.3414 110.002C45.2818 110.061 45.7672 110.327 45.6539 110.443C44.9855 111.128 44.4613 111.891 43.4121 112.228C43.3099 112.261 42.6585 111.582 42.5652 111.888C42.5479 111.944 42.3506 112.336 42.4246 112.556C42.4366 112.588 42.8105 112.83 42.7238 112.941C42.2306 113.564 41.5867 114.109 40.8653 114.503C40.7483 114.565 40.4929 114.152 40.4067 114.194C39.7933 114.5 39.5997 115.248 38.9255 115.388C38.4906 115.463 37.9382 114.866 37.2057 114.508C37.1027 114.456 36.959 114.615 36.5881 114.342C35.6198 113.696 34.6735 112.834 33.6387 112.15C33.5336 112.067 33.4357 112.208 33.3132 112.321C33.1922 112.434 33.0522 112.491 32.939 112.064C32.9282 112.039 32.9884 111.834 32.9898 111.688C32.9897 111.541 32.98 111.377 32.9249 111.269C32.8486 111.121 32.4013 110.93 32.3355 110.7C32.2575 110.487 32.649 110.629 32.5969 110.335C32.5305 110.056 32.0665 109.775 32.2582 109.452ZM92.5183 55.2481C92.0269 55.1308 93.2524 56.2287 93.1169 55.7825C93.1089 55.7596 92.5428 55.2534 92.5183 55.2481ZM110.729 33.8837C109.982 33.6307 110.642 34.495 111.202 34.7077C111.765 34.9173 110.955 33.9608 110.729 33.8837ZM112.431 31.1965C111.767 31.0775 113.458 32.6851 113.365 32.0855C113.36 32.0513 112.47 31.2035 112.431 31.1965ZM37.6572 113.622C37.6376 113.611 37.5009 113.736 37.5154 113.753C37.8474 114.167 38.1162 113.922 37.6572 113.622ZM114.129 28.5756C113.829 28.4271 113.862 28.909 114.235 29.0911C114.536 29.2367 114.5 28.761 114.129 28.5756ZM83.2969 63.2977C83.2759 63.2845 83.1715 63.3724 83.2784 63.4606C83.6232 63.7441 83.6495 63.5199 83.2969 63.2977ZM118.093 25.1479C117.424 25.5678 115.852 24.3559 116.658 23.9934C116.804 23.9274 116.779 24.6823 117.041 24.6958C117.52 24.7194 116.954 23.6236 117.645 23.9018C117.77 23.9536 118.135 25.1264 118.094 25.1509C118.094 25.1499 118.094 25.1489 118.093 25.1479ZM90.9328 54.0615C90.9133 54.0508 90.7765 54.1784 90.7899 54.1959C91.1204 54.6126 91.3963 54.3557 90.9328 54.0615ZM77.3424 68.5054C77.3013 68.4815 76.9759 68.7714 76.9979 68.8108C77.4744 69.5543 78.1323 68.9718 77.3424 68.5054ZM98.214 43.7642C97.9479 43.2686 98.0642 43.0396 98.6692 43.3487C98.5103 43.4787 98.3697 43.6335 98.214 43.7642Z" fill="black"/>
</svg>
