<svg width="150" height="150" viewBox="0 0 150 150" fill="none" xmlns="http://www.w3.org/2000/svg">
<path d="M89.5123 67.7165C92.5136 74.9307 89.2546 79.5705 87.7879 82.9251C87.3237 83.791 87.2384 83.4335 87.006 83.6997C86.9322 83.8208 86.8427 83.9763 86.7232 84.1767C84.8939 87.1638 82.2247 88.2429 80.2688 88.5949C79.6075 88.6964 80.3091 88.0706 79.6355 88.1744C76.0431 88.6055 73.3467 88.3724 70.453 87.8791C63.4996 86.505 57.2851 84.3846 50.9688 81.6129C47.0128 79.8052 45.793 75.931 45.0831 73.5895C44.0062 69.7608 44.3604 66.486 44.6991 63.31C44.8779 61.7149 45.4484 60.1142 46.2511 58.7885C49.4924 53.7674 54.7633 51.6653 58.6502 49.1423C59.1142 48.8579 58.633 48.6625 58.7069 48.583C59.8784 47.3499 59.7926 48.3333 60.7741 47.9238C63.2727 46.8907 65.8645 45.6823 68.3294 44.4232C69.8064 43.6671 71.3351 43.0464 72.8284 42.5869C74.6445 42.0702 72.6153 41.7056 74.5937 41.754C74.7284 41.7602 74.3396 42.2696 74.8528 42.2221C76.0136 42.096 78.1593 41.8462 79.0188 41.8696C80.4732 41.8921 80.8485 41.9117 81.9393 41.9317C82.13 41.936 82.3371 41.9454 82.5655 41.9638C85.1959 42.1366 87.8124 43.7482 89.6965 45.2668C90.1088 45.5939 89.8698 44.795 90.5579 45.3067C91.2679 45.8116 92.724 47.4684 93.0714 48.1024C93.4391 48.7316 92.9719 48.7039 92.9878 48.852C93.0979 50.0507 95.1653 51.4826 95.3444 51.7475C95.781 52.3433 96.1807 52.9428 96.5517 53.5421C99.0531 57.6293 100.041 61.7978 101.143 66.0814C102.105 69.8463 102.975 73.8564 103.56 77.3944C103.592 77.5835 103.622 77.7708 103.652 77.9565C104.377 82.3839 103.146 86.3822 101.21 89.9332C101.112 90.1132 101.013 90.2924 100.913 90.4712C100.682 90.8803 101.409 90.6616 101.121 91.1656C98.0458 96.6148 92.9506 100.783 87.589 103.248C87.0516 103.5 87.5031 102.737 86.9565 102.961C83.8824 104.253 79.0458 105.433 77.412 107.661C77.2582 107.862 77.1292 108.07 77.0282 108.286C74.7282 109.163 71.8533 110.026 69.6289 110.179C68.2005 110.271 69.4161 109.469 67.7879 110.067C67.4214 110.196 68.0067 110.513 67.4467 110.674C65.0599 111.354 62.3679 111.588 59.9326 111.963C59.4394 112.04 59.5982 112.42 59.4577 112.498C58.2753 113.141 56.2362 112.204 55.8237 112.118C52.5459 111.52 50.1634 111.441 47.1359 110.754C46.4425 110.586 47.153 111.295 46.4611 111.143C44.8618 110.777 43.2547 110.287 41.6453 109.523C39.8267 108.651 38.099 107.602 36.549 106.433C35.9265 105.958 36.7705 105.983 36.4893 105.738C35.2697 104.656 34.4815 105.118 33.3511 103.996C33.1161 103.759 33.5017 103.58 33.4811 103.51C33.175 102.417 31.9713 102.595 31.7684 102.442C29.2927 100.584 28.6668 98.4705 26.7435 96.3185C26.5123 96.0557 26.6251 96.9758 25.9989 96.2152C23.4056 93.0723 21.2484 89.3523 19.4136 85.854C18.0181 83.2243 17.7055 80.5765 17.5816 78.0936C17.5466 77.0683 17.9747 77.766 18.0129 77.6967C18.6197 76.621 17.6651 76.0228 17.6164 75.6878C17.2713 73.0864 18.1984 70.7523 17.2378 68.9263C17.6991 65.1965 18.3191 61.5286 19.1566 57.9025C22.0498 49.939 27.9384 46.14 33.1287 41.5492C33.2333 41.4633 33.3826 41.9615 33.5893 41.7892C35.2344 40.4231 35.3677 39.9297 35.5427 39.1282C35.6342 38.7205 35.7367 38.2339 36.0558 37.5223C36.3023 36.9776 38.2321 36.6283 38.3938 36.5892C38.9782 36.4425 39.0343 37.3194 39.2025 37.2409C40.5666 36.5934 38.8767 35.0534 40.3909 33.739C40.4405 33.7012 40.5144 34.1882 40.6681 34.1107C41.1438 33.8732 41.4311 33.4122 41.9129 33.1966C43.0177 32.711 44.0218 33.3046 45.002 31.7132C45.1246 31.5141 44.0614 30.7002 45.5101 29.6662C46.0884 29.2428 48.6126 27.374 49.3958 26.947C50.1615 26.5186 49.9033 27.2011 49.9652 27.18C52.22 26.3053 51.6176 26.9946 53.0323 27.0308C54.4544 27.0703 53.1269 25.6359 53.4248 25.1896C53.7172 24.7448 55.4225 24.223 55.8696 24.1422C56.3094 24.0619 55.9981 24.5553 56.3613 24.4417C58.7898 23.6852 56.8245 23.0595 57.3807 22.383C58.7286 20.7803 60.7619 21.315 62.3928 20.6492C62.843 20.4658 62.3471 20.3497 62.7115 20.1342C63.4734 19.689 64.1467 19.4683 64.827 19.1984C65.4867 18.9364 66.1671 18.6563 67.0233 18.1729C67.2923 18.0023 68.6961 16.7191 69.8711 17.1664C70.032 17.2314 69.6848 17.6497 70.4264 17.607C71.5342 17.5355 73.4953 17.4591 74.6663 17.342C75.5354 17.2518 74.5394 16.6601 75.6386 16.853C76.1251 16.9451 75.217 17.2667 76.1249 17.4144C77.0233 17.5491 79.3105 17.7331 80.1775 17.8523C81.0416 17.9585 80.6335 17.4538 80.7067 17.4331C81.1604 17.3158 82.8688 17.3911 83.0149 17.4259C90.3184 18.802 96.3835 21.9676 102.768 24.9371C102.926 25.0117 103.084 25.0903 103.243 25.1728C103.784 25.4628 103.669 24.8548 103.754 24.8949C105.65 25.8834 103.587 26.006 104.446 27.1457C104.863 26.272 105.443 26.8889 106.534 27.7834C107.063 28.2231 107.054 27.7025 107.125 27.7181C108.251 28.0426 108.196 29.0794 108.203 29.3081C108.229 30.1551 109.18 30.295 109.175 30.871C109.167 31.443 108.125 30.9852 108.934 32.0039C109.428 32.0859 109.536 30.7641 110.264 31.4749C113.104 34.1891 116.055 40.69 117.38 43.3775C118.735 46.0678 119.224 46.9144 119.904 48.5306C121.117 51.4588 121.188 50.121 122.329 51.7648C123.458 53.3991 121.576 53.2493 121.384 53.6547C121.189 54.0555 121.647 54.1785 121.622 54.5709C121.595 54.9601 121.063 54.3994 121.343 55.1515C121.626 55.9089 123.128 57.6358 123.583 57.7483C124.545 57.9757 124.857 56.7178 125.503 58.7828C125.54 58.9024 124.982 58.7176 125.143 59.1665C125.692 60.687 126.294 62.2021 126.912 63.7391C127.734 65.7819 128.477 67.8573 129.005 69.9411C129.13 70.4414 128.533 70.1573 128.599 70.4479C129.244 73.4933 129.67 72.2026 130.988 73.6377C129.733 73.5648 129.317 74.656 129.773 76.9288C130.033 78.3152 130.49 77.9643 131 78.8297C131.154 79.0906 130.937 80.128 131.198 80.2836C132.052 80.7965 132.866 79.7181 132.733 82.2668C132.725 82.3762 132.264 82.065 132.266 82.44C132.235 84.8845 133.085 85.1493 133.089 87.8521C133.097 89.9761 132.079 93.6224 131.427 95.8827C130.146 95.54 129.918 97.7048 130.533 98.8281C130.179 99.9303 129.82 101.104 129.425 102.172C129.289 102.545 129.115 102.92 128.933 103.243C128.66 103.72 128.466 103.225 128.399 103.27C127.385 103.853 127.785 104.845 127.624 105.158C125.794 108.4 123.179 109.886 121.074 112.609C121.001 112.702 121.445 113.548 120.315 113.608C120.24 113.609 120.833 112.571 119.582 113.563C118.331 114.557 115.675 115.964 114.128 117.577C113.762 117.966 113.081 119.36 111.852 119.48C111.689 119.494 111.67 119.186 111.416 119.179C110.601 119.159 110.811 120.145 109.72 119.91C108.621 119.679 106.957 120.053 105.38 121.668C105.329 121.718 105.274 122.625 104.675 122.973C103.719 123.531 102.292 124.195 101.296 124.775C100.819 125.052 101.355 125.276 101.276 125.331C100.506 125.847 99.7686 126.29 99.0423 126.69C96.7837 127.953 94.4543 128.32 91.5348 128.841C91.1072 128.924 90.2657 129.347 89.373 129.698C88.7518 129.941 88.0643 130.087 87.4617 130.012C85.829 129.773 86.9699 127.312 83.6615 128.368C82.3278 128.773 80.8287 131.844 78.1089 130.586C73.1511 131.374 68.4916 130.818 63.5055 131.489C63.2842 131.519 62.5805 132.339 62.056 132.341C61.2695 132.342 60.821 131.977 60.2632 131.964C57.9044 131.898 55.7504 132.244 53.4751 132.207C52.6137 132.193 52.91 131.805 51.8821 131.786C50.8566 131.767 50.1694 132.278 48.7739 132.028C48.1011 131.906 47.4367 131.435 46.6745 131.075C46.2601 130.871 45.845 130.69 45.3759 130.607C45.2479 131.619 44.3086 131.571 42.5888 131.47C42.2563 131.448 42.5211 131.876 42.3581 131.883C41.683 131.915 41.1871 131.467 40.5465 131.471C40.3897 131.471 40.2724 131.801 40.1353 131.818C38.9401 131.978 37.6368 130.53 37.4539 130.277C36.6818 129.32 36.0225 129.47 35.3851 128.859C34.7651 128.247 35.9752 128.677 35.2037 128.063C33.6157 126.795 31.5362 125.274 30.0046 123.9C29.394 123.357 29.5014 124.076 29.4069 124.006C28.0418 122.957 27.17 121.396 25.839 121.379C26.7299 118.844 24.9404 120.811 23.5978 118.703C23.4956 118.538 24.1516 117.572 24.7828 117.992C25.4103 118.408 25.9233 119.462 26.8222 120C27.0395 120.137 28.7553 120.333 28.9311 120.409C30.3105 121.036 29.3047 122.411 29.2993 122.537C29.2623 123.888 31.3023 124.121 31.6842 124.322C33.4465 125.294 34.6728 126.451 36.2039 127.072C37.2067 127.469 37.8302 126.529 38.5087 126.92C40.7322 128.125 41.272 129.962 43.9527 129.127C44.5165 128.914 44.1644 127.688 45.8075 128.797C45.8624 128.832 46.2185 129.104 46.687 129.265C47.1989 129.417 47.793 129.488 48.2307 129.22C48.3439 129.151 48.3418 128.795 48.4906 128.766C49.4981 128.576 50.1559 128.86 51.252 128.723C52.3381 128.586 53.6452 128.378 54.8951 128.488C55.6396 128.554 56.6166 129.206 56.9751 129.364C57.9975 129.819 59.0651 129.034 59.7107 129.588C60.356 130.145 59.1337 131.034 60.8029 131.368C60.8437 130.442 60.9673 129.49 61.0457 128.558C64.6769 128.51 68.2633 128.685 71.8853 128.445C72.3367 128.414 71.8483 127.943 72.3285 127.897C74.3499 127.701 76.1383 127.934 78.2097 127.61C79.8117 127.357 81.5162 126.65 83.1101 126.298C84.2307 127.217 86.6657 126.481 88.1095 126.144C88.1708 126.13 88.2233 126.122 88.2698 126.119C88.7657 126.049 88.8452 126.264 89.2974 126.221C91.2075 126.071 90.1199 125.396 90.5827 125.127C92.4846 124.014 93.0992 126.124 95.1827 125.372C95.3177 125.335 96.1168 123.782 96.2185 123.638C97.0175 122.723 96.5627 123.912 97.2454 123.644C97.2724 123.633 97.2994 123.621 97.3263 123.61C98.7062 123.016 99.7658 122.702 101.136 121.523C101.546 121.169 102.273 119.92 103.429 119.85C103.581 119.841 103.712 120.198 103.816 120.16C105.69 119.436 105.112 118.408 105.84 117.476C106.569 116.544 108.444 116.275 108.87 116.268C109.972 116.256 108.424 116.877 108.415 116.951C108.312 117.863 109.308 117.064 110.139 116.57C110.903 117.442 111.989 116.611 111.002 116.049C110.893 115.989 110.332 116.503 110.139 116.57C110.217 115.155 111.327 114.217 113.267 114.108C114.177 114.05 113.942 114.958 115.685 113.378C116.466 112.657 115.665 112.278 116.252 111.542C117.598 109.856 120.135 108.648 121.545 107.061C122.055 106.484 121.224 106.711 121.554 106.311C122.41 105.258 123.44 104.574 124.048 103.449C124.101 103.348 123.574 103.308 123.791 102.99C124.36 102.146 124.809 101.36 125.051 100.742C125.784 98.7474 126.498 96.9184 127.001 94.7859C127.404 93.1791 127.611 90.2817 127.764 88.6143C128.096 85.7456 128.56 82.0686 128.006 79.5699C127.649 77.9415 127.251 78.3943 126.82 77.7554C125.999 76.567 126.439 74.0049 126.494 73.6284C126.502 73.6195 126.974 74.9665 127.002 74.1726C127.354 73.6149 126.5 73.6419 126.494 73.6284C126.555 73.3822 125.796 70.6255 125.496 70.1055C125.348 69.8328 125.002 70.1398 124.933 69.9957C124.225 68.5218 123.514 67.09 122.778 65.6182C121.731 63.5181 120.764 61.3861 119.87 59.2069C119.847 59.1377 120.328 59.0323 120.269 58.8722C119.461 56.6488 118.269 55.521 117.109 53.936C115.951 52.3551 115.364 50.9246 115.582 49.5331C114.826 48.2693 114.191 46.2695 113.806 45.0939C113.435 43.9416 112.523 44.2321 112.46 44.153C110.36 41.5978 109.885 39.703 108.124 36.8966C107.302 35.5631 105.356 33.1899 104.216 32.1561C103.327 31.3272 102.951 30.6758 102.073 30.1633C101.957 30.0977 101.809 30.5091 101.767 30.4975C100.642 30.2905 101.63 29.7603 101.546 29.4782C101.407 29.029 101.262 28.6705 101.022 28.3924C100.604 27.9926 100.038 27.6782 99.0716 27.4061C98.6609 27.2878 96.9536 28.1112 96.2422 27.8924C95.3128 27.6034 95.8572 27.2657 94.8707 26.9857C94.7864 26.962 94.6788 27.2663 94.1074 27.0158C91.4554 25.8591 88.5348 24.6414 85.6623 23.9163C85.2708 23.8168 85.6388 24.4439 85.0759 24.3116C82.4323 23.6916 79.5693 23.1659 77.074 22.7654C76.4563 22.6662 76.8663 22.3311 76.7369 22.2162C75.9246 21.5174 74.7201 22.457 74.5464 22.4822C71.5805 22.8418 69.2159 23.0366 67.0424 23.9255C65.6362 24.5275 64.2126 25.2245 62.7578 26.1547C62.5201 26.3023 61.1409 28.2065 59.8928 27.9402C59.8047 27.9244 58.5346 27.6405 58.1308 28.5929C58.1069 28.6521 58.8453 28.7347 57.9424 29.2305C57.0356 29.7296 55.8108 30.8669 54.3594 31.2412C53.9084 31.3542 52.5151 31.2299 51.8246 32.5849C51.7727 32.6769 51.0453 35.1682 49.8117 34.7341C49.6092 34.6635 49.0002 33.6571 48.0906 35.1154C47.9197 35.3957 48.5126 35.259 47.9842 35.8799C47.1671 36.8404 45.71 37.6309 44.8993 39.0117C44.7548 39.2557 44.4388 40.5724 43.3715 40.7304C43.2051 40.7544 43.1436 40.2878 42.7635 40.5728C41.6705 41.3946 40.692 42.375 39.6894 43.3544C38.9814 44.0463 38.2742 44.7056 37.5035 45.3079C36.8333 45.8309 36.6993 45.0863 35.9524 45.5812C35.1988 46.0824 33.8158 47.2102 33.3639 48.06C32.9181 48.9042 34.3228 48.9159 33.4141 49.932C30.2583 53.4702 26.162 57.2995 25.5325 59.3804C25.2845 60.293 25.0598 61.2168 24.8656 62.1487C24.6968 62.9759 25.1718 62.3551 24.961 63.5754C24.107 68.0954 23.9693 75.9192 23.9802 79.3054C23.957 82.0658 22.748 78.8312 22.9952 80.9446C23.1533 82.0181 24.6226 82.4101 24.7164 82.4929C24.7728 82.56 24.8258 82.6216 24.8755 82.6783C26.5104 84.9876 26.9872 86.7797 28.4047 88.6818C28.7085 89.0854 28.8298 88.4139 29.0848 88.7591C29.9622 89.9367 30.68 91.2846 31.5699 92.338C31.9739 92.812 32.175 92.4896 32.5136 92.9408C33.3283 94.0083 34.0094 94.9739 34.7008 96.1336C34.7661 96.241 33.8703 95.9848 34.5767 96.7041C35.7106 97.8512 37.05 99.4385 38.7625 100.241C39.2745 100.476 39.7433 99.8178 40.4042 100.929C40.5481 101.157 39.7481 101.838 41.3747 101.827C41.64 101.841 43.9274 101.922 44.7351 102.876C44.763 102.918 44.7891 102.964 44.8129 103.013C44.94 103.287 45.2607 104.295 45.908 104.38C45.9936 104.387 45.82 103.864 46.3163 103.985C48.0681 104.411 50.0167 104.864 51.9821 104.969C52.5089 104.995 51.7919 104.451 52.5636 104.498C54.6864 104.627 57.358 104.789 59.486 104.786C60.2703 104.787 59.7581 105.2 59.8168 105.238C60.7967 105.838 61.2715 104.876 61.5592 104.791C63.4016 104.263 64.895 104.43 66.5952 103.933C67.0632 103.794 66.6287 103.452 66.7143 103.393C67.5932 102.797 67.0536 103.723 67.6891 103.653C69.4754 103.451 71.3836 102.809 73.0563 102.108C73.6732 101.847 72.7943 101.653 73.3436 101.424C73.7391 101.257 74.1389 101.084 74.5427 100.906C77.685 99.5236 80.7904 98.2757 83.5602 97.0715C84.1549 96.8126 83.9792 97.3428 84.14 97.3561C85.27 97.4494 86.0136 96.0255 86.2162 95.7988C87.1815 94.7538 87.7932 94.7372 88.6983 93.9685C91.0646 91.9389 93.275 89.443 94.9213 86.4959C96.2569 84.1564 96.7846 81.9915 96.6584 80.0107C96.6421 79.7327 96.6147 79.4558 96.5767 79.1789C95.4437 71.5519 94.7771 65.5987 91.9023 59.4671C91.7076 59.0639 91.4358 59.6879 91.2626 59.3485C90.8958 58.627 90.5153 57.9243 90.1164 57.2419C88.0429 53.6102 85.3831 50.142 83.0994 49.451C82.8938 49.3866 82.9993 49.9389 82.6966 49.8702C82.386 49.8093 82.0937 49.7677 81.7862 49.7435C80.9773 49.7098 80.2162 49.6604 79.5644 49.5994C78.9181 49.5421 79.7727 49.1012 79.1184 49.0548C77.5986 48.9495 76.0973 49.1012 74.7747 49.538C74.2195 49.7269 75.1929 49.9681 74.4789 50.1782C73.5736 50.4581 72.6993 50.8242 71.8364 51.2735C67.0058 53.8007 62.1238 56.1934 57.6282 58.5289C57.2539 58.7284 56.3633 58.1079 55.7603 58.7912C55.8728 59.056 56.0726 59.3175 56.2285 59.5742C53.9055 61.353 52.6742 62.9503 52.5948 64.1485C52.2713 66.8343 52.1968 69.5871 52.6646 71.1743C53.2877 73.4525 53.9677 74.2601 54.1633 74.2957C55.0376 74.69 55.9915 75.0782 56.9404 75.4407C57.3143 75.5825 56.8643 74.8455 57.5709 75.1092C61.7284 76.6321 65.9527 77.7404 70.1725 79.0805C70.5938 79.2077 70.2008 80.1042 71.5097 80.1691C71.7378 80.1892 73.6637 80.3053 74.1376 80.1211C74.2022 80.0946 73.9105 79.635 74.4884 79.6628C75.7725 79.7225 77.0317 79.6929 77.9179 79.5381C78.3461 79.4688 78.6633 79.3565 78.729 79.341C78.8092 79.3102 78.5984 79.5069 78.5438 79.7367C78.9873 78.9047 79.339 78.2622 79.6906 77.5542C79.9343 77.0626 80.1519 77.78 80.3305 77.4235C81.6952 74.9254 81.4901 71.7288 81.469 71.6187C81.5009 71.3634 81.5791 70.9377 81.7144 70.4559C81.7364 70.1826 81.7446 69.8768 81.5631 69.492C81.4873 69.3163 80.4726 68.9032 80.5485 68.4608C80.7087 67.2908 81.751 66.2912 81.8722 65.0266C81.8796 64.888 81.3485 64.7167 80.8873 64.5761C80.7705 64.54 80.6577 64.5045 80.5461 64.4671C80.4213 64.4302 80.3656 64.3877 80.0725 64.3417C79.9118 64.3235 80.0402 64.3013 80.199 64.2896C80.3175 64.2758 80.3973 64.2615 80.4767 64.2448C80.6346 64.2121 80.8006 64.1745 81.0222 64.1409C81.2093 64.1049 82.876 64.4186 83.3094 64.3955C83.6273 64.3679 83.3393 63.7291 83.9576 63.7892C84.3143 63.8272 84.5995 64.0577 84.9472 64.2933C85.3403 64.5404 85.7502 64.8005 86.3176 65.115C86.9661 65.4809 87.2661 65.5256 87.6815 65.7086C88.0793 65.9084 88.7263 66.2882 89.5123 67.7165ZM112.013 39.8985C111.825 38.7076 110.337 39.4259 111.286 40.2446C111.334 40.2838 112.024 39.9597 112.013 39.8985ZM68.2888 129.902C69.798 130.565 70.7403 129.447 69.6869 128.938C68.6247 128.427 67.8343 129.701 68.2888 129.902ZM52.9998 130.765C54.7265 131.328 54.9814 128.993 53.1426 129.475C53.0356 129.503 52.8986 130.732 52.9998 130.765ZM83.7996 72.0519C83.8315 72.0317 83.7073 71.3292 83.6701 71.33C83.3678 71.2434 83.3102 71.503 83.3516 71.7386C83.3956 71.9733 83.5478 72.2363 83.7996 72.0519ZM38.3246 129.361C38.6725 129.884 40.2291 130.102 39.7631 129.497C39.4013 129.03 37.905 128.733 38.3246 129.361ZM62.797 21.3447C62.7622 21.3342 62.1804 21.6044 62.2508 21.7246C62.4957 22.0995 63.2455 21.5804 62.797 21.3447ZM21.1927 111.645C21.4891 112.652 21.5593 113.592 21.5671 114.322C21.6422 116.13 21.079 117.086 20.2123 114.75C20.1435 114.537 20.0803 114.303 20.0229 114.051C19.917 113.578 20.3507 114.267 20.6839 114.601C20.8749 114.79 21.018 114.851 20.9761 114.509C20.9753 114.501 20.9744 114.494 20.9734 114.486C20.7755 112.666 19.3342 111.963 19.3368 110.087C19.3422 109.733 21.1435 111.412 21.1974 111.65C21.1958 111.649 21.1943 111.647 21.1927 111.645ZM113.377 38.3289C113.386 38.2993 112.932 37.5123 112.899 37.5034C112.2 37.3585 113.112 38.937 113.377 38.3289ZM31.701 43.5739C31.6355 43.5719 30.0928 45.0281 30.0769 45.1059C29.8931 46.485 32.9957 43.5579 31.701 43.5739ZM131.384 95.9103C131.664 97.023 131.395 98.242 130.535 98.8238C130.851 97.872 131.119 96.8942 131.384 95.9103Z" fill="black"/>
</svg>
