<svg width="150" height="150" viewBox="0 0 150 150" fill="none" xmlns="http://www.w3.org/2000/svg">
<path d="M21.2894 45.8101C21.9241 45.6803 22.7393 45.851 23.3612 46.0748C23.5499 46.1441 23.4463 46.4334 23.5778 46.4944C23.8448 46.6136 24.0843 46.4757 24.3478 46.6165C24.4358 46.6646 24.3148 47.1239 24.4077 47.1637C24.8939 47.3784 25.3602 47.2708 25.8771 47.3802C28.3343 47.9178 30.7702 48.1441 33.2763 48.409C34.0995 48.4959 35.089 48.9366 35.9604 48.7723C36.0582 48.7526 36.009 48.3461 36.0282 48.3131C36.3312 47.8081 36.2164 48.6241 36.4065 48.737C36.7029 48.9115 37.0194 49.0264 37.3446 49.0933C37.8197 49.1966 38.3142 49.1839 38.778 49.0988C39.1012 49.0381 38.8023 48.2263 39.1069 48.6849C39.1278 48.7159 39.0401 49.1446 39.1238 49.1923C39.3131 49.2997 39.6839 49.2308 39.8359 49.2682C40.1284 49.3425 40.1776 49.3393 40.4596 49.3503C40.8534 49.3693 41.2753 49.5925 41.6896 49.504C41.7772 49.4838 41.6714 49.0401 41.8121 48.9681C41.9526 48.8962 42.3235 48.9417 42.4479 49.0484C42.572 49.1552 42.5106 49.5008 42.5313 49.5807C42.6933 50.2554 43.1326 49.3354 43.1879 49.3137C44.1955 48.9439 45.0306 49.4916 45.9714 49.5106C46.6966 49.5241 47.4324 49.3653 48.1196 49.4042C48.9311 49.4522 49.5896 49.7057 50.384 49.6819C50.4676 49.6799 50.3811 49.159 50.4831 49.1555C51.5411 49.1182 52.626 49.1983 53.6693 49.5714C53.7752 49.6093 53.6278 50.0617 53.733 50.1268C54.3784 50.5153 55.3984 51.437 55.8254 49.4625C56.2651 49.5496 56.8029 49.6413 57.1939 50.0497C57.4443 50.3125 57.1855 50.8033 57.502 50.5983C57.5733 50.5527 57.4913 50.1162 57.5976 50.0806C58.0451 49.9313 58.5297 50.0831 58.9783 49.8683C59.0696 49.8236 59.0534 49.4337 59.0805 49.3642C59.3075 48.8011 59.6474 49.7474 59.7213 49.8173C60.2983 50.3386 60.7343 50.1479 61.2866 50.1723C61.4148 50.1782 61.2745 49.652 61.3984 49.6389C62.0447 49.578 62.6956 49.6371 63.3177 49.8828C63.4557 49.9387 63.318 50.3813 63.3835 50.4308C63.6723 50.6437 63.7558 49.8038 64.0338 49.9917C64.0924 50.0302 64.0506 50.4108 64.0606 50.453C64.2162 51.1141 64.3835 50.1858 64.427 50.1661C64.9811 49.897 65.3112 50.8772 65.8462 50.751C65.9102 50.7349 65.7771 50.2493 65.9565 50.2336C67.1538 50.1264 68.4059 50.2863 69.5773 50.6979C69.7591 50.7612 69.6205 51.1208 69.6311 51.1657C69.8036 51.868 69.9455 50.9352 70.006 50.9012C70.4826 50.6579 70.9061 51.452 71.2509 50.3447C73.2384 50.7748 75.2392 50.1923 77.1978 51.2335C77.2228 51.2456 77.1676 51.7053 77.2174 51.7275C77.8167 51.9993 77.716 51.2808 78.1349 50.4137C78.2404 50.196 78.5236 51.26 78.549 51.338C78.6414 51.6258 78.5242 52.309 78.5561 52.365C78.82 52.8052 78.8246 50.5376 79.1949 50.5449C79.2064 50.5489 79.1487 50.9651 79.1788 51.0072C79.2725 51.1395 79.3718 50.9758 79.4631 51.1215C79.6719 51.4585 79.7249 52.5616 80.0684 51.9277C80.1119 51.8454 80.0762 50.5583 80.4045 50.6262C80.5355 50.6544 81.1167 50.6449 81.2775 50.7318C81.4392 50.8185 81.3179 51.2304 81.3292 51.2486C81.7578 51.8061 81.5859 52.0295 81.7888 52.8455C81.9916 53.6583 81.9723 51.7297 82.0667 51.5165C82.1614 51.3039 82.4736 51.763 82.5492 51.9218C82.6248 52.0807 82.5205 52.3419 82.5889 52.4324C83.0419 53.0237 82.814 51.4801 82.974 51.1776C83.3516 50.4611 83.599 51.8965 83.9303 52.0438C84.0196 52.0836 83.9532 51.7564 84.034 51.7277C84.3539 51.6183 84.5349 52.0685 84.9036 51.6673C84.9639 51.602 85.2732 50.7489 85.4472 51.3836C85.4718 51.4752 85.3886 51.8297 85.5212 51.9124C85.7195 52.0365 86.078 52.1222 86.2996 52.0079C86.4621 51.9233 86.2908 51.3324 86.4889 51.5191C86.5769 51.6024 86.4031 51.9422 86.569 52.0701C86.7341 52.198 87.1623 52.1922 87.3248 52.1839C87.4872 52.1753 87.4081 51.7281 87.4219 51.6984C87.5049 51.5283 87.8201 51.3204 87.8474 51.3215C89.2393 51.2973 90.4934 52.0753 91.8595 51.8563C91.9659 51.8398 91.9054 51.3688 91.9218 51.3614C92.2885 51.1726 91.9759 52.4146 92.2197 52.8379C92.2037 51.8844 92.3494 52.0601 92.6057 51.9611C92.7292 51.9127 92.6705 51.5423 92.6825 51.5048C92.876 50.9484 92.9862 51.6749 93.0169 51.8236C93.1274 52.3709 93.2741 51.7303 93.3492 52.0961C93.4243 52.4592 93.222 52.9907 93.469 52.9892C93.5455 52.6496 93.3817 51.7544 93.5721 51.6141C94.2909 51.083 95.5781 51.8104 96.1481 51.8954C96.7105 51.9802 96.8917 51.9211 97.2142 52.0514C97.8041 52.2871 97.6026 51.6212 97.9795 51.3266C98.3573 51.0319 98.1416 52.655 98.1874 53.0059C98.2321 53.3566 98.2969 52.998 98.3577 53.1915C98.4182 53.3851 98.2731 53.6198 98.4236 53.6953C98.5744 53.7706 99.0012 53.1576 99.0622 52.7931C99.1917 52.0208 99.0243 51.2036 99.4155 51.4979C99.438 51.5154 99.3547 51.9416 99.4411 51.9867C100.151 52.3315 100.877 52.3676 101.568 52.6739C101.665 52.7167 101.567 53.1907 101.624 53.221C102.211 53.5382 102.016 52.7312 102.358 51.8468C102.26 53.0315 102.424 53.7611 102.865 53.7776C103.13 53.788 103.096 53.2689 103.274 52.9074C103.327 52.7984 103.507 53.1582 103.548 52.9153C103.68 52.1213 103.52 51.2258 103.976 51.5909C103.996 51.6082 103.922 52.0428 103.992 52.0707C104.441 52.2532 104.513 51.4213 104.996 51.3307C105.362 51.2594 106.056 51.7826 106.48 51.8744C106.443 53.2079 106.856 52.9112 107.038 51.9951C107.086 52.0028 107.135 52.0077 107.184 52.0113C107.428 52.0284 107.678 52.0168 107.901 52.1265C107.994 52.1718 107.924 52.5566 107.935 52.5986C108.102 53.257 108.243 52.365 108.304 52.3312C108.949 52.0039 109.502 52.6941 110.132 52.0446C110.154 52.0212 110.21 51.0956 110.36 51.7755C110.37 51.8224 110.158 52.2396 110.446 52.2783C110.74 52.3173 111.302 52.8262 111.713 52.4055C111.816 52.3043 112.067 51.5572 112.267 52.1493C112.293 52.2297 112.257 52.4948 112.293 52.6435C112.411 53.1173 112.501 52.1824 112.632 52.9811C112.764 53.7797 113.059 54.3821 113.473 53.8418C113.485 53.8261 113.601 53.086 113.734 53.1006C113.946 53.1245 114.24 53.2854 114.454 53.2851C114.557 53.2847 114.501 52.8225 114.519 52.8144C115.207 52.5707 115.715 52.9925 116.453 53.1865C116.593 53.223 117.003 52.603 117.251 53.1053C117.526 53.6552 117.179 55.9115 117.869 55.3868C118.15 55.177 118.53 52.3132 119.001 53.811C119.931 53.4618 120.816 54.2418 121.758 53.7349C121.802 53.7125 121.955 52.9142 122.055 52.9271C122.203 52.948 122.275 53.324 122.378 53.3509C122.826 53.4729 123.219 53.1605 123.661 53.2195C123.824 53.2409 123.76 53.6269 123.95 53.6525C124.133 53.6775 124.287 53.1706 124.542 53.4221C124.732 53.6137 124.91 54.6599 125.173 54.7867C125.208 53.7591 125.371 53.7836 125.71 53.5189C125.773 53.4675 125.713 53.1084 125.744 53.0657C125.867 52.8837 125.97 53.1824 126.084 52.9838C126.111 52.9362 126.119 52.5852 126.142 52.5264C126.351 52.0134 126.646 52.8091 126.694 52.9476C126.893 53.4739 127.002 53.0193 127.153 53.228C127.303 53.4366 127.068 53.6891 127.244 53.8174C127.635 54.0832 128.11 54.0357 128.51 54.0594C128.662 54.0666 128.567 53.596 128.589 53.5862C128.915 53.4735 129.232 53.978 129.423 53.0479C129.606 55.4655 129.618 52.8173 130.072 53.3089C130.106 53.3486 130.131 54.4907 129.991 54.6558C129.848 54.8206 129.648 54.4601 129.446 54.7176C129.398 54.7781 129.122 55.8427 129.082 55.9068C128.793 56.4079 128.787 54.7016 128.773 54.6077C128.616 53.5935 128.288 54.7397 128.194 54.8176C127.81 55.1751 127.484 54.9288 127.154 55.1828C126.945 55.347 126.901 56.4637 126.733 56.4262C126.189 56.3024 126.032 54.7402 125.477 56.0808C125.36 56.3667 125.45 57.59 125.072 56.6219C125.051 56.5609 124.761 55.6764 124.588 56.2287C124.565 56.2983 124.559 56.6541 124.53 56.6835C124.34 56.873 124.212 56.5868 124.003 56.7184C123.8 56.8501 123.548 57.0474 123.307 56.9217C123.167 56.8466 123.004 56.18 122.939 56.0163C122.759 55.5448 122.527 56.307 122.422 55.7384C122.317 55.1669 122.564 54.3074 122.264 53.9334C122.233 54.8576 122.187 55.806 122.149 56.7353C121.454 56.6884 120.774 56.3751 120.097 56.4019C120.011 56.4061 120.089 56.9049 119.996 56.9222C119.594 56.9928 119.281 56.6318 118.87 56.7643C118.544 56.8686 118.207 57.388 117.877 57.5137C117.698 56.4516 117.202 56.8004 116.861 56.6965C116.739 56.6605 116.753 56.3781 116.667 56.2841C116.342 55.9362 116.477 56.8743 116.383 57.0194C115.966 57.6388 115.999 55.5226 115.538 55.5652C115.515 55.5667 115.193 56.6883 115.149 56.7576C114.875 57.21 115.114 56.3641 114.95 56.2773C114.654 56.1186 114.466 55.8452 114.11 56.1681C114.006 56.2638 113.746 56.9616 113.555 56.4135C113.53 56.3417 113.553 55.9693 113.532 55.947C113.166 55.5751 113.135 56.7463 112.912 57.1385C112.69 57.5306 112.371 56.7148 112.307 56.4803C112.139 55.8735 112.45 56.2255 112.461 56.1666C112.59 55.4649 112.343 55.5809 112.154 55.5174C112.148 54.3682 111.89 54.4316 111.961 55.4562C111.967 55.5681 112.116 55.4641 112.154 55.5174C111.957 56.6406 111.687 56.7792 111.393 55.7194C111.257 55.2227 111.41 54.6502 110.954 54.8511C110.746 54.9418 110.809 55.7343 110.622 55.946C110.198 56.4291 109.699 55.6804 109.265 55.7874C109.108 55.8262 109.251 56.2624 109.143 56.3039C108.853 56.4152 108.624 56.0853 108.344 56.2458C108.319 56.2609 108.37 56.7153 108.284 56.7193C107.874 56.7436 107.492 56.6328 107.087 56.5415C106.86 56.4878 106.625 56.4409 106.371 56.4324C106.044 56.4217 105.427 56.6585 105.09 56.601C104.509 56.504 103.778 55.829 103.263 55.9781C102.933 56.0735 102.995 56.5283 102.847 56.8341C102.563 57.4269 102.098 56.3441 102.036 56.1766C102.034 56.1711 102.323 56.0704 102.175 55.8345C102.097 55.3478 102.039 56.1746 102.036 56.1766C101.997 56.0685 101.415 55.953 101.305 56.0373C101.243 56.0834 101.268 56.5135 101.236 56.5294C100.479 56.8976 99.6889 56.9897 98.929 56.7724C98.9156 56.7635 98.9464 56.2836 98.9149 56.2685C98.4747 56.0453 98.1746 56.6267 97.795 56.9675C97.4146 57.3082 97.1205 57.185 96.9236 56.3557C96.6452 56.4536 96.254 56.0804 96.0279 55.8542C95.8019 55.628 95.7491 56.5624 95.7284 56.5804C95.0759 57.1582 94.7294 56.6153 94.0763 56.5178C93.7666 56.4699 93.1409 56.592 92.7987 56.6869C92.5327 56.7636 92.3777 56.541 92.1298 56.6758C92.0963 56.6938 92.1207 57.1109 92.1103 57.1267C91.826 57.6189 91.9794 56.6039 91.9269 56.4209C91.7361 55.7555 91.6171 55.4007 91.2578 55.704C91.1749 55.7735 90.9059 57.2338 90.7551 57.3162C90.5596 57.4208 90.642 56.8971 90.44 57.02C90.4227 57.03 90.4193 57.3542 90.2964 57.3372C89.7255 57.2627 89.1015 57.0606 88.4983 57.08C88.4159 57.0814 88.5103 57.5977 88.391 57.6082C87.8351 57.6571 87.2327 57.625 86.6958 57.3727C86.5639 57.3089 86.6552 56.9509 86.6286 56.8434C86.465 56.193 86.1922 57.1269 86.1501 57.1439C85.152 57.574 84.4161 56.7074 83.3956 57.0902C83.3405 57.1128 82.8977 58.1108 82.7282 57.243C82.7166 57.1852 82.5496 56.2975 82.3717 56.8981C82.3606 56.9357 82.4669 57.3932 82.2652 57.3424C82.0635 57.2917 81.7302 57.5884 81.4616 57.0825C81.3768 56.9231 81.1854 56.0371 80.9085 56.7341C80.8904 56.7828 80.4506 58.3628 80.3295 57.2634C80.3099 57.0825 80.3597 55.923 80.0329 56.5109C79.9704 56.6249 80.0737 56.886 79.9121 57.0442C79.6645 57.288 79.35 56.9703 79.0404 57.4806C78.9866 57.5709 78.7471 58.3535 78.5834 57.752C78.5578 57.6578 78.6188 57.2717 78.5263 57.2263C78.0863 57.0087 77.6147 57.2577 77.1682 56.9799C77.01 56.8823 77.1056 56.258 76.9422 56.0865C76.7788 55.9152 76.4454 55.7465 76.2644 56.0288C76.0836 56.3113 76.2526 57.3133 75.9894 57.3874C74.8447 57.7095 73.7291 57.0996 72.5948 56.9893C72.4266 56.9729 72.5585 57.333 72.3101 57.3344C71.3953 57.341 69.8039 57.6414 69.0284 56.8655C68.4039 56.2439 69.2167 55.7987 68.7345 55.5408C68.5019 55.4177 68.2224 56.5723 68.1649 56.6076C67.6028 56.9666 67.2296 56.4443 66.7293 56.5912C66.626 56.6217 66.7164 57.094 66.6286 57.1148C66.3275 57.1898 66.0162 56.9731 65.7293 57.0052C65.6006 57.0208 65.6164 57.3804 65.499 57.3501C65.2179 57.2818 64.9717 57.1254 64.7045 56.7828C64.6801 56.7516 64.8586 56.3086 64.6506 56.2874C64.315 56.2545 63.901 55.9133 63.5035 56.2477C63.3856 56.3483 63.3632 57.169 63.1272 56.5968C63.0778 56.4772 63.1655 55.4931 62.8581 56.3384C62.8063 56.4789 62.2967 57.6169 62.0758 56.8714C62.0172 56.6751 61.8763 55.8652 61.7339 55.9889C61.7145 56.0087 61.7807 56.4512 61.6641 56.4917C61.2534 56.6267 60.8286 56.5704 60.4097 56.6995C60.2978 56.7348 60.4533 57.1946 60.2869 57.2327C59.8298 57.3381 59.2666 57.2096 58.8201 57.0571C58.6564 57 58.7786 56.6245 58.7675 56.5831C58.5892 55.91 58.4558 56.8104 58.3908 56.8617C57.9869 57.1683 57.695 56.7376 57.3292 56.842C57.2283 56.8696 57.29 57.3016 57.2692 57.3396C57.0542 57.7102 57.2256 56.9404 57.0958 56.8523C56.7281 56.6029 56.3135 56.6285 55.9388 56.6754C55.8012 56.6932 55.9445 57.1958 55.8212 57.206C55.095 57.2763 54.3332 57.2119 53.6273 56.9212C53.4946 56.8656 53.5872 56.483 53.5612 56.3946C53.3824 55.7762 53.0837 56.6079 53.0177 56.6863C52.7168 57.0443 52.612 56.702 52.3462 56.7597C51.0614 57.0477 49.488 56.7882 48.3038 56.6233C46.7271 56.4099 45.5243 56.0179 44.0356 56.0805C43.9393 56.0839 44.0252 56.5974 43.942 56.6069C42.8779 56.7071 41.8376 56.4845 40.7875 56.6094C40.702 56.6188 40.8143 57.1062 40.6768 57.1376C40.394 57.2052 40.0175 57.1706 39.7336 57.0096C39.5941 56.9319 39.7924 56.5201 39.6519 56.4504C39.3216 56.2872 38.9888 56.2454 38.6367 56.3155C38.4884 56.3464 38.7 56.8471 38.5084 56.8486C38.0515 56.8559 37.6078 56.868 37.1758 56.8518C36.3235 56.8207 35.5305 56.6933 34.6887 56.2578C34.6021 56.2118 34.5469 55.2025 34.359 55.3918C34.3391 55.6711 34.3327 56.0001 34.3201 56.2988C32.4581 56.4194 30.6174 56.03 28.7482 55.9354C28.6699 55.9315 28.7935 56.4684 28.6422 56.4636C27.762 56.4366 26.9054 56.566 26.0109 56.0157C25.9239 55.9619 25.9869 55.0236 25.7292 55.1601C25.6828 55.1851 25.2707 55.3015 25.1694 55.5033C25.1552 55.5337 25.2163 55.9737 25.0912 55.9838C24.3416 56.0341 23.566 55.9173 22.8311 55.6335C22.7156 55.5869 22.8493 55.1227 22.7677 55.0855C22.1721 54.8247 21.4973 55.1653 20.9318 54.7293C20.5526 54.4358 20.7097 53.6317 20.5268 52.8332C20.4929 52.7203 20.2603 52.6979 20.2581 52.2355C20.2492 51.0726 20.389 49.8022 20.365 48.5624C20.3604 48.4288 20.2854 48.4324 20.2138 48.3891C20.1891 48.3675 20.1169 48.3341 20.1143 48.2663C20.0945 48.1984 20.172 48.0955 20.2274 47.9353C20.253 47.8925 20.4885 47.683 20.5516 47.4655C20.5944 47.3151 20.531 46.8435 20.6185 46.6516C20.7049 46.4599 20.788 46.8558 20.9263 46.6312C21.0719 46.4039 21.0163 45.8677 21.2894 45.8101ZM95.0066 54.843C94.8052 54.3894 94.7384 56.0333 94.9753 55.6448C94.9868 55.624 95.017 54.8652 95.0066 54.843ZM120.816 55.1349C120.541 54.4035 120.345 55.4665 120.523 56.0307C120.701 56.5943 120.9 55.3567 120.816 55.1349ZM123.72 54.6651C123.404 54.0864 123.303 56.4176 123.666 55.9533C123.687 55.9271 123.739 54.6987 123.72 54.6651ZM21.4801 52.6269C21.4752 52.605 21.312 52.5802 21.3053 52.6017C21.2047 53.1222 21.5395 53.1715 21.4801 52.6269ZM126.597 54.1464C126.506 53.829 126.202 54.1873 126.322 54.5821C126.42 54.8998 126.713 54.5413 126.597 54.1464ZM83.9219 52.8468C83.9191 52.8222 83.7954 52.7974 83.7949 52.936C83.7936 53.3824 83.9692 53.2602 83.9219 52.8468ZM131.472 54.2106C130.753 54.1103 130.35 52.1759 131.131 52.4071C131.272 52.4489 130.815 53.0161 130.992 53.193C131.318 53.5152 131.557 52.3093 131.884 52.9633C131.943 53.083 131.513 54.2206 131.471 54.2132C131.471 54.2123 131.472 54.2114 131.472 54.2106ZM94.9277 52.8649C94.924 52.8431 94.7547 52.8188 94.7502 52.8403C94.6469 53.3604 94.988 53.4096 94.9277 52.8649ZM76.7297 51.6732C76.7213 51.6267 76.3244 51.5747 76.3108 51.6171C76.0848 52.4664 76.8866 52.5741 76.7297 51.6732ZM106.487 51.9101C106.684 51.3888 106.905 51.3317 107.037 51.9944C106.856 51.9555 106.671 51.9464 106.487 51.9101Z" fill="black"/>
<path d="M63.3485 71.1474C63.2793 71.4141 62.8968 71.5793 62.5444 71.6354C62.431 71.6569 62.2577 71.4177 62.17 71.4235C62.0069 71.4269 62.0275 71.6093 61.8416 71.6053C61.7788 71.6031 61.4877 71.2407 61.4293 71.246C61.117 71.2716 61.0438 71.5137 60.8023 71.6194C59.6268 72.1254 58.6642 72.8669 57.6694 73.5912C57.342 73.83 56.6991 73.8917 56.5411 74.319C56.5227 74.3695 56.8345 74.6301 56.852 74.66C57.1179 75.1209 56.5633 74.5173 56.4181 74.511C55.8552 74.4758 55.5278 74.7614 55.3949 75.1246C55.3374 75.2818 56.0236 75.7301 55.5912 75.5275C55.5617 75.5141 55.2789 75.1873 55.2166 75.1857C55.076 75.1827 55.0048 75.3676 54.9281 75.3979C54.7789 75.4549 54.7652 75.4754 54.6691 75.5681C54.5346 75.6927 54.2282 75.7024 54.1599 75.9141C54.1462 75.9602 54.5033 76.2255 54.5102 76.3266C54.5167 76.428 54.3654 76.5313 54.2495 76.5017C54.133 76.4727 53.9007 76.2139 53.8361 76.1664C53.2922 75.764 53.8189 76.557 53.8169 76.5921C53.7598 77.2165 53.0947 77.1447 52.7774 77.4774C52.5386 77.7293 52.4115 78.1143 52.1643 78.3373C51.8709 78.5996 51.4702 78.6721 51.2344 78.9776C51.2092 79.0095 51.6166 79.3342 51.5866 79.3738C51.2718 79.7896 50.8696 80.1281 50.2591 80.2595C50.1974 80.2726 49.9147 79.9092 49.8333 79.9034C49.3423 79.8751 48.3433 79.6187 49.6466 81.1256C49.4416 81.228 49.2023 81.3627 48.7798 81.2262C48.5078 81.1384 48.2324 80.7083 48.28 80.9651C48.2903 81.0226 48.6355 81.2903 48.6272 81.3539C48.592 81.6212 48.3254 81.6958 48.339 82.0068C48.3425 82.0708 48.6325 82.331 48.6746 82.3884C49.0133 82.856 48.2144 82.3335 48.1388 82.3139C47.5717 82.1714 47.5711 82.4621 47.3768 82.6479C47.3315 82.6909 47.7609 82.9985 47.731 83.0528C47.5705 83.3299 47.3155 83.5323 46.9375 83.5926C46.8525 83.6051 46.5728 83.2528 46.5157 83.243C46.2678 83.2039 46.8553 83.8072 46.6291 83.7812C46.5821 83.7764 46.3171 83.5016 46.2831 83.4766C45.75 83.0829 46.3753 83.7773 46.3756 83.8069C46.3942 84.195 45.5715 83.6486 45.4931 83.9308C45.4844 83.9652 45.8823 84.2472 45.8363 84.3239C45.5314 84.8377 45.0135 85.1901 44.3376 85.3413C44.2332 85.3651 44.0141 85.0693 43.9778 85.0426C43.4085 84.628 44.0463 85.3151 44.0519 85.3604C44.0785 85.7008 43.3596 85.3185 44.0609 86.1985C43.8784 86.283 43.7235 86.3926 43.5829 86.5144L43.3171 83.7142C43.9026 84.2292 44.7005 84.4908 44.8572 85.5984C44.8602 85.6148 44.5731 85.9759 44.5803 86.0071C44.6658 86.3879 45.0399 85.7746 45.7137 85.1807C45.8829 85.0315 45.3825 85.9746 45.3482 86.0455C45.2198 86.3051 44.7781 86.8318 44.7587 86.886C44.6124 87.3162 45.9219 85.4652 46.0708 85.5719C46.0732 85.5784 45.8093 85.9025 45.7974 85.9451C45.7602 86.0789 45.8954 85.972 45.8476 86.1147C45.7371 86.445 45.1213 87.3592 45.6278 86.9343C45.6933 86.879 46.4211 85.8182 46.518 85.9632C46.5585 86.0238 46.7957 86.1682 46.813 86.2837C46.8289 86.398 46.5414 86.7015 46.5355 86.7193C46.389 87.29 46.1898 87.4261 45.8017 88.1468C45.4128 88.8632 46.5205 87.2851 46.6817 87.1362C46.8426 86.9878 46.704 87.4458 46.6432 87.5959C46.5823 87.7459 46.3886 87.9308 46.3642 88.023C46.2083 88.6282 47.0075 87.3075 47.2486 87.1044C47.819 86.6231 47.0868 87.8582 47.1365 88.0675C47.1498 88.1239 47.3121 87.8393 47.3617 87.8377C47.5561 87.8352 47.3701 88.2514 47.7508 88.0225C47.813 87.9853 48.4331 87.3734 48.137 87.9381C48.0941 88.0194 47.8544 88.2856 47.8611 88.3891C47.8714 88.5447 47.9688 88.7118 48.1232 88.6769C48.2378 88.6514 48.5113 88.1243 48.4831 88.3294C48.4703 88.4208 48.2029 88.651 48.1959 88.7996C48.1884 88.9479 48.367 89.0594 48.4393 89.0974C48.5103 89.1341 48.7375 88.7487 48.7604 88.7282C48.8924 88.6118 49.1408 88.5271 49.1514 88.5355C49.7366 88.8949 49.7914 89.8646 50.474 90.0564C50.5274 90.0721 50.7766 89.6726 50.7876 89.6711C51.0472 89.6174 50.1967 90.542 50.049 90.9518C50.5978 90.1726 50.5542 90.3545 50.7164 90.3438C50.795 90.338 50.9867 90.0211 51.0135 89.9938C51.4167 89.5945 51.0391 90.2152 50.9645 90.3441C50.6902 90.8185 51.123 90.3377 50.9404 90.6553C50.7594 90.9707 50.3673 91.3476 50.4688 91.4135C50.6979 91.1584 51.1526 90.3865 51.3121 90.3243C51.909 90.0843 52.0159 91.0307 52.1927 91.251C52.3712 91.4723 52.4837 91.477 52.5376 91.6698C52.6375 92.0202 52.9447 91.4251 53.2692 91.2881C53.5945 91.1519 52.5581 92.4096 52.3715 92.7066C52.1846 93.0032 52.4206 92.7301 52.3322 92.9037C52.2437 93.0772 52.0472 93.2279 52.0645 93.3302C52.0824 93.433 52.6139 93.0521 52.8522 92.7733C53.3569 92.1826 53.7663 91.4739 53.7544 91.8204C53.7534 91.8407 53.4698 92.1632 53.4789 92.2237C53.5604 92.6933 53.8356 92.922 53.938 93.3602C53.9518 93.4211 53.6347 93.7786 53.6395 93.8183C53.689 94.2338 54.0845 93.5279 54.7415 92.905C54.0073 93.8378 53.6442 94.4721 53.8137 94.6065C53.9155 94.6877 54.2061 94.258 54.4914 94.0148C54.5774 93.9415 54.4398 94.2824 54.5984 94.0967C55.1175 93.4898 55.5783 92.7212 55.5479 93.1408C55.5458 93.1602 55.2606 93.4917 55.2724 93.5333C55.3461 93.8033 55.8625 93.1488 56.1134 93.2094C56.3096 93.2565 56.2751 93.864 56.3938 94.0553C55.5939 95.1229 55.9361 94.9968 56.5507 94.3077C56.6385 94.42 56.7893 94.4675 56.8205 94.6493C56.831 94.7112 56.5763 95.003 56.5559 95.0399C56.2351 95.6173 56.8176 94.9354 56.8623 94.925C57.3227 94.8429 57.1299 95.5453 57.771 95.1969C57.794 95.1843 58.3628 94.4526 58.0234 95.0436C57.9997 95.0841 57.6663 95.3612 57.7621 95.4736C57.858 95.5861 57.7786 96.147 58.1974 95.9241C58.2979 95.8703 58.8467 95.3414 58.573 95.8708C58.5356 95.9425 58.3648 96.1466 58.2913 96.2763C58.0576 96.69 58.646 95.9605 58.2263 96.6404C57.8066 97.3202 57.5685 97.8865 58.0601 97.569C58.0748 97.56 58.5592 96.9954 58.6026 97.0427C58.6717 97.1187 58.6936 97.3286 58.7811 97.3883C58.8231 97.4166 59.0741 97.0286 59.0862 97.0271C59.5139 97.0255 59.4622 97.5008 59.6456 97.8621C59.6787 97.9292 60.2109 97.543 60.0155 98.0182C59.8017 98.5383 58.3233 100.258 58.9076 100.023C59.142 99.93 61.0053 97.7392 60.2981 99.0693C60.868 99.0544 60.7728 99.8545 61.3817 99.7866C61.4064 99.7857 61.4301 99.782 61.4548 99.777C61.4858 99.7711 62.0187 99.169 62.0509 99.2067C62.098 99.264 61.905 99.5872 61.9308 99.6373C62.0402 99.8596 62.3899 99.7204 62.5249 99.8826C62.5784 99.9448 62.3259 100.24 62.3895 100.314C62.4529 100.387 62.8048 100.013 62.7631 100.289C62.7284 100.496 62.1893 101.394 62.2217 101.568C62.8339 100.742 62.8928 100.812 63.1797 100.685C63.2348 100.661 63.4204 100.353 63.4573 100.326C63.611 100.21 63.4812 100.483 63.6438 100.353C63.683 100.322 63.8903 100.038 63.9339 99.9967C64.3101 99.6311 63.9718 100.361 63.9111 100.487C63.6849 100.968 63.9937 100.628 63.9337 100.838C63.8759 101.05 63.6312 101.19 63.6331 101.345C63.6338 101.664 63.8665 101.76 64.0143 101.883C64.0731 101.93 64.3001 101.517 64.3148 101.514C64.5111 101.507 64.3624 102.01 64.9579 101.286C63.6927 103.344 65.1681 101.146 65.0789 101.667C65.0713 101.709 64.4637 102.675 64.3125 102.776C64.1584 102.875 64.2689 102.52 64.0413 102.681C63.9877 102.719 63.272 103.525 63.2189 103.567C62.8099 103.9 63.7669 102.487 63.8149 102.407C64.3243 101.529 63.5347 102.383 63.4532 102.423C63.0824 102.607 63.0934 102.32 62.8079 102.436C62.6266 102.513 61.9637 103.412 61.9144 103.334C61.7576 103.081 62.5962 101.763 61.5938 102.705C61.3793 102.905 60.6976 103.919 61.1089 103.03C61.1354 102.974 61.5342 102.177 61.1392 102.576C61.0891 102.626 60.8781 102.913 60.8491 102.929C60.6589 103.029 60.7737 102.761 60.613 102.811C60.4507 102.86 60.2284 102.947 60.2084 102.782C60.1955 102.682 60.5155 102.094 60.5869 101.945C60.7921 101.515 60.2522 102.069 60.5427 101.579C60.8353 101.087 61.4436 100.462 61.5411 100.076C60.9836 100.814 60.4056 101.567 59.842 102.307C59.7753 102.246 59.7189 102.169 59.6656 102.085C59.6627 102.082 59.6512 102.075 59.6483 102.072C59.5117 101.847 59.4101 101.579 59.1961 101.455C59.1593 101.434 58.8932 101.857 58.8461 101.845C58.649 101.795 58.7307 101.412 58.4896 101.407C58.3017 101.404 57.8523 101.725 57.6468 101.736C58.2077 100.833 57.8032 100.978 57.7251 100.798C57.6974 100.735 57.8707 100.512 57.8922 100.413C57.9693 100.044 57.4668 100.836 57.3432 100.927C56.8151 101.316 58.0754 99.6155 57.8665 99.5238C57.8557 99.5182 57.0621 100.333 57.004 100.377C56.6278 100.667 57.2233 100.051 57.2102 99.9367C57.1865 99.7283 57.2683 99.4527 56.935 99.6157C56.8369 99.6644 56.3208 100.156 56.571 99.6639C56.6036 99.5993 56.833 99.3053 56.838 99.2817C56.9091 98.88 56.2022 99.8144 55.8802 100.069C55.5583 100.323 55.9142 99.5794 56.0276 99.3731C56.3204 98.8389 56.2349 99.2064 56.2742 99.1618C56.7404 98.6312 56.5732 98.6574 56.5368 98.5558C57.2152 97.6285 57.073 97.6082 56.4964 98.4542C56.4336 98.5467 56.5538 98.5029 56.5368 98.5558C55.7975 99.4103 55.6019 99.4441 56.1093 98.5082C56.3475 98.0698 56.7467 97.6497 56.4456 97.6874C56.3093 97.7041 55.8661 98.3605 55.6671 98.481C55.2127 98.7556 55.4492 98.0111 55.2133 97.9801C55.1281 97.9692 54.9275 98.3598 54.8603 98.3643C54.6815 98.3774 54.7802 98.0457 54.5721 98.0981C54.553 98.1033 54.306 98.4846 54.2688 98.4641C53.9836 98.3171 53.9293 97.9146 53.6677 97.7099C53.5417 97.6116 53.1593 97.6388 53.0551 97.4988C52.8729 97.2582 52.9803 96.5172 52.6847 96.4974C52.4938 96.4834 52.2524 96.8688 52.013 97.0759C51.5495 97.4776 51.9997 96.4765 52.0718 96.3232C52.0743 96.3182 52.2505 96.3157 52.3289 96.0842C52.5825 95.6686 52.0744 96.3225 52.0718 96.3232C52.1186 96.2244 51.9557 95.9758 51.86 96.0128C51.8078 96.0331 51.5658 96.3883 51.5434 96.3924C51.0187 96.4824 50.6513 96.3467 50.4698 95.9632C50.4697 95.9524 50.7629 95.5716 50.759 95.5508C50.7125 95.2511 50.2478 95.6387 49.8967 95.8134C49.5451 95.9876 49.5007 95.8098 49.9048 95.0831C49.7332 95.0857 49.7916 94.676 49.8326 94.4315C49.8735 94.1869 49.307 94.9313 49.2882 94.9404C48.6933 95.2375 48.8627 94.6977 48.6564 94.4429C48.5601 94.3211 48.2361 94.2517 48.0429 94.237C47.8896 94.2267 47.9564 94.0039 47.778 94.047C47.754 94.0526 47.521 94.3981 47.5075 94.4082C47.1067 94.7322 47.7594 93.9483 47.8448 93.7855C48.1543 93.1927 48.3115 92.8714 47.9896 93.0212C47.9156 93.0553 46.9575 94.1706 46.8494 94.1977C46.7104 94.2308 47.0487 93.8273 46.8955 93.8729C46.8827 93.8764 46.6927 94.1391 46.6531 94.0924C46.4599 93.8743 46.3291 93.5452 46.0735 93.3989C46.0392 93.3778 45.7776 93.8234 45.7232 93.7999C45.4673 93.6886 45.246 93.5037 45.1718 93.152C45.1553 93.0647 45.4 92.7976 45.4516 92.7029C45.7624 92.1293 45.1112 92.8175 45.0845 92.8202C44.4303 92.9025 44.6341 91.9994 43.9987 92.0385C43.963 92.0419 43.2083 92.7389 43.6392 91.9842C43.6678 91.9339 44.1126 91.1646 43.693 91.6069C43.6668 91.6346 43.4453 92.036 43.3929 91.9407C43.3394 91.8448 43.0387 92.0022 43.2185 91.515C43.2758 91.362 43.7098 90.5877 43.1945 91.0823C43.1583 91.1167 42.0703 92.291 42.6549 91.3606C42.7514 91.2077 43.4409 90.2743 42.9673 90.666C42.8759 90.7422 42.7674 90.9831 42.6101 91.0688C42.3675 91.2008 42.428 90.861 42.0059 91.1937C41.9314 91.2528 41.382 91.8275 41.6624 91.2926C41.7064 91.2089 41.9539 90.9098 41.9425 90.8481C41.8928 90.5557 41.5513 90.6287 41.533 90.2851C41.5261 90.1639 41.924 89.6789 41.9578 89.4963C41.9881 89.3113 41.9484 89.0837 41.713 89.2668C41.4774 89.45 40.968 90.3131 40.82 90.3049C40.167 90.262 40.0647 89.4672 39.6658 89.0752C39.6075 89.0176 39.453 89.3464 39.3536 89.2833C39.3456 89.2783 39.3373 89.2732 39.3289 89.2682C37.1487 86.9257 36.0045 83.652 38.621 81.8097C38.9009 81.4583 39.1992 80.7028 39.9974 80.9399C40.6527 81.1327 40.7181 81.7356 41.0615 81.7334C41.2261 81.7313 40.4708 80.8417 40.4635 80.7964C40.3815 80.3439 40.8825 80.563 40.9364 80.2774C40.9473 80.2184 40.5725 79.9301 40.5856 79.8834C40.6274 79.7211 40.8858 79.754 40.9546 79.626C40.9844 79.5681 40.7163 79.3288 40.776 79.3062C40.9161 79.2493 41.1096 79.265 41.4462 79.3996C41.4769 79.4119 41.7435 79.7799 41.826 79.7173C41.9585 79.6153 42.3408 79.6954 42.2237 79.3211C42.1878 79.2091 41.5949 78.6413 42.089 78.9446C42.1923 79.0078 42.8837 79.7113 42.3643 79.0216C42.2782 78.9068 41.6101 77.9424 42.2267 78.3689C42.389 78.4811 43.0271 78.9808 42.9822 78.8442C42.9739 78.8236 42.6292 78.546 42.6369 78.4756C42.6697 78.2326 42.8468 78.115 42.8874 77.8723C42.8976 77.8069 42.5115 77.5506 42.5373 77.4632C42.6077 77.2222 42.8837 77.1012 43.1377 77.042C43.2319 77.0208 43.467 77.3219 43.5008 77.3461C44.0497 77.74 43.4348 77.0763 43.4183 77.0173C43.3242 76.6591 43.7331 76.8452 43.7753 76.6384C43.7878 76.5822 43.4523 76.3101 43.4313 76.2765C43.2303 75.9437 43.7372 76.5327 43.8433 76.5449C44.1425 76.5812 44.2572 76.411 44.3436 76.2409C44.3749 76.1779 43.9618 75.8876 43.9941 75.8351C44.178 75.518 44.4688 75.283 44.9086 75.2214C44.9921 75.2105 45.2414 75.506 45.3143 75.5569C45.8233 75.9135 45.3129 75.2348 45.2771 75.1567C45.1135 74.8005 45.397 74.996 45.4399 74.8594C45.6432 74.19 46.3387 73.7895 46.8438 73.4637C47.5052 73.0328 48.1817 72.8562 48.6159 72.2673C48.6443 72.2296 48.2428 71.9093 48.2626 71.8723C48.5359 71.41 49.0283 71.1864 49.2835 70.7084C49.3048 70.6701 48.9131 70.3778 48.9356 70.305C48.9797 70.1528 49.1181 70.0472 49.3305 70.0498C49.4326 70.0514 49.6673 70.4074 49.764 70.4031C49.9897 70.3937 50.1351 70.2926 50.1937 70.1198C50.2179 70.0456 49.7874 69.7776 49.8466 69.7079C50.2465 69.2224 50.6148 68.7179 51.5141 68.7119C51.5762 68.7112 52.3241 69.3876 52.2516 69.1845C52.0556 68.9849 51.8188 68.7564 51.6061 68.5463C52.1246 67.7789 53.0092 67.3689 53.6887 66.7491C53.7171 66.723 53.2883 66.3979 53.3414 66.3456C53.6466 66.0438 53.8349 65.6394 54.533 65.6857C54.6006 65.6909 55.256 66.3644 55.2435 66.1743C55.2381 66.1428 55.2908 65.9104 55.1819 65.7304C55.1649 65.7038 54.8267 65.4223 54.8629 65.3673C55.0723 65.0596 55.4105 64.8596 55.8771 64.7713C55.9506 64.7601 56.2362 65.1349 56.2912 65.13C56.6805 65.0911 56.674 64.5964 57.2037 64.6744C57.5704 64.7185 58.0462 65.3803 58.6934 65.8624C58.7879 65.9273 58.8929 65.8557 59.2225 66.1824C59.9914 67.0542 60.8006 68.0377 61.633 68.9557C61.721 69.0554 61.7234 69.0494 61.6732 69.1431C61.6512 69.1874 61.6095 69.2579 61.6369 69.3214C61.661 69.3872 61.789 69.4247 61.9596 69.4954C61.9867 69.5021 62.0976 69.4937 62.1602 69.5528C62.2239 69.6116 62.2898 69.6978 62.3606 69.7813C62.4586 69.8967 62.7841 70.2362 62.9075 70.3858C63.03 70.5359 62.7404 70.2672 62.8677 70.4602C62.9933 70.6588 63.3832 71.0257 63.3485 71.1474ZM50.0126 93.3364C50.1941 92.9125 49.2079 94.2292 49.532 93.9789C49.5488 93.9652 50.0039 93.3574 50.0126 93.3364ZM60.2393 100.637C60.5691 99.9767 59.8511 100.771 59.5891 101.276C59.3273 101.78 60.1395 100.837 60.2393 100.637ZM61.6999 101.069C61.913 100.515 60.5029 102.373 60.9208 102.096C60.945 102.081 61.6878 101.101 61.6999 101.069ZM58.4859 66.3758C58.5026 66.39 58.5788 66.3452 58.5648 66.3287C58.2329 65.9225 58.0792 66.0138 58.4859 66.3758ZM63.1777 101.438C63.3232 101.154 62.9907 101.363 62.8105 101.717C62.6675 102.003 62.9975 101.792 63.1777 101.438ZM46.6682 88.7198C46.6812 88.699 46.6453 88.6456 46.5649 88.7584C46.306 89.122 46.4481 89.0695 46.6682 88.7198ZM65.2048 102.78C64.9255 102.511 65.8027 100.782 65.9795 101.149C66.015 101.217 65.5385 101.599 65.5187 101.791C65.4903 102.145 66.1969 101.157 66.0093 101.799C65.9738 101.916 65.219 102.8 65.2029 102.782C65.2036 102.782 65.2042 102.781 65.2048 102.78ZM51.1337 91.7083C51.1449 91.6895 51.0895 91.6232 51.0751 91.6394C50.7293 92.0334 50.8408 92.1672 51.1337 91.7083ZM44.4116 85.8317C44.4345 85.791 44.3024 85.6424 44.2728 85.6737C43.6915 86.3074 43.9565 86.6096 44.4116 85.8317ZM56.3752 94.0858C56.7618 93.7186 56.8863 93.7342 56.5507 94.3069C56.4989 94.2246 56.4288 94.166 56.3752 94.0858Z" fill="black"/>
<path d="M86.7451 71.5923C86.8287 71.8997 86.6172 72.1339 86.3684 72.2746C86.2903 72.3219 86.0139 72.2236 85.9471 72.2533C85.8161 72.3147 85.938 72.42 85.7888 72.4625C85.7379 72.4767 85.2964 72.3375 85.2534 72.3547C85.0216 72.4452 85.0963 72.6349 84.9689 72.7412C84.3233 73.3334 83.9767 73.983 83.5938 74.6177C83.4642 74.8409 82.9904 74.9952 83.1029 75.2875C83.1166 75.3214 83.513 75.4078 83.5439 75.4217C84.0161 75.6366 83.232 75.4009 83.1127 75.4269C82.6428 75.525 82.544 75.752 82.6395 76.002C82.6812 76.1087 83.483 76.2264 83.0225 76.1997C82.9914 76.1978 82.5812 76.0655 82.5306 76.0771C82.4167 76.1034 82.4641 76.2244 82.4201 76.2573C82.3331 76.32 82.3337 76.3345 82.3086 76.4097C82.2705 76.5117 82.0302 76.582 82.0938 76.7218C82.1086 76.752 82.5435 76.8337 82.6056 76.8921C82.6672 76.9518 82.605 77.0396 82.4953 77.0468C82.3858 77.0536 82.0546 76.9494 81.9763 76.9348C81.3151 76.8099 82.1814 77.1669 82.1996 77.188C82.5043 77.5633 81.9279 77.6678 81.8612 77.9206C81.811 78.1151 81.9224 78.3726 81.8485 78.5538C81.7601 78.7643 81.4786 78.8887 81.4594 79.1159C81.4568 79.1398 81.9648 79.2492 81.9627 79.2786C81.939 79.5956 81.8074 79.8633 81.3884 80.0677C81.346 80.0879 80.917 79.9297 80.8484 79.9427C80.4373 80.0271 79.4933 80.0692 81.3767 80.7005C81.2687 80.8015 81.1509 80.9284 80.7353 80.9321C80.4678 80.9346 80.0081 80.7345 80.1885 80.8774C80.2286 80.9095 80.6547 80.9991 80.6831 81.0385C80.8022 81.2056 80.63 81.299 80.813 81.4801C80.8513 81.5172 81.2285 81.6138 81.2942 81.6394C81.8256 81.8488 80.8935 81.6975 80.8219 81.7007C80.2867 81.7282 80.4468 81.9005 80.3927 82.0497C80.38 82.0843 80.8957 82.1818 80.9016 82.2198C80.9257 82.414 80.8323 82.5832 80.5611 82.6931C80.4995 82.7172 80.0798 82.5632 80.0284 82.5686C79.8071 82.594 80.6132 82.8365 80.4165 82.8653C80.3761 82.8717 80.0111 82.7607 79.9699 82.7525C79.3233 82.6234 80.21 82.9128 80.2265 82.9303C80.455 83.1578 79.4914 82.9926 79.5837 83.1752C79.5957 83.1973 80.0716 83.2871 80.0769 83.3413C80.1147 83.703 79.8901 84.0156 79.4284 84.2338C79.3573 84.2681 79.018 84.1348 78.9741 84.126C78.2871 83.9898 79.1791 84.2745 79.2084 84.3004C79.4167 84.4979 78.6272 84.4075 79.6759 84.7955C79.1504 85.2391 79.6 85.9532 78.4861 86.2258C78.473 86.2295 78.0329 86.0923 78.0087 86.1003C77.713 86.1958 78.4114 86.3581 79.2236 86.7053C79.4275 86.7926 78.386 86.5896 78.3093 86.576C78.0267 86.5255 77.3748 86.3114 77.319 86.3054C76.8798 86.2624 79.0653 86.8655 79.0374 86.9671C79.0329 86.9693 78.635 86.8426 78.5927 86.8399C78.4598 86.8309 78.612 86.9022 78.4665 86.8891C78.1298 86.858 77.0637 86.5796 77.6552 86.8442C77.7321 86.8783 78.9746 87.2105 78.8906 87.2845C78.856 87.3138 78.8321 87.4793 78.7392 87.5013C78.6465 87.5233 78.2564 87.3798 78.2382 87.3781C77.6769 87.3489 77.4713 87.2415 76.6736 87.0805C75.879 86.9203 77.7385 87.429 77.9386 87.5121C78.1381 87.5952 77.6782 87.5598 77.5208 87.5385C77.3634 87.5172 77.1177 87.4185 77.0266 87.4134C76.431 87.3827 77.9313 87.7306 78.2137 87.8563C78.8825 88.1536 77.4851 87.8408 77.3246 87.8933C77.2812 87.9075 77.6001 87.9764 77.6232 88.0066C77.7104 88.1251 77.2665 88.0552 77.632 88.2654C77.6915 88.2997 78.4957 88.6145 77.8743 88.4933C77.7848 88.4757 77.448 88.3575 77.3607 88.3724C77.2299 88.3947 77.1271 88.4715 77.2245 88.564C77.2967 88.6322 77.8757 88.7426 77.6845 88.748C77.5992 88.7503 77.2819 88.6106 77.1491 88.6227C77.0165 88.6346 76.9976 88.756 76.9963 88.8038C76.9952 88.8516 77.4304 88.9495 77.4582 88.9613C77.6172 89.0302 77.7994 89.1745 77.7967 89.1819C77.7408 89.5757 76.9183 89.7214 77.051 90.159C77.0608 90.1932 77.5177 90.3036 77.5239 90.3101C77.6845 90.4635 76.507 90.0406 76.0855 89.9942C77.0042 90.2475 76.8267 90.2406 76.9071 90.339C76.9466 90.3866 77.3065 90.4704 77.3419 90.4839C77.8662 90.6885 77.1606 90.5228 77.0157 90.4908C76.4828 90.373 77.0907 90.5878 76.7343 90.5097C76.3805 90.4324 75.8807 90.232 75.8679 90.3014C76.1902 90.4148 77.0612 90.6113 77.1853 90.7027C77.6545 91.0482 76.8789 91.2129 76.765 91.3452C76.6511 91.4775 76.6963 91.5478 76.5518 91.6034C76.2904 91.7045 76.9429 91.8289 77.2043 92.0144C77.4656 92.2001 75.9172 91.6969 75.577 91.6139C75.2371 91.5306 75.5783 91.6465 75.3885 91.6105C75.1989 91.5745 74.9815 91.4701 74.9002 91.4913C74.819 91.5125 75.3835 91.7989 75.7305 91.9157C76.4656 92.163 77.2613 92.3396 76.9552 92.3687C76.9371 92.3703 76.5321 92.2303 76.4836 92.2422C76.1116 92.3417 76.0323 92.5405 75.6969 92.6495C75.6501 92.6644 75.2001 92.5072 75.1677 92.5144C74.8289 92.5879 75.6159 92.7564 76.4461 93.0941C75.3131 92.741 74.6024 92.5849 74.5606 92.7024C74.5345 92.7752 75.0355 92.9083 75.3719 93.0591C75.4733 93.1045 75.1165 93.0564 75.3476 93.1346C76.1028 93.3903 76.9728 93.5928 76.595 93.619C76.5772 93.6198 76.164 93.4791 76.133 93.4908C75.9309 93.5653 76.7259 93.8154 76.7837 93.9763C76.829 94.1028 76.2884 94.1393 76.1728 94.2386C74.8943 93.8576 75.1538 94.0571 76.0221 94.3642C75.9631 94.4309 75.9883 94.5287 75.8445 94.5663C75.7954 94.5794 75.4301 94.4526 75.3891 94.444C74.7471 94.3064 75.595 94.5944 75.6237 94.6208C75.7112 94.7085 75.7002 94.763 75.6637 94.808C75.664 94.8132 75.6558 94.8277 75.6559 94.833C75.5737 94.9317 75.3769 94.9827 75.764 95.246C75.7846 95.2596 76.658 95.5695 76.0018 95.3974C75.9567 95.3851 75.5773 95.1917 75.5186 95.2623C75.4595 95.3342 74.9381 95.3212 75.3036 95.5757C75.3918 95.6366 76.0758 95.9585 75.5024 95.8164C75.4247 95.7969 75.1772 95.6995 75.0342 95.6603C74.5784 95.5353 75.4533 95.8705 74.6902 95.641C73.9271 95.4118 73.3385 95.2875 73.8143 95.5848C73.828 95.5937 74.5157 95.8747 74.4918 95.9057C74.4531 95.955 74.2791 95.9797 74.262 96.0394C74.2542 96.0678 74.6927 96.2111 74.6988 96.2188C74.8706 96.4973 74.4352 96.4869 74.1924 96.6213C74.1473 96.6451 74.6925 96.9782 74.2017 96.8686C73.6648 96.748 71.5876 95.8463 72.0226 96.2135C72.197 96.3591 74.8293 97.5102 73.3963 97.0874C73.6389 97.4729 72.8414 97.4118 73.2254 97.8588C73.2423 97.8787 73.9671 98.2227 73.9459 98.2451C73.913 98.2776 73.5587 98.1541 73.5243 98.1722C73.3715 98.2447 73.6213 98.4762 73.5273 98.5691C73.4924 98.6046 73.1429 98.4372 73.1013 98.4791C73.0602 98.5208 73.5138 98.7569 73.2581 98.7276C73.143 98.7141 72.7545 98.5816 72.4269 98.4788L72.4322 98.4669C72.2065 98.392 72.0103 98.331 71.9529 98.3369C72.8863 98.7678 72.8461 98.8048 73.0539 99.0016C73.0943 99.0398 73.4267 99.1736 73.4625 99.1995C73.6151 99.3085 73.3329 99.212 73.5008 99.3266C73.5411 99.3543 73.8586 99.5041 73.9094 99.5354C74.3528 99.8076 73.5988 99.554 73.4684 99.5078C72.9717 99.3358 73.371 99.5588 73.1659 99.5105C72.9612 99.4612 72.7595 99.2882 72.6245 99.2804C72.3456 99.2636 72.3359 99.4099 72.2722 99.4991C72.2488 99.5355 72.6794 99.7228 72.6858 99.7329C72.7494 99.8696 72.2657 99.7188 73.0682 100.199C70.9033 99.1291 73.2497 100.357 72.7595 100.249C72.72 100.24 71.7089 99.7099 71.5789 99.5976C71.4489 99.4858 71.7909 99.6027 71.5842 99.4346C71.5362 99.3942 70.6203 98.8375 70.5665 98.8005C70.149 98.5057 71.6694 99.279 71.7548 99.3179C72.6751 99.7392 71.6894 99.1353 71.6276 99.0811C71.3476 98.8261 71.6004 98.8559 71.4037 98.6651C71.2767 98.5415 70.2728 98.0508 70.3212 98.0291C70.4804 97.9587 71.9153 98.5701 70.7462 97.8787C70.4967 97.7314 69.3755 97.2467 70.2898 97.5567C70.3225 97.5677 70.6031 97.6681 70.7521 97.7025L70.7346 97.7418C70.8492 97.7655 70.8859 97.7525 70.673 97.6383C70.611 97.6051 70.2845 97.4636 70.26 97.4447C70.1027 97.3214 70.3764 97.4028 70.2736 97.2982C70.1708 97.1936 70.0107 97.0532 70.1464 97.0429C70.2275 97.0366 70.857 97.2507 71.0137 97.297C71.4648 97.4312 70.7802 97.0813 71.3146 97.2715C71.8521 97.4617 72.6234 97.8575 72.9966 97.9185C72.1453 97.5575 71.273 97.1835 70.4174 96.8192C70.5186 96.662 70.8646 96.6076 70.8971 96.4196C70.9002 96.396 70.431 96.2303 70.4224 96.2004C70.3881 96.0752 70.7505 96.1239 70.6595 95.9716C70.5873 95.853 70.1315 95.5746 70.0393 95.4469C71.043 95.786 70.756 95.5338 70.8797 95.4824C70.9227 95.4639 71.1854 95.568 71.2798 95.5794C71.6298 95.6196 70.7425 95.3219 70.6137 95.2467C70.0641 94.9262 72.0435 95.6754 72.0392 95.5396C72.0398 95.5324 71.0129 95.0586 70.9507 95.0242C70.5462 94.7986 71.3222 95.152 71.4154 95.1409C71.5858 95.1204 71.8578 95.1623 71.5803 94.96C71.4981 94.9004 70.8605 94.5972 71.3889 94.7359C71.4581 94.754 71.8069 94.8859 71.8293 94.8882C72.2061 94.918 71.1062 94.5139 70.7521 94.3264C70.3982 94.1388 71.1881 94.3321 71.4139 94.3931C71.9975 94.5519 71.6443 94.5139 71.6991 94.5363C72.3517 94.8028 72.2598 94.7002 72.3326 94.6732C73.417 95.0525 73.3762 94.9615 72.4037 94.6436C72.2974 94.609 72.3854 94.6813 72.3326 94.6732C71.2857 94.253 71.1736 94.1376 72.1952 94.4074C72.6741 94.5334 73.205 94.7592 73.0465 94.5743C72.9748 94.4907 72.2205 94.2518 72.0321 94.1366C71.6021 93.8745 72.3454 93.9804 72.2707 93.8369C72.2435 93.7851 71.8203 93.6855 71.7874 93.6457C71.7513 93.6027 71.7842 93.5843 71.8268 93.5695L71.7997 93.656C71.8619 93.6298 71.945 93.6103 71.8635 93.5381C71.8505 93.5269 71.4112 93.414 71.4126 93.3893C71.4142 93.1993 71.7384 93.1273 71.8018 92.9413C71.8328 92.8497 71.6398 92.6209 71.7151 92.5432C71.8431 92.4077 72.534 92.3945 72.4215 92.2093C72.35 92.0892 71.9091 91.9815 71.6242 91.8554C71.0714 91.6127 72.1384 91.7852 72.3031 91.8139C72.3085 91.8149 72.3886 91.9217 72.6239 91.9462C73.0963 92.0587 72.3049 91.8153 72.3031 91.8139C72.4094 91.8326 72.5532 91.7075 72.4791 91.6524C72.4385 91.6224 72.0235 91.5112 72.0101 91.4978C71.7013 91.1844 71.659 90.9394 71.9115 90.7905C71.9209 90.7893 72.3806 90.929 72.3969 90.9244C72.6372 90.8634 72.0954 90.6215 71.7894 90.424C71.4835 90.2264 71.6189 90.1791 72.4284 90.3488C72.3508 90.2436 72.733 90.2347 72.9632 90.2351C73.1937 90.2345 72.2978 89.966 72.2816 89.9554C71.7624 89.6207 72.3052 89.6705 72.4368 89.5149C72.5008 89.4417 72.4196 89.2336 72.3474 89.1144C72.2889 89.0198 72.5121 89.037 72.3965 88.9318C72.3811 88.9176 71.9782 88.8117 71.9636 88.8045C71.5061 88.5928 72.4742 88.9095 72.6534 88.9444C73.3048 89.0714 73.6532 89.1342 73.3817 88.9528C73.3195 88.911 71.929 88.4425 71.8581 88.3787C71.7686 88.2965 72.268 88.4611 72.1614 88.3712C72.1527 88.3636 71.8408 88.2752 71.8643 88.2453C71.9692 88.1046 72.1991 87.9867 72.2142 87.8158C72.2175 87.7928 71.715 87.6798 71.7116 87.6443C71.6959 87.4774 71.7613 87.3175 72.0348 87.2361C72.1036 87.2165 72.4433 87.3379 72.5484 87.3594C73.1841 87.4883 72.3 87.162 72.286 87.1458C71.9281 86.7541 72.8043 86.7818 72.4929 86.3962C72.4743 86.3748 71.5378 85.9847 72.3835 86.169C72.4398 86.1813 73.3047 86.3711 72.7359 86.1618C72.7003 86.1487 72.2536 86.0561 72.3138 86.0138C72.3739 85.9714 72.1066 85.8002 72.6091 85.8607C72.7674 85.8796 73.6319 86.063 72.9758 85.8001C72.9299 85.782 71.4319 85.2391 72.4982 85.4979C72.6737 85.5406 73.7884 85.863 73.2401 85.6155C73.1337 85.5678 72.8763 85.5271 72.7329 85.4401C72.5119 85.3064 72.8357 85.3034 72.3611 85.0817C72.2771 85.0426 71.536 84.7688 72.1249 84.883C72.2171 84.9008 72.5859 85.0203 72.6348 85.0067C72.8691 84.9421 72.6554 84.745 72.9481 84.6946C73.051 84.6765 73.6475 84.8685 73.8219 84.8685C73.9962 84.8684 74.1773 84.8204 73.9153 84.6953C73.653 84.5701 72.6776 84.3519 72.6208 84.2591C72.3739 83.8554 73.0237 83.7069 73.1928 83.4205C73.218 83.3781 72.8634 83.3198 72.8758 83.2504C72.92 82.9942 72.7179 82.4729 73.509 82.4609C74.1428 82.4509 74.5278 82.7932 74.803 82.7271C74.9345 82.6948 73.8359 82.3146 73.805 82.2891C73.4897 82.0381 74.0141 82.0709 73.9 81.8927C73.8763 81.8559 73.4155 81.7574 73.4003 81.7275C73.3444 81.6241 73.5704 81.5948 73.555 81.5068C73.547 81.467 73.1991 81.3773 73.2348 81.3527C73.316 81.2926 73.4803 81.2653 73.8254 81.2806C73.8569 81.282 74.2746 81.4475 74.3065 81.3949C74.3569 81.309 74.7088 81.2828 74.4077 81.085C74.317 81.0259 73.5261 80.8056 74.0913 80.8892C74.2093 80.9066 75.1544 81.1876 74.3553 80.8816C74.2226 80.8306 73.1518 80.3923 73.8835 80.525C74.076 80.5598 74.8656 80.7311 74.7538 80.6597C74.7357 80.6492 74.305 80.5522 74.2722 80.5096C74.1637 80.362 74.2414 80.2572 74.1397 80.1066C74.1117 80.0661 73.6593 79.9901 73.6316 79.9337C73.5548 79.7784 73.7095 79.6543 73.8805 79.5712C73.9444 79.5408 74.3004 79.6719 74.3409 79.6796C75.0004 79.8049 74.1381 79.5345 74.0921 79.5032C73.8177 79.3121 74.2491 79.3431 74.1686 79.2123C74.1474 79.1767 73.7268 79.0823 73.6913 79.0666C73.3453 78.9101 74.0793 79.1575 74.1714 79.1439C74.432 79.1065 74.4295 78.9847 74.4044 78.8684C74.3945 78.8255 73.9015 78.7354 73.8982 78.6985C73.8697 78.477 73.9712 78.2873 74.2906 78.1626C74.3515 78.1398 74.7161 78.2643 74.8029 78.2798C75.41 78.3889 74.6227 78.0908 74.5505 78.0521C74.2209 77.8755 74.5574 77.9339 74.5155 77.8463C74.3037 77.4222 74.6402 77.0432 74.8617 76.7578C75.1509 76.3751 75.5919 76.145 75.6108 75.7093C75.6125 75.6817 75.1115 75.5752 75.1066 75.5498C75.0661 75.2257 75.3317 75.0069 75.2681 74.6724C75.2637 74.6457 74.7861 74.5548 74.7631 74.5079C74.7127 74.4107 74.7644 74.3194 74.9347 74.2816C75.0168 74.2629 75.4053 74.4209 75.4798 74.3999C75.6545 74.3501 75.7118 74.2693 75.6624 74.1523C75.6401 74.1035 75.1448 74.0365 75.1531 73.9831C75.1996 73.6162 75.2044 73.264 75.9188 73.0718C75.9677 73.0592 76.9481 73.2941 76.7744 73.1946C76.5048 73.1198 76.1865 73.0366 75.8977 72.9591C75.874 72.4146 76.3429 71.9991 76.5211 71.5183C76.5288 71.4971 76.0017 71.4028 76.0138 71.3612C76.0831 71.1209 75.9941 70.869 76.5696 70.7541C76.6257 70.7436 77.5347 70.9812 77.4136 70.8792C77.3918 70.8593 77.2933 70.7354 77.1034 70.6534C77.0745 70.6423 76.6437 70.5577 76.6399 70.5195C76.6249 70.3007 76.7675 70.1365 77.071 70.0138C77.1204 69.9959 77.5684 70.1309 77.6076 70.1189C77.883 70.028 77.5694 69.8036 78.005 69.7858C78.2954 69.7881 79.083 69.9672 79.8725 70.0664C79.9848 70.0754 80.0059 70.0553 80.4636 70.1196C81.6173 70.2633 82.8709 70.4891 84.1005 70.644C84.3656 70.6883 84.1124 70.3688 84.734 70.6143C84.7756 70.6377 84.9617 70.8515 85.1706 70.9245C85.3149 70.9785 85.7879 71.0006 85.9683 71.0957C86.147 71.1986 85.751 71.1731 85.9634 71.274C86.1779 71.3781 86.7085 71.4536 86.7451 71.5923ZM73.9943 90.2293C74.4426 90.2959 72.8646 89.8311 73.2246 90.0029C73.2439 90.0117 73.9723 90.2262 73.9943 90.2293ZM72.0115 97.0803C72.712 97.2847 71.7447 96.8315 71.2057 96.6689C70.6678 96.5054 71.7993 97.018 72.0115 97.0803ZM72.19 98.0235C72.7519 98.1645 70.6117 97.2365 71.0082 97.5087C71.0305 97.5242 72.1574 98.0152 72.19 98.0235ZM80.0523 70.3229C80.0733 70.329 80.104 70.2868 80.0831 70.2808C79.5764 70.1513 79.517 70.2289 80.0523 70.3229ZM72.3947 98.9705C72.6918 99.0808 72.3976 98.8509 72.028 98.7146C71.7311 98.6041 72.0258 98.8321 72.3947 98.9705ZM76.5514 87.6764C76.5753 87.6822 76.6061 87.6543 76.4726 87.6172C76.0426 87.4976 76.1504 87.579 76.5514 87.6764ZM71.798 100.179C71.9701 100.05 73.7251 100.856 73.4219 100.957C73.3675 100.974 72.927 100.582 72.7493 100.544C72.4267 100.474 73.4528 101.118 72.8387 100.888C72.7271 100.845 71.7849 100.184 71.7958 100.178C71.7965 100.178 71.7973 100.179 71.798 100.179ZM75.9023 90.7441C75.9235 90.749 75.9568 90.708 75.9364 90.7009C75.442 90.5308 75.3746 90.6132 75.9023 90.7441ZM78.0884 85.9784C78.1337 85.9884 78.2061 85.8913 78.166 85.8762C77.3598 85.5882 77.2112 85.7836 78.0884 85.9784ZM76.1381 94.2304C76.6265 94.4313 76.6675 94.5108 76.0228 94.3641C76.0715 94.3231 76.0918 94.273 76.1381 94.2304Z" fill="black"/>
<path d="M98.176 63.5837C98.5609 63.6339 98.8638 63.986 99.0349 64.3297C99.0923 64.4388 98.9025 64.6656 98.9313 64.7498C98.9849 64.9127 99.1652 64.8529 99.215 65.0392C99.2308 65.1022 98.9467 65.4707 98.9686 65.5277C99.0721 65.8261 99.35 65.8549 99.5067 66.0633C100.323 67.1182 101.253 67.895 102.193 68.7339C102.509 69.014 102.699 69.6298 103.152 69.7014C103.205 69.7093 103.398 69.3518 103.424 69.3286C103.823 68.976 103.342 69.6399 103.364 69.783C103.458 70.3526 103.785 70.6069 104.182 70.6771C104.35 70.7055 104.656 69.9446 104.542 70.409C104.535 70.4405 104.268 70.7806 104.278 70.8421C104.302 70.9806 104.497 71.0154 104.542 71.0848C104.626 71.2205 104.648 71.23 104.761 71.3092C104.915 71.4221 104.979 71.7196 105.2 71.7483C105.248 71.7532 105.443 71.3532 105.541 71.328C105.639 71.3028 105.771 71.434 105.765 71.5548C105.759 71.6755 105.546 71.9507 105.512 72.0231C105.218 72.6332 105.901 71.9703 105.937 71.9665C106.561 71.9103 106.619 72.5852 107.002 72.8402C107.297 73.0353 107.699 73.0962 107.963 73.3046C108.276 73.5538 108.415 73.9385 108.758 74.1243C108.793 74.1443 109.048 73.6898 109.093 73.7134C109.56 73.9623 109.963 74.3112 110.191 74.8996C110.214 74.959 109.897 75.2927 109.903 75.3743C109.953 75.8666 109.843 76.8906 111.15 75.3868C111.283 75.577 111.453 75.7973 111.379 76.2359C111.33 76.5183 110.941 76.8496 111.19 76.7679C111.246 76.75 111.463 76.371 111.528 76.3709C111.8 76.3709 111.912 76.6266 112.221 76.5738C112.284 76.5623 112.504 76.2405 112.555 76.1913C112.976 75.7953 112.565 76.6578 112.556 76.7354C112.491 77.3186 112.78 77.2831 112.992 77.4559C113.041 77.4961 113.293 77.0314 113.351 77.0551C113.651 77.184 113.886 77.4162 113.995 77.7891C114.018 77.873 113.699 78.1903 113.696 78.2485C113.687 78.5004 114.221 77.8489 114.222 78.0781C114.223 78.1255 113.979 78.4193 113.958 78.4559C113.626 79.0298 114.248 78.332 114.277 78.3288C114.664 78.2702 114.212 79.1496 114.503 79.2C114.539 79.2054 114.777 78.7801 114.859 78.8187C115.281 79.0143 115.628 79.3568 115.857 79.8057C116.043 80.0358 116.25 80.3272 116.394 80.7716C116.48 81.0802 116.05 81.0271 116.022 81.0706C115.761 81.3358 115.834 81.3757 116.004 81.4301C116.171 81.4777 116.424 81.5287 116.447 81.5843C116.626 82.045 116.351 82.4684 116.198 82.691C116.037 82.9358 115.989 83.1145 116.264 83.6385C115.75 84.0163 115.394 84.1755 115.041 84.3572C114.467 84.6293 113.988 85.079 113.02 84.8294C113.004 84.8259 112.773 84.4266 112.742 84.4215C112.363 84.3581 112.795 84.9316 113.122 85.7649C113.205 85.9735 112.5 85.172 112.445 85.1155C112.248 84.9036 111.908 84.3067 111.864 84.2693C111.513 83.9813 112.794 85.8522 112.654 85.9473C112.648 85.9472 112.432 85.5891 112.397 85.5629C112.287 85.4803 112.343 85.6426 112.225 85.549C111.954 85.3315 111.298 84.4456 111.53 85.0648C111.561 85.1445 112.317 86.1855 112.158 86.2219C112.094 86.2354 111.885 86.4094 111.774 86.3865C111.663 86.3633 111.466 85.995 111.451 85.9835C110.961 85.6596 110.894 85.4287 110.333 84.8326C109.774 84.2388 110.925 85.7858 111.017 85.9849C111.108 86.1834 110.719 85.9069 110.596 85.8026C110.472 85.6979 110.356 85.4571 110.276 85.4052C109.749 85.0698 110.761 86.236 110.882 86.5262C111.173 87.2116 110.215 86.1418 110.004 86.1248C109.947 86.1202 110.17 86.3602 110.157 86.4074C110.106 86.5907 109.764 86.2896 109.872 86.7208C109.89 86.7912 110.298 87.5607 109.846 87.1124C109.78 87.0478 109.593 86.7426 109.493 86.7183C109.344 86.6815 109.158 86.7264 109.148 86.8847C109.141 87.0016 109.57 87.412 109.382 87.3269C109.298 87.289 109.151 86.9684 109.01 86.92C108.87 86.8713 108.715 87.0113 108.661 87.0684C108.607 87.126 108.916 87.4501 108.929 87.4776C109.006 87.6363 109.021 87.897 109.011 87.9047C108.522 88.359 107.573 88.1617 107.226 88.7687C107.199 88.8158 107.524 89.1564 107.523 89.1673C107.513 89.4302 106.825 88.3795 106.464 88.136C107.085 88.859 106.919 88.7723 106.89 88.9317C106.877 89.009 107.138 89.2721 107.158 89.3047C107.449 89.7915 106.939 89.274 106.832 89.1705C106.438 88.7895 106.802 89.3244 106.538 89.0705C106.276 88.8189 106.003 88.3487 105.915 88.4307C106.109 88.7136 106.748 89.3407 106.772 89.5091C106.864 90.1442 105.933 90.017 105.678 90.1407C105.424 90.2628 105.399 90.3681 105.198 90.3785C104.835 90.3977 105.348 90.8289 105.413 91.1734C105.478 91.518 104.474 90.2345 104.225 89.9875C103.976 89.7407 104.191 90.0303 104.041 89.9062C103.891 89.7822 103.786 89.5579 103.683 89.5526C103.579 89.5475 103.835 90.1497 104.057 90.4418C104.527 91.0607 105.131 91.6123 104.797 91.5254C104.777 91.52 104.522 91.1748 104.461 91.1705C103.989 91.147 103.708 91.3689 103.261 91.3781C103.199 91.379 102.913 90.9962 102.873 90.9927C102.458 90.9558 103.068 91.4867 103.549 92.2537C102.782 91.3477 102.232 90.8659 102.065 91.0067C101.965 91.0909 102.329 91.4604 102.512 91.7875C102.567 91.886 102.26 91.6838 102.412 91.8755C102.906 92.5026 103.57 93.1043 103.167 92.9907C103.148 92.9848 102.878 92.6412 102.835 92.6444C102.557 92.6637 103.099 93.297 102.996 93.5286C102.916 93.7091 102.331 93.5573 102.121 93.6391C101.218 92.6569 101.279 93.0169 101.847 93.7447C101.723 93.8081 101.65 93.948 101.466 93.9451C101.404 93.9445 101.162 93.642 101.129 93.6154C100.617 93.1977 101.186 93.8915 101.188 93.937C101.192 94.4011 100.535 94.089 100.771 94.7786C100.78 94.8033 101.406 95.4868 100.881 95.0519C100.845 95.0217 100.627 94.6477 100.502 94.7218C100.379 94.7932 99.8347 94.6263 99.9902 95.0727C100.027 95.1806 100.463 95.8056 99.9855 95.4491C99.9209 95.4006 99.7464 95.1997 99.6303 95.1061C99.2602 94.8084 99.8865 95.5058 99.2811 94.9843C98.6758 94.4629 98.1506 94.1421 98.3897 94.6757C98.3962 94.6917 98.8806 95.2562 98.8279 95.2913C98.7447 95.3455 98.5308 95.3386 98.4584 95.4165C98.4239 95.4541 98.7704 95.7598 98.77 95.772C98.7104 96.1932 98.251 96.0699 97.8672 96.2018C97.7957 96.2257 98.1116 96.7993 97.6642 96.5448C97.1769 96.264 95.6699 94.5689 95.8207 95.1843C95.8815 95.43 97.8157 97.5582 96.5849 96.6907C96.5372 97.2695 95.6791 97.0663 95.7543 97.7601C95.7587 97.7897 96.3017 98.3827 96.2603 98.4118C96.1976 98.4538 95.8945 98.2304 95.8416 98.2518C95.6198 98.3279 95.7143 98.7029 95.5515 98.8143C95.542 98.821 95.5275 98.8202 95.5095 98.8143C95.4126 98.7815 95.1978 98.6012 95.134 98.6517C95.0593 98.711 95.4166 99.0806 95.1443 99.025C94.9372 98.9821 94.0717 98.3937 93.8999 98.4107C94.6885 99.0703 94.6168 99.1238 94.7246 99.4177C94.7457 99.4745 95.0405 99.6798 95.0646 99.7186C95.1682 99.882 94.9066 99.7323 95.0243 99.904C95.0525 99.9454 95.3202 100.173 95.3583 100.219C95.6917 100.626 94.9888 100.233 94.8674 100.164C94.4044 99.9017 94.721 100.234 94.5143 100.159C94.3194 100.088 94.2015 99.8569 94.0599 99.8205C94.0515 99.8184 94.0431 99.8169 94.0346 99.8162C93.7175 99.7894 93.6053 100.006 93.4693 100.138C93.4166 100.192 93.8036 100.461 93.8043 100.476C93.7909 100.672 93.3124 100.461 93.9557 101.143C92.0725 99.6296 94.0693 101.369 93.558 101.218C93.517 101.205 92.6479 100.465 92.5665 100.304C92.4855 100.143 92.8203 100.303 92.6857 100.06C92.6542 100.003 91.9336 99.2029 91.8955 99.1481C91.6017 98.715 92.8979 99.8239 92.9733 99.88C93.7881 100.484 93.0209 99.6104 92.9865 99.5285C92.8376 99.1656 93.0926 99.1869 93.0274 98.9351C93.0247 98.9246 93.0215 98.9137 93.0176 98.9023C92.9555 98.716 92.1127 97.9824 92.189 97.9457C92.4403 97.8252 93.6923 98.7587 92.8105 97.7066C92.622 97.4826 91.6515 96.7399 92.5037 97.2166C92.5569 97.2474 93.3208 97.7019 92.9394 97.2904C92.8912 97.2387 92.6152 97.0139 92.5999 96.9854C92.5023 96.7989 92.7574 96.9345 92.7078 96.7793C92.6812 96.6971 92.6426 96.5995 92.6354 96.5259C92.659 96.506 92.7094 96.4261 92.7338 96.4072C92.7381 96.3332 92.7678 96.2775 92.8503 96.2693C92.9564 96.2579 93.5196 96.6225 93.6655 96.7029C94.0888 96.9311 93.5809 96.3495 94.0439 96.682C94.506 97.0199 95.0671 97.6875 95.4439 97.82C94.7649 97.1924 94.0734 96.5421 93.3939 95.9071C93.6681 95.6556 94.1283 95.6025 94.336 95.3253C94.362 95.2894 93.9712 94.9789 93.9901 94.9312C94.0748 94.7282 94.4471 94.8526 94.4874 94.6084C94.517 94.4182 94.2689 93.919 94.2861 93.7123C95.1104 94.3829 95.0254 93.9576 95.2229 93.8961C95.2892 93.8768 95.4867 94.0789 95.5824 94.1135C95.9387 94.239 95.2229 93.6326 95.1506 93.4968C94.8447 92.9145 96.3518 94.4004 96.4785 94.2006C96.487 94.1893 95.795 93.2868 95.7604 93.2222C95.5296 92.806 96.0516 93.4864 96.1674 93.4891C96.3791 93.4941 96.6409 93.6144 96.5351 93.2553C96.5039 93.1488 96.0981 92.562 96.5477 92.8832C96.6066 92.9252 96.862 93.197 96.8846 93.2054C97.2718 93.3362 96.4582 92.4932 96.2596 92.1328C96.0613 91.7724 96.7467 92.2346 96.9326 92.3791C97.4145 92.7521 97.0633 92.6113 97.1002 92.6579C97.5488 93.2038 97.5536 93.0304 97.6591 93.0113C98.4664 93.8287 98.5093 93.6916 97.7666 92.987C97.6852 92.9102 97.7087 93.0364 97.6591 93.0113C96.9334 92.1452 96.9364 91.9418 97.779 92.5931C98.1738 92.8985 98.5216 93.3623 98.537 93.0561C98.5443 92.9175 97.9707 92.3716 97.8855 92.1548C97.6914 91.6598 98.3915 92.0126 98.4652 91.7831C98.4921 91.6996 98.1403 91.4363 98.1486 91.3682C98.1701 91.1863 98.4789 91.3419 98.4663 91.1254C98.4648 91.1054 98.1322 90.796 98.1598 90.7621C98.3637 90.4987 98.7723 90.5147 99.0277 90.2893C99.151 90.1801 99.2025 89.7926 99.3612 89.7154C99.636 89.5778 100.354 89.8155 100.431 89.5296C100.485 89.3431 100.154 89.031 99.9995 88.7541C99.7005 88.2173 100.6 88.851 100.735 88.9531C100.739 88.9566 100.704 89.1315 100.917 89.2537C101.273 89.585 100.735 88.9558 100.735 88.9531C100.823 89.018 101.102 88.906 101.087 88.8039C101.078 88.7482 100.779 88.4391 100.78 88.4161C100.809 87.8756 101.026 87.5378 101.449 87.4332C101.46 87.4352 101.769 87.8032 101.791 87.8035C102.1 87.8167 101.822 87.2795 101.733 86.8944C101.644 86.5093 101.833 86.5001 102.455 87.053C102.493 86.883 102.883 87.0286 103.114 87.122C103.345 87.2154 102.75 86.4941 102.746 86.4734C102.603 85.8168 103.091 86.105 103.396 85.9563C103.543 85.8867 103.694 85.5828 103.76 85.3954C103.81 85.2461 104.013 85.363 104.019 85.1756C104.021 85.1505 103.742 84.8404 103.736 84.8248C103.526 84.3518 104.123 85.1794 104.26 85.3014C104.761 85.7453 105.033 85.9773 104.972 85.6254C104.958 85.5449 104.122 84.335 104.126 84.2208C104.133 84.0748 104.436 84.5056 104.436 84.342C104.436 84.3284 104.23 84.0781 104.288 84.049C104.557 83.9106 104.923 83.8585 105.143 83.6418C105.174 83.6131 104.812 83.2444 104.851 83.1961C105.039 82.9696 105.295 82.7921 105.664 82.8098C105.756 82.8154 105.943 83.1262 106.02 83.2014C106.489 83.6562 106.015 82.8346 106.022 82.807C106.15 82.1381 106.982 82.5739 107.156 81.9408C107.164 81.905 106.748 80.9598 107.34 81.5976C107.38 81.6397 107.98 82.296 107.693 81.7571C107.675 81.7233 107.358 81.3914 107.472 81.3661C107.585 81.3406 107.544 80.9957 107.959 81.3138C108.089 81.4139 108.689 82.0688 108.396 81.4154C108.374 81.3711 107.638 79.9452 108.331 80.7992C108.444 80.9399 109.097 81.899 108.892 81.3172C108.853 81.204 108.657 81.025 108.635 80.8432C108.603 80.563 108.921 80.7215 108.764 80.2035C108.735 80.1123 108.396 79.391 108.81 79.8335C108.874 79.903 109.066 80.2406 109.132 80.2487C109.45 80.2864 109.525 79.9267 109.878 80.0189C110.002 80.0511 110.303 80.6022 110.468 80.6961C110.635 80.7881 110.876 80.8269 110.806 80.5339C110.736 80.24 110.119 79.4481 110.203 79.3022C110.56 78.6876 111.407 78.8177 112.044 78.612C112.042 78.6175 112.039 78.6228 112.035 78.6278C112.016 78.6529 111.87 78.3251 111.812 78.351C111.754 78.3788 111.66 78.4023 111.476 78.5208C111.297 78.6496 110.999 78.8412 110.597 79.5039C110.191 80.1037 109.805 81.6437 110.207 82.8065C110.578 83.9559 111.155 84.3528 111.498 84.4679C112.053 84.6001 112.129 84.2803 112.253 84.0991C112.354 83.8886 112.454 83.7433 112.656 83.7554C112.676 83.7555 112.686 83.7669 112.688 83.7878C112.535 83.8222 111.889 84.4832 111.85 84.4943C111.42 84.6268 111.597 84.1125 111.316 84.093C111.258 84.0892 111.006 84.4891 110.96 84.4819C110.801 84.4617 110.815 84.2067 110.686 84.156C110.628 84.1341 110.417 84.4251 110.391 84.3698C110.325 84.2407 110.325 84.0505 110.428 83.7048C110.437 83.6732 110.772 83.3667 110.704 83.2938C110.594 83.1778 110.638 82.794 110.285 82.9571C110.18 83.0066 109.684 83.6605 109.932 83.138C109.984 83.0288 110.602 82.2603 109.981 82.8588C109.877 82.9575 109.007 83.7409 109.362 83.0816C109.455 82.9081 109.878 82.2166 109.749 82.279C109.73 82.2899 109.495 82.6646 109.426 82.6669C109.188 82.6688 109.055 82.5119 108.816 82.507C108.751 82.5065 108.543 82.9197 108.456 82.9074C108.216 82.874 108.071 82.6233 107.986 82.3847C107.955 82.296 108.22 82.0218 108.24 81.9853C108.561 81.391 107.986 82.0898 107.931 82.1149C107.595 82.2606 107.729 81.8339 107.523 81.8242C107.467 81.8206 107.243 82.1897 107.213 82.2153C106.914 82.4627 107.425 81.8777 107.425 81.7722C107.425 81.4748 107.246 81.3896 107.071 81.3319C107.006 81.3113 106.775 81.7599 106.72 81.7368C106.391 81.6077 106.129 81.3638 106.013 80.9452C105.991 80.8657 106.245 80.574 106.285 80.4945C106.563 79.9393 105.972 80.5486 105.901 80.5966C105.578 80.8154 105.729 80.506 105.592 80.4876C104.917 80.402 104.434 79.7958 104.042 79.3615C103.528 78.7948 103.252 78.1692 102.608 77.8546C102.567 77.834 102.322 78.2853 102.283 78.2732C101.798 78.0988 101.493 77.6582 100.994 77.509C100.954 77.4961 100.738 77.9341 100.665 77.9271C100.51 77.9141 100.379 77.7975 100.349 77.5931C100.334 77.4942 100.636 77.1942 100.615 77.1017C100.568 76.8849 100.45 76.7671 100.269 76.743C100.192 76.734 100.011 77.2072 99.9325 77.1632C99.3938 76.8738 98.8514 76.6281 98.673 75.7549C98.6609 75.6951 99.1685 74.8235 98.9894 74.9389C98.8342 75.1717 98.6587 75.45 98.4964 75.7012C97.6618 75.3641 97.1052 74.6055 96.3775 74.0961C96.3465 74.0746 96.123 74.5639 96.0617 74.5246C95.7129 74.3018 95.2943 74.2205 95.1987 73.5436C95.1894 73.4775 95.6913 72.683 95.5125 72.7413C95.4803 72.7522 95.26 72.7663 95.1096 72.9141C95.0881 72.9371 94.8932 73.3314 94.8338 73.3109C94.4986 73.1884 94.2478 72.9238 94.0786 72.5153C94.054 72.45 94.3385 72.0753 94.323 72.0253C94.2078 71.6716 93.7663 71.8277 93.7687 71.3448C93.7756 71.023 94.2163 70.3439 94.5111 69.6005C94.548 69.493 94.4943 69.4452 94.6922 69.0275C95.1856 67.9746 95.8342 66.8758 96.3585 65.7525C96.4134 65.6308 96.3354 65.597 96.2779 65.5243C96.218 65.451 96.1925 65.3418 96.474 65.1148C96.4938 65.1 96.6023 65.0799 96.7107 65.038C96.8223 64.9977 96.8985 64.9157 96.9724 64.8308C97.0689 64.7107 97.2385 64.2687 97.3845 64.1267C97.5293 63.9843 97.4165 64.3711 97.5866 64.2048C97.7685 64.0418 97.9915 63.5537 98.176 63.5837ZM104.148 87.5399C104.519 87.8143 103.467 86.5492 103.634 86.9238C103.644 86.9434 104.13 87.5267 104.148 87.5399ZM95.0266 96.4598C95.6506 96.8556 94.9378 96.057 94.4649 95.7413C93.9927 95.4259 94.8353 96.3422 95.0266 96.4598ZM94.4005 97.94C94.416 97.9468 94.4297 97.9521 94.4414 97.9562C94.4493 97.9495 94.4661 97.9228 94.4743 97.9165C94.8691 98.0698 93.2399 96.6095 93.4688 97.0441C93.469 97.0444 93.4693 97.0449 93.4698 97.0454C93.4522 97.059 93.416 97.1164 93.3991 97.1307C93.4379 97.1726 94.3694 97.9264 94.4005 97.94ZM94.9931 69.6078C95.0021 69.5878 94.9445 69.531 94.9329 69.5493C94.642 69.9852 94.7543 70.0967 94.9931 69.6078ZM93.9773 99.3574C94.2495 99.5244 94.0633 99.1809 93.7246 98.9735C93.4527 98.8062 93.6391 99.149 93.9773 99.3574ZM109.52 85.4838C109.536 85.5025 109.597 85.4844 109.514 85.374C109.244 85.0184 109.252 85.1697 109.52 85.4838ZM92.4449 101.15C92.7426 100.948 94.3253 102.068 93.9073 102.211C93.8318 102.236 93.548 101.69 93.3595 101.641C93.016 101.55 93.8473 102.436 93.2537 102.127C93.1457 102.07 92.4253 101.158 92.4433 101.148C92.4439 101.148 92.4444 101.149 92.4449 101.15ZM105.473 89.0075C105.488 89.0227 105.565 88.9846 105.553 88.9669C105.25 88.5391 105.094 88.6161 105.473 89.0075ZM112.962 84.3334C112.991 84.3699 113.174 84.3062 113.157 84.267C112.792 83.4876 112.41 83.6203 112.962 84.3334ZM102.094 93.6152C102.385 94.062 102.349 94.1796 101.848 93.7449C101.937 93.71 102.006 93.6527 102.094 93.6152Z" fill="black"/>
<path d="M123.655 46.5425C121.529 46.5596 118.775 46.2465 116.675 45.9145C116.019 45.8114 116.364 45.5393 115.911 45.4548C115.568 45.3899 115.222 45.3654 114.868 45.3474C114.371 45.3224 113.823 45.3105 113.314 45.1997C113.027 45.1369 113.415 44.6967 113.112 44.6414C111.443 44.3409 109.844 44.3667 108.142 44.1698C99.777 43.2001 91.5412 42.5362 83.0573 41.7769C80.2594 41.5269 76.8831 40.882 73.9746 40.863C73.6352 40.8612 73.8085 41.2796 73.7419 41.3085C72.7006 41.7484 73.0922 40.9555 72.4394 40.8005C69.8547 40.1878 66.9558 39.937 64.4297 39.8961C63.3459 39.8789 64.3597 40.7665 63.3177 40.2306C63.2457 40.1943 63.5497 39.7866 63.2618 39.7177C62.79 39.6042 61.9578 39.5581 61.3714 39.5129C61.1489 39.4957 60.9566 39.4785 60.8191 39.4578C59.8351 39.3072 59.6614 39.2966 58.7268 39.2105C57.4344 39.0875 55.9365 38.7364 54.5455 38.7009C54.2516 38.6949 54.6 39.1717 54.1172 39.2006C53.6375 39.2301 52.3914 39.0688 51.992 38.9231C51.5779 38.7763 51.794 38.4497 51.7271 38.3629C51.1838 37.6335 49.6591 38.4059 49.4636 38.4072C46.0411 38.4293 43.209 37.5467 40.0548 37.116C37.6539 36.7912 35.0811 36.5797 32.858 36.2645C32.8507 36.2635 32.8433 36.2624 32.8359 36.2614C30.1967 35.8898 27.9672 35.4203 25.3984 35.3051C25.1288 35.2934 25.4146 35.8292 25.085 35.8165C23.746 35.7682 22.3768 35.7299 21.1947 35.7685C20.8375 35.7789 20.4636 35.8166 20.377 35.8287C20.3627 35.8282 20.3727 35.8264 20.4576 35.7876C20.5411 35.7416 20.7196 35.6844 21.0439 35.3627C21.378 35.0703 21.7008 34.2755 21.6751 33.874C21.6753 33.4632 21.614 33.3935 21.6361 33.4734C21.8739 34.7364 21.7721 35.2461 21.7749 35.9852C21.7542 36.666 21.7156 37.3544 21.6641 38.0224C21.6353 38.381 21.1712 37.9254 21.1151 38.2884C20.7826 40.5299 19.9019 44.0286 21.8903 45.3437C21.8532 46.1291 21.8149 46.9882 21.7299 47.8525C21.6521 48.6082 21.5352 49.3747 21.3448 50.0149C21.0884 50.895 20.5914 50.0424 20.804 51.1029C20.8513 51.3437 21.2857 51.0295 21.3238 51.392C21.4838 52.9032 21.342 54.5635 21.5654 56.0638C21.6119 56.3704 22.0014 56.2847 22.0714 56.371C22.6388 57.0902 21.6986 58.3052 21.6301 58.5651C21.1189 60.5686 21.3165 62.0408 21.3005 63.9033C21.2966 64.3385 21.8206 63.8248 21.8356 64.2441C21.9063 66.4066 21.8562 68.6469 21.6189 70.7644C21.5648 71.2357 21.1203 70.801 21.0717 71.0262C20.8627 72.019 21.7037 72.24 21.5194 73.1922C21.4816 73.3928 21.1005 73.2787 21.0585 73.3153C20.3994 73.8865 21.3298 74.3867 21.35 74.534C21.6261 76.4 20.6502 77.5867 20.7829 79.3897C20.7998 79.605 21.2838 79.1211 21.3017 79.726C21.4237 83.7628 21.2789 88.027 20.8833 92.0181C20.8224 92.6439 20.4609 92.1963 20.4161 92.2357C19.7163 92.877 20.651 93.2726 20.6858 93.4851C20.9358 95.0742 20.1482 96.5848 21.2609 97.6601C21.2401 98.0193 21.2222 98.3706 21.2067 98.7137C21.0191 104.422 21.2032 111.031 21.5345 115.535C21.5311 115.532 21.2309 115.331 21.1756 115.382C21.1235 115.411 21.2968 115.462 21.4895 115.474C21.5594 115.478 21.4864 115.95 21.6317 115.954C23.5944 115.875 23.1049 115.195 24.3025 114.083C24.6179 113.797 25.8641 114.663 25.9568 114.73C26.3379 114.961 26.0901 115.692 26.2111 115.729C27.1887 116.027 26.7308 113.795 28.0361 113.646C28.0775 113.646 27.9498 114.079 28.0641 114.109C28.4076 114.203 28.7328 114.005 29.0659 114.12C29.854 114.388 30.1703 115.465 31.264 114.765C31.4027 114.677 31.1118 113.396 32.2717 113.415C32.3958 113.418 32.6368 113.415 32.9416 113.411C33.7017 113.402 34.8735 113.385 35.267 113.438C35.8259 113.511 35.4506 113.933 35.4906 113.95C36.9835 114.472 36.437 114.709 37.1865 115.507C37.9464 116.303 37.712 114.379 38.0084 114.159C38.3068 113.939 39.4064 114.374 39.6779 114.527C39.9503 114.681 39.6173 114.949 39.859 115.034C41.4427 115.592 40.5365 114.067 41.0547 113.753C42.2658 113.011 43.2507 114.427 44.3714 114.551C44.6772 114.585 44.4236 114.263 44.6951 114.229C45.7612 114.098 46.4155 114.535 47.6284 114.109C47.8269 114.04 48.801 113.167 49.4481 113.789C49.5397 113.879 49.2877 114.239 49.7459 114.312C50.4288 114.423 51.6601 114.484 52.3919 114.355C52.9323 114.259 52.3035 113.681 52.9875 113.854C53.2914 113.931 52.7351 114.282 53.3056 114.398C53.8736 114.515 55.3218 114.48 55.8709 114.46C56.4205 114.44 56.1134 113.999 56.1572 113.968C56.4257 113.793 57.4734 113.563 57.5689 113.562C61.6985 113.452 65.5506 113.966 69.5227 113.843C70.0838 113.826 70.6302 113.796 71.181 113.751C71.5373 113.723 71.287 113.26 71.3412 113.251C72.5693 113.019 71.6206 114.295 72.5037 114.688C72.3513 113.739 72.8643 113.897 73.7215 113.765C74.1405 113.7 73.8987 113.339 73.9361 113.3C74.5286 112.72 74.983 113.427 75.1021 113.571C75.532 114.101 75.9556 113.441 76.242 113.794C76.5369 114.144 75.9144 114.705 76.7465 114.665C76.9632 114.315 76.3157 113.449 76.9364 113.279C79.2748 112.641 83.7457 113.097 85.6705 113.095C87.4513 113.089 88.1132 113.017 89.0989 113.075C89.1698 113.08 89.243 113.085 89.3191 113.091C91.3388 113.248 90.5805 112.611 91.8223 112.271C93.0725 111.932 92.5036 113.576 92.6948 113.921C92.8804 114.265 93.064 113.9 93.2918 114.086C93.5136 114.272 93.0509 114.523 93.563 114.581C94.0817 114.639 95.473 113.98 95.6453 113.61C96.0112 112.826 95.3608 112.028 96.7289 112.28C96.8081 112.295 96.5628 112.729 96.8657 112.765C99.2596 113.036 101.741 113.001 104.13 113.244C104.458 113.278 104.175 113.76 104.366 113.785C106.359 114.049 105.631 113.261 106.704 112.349C106.483 113.54 107.099 114.253 108.606 114.233C109.51 114.221 109.347 113.705 109.926 113.33C110.097 113.217 110.749 113.561 110.86 113.315C111.227 112.512 110.61 111.631 112.169 111.96C112.238 111.975 112.026 112.415 112.265 112.438C113.79 112.585 113.963 111.749 115.607 111.624C116.437 111.561 117.681 111.734 118.85 111.885C119.524 111.97 120.143 112.051 120.687 112.079C120.654 113.412 122.041 113.108 122.621 112.198C123.586 112.248 124.631 112.223 125.565 112.4C125.881 112.461 125.65 112.835 125.688 112.879C126.267 113.567 126.745 112.711 126.962 112.695C127.834 112.636 128.712 112.81 129.389 112.943C129.354 112.93 129.172 113.034 129.201 113.046C129.211 113.057 129.265 112.959 129.271 112.87C129.331 112.213 129.174 111.501 128.772 110.766C128.733 110.695 127.806 110.766 128.357 110.09C128.394 110.044 128.951 110.64 128.778 109.663C128.603 108.691 128.675 106.733 127.973 105.455C127.803 105.147 126.894 104.46 127.337 103.665C127.398 103.561 127.677 103.606 127.798 103.45C128.178 102.945 127.214 102.894 127.901 102.251C128.589 101.613 128.982 100.485 128.198 99.2097C128.176 99.1726 127.518 99.0102 127.352 98.6394C127.337 98.6054 127.326 98.5693 127.32 98.5313C127.218 97.8308 127.237 96.8168 127.15 96.089C127.107 95.7385 126.675 96.0144 126.659 95.9543C126.145 93.6079 126.44 91.8881 126.457 89.3466C126.461 88.8834 125.754 87.5834 126.2 86.6567C126.688 85.6404 129.003 86.5272 128.341 84.2922C128.075 83.3908 125.146 82.3866 126.539 80.6637C126.367 79.6672 126.307 78.688 126.281 77.7142C126.227 75.5957 126.398 73.536 126.076 71.3541C126.055 71.213 125.264 70.7405 125.287 70.3931C125.323 69.8901 125.711 69.6302 125.755 69.2703C125.949 67.7779 125.77 66.3768 125.986 64.9389C126.067 64.3942 126.429 64.6298 126.527 63.9808C126.623 63.3307 126.168 62.8413 126.504 61.9838C126.739 61.3885 127.69 60.854 127.987 60.0671C127.988 60.0538 127.989 60.0139 127.99 60.0005C128.012 59.9306 128.029 59.8594 128.04 59.787C127.013 59.7281 127.048 59.1093 126.799 58.0259C126.751 57.8116 126.388 58.0327 126.347 57.931C126.171 57.5176 126.475 57.153 126.282 56.7762C126.235 56.6841 125.884 56.6753 125.827 56.5968C125.324 55.913 126.133 54.9037 126.274 54.7037C126.81 54.0045 126.359 53.6916 126.575 53.1422C126.79 52.6093 127.033 53.4144 127.169 52.7927C127.45 51.495 127.421 49.8273 127.455 48.507C127.466 47.9793 126.993 48.3331 126.984 48.2573C126.88 47.1627 127.389 46.0859 126.46 45.4618C128.879 44.7263 126.234 44.7942 126.72 43.2593C126.759 43.1277 127.9 42.9828 128.068 43.4465C128.235 43.9365 127.875 44.6218 128.131 45.2968C128.191 45.4368 129.253 46.3526 129.316 46.466C129.812 47.4375 128.104 47.5314 128.01 47.5868C126.992 48.1451 128.129 49.2412 128.204 49.5265C128.55 50.832 128.29 51.9577 128.531 53.0385C128.687 53.7641 129.802 53.8513 129.758 54.4065C129.609 56.276 128.037 56.8811 129.352 58.6752C129.632 59.0569 130.858 58.6932 129.877 60.0411C129.875 60.0747 129.872 60.1753 129.868 60.2087C129.867 60.2108 129.865 60.2128 129.864 60.2149C129.797 60.3075 128.839 61.2621 129.331 61.9072C129.394 61.9891 129.748 62.022 129.768 62.1238C129.893 62.8061 129.563 63.2141 129.617 63.9337C129.671 64.654 129.772 65.5058 129.57 66.2578C129.448 66.7108 128.731 67.2335 128.549 67.4398C128.026 68.0241 128.743 68.7454 128.155 69.0926C127.565 69.4534 126.744 68.6202 126.321 69.6535C127.242 69.737 128.186 69.8687 129.113 69.9698C128.982 72.1554 128.724 74.3621 128.881 76.6415C128.902 76.9246 129.383 76.6107 129.418 76.9074C129.442 77.1127 129.455 77.318 129.461 77.5246C129.493 78.5923 129.322 79.5972 129.503 80.7308C129.673 81.7806 130.262 82.9083 130.454 84.0006C129.434 84.7315 129.882 86.344 129.854 87.5269C129.845 87.9398 129.562 87.9324 129.487 88.23C129.213 89.3587 130.116 88.7807 130.281 89.0742C130.99 90.3305 128.883 90.5774 129.047 92.103C129.055 92.1824 130.257 93.0783 130.339 93.2012C130.869 94.0098 129.96 93.3776 129.924 93.9136C129.862 94.8965 129.661 95.6016 130.132 96.6651C130.255 96.9365 130.891 97.474 130.749 98.0459C130.731 98.1344 130.699 98.2239 130.649 98.3138C130.594 98.4123 130.218 98.4293 130.209 98.5023C130.07 99.8084 131.231 99.6314 131.751 100.268C132.272 100.904 131.684 102.13 131.501 102.404C131.023 103.104 131.16 102.002 131.097 101.989C130.335 101.752 130.607 102.53 130.669 103.145C129.56 103.462 129.799 104.3 130.739 103.787C130.841 103.726 130.643 103.284 130.669 103.145C131.881 103.463 132.207 104.349 131.397 105.603C131.017 106.189 130.354 105.852 130.88 107.281C131.119 107.928 131.835 107.498 132.176 108.05C132.87 109.239 132.806 110.997 132.706 113.119C132.688 113.384 132.648 113.638 132.585 113.896C132.37 114.655 132.373 114.758 132.528 114.749C132.649 114.752 132.885 114.649 132.492 115.314C132.001 116.294 130.09 117.249 128.881 116.958C127.99 116.795 127.626 116.572 126.979 116.629C126.905 116.637 127.035 117.106 126.784 117.086C124.849 116.956 122.925 116.648 120.657 116.639C120.178 116.638 119.572 116.686 118.907 116.741C118.011 116.816 117.069 116.899 116.397 116.88C114.378 116.824 111.891 116.205 110.167 116.396C109.047 116.519 109.3 116.968 108.825 117.285C107.907 117.901 106.242 116.86 106.017 116.699C106.01 116.693 106.976 116.567 106.455 116.345C106.144 115.866 106.028 116.696 106.017 116.699C105.87 116.594 103.935 116.53 103.554 116.625C103.347 116.676 103.472 117.103 103.364 117.122C100.789 117.56 98.2061 117.728 95.5856 117.594C95.5395 117.587 95.5963 117.105 95.488 117.093C93.9693 116.918 93.0138 117.533 91.7794 117.918C90.7795 118.23 89.9388 118.235 89.2593 117.802C89.0929 117.7 88.9376 117.574 88.7922 117.421C87.8597 117.557 86.5055 117.245 85.7209 117.057C84.9405 116.869 84.8714 117.809 84.8068 117.831C82.7123 118.518 81.4608 118.052 79.218 118.075C78.1556 118.085 76.04 118.308 74.8932 118.449C73.984 118.563 73.4243 118.361 72.5935 118.526C72.48 118.548 72.6075 118.961 72.5731 118.978C71.6459 119.503 72.0729 118.472 71.8736 118.296C71.1607 117.672 70.7443 117.332 69.6141 117.629C69.5847 117.637 69.5547 117.645 69.5241 117.654C69.2579 117.732 68.4805 119.216 67.9798 119.313C67.3194 119.435 67.5687 118.905 66.881 119.046C66.8243 119.058 66.8334 119.382 66.4186 119.376C64.4591 119.352 62.3192 119.2 60.289 119.264C60.0107 119.272 60.376 119.78 59.9733 119.799C58.0899 119.89 56.0318 119.9 54.196 119.685C53.7443 119.631 54.0219 119.267 53.9226 119.161C53.3121 118.523 52.4744 119.474 52.3337 119.494C48.9885 119.992 46.4112 119.175 43.0049 119.628C42.8197 119.654 41.4088 120.682 40.7551 119.828C40.7082 119.771 40.0727 118.897 39.5181 119.509C39.4846 119.548 39.8825 119.997 39.1989 119.961C38.5115 119.925 37.415 120.247 36.4656 119.763C36.1657 119.611 35.4443 118.742 34.5711 119.461C34.5264 119.501 33.6807 120.511 33.0924 120.409C32.9374 120.382 32.8006 120.273 32.6972 120.043C32.6162 119.866 32.6696 118.697 31.6861 119.334C31.5039 119.458 31.857 119.699 31.3706 119.885C30.6356 120.171 29.6133 119.934 28.7604 120.546C28.6023 120.654 28.0515 121.509 27.4448 120.992C27.3502 120.91 27.4508 120.505 27.1693 120.501C25.7308 120.491 24.6826 121.015 22.6474 121.113C22.2358 121.13 22.0669 120.962 21.9211 120.787C21.7552 120.603 21.6851 120.448 20.9159 120.339C20.5467 120.272 19.9813 120.207 19.159 119.792C18.3305 119.391 17.5698 118.517 17.2788 117.913C16.6856 116.684 16.6495 116.093 16.3891 115.69C15.9776 114.988 15.1165 115.952 14.8759 114.853C14.0237 110.404 14.6319 106.681 14.6584 102.735C14.6667 102.152 14.3128 102.644 14.3006 101.79C14.288 100.897 14.2535 99.8559 14.23 98.7042C14.1698 95.8528 14.1583 92.5309 14.7087 90.5965C15.322 88.4441 15.7778 91.1499 16.0294 89.5101C16.1494 88.7089 14.9913 87.8529 14.9553 87.6585C14.5893 85.7821 15.1069 84.4757 14.9539 82.7897C14.9221 82.4407 14.4509 82.7818 14.4291 82.4844C14.3503 81.4692 14.5632 80.4022 14.5275 79.4374C14.5104 79.0029 14.151 79.082 14.1798 78.6814C14.2446 77.7264 14.3979 76.878 14.7371 75.9485C14.768 75.8636 15.2133 76.4377 15.2318 75.7302C15.2606 74.5839 15.5964 73.164 15.2568 71.8453C15.1546 71.4545 14.3337 71.437 14.9027 70.5975C15.0216 70.4217 16.0068 70.648 15.1574 69.6688C15.0163 69.5015 13.8713 67.8595 14.6137 67.0502C14.809 66.8367 15.6169 66.2999 15.4911 65.8268C15.471 65.7628 15.0295 66.0181 14.9873 65.6272C14.8463 64.2558 14.8961 62.8179 14.7604 61.4054C14.7232 61.031 14.266 61.5873 14.2252 61.0302C14.1124 59.4821 14.231 57.5546 14.3749 56.0525C14.4288 55.4906 14.8066 55.8792 14.8477 55.8383C15.5173 55.1821 14.6143 54.8062 14.5617 54.5901C14.247 53.2338 14.6711 52.2326 14.558 50.9818C14.5279 50.6423 14.0975 50.8833 14.059 50.8158C13.6833 50.119 14.4571 50.6459 14.5419 50.1922C14.6849 49.4431 14.7295 48.6391 14.7296 47.8687C14.7296 47.3114 14.7093 46.817 14.6852 46.2858C14.6627 45.8224 14.1653 46.3432 14.1509 45.9306C14.0551 43.4682 14.0884 40.9225 14.3236 38.5532C14.3683 38.1028 14.7578 38.379 14.8439 38.2842C15.4472 37.6331 14.5848 36.7281 14.4977 36.5349C14.3 36.0707 14.2798 35.7592 14.2955 35.4953C14.3188 35.2596 14.3352 34.9331 14.3617 35.2635C14.3599 35.2579 14.3577 35.2508 14.3552 35.2424C14.323 35.0901 14.1546 34.6833 14.1485 33.6926C14.0965 32.7278 14.6952 31.0104 15.5265 30.1927C17.1842 28.5835 17.9096 28.6844 18.4829 28.4488C19.5728 28.1663 20.144 28.1389 20.7689 28.0817C25.2549 27.8256 29.2215 28.4637 32.6179 28.9638C33.0053 29.0238 33.3855 29.0857 33.7625 29.1493C38.6077 29.9957 42.2643 30.876 46.8975 31.3268C47.2133 31.3585 46.9549 30.813 47.2288 30.8338C50.7391 31.1217 54.1926 31.6714 57.7401 31.8441C58.0268 31.8587 57.6578 31.3386 58.1207 31.3458C59.081 31.3582 60.3011 31.4903 61.2417 31.7244C61.7083 31.8383 61.0385 32.1998 61.5103 32.3061C61.6574 32.3392 61.8069 32.3704 61.9587 32.3995C62.914 32.5859 63.9412 32.6853 64.9403 32.6959C65.4287 32.6998 64.7396 32.1486 65.3644 32.1916C69.6648 32.4763 73.8972 32.6894 78.2121 33.6239C78.5074 33.688 78.7059 34.7116 79.3519 34.561C79.4183 34.285 79.4376 33.9566 79.4784 33.6597C85.7702 33.9173 91.9665 34.6518 98.2773 35.0841C98.5425 35.1021 98.1161 34.5416 98.6293 34.5738C101.603 34.7596 104.515 34.7824 107.532 35.4893C107.833 35.5587 107.628 36.4879 108.52 36.3973C108.678 36.3805 110.03 36.3332 110.39 36.1497C110.44 36.1217 110.217 35.6696 110.656 35.6821C112.215 35.7308 113.814 35.8454 115.405 36.0242C116.404 36.1353 117.335 36.2668 118.306 36.425C118.701 36.492 118.252 36.9338 118.531 36.9854C120.58 37.3525 122.816 37.1269 124.754 37.6675C126.064 38.0324 125.51 38.8077 126.167 39.6442C126.26 39.762 127.076 39.8319 127.089 40.2967C127.116 41.4636 126.645 42.7079 126.719 43.9547C126.722 44.0887 127.012 44.1025 127.159 44.1566C127.197 44.1702 127.224 44.1864 127.204 44.2039C127.195 44.2124 127.165 44.2212 127.083 44.2211C127.005 44.2133 126.979 44.2218 126.758 44.1699C126.614 44.131 126.406 44.0712 126.114 43.9122C126.176 43.9423 125.268 43.5152 124.847 42.5032C124.377 41.4366 124.721 40.367 124.93 39.9936C125.153 39.5731 125.279 39.4612 125.342 39.3784C125.405 39.3035 125.419 39.2882 125.424 39.2789C125.426 39.2703 125.432 39.2581 125.406 39.2781C125.388 39.2942 125.354 39.321 125.245 39.4487C125.146 39.5902 124.907 39.7835 124.669 40.5529C124.368 41.2706 124.735 42.8956 125.415 43.453C125.71 43.7592 126.032 43.9392 126.042 43.9473C126.121 43.9955 126.196 44.036 126.266 44.0706C126.538 44.206 126.75 44.2646 126.835 44.2921C126.898 44.3136 126.952 44.3309 126.998 44.3455C127.102 44.3765 127.106 44.3886 127.14 44.4072C127.224 44.4721 127.176 44.532 127.113 44.6083C127.1 44.6488 126.317 44.8114 126.11 45.0181C125.965 45.1606 126.172 45.6447 125.896 45.8214C125.61 45.9974 125.334 45.5856 124.869 45.7853C124.398 45.9877 124.566 46.5334 123.655 46.5425ZM82.1853 116.232C81.442 115.82 81.4177 117.468 82.1778 117.036C82.2143 117.013 82.2234 116.253 82.1853 116.232ZM127.51 74.3961C126.81 75.3446 127.906 75.935 128.44 75.269C128.975 74.6009 127.724 74.1109 127.51 74.3961ZM127.454 64.8081C126.761 65.8362 129.061 66.2609 128.724 65.0505C128.705 64.9798 127.495 64.748 127.454 64.8081ZM122.923 39.6761C122.922 39.6979 123.521 39.7546 123.528 39.7334C123.87 39.2302 122.704 39.119 122.923 39.6761ZM127.47 54.9845C127.148 55.3244 127.492 56.3121 127.893 55.8945C128.215 55.5603 127.87 54.5592 127.47 54.9845ZM44.413 115.354C44.401 115.329 43.9813 115.313 43.9919 115.452C44.026 115.898 44.6088 115.763 44.413 115.354ZM127.355 38.3733C127.373 38.512 127.385 38.6492 127.391 38.7838C127.374 41.1373 125.593 42.1724 125.734 39.8024C125.747 39.3403 126.397 40.753 126.543 40.164C126.655 39.6864 126.489 39.3072 126.271 38.9751C125.969 38.4755 125.637 37.9825 125.906 37.2687C125.99 37.048 127.339 38.2401 127.358 38.3771C127.357 38.3759 127.356 38.3746 127.355 38.3733ZM81.6718 114.28C81.6567 114.259 81.0762 114.267 81.0636 114.289C80.7761 114.826 81.9445 114.81 81.6718 114.28ZM20.9603 115.841C20.9748 115.822 20.9024 115.638 20.8391 115.343C20.7735 115.052 20.7217 114.737 20.6957 114.714C19.9158 114.263 20.0224 116.022 20.6067 116.053C20.7189 116.058 20.8189 115.981 20.9357 115.87C20.9439 115.86 20.9521 115.851 20.9603 115.841ZM120.71 112.115C121.349 111.588 122.114 111.531 122.618 112.197C121.977 112.154 121.351 112.146 120.71 112.115Z" fill="black"/>
</svg>
