<svg width="150" height="150" viewBox="0 0 150 150" fill="none" xmlns="http://www.w3.org/2000/svg">
<path d="M53.9706 31.6512C53.0899 32.0344 51.6843 32.3766 50.563 32.6162C50.2124 32.6912 50.2613 32.355 50.0135 32.3964C49.5238 32.4811 49.1625 32.7976 48.6688 32.8758C48.5013 32.9021 48.4933 32.3972 48.3206 32.4353C47.383 32.6446 46.6325 33.1465 45.7333 33.5042C44.5575 33.972 43.394 34.4988 42.2483 35.0676C39.3617 36.472 36.7703 38.597 34.374 41.1397C33.2944 42.2759 31.7721 43.5651 30.9219 45.0525C30.8235 45.2249 31.2206 45.3681 31.2255 45.4181C31.2931 46.1968 30.7443 45.5596 30.4293 45.811C30.4176 45.8204 30.4059 45.8298 30.3942 45.8392C29.2425 46.7163 28.4161 48.0773 28.0009 49.3655C27.8253 49.9197 28.7952 49.7197 28.1519 50.0624C28.1079 50.0876 27.7704 49.7824 27.6654 49.9107C27.4259 50.2022 27.2463 50.8741 27.1199 51.1286C26.8721 51.6187 26.8473 51.7077 26.6845 52.2006C26.4608 52.8723 26.0292 53.6435 25.9493 54.4248C25.9338 54.591 26.4122 54.4777 26.4276 54.7488C26.4418 55.0186 26.2653 55.6876 26.1204 55.9004C25.9742 56.1125 25.6521 55.9505 25.5661 55.9771C24.8397 56.1996 25.6199 57.1756 25.6287 57.279C25.722 59.2326 25.0353 60.8393 24.8835 62.7078C24.7743 64.083 24.8396 65.5763 24.7323 66.9201C24.7292 66.9592 24.7259 66.998 24.7225 67.0367C24.5821 68.634 24.2738 69.981 24.2635 71.5403C24.2621 71.7041 24.7867 71.5292 24.7862 71.7284C24.7813 73.8563 24.7174 75.9471 24.4291 78.0684C24.3999 78.2814 23.9363 78.0202 23.8801 78.2365C23.5394 79.5426 22.7686 81.6973 24.8128 82.3018C24.8042 83.1758 24.8295 84.2255 24.5283 85.0443C24.3354 85.5741 23.7813 85.1569 24.0713 85.7396C24.1368 85.8719 24.5429 85.6333 24.6089 85.8365C24.885 86.6793 24.8998 87.6375 25.2912 88.4093C25.3709 88.5613 25.7428 88.437 25.8212 88.4683C26.3117 88.6701 25.9689 89.2017 25.7787 89.5065C25.7239 89.6045 25.6811 89.6805 25.6751 89.7174C25.4869 90.9429 25.9396 91.6872 26.2949 92.6704C26.3783 92.8986 26.7655 92.4459 26.8625 92.6551C27.3615 93.7442 27.8288 94.867 28.1841 96.0024C28.2633 96.2569 27.7569 96.2603 27.7757 96.3942C27.8699 96.9871 28.6591 96.6689 28.7752 97.2112C28.8018 97.3259 28.4441 97.4722 28.4191 97.5116C28.0309 98.1357 28.9739 97.8775 29.0339 97.9319C29.6469 98.478 29.5563 99.2424 29.8199 99.921C29.8949 100.121 30.0107 100.32 30.1842 100.487C30.2731 100.571 30.4824 100.059 30.7083 100.311C32.227 101.992 33.8681 103.838 35.3213 105.723C35.5466 106.014 35.1101 106.103 35.0962 106.151C34.8965 106.919 35.7152 106.4 35.8244 106.452C36.6887 106.898 36.8326 108.071 38.049 107.651C40.8151 110.561 44.342 112.52 46.9616 115.684C46.9957 115.723 46.6496 116.04 46.719 116.118C47.5337 117.026 47.7766 116.365 48.8693 116.11C48.8959 116.103 48.923 116.097 48.9505 116.09C49.232 116.023 49.1127 117.228 49.1173 117.323C49.1175 117.669 48.5654 118.123 48.5886 118.205C48.8108 118.877 49.9868 116.94 50.576 117.313C50.5929 117.328 50.2921 117.632 50.3208 117.699C50.4101 117.908 50.6543 117.864 50.7365 118.081C50.9205 118.577 50.5134 119.618 51.4023 119.375C51.5144 119.34 52.0213 118.158 52.5447 118.501C52.7524 118.643 53.7575 119.104 54.0113 119.301C54.2625 119.503 53.9009 119.796 53.9135 119.821C54.4841 120.664 54.0997 120.744 54.2057 121.665C54.3301 122.584 54.917 120.742 55.1583 120.605C55.3987 120.469 55.8351 121.111 55.9344 121.311C56.0317 121.512 55.7574 121.695 55.8621 121.826C56.5686 122.682 56.5598 121.053 56.9425 120.858C57.8324 120.387 57.9408 121.912 58.5511 122.229C58.7155 122.315 58.6609 121.961 58.8222 121.975C59.4625 122.03 59.7176 122.558 60.5186 122.334C60.6511 122.299 61.4098 121.597 61.6351 122.296C61.6667 122.396 61.4387 122.71 61.6843 122.848C62.0565 123.056 62.7507 123.288 63.2062 123.261C63.2338 123.26 63.2574 123.254 63.2779 123.245C63.5035 123.14 63.3297 122.613 63.6543 122.851C63.8122 122.965 63.4205 123.237 63.7255 123.425C64.0273 123.614 64.8775 123.749 65.2006 123.786C65.5253 123.824 65.416 123.356 65.4468 123.331C65.6302 123.187 66.2636 123.059 66.3181 123.066C69.0073 123.365 71.5394 124.192 74.2338 123.801C74.4431 123.77 74.2763 123.309 74.308 123.299C75.0101 123.06 74.5218 124.341 75.0622 124.724C74.9225 123.778 75.2305 123.932 75.7336 123.783C75.974 123.711 75.8076 123.355 75.8267 123.316C76.1308 122.726 76.4532 123.42 76.5339 123.56C76.8307 124.077 77.0232 123.408 77.2282 123.751C77.4354 124.09 77.1166 124.668 77.6108 124.601C77.7056 124.246 77.2383 123.406 77.5859 123.217C78.894 122.519 81.5561 122.745 82.6848 122.556C83.8036 122.381 84.138 122.229 84.8106 122.187C86.0207 122.104 85.4322 121.572 86.0602 121.089C86.6891 120.601 86.7814 122.263 86.9791 122.571C87.1773 122.879 87.1921 122.501 87.3703 122.65C87.5453 122.797 87.3483 123.096 87.6414 123.091C87.6464 123.091 87.6516 123.091 87.6568 123.091C87.9874 123.075 88.624 122.224 88.6081 121.841C88.5821 121.033 87.9776 120.382 88.8084 120.398C88.857 120.399 88.8585 120.852 89.038 120.835C90.4624 120.683 91.8186 120.128 93.2141 119.762C93.4075 119.712 93.4621 120.216 93.5779 120.191C94.7845 119.92 94.0407 119.395 94.1805 118.311C94.6153 119.423 95.2819 119.898 96.0871 119.446C96.5677 119.174 96.2247 118.773 96.3402 118.281C96.3727 118.134 96.8874 118.239 96.8194 117.994C96.5978 117.195 95.8315 116.624 96.7889 116.445C96.8319 116.438 96.9555 116.876 97.0872 116.824C97.9406 116.488 97.5788 115.729 98.3271 115.111C98.914 114.626 100.323 114.273 101.101 113.838C101.293 114.126 101.47 114.29 101.622 114.36C102.056 114.559 102.288 113.976 102.089 113.28C102.566 112.986 103.019 112.585 103.526 112.356C103.7 112.276 103.839 112.657 103.883 112.676C104.574 112.97 104.217 112.111 104.288 112.009C105.098 110.929 106.358 110.741 106.84 109.402C106.857 109.353 106.28 108.626 106.983 108.896C107.031 108.914 107.016 109.506 107.469 109.127C107.92 108.751 109.075 108.319 109.343 107.426C109.41 107.21 109.212 106.331 109.914 106.442C110.009 106.458 110.162 106.683 110.323 106.728C110.841 106.865 110.249 106.127 111.034 106.449C111.755 106.743 112.547 106.71 112.791 105.931C112.813 105.86 112.83 105.784 112.843 105.701C112.849 105.669 112.423 105.03 112.605 104.839C112.896 104.534 113.401 104.179 113.68 103.836C113.813 103.672 113.372 103.482 113.389 103.448C114.088 102.199 115.028 101.672 116.085 100.565C116.281 100.361 116.247 99.3501 116.963 99.2052C117.749 99.0409 119.238 100.859 119.599 99.4077C119.749 98.8148 117.766 96.6338 119.546 96.6381C120.293 94.8381 121.879 93.7225 122.393 91.7855C122.417 91.6974 121.858 91.064 121.968 90.8931C122.131 90.6418 122.538 90.6827 122.665 90.507C122.812 90.3084 122.93 90.0932 123.028 89.8782C123.247 89.2816 123.347 88.6707 123.634 88.1083C123.784 87.8124 124.092 88.0758 124.269 87.7251C124.448 87.3657 124.081 86.9308 124.517 86.5356C124.845 86.2411 125.964 86.2703 126.282 85.8115C125.337 85.4062 125.499 85.07 125.486 84.3629C125.482 84.2271 125.1 84.2214 125.081 84.1506C124.995 83.8651 125.354 83.7583 125.246 83.4775C125.22 83.4094 124.893 83.2829 124.853 83.221C124.505 82.6799 125.455 82.3713 125.622 82.3104C126.253 82.0886 125.883 81.7541 126.176 81.5183C126.471 81.2742 126.568 81.8135 126.802 81.4912C127.288 80.8243 127.509 79.8135 127.684 79.024C127.752 78.7083 127.249 78.8335 127.248 78.786C127.259 78.1331 127.838 77.5235 126.944 77.0729C129.388 76.846 126.757 76.6648 127.28 75.7918C127.285 75.7828 127.308 75.7742 127.345 75.7665C127.528 75.7259 128.048 75.722 128.37 75.8188L128.371 75.8061C128.492 75.8415 128.585 75.8929 128.622 75.9644C128.777 76.2671 128.396 76.6896 128.616 77.1238C128.671 77.2197 129.667 77.9205 129.717 78.0193C130.127 78.7422 128.421 78.5447 128.326 78.5574C127.273 78.7256 128.263 79.5987 128.293 79.805C128.453 80.7049 128.023 81.3096 128.062 82.0387C128.085 82.5137 129.126 82.9198 128.978 83.2442C128.473 84.3414 126.877 84.1453 127.737 85.6475C127.92 85.9663 129.138 86.2151 127.933 86.6287C127.856 86.6583 126.812 86.885 127.183 87.4335C127.229 87.5033 127.558 87.6389 127.563 87.7044C127.589 88.1389 127.221 88.278 127.177 88.7216C127.128 89.1755 127.105 89.7304 126.799 90.1219C126.613 90.3625 125.852 90.4367 125.648 90.4947C125.388 90.5682 125.345 90.748 125.323 90.9266C125.306 90.9603 125.258 91.0632 125.238 91.0955C125.195 91.3147 125.186 91.5344 124.843 91.5016C124.225 91.4394 123.706 90.5985 123.07 90.9793C123.864 91.4542 124.663 91.9697 125.453 92.4617C124.71 93.7093 123.726 94.7769 122.993 96.0262C122.902 96.1821 123.421 96.2896 123.334 96.4643C122.965 97.1993 122.281 97.606 121.932 98.3889C121.663 98.9956 121.693 99.8888 121.406 100.534C120.297 100.277 120.005 101.311 119.487 101.853C119.307 102.043 119.089 101.862 118.906 101.955C118.219 102.308 119.162 102.606 119.165 102.847C119.169 103.886 117.444 102.66 116.9 103.442C116.873 103.481 117.371 104.67 117.369 104.783C117.382 105.499 117.006 104.609 116.727 104.823C116.214 105.214 115.734 105.374 115.513 106.147C115.451 106.372 115.647 107.225 114.96 107.183C114.871 107.177 114.61 106.909 114.565 106.928C114.386 107.008 114.291 107.109 114.25 107.224C114.109 107.625 114.626 108.21 114.616 108.681C114.601 109.29 113.521 109.266 113.253 109.21C112.557 109.072 113.262 108.824 113.232 108.769C112.876 108.116 112.619 108.573 112.308 108.815C111.434 108.068 111.115 108.502 111.989 109.068C112.085 109.129 112.217 108.836 112.308 108.815C112.895 109.836 112.566 110.389 111.348 110.122C110.777 109.994 110.581 109.383 110.063 110.188C109.825 110.553 110.494 111.006 110.368 111.426C110.075 112.39 108.731 112.617 108.129 113.288C107.908 113.534 108.433 113.654 108.29 113.834C107.91 114.313 107.296 114.4 106.932 114.905C106.899 114.952 107.288 115.221 107.144 115.344C106.097 116.243 104.968 116.747 103.792 117.523C103.75 117.551 103.707 117.58 103.664 117.609C103.114 117.982 102.247 118.884 101.619 119.245C100.534 119.877 98.8656 120.166 98.0114 120.859C97.4513 121.31 97.8129 121.621 97.6987 122.045C97.4718 122.87 96.0056 122.444 95.8066 122.358C95.8018 122.356 96.2982 121.969 95.8969 121.92C95.5004 121.582 95.8124 122.353 95.8066 122.358C95.6759 122.311 94.5184 122.784 94.3314 122.965C94.2301 123.066 94.484 123.42 94.4269 123.466C93.0665 124.543 91.4771 125.308 89.7449 125.658C89.713 125.66 89.6085 125.188 89.5362 125.197C89.0524 125.246 88.7006 125.434 88.3799 125.681C88.06 125.943 87.7793 126.28 87.4263 126.566C86.7596 127.11 86.1172 127.154 85.461 126.467C84.9119 126.712 83.9924 126.552 83.4668 126.44C82.9438 126.327 83.0693 127.255 83.0298 127.283C81.8085 128.14 80.9201 127.759 79.5071 127.89C78.8325 127.953 77.514 128.256 76.7891 128.426C76.2152 128.565 75.8426 128.376 75.3191 128.554C75.2476 128.578 75.3504 128.988 75.3293 129.006C74.7539 129.544 74.9803 128.508 74.8446 128.335C74.3584 127.701 74.0731 127.366 73.3291 127.703C73.1589 127.78 72.679 129.259 72.3433 129.348C71.9119 129.46 72.0745 128.934 71.6275 129.061C71.5891 129.071 71.5966 129.396 71.3173 129.38C70.0256 129.307 68.6304 129.05 67.2932 128.955C67.1109 128.941 67.2965 129.475 67.0297 129.462C65.7726 129.401 64.396 129.186 63.2349 128.725C62.9508 128.611 63.2026 128.291 63.1586 128.174C62.9619 127.652 62.5161 127.957 62.249 128.148C62.1592 128.217 62.0925 128.273 62.069 128.272C59.9156 128.273 58.5337 127.081 56.2808 126.836C56.165 126.828 54.9405 127.503 54.8031 126.543C54.7902 126.479 54.6832 125.51 54.1315 125.955C54.0962 125.982 54.1949 126.501 53.7725 126.3C53.3532 126.1 52.5273 126.109 52.1208 125.395C51.9879 125.169 51.9103 124.179 51.069 124.564C51.0235 124.6 49.4518 125.61 49.6381 124.469C49.6704 124.282 50.2526 123.283 49.3391 123.47C49.1619 123.505 49.2623 123.854 48.8601 123.819C48.2388 123.763 47.7502 123.12 46.8878 123.188C46.7386 123.204 45.8645 123.582 45.847 122.851C45.845 122.737 46.1615 122.483 46.0054 122.326C45.6959 122.013 45.3429 121.761 44.9851 121.508C44.5343 121.19 44.0703 120.881 43.7214 120.432C43.5086 120.16 44.0161 119.755 43.8371 119.415C43.6578 119.075 43.1959 118.532 42.7352 118.544C42.2737 118.556 41.9926 119.593 41.5077 119.329C39.398 118.175 37.895 116.255 36.1095 114.672C35.844 114.436 35.8427 114.899 35.436 114.57C33.9333 113.369 31.1703 111.375 30.4574 109.628C29.8899 108.24 31.4473 109.097 30.874 108.2C30.5986 107.769 29.398 108.21 29.2817 108.145C28.1669 107.549 27.9548 106.578 27.0978 105.855C26.9206 105.704 26.7185 106.185 26.5709 106.053C26.0559 105.592 25.7553 104.909 25.3035 104.4C25.1046 104.177 24.8522 104.437 24.7004 104.195C24.6357 104.092 24.5755 103.99 24.5199 103.887C24.2756 103.428 24.1118 102.943 24.041 102.352C24.0338 102.288 24.6217 102.353 24.3632 101.949C23.9437 101.292 23.7099 100.308 22.9666 99.7001C22.7462 99.5214 22.0193 99.9104 22.2369 99.125C22.2836 98.96 23.2233 98.6361 22.1604 98.4399C21.9854 98.4184 20.4345 97.8797 20.8801 97.0512C20.9965 96.8354 21.5855 96.1731 21.3471 95.9324C21.3116 95.8999 20.9728 96.2326 20.83 96.0028C20.335 95.1893 20.0378 94.2506 19.6085 93.3809C19.4937 93.1494 19.1775 93.6548 19.0197 93.301C18.7789 92.7589 18.5957 92.1136 18.4686 91.4726C18.3488 90.8918 18.2873 90.3557 18.2523 89.8783C18.2264 89.4881 18.6509 89.6751 18.6854 89.6389C19.252 89.0686 18.3205 88.9895 18.2419 88.8531C17.7702 88.0131 18.0889 87.2758 17.8703 86.491C17.8118 86.2759 17.4053 86.4873 17.3615 86.4485C16.93 86.0359 17.741 86.2811 17.7888 85.9783C17.9279 85.143 17.8014 84.2614 17.6763 83.4615C17.6297 83.1656 17.1612 83.5444 17.1252 83.2761C16.9055 81.7079 16.8643 80.0678 17.0911 78.5385C17.1348 78.2482 17.5248 78.4181 17.6107 78.3553C18.2121 77.9358 17.3611 77.3515 17.279 77.2182C16.9032 76.5963 17.2406 76.3489 17.1732 75.7942C16.8349 73.0844 17.1727 69.7619 17.4792 67.2452C17.5125 66.9654 17.5479 66.6894 17.5848 66.4164C17.9715 63.6457 18.4074 61.3152 18.6677 58.3792C18.687 58.1744 18.1541 58.3188 18.1645 58.1405C18.3258 55.8325 18.9188 53.543 19.4434 51.1185C19.4881 50.9186 18.9405 51.0724 18.9983 50.7439C19.1139 50.0685 19.4069 49.2392 19.7901 48.633C19.9759 48.3381 20.2124 48.907 20.3908 48.6108C20.8075 47.925 21.1575 47.1589 21.4266 46.3856C21.542 46.0542 20.8689 46.3274 21.0573 45.9083C21.8139 44.2252 22.7208 42.5972 23.8814 41.1589C24.5689 40.324 25.347 39.4955 26.2572 38.7422C26.4099 38.616 27.309 39.0994 27.4063 38.6621C27.2052 38.4653 26.9455 38.2632 26.7188 38.0678C29.1148 34.7538 32.3284 31.8801 35.9386 29.4264C36.0919 29.3223 35.5216 29.0681 35.8206 28.8626C36.4798 28.4118 37.139 27.9672 37.8292 27.5651C38.8358 26.9796 39.8924 26.462 41.1129 26.1837C41.3094 26.1382 41.6653 27.0113 42.0962 26.6251C42.1688 26.5565 42.8698 26.0555 42.9817 25.7729C42.9952 25.7318 42.657 25.4106 42.9015 25.2741C44.3169 24.4934 45.9317 23.8662 47.5718 23.5055C47.835 23.4491 47.741 23.988 47.9325 23.9508C49.2578 23.6973 50.5563 22.8721 52.0103 22.9386C52.9958 22.9924 52.8412 23.8625 53.4657 24.545C53.5397 24.6408 54.1242 24.567 54.2148 25.0273C54.3963 26.1763 54.3557 27.4636 54.5893 28.6832C54.613 28.8142 54.7056 28.7994 54.6993 28.8428C54.6804 28.8857 54.623 28.9766 54.7256 29.296C54.7848 29.3329 54.615 29.5672 54.5691 29.7993C54.5479 29.9566 54.7095 30.4054 54.655 30.6118C54.6044 30.8179 54.4055 30.4554 54.2675 30.721C54.1258 30.9923 54.3434 31.4863 53.9706 31.6512ZM81.1213 125.904C80.6036 125.541 80.8226 127.173 81.2361 126.699C81.2561 126.674 81.1482 125.921 81.1213 125.904ZM122.66 94.1215C121.742 94.2359 122.443 95.1289 123.135 95.0749C123.829 95.0144 122.939 94.0846 122.66 94.1215ZM125.029 88.5249C124.234 88.9095 126.323 89.953 126.186 89.0968C126.178 89.0474 125.075 88.5025 125.029 88.5249ZM51.4859 25.2798C51.5018 25.2972 51.8535 25.2154 51.8602 25.1916C51.9074 24.633 51.1754 24.8048 51.4859 25.2798ZM126.703 82.8534C126.338 82.9413 126.472 83.6314 126.929 83.524C127.3 83.4339 127.16 82.7391 126.703 82.8534ZM58.3518 123.008C58.3514 122.982 58.1144 122.892 58.0814 123.027C57.9747 123.461 58.352 123.436 58.3518 123.008ZM128.348 72.9641C128.174 74.4445 126.175 75.1539 126.508 73.607C126.567 73.3261 127.079 74.2611 127.278 73.9119C127.64 73.2621 126.456 72.7569 127.135 72.1099C127.26 71.9915 128.363 72.8782 128.351 72.9668C128.35 72.9659 128.349 72.965 128.348 72.9641ZM80.5204 124.005C80.5084 123.985 80.1626 124.025 80.1576 124.047C80.059 124.595 80.7628 124.514 80.5204 124.005ZM45.9501 115.496C45.9619 115.448 45.3439 114.933 45.2978 114.952C44.4484 115.383 45.7025 116.431 45.9501 115.496ZM101.133 113.859C101.135 113.792 101.14 113.729 101.148 113.669C101.215 113.159 101.527 112.954 102.087 113.281C101.801 113.447 101.525 113.631 101.237 113.799C101.203 113.819 101.168 113.839 101.133 113.859Z" fill="black"/>
<path d="M56.0298 28.9399C56.1821 29.6034 56.0471 30.49 55.8541 31.1716C55.7941 31.3805 55.5 31.2826 55.4456 31.4303C55.3398 31.722 55.4902 31.9872 55.3633 32.2685C55.3199 32.3633 54.8549 32.2602 54.8199 32.3597C54.6318 32.9065 54.7658 33.4155 54.6865 33.9652C54.296 36.6812 54.2464 39.3645 54.1856 42.1139C54.1822 42.274 54.1683 42.442 54.1492 42.616C54.0558 43.3646 53.8706 44.2173 54.1055 44.9157C54.1392 45.0148 54.5345 44.9062 54.57 44.9215C55.1138 45.1566 54.2895 45.1565 54.2069 45.3669C53.8823 46.2029 53.9939 47.0941 54.301 47.8047C54.4338 48.1094 55.1547 47.6262 54.7797 48.0345C54.7546 48.063 54.3166 48.0742 54.2905 48.1703C54.2309 48.3853 54.3935 48.7471 54.3966 48.9024C54.4026 49.2128 54.4189 49.259 54.486 49.535C54.5753 49.9153 54.4955 50.4163 54.7142 50.7923C54.7616 50.8704 55.1485 50.6286 55.2616 50.739C55.3742 50.8498 55.4529 51.2123 55.3951 51.3644C55.337 51.5173 54.9915 51.5782 54.9235 51.6252C54.3482 52.0203 55.3743 52.1296 55.4137 52.1682C56.1298 52.9824 55.9764 53.9728 56.3937 54.8666C56.7115 55.5452 57.2277 56.1774 57.5524 56.9043C57.5798 56.9662 57.6056 57.0276 57.6299 57.0885C57.9001 57.7824 58.0243 58.4637 58.4255 59.1037C58.4705 59.1762 58.8743 58.8356 58.9298 58.9227C59.5199 59.8469 60.0487 60.7976 60.3859 61.9199C60.4197 62.033 59.961 62.1684 59.9728 62.2974C60.0455 63.0759 59.9863 64.5295 61.8257 63.6754C62.0424 64.0971 62.324 64.597 62.2703 65.1769C62.2366 65.551 61.6818 65.6483 62.0577 65.7832C62.1419 65.8137 62.4215 65.4667 62.5218 65.5323C62.9432 65.8083 63.1632 66.3042 63.6388 66.5272C63.736 66.5716 64.0193 66.303 64.0906 66.2792C64.6721 66.0914 64.1951 66.9835 64.1981 67.0926C64.1986 67.1125 64.1994 67.1321 64.2005 67.1514C64.23 67.9029 64.6721 68.1147 65.0422 68.5334C65.1308 68.6335 65.4072 68.1625 65.5054 68.2449C66.0078 68.6746 66.4495 69.1861 66.7564 69.802C66.8243 69.9402 66.4201 70.1701 66.4372 70.253C66.5198 70.6166 67.1447 70.0487 67.235 70.3798C67.2551 70.4489 66.9715 70.7062 66.9515 70.7447C66.6392 71.3509 67.3825 70.7665 67.4289 70.7806C68.0407 70.9519 67.6839 71.9288 68.2098 72.1883C68.2727 72.2178 68.4649 71.7502 68.6219 71.855C69.6689 72.549 70.6388 73.4403 71.4579 74.4697C71.5859 74.6293 71.2661 74.8497 71.2508 74.8934C71.0254 75.5852 71.6605 74.8847 71.7322 74.8905C72.2891 74.9594 72.2637 75.8773 73.1518 75.1211C74.1959 76.0856 75.5045 76.6338 76.6757 77.4176C77.2857 77.8259 77.859 78.2964 78.3601 78.9294C78.3795 78.952 78.1293 79.3421 78.169 79.3856C78.6464 79.9114 78.85 79.2122 79.6165 78.6099C79.8074 78.4579 79.6482 79.5527 79.6444 79.6364C79.6203 79.9407 79.2275 80.5136 79.2368 80.5791C79.3276 81.1012 80.2397 79.0255 80.5961 79.1882C80.6059 79.1968 80.3849 79.5546 80.3981 79.6063C80.4388 79.7681 80.6011 79.6596 80.6344 79.8322C80.7081 80.2297 80.3406 81.2726 80.9294 80.8306C81.0042 80.7722 81.4566 79.5673 81.7539 79.7618C81.8743 79.8421 82.4529 80.0617 82.5838 80.2045C82.7132 80.3474 82.446 80.6858 82.4505 80.7071C82.681 81.3925 82.4322 81.5362 82.3559 82.3797C82.2854 83.2213 82.9309 81.4033 83.0993 81.2383C83.266 81.0736 83.4297 81.6217 83.4542 81.799C83.4786 81.9766 83.2844 82.1844 83.3246 82.2949C83.5995 83.0203 83.8716 81.4785 84.134 81.2501C84.7461 80.7048 84.5426 82.151 84.8399 82.4037C84.9203 82.4718 84.952 82.138 85.0442 82.1379C85.4053 82.14 85.4603 82.6298 85.9589 82.3632C86.0404 82.32 86.6019 81.5986 86.6022 82.2598C86.6023 82.3552 86.4171 82.6704 86.5322 82.7902C86.7068 82.9708 87.0605 83.1599 87.3226 83.1127C87.5142 83.0772 87.4892 82.4582 87.6458 82.6939C87.7155 82.7989 87.4478 83.0789 87.5879 83.2489C87.7296 83.4197 88.1808 83.5302 88.3572 83.565C88.5316 83.5995 88.5532 83.1441 88.5749 83.1189C88.7025 82.9755 89.0797 82.8525 89.1084 82.8601C90.5517 83.1759 91.7566 84.1948 93.2451 84.1768C93.3603 84.1756 93.3571 83.6999 93.3754 83.6949C93.7886 83.5586 93.2981 84.7474 93.5126 85.2015C93.6108 84.2527 93.7448 84.4474 94.0344 84.3812C94.1729 84.3482 94.1498 83.9728 94.1669 83.937C94.2408 83.7901 94.2965 83.7402 94.3393 83.7482C94.4548 83.7695 94.4822 84.184 94.4946 84.2934C94.5583 84.8505 94.7798 84.2293 94.8241 84.6014C94.8699 84.9709 94.6 85.4781 94.8677 85.5032C94.9825 85.1733 94.8904 84.2648 95.109 84.1451C95.9222 83.6945 97.2613 84.523 97.8708 84.6366C98.4786 84.753 98.679 84.7003 99.0271 84.8429C99.6616 85.0977 99.457 84.4251 99.8618 84.1387C100.269 83.8504 100.022 85.4697 100.068 85.8214C100.115 86.1728 100.189 85.8149 100.254 86.0091C100.32 86.2032 100.159 86.4367 100.325 86.5135C100.498 86.5909 100.971 85.9773 101.034 85.6118C101.169 84.8383 100.977 84.0237 101.404 84.3127C101.429 84.3298 101.346 84.7573 101.441 84.801C102.202 85.134 102.996 85.1381 103.776 85.388C103.885 85.4228 103.815 85.9034 103.88 85.929C104.549 86.1938 104.27 85.4058 104.545 84.4917C104.558 85.68 104.81 86.3922 105.314 86.3504C105.617 86.3243 105.512 85.8137 105.658 85.4298C105.698 85.3146 105.954 85.642 105.96 85.3954C105.98 84.5888 105.675 83.7321 106.195 84.0177C106.219 84.0313 106.215 84.4726 106.291 84.4881C106.787 84.5872 106.711 83.756 107.16 83.5647C107.509 83.4158 108.271 83.7494 108.694 83.6861C109.111 84.9562 109.467 84.4992 109.223 83.5958C109.321 83.5688 109.418 83.5223 109.503 83.4809C109.67 83.3971 109.839 83.3187 110.028 83.3005C110.137 83.2895 110.267 83.6592 110.298 83.6896C110.79 84.1652 110.468 83.3192 110.508 83.2563C110.956 82.6096 111.804 82.8921 112.033 81.9684C112.041 81.9351 111.58 81.1304 112.093 81.607C112.128 81.6399 112.163 82.1164 112.451 81.973C112.734 81.8326 113.52 81.9129 113.65 81.3058C113.683 81.1587 113.479 80.3871 113.99 80.7474C114.06 80.7964 114.185 81.0328 114.304 81.1303C114.687 81.4379 114.21 80.6283 114.8 81.1857C115.391 81.7429 116.022 82.026 116.072 81.3077C116.075 81.286 115.722 80.624 115.843 80.5489C116.036 80.4296 116.392 80.355 116.578 80.2064C116.667 80.135 116.328 79.8137 116.338 79.795C116.786 79.1241 117.461 79.1119 118.212 78.7223C118.351 78.651 118.276 77.8943 118.819 78.083C119.417 78.2862 120.636 80.2259 120.863 79.3144C120.956 78.9459 119.33 76.5518 120.72 77.3003C121.242 76.3285 122.468 76.2157 122.851 75.1044C122.869 75.0544 122.414 74.3786 122.499 74.3103C122.625 74.2102 122.953 74.4125 123.054 74.3472C123.481 74.0829 123.568 73.5411 123.936 73.2388C124.074 73.1243 124.307 73.4403 124.47 73.3047C124.637 73.1654 124.373 72.7063 124.749 72.674C125.039 72.6456 125.933 73.2216 126.226 73.0959C125.498 72.3694 125.65 72.2438 125.704 71.7996C125.714 71.7137 125.407 71.5164 125.399 71.4629C125.359 71.2395 125.655 71.3604 125.598 71.1326C125.584 71.0771 125.335 70.8301 125.31 70.7707C125.092 70.2538 125.896 70.5637 126.038 70.6154C126.573 70.8177 126.318 70.4264 126.592 70.4432C126.862 70.4644 126.858 70.8317 127.09 70.7759C127.475 70.6879 127.782 70.3918 128.047 70.1457L127.729 70.2784C127.669 70.2882 127.564 70.228 127.554 70.2088C127.535 70.1903 127.955 69.9774 127.96 69.9668C128.089 70.0885 128.033 70.2807 128.025 70.4179C128.017 70.5633 128.061 70.6826 128.357 70.8779C128.407 70.9112 128.464 70.9471 128.529 70.9859C127.326 70.8015 127.396 70.7638 127.638 70.9645C127.888 71.1403 128.296 71.5456 127.938 71.6484C127.877 71.6685 126.921 71.0453 126.841 70.8618C126.755 70.6902 127.138 70.7236 126.913 70.5655C126.896 70.5546 126.777 70.5045 126.618 70.459C126.292 70.3504 125.789 70.3312 125.745 70.3471C125.486 70.4025 125.793 70.5082 126.17 70.484C126.546 70.4701 126.988 70.3783 127.034 70.3703C127.447 70.296 127.456 70.1975 127.416 70.3056C127.399 70.3576 127.393 70.4758 127.462 70.6052C127.528 70.7348 127.653 70.8501 127.752 70.9188L128.486 70.6132C128.509 70.6798 128.525 70.7311 128.523 70.7522C128.481 71.2939 128.064 71.3683 128.004 71.795C127.96 72.0775 128.74 72.8779 128.591 72.9788C128.097 73.3176 126.837 72.3779 127.405 73.7313C127.526 74.0196 128.488 74.7826 127.491 74.4288C127.426 74.409 126.574 74.0243 126.837 74.5505C126.871 74.6166 127.126 74.8648 127.125 74.9084C127.115 75.1957 126.816 75.095 126.75 75.357C126.683 75.6188 126.635 75.9561 126.359 76.0636C126.196 76.1253 125.581 75.8037 125.411 75.7435C124.926 75.5685 125.307 76.2714 124.811 75.9653C124.314 75.6564 123.892 74.8584 123.383 74.8445C124.024 75.5109 124.67 76.2069 125.309 76.8834C124.729 77.411 123.965 77.7339 123.415 78.3062C123.348 78.3775 123.761 78.6715 123.697 78.7577C123.423 79.1228 122.898 79.1244 122.646 79.5432C122.457 79.8637 122.506 80.5257 122.308 80.8751C121.435 80.2335 121.251 80.8679 120.873 81.06C120.741 81.1276 120.567 80.9043 120.431 80.8985C119.921 80.8802 120.656 81.4846 120.669 81.6652C120.715 82.442 119.345 80.8288 118.972 81.1966C118.953 81.2149 119.386 82.3116 119.392 82.3965C119.438 82.9438 119.11 82.1193 118.91 82.1702C118.544 82.2634 118.193 82.1938 118.072 82.7004C118.039 82.8486 118.229 83.5851 117.721 83.2842C117.654 83.2448 117.446 82.935 117.414 82.9318C116.848 82.8962 117.526 83.8504 117.551 84.3217C117.575 84.7936 116.783 84.3623 116.585 84.2158C116.069 83.8406 116.568 83.9133 116.543 83.8582C116.245 83.2067 116.084 83.4692 115.875 83.5414C115.195 82.6152 114.994 82.8369 115.661 83.6199C115.734 83.705 115.81 83.5226 115.875 83.5414C116.365 84.5731 116.159 84.8899 115.268 84.2182C114.853 83.9016 114.669 83.3344 114.359 83.7904C114.216 83.9969 114.722 84.6111 114.663 84.9061C114.528 85.5793 113.604 85.2854 113.246 85.6351C113.114 85.7634 113.486 86.0451 113.403 86.1461C113.179 86.4162 112.77 86.2789 112.566 86.5869C112.548 86.6153 112.836 86.9725 112.749 87.0288C112.407 87.2555 112.043 87.381 111.666 87.5036C111.122 87.7212 110.64 87.8405 110.169 88.0001C109.691 88.1669 108.954 88.6208 108.487 88.6674C107.678 88.7599 106.668 88.2432 106.075 88.4722C105.687 88.6197 105.821 89.0598 105.674 89.3857C105.39 90.0178 104.695 88.9961 104.609 88.8347C104.607 88.8297 104.944 88.6971 104.743 88.479C104.601 88.0033 104.613 88.8323 104.609 88.8347C104.548 88.7331 103.857 88.6718 103.73 88.7629C103.659 88.8137 103.72 89.2408 103.682 89.2591C102.777 89.6854 101.844 89.806 100.924 89.592C100.908 89.5831 100.939 89.1031 100.902 89.0881C100.381 88.8663 100.033 89.4437 99.5751 89.7755C99.1277 90.1071 98.7737 89.9716 98.5676 89.1338C98.2309 89.219 97.7944 88.8245 97.5409 88.5836C97.2953 88.3434 97.1843 89.2723 97.1592 89.289C96.3693 89.8189 95.9922 89.2461 95.2404 89.0825C94.8883 89.004 94.1586 89.0549 93.7546 89.1054C93.7162 89.1105 93.6799 89.1114 93.6455 89.1093C93.3883 89.0932 93.2247 88.9143 92.9522 88.9994C92.9098 89.0121 92.8898 89.43 92.8754 89.4441C92.4706 89.888 92.7803 88.9045 92.7398 88.7147C92.5952 88.0237 92.5075 87.6544 92.0491 87.8926C91.9462 87.9476 91.4129 89.3426 91.2196 89.3944C90.9698 89.4591 91.1518 88.9586 90.8891 89.0385C90.8668 89.0448 90.8106 89.3643 90.6654 89.3216C89.9878 89.1273 89.2865 88.7825 88.5782 88.6461C88.482 88.6263 88.485 89.1558 88.3428 89.135C87.6723 89.0361 86.9597 88.8288 86.3989 88.4197C86.2608 88.3173 86.4563 87.9986 86.4521 87.8863C86.4259 87.2066 85.8807 88.0259 85.8253 88.028C84.5485 88.1188 83.9549 87.0291 82.6928 87.0076C82.6244 87.0087 81.7998 87.7803 81.8887 86.8904C81.8928 86.8306 81.9998 85.9267 81.6028 86.4216C81.5777 86.4525 81.5449 86.9274 81.335 86.797C81.1243 86.6665 80.6506 86.8071 80.5266 86.2178C80.4867 86.0319 80.5966 85.1253 80.0399 85.655C80.004 85.6936 78.9391 86.9702 79.2079 85.8918C79.2533 85.7147 79.7364 84.6603 79.1638 85.0603C79.0529 85.1377 79.0677 85.4266 78.8313 85.4997C78.4653 85.6115 78.248 85.1744 77.7095 85.4965C77.6147 85.5539 77.0449 86.159 77.1035 85.5265C77.113 85.4276 77.3338 85.1033 77.2512 85.0167C76.8612 84.6046 76.2512 84.5976 75.8906 84.1184C75.7627 83.9493 76.1288 83.4323 76.031 83.1954C75.9337 82.9588 75.6572 82.6364 75.3472 82.7978C75.0347 82.958 74.7733 83.9473 74.4612 83.8744C74.075 83.7828 73.7315 83.6261 73.4036 83.4264C72.5872 82.9281 71.9114 82.1787 71.1142 81.6319C70.9492 81.5183 70.9084 81.9104 70.6508 81.7634C69.7043 81.2325 67.9022 80.4604 67.5505 79.2783C67.2756 78.3408 68.3245 78.5151 67.9966 77.98C67.8414 77.7251 66.9162 78.4867 66.8378 78.4746C66.0768 78.3769 66.0133 77.6825 65.4428 77.4348C65.3242 77.3829 65.1296 77.8285 65.0311 77.7796C64.6918 77.6151 64.5231 77.208 64.2287 77.0132C64.0957 76.9263 63.8874 77.2204 63.7932 77.1051C63.5653 76.8322 63.4276 76.5145 63.3953 76.038C63.3928 75.9949 63.8424 75.7953 63.6624 75.6147C63.3697 75.3226 63.219 74.7374 62.6404 74.6633C62.4681 74.6424 61.8967 75.2329 62.0675 74.6111C62.1031 74.4807 62.8474 73.8304 62.0014 74.1955C61.8629 74.2593 60.6197 74.6456 60.9392 73.9113C61.0232 73.7185 61.4658 73.0167 61.2583 72.9831C61.2277 72.9804 60.9735 73.3526 60.8443 73.2797C60.3956 73.0181 60.0737 72.599 59.629 72.3051C59.5091 72.2265 59.3042 72.684 59.1353 72.5556C58.9181 72.3899 58.7217 72.168 58.5482 71.922C58.3649 71.6586 58.2124 71.3685 58.0938 71.1051C58.0122 70.9221 58.3889 70.7847 58.4116 70.7476C58.7856 70.1494 58.0046 70.6207 57.9158 70.5952C57.3766 70.4326 57.4842 69.8886 57.1295 69.6207C57.0326 69.5459 56.7465 69.8785 56.7016 69.8837C56.2532 69.9204 56.9754 69.5878 56.9462 69.4124C56.8674 68.9204 56.5446 68.5569 56.2339 68.2348C56.1194 68.117 55.8301 68.5634 55.7315 68.4535C55.1395 67.8064 54.6413 67.0296 54.3829 66.1612C54.3353 65.9975 54.7107 65.8657 54.7644 65.7885C55.1434 65.2535 54.2606 65.4397 54.1495 65.4161C53.6476 65.3171 53.8559 65.0131 53.6309 64.7793C52.5216 63.6395 51.738 61.7997 51.2096 60.3616C51.1843 60.294 51.1597 60.2267 51.1357 60.1598C50.6787 58.7921 50.2586 57.232 49.5216 55.6396C49.4717 55.5308 49.0423 55.8338 48.9931 55.7417C48.3813 54.5461 48.1434 53.2303 47.6376 51.9786C47.5967 51.8743 47.1729 52.1592 47.0922 51.9975C46.9228 51.6648 46.8301 51.2057 46.8923 50.8063C46.9222 50.6137 47.3829 50.7476 47.4057 50.5593C47.4602 50.1199 47.3976 49.6828 47.2349 49.2781C47.1652 49.1082 46.734 49.4749 46.6813 49.2453C46.3121 47.6703 46.005 46.0824 46.5076 44.4388C46.5422 44.3256 47.5384 44.1491 47.3282 43.9366C47.048 43.9407 46.72 43.9665 46.4213 43.9815C46.3759 43.6726 46.3432 43.3664 46.3206 43.0519C46.1888 41.2609 46.3668 39.4789 46.3348 37.677C46.3331 37.5893 45.8062 37.764 45.8003 37.5943C45.7655 36.6104 45.5794 35.6572 46.074 34.6331C46.1224 34.5324 47.0629 34.5472 46.9106 34.2574C46.8829 34.2073 46.7427 33.7685 46.5351 33.6595C46.5039 33.645 46.0682 33.7399 46.0508 33.598C45.9573 32.7706 46.0322 31.8893 46.2804 31.0511C46.3214 30.9183 46.7915 31.0474 46.8248 30.9532C47.0567 30.2673 46.6877 29.5334 47.1034 28.8762C47.3836 28.4342 48.1928 28.5897 48.985 28.3472C49.0968 28.3195 49.1127 28.042 49.575 28.0291C50.7373 27.9894 52.0109 28.1077 53.2497 28.0488C53.5162 28.0364 53.2281 27.7189 53.8734 27.9007C53.9165 27.9098 54.1318 28.152 54.3512 28.2161C54.5028 28.2573 54.9724 28.1805 55.1666 28.2599C55.3608 28.3441 54.9675 28.4383 55.1967 28.5856C55.4286 28.7181 55.9627 28.6637 56.0298 28.9399ZM96.4397 87.4995C96.2401 87.0298 96.0464 88.6638 96.3497 88.2969C96.3646 88.2772 96.4502 87.5226 96.4397 87.4995ZM123.106 76.8331C122.381 76.5226 122.957 77.4456 123.505 77.6981C124.055 77.9484 123.327 76.926 123.106 76.8331ZM125.033 74.1832C124.372 74.0387 125.989 75.7211 125.929 75.1102C125.926 75.0753 125.071 74.1915 125.033 74.1832ZM49.2249 29.4115C49.2467 29.4062 49.2649 29.212 49.2432 29.2093C48.7192 29.114 48.6831 29.5022 49.2249 29.4115ZM126.834 71.5184C126.53 71.3767 126.566 71.8595 126.943 72.036C127.245 72.1788 127.211 71.6951 126.834 71.5184ZM84.5841 83.1649C84.5883 83.1404 84.4668 83.0743 84.4234 83.2059C84.2832 83.6298 84.5072 83.5748 84.5841 83.1649ZM126.275 72.3162C126.841 71.802 128.663 72.6096 127.905 73.1785C127.771 73.2764 127.664 72.5135 127.398 72.559C126.919 72.6336 127.668 73.6137 126.932 73.4679C126.799 73.4386 126.241 72.3418 126.274 72.3134C126.274 72.3144 126.274 72.3153 126.275 72.3162ZM96.486 85.5194C96.4832 85.4973 96.2962 85.4586 96.2905 85.4797C96.137 85.9896 96.5152 86.068 96.486 85.5194ZM77.7145 79.1072C77.7259 79.0614 77.3612 78.8249 77.3297 78.8562C76.7328 79.5094 77.4795 79.9955 77.7145 79.1072ZM108.712 83.7176C108.712 83.1613 108.831 83.0476 109.222 83.5955C109.054 83.6318 108.892 83.6892 108.712 83.7176Z" fill="black"/>
</svg>
