<svg width="150" height="150" viewBox="0 0 150 150" fill="none" xmlns="http://www.w3.org/2000/svg">
<path d="M58.6124 72.9714C58.6918 72.0342 59.1478 70.9384 59.5898 70.1582C59.729 69.9084 59.9704 70.1245 60.078 69.961C60.2903 69.6342 60.2485 69.2691 60.4808 68.9626C60.5597 68.8599 60.9591 69.1364 61.0317 69.0256C61.4236 68.428 61.5 67.7796 61.7999 67.1527C62.4055 65.8879 62.9698 64.6375 63.5206 63.374C64.3394 61.4816 65.1853 59.6345 66.1104 57.8044C66.6267 56.7799 67.5789 55.7004 67.9158 54.5685C67.9547 54.4359 67.5539 54.3349 67.5349 54.2971C67.2499 53.7074 67.9294 54.1833 68.1426 53.9912C68.9871 53.228 69.5401 52.2063 69.8627 51.2376C69.999 50.8252 69.0862 50.8383 69.6864 50.6613C69.7273 50.6488 70.0595 50.9433 70.1543 50.8601C70.3687 50.6704 70.5343 50.1879 70.661 50.0211C70.9068 49.7007 70.9335 49.6413 71.1145 49.312C71.3658 48.8633 71.8438 48.4283 72.0214 47.9003C72.0584 47.7864 71.5964 47.7116 71.6208 47.5106C71.6455 47.3089 71.9171 46.8935 72.0899 46.7965C72.2621 46.7003 72.5308 46.9309 72.6147 46.9436C73.3189 47.0568 72.7853 46.1062 72.8021 46.0297C73.1186 44.6645 74.1517 43.9268 74.7807 42.8412C75.2583 42.0149 75.6246 41.0478 76.1072 40.2807C76.306 39.966 76.5213 39.6738 76.732 39.3993C77.154 38.84 77.5876 38.3305 77.9695 37.7181C78.032 37.6191 77.5253 37.4417 77.6019 37.319C78.417 36.0165 79.3976 34.8415 80.6333 33.9281C80.7573 33.8373 80.9797 34.2788 81.1236 34.2067C82.0016 33.7474 83.5965 33.3435 82.5378 31.5864C83.0219 31.1914 83.6084 30.7146 84.2785 30.6194C84.711 30.5574 84.8116 31.1511 84.9728 30.7006C85.0098 30.5995 84.6175 30.3738 84.6965 30.2454C85.031 29.7036 85.6204 29.3484 85.9211 28.7743C85.9814 28.657 85.6958 28.3903 85.675 28.3146C85.5189 27.6904 86.5146 28.0635 86.6376 28.047C87.5882 27.8913 87.9023 27.3634 88.4963 26.8891C88.6335 26.7802 88.141 26.508 88.2617 26.3883C88.8954 25.771 89.6398 25.2396 90.4608 24.9037C90.6457 24.8289 90.7757 25.2903 90.8778 25.2728C91.324 25.1925 90.8793 24.4739 91.3022 24.3845C91.3898 24.3656 91.581 24.6988 91.618 24.7235C92.1959 25.1128 91.797 24.2493 91.8346 24.1961C92.2779 23.5212 93.236 24.0307 93.7407 23.5066C93.8013 23.4426 93.3618 23.1615 93.5537 23.003C94.2145 22.4536 94.9535 21.9558 95.716 21.541C96.6264 21.0188 97.5987 20.7825 98.4978 20.7412C98.7928 20.7294 98.6768 21.1314 98.7065 21.1701C99.1354 21.7845 99.1073 20.839 99.1995 20.7855C99.8943 20.3997 100.587 21.137 101.034 20.0098C103.52 20.2694 105.988 20.4378 108.084 21.9125C108.769 22.3597 109.257 23.0463 109.456 23.7053C109.47 23.7489 109.042 23.9357 109.069 24.0165C109.31 24.9642 109.835 24.4683 110.909 24.8668C111.187 25.0019 110.285 25.7583 110.211 25.7995C109.964 26.0058 109.261 26.0005 109.217 26.0595C108.862 26.4992 111.089 26.0426 111.17 26.6389C111.168 26.657 110.745 26.6326 110.709 26.6853C110.598 26.8463 110.778 26.9771 110.647 27.1354C110.341 27.4824 109.249 27.6247 109.902 28.0694C109.986 28.1281 111.274 28.0025 111.214 28.4939C111.193 28.6941 111.185 29.5442 111.082 29.774C110.983 30.0059 110.58 29.8139 110.561 29.83C109.968 30.4114 109.759 30.1478 108.925 30.3668C108.093 30.5728 110.018 30.6903 110.219 30.8385C110.419 30.9925 109.917 31.3767 109.747 31.4597C109.577 31.545 109.333 31.3791 109.233 31.4607C108.572 31.9991 110.142 31.8678 110.415 32.1236C111.056 32.7361 109.581 32.8863 109.362 33.3057C109.304 33.4159 109.642 33.3789 109.652 33.4895C109.688 33.9291 109.2 34.0997 109.501 34.6612C109.55 34.7497 110.307 35.3206 109.634 35.4373C109.537 35.4529 109.212 35.274 109.094 35.4356C108.916 35.6833 108.731 36.1269 108.776 36.4418C108.81 36.6731 109.439 36.5717 109.196 36.7948C109.088 36.8936 108.809 36.5914 108.633 36.783C108.458 36.9746 108.331 37.5247 108.285 37.7417C108.24 37.9565 108.701 37.956 108.725 37.9808C108.864 38.1302 108.959 38.5949 108.949 38.6295C108.498 40.4656 107.266 41.8875 106.925 43.6844C106.897 43.8251 107.372 43.8854 107.373 43.9084C107.402 44.4345 106.343 43.6696 105.839 43.8553C106.756 44.1166 106.529 44.2507 106.515 44.6101C106.509 44.7837 106.887 44.8192 106.918 44.8458C107.366 45.2642 106.626 45.1867 106.472 45.179C105.904 45.1514 106.452 45.5319 106.072 45.5147C105.695 45.4976 105.275 45.0802 105.171 45.3905C105.462 45.5919 106.384 45.6606 106.436 45.9453C106.633 47.0244 105.358 48.4399 105.017 49.1176C104.676 49.7985 104.645 50.0472 104.368 50.4122C103.867 51.0706 104.589 51.0438 104.685 51.617C104.779 52.1913 103.362 51.3554 103.011 51.29C102.66 51.2231 102.965 51.4292 102.754 51.437C102.544 51.4443 102.394 51.1818 102.251 51.342C102.108 51.502 102.473 52.2493 102.783 52.4559C103.44 52.8938 104.289 52.9716 103.816 53.3639C103.788 53.3861 103.432 53.1277 103.346 53.2213C102.678 53.9666 102.273 54.858 101.628 55.6025C101.538 55.705 101.149 55.4072 101.092 55.4644C100.498 56.0563 101.345 56.1239 101.985 56.8788C100.942 56.3049 100.181 56.2308 99.9315 56.7649C99.7811 57.0852 100.278 57.2439 100.515 57.6036C100.528 57.622 100.525 57.6395 100.514 57.6567C100.459 57.7425 100.192 57.8156 100.358 57.9366C101.01 58.4179 101.926 58.5827 101.316 59.0112C101.289 59.0288 100.94 58.7525 100.872 58.8272C100.435 59.2998 101.135 59.7594 100.878 60.4148C100.675 60.9315 99.7345 61.4751 99.3278 61.9198C98.23 61.1633 98.1776 61.7779 98.7886 62.5015C98.5322 62.7946 98.3213 63.1638 97.9923 63.3813C97.8793 63.4563 97.6259 63.1528 97.583 63.1401C96.9173 62.9301 97.5185 63.6112 97.4929 63.6996C97.1917 64.6209 96.2034 64.73 96.1221 65.807C96.1198 65.8449 96.7701 66.5078 96.1144 66.2213C96.0704 66.2001 95.9515 65.7072 95.6546 65.9809C95.3553 66.2575 94.4803 66.4543 94.3926 67.1487C94.3722 67.3159 94.6566 68.0941 94.0476 67.8666C93.9657 67.8349 93.8088 67.6168 93.6681 67.5473C93.2194 67.3263 93.8027 68.0652 93.1088 67.6279C92.4154 67.19 91.719 67.0307 91.6909 67.8019C91.6894 67.825 92.0946 68.4609 91.9572 68.5699C91.7378 68.7433 91.3432 68.8889 91.1281 69.0848C91.0257 69.1784 91.3968 69.4658 91.3843 69.4881C90.8499 70.3004 90.0676 70.4249 89.1856 70.9193C89.0217 71.0107 89.0114 71.8294 88.4193 71.6664C87.7745 71.4846 86.6766 69.4682 86.3236 70.4342C86.1827 70.8194 87.5804 73.371 86.1605 72.5858C85.3905 73.6414 83.9996 73.7287 83.3044 74.9043C83.2728 74.9571 83.6093 75.7058 83.4984 75.7751C83.3278 75.8806 83.0152 75.6467 82.8879 75.7113C82.3498 75.9738 82.1045 76.5604 81.6301 76.8644C81.4459 76.9844 81.2674 76.6323 81.0519 76.7736C80.8552 76.903 80.9883 77.3632 80.6726 77.4369C80.6467 77.444 80.6212 77.4471 80.593 77.4481C80.2677 77.459 79.4339 76.7816 79.0845 76.889C79.6857 77.7229 79.4803 77.8492 79.2948 78.3204C79.2593 78.4115 79.5414 78.6486 79.5354 78.7067C79.5151 78.9497 79.2219 78.796 79.2172 79.047C79.2156 79.1077 79.4197 79.3933 79.43 79.459C79.524 80.029 78.7196 79.6334 78.5815 79.5629C78.053 79.2984 78.2128 79.7448 77.9204 79.6998C77.629 79.654 77.7388 79.2616 77.4652 79.3022C76.8991 79.3861 76.3959 79.8067 75.9595 80.0883C75.7872 80.2021 76.1692 80.5078 76.1507 80.5331C75.9868 80.7292 75.706 80.7575 75.5594 80.9173C75.4495 81.0366 75.4163 81.2259 75.5534 81.6128C73.957 79.7772 75.4722 81.9535 74.6833 81.8915C74.6199 81.8858 73.9544 80.9571 74.0123 80.7198C74.0695 80.4831 74.4947 80.6291 74.5595 80.27C74.5751 80.1858 74.2565 79.109 74.2588 79.0288C74.259 79.0235 74.2592 79.0184 74.2595 79.0134C74.2906 78.4283 75.2833 79.7817 75.3521 79.8472C76.1091 80.554 75.804 79.3638 75.8493 79.2353C76.0592 78.6453 76.5502 78.5939 76.7478 78.1354C76.8775 77.8374 76.2528 76.9105 76.4486 76.8133C77.0964 76.4899 78.2191 77.6021 77.9685 76.1115C77.9147 75.7932 77.0761 74.895 78.0579 75.3635C78.1185 75.3941 78.9514 75.8695 78.7917 75.2935C78.7712 75.2212 78.5562 74.9375 78.5669 74.892C78.5818 74.833 78.6049 74.7908 78.6335 74.7591L78.5473 74.827C78.6778 74.6791 78.9064 74.7025 79.0298 74.4658C79.1684 74.183 79.3346 73.7977 79.6604 73.7003C79.8608 73.6377 80.4665 74.0103 80.6344 74.0869C81.1204 74.3054 80.8917 73.518 81.3545 73.8788C81.8241 74.238 82.0924 75.1172 82.6489 75.1597C82.1071 74.4102 81.5671 73.6288 81.0303 72.8691C81.7931 72.339 82.6927 72.0431 83.3965 71.4617C83.4824 71.3894 83.0917 71.0614 83.176 70.9738C83.5367 70.6027 84.1001 70.6197 84.4313 70.1874C84.6832 69.8536 84.7114 69.1656 84.9566 68.8042C85.8148 69.476 86.0787 68.8087 86.4898 68.6001C86.633 68.5272 86.8028 68.7532 86.9484 68.7538C87.4941 68.7488 86.7476 68.1508 86.7442 67.9636C86.7253 67.1658 88.1072 68.7701 88.5302 68.3458C88.5538 68.3234 88.1125 67.218 88.105 67.1317C88.0568 66.5694 88.402 67.3944 88.6139 67.322C88.9988 67.1908 89.3768 67.2186 89.4888 66.6763C89.5208 66.5168 89.2766 65.791 89.8262 66.0255C89.8984 66.056 90.1365 66.3436 90.1709 66.3417C90.7722 66.2841 89.9846 65.415 89.9082 64.9431C89.8311 64.4717 90.6847 64.7732 90.9094 64.8797C91.4893 65.1575 90.9657 65.1839 90.998 65.2346C91.3826 65.8415 91.5217 65.5405 91.7325 65.4175C92.5597 66.2158 92.7531 65.9285 91.9477 65.2862C91.8598 65.2161 91.8034 65.4218 91.7325 65.4175C91.0954 64.4642 91.2353 64.1239 92.2647 64.5791C92.7475 64.7912 93.0371 65.3215 93.2857 64.7602C93.3973 64.5056 92.755 64.0331 92.7524 63.7217C92.7426 63.0153 93.7305 63.0228 93.9886 62.5442C94.0806 62.3724 93.6317 62.2305 93.6822 62.1043C93.813 61.7704 94.2551 61.7469 94.3398 61.377C94.3468 61.3434 93.9473 61.1168 94.0081 61.032C94.4587 60.3851 95.0988 60.0145 95.5652 59.3447C95.7918 59.0214 95.9525 58.3045 96.1943 57.9902C96.6139 57.4533 97.5942 56.9982 97.6944 56.3896C97.6957 56.3822 97.6968 56.3749 97.6976 56.3677C97.7616 55.9548 97.323 55.8505 97.1219 55.5607C96.7231 54.9912 97.9619 54.848 98.1473 54.8392C98.1535 54.8392 98.1001 55.2211 98.3932 55.1354C98.883 55.2276 98.1476 54.8438 98.1473 54.8392C98.2679 54.8332 98.6642 54.1909 98.6448 54.0177C98.634 53.9242 98.2222 53.7938 98.2239 53.7484C98.2678 52.6877 98.5572 51.7289 99.1286 50.8741C99.1434 50.861 99.577 51.0695 99.6063 51.0365C100.027 50.5785 99.6265 50.003 99.4813 49.4302C99.3368 48.8553 99.5852 48.5457 100.457 48.5831C100.494 48.2077 101.022 47.8541 101.337 47.6518C101.652 47.4497 100.793 47.0766 100.785 47.0455C100.524 46.0684 101.19 45.8148 101.561 45.043C101.738 44.6783 101.881 43.8744 101.927 43.4308C101.963 43.0785 102.238 42.9522 102.208 42.6068C102.205 42.5602 101.796 42.4667 101.785 42.4491C101.427 41.9557 102.337 42.443 102.532 42.4322C103.243 42.3941 103.631 42.3464 103.479 41.8143C103.445 41.6908 102.147 40.9458 102.122 40.7421C102.094 40.4765 102.566 40.7257 102.523 40.4403C102.52 40.416 102.21 40.3218 102.272 40.1749C102.552 39.4954 102.968 38.7805 103.145 38.0482C103.171 37.947 102.64 37.9325 102.669 37.7848C102.805 37.095 103.022 36.37 103.42 35.7833C103.52 35.64 103.843 35.8281 103.956 35.82C104.638 35.7629 103.803 35.225 103.797 35.1733C103.643 33.8901 104.671 33.1541 104.475 31.8974C104.465 31.8213 103.544 31.2003 104.43 31.1051C104.488 31.1006 105.395 31.0008 104.82 30.7357C104.784 30.7201 104.316 30.7898 104.39 30.5724C104.464 30.3548 104.202 29.9562 104.724 29.7091C104.888 29.6395 105.788 29.4455 105.1 29.1278C105.054 29.0941 103.481 28.649 104.577 28.5333C104.757 28.5158 105.92 28.5356 105.322 28.2302C105.205 28.175 104.949 28.283 104.784 28.1371C104.53 27.9183 104.822 27.6251 104.282 27.4693C104.186 27.433 103.392 27.4392 103.965 27.2544C104.054 27.2232 104.44 27.1783 104.473 27.1197C104.63 26.8321 104.32 26.8129 104.627 26.8182C104.734 26.8126 105.248 26.4527 105.396 26.3712C105.547 26.2923 105.689 26.2154 105.585 26.4914C105.505 26.781 104.818 27.5336 105.026 27.748C105.04 27.7615 105.054 27.7747 105.069 27.7875C104.277 27.7307 103.491 26.898 102.494 26.6865C102.348 26.6561 102.426 27.0238 102.216 27.0086C101.383 26.9356 100.349 27.3757 99.7942 26.7945C99.2554 26.3422 99.5501 25.741 99.1579 25.6238C98.9351 25.5855 99.319 26.6942 99.3328 26.7287C99.3289 26.8464 99.3137 26.8972 99.2855 26.9165C98.9197 27.1612 98.4548 27.1858 98.1445 27.5357C98.0529 27.6378 98.4261 27.9525 98.3451 28.0352C98.0825 28.3136 97.6371 28.3668 97.3586 28.6096C97.2388 28.7162 97.4701 28.9926 97.3336 29.0552C97.0035 29.2127 96.6679 29.2676 96.1858 29.2016C96.1422 29.1954 96.051 28.7093 95.8296 28.8497C95.469 29.0803 94.8377 29.1345 94.6541 29.7038C94.5999 29.8744 95.0919 30.5311 94.4997 30.2705C94.3763 30.216 93.8414 29.3831 94.0726 30.2808C94.106 30.4333 94.342 31.7062 93.6477 31.3133C93.4644 31.21 92.805 30.7042 92.7469 30.914C92.7411 30.9447 93.0918 31.2283 93.0062 31.3527C92.7003 31.785 92.2616 32.0866 91.9554 32.5272C91.874 32.6458 92.3264 32.8602 92.1965 33.0253C91.8442 33.476 91.2426 33.8488 90.7402 34.111C90.5551 34.2064 90.4043 33.833 90.366 33.8122C89.7394 33.4771 90.2434 34.2407 90.2219 34.332C90.0789 34.8925 89.5179 34.8388 89.2736 35.2301C89.2055 35.3374 89.5678 35.5861 89.5769 35.6308C89.6567 36.0759 89.2534 35.3897 89.0782 35.4412C88.5866 35.5834 88.2521 35.9674 87.9762 36.3313C87.8751 36.4658 88.364 36.6784 88.27 36.7944C87.7227 37.4854 87.0833 38.1163 86.3246 38.58C86.181 38.6669 85.9535 38.3413 85.865 38.3097C85.2452 38.0893 85.6688 38.8906 85.6831 38.9992C85.7427 39.5008 85.3952 39.3906 85.253 39.6722C84.6537 40.871 83.6628 42.0473 82.9019 43.0747C82.7777 43.2462 82.656 43.414 82.539 43.5769C81.3307 45.2617 80.2087 46.4545 79.3236 48.2013C79.2674 48.3115 79.7736 48.4559 79.7309 48.554C79.1587 49.8114 78.3269 50.8974 77.8071 52.1733C77.7638 52.2774 78.2672 52.3651 78.2124 52.5395C78.1027 52.899 77.8605 53.2974 77.5501 53.5542C77.3993 53.6801 77.145 53.2703 77.0007 53.4014C76.664 53.7059 76.4215 54.0968 76.2908 54.5209C76.2362 54.7019 76.8053 54.6793 76.7002 54.8964C75.9943 56.381 75.3716 57.8455 74.1036 59.0684C74.0168 59.152 73.0585 58.8235 73.1346 59.1239C73.3818 59.2559 73.682 59.3907 73.9511 59.5212C73.1263 61.7351 71.9302 63.7409 71.1399 65.9046C71.1141 65.9758 71.4537 65.9993 71.5709 66.0913C71.6025 66.1176 71.6173 66.1498 71.6032 66.1907C71.2262 67.2846 71.023 68.3756 70.1615 69.3351C70.0767 69.4309 69.2005 69.0849 69.2315 69.4595C69.2373 69.5267 69.2035 70.0552 69.359 70.2434C69.3831 70.2695 69.8294 70.3106 69.7932 70.4709C69.5734 71.4087 69.1929 72.3369 68.6804 73.1728C68.5972 73.3068 68.1908 73.0259 68.1277 73.1201C67.6796 73.8028 67.8115 74.6938 67.2351 75.2848C66.8486 75.6812 66.1031 75.326 65.2701 75.4075C65.1523 75.4192 65.0719 75.7086 64.6156 75.634C63.4683 75.441 62.2566 75.0174 61.0299 74.8294C60.7642 74.7924 60.9541 75.3021 60.3765 74.9053C60.3365 74.8832 60.1999 74.4915 60.0041 74.3651C59.8694 74.2729 59.3862 74.2816 59.2243 74.1158C59.0613 73.9567 59.4764 73.9065 59.2995 73.6627C59.1222 73.41 58.5795 73.3772 58.6124 72.9714ZM102.744 46.7316C103.263 46.6253 101.735 46.0136 101.999 46.4333C102.013 46.4543 102.718 46.7374 102.744 46.7316ZM83.4313 73.0381C84.1594 73.3995 83.7244 72.3918 83.1786 72.1008C82.6347 71.809 83.2107 72.9284 83.4313 73.0381ZM80.6499 75.797C81.3518 75.9771 79.9868 74.0843 79.8902 74.7548C79.8838 74.7936 80.6087 75.7869 80.6499 75.797ZM65.3353 74.1591C65.313 74.1577 65.2383 74.3687 65.2579 74.3803C65.7363 74.6206 65.8848 74.2004 65.3353 74.1591ZM77.965 78.5281C78.2587 78.7062 78.3624 78.1832 77.9971 77.9625C77.704 77.7846 77.6004 78.3062 77.965 78.5281ZM108.57 33.1731C108.595 33.1753 108.647 33.0129 108.51 32.9924C108.068 32.9259 108.152 33.1715 108.57 33.1731ZM72.6296 82.0571C73.4573 81.7444 75.0066 83.0516 73.8984 83.4274C73.7033 83.488 73.9876 82.6798 73.6798 82.6497C73.1432 82.5818 73.3949 83.8046 72.6935 83.4132C72.5747 83.3382 72.5872 82.0699 72.6299 82.0539C72.6298 82.055 72.6297 82.056 72.6296 82.0571ZM104.652 47.2701C104.674 47.2724 104.773 47.0654 104.755 47.0528C104.308 46.7557 104.109 47.1709 104.652 47.2701ZM108.606 23.3563C108.642 23.3039 108.139 22.8222 108.085 22.8564C107.396 23.3888 108.143 24.1246 108.606 23.3563ZM99.293 61.9076C99.5821 62.4171 99.4455 62.7192 98.7898 62.5009C98.9676 62.3133 99.1208 62.1032 99.293 61.9076Z" fill="black"/>
<path d="M69.9783 87.4278C69.7796 87.5174 69.6545 87.314 69.6064 87.0742C69.5932 87.0004 69.7076 86.7316 69.7036 86.6686C69.6963 86.5457 69.6057 86.6651 69.6073 86.5219C69.6085 86.4731 69.7854 86.0461 69.7835 86.0051C69.7769 85.7853 69.6667 85.8694 69.6256 85.7483C69.4451 85.1591 69.2128 84.8706 68.9921 84.541C68.9161 84.4312 68.9768 83.9979 68.7973 84.1164C68.7765 84.1307 68.6118 84.5012 68.5954 84.5304C68.3434 84.9771 68.702 84.2415 68.7257 84.1325C68.8183 83.7017 68.7366 83.6213 68.584 83.7213C68.5182 83.7647 68.2037 84.507 68.3637 84.0823C68.3745 84.0536 68.5718 83.6709 68.5818 83.6247C68.6045 83.521 68.5277 83.5691 68.5254 83.53C68.5224 83.4529 68.5151 83.4542 68.4861 83.4344C68.4479 83.4039 68.4924 83.1871 68.4028 83.2513C68.383 83.2661 68.1988 83.6674 68.1492 83.7265C68.0995 83.7855 68.0752 83.7314 68.108 83.6314C68.1409 83.5315 68.303 83.2248 68.3364 83.1526C68.6191 82.5437 68.1527 83.3492 68.1356 83.3663C67.8437 83.6572 67.9918 83.1379 67.887 83.0848C67.807 83.0456 67.6426 83.1563 67.5781 83.0947C67.5022 83.0198 67.5427 82.77 67.437 82.7591C67.4261 82.7575 67.1882 83.2187 67.1742 83.2176C67.0265 83.2057 66.9343 83.0899 66.9899 82.7193C66.9958 82.6817 67.2342 82.2932 67.2536 82.2321C67.3662 81.8659 67.7075 81.0252 66.6778 82.7209C66.6684 82.6262 66.6497 82.523 66.8083 82.1527C66.9105 81.9144 67.1868 81.5011 67.047 81.6647C67.0158 81.7011 66.8064 82.0821 66.776 82.1082C66.6473 82.2173 66.6675 82.0653 66.5059 82.2306C66.4725 82.265 66.2767 82.6017 66.2382 82.6604C65.9251 83.135 66.3653 82.3045 66.3923 82.2412C66.5893 81.7664 66.4415 81.9111 66.3894 81.8652C66.3775 81.8544 66.1229 82.3117 66.1015 82.3172C65.9942 82.3399 65.945 82.2572 66.0003 82.0186C66.0133 81.9645 66.2606 81.5935 66.2789 81.5483C66.357 81.3539 65.9075 82.0653 65.9733 81.8922C65.9867 81.8567 66.1913 81.5348 66.2123 81.4984C66.5417 80.9289 66.0346 81.7108 66.019 81.7253C65.8117 81.9273 66.2908 81.0797 66.1634 81.1621C66.1475 81.1727 65.9048 81.5903 65.8757 81.595C65.6798 81.6289 65.6166 81.4306 65.707 81.0285C65.7207 80.9665 65.9328 80.672 65.9561 80.6338C66.3199 80.0373 65.7947 80.8118 65.769 80.8371C65.5807 81.0168 65.9701 80.3336 65.3204 81.2399C65.3311 80.7826 64.7674 81.1549 65.143 80.1977C65.1472 80.1865 65.4177 79.8134 65.4249 79.7927C65.5156 79.5399 65.1133 80.1325 64.5636 80.8164C64.4251 80.9877 65.0095 80.1055 65.0524 80.0409C65.2092 79.8018 65.6189 79.252 65.6479 79.2047C65.8757 78.8335 64.5565 80.6774 64.5179 80.6505C64.519 80.6466 64.7682 80.3118 64.7893 80.2759C64.856 80.1634 64.7493 80.2908 64.8241 80.1677C64.9974 79.8827 65.6384 78.9867 65.2295 79.4821C65.1764 79.5463 64.425 80.5901 64.4272 80.5165C64.4288 80.4863 64.3567 80.4607 64.3897 80.3814C64.4228 80.3024 64.6805 79.9775 64.69 79.9622C64.973 79.4899 65.1247 79.3195 65.5881 78.6531C66.0507 77.9898 64.9049 79.5402 64.7675 79.7061C64.6303 79.8715 64.8696 79.4858 64.9566 79.3546C65.0434 79.2231 65.2107 79.0195 65.2575 78.9433C65.5636 78.4461 64.6633 79.6937 64.4643 79.9269C63.9917 80.4779 64.8261 79.3164 64.8805 79.1818C64.8949 79.1452 64.7045 79.4095 64.6783 79.4278C64.5771 79.4969 64.8308 79.1292 64.5469 79.4269C64.501 79.4757 63.9464 80.1335 64.3143 79.6205C64.3675 79.5466 64.593 79.2706 64.6291 79.1977C64.6835 79.0882 64.6975 79.0005 64.6038 79.0783C64.5595 79.115 64.4029 79.322 64.3197 79.4257C64.3143 79.4259 64.304 79.4087 64.2986 79.4088C64.2501 79.4664 64.226 79.4915 64.2613 79.4352C64.3051 79.3657 64.5385 79.1131 64.6026 79.0047C64.6666 78.8964 64.6188 78.8765 64.5967 78.8736C64.5744 78.8709 64.2986 79.2207 64.2783 79.2428C64.1617 79.3694 63.9969 79.5117 63.9947 79.5093C63.8354 79.448 64.2007 78.7758 63.9231 78.8689C63.9018 78.8758 63.6094 79.2433 63.603 79.2481C63.4462 79.3737 64.2651 78.4308 64.5082 78.0896C63.9058 78.828 64.0022 78.6839 63.9133 78.7461C63.87 78.7766 63.6416 79.0666 63.6167 79.0949C63.245 79.5149 63.6934 78.9465 63.7844 78.8296C64.1192 78.3997 63.6995 78.8879 63.9231 78.6003C64.1447 78.3148 64.5012 77.9142 64.4748 77.9015C64.2527 78.1605 63.704 78.8633 63.5962 78.9618C63.1894 79.3349 63.5184 78.7012 63.5139 78.6044C63.5102 78.5083 63.4551 78.5449 63.5033 78.4256C63.5901 78.2098 63.1975 78.7427 62.9784 78.9554C62.7598 79.1684 63.7829 77.9028 63.995 77.6245C64.2067 77.3462 63.9787 77.6247 64.0917 77.4691C64.2045 77.3133 64.3648 77.1368 64.3951 77.0688C64.4251 77.0007 64.0024 77.4597 63.7727 77.7445C63.2855 78.3473 62.8012 79.001 62.9429 78.7491C62.9514 78.7342 63.2206 78.4016 63.2395 78.3615C63.3802 78.0536 63.3279 77.9876 63.4404 77.7074C63.4562 77.6683 63.751 77.2945 63.7634 77.2673C63.8916 76.9827 63.4278 77.6383 62.8658 78.3313C63.5829 77.3859 64.0013 76.7923 63.9615 76.754C63.9381 76.731 63.6345 77.151 63.4018 77.4332C63.3319 77.5184 63.5249 77.2187 63.3776 77.4129C62.8964 78.048 62.3851 78.7788 62.5562 78.4641C62.5644 78.4492 62.8267 78.1007 62.8362 78.075C62.8982 77.9064 62.4051 78.5781 62.307 78.632C62.2305 78.6745 62.4678 78.22 62.477 78.1259C63.2402 77.0317 63.0252 77.2543 62.4901 78.0027C62.4886 77.9783 62.4733 77.9728 62.4651 77.9573C62.4572 77.9424 62.4557 77.9182 62.4789 77.8586C62.495 77.8171 62.7164 77.5006 62.7387 77.4653C63.0876 76.911 62.5767 77.6457 62.5521 77.6715C62.3052 77.9166 62.628 77.3172 62.2097 77.836C62.1945 77.8546 61.6887 78.631 62.041 78.0531C62.0651 78.0132 62.3126 77.6711 62.3033 77.6263C62.2947 77.5819 62.5084 77.129 62.2403 77.4676C62.1755 77.5489 61.7528 78.1717 62.0464 77.6621C62.0863 77.5929 62.2301 77.3694 62.3049 77.2417C62.5426 76.8346 62.0402 77.6251 62.4471 76.9411C62.8539 76.2571 63.1354 75.7304 62.8049 76.1716C62.7952 76.1843 62.396 76.8103 62.3895 76.7926C62.3795 76.7637 62.431 76.6139 62.4071 76.605C62.3956 76.6009 62.162 76.9984 62.1559 77.0045C61.9537 77.1838 62.1191 76.8036 62.1366 76.606C62.1403 76.569 61.7782 77.0848 62.0074 76.6428C62.2579 76.1587 63.4495 74.2344 63.1042 74.6562C62.9657 74.8247 61.4622 77.2709 62.175 75.9641C61.8927 76.2251 62.1949 75.5192 61.8322 75.9159C61.8161 75.9334 61.3933 76.6143 61.3889 76.599C61.3832 76.575 61.5665 76.2482 61.5685 76.2207C61.5824 76.0977 61.3777 76.3487 61.3607 76.2806C61.3538 76.2554 61.558 75.9262 61.5498 75.8961C61.5415 75.8664 61.2672 76.2965 61.3674 76.0695C61.444 75.8966 61.9603 74.9909 61.9975 74.8715C61.4675 75.7524 61.4606 75.7236 61.2888 75.937C61.2556 75.9785 61.0777 76.289 61.0524 76.3244C60.9455 76.4754 61.0875 76.2147 60.9727 76.3799C60.945 76.4195 60.7637 76.7202 60.7309 76.7695C60.4445 77.2007 60.8206 76.5052 60.8866 76.3844C61.1362 75.925 60.8902 76.31 60.9809 76.1244C61.0716 75.939 61.2284 75.7334 61.2747 75.6156C61.371 75.3721 61.2931 75.3911 61.2638 75.3543C61.2509 75.3414 61.0169 75.7477 61.0094 75.7551C60.9155 75.8371 61.1442 75.3925 60.6383 76.1774C61.8797 74.1071 60.4966 76.3651 60.7036 75.9251C60.7205 75.8896 61.3154 74.9154 61.4166 74.7809C61.5178 74.6466 61.3511 74.963 61.5064 74.7518C61.543 74.7024 62.1269 73.8057 62.1639 73.7524C62.4544 73.3365 61.5679 74.7938 61.5205 74.8746C61.0095 75.7473 61.6412 74.7828 61.6904 74.7196C61.9174 74.4307 61.8235 74.6543 61.9896 74.4504C62.0971 74.3188 62.6775 73.364 62.6751 73.4025C62.6672 73.5298 61.8824 74.8768 62.6282 73.7482C62.7873 73.5075 63.4056 72.4543 62.9487 73.3C62.9198 73.3533 62.496 74.1235 62.7981 73.6567C62.8362 73.5978 63.0189 73.2924 63.037 73.2684C63.1543 73.1132 63.0207 73.3637 63.1099 73.2588C63.1992 73.154 63.3267 72.9943 63.2873 73.1114C63.2637 73.1814 62.942 73.7616 62.8656 73.905C62.645 74.318 63.0572 73.671 62.7791 74.1645C62.4999 74.6607 62.0346 75.3897 61.8779 75.7243C62.3517 74.9303 62.8395 74.1162 63.3167 73.318C63.3669 73.3857 63.2814 73.6827 63.3714 73.6886C63.383 73.6886 63.6281 73.256 63.6472 73.2449C63.7268 73.2003 63.5796 73.5251 63.693 73.4284C63.7815 73.3517 64.0864 72.9206 64.1885 72.8271C63.667 73.7481 63.9014 73.4698 63.8892 73.5752C63.885 73.6116 63.7388 73.8535 63.7006 73.938C63.5598 74.2512 64.025 73.4399 64.1104 73.3196C64.4763 72.8068 63.3881 74.622 63.4627 74.606C63.4661 74.6056 64.0822 73.6598 64.1233 73.6026C64.3893 73.2282 63.9244 73.9412 63.8987 74.0231C63.8519 74.1729 63.7334 74.4162 63.9438 74.1575C64.0058 74.0807 64.4011 73.4983 64.1382 73.9751C64.1038 74.0376 63.9067 74.3541 63.8975 74.3741C63.7477 74.7094 64.3645 73.7132 64.5987 73.3916C64.8332 73.0702 64.4452 73.7814 64.3289 73.9836C64.0293 74.5075 64.177 74.1926 64.1446 74.2421C63.7594 74.8319 63.8503 74.7457 63.8391 74.8088C63.2322 75.7843 63.2957 75.7428 63.8299 74.8705C63.8881 74.7751 63.8152 74.8559 63.8391 74.8088C64.455 73.8646 64.568 73.7651 64.04 74.6775C63.7922 75.105 63.4685 75.5812 63.6295 75.4341C63.7025 75.3679 64.1198 74.6958 64.2567 74.5274C64.5702 74.1438 64.2318 74.8038 64.3431 74.7379C64.3841 74.7143 64.6044 74.3409 64.6409 74.3125C64.739 74.2364 64.5887 74.5266 64.7143 74.4103C64.7261 74.3994 64.9702 74.0174 64.9842 74.0198C65.0367 74.0249 65.0443 74.0929 65.0457 74.1696C65.0471 74.2546 65.0403 74.3498 65.0814 74.3835C65.1189 74.414 65.3342 74.2598 65.3463 74.3303C65.3696 74.4505 65.0656 75.0443 65.2163 74.9565C65.3141 74.9012 65.5754 74.5306 65.7757 74.2946C66.1651 73.8379 65.5806 74.74 65.4871 74.8775C65.484 74.882 65.3884 74.944 65.2657 75.1428C64.9846 75.5381 65.4854 74.8788 65.4871 74.8775C65.4277 74.967 65.428 75.0961 65.4926 75.0364C65.5279 75.0037 65.7838 74.6587 65.7974 74.6482C66.1148 74.4065 66.2689 74.3875 66.2288 74.6111C66.225 74.6191 65.9269 74.9959 65.9214 75.0099C65.8369 75.215 66.2297 74.7762 66.4859 74.534C66.7418 74.2917 66.7014 74.4088 66.2092 75.0713C66.3028 75.0131 66.1155 75.3304 65.9995 75.5211C65.8836 75.7117 66.4737 74.9861 66.4874 74.9734C66.9232 74.5647 66.6237 75.0111 66.6349 75.1277C66.6395 75.1846 66.7852 75.1285 66.8824 75.0761C66.9603 75.0334 66.8364 75.2153 66.9487 75.1262C66.9637 75.1144 67.2252 74.7902 67.2364 74.7787C67.5792 74.4156 66.9195 75.191 66.8092 75.3358C66.4081 75.8619 66.1956 76.1431 66.426 75.93C66.4787 75.8811 67.434 74.769 67.5024 74.7143C67.5894 74.6452 67.248 75.0446 67.3476 74.9618C67.3558 74.9551 67.562 74.7051 67.5643 74.7255C67.5777 74.8171 67.5139 75.0092 67.5874 75.0279C67.5967 75.0314 67.9153 74.6277 67.934 74.6263C68.0217 74.6197 68.0618 74.6776 67.9542 74.9008C67.9268 74.9571 67.6906 75.2288 67.625 75.3133C67.3718 75.6396 67.5327 75.4696 67.6859 75.3009L67.6057 75.2364C67.6893 75.1381 67.7707 75.0404 67.7757 75.0361C68.1217 74.7335 67.6564 75.4485 67.9758 75.1826C67.9947 75.1672 68.6309 74.3854 68.1245 75.0855C68.0907 75.1319 67.5738 75.8492 67.9487 75.3749C67.9721 75.3452 68.2366 74.9748 68.2234 75.0228C68.2104 75.071 68.4148 74.8443 68.1372 75.2609C68.0495 75.3919 67.5416 76.1129 67.9789 75.5621C68.0101 75.5242 68.9798 74.2646 68.3418 75.1565C68.2368 75.3033 67.5498 76.2384 67.9251 75.7758C67.9976 75.6859 68.142 75.4709 68.249 75.3489C68.4135 75.1606 68.2551 75.4297 68.5798 75.0265C68.6375 74.9553 69.1133 74.3275 68.7769 74.8218C68.7243 74.8993 68.4943 75.2111 68.476 75.2513C68.3882 75.4442 68.5735 75.2582 68.4527 75.501C68.4105 75.5865 68.0427 76.0934 67.9591 76.2399C67.8756 76.3863 67.8103 76.5377 67.9887 76.3132C68.1668 76.0884 68.7246 75.2605 68.79 75.2088C69.073 74.9834 68.8246 75.5231 68.8667 75.6549C68.8727 75.6744 69.0616 75.371 69.0845 75.3782C69.1706 75.4043 69.4742 75.2037 69.1228 75.8803C68.8428 76.4233 68.5248 76.7685 68.4305 77.0023C68.3866 77.1144 69.0383 76.154 69.0624 76.126C69.3081 75.843 69.0615 76.2955 69.1874 76.1887C69.2134 76.1665 69.4579 75.7646 69.4771 75.75C69.5446 75.6963 69.4572 75.8894 69.5008 75.8715C69.5208 75.8625 69.7105 75.5575 69.7051 75.5868C69.6943 75.6535 69.6339 75.7939 69.4778 76.0934C69.4637 76.1207 69.2127 76.4908 69.2213 76.5158C69.2357 76.555 69.0962 76.8593 69.3093 76.5878C69.3733 76.5061 69.8046 75.8075 69.5274 76.3027C69.4695 76.4061 68.9474 77.2423 69.4179 76.5317C69.4967 76.414 70.1358 75.4582 69.7691 76.102C69.6726 76.2715 69.2666 76.9687 69.3444 76.8677C69.3565 76.8513 69.5793 76.4707 69.6112 76.4398C69.7196 76.3372 69.7305 76.3988 69.8361 76.301C69.8647 76.2742 70.0859 75.8748 70.1209 75.8472C70.2174 75.7705 70.2038 75.8977 70.1676 76.0422C70.1538 76.0962 69.9521 76.4161 69.9322 76.4521C69.608 77.0377 70.0768 76.2657 70.1086 76.2233C70.301 75.9707 70.1113 76.3512 70.1987 76.2723C70.2221 76.2514 70.4331 75.876 70.4541 75.8438C70.66 75.5296 70.258 76.1903 70.226 76.2703C70.1354 76.4969 70.1878 76.4872 70.2464 76.4575C70.2682 76.446 70.5046 76.0059 70.5211 76.0005C70.6236 75.9602 70.6622 76.0372 70.5859 76.3102C70.5712 76.3624 70.3755 76.6934 70.3347 76.7712C70.0498 77.3159 70.4846 76.5989 70.5288 76.5322C70.7319 76.2282 70.5755 76.5303 70.6285 76.4872C70.8886 76.2705 70.9112 76.5393 70.9471 76.7163C70.9958 76.9455 70.9325 77.3252 71.1051 77.3072C71.1157 77.3064 71.3411 76.8471 71.3532 76.8406C71.4999 76.7773 71.4957 76.999 71.6523 76.9118C71.6646 76.9053 71.8695 76.4657 71.8962 76.4407C71.9524 76.3862 71.9699 76.4242 71.9252 76.5747C71.9038 76.6473 71.7053 77.0133 71.6877 77.0789C71.6474 77.2328 71.6631 77.2789 71.7256 77.2228C71.7526 77.1979 71.9504 76.7427 71.9684 76.745C72.0949 76.7515 72.229 76.7205 72.0679 77.3532C72.0567 77.3966 71.6427 78.3156 71.7396 78.1474C71.8573 77.8936 71.9941 77.5944 72.1191 77.3228C72.3382 77.246 72.3423 77.6294 72.4654 77.7393C72.4703 77.7437 72.6659 77.2466 72.6761 77.2525C72.7393 77.2873 72.8479 77.1716 72.713 77.6887C72.6999 77.7393 72.3563 78.6138 72.4264 78.4885C72.4389 78.4656 72.513 78.3598 72.5917 78.1715C72.6034 78.143 72.7546 77.7314 72.7669 77.7224C72.8346 77.6768 72.8391 77.7849 72.782 78.0486C72.7729 78.0921 72.6155 78.5318 72.6081 78.5667C72.5603 78.8124 72.692 78.4817 72.5753 78.8893C72.5001 79.1648 72.2711 79.9389 72.0643 80.7061C72.0357 80.8145 72.0443 80.8354 71.924 81.2817C71.6232 82.4046 71.2708 83.6279 70.9505 84.8249C70.8816 85.0829 71.0252 84.8237 70.8172 85.4357C70.8032 85.4767 70.694 85.6688 70.621 85.8755C70.5704 86.0184 70.4617 86.4762 70.3881 86.6567C70.3136 86.8366 70.3991 86.4512 70.3015 86.6597C70.2035 86.8709 70.0609 87.3866 69.9783 87.4278ZM65.4789 76.3718C65.216 76.7369 66.2561 75.4623 65.9856 75.7497C65.9713 75.7651 65.4917 76.3538 65.4789 76.3718ZM62.6476 74.7494C62.3049 75.3898 62.8687 74.4838 63.1353 73.9903C63.4014 73.4974 62.7515 74.5553 62.6476 74.7494ZM62.0921 75.0353C61.8311 75.5457 63.0308 73.5452 62.7556 73.9301C62.74 73.9518 62.1073 75.0057 62.0921 75.0353ZM71.9325 80.9028C71.9262 80.9238 71.9334 80.9483 71.94 80.9277C72.0999 80.4302 72.09 80.383 71.9325 80.9028ZM61.5147 75.3614C61.3614 75.6374 61.5787 75.3431 61.7689 74.9996C61.922 74.7233 61.7055 75.018 61.5147 75.3614ZM65.3663 78.5424C65.3517 78.5622 65.3497 78.5883 65.4333 78.4779C65.7028 78.1221 65.6112 78.2107 65.3663 78.5424ZM61.0268 75.0939C61.0486 75.2109 60.0802 76.8776 60.1147 76.6432C60.1213 76.601 60.4693 76.14 60.5429 75.9812C60.6775 75.6923 60.0161 76.7057 60.3249 76.1342C60.3819 76.0299 61.0281 75.0837 61.0283 75.0917C61.0278 75.0924 61.0273 75.0931 61.0268 75.0939ZM64.2454 77.9154C64.2321 77.9326 64.2345 77.9611 64.2484 77.9447C64.5862 77.5462 64.5812 77.4882 64.2454 77.9154ZM65.4474 79.862C65.4216 79.9005 65.4357 79.9634 65.4615 79.9293C65.9711 79.2435 65.9471 79.1165 65.4474 79.862ZM62.4968 78.0962C62.1807 78.5164 62.1289 78.5558 62.4898 78.0033C62.486 78.0431 62.4992 78.0585 62.4968 78.0962Z" fill="black"/>
<path d="M65.8512 77.2732C65.9647 77.393 65.8039 77.3966 65.5879 77.3869C65.521 77.3837 65.2427 77.2964 65.1839 77.2907C65.0691 77.28 65.2015 77.3374 65.0659 77.3215C65.0194 77.3162 64.5766 77.1849 64.538 77.1825C64.3299 77.1696 64.4327 77.2404 64.3266 77.2584C63.8021 77.3516 63.5792 77.5508 63.3246 77.7599C63.2411 77.8282 62.8097 77.8575 62.9749 77.9784C62.9947 77.9923 63.3952 78.0547 63.4278 78.0623C63.9269 78.1779 63.1219 78.0304 63.0113 78.0327C62.5745 78.0414 62.5225 78.1302 62.6653 78.2329C62.7272 78.2767 63.5285 78.3624 63.0766 78.3284C63.0461 78.3263 62.6215 78.2546 62.5748 78.257C62.4695 78.2628 62.5398 78.3143 62.5037 78.326C62.4883 78.3308 62.4763 78.3349 62.467 78.3386C62.4398 78.3016 62.4435 78.2874 62.4433 78.2426C62.4392 78.1577 62.2247 78.0739 62.3128 77.9852C62.3325 77.9634 62.7745 77.9436 62.8444 77.8955C62.9147 77.8461 62.8579 77.7398 62.7483 77.7306C62.6392 77.7204 62.3051 77.8155 62.2266 77.8287C61.5706 77.9662 62.4456 77.6526 62.4576 77.6165C62.7399 77.2417 62.1646 77.3282 62.1187 77.2743C62.0751 77.2163 62.1553 77.0522 62.1102 77.0452C62.0555 77.039 61.9112 77.232 61.9419 77.2027C61.9443 77.1997 62.221 76.7608 62.2227 76.7551C62.2402 76.6946 62.2087 76.7445 62.1042 77.0816C62.094 77.116 61.902 77.5292 61.8821 77.589C61.7527 77.9424 61.55 78.829 62.2554 76.9747C62.2508 77.0555 62.2517 77.1405 62.1564 77.5299C62.0958 77.7807 61.9256 78.2473 62.0162 78.0539C62.0362 78.0107 62.1595 77.5939 62.1787 77.5602C62.2578 77.4183 62.2541 77.5645 62.3477 77.3574C62.3667 77.3142 62.4683 76.9383 62.4886 76.8711C62.6497 76.3265 62.4283 77.239 62.4195 77.3072C62.3712 77.5979 62.3831 77.6601 62.4077 77.6644C62.4243 77.6673 62.4483 77.6392 62.4662 77.6486C62.4759 77.6539 62.5778 77.1407 62.5902 77.1273C62.6516 77.0641 62.6908 77.1179 62.7037 77.3562C62.7066 77.4105 62.6148 77.8467 62.6124 77.8951C62.6047 78.1036 62.7577 77.2761 62.7516 77.4596C62.7508 77.4972 62.683 77.8726 62.677 77.9141C62.5834 78.5652 62.7547 77.6492 62.7615 77.6294C62.8575 77.3605 62.7429 78.3271 62.822 78.1996C62.8313 78.1833 62.8872 77.7037 62.9083 77.6871C63.0489 77.5731 63.1624 77.7212 63.2535 78.1201C63.2677 78.1815 63.2119 78.54 63.2081 78.5846C63.1517 79.281 63.271 78.3528 63.2814 78.3185C63.3627 78.0724 63.333 78.8582 63.4855 77.7536C63.6778 78.1624 63.9712 77.5601 64.1308 78.5755C64.1329 78.5873 64.0885 79.046 64.0929 79.0676C64.1466 79.3318 64.1922 78.6169 64.3149 77.7482C64.3457 77.53 64.2958 78.5871 64.2928 78.6646C64.2814 78.9503 64.2116 79.6324 64.2111 79.6879C64.2094 80.1237 64.3921 77.8638 64.4383 77.8669C64.4395 77.8708 64.3987 78.2862 64.3992 78.3279C64.4004 78.4587 64.4262 78.2944 64.4261 78.4386C64.4256 78.7721 64.3437 79.8707 64.4384 79.2352C64.4506 79.1528 64.5494 77.8705 64.5861 77.9345C64.6006 77.9611 64.6764 77.9453 64.6903 78.0302C64.704 78.1149 64.6549 78.5266 64.6548 78.5446C64.6643 79.0954 64.624 79.3199 64.5828 80.1307C64.5415 80.9384 64.6979 79.0169 64.7276 78.8035C64.7574 78.5907 64.7597 79.0447 64.7561 79.2022C64.7525 79.3597 64.7174 79.621 64.7186 79.7104C64.7268 80.2947 64.8272 78.7593 64.8734 78.4562C64.9833 77.7386 64.8945 79.166 64.9235 79.3092C64.9315 79.3479 64.9514 79.0228 64.9643 78.9934C65.0152 78.8812 64.9989 79.3276 65.0826 78.9246C65.096 78.8589 65.2142 78.0066 65.1795 78.637C65.1744 78.7279 65.1311 79.0816 65.1409 79.1627C65.1555 79.2844 65.1941 79.3664 65.2334 79.2506C65.2625 79.1649 65.2964 78.5783 65.3046 78.7624C65.3082 78.8446 65.253 79.1842 65.2623 79.3101C65.2714 79.4359 65.3273 79.4264 65.3493 79.4168C65.3712 79.4068 65.4058 78.9627 65.4105 78.9331C65.4384 78.7632 65.5019 78.5539 65.5057 78.5549C65.6984 78.5207 65.7781 79.2857 65.9878 79.0634C66.0044 79.0466 66.0583 78.58 66.0615 78.5727C66.138 78.3846 65.9297 79.6162 65.9046 80.0346C66.0311 79.0901 66.027 79.2637 66.0757 79.1651C66.0994 79.1168 66.143 78.7503 66.1498 78.7131C66.2554 78.1621 66.1692 78.8811 66.1515 79.0282C66.0877 79.5694 66.2004 78.9355 66.1573 79.2972C66.1138 79.6561 66.01 80.1822 66.0413 80.18C66.1018 79.8442 66.2119 78.9593 66.2593 78.8204C66.3649 78.5114 66.4398 78.6344 66.4903 78.8052C66.5274 78.925 66.5524 79.0683 66.5788 79.1037C66.6438 79.1901 66.6812 79.1336 66.7017 79.2637C66.7372 79.4991 66.8447 78.8458 66.9656 78.5624C67.0887 78.2798 66.7011 79.8606 66.6311 80.2034C66.5596 80.5458 66.6466 80.1964 66.6113 80.3856C66.5754 80.5745 66.5063 80.8026 66.5066 80.8768C66.5055 80.9505 66.6962 80.3565 66.7918 80.0034C66.992 79.2547 67.16 78.4583 67.152 78.7509C67.1512 78.7681 67.0357 79.1803 67.0377 79.2254C67.0544 79.5694 67.1472 79.6165 67.1538 79.923C67.1542 79.9656 67.0049 80.4178 67.0031 80.4476C66.9804 80.7593 67.192 79.9846 67.5099 79.1501C67.1372 80.2767 66.9363 80.9744 66.9777 80.9957C67.0035 81.0093 67.1656 80.5171 67.3059 80.1791C67.3487 80.0774 67.2536 80.4211 67.3387 80.1928C67.6193 79.447 67.8934 78.5977 67.8425 78.9569C67.8396 78.9738 67.6814 79.3803 67.6821 79.4087C67.6836 79.5934 67.9836 78.8159 68.0964 78.7514C68.1863 78.7013 68.0959 79.2134 68.1219 79.3147C67.5961 80.5407 67.7594 80.2785 68.1567 79.4486C68.1797 79.5001 68.2431 79.4718 68.2255 79.6039C68.2196 79.649 68.0479 79.9951 68.0318 80.0336C67.7757 80.6365 68.1714 79.8339 68.1953 79.8064C68.4308 79.5409 68.1934 80.1804 68.5755 79.632C68.5889 79.6121 69.0226 78.7931 68.7321 79.4047C68.7115 79.4466 68.4898 79.8064 68.5121 79.8549C68.5353 79.904 68.3641 80.3759 68.62 80.0268C68.6809 79.9424 69.0808 79.304 68.8181 79.8307C68.7821 79.902 68.648 80.1315 68.5798 80.2628C68.3619 80.6809 68.8333 79.8716 68.456 80.5724C68.0786 81.2732 67.8066 81.8041 68.126 81.355C68.1352 81.3419 68.5223 80.7084 68.531 80.7271C68.5439 80.7572 68.4963 80.909 68.5221 80.919C68.5347 80.9235 68.7661 80.5248 68.7725 80.5188C68.9858 80.3461 68.8281 80.7319 68.8111 80.9323C68.8069 80.9694 69.19 80.4682 68.95 80.9047C68.6851 81.3814 67.4253 83.2616 67.7794 82.8488C67.9189 82.6823 69.5387 80.3112 68.7666 81.5842C69.0703 81.3437 68.7299 82.0331 69.1228 81.6651C69.1403 81.6488 69.6112 81.0002 69.6158 81.0167C69.6215 81.0423 69.4159 81.3555 69.4129 81.3835C69.3936 81.5076 69.6193 81.2746 69.6357 81.3473C69.6422 81.3741 69.4129 81.6862 69.4198 81.7176C69.4268 81.7487 69.7356 81.3426 69.6196 81.5623C69.5311 81.7298 68.9446 82.5917 68.8997 82.7091C69.5001 81.8745 69.5062 81.9049 69.6969 81.7078C69.734 81.6696 69.9365 81.3745 69.9648 81.3414C70.0848 81.2006 69.9226 81.4493 70.0518 81.2949C70.0828 81.2579 70.2886 80.9734 70.3257 80.9271C70.6488 80.5226 70.2189 81.1865 70.1436 81.3017C69.8586 81.7401 70.1365 81.3776 70.0317 81.5557C69.9266 81.7335 69.7515 81.924 69.6966 82.0384C69.5828 82.2748 69.6659 82.2653 69.6961 82.3075C69.7089 82.3222 69.9758 81.9368 69.9841 81.9301C70.0867 81.8579 69.8235 82.2833 70.3958 81.5453C68.9854 83.5045 70.5544 81.3714 70.315 81.7953C70.2955 81.8296 69.6211 82.7505 69.5074 82.8749C69.3939 82.9992 69.5848 82.6965 69.4105 82.8926C69.3694 82.9384 68.7092 83.7806 68.6675 83.8304C68.3407 84.2186 69.3475 82.8416 69.4014 82.765C69.9838 81.9382 69.2695 82.8434 69.2142 82.9016C68.9603 83.1679 69.0699 82.9509 68.8854 83.1387C68.7659 83.2598 68.1075 84.1626 68.1117 84.1234C68.1265 83.9944 69.0193 82.7165 68.1805 83.778C68.0016 84.0043 67.3001 85.0041 67.8229 84.1972C67.8561 84.1465 68.3392 83.412 68.0001 83.8527C67.9574 83.9083 67.7507 84.198 67.7307 84.2205C67.6011 84.3656 67.7542 84.1265 67.6569 84.2239C67.56 84.3217 67.4201 84.4707 67.4687 84.3572C67.4977 84.2893 67.8629 83.7355 67.9499 83.5982C68.2008 83.2029 67.742 83.8177 68.0558 83.3461C68.3703 82.8715 68.889 82.1794 69.0674 81.8555C68.5372 82.6131 67.9918 83.3898 67.4585 84.1516C67.4158 84.0822 67.5259 83.795 67.442 83.7874C67.4312 83.7873 67.1597 84.2038 67.1412 84.2145C67.0654 84.2585 67.2333 83.9444 67.1216 84.0396C67.0341 84.1148 66.7168 84.536 66.6197 84.6309C67.1834 83.7353 66.9481 84.0108 66.9727 83.9117C66.981 83.8773 67.134 83.6397 67.1764 83.5574C67.3324 83.2525 66.8433 84.0496 66.7574 84.1694C66.3937 84.6824 67.5204 82.8908 67.4512 82.9092C67.4472 82.9092 66.8292 83.8534 66.7902 83.9119C66.5313 84.2904 66.993 83.5756 67.0242 83.4969C67.0817 83.3535 67.2026 83.1117 67.0057 83.3789C66.9468 83.4577 66.5711 84.0523 66.834 83.576C66.8683 83.5135 67.0588 83.193 67.0683 83.1732C67.2224 82.8415 66.6302 83.8526 66.4185 84.1885C66.2077 84.5249 66.5902 83.812 66.6993 83.6059C66.9839 83.074 66.8363 83.3872 66.8662 83.3362C67.2237 82.7293 67.1444 82.8237 67.1588 82.7635C67.7209 81.7615 67.6621 81.8076 67.1713 82.7051C67.1176 82.803 67.1815 82.716 67.1588 82.7635C66.5914 83.7376 66.5104 83.8576 66.9938 82.9214C67.2195 82.4822 67.5063 81.9828 67.3667 82.1468C67.3042 82.2211 66.9371 82.9218 66.8231 83.1055C66.5661 83.526 66.8722 82.8536 66.7883 82.9416C66.759 82.9742 66.5753 83.3664 66.5493 83.4024C66.4811 83.4996 66.6092 83.2007 66.5203 83.3426C66.5122 83.356 66.3195 83.7663 66.3127 83.7694C66.2589 83.8021 66.3525 83.5257 66.3209 83.5033C66.305 83.4924 66.1834 83.7127 66.1884 83.6607C66.1981 83.5736 66.3873 82.9407 66.3035 83.0811C66.2518 83.1717 66.1093 83.6022 66.0049 83.8929C65.8075 84.4581 66.125 83.4337 66.168 83.2731C66.1693 83.2677 66.2172 83.1708 66.2798 82.9465C66.4217 82.4828 66.1685 83.271 66.168 83.2731C66.1988 83.1703 66.1971 83.062 66.1658 83.1432C66.1488 83.1875 66.0281 83.5998 66.0219 83.6152C65.8783 83.9736 65.8297 84.0736 65.8404 83.8694C65.8418 83.8608 65.9569 83.3943 65.9585 83.3799C65.9819 83.1657 65.8283 83.7335 65.7359 84.0705C65.6425 84.4071 65.6577 84.2909 65.809 83.4799C65.771 83.5781 65.815 83.2151 65.8374 82.9942C65.86 82.7733 65.687 83.6925 65.6825 83.7104C65.6226 83.9401 65.5997 83.9933 65.5898 83.9683C65.575 83.9308 65.5893 83.7175 65.5656 83.6631C65.5478 83.6184 65.4754 83.7445 65.4326 83.8417C65.3987 83.92 65.4156 83.701 65.3746 83.8368C65.3691 83.8549 65.3146 84.2678 65.3116 84.2836C65.2207 84.774 65.3705 83.767 65.3902 83.5862C65.4615 82.9286 65.4942 82.5776 65.4186 82.8814C65.4006 82.9509 65.1906 84.4017 65.1679 84.4853C65.1376 84.5911 65.2095 84.0706 65.1753 84.1946C65.1725 84.2047 65.1329 84.5264 65.1236 84.5109C65.0797 84.4429 65.042 84.2487 64.9791 84.2744C64.9708 84.2767 64.9246 84.7888 64.9119 84.8006C64.8523 84.8554 64.795 84.8302 64.7633 84.5852C64.7556 84.5233 64.8001 84.166 64.8078 84.0593C64.8529 83.4139 64.7332 84.3463 64.7274 84.3637C64.58 84.803 64.5753 83.9486 64.4236 84.3416C64.415 84.3647 64.2792 85.364 64.3325 84.5014C64.3362 84.444 64.3907 83.5615 64.3192 84.162C64.3148 84.1995 64.2892 84.654 64.2696 84.6058C64.2498 84.5577 64.1858 84.8572 64.1949 84.3562C64.1978 84.1984 64.2468 83.3176 64.1558 84.0153C64.1495 84.064 63.9676 85.6436 64.0414 84.5494C64.0536 84.3693 64.1534 83.2133 64.0651 83.8029C64.0481 83.9172 64.04 84.1762 64.007 84.3357C63.9565 84.5814 63.9424 84.2684 63.862 84.7804C63.8479 84.871 63.7546 85.6535 63.7817 85.056C63.786 84.9624 63.8249 84.5769 63.8166 84.5327C63.7773 84.3207 63.6955 84.5739 63.6589 84.3019C63.6459 84.2062 63.7094 83.5831 63.7018 83.4141C63.6942 83.2451 63.6642 83.0805 63.6168 83.3637C63.5692 83.647 63.5092 84.6436 63.4671 84.7201C63.2835 85.0524 63.1765 84.455 63.0217 84.354C62.9984 84.3389 62.9844 84.6964 62.9472 84.6996C62.8132 84.7134 62.5278 85.0199 62.4876 84.2508C62.4593 83.6354 62.6374 83.1905 62.5929 82.9361C62.573 82.8149 62.3924 83.9618 62.3782 83.9969C62.2422 84.3539 62.2445 83.8358 62.1407 83.9808C62.119 84.0108 62.072 84.4791 62.0538 84.4995C61.991 84.5732 61.9644 84.3573 61.9083 84.3878C61.8828 84.4025 61.8339 84.7584 61.8164 84.7278C61.7746 84.6585 61.7493 84.5018 61.7525 84.1613C61.753 84.1303 61.8538 83.694 61.8195 83.6716C61.7634 83.6366 61.7448 83.2966 61.6139 83.6217C61.5748 83.7195 61.4272 84.5271 61.4801 83.9604C61.491 83.8419 61.6852 82.8754 61.4731 83.7022C61.4403 83.8402 61.1185 84.9482 61.2115 84.2112C61.2363 84.0174 61.3676 83.2208 61.315 83.3393C61.3069 83.3582 61.2315 83.793 61.1988 83.83C61.0923 83.9455 61.0105 83.8933 60.8977 83.9788C60.8905 83.9845 60.8831 83.9908 60.8756 83.9978C60.8424 84.0286 60.7721 84.4811 60.7249 84.5126C60.5946 84.5997 60.4899 84.4525 60.4262 84.2865C60.403 84.2244 60.5307 83.8676 60.5388 83.8272C60.678 83.1714 60.4076 84.0333 60.3772 84.0793C60.197 84.3555 60.247 83.9274 60.1287 84.0078C60.0959 84.0287 59.9824 84.4444 59.966 84.4795C59.8 84.8203 60.0739 84.096 60.0687 84.0048C60.0546 83.7466 59.9503 83.7478 59.8393 83.7665C59.7985 83.774 59.6681 84.2577 59.6322 84.2585C59.416 84.272 59.2188 84.1424 59.1343 83.8038C59.1186 83.7391 59.2984 83.3983 59.3266 83.3147C59.5297 82.7327 59.1118 83.4626 59.0565 83.5248C58.8172 83.8149 58.9303 83.4918 58.8294 83.5123C58.3186 83.6122 57.8953 83.0978 57.5586 82.641C57.1071 82.0282 56.9141 81.3312 56.3594 80.4766C56.3245 80.4196 55.8981 80.7105 55.8604 80.6601C55.3788 79.9709 55.332 78.9889 55.1974 78.098C55.1869 78.0225 54.7005 78.1302 54.6682 78.001C54.6064 77.7606 54.6445 77.4677 54.792 77.2493C54.8061 77.246 54.8216 77.243 54.8384 77.2403C54.9155 77.2279 55.3231 77.3173 55.3922 77.304C55.5542 77.2734 55.5964 77.224 55.5275 77.1591C55.4973 77.1309 55.0016 77.092 55.0006 77.0607C54.9828 76.8491 54.9336 76.6236 55.6029 76.5308C55.6489 76.5243 56.6426 76.693 56.4578 76.6292C56.183 76.5766 55.8594 76.5174 55.5655 76.4624C55.4621 76.1337 55.8655 75.9058 55.9868 75.62C55.9919 75.6077 55.4664 75.51 55.4736 75.4852C55.5147 75.3425 55.4066 75.1609 55.959 75.1436C56.0131 75.1417 56.9211 75.3827 56.7941 75.3064C56.7707 75.2933 56.666 75.1985 56.4732 75.1298C56.4441 75.1197 56.0171 75.0192 56.0102 74.9951C55.9783 74.8558 56.1113 74.7509 56.4029 74.707C56.4507 74.7004 56.8934 74.8505 56.9314 74.8467C57.1959 74.8245 56.8879 74.6162 57.3119 74.6787C57.595 74.7288 58.3644 74.9732 59.1305 75.1842C59.2402 75.2085 59.253 75.2287 59.6992 75.3503C60.83 75.6202 62.0533 75.974 63.2571 76.2684C63.3866 76.2962 63.3962 76.2589 63.4727 76.0806C63.5195 75.9649 63.5757 75.6619 63.6398 75.5815C63.7101 75.4935 63.8089 75.9223 63.9152 76.1847C63.9327 76.2143 63.9581 76.3994 64.0294 76.4635C64.0976 76.5441 64.1926 76.6049 64.2948 76.6455C64.4357 76.7032 64.8966 76.8013 65.0728 76.8894C65.2481 76.98 64.8642 76.8881 65.0739 76.9811C65.2878 77.0696 65.8014 77.219 65.8512 77.2732ZM65.9235 82.0048C65.9783 81.5585 65.6996 83.1797 65.7854 82.7952C65.7899 82.7746 65.9208 82.0267 65.9235 82.0048ZM68.2277 82.7719C68.6102 82.1544 67.9909 83.0234 67.6932 83.4987C67.3948 83.9727 68.1112 82.9587 68.2277 82.7719ZM68.8103 82.5323C69.1078 82.042 67.7577 83.9443 68.0626 83.5824C68.0798 83.562 68.793 82.5608 68.8103 82.5323ZM59.3177 75.3479C59.3388 75.3536 59.3653 75.3393 59.3448 75.3323C58.848 75.1702 58.7948 75.2003 59.3177 75.3479ZM69.431 82.2678C69.6058 82.0048 69.3626 82.2784 69.1453 82.6055C68.9702 82.8684 69.2132 82.5948 69.431 82.2678ZM64.8529 80.1091C64.8547 80.0846 64.8412 80.0613 64.8292 80.1993C64.7905 80.6439 64.823 80.5204 64.8529 80.1091ZM69.9348 82.6051C69.9153 82.4811 71.0184 80.9002 70.9694 81.1347C70.9605 81.1771 70.5716 81.6047 70.4865 81.7578C70.3311 82.0367 71.0762 81.083 70.724 81.6291C70.6592 81.7288 69.9332 82.6155 69.9331 82.6072C69.9336 82.6065 69.9342 82.6058 69.9348 82.6051ZM66.2456 80.0553C66.2487 80.0338 66.231 80.0098 66.2269 80.031C66.129 80.5441 66.1622 80.5922 66.2456 80.0553ZM64.0359 79.0189C64.0386 78.9726 63.9932 78.9252 63.9879 78.9677C63.8889 79.8163 63.9818 79.9148 64.0359 79.0189ZM68.1088 79.3478C68.3424 78.8764 68.4045 78.836 68.1569 79.448C68.1456 79.4047 68.1222 79.3888 68.1088 79.3478Z" fill="black"/>
<path d="M56.3114 84.8732C55.7665 85.049 54.9892 84.9735 54.3733 84.8453C54.1821 84.8055 54.2349 84.504 54.0984 84.4644C53.8307 84.3879 53.62 84.5651 53.3517 84.4731C53.2619 84.4414 53.2876 83.9687 53.1947 83.946C52.6819 83.8263 52.2547 84.0295 51.7664 84.0389C50.1963 84.0608 48.6191 84.4075 47.7428 84.8407C47.2226 85.1081 46.7306 85.4824 46.2608 85.9701C45.8123 86.424 44.9944 86.9868 44.8337 87.7929C44.8157 87.8855 45.2079 88.0021 45.2312 88.0316C45.5918 88.4798 44.8787 88.0695 44.7073 88.1948C44.0306 88.6937 43.7158 89.5164 43.6649 90.2803C43.6445 90.6067 44.5057 90.5117 43.986 90.7001C43.9507 90.7139 43.5562 90.5233 43.4889 90.5969C43.3366 90.7642 43.3171 91.1568 43.2474 91.3031C43.1104 91.5839 43.1031 91.6356 43.0345 91.9191C42.9376 92.3057 42.6306 92.7341 42.6424 93.1849C42.6427 93.1946 42.6478 93.203 42.6566 93.2103C42.7352 93.2722 43.1068 93.2628 43.1498 93.3969C43.1969 93.546 43.0974 93.8967 42.9756 94.0026C42.8533 94.1078 42.5191 94.002 42.4371 94.0113C41.7436 94.0935 42.6031 94.6621 42.6204 94.7143C42.883 95.752 42.2996 96.5634 42.2834 97.5338C42.2733 98.2648 42.4682 99.0408 42.4867 99.7373C42.5071 100.565 42.3397 101.3 42.4864 102.11C42.5015 102.195 43.0026 102.027 43.0221 102.13C43.2291 103.22 43.3684 104.313 43.267 105.489C43.2566 105.608 42.7802 105.562 42.7434 105.687C42.7001 105.84 42.6408 106.014 42.5907 106.197C42.3901 106.922 42.3374 107.765 43.9588 107.712C44.003 108.206 44.0742 108.817 43.7917 109.351C43.61 109.696 43.0614 109.535 43.3499 109.833C43.4144 109.9 43.8131 109.698 43.878 109.808C44.1506 110.271 44.1354 110.852 44.4585 111.31C44.5253 111.404 44.9011 111.298 44.9758 111.314C45.5838 111.451 44.7424 112.048 44.6905 112.145C44.3161 112.915 44.5945 113.374 44.6759 114.007C44.6947 114.157 45.1865 113.905 45.223 114.046C45.4047 114.776 45.4537 115.552 45.2967 116.294C45.2607 116.462 44.8022 116.358 44.7623 116.44C44.5899 116.79 45.4348 116.785 45.2833 117.128C45.2522 117.198 44.8689 117.194 44.8283 117.21C44.1901 117.457 45.1324 117.545 45.1571 117.594C45.489 118.203 44.5465 118.67 44.7212 119.267C44.7428 119.337 45.215 119.147 45.2465 119.346C45.4515 120.64 45.382 122.027 45.0533 123.32C45.0402 123.381 45.0262 123.441 45.0113 123.5C44.9516 123.735 44.5893 123.565 44.5447 123.581C43.8454 123.803 44.7741 123.966 44.8056 124.053C45.0292 124.695 44.1761 125.116 45.1799 125.755C44.7121 127.138 43.9823 128.684 43.1916 129.613C43.1257 129.7 43.0758 129.764 42.9849 129.868C42.9289 129.932 42.8681 129.999 42.7764 130.085C42.7281 130.128 42.6083 130.244 42.4003 130.365C42.2836 130.429 42.1751 130.494 41.9053 130.566C41.674 130.624 41.3261 130.662 40.9326 130.547C40.5391 130.438 40.1728 130.154 39.9794 129.886C39.879 129.753 39.8101 129.625 39.7612 129.513C39.7355 129.454 39.7151 129.399 39.6982 129.347C39.6647 129.244 39.6452 129.156 39.632 129.079C39.6064 128.926 39.6041 128.816 39.605 128.726C39.611 128.526 39.6219 128.501 39.6309 128.433C39.6488 128.321 39.6767 128.211 39.6898 128.167C39.7211 128.057 39.7593 127.946 39.7865 127.878C39.9097 127.562 40.0336 127.323 40.1702 127.087C40.4449 126.615 40.77 126.19 41.1753 125.797C41.1965 125.775 41.606 125.993 41.6465 125.948C42.1358 125.418 41.4223 125.274 40.7727 124.536C40.6086 124.353 41.7167 124.426 41.8005 124.425C42.1061 124.429 42.7027 124.785 42.7676 124.771C43.2823 124.649 41.1558 123.862 41.3012 123.487C41.3094 123.476 41.679 123.677 41.73 123.661C41.8898 123.609 41.7735 123.45 41.945 123.405C42.3397 123.305 43.4008 123.616 42.9308 123.047C42.8691 122.975 41.6423 122.584 41.8255 122.269C41.9001 122.144 42.098 121.543 42.2349 121.406C42.373 121.267 42.7222 121.521 42.7433 121.516C43.4208 121.246 43.5729 121.496 44.4205 121.53C45.2655 121.56 43.42 120.998 43.2478 120.836C43.0759 120.677 43.6164 120.486 43.7919 120.453C43.9681 120.42 44.185 120.605 44.2937 120.558C45.007 120.239 43.4514 120.051 43.2094 119.802C42.6313 119.223 44.0829 119.353 44.3138 119.034C44.3753 118.949 44.0404 118.942 44.0324 118.853C44.0129 118.635 44.1991 118.509 44.2544 118.341C44.2903 118.227 44.2848 118.095 44.1759 117.909C44.1258 117.83 43.3842 117.263 44.0568 117.21C44.153 117.205 44.4704 117.389 44.5912 117.26C44.7715 117.068 44.9749 116.695 44.9489 116.42C44.9302 116.214 44.304 116.216 44.5593 116.052C44.673 115.981 44.9254 116.284 45.1111 116.146C45.2943 116.009 45.4698 115.55 45.5378 115.376C45.6045 115.2 45.1577 115.107 45.1366 115.081C45.0182 114.924 44.9896 114.49 45.0065 114.46C45.7339 112.894 47.2446 112.099 48.0904 110.785C48.1587 110.682 47.7554 110.428 47.7623 110.408C47.9068 109.958 48.6014 111.048 49.1013 111.123C48.3761 110.504 48.6185 110.495 48.7472 110.211C48.8091 110.074 48.4908 109.872 48.4727 109.836C48.2212 109.291 48.8438 109.692 48.9737 109.772C49.4563 110.059 49.1107 109.496 49.4331 109.69C49.7519 109.884 49.9746 110.415 50.1651 110.22C49.9839 109.921 49.2145 109.425 49.2679 109.172C49.3378 108.845 49.572 108.568 49.868 108.336C50.5625 107.771 51.4929 107.599 51.9061 107.432C52.5426 107.177 52.7138 107.041 53.1168 106.999C53.84 106.938 53.3545 106.425 53.6547 105.983C53.9601 105.544 54.3248 107.146 54.5039 107.453C54.679 107.761 54.6135 107.402 54.7467 107.558C54.8785 107.715 54.8156 107.99 54.9956 108.002C55.1742 108.014 55.4022 107.278 55.3448 106.912C55.2195 106.137 54.7586 105.432 55.2874 105.558C55.3175 105.566 55.3705 105.999 55.4791 106.009C56.3378 106.074 57.1201 105.856 57.9525 105.896C58.0673 105.902 58.1203 106.385 58.1889 106.394C58.9055 106.483 58.4389 105.79 58.494 104.834C58.7907 105.985 59.2058 106.615 59.6873 106.457C59.9754 106.361 59.7555 105.889 59.8136 105.481C59.83 105.358 60.1497 105.62 60.1015 105.378C59.9409 104.587 59.452 103.82 60.0289 103.98C60.055 103.988 60.1483 104.42 60.2274 104.417C60.7403 104.401 60.4821 103.607 60.8892 103.318C61.2057 103.094 62.0355 103.249 62.4574 103.093C62.6996 103.514 62.8829 103.718 63.0048 103.762C63.2189 103.839 63.2319 103.431 62.9943 102.886C63.2515 102.761 63.4672 102.54 63.7634 102.468C63.8654 102.442 64.0564 102.784 64.0918 102.809C64.6558 103.197 64.1917 102.417 64.214 102.352C64.5015 101.66 65.3859 101.734 65.3454 100.792C65.3443 100.757 64.6768 100.115 65.2967 100.434C65.3401 100.455 65.5117 100.9 65.7422 100.685C65.9697 100.476 66.7426 100.315 66.6708 99.6976C66.6557 99.5471 66.2094 98.8885 66.8103 99.0609C66.8918 99.0844 67.0882 99.2663 67.2327 99.3189C67.6957 99.4828 66.9775 98.8772 67.7194 99.2061C68.4615 99.5346 69.1589 99.5778 68.9631 98.8824C68.9585 98.8605 68.4014 98.3582 68.4902 98.2447C68.6337 98.0625 68.9416 97.8712 69.0673 97.6647C69.1273 97.5656 68.6985 97.3808 68.7021 97.3594C68.8967 96.5701 69.5321 96.3185 70.1163 95.6964C70.21 95.5978 69.9851 95.0558 70.3061 94.9173L70.2606 95.0356C70.2986 95.0007 70.351 94.97 70.4216 94.9448C71.0153 94.7275 73.1823 95.479 72.7879 94.6011C72.6303 94.2369 69.8509 93.4376 71.396 93.1109C71.1704 92.0203 72.0225 91.1183 71.5728 90.0169C71.5529 89.9672 70.7636 89.764 70.7815 89.6554C70.8097 89.4933 71.1889 89.4259 71.2204 89.3097C71.3615 88.8223 71.062 88.3561 71.1283 87.8847C71.1525 87.7051 71.5375 87.7811 71.5657 87.5655C71.5933 87.3486 71.0873 87.1939 71.3394 86.9073C71.5313 86.692 72.577 86.4847 72.701 86.1849C71.673 86.1648 71.6964 85.9621 71.425 85.6046C71.3723 85.5363 71.0146 85.6097 70.9712 85.5775C70.7866 85.4462 71.0827 85.323 70.8812 85.2001C70.8328 85.1703 70.4817 85.1714 70.4222 85.1471C69.9039 84.942 70.6886 84.5899 70.8249 84.5265C71.3431 84.2898 70.884 84.1887 71.0853 84.0103C71.2862 83.8277 71.5502 84.0865 71.6694 83.8755C71.9161 83.4392 71.838 82.8859 71.831 82.4481C71.826 82.2731 71.3643 82.4175 71.3527 82.393C71.3347 82.3471 71.3272 82.301 71.3256 82.2551C71.278 81.9708 71.3976 81.5223 70.6036 81.7585C71.6317 81.1167 71.5028 81.0143 71.2031 81.1103C70.8855 81.1854 70.4402 81.4771 70.4516 81.1735C70.463 81.1339 71.0733 80.1552 71.3798 80.1931C71.6997 80.2475 71.6774 80.769 72.0501 80.9231C72.1374 80.9338 73.3204 80.9788 73.4065 81.0497C74.0684 81.4488 72.4002 81.8993 72.3172 81.936C72.1899 81.9978 72.1019 82.0521 72.0453 82.1011C72.0481 82.1239 72.0611 82.1907 72.0604 82.2136C71.6571 82.4294 72.5382 82.6667 72.6106 82.7473C72.9951 83.1699 72.7679 83.5544 73.0378 83.9137C73.2122 84.1496 74.3296 84.1486 74.2993 84.3437C74.1973 84.991 72.6398 85.2106 73.9908 85.8077C74.2784 85.9366 75.5012 85.8163 74.5372 86.2743C74.4765 86.3052 73.5943 86.6336 74.1462 86.841C74.2158 86.867 74.5716 86.8726 74.6009 86.9061C74.7901 87.131 74.5033 87.2733 74.6326 87.5175C74.7617 87.763 74.9545 88.0618 74.8229 88.3338C74.7442 88.4985 74.0722 88.6824 73.9064 88.753C73.429 88.9524 74.1821 89.2303 73.6088 89.3374C73.0327 89.4423 72.1851 89.1288 71.7973 89.4606C72.7195 89.529 73.665 89.6169 74.5919 89.6957C74.5097 90.5052 74.1475 91.2771 74.1028 92.0944C74.0981 92.1961 74.6035 92.1445 74.611 92.2561C74.6395 92.7281 74.2393 93.0895 74.3138 93.5878C74.3732 93.9749 74.832 94.4654 74.8953 94.8912C74.0156 94.9479 74.0165 95.3784 73.9477 95.7616C73.8789 95.9986 73.6745 96.6492 73.5295 96.8489C73.4888 96.9201 73.446 96.9874 73.3921 97.0419C73.2922 97.1434 73.0549 96.9895 72.925 97.0268C72.4407 97.1702 73.3317 97.503 73.4048 97.6668C73.7133 98.3706 71.884 97.3064 71.658 97.7758C71.6457 97.7999 72.4284 98.6802 72.4619 98.7592C72.692 99.2571 72.102 98.5946 71.9321 98.7098C71.6205 98.921 71.2671 98.9768 71.3247 99.4976C71.3433 99.6495 71.7739 100.278 71.1896 100.174C71.1133 100.161 70.8119 99.9404 70.7801 99.9488C70.2304 100.117 71.1946 100.781 71.3711 101.225C71.5466 101.671 70.6433 101.546 70.4064 101.476C69.7904 101.299 70.294 101.191 70.2524 101.146C69.7569 100.628 69.6872 100.936 69.5081 101.08C68.5605 100.431 68.4381 100.713 69.3251 101.233C69.4227 101.289 69.4396 101.086 69.5081 101.08C70.3055 101.9 70.196 102.292 69.1252 101.952C68.6237 101.79 68.2805 101.301 68.1086 101.85C68.0281 102.098 68.6982 102.529 68.7184 102.841C68.7564 103.562 67.7417 103.583 67.441 104.045C67.3283 104.216 67.7728 104.385 67.7039 104.515C67.5173 104.862 67.0528 104.85 66.8754 105.224C66.859 105.259 67.2216 105.545 67.1323 105.63C66.4993 106.235 65.7161 106.505 64.9179 106.941C64.8619 106.971 64.8058 107.002 64.7497 107.034C64.3452 107.272 63.732 107.868 63.2921 108.012C62.524 108.276 61.4323 107.992 60.9126 108.348C60.5696 108.58 60.8025 108.977 60.7404 109.326C60.6147 110.004 59.7234 109.169 59.6033 109.033C59.5993 109.029 59.8836 108.823 59.6414 108.657C59.3922 108.229 59.6064 109.03 59.6033 109.033C59.5207 108.948 58.8627 109.051 58.7678 109.172C58.7152 109.238 58.8822 109.636 58.8523 109.662C58.1381 110.291 57.3769 110.639 56.5694 110.7C56.5535 110.697 56.4194 110.235 56.3838 110.232C55.8777 110.178 55.8022 110.83 55.61 111.277C55.4162 111.726 55.1645 111.706 54.6553 111.03C54.4777 111.221 54.03 111.035 53.7613 110.931C53.4884 110.828 53.9397 111.65 53.9379 111.672C53.8928 112.287 53.6129 112.107 53.3552 112.127C53.2722 112.167 53.1893 112.214 53.1086 112.272C52.8436 112.461 52.4929 112.986 52.3412 113.287C52.2211 113.526 51.9581 113.484 51.9032 113.747C51.8958 113.783 52.2217 114.044 52.227 114.062C52.4256 114.581 51.7571 113.805 51.5874 113.72C50.971 113.416 50.6171 113.281 50.6358 113.738C50.6369 113.846 51.6279 114.947 51.622 115.091C51.6071 115.284 51.2324 114.911 51.2279 115.124C51.2274 115.142 51.4853 115.338 51.4127 115.41C51.0795 115.746 50.6405 116.062 50.432 116.49C50.4031 116.547 50.889 116.733 50.8566 116.816C50.7045 117.208 50.4996 117.589 50.1246 117.875C50.0306 117.946 49.7198 117.754 49.6122 117.735C48.9563 117.633 49.7642 118.159 49.773 118.189C49.8816 118.732 49.5549 119.047 49.3487 119.466C49.1805 119.925 49.0386 120.373 49.0476 120.884C49.0517 120.959 49.8551 121.787 48.9586 121.752C48.8987 121.751 47.986 121.704 48.4979 122.082C48.5297 122.106 49.0073 122.111 48.8844 122.335C48.7612 122.56 48.9189 123.039 48.3353 123.189C48.1512 123.238 47.2384 123.174 47.7935 123.704C47.8338 123.738 49.1577 124.743 48.0698 124.521C47.8909 124.484 46.8148 124.05 47.2428 124.601C47.326 124.707 47.613 124.68 47.6989 124.909C47.8315 125.263 47.4084 125.497 47.7653 126.005C47.8293 126.093 48.4696 126.619 47.8386 126.59C47.7399 126.586 47.4013 126.388 47.322 126.472C46.9421 126.87 46.9881 127.455 46.5541 127.821C46.4001 127.953 45.8517 127.637 45.6281 127.746C45.4045 127.854 45.1184 128.138 45.3169 128.417C45.5174 128.69 46.5196 128.867 46.4946 129.152C46.4733 129.446 46.3967 129.731 46.3391 129.879C46.3263 129.911 46.3147 129.935 46.3152 129.913C46.316 129.9 46.3212 129.871 46.3322 129.811C46.3379 129.768 46.3732 129.631 46.4074 129.333C46.4062 129.229 46.5025 128.894 46.3792 128C46.3425 127.77 46.2851 127.494 46.169 127.156C46.1399 127.071 46.1068 126.982 46.069 126.89C46.0468 126.837 46.041 126.821 45.9986 126.727C45.9567 126.634 45.9097 126.537 45.8567 126.437C45.6458 126.04 45.3328 125.582 44.874 125.149C43.975 124.246 42.4124 123.731 41.3532 123.793C40.8306 123.8 40.3219 123.914 40.0802 123.987C39.9097 124.036 39.7589 124.089 39.6241 124.143C38.583 124.591 38.3239 124.93 38.1189 125.099C38.0043 125.209 37.931 125.291 37.8756 125.356C37.7621 125.49 37.7402 125.533 37.7229 125.564C37.7064 125.596 37.7032 125.612 37.7079 125.618C38.041 125.264 38.1135 125.284 38.2437 125.198C38.3586 125.133 38.4545 125.068 38.5191 124.98C38.5567 124.928 38.211 124.827 38.2359 124.751C38.3223 124.494 38.1592 123.966 38.6264 123.438C38.6819 123.328 38.748 123.226 38.8264 123.134C39.4188 122.44 39.901 123.286 40.1362 122.759C40.2482 122.51 39.0801 122.258 39.0418 122.202C38.6531 121.632 39.151 121.203 38.9688 120.677C38.931 120.569 38.4662 120.698 38.4392 120.607C38.3431 120.305 38.5344 119.953 38.4784 119.664C38.4522 119.533 38.095 119.577 38.1149 119.452C38.1582 119.153 38.2913 118.89 38.6052 118.576C38.6338 118.548 39.0928 118.69 39.0928 118.472C39.0917 118.121 39.3852 117.653 39.0043 117.279C38.8897 117.169 38.0736 117.254 38.6109 116.937C38.7231 116.873 39.7108 116.834 38.832 116.63C38.6863 116.596 37.4894 116.238 38.1938 115.911C38.3793 115.824 39.1585 115.557 39.0141 115.434C38.9914 115.418 38.5648 115.554 38.5063 115.442C38.3083 115.051 38.2922 114.625 38.0874 114.233C38.0322 114.131 37.6089 114.367 37.5409 114.213C37.353 113.788 37.3647 113.22 37.4147 112.755C37.4342 112.585 37.827 112.619 37.865 112.599C38.4809 112.274 37.572 112.343 37.5075 112.294C37.115 111.971 37.4606 111.581 37.2634 111.235C37.2102 111.14 36.8085 111.312 36.7663 111.301C36.3516 111.18 37.141 111.156 37.1916 111.002C37.3358 110.57 37.1944 110.146 37.0404 109.759C36.9831 109.616 36.5405 109.904 36.4946 109.774C36.2645 109.148 36.1064 108.438 36.1001 107.694C36.0982 107.529 36.1042 107.364 36.1188 107.201C36.135 107.03 36.5327 107.047 36.6112 106.995C37.1607 106.635 36.2719 106.48 36.177 106.414C35.7468 106.131 36.053 105.925 35.9305 105.622C35.3216 104.137 35.2771 102.128 35.3144 100.597C35.3589 98.5945 35.7274 97.0479 35.7915 95.126C35.7968 95.0036 35.2763 95.0819 35.2745 94.9745C35.2765 93.9195 35.5127 92.8934 35.7006 91.857C35.7546 91.5565 35.801 91.2475 35.8307 90.9302C35.8417 90.8237 35.3354 90.8748 35.3375 90.6988C35.3387 90.3368 35.4647 89.8945 35.7016 89.5707C35.8161 89.4131 36.1644 89.7442 36.2712 89.585C36.5211 89.2154 36.6672 88.7881 36.712 88.3419C36.7305 88.1508 36.1751 88.2919 36.2376 88.0512C36.6541 86.4192 37.208 84.6395 38.7281 83.2345C38.8337 83.1371 39.7622 83.541 39.7345 83.2111C39.5055 83.0492 39.2233 82.8801 38.9722 82.7176C39.869 81.0099 41.3772 79.4306 43.2054 78.3034C44.1655 77.705 45.0547 77.3285 45.8928 76.9953C46.0026 76.9521 45.6075 76.5374 45.8231 76.4503C47.0561 75.9587 48.1662 75.4816 49.4476 75.7175C49.5739 75.7409 49.7334 76.6674 50.0266 76.4545C50.0785 76.4151 50.5419 76.1863 50.6299 75.9613C50.6413 75.9276 50.462 75.5165 50.621 75.4712C51.545 75.2165 52.5426 75.1592 53.4983 75.3112C53.6512 75.3368 53.5505 75.8196 53.6604 75.8419C54.4301 75.9978 55.2124 75.5697 55.9736 75.9532C56.4776 76.2137 56.3409 77.0293 56.6123 77.8143C56.6541 77.9246 56.9389 77.936 56.9641 78.3986C57.013 79.5605 56.9076 80.8351 56.9778 82.0733C56.9991 82.3392 57.2662 82.0508 57.1106 82.6963C57.1015 82.7391 56.9018 82.956 56.8564 83.1765C56.8252 83.3287 56.9006 83.7969 56.8358 83.9925C56.7748 84.1879 56.683 83.7966 56.5719 84.0294C56.465 84.2653 56.5409 84.7962 56.3114 84.8732ZM52.5371 110.533C52.1227 110.282 53.1248 111.587 53.0038 111.185C52.9969 111.164 52.5571 110.545 52.5371 110.533ZM72.9055 91.1624C72.1546 91.4143 73.1944 91.7349 73.7743 91.5609C74.3537 91.3819 73.1333 91.0831 72.9055 91.1624ZM72.575 87.8346C71.9905 88.1821 74.3191 88.3327 73.8622 87.9099C73.8364 87.8853 72.6089 87.8141 72.575 87.8346ZM55.4997 78.1019C55.5054 78.1232 55.7061 78.1301 55.7087 78.1084C55.7809 77.5795 55.3729 77.5663 55.4997 78.1019ZM72.0265 84.5898C71.7131 84.7096 72.0809 85.0326 72.4717 84.8866C72.7863 84.769 72.4167 84.4395 72.0265 84.5898ZM45.0923 119.231C45.0678 119.228 45.0097 119.359 45.1439 119.393C45.5773 119.501 45.5076 119.274 45.0923 119.231ZM69.2983 79.7969C70.2213 80.097 69.7847 82.0396 69.2687 81.6359C69.1486 81.5612 69.7115 81.1239 69.597 80.9096C69.3331 80.5054 68.8645 81.6466 68.6359 80.9472C68.5856 80.8168 69.2425 79.7734 69.3003 79.7946C69.2997 79.7953 69.299 79.7961 69.2983 79.7969ZM51.259 109.021C51.2417 109.006 51.079 109.108 51.0896 109.128C51.3448 109.592 51.6466 109.407 51.259 109.021ZM41.4045 126.44C41.3587 126.429 41.1529 126.833 41.189 126.859C41.9001 127.384 42.3106 126.587 41.4045 126.44ZM62.4813 103.12C62.46 103.009 62.4487 102.913 62.4479 102.836C62.444 102.536 62.6031 102.515 62.9932 102.886C62.8555 102.944 62.7267 103.015 62.5915 103.075C62.5554 103.091 62.5187 103.106 62.4813 103.12Z" fill="black"/>
<path d="M37.4103 100.548C37.4648 100.144 37.7923 99.9058 38.1058 99.8071C38.2033 99.7763 38.4265 99.968 38.5043 99.9551C38.6575 99.9275 38.5857 99.7772 38.7533 99.7701C38.8096 99.7691 39.1701 100.06 39.2201 100.054C39.4864 100.025 39.481 99.8266 39.66 99.7443C40.5312 99.3574 41.1192 98.892 41.763 98.441C41.9735 98.2942 42.4877 98.334 42.5109 98.0253C42.5136 97.9887 42.1944 97.7382 42.1727 97.7122C41.8428 97.3112 42.4444 97.8668 42.5645 97.8939C43.0377 98.0023 43.2293 97.8402 43.2577 97.5726C43.2681 97.4589 42.6051 96.9929 43.0048 97.2235C43.0319 97.239 43.3377 97.5429 43.3888 97.5546C43.5039 97.5806 43.5193 97.448 43.5748 97.4375C43.6824 97.4194 43.6883 97.4064 43.7462 97.3497C43.8285 97.2745 44.0749 97.3219 44.0827 97.1693C44.0836 97.1357 43.736 96.8618 43.7083 96.781C43.6806 96.7004 43.7823 96.6455 43.8827 96.6902C43.9835 96.7346 44.2272 96.9818 44.2898 97.0313C44.8163 97.4503 44.22 96.7273 44.2146 96.6993C44.1283 96.2186 44.6849 96.4017 44.8723 96.2056C45.0131 96.0565 45.0436 95.7755 45.1991 95.6526C45.347 95.5372 45.5689 95.5323 45.7225 95.4425C45.7673 95.4149 45.8073 95.3812 45.8396 95.3377C45.8561 95.3164 45.4725 94.9657 45.4925 94.9383C45.7061 94.6481 46.0135 94.446 46.5085 94.4862C46.5582 94.4908 46.818 94.8676 46.8845 94.8936C47.2921 95.0389 48.0726 95.5675 46.9721 93.9134C47.1384 93.8836 47.3372 93.8371 47.6764 94.0871C47.8941 94.2485 48.1121 94.7017 48.0732 94.4707C48.0651 94.4189 47.7928 94.0788 47.8006 94.0274C47.8351 93.8103 48.0515 93.8366 48.0639 93.5641C48.0662 93.5076 47.8531 93.1816 47.8241 93.117C47.5954 92.5902 48.2009 93.3218 48.2568 93.3684C48.6762 93.6817 48.7244 93.4787 48.8953 93.3847C48.9049 93.3794 48.9149 93.3745 48.9252 93.3701C48.9723 93.3503 48.6855 92.9085 48.7251 92.8714C48.935 92.6848 49.2419 92.6045 49.5913 92.7334C49.6691 92.7635 49.7521 93.2052 49.7946 93.2419C49.9702 93.4026 49.7597 92.5872 49.9424 92.7261C49.9793 92.7549 50.06 93.1281 50.0755 93.1674C50.306 93.7868 50.1451 92.868 50.1668 92.8421C50.3864 92.5075 50.7045 93.444 50.9216 93.2935C50.9528 93.2745 50.8512 92.7962 50.9472 92.7721C51.5059 92.6186 52.3156 92.8571 52.7475 93.4529C52.7737 93.5111 52.7967 93.5721 52.8164 93.6356C52.843 93.7211 52.6137 94.0061 52.5945 94.0467C52.2831 94.6746 52.8076 93.8994 52.8469 93.8825C53.1357 93.7657 52.8017 94.4895 53.5544 93.6597C53.915 94.3956 54.9158 94.5527 54.5258 95.7023C54.5214 95.7157 54.1427 95.9788 54.1351 96.0039C54.0359 96.3067 54.5909 95.8526 55.3925 95.4711C55.5963 95.3791 54.778 96.0574 54.7163 96.1048C54.4952 96.2884 53.906 96.6404 53.8655 96.6793C53.5435 96.9804 55.4357 95.7306 55.5069 95.8411C55.5057 95.8464 55.1444 96.0558 55.1149 96.0867C55.0215 96.1828 55.1786 96.1212 55.0726 96.2229C54.8275 96.4587 53.8949 97.045 54.4942 96.7982C54.5722 96.7668 55.668 96.0925 55.6714 96.2188C55.6719 96.2691 55.7855 96.4251 55.737 96.5107C55.6893 96.5967 55.3085 96.7644 55.2947 96.7765C54.8781 97.157 54.6536 97.2201 53.9677 97.6575C53.2818 98.089 54.9768 97.1706 55.1797 97.094C55.3825 97.0184 55.0263 97.3134 54.8966 97.4049C54.7672 97.4971 54.5202 97.5927 54.4502 97.6511C53.9914 98.0308 55.3287 97.2673 55.6221 97.1692C56.3192 96.9421 55.0775 97.656 54.9924 97.8006C54.9696 97.8401 55.2528 97.6781 55.2902 97.6852C55.4345 97.7155 55.0567 97.9588 55.4691 97.8723C55.5362 97.858 56.3466 97.5598 55.8008 97.8805C55.722 97.9265 55.3917 98.0617 55.3359 98.13C55.252 98.232 55.2254 98.3565 55.3584 98.3582C55.4567 98.3591 55.9639 98.0593 55.8232 98.1873C55.7603 98.2444 55.4317 98.3537 55.3395 98.4487C55.2477 98.5443 55.3125 98.6427 55.3423 98.676C55.3728 98.7103 55.7609 98.4905 55.7894 98.4805C55.9529 98.4236 56.1802 98.3979 56.1827 98.4037C56.3786 98.6722 55.8857 99.3241 56.2538 99.3858C56.2804 99.3886 56.6341 99.0793 56.6419 99.0767C56.8215 98.9843 55.8417 99.7599 55.5703 100.084C56.2766 99.4443 56.1681 99.5827 56.2734 99.541C56.3239 99.5193 56.5768 99.2503 56.605 99.2251C57.0073 98.8349 56.5094 99.3599 56.4178 99.4769C56.0692 99.896 56.5055 99.4224 56.2805 99.7085C56.2787 99.711 56.2768 99.7134 56.275 99.7158L55.8445 99.5562C55.8556 99.9178 55.7893 100.443 55.8578 100.438C55.8855 100.097 55.8605 99.205 55.9135 99.0619C56.1066 98.5209 56.4377 99.2226 56.5928 99.2939C56.7443 99.3655 56.7926 99.3017 56.8822 99.4236C57.0474 99.6436 56.9761 98.9833 57.0662 98.6786C57.1555 98.3737 57.1495 100.002 57.1725 100.351C57.196 100.7 57.2028 100.34 57.226 100.532C57.2494 100.723 57.216 100.962 57.2612 101.033C57.3071 101.104 57.4048 100.479 57.4077 100.112C57.4143 99.3369 57.3372 98.5257 57.4548 98.8077C57.4616 98.8245 57.4558 99.2528 57.4813 99.2952C57.6829 99.6179 57.887 99.6299 58.0931 99.9125C58.1214 99.952 58.1186 100.429 58.1354 100.457C58.3129 100.754 58.2184 99.9546 58.2666 99.0599C58.3004 100.246 58.3821 100.969 58.5064 100.971C58.5805 100.972 58.5443 100.455 58.5755 100.088C58.5848 99.977 58.6538 100.33 58.6524 100.086C58.6487 99.289 58.5595 98.4002 58.7039 98.7493C58.7103 98.7659 58.7113 99.2024 58.7318 99.2279C58.8651 99.3953 58.8461 98.562 58.9819 98.4557C59.0904 98.3722 59.3058 98.8735 59.4331 98.9533C59.4634 100.287 59.5674 99.9791 59.6024 99.0588C59.6852 99.0952 59.7774 99.0424 59.8576 99.1696C59.8858 99.213 59.8667 99.5992 59.8702 99.6409C59.9205 100.296 59.9593 99.4012 59.9788 99.3662C60.1853 99.0276 60.3162 99.7099 60.5523 99.0611C60.56 99.0378 60.6386 98.1142 60.6464 98.7932C60.6454 98.84 60.5491 99.2554 60.6394 99.2951C60.7363 99.3354 60.8448 99.8455 61.0327 99.4397C61.0744 99.3412 61.2936 98.6142 61.2618 99.2062C61.2564 99.2864 61.1984 99.5459 61.1834 99.6935C61.1309 100.163 61.3402 99.2498 61.2222 100.038C61.106 100.827 61.0041 101.414 61.2356 100.91C61.2413 100.895 61.4789 100.191 61.5148 100.215C61.5679 100.252 61.5946 100.426 61.6495 100.444C61.6767 100.453 61.8385 100.021 61.8465 100.015C62.1728 99.8734 62.1607 100.34 62.213 100.611C62.2142 100.617 62.2216 100.616 62.2336 100.612C62.2395 100.614 62.2499 100.631 62.2553 100.634C62.3471 100.614 62.7824 100.46 62.4553 100.766C62.0371 101.123 60.0783 102.259 60.5404 101.981C60.7079 101.829 63.4 100.809 62.0595 101.476C62.4891 101.591 61.7964 101.981 62.3546 102.123C62.3793 102.129 63.1757 102.032 63.1699 102.065C63.1597 102.113 62.7929 102.191 62.773 102.224C62.6801 102.364 63.0123 102.431 62.9779 102.56C62.9654 102.607 62.579 102.637 62.5637 102.692C62.5487 102.747 63.0597 102.727 62.8226 102.826C62.642 102.902 61.6108 103.063 61.4966 103.142C62.5198 103.042 62.504 103.097 62.7822 103.157C62.8362 103.169 63.1908 103.118 63.2348 103.122C63.4215 103.138 63.129 103.196 63.3318 103.211C63.3806 103.214 63.7303 103.183 63.7899 103.185C64.3098 103.193 63.5307 103.351 63.3949 103.378C62.8795 103.481 63.3366 103.468 63.1352 103.529C62.9337 103.589 62.6723 103.545 62.552 103.605C62.3033 103.734 62.3697 103.861 62.3614 103.97C62.3601 104.012 62.8255 103.95 62.8362 103.955C62.9611 104.035 62.4701 104.162 63.4047 104.146C61.0004 104.369 63.6419 104.183 63.1683 104.345C63.1299 104.358 61.9916 104.444 61.8219 104.417C61.6523 104.389 62.0046 104.308 61.7404 104.273C61.6784 104.264 60.6066 104.269 60.5412 104.263C60.0308 104.223 61.7317 104.093 61.8249 104.082C62.8302 103.965 61.6746 103.962 61.5935 103.944C61.2219 103.866 61.4545 103.763 61.188 103.697C61.0157 103.654 59.9017 103.742 59.9323 103.697C60.0334 103.55 61.581 103.356 60.2232 103.352C59.9336 103.352 58.7207 103.496 59.6671 103.308C59.7268 103.296 60.5936 103.136 60.0364 103.152C59.9662 103.154 59.6123 103.192 59.5819 103.188C59.3849 103.165 59.6637 103.107 59.5233 103.075C59.3831 103.044 59.1759 103.017 59.2894 102.953C59.3575 102.915 60.0098 102.79 60.1685 102.753C60.6258 102.645 59.8607 102.712 60.4171 102.604C60.9758 102.492 61.8395 102.421 62.1907 102.285C61.2765 102.424 60.3378 102.565 59.4187 102.706C59.4326 102.583 59.7049 102.421 59.6501 102.371C59.6427 102.366 59.1624 102.495 59.1427 102.495C59.064 102.506 59.4016 102.402 59.2769 102.472C59.1782 102.526 58.7146 102.787 58.6423 102.939C59.6087 102.507 59.3336 102.747 59.4586 102.757C59.4989 102.756 59.7265 102.588 59.8062 102.541C59.942 102.458 59.8492 102.53 59.7051 102.647L60.18 103.129C60.0487 103.298 59.8518 103.53 59.8139 103.601C59.5397 104.184 60.7934 102.474 60.7628 102.516C60.7533 102.513 60.2261 103.511 60.2105 103.583C60.0457 104.013 60.4014 103.239 60.459 103.175C60.5627 103.056 60.6667 102.807 60.5634 103.122C60.5273 103.213 60.3288 103.888 60.5041 103.373C60.5261 103.305 60.6354 102.949 60.6417 102.928C60.7334 102.575 60.4166 103.704 60.3379 104.093C60.2642 104.483 60.4466 103.695 60.4808 103.464C60.585 102.87 60.5385 103.213 60.5496 103.155C60.7013 102.467 60.6557 102.581 60.6452 102.519C60.8493 101.388 60.7835 101.447 60.6319 102.459C60.6147 102.569 60.6502 102.467 60.6452 102.519C60.4217 103.624 60.4193 103.77 60.5177 102.72C60.5606 102.228 60.6545 101.659 60.5448 101.858C60.4957 101.949 60.4311 102.737 60.3843 102.95C60.2869 103.435 60.2516 102.693 60.1577 102.806C60.1263 102.847 60.139 103.281 60.1184 103.324C60.0665 103.439 60.0252 103.113 59.9665 103.279C59.9614 103.295 59.9675 103.748 59.9511 103.754C59.8248 103.805 59.7006 103.516 59.5375 103.512C59.4607 103.51 59.3237 103.764 59.2359 103.717C59.0842 103.638 58.8618 102.988 58.7285 103.154C58.643 103.261 58.6831 103.713 58.6582 104.023C58.6099 104.624 58.425 103.559 58.3992 103.394C58.3985 103.389 58.4734 103.278 58.4204 103.048C58.3738 102.564 58.4 103.392 58.3992 103.394C58.3827 103.288 58.2154 103.192 58.1871 103.28C58.1716 103.328 58.2001 103.757 58.1916 103.774C57.9872 104.167 57.7637 104.285 57.5199 104.092C57.5155 104.084 57.5065 103.603 57.4965 103.589C57.3568 103.38 57.2845 103.97 57.1777 104.321C57.0709 104.672 56.9703 104.557 56.8915 103.734C56.8066 103.839 56.6754 103.475 56.6042 103.254C56.5327 103.033 56.5249 103.969 56.5184 103.987C56.3149 104.579 56.1965 104.043 55.9866 103.956C55.923 103.929 55.8172 103.972 55.7176 104.032C55.1739 103.822 53.7557 103.69 53.452 103.192C53.312 103.125 53.1808 103.063 53.0788 103.018C52.8561 102.921 52.928 102.678 52.7028 102.637C52.6725 102.631 52.3778 102.926 52.3608 102.931C51.8426 103.096 52.683 102.509 52.7948 102.361C53.2091 101.826 53.4511 101.567 53.0893 101.602C53.0098 101.615 51.7369 102.355 51.6108 102.322C51.4548 102.285 51.9155 102.029 51.7471 102.005C51.7333 102.002 51.4621 102.18 51.4365 102.114C51.3118 101.802 51.3376 101.46 51.1945 101.26C51.1763 101.232 50.7418 101.511 50.7074 101.473C50.5454 101.296 50.464 101.089 50.6044 100.828C50.6403 100.762 50.9759 100.629 51.068 100.574C51.625 100.241 50.747 100.583 50.7252 100.579C50.1907 100.51 50.8745 99.9671 50.4106 99.9433C50.383 99.9409 49.4446 100.317 50.1983 99.8931C50.2488 99.8656 51.0175 99.4273 50.465 99.6747C50.4306 99.6905 50.0365 99.9189 50.06 99.8636C50.0828 99.8069 49.7884 99.9001 50.2057 99.6207C50.3378 99.534 51.0907 99.0728 50.4537 99.3738C50.4069 99.3904 48.9971 100.126 49.9381 99.5629C50.0929 99.4702 51.0977 98.8895 50.5579 99.1453C50.4539 99.196 50.2393 99.3414 50.0886 99.4042C49.8579 99.5036 50.0992 99.3024 49.6434 99.5489C49.5617 99.5909 48.8893 100.001 49.3822 99.6627C49.459 99.6091 49.7861 99.4016 49.8168 99.3692C49.9621 99.2118 49.7238 99.323 49.917 99.1334C49.9839 99.0654 50.4919 98.6991 50.6137 98.5819C50.736 98.4651 50.834 98.3281 50.5971 98.4902C50.362 98.6547 49.5941 99.2925 49.5227 99.3311C49.2242 99.5143 49.6458 99.1095 49.6669 99.0125C49.6719 98.9999 49.4407 99.2721 49.4349 99.2761C49.3984 99.2826 49.2585 99.5888 49.6197 98.93C49.622 98.9289 49.6243 98.9277 49.6266 98.9266C50.2348 98.5624 50.0832 97.9599 50.3842 97.8369C50.4927 97.7602 50.1669 98.8781 50.1985 98.9281C50.3884 99.3874 50.7123 98.923 50.8816 99.0971C50.9218 99.1335 50.8373 99.5983 50.8772 99.6243C51.0208 99.7173 51.1568 99.5068 51.256 99.5399C51.3015 99.5556 51.3174 99.9146 51.3605 99.8834C51.4599 99.8129 51.5235 99.6509 51.5253 99.3087C51.5232 99.2779 51.418 98.8427 51.4492 98.8203C51.5055 98.7835 51.4545 98.4534 51.575 98.7752C51.6102 98.8723 51.8654 99.6528 51.7111 99.1067C51.6788 98.9926 51.3518 98.0627 51.6444 98.8626C51.6832 98.9995 52.1484 100.051 51.8777 99.3617C51.8066 99.1801 51.4824 98.4414 51.528 98.5598C51.5364 98.5783 51.7184 98.9799 51.7364 99.019C51.7654 99.0821 51.7754 99.105 51.7825 99.1269C51.7836 99.1537 51.781 99.1797 51.8014 99.2499C51.8129 99.2867 52.0396 99.6828 52.0519 99.7236C52.0881 99.8352 51.9949 99.7549 51.8792 99.6589C51.8362 99.6227 51.6447 99.2966 51.622 99.2623C51.2437 98.7099 51.7151 99.4804 51.739 99.5277C51.873 99.8166 51.6067 99.4845 51.6275 99.6066C51.6332 99.639 51.8874 99.9867 51.9072 100.02C52.1012 100.342 51.6737 99.6972 51.6097 99.6379C51.428 99.4707 51.3945 99.5379 51.3806 99.6172C51.376 99.6468 51.6956 100.031 51.6889 100.052C51.6559 100.185 51.538 100.218 51.2689 100.085C51.2175 100.059 50.9805 99.7563 50.9202 99.6923C50.4957 99.2465 50.999 99.919 51.0439 99.9857C51.2437 100.295 51.0057 100.051 51.0127 100.13C51.0391 100.374 50.9116 100.47 50.7487 100.527C50.6279 100.586 50.4972 100.627 50.383 100.669C49.9814 100.82 49.5033 100.787 49.3124 101.127C49.3 101.148 49.688 101.482 49.6822 101.505C49.5918 101.78 49.268 101.835 49.2001 102.129C49.1938 102.152 49.5731 102.456 49.5753 102.504C49.5824 102.606 49.5037 102.654 49.3416 102.603C49.2628 102.579 48.985 102.265 48.9117 102.247C48.7403 102.205 48.6553 102.248 48.6577 102.362C48.6596 102.411 49.0661 102.7 49.0397 102.739C48.8671 103.008 48.7344 103.291 48.0396 103.119C47.992 103.107 47.2087 102.472 47.3262 102.633C47.5381 102.816 47.7902 103.027 48.0182 103.22C47.8497 103.672 47.2999 103.796 46.9888 104.113C46.976 104.126 47.4189 104.426 47.3966 104.453C47.2672 104.609 47.2762 104.844 46.7327 104.691C46.6794 104.676 45.9217 104.121 46.0031 104.251C46.0176 104.276 46.0688 104.42 46.224 104.554C46.2476 104.574 46.6153 104.814 46.611 104.842C46.5779 105.006 46.4154 105.069 46.1262 105.025C46.0786 105.018 45.6946 104.751 45.6568 104.745C45.3894 104.704 45.6504 104.962 45.2666 104.782C45.0066 104.664 44.2896 104.293 43.5642 103.968C43.4614 103.922 43.4333 103.941 43.0099 103.755C41.9417 103.296 40.7983 102.735 39.6597 102.246C39.4139 102.14 39.5957 102.447 39.0515 102.078C39.0149 102.053 38.8839 101.821 38.7037 101.691C38.5785 101.602 38.1323 101.446 37.9812 101.313C37.8313 101.178 38.2111 101.297 38.0468 101.118C37.8819 100.936 37.3879 100.725 37.4103 100.548ZM56.288 102.265C56.228 101.816 56.2033 103.461 56.2784 103.068C56.282 103.047 56.2912 102.287 56.288 102.265ZM60.9208 102.179C61.6174 101.967 60.57 102.174 60.0303 102.328C59.4888 102.47 60.7084 102.238 60.9208 102.179ZM61.5472 102.757C62.1045 102.602 59.7889 102.884 60.2666 102.906C60.2936 102.907 61.5147 102.766 61.5472 102.757ZM43.4427 103.713C43.4232 103.703 43.3878 103.723 43.4061 103.735C43.856 104 43.9227 103.967 43.4427 103.713ZM62.1969 103.458C62.509 103.403 62.1392 103.356 61.7513 103.424C61.4391 103.477 61.8087 103.525 62.1969 103.458ZM54.2727 98.1567C54.2943 98.1451 54.299 98.1047 54.175 98.1665C53.7757 98.3658 53.9092 98.3519 54.2727 98.1567ZM62.3174 104.791C62.3934 104.591 64.3085 104.344 64.1052 104.579C64.0683 104.62 63.4867 104.532 63.3164 104.593C63.006 104.702 64.2174 104.691 63.5759 104.826C63.4584 104.85 62.3088 104.802 62.3147 104.79C62.3156 104.79 62.3165 104.79 62.3174 104.791ZM56.267 100.289C56.266 100.267 56.2187 100.246 56.2174 100.268C56.1858 100.79 56.2832 100.833 56.267 100.289ZM54.0788 95.8571C54.1142 95.8266 54.0704 95.701 54.0343 95.7246C53.3327 96.214 53.3991 96.4438 54.0788 95.8571ZM59.436 98.9889C59.4789 98.4623 59.5484 98.3991 59.6021 99.0581C59.5472 99.0239 59.492 99.0199 59.436 98.9889Z" fill="black"/>
</svg>
