<svg width="150" height="150" viewBox="0 0 150 150" fill="none" xmlns="http://www.w3.org/2000/svg">
<path d="M71.8561 76.8054C70.9144 76.8659 69.8059 76.5536 68.991 76.1933C68.7389 76.0818 68.9248 75.8191 68.7541 75.7285C68.4204 75.5509 68.0649 75.6253 67.7448 75.4184C67.639 75.3483 67.88 74.928 67.7679 74.8649C67.1618 74.5236 66.5238 74.4881 65.8937 74.212C63.679 73.2275 61.4895 72.2118 59.3638 70.6517C58.4177 69.9607 57.5908 69.1293 56.9181 68.2349C56.109 67.175 55.7247 65.6894 55.0722 64.6783C54.9948 64.56 54.6593 64.8017 54.6178 64.791C53.9757 64.603 54.7833 64.4054 54.7781 64.1122C54.7634 62.9558 54.4687 61.8854 54.0746 60.9804C53.9076 60.5975 53.2275 61.1962 53.565 60.6777C53.5878 60.6423 54.0309 60.643 54.0488 60.5219C54.0881 60.2488 53.9097 59.8013 53.903 59.5995C53.8939 59.2209 53.8778 59.1607 53.8167 58.8101C53.7388 58.3366 53.8572 57.7416 53.6871 57.2492C53.6495 57.1437 53.2335 57.3503 53.1344 57.1888C53.035 57.028 53.0102 56.5601 53.0946 56.3923C53.1787 56.2264 53.5311 56.2491 53.6066 56.2123C54.2451 55.914 53.2626 55.4936 53.2332 55.4296C52.712 54.2342 53.1613 53.1332 53.0953 51.9943C53.0445 51.1318 52.8333 50.2091 52.8342 49.3884C52.8372 48.4112 53.0634 47.5767 53.0152 46.6375C53.0107 46.5377 52.4927 46.6585 52.4861 46.5362C52.4812 46.443 52.4769 46.3496 52.4734 46.2561C52.4266 44.9211 52.6103 43.5478 53.1822 42.2835C53.2447 42.1465 53.6566 42.416 53.7455 42.2875C54.2761 41.4738 55.4894 40.5626 53.8256 39.3777C54.1112 38.8233 54.4962 38.1565 55.1024 37.857C55.4915 37.6682 55.773 38.195 55.7834 37.7305C55.788 37.6249 55.3473 37.5231 55.3849 37.378C55.5473 36.7618 56.0308 36.2735 56.2208 35.6455C56.2255 35.6294 56.2244 35.612 56.2187 35.5939C56.1878 35.4571 55.93 35.2922 55.9044 35.2248C55.6887 34.5651 56.8167 34.7249 56.9427 34.7012C57.9701 34.3961 58.3594 33.8774 59.0996 33.4678C59.2718 33.3766 58.8148 33.0303 58.9788 32.9233C59.8376 32.3748 60.85 32.0773 61.7769 32.1014C61.9842 32.1081 61.9042 32.5834 62.006 32.6096C62.4429 32.726 62.3718 31.884 62.7958 31.9993C62.8836 32.0234 62.8947 32.4076 62.9159 32.4468C63.2338 33.0633 63.3057 32.1166 63.3663 32.0887C64.0918 31.7245 64.6214 32.6727 65.2961 32.5282C65.38 32.5104 65.1867 32.0282 65.4257 32.0082C67.0021 31.8752 68.6284 32.2044 70.006 32.8544C70.2195 32.9549 69.9918 33.281 69.998 33.3276C70.0925 34.0561 70.4172 33.1673 70.4993 33.148C71.1336 33.0178 71.4751 33.9034 72.1287 32.917C74.4381 33.8861 76.9867 34.1104 78.8493 35.963C78.8731 35.9854 78.6459 36.39 78.6937 36.4327C79.2662 36.9536 79.4108 36.2384 80.2147 35.6326C80.419 35.4816 80.3334 36.6012 80.3298 36.6849C80.3217 36.9944 79.9275 37.5688 79.9411 37.6356C80.0581 38.1653 80.9477 36.0784 81.364 36.2703C81.3753 36.2797 81.1454 36.633 81.1624 36.6867C81.2141 36.8544 81.3901 36.7537 81.4328 36.9327C81.5298 37.3465 81.1318 38.3765 81.769 37.9735C81.8508 37.9211 82.345 36.7301 82.6828 36.9647C82.8157 37.0575 83.466 37.3621 83.6051 37.5296C83.7442 37.6957 83.4308 37.9999 83.4354 38.0225C83.6531 38.7549 83.3653 38.8609 83.218 39.7012C83.0664 40.5369 83.9148 38.8045 84.1134 38.6672C84.3127 38.5306 84.4377 39.1146 84.4427 39.2976C84.4488 39.4808 84.2184 39.6541 84.248 39.7724C84.4518 40.5525 84.9317 39.0585 85.2458 38.8842C85.9928 38.4751 85.5747 39.8862 85.8446 40.2103C85.9179 40.2982 86.0094 39.9734 86.1079 39.997C86.4948 40.0942 86.4587 40.5949 87.0455 40.4807C87.1413 40.462 87.8995 39.9253 87.757 40.5857C87.7348 40.6798 87.463 40.9277 87.5572 41.0846C87.6572 41.2519 87.8478 41.4552 88.0474 41.5747C88.1317 41.6254 88.2174 41.6627 88.2999 41.6786C88.5121 41.7201 88.6643 41.1087 88.7652 41.404C88.808 41.5351 88.4423 41.695 88.5363 41.916C88.6332 42.1373 89.0534 42.4393 89.2164 42.5578C89.3781 42.673 89.5753 42.2599 89.6065 42.2465C89.7903 42.1729 90.237 42.269 90.2627 42.2934C91.6714 43.4464 92.1594 45.1801 93.2527 46.4597C93.339 46.5627 93.6912 46.24 93.7085 46.2531C94.1209 46.5507 92.8653 46.8881 92.6626 47.3638C93.4604 46.8416 93.4078 47.0877 93.6537 47.3154C93.7727 47.4253 94.056 47.1751 94.0958 47.169C94.7018 47.1088 94.1392 47.5972 94.0253 47.6991C93.61 48.0815 94.2574 47.9373 93.9765 48.1915C93.6954 48.4398 93.1159 48.4724 93.2482 48.73C93.5922 48.6588 94.2983 48.0688 94.5296 48.2181C95.4283 48.8018 95.3607 50.6323 95.4808 51.3035C95.6164 51.9883 95.7327 52.1867 95.719 52.6065C95.6861 53.3617 96.2591 52.94 96.6624 53.3111C97.0633 53.6863 95.4271 53.842 95.1016 53.985C94.7752 54.1247 95.141 54.1088 94.9709 54.227C94.8006 54.3442 94.5321 54.2371 94.5014 54.427C94.4709 54.6146 95.1826 54.9604 95.5536 54.9492C96.3398 54.9225 97.0898 54.5327 96.9097 55.0712C96.8988 55.102 96.4614 55.0993 96.4406 55.2129C96.4233 55.3152 96.4097 55.4171 96.3992 55.5185C96.3249 56.3438 96.371 57.1572 96.1223 57.9289C96.0829 58.0472 95.6059 57.947 95.5773 58.0135C95.2661 58.6899 96.0702 58.4513 96.9368 58.9247C95.7573 58.7521 95.029 58.9191 94.9592 59.3907C94.9123 59.6822 95.4311 59.7097 95.7545 59.9786C95.8515 60.0634 95.4577 60.2142 95.6867 60.3046C96.4314 60.6143 97.363 60.5844 96.8623 61.1108C96.8391 61.1321 96.4398 60.9378 96.3906 61.0188C96.0654 61.5272 96.8398 61.8484 96.6905 62.5208C96.5713 63.0536 95.7088 63.6593 95.3529 64.0904C94.2036 63.416 94.2261 63.9726 94.8762 64.6553C94.6491 64.936 94.4685 65.2834 94.1618 65.4823C94.0568 65.5506 93.7937 65.2572 93.7514 65.2442C93.0975 65.0252 93.7178 65.6842 93.6972 65.7676C93.4537 66.628 92.5087 66.6756 92.4858 67.6833C92.4855 67.7188 93.1369 68.38 92.4998 68.0723C92.457 68.0499 92.3182 67.5794 92.051 67.8196C91.783 68.0606 90.9638 68.2016 90.9387 68.8507C90.9327 69.0071 91.2736 69.7403 90.6855 69.508C90.6056 69.4764 90.4358 69.269 90.2965 69.2013C89.8505 68.9879 90.4807 69.6852 89.7802 69.2705C89.0795 68.8566 88.3786 68.7353 88.4582 69.4799C88.4592 69.5032 88.9428 70.0781 88.8362 70.1859C88.82 70.2023 88.8023 70.2186 88.7834 70.2348C88.7788 70.2414 88.761 70.2559 88.7548 70.261C88.5339 70.3695 88.2069 70.4381 88.0135 70.5695C87.9115 70.6391 88.229 70.9824 88.2156 71.0012C87.6407 71.6794 86.8983 71.6398 86.0277 71.8968C85.8715 71.9416 85.7229 72.7216 85.2166 72.4107C84.6705 72.0648 84.029 69.8737 83.5837 70.6631C83.4175 70.9712 84.1202 73.7923 83.0351 72.6141C82.1181 73.3554 80.9176 72.9336 79.9865 73.7194C79.9449 73.7543 79.9878 74.5705 79.8667 74.5893C79.688 74.6154 79.5053 74.2741 79.3769 74.2792C78.8379 74.2906 78.4313 74.705 77.9171 74.7544C77.7227 74.7734 77.7168 74.3805 77.4872 74.4014C77.2585 74.4219 77.1956 74.9515 76.8447 74.7612C76.5791 74.6155 76.1842 73.6237 75.8666 73.549C76.0092 74.5671 75.7961 74.5789 75.4554 74.9004C75.39 74.9627 75.5172 75.3063 75.4886 75.354C75.3723 75.5563 75.2019 75.28 75.0938 75.4966C75.0674 75.5487 75.1112 75.897 75.0918 75.9593C75.0055 76.2475 74.8284 76.175 74.6713 76.0236C74.6612 76.0257 74.6302 76.027 74.62 76.0286C74.4867 75.8883 74.3722 75.687 74.3376 75.6245C74.0571 75.1176 73.9635 75.5782 73.7617 75.3782C73.5662 75.1771 73.8423 74.9139 73.6218 74.7937C73.1724 74.5452 72.6184 74.579 72.1772 74.5119C72.0018 74.4875 72.0665 74.9667 72.0403 74.974C71.6369 75.0463 71.3613 74.4891 70.9612 75.359C71.2083 72.942 70.6819 75.5455 70.2389 74.929C70.2042 74.8788 70.4661 73.7674 70.655 73.6451C70.8416 73.5221 70.981 73.9244 71.2428 73.7127C71.3099 73.6652 71.7746 72.6656 71.8118 72.6054C72.1459 72.1491 71.9374 73.8391 71.9438 73.9353C71.9953 74.9652 72.4938 73.8574 72.5742 73.7822C73.0001 73.4495 73.329 73.6932 73.6675 73.4255C73.8878 73.2513 73.8593 72.1334 74.0237 72.1596C74.1438 72.1778 74.2566 72.2634 74.3635 72.3725L74.227 72.3857C74.6519 72.7557 74.9919 73.4432 75.2996 72.3309C75.3835 72.0273 75.0824 70.8384 75.6615 71.7222C75.6962 71.7783 76.1632 72.5947 76.2629 72.0145C76.2751 71.9415 76.2159 71.5905 76.2417 71.5559C76.4153 71.3306 76.6015 71.5861 76.8009 71.4119C77.0007 71.2376 77.2262 70.9885 77.5002 71.056C77.6642 71.0965 77.9964 71.704 78.1051 71.8465C78.4145 72.2583 78.4687 71.4597 78.7239 71.9816C78.9864 72.5045 78.9186 73.409 79.3615 73.6817C79.1588 72.7794 78.9657 71.8497 78.766 70.9412C79.4924 70.7985 80.2765 70.8894 80.9692 70.6209C81.0542 70.5868 80.8113 70.1433 80.8968 70.0949C81.2547 69.8934 81.708 70.1087 82.0514 69.8262C82.3164 69.6056 82.4409 68.9863 82.6838 68.7359C83.2906 69.627 83.6067 69.0892 83.9683 69.0169C84.0963 68.9908 84.2151 69.2471 84.3386 69.2882C84.8031 69.4339 84.2292 68.6767 84.2432 68.5039C84.2905 67.7685 85.328 69.6151 85.739 69.3204C85.7644 69.3039 85.4607 68.1737 85.4561 68.0938C85.4443 67.5653 85.6967 68.4074 85.8844 68.3903C86.2252 68.3589 86.5604 68.4647 86.6802 67.9862C86.705 67.8836 86.6104 67.4729 86.7388 67.386L86.0955 67.9753C86.1462 67.9165 86.2394 67.8929 86.3986 67.9339C86.4755 67.9536 86.7459 68.2111 86.7806 68.2043C87.3814 68.0666 86.5099 67.2874 86.4096 66.8054C86.309 66.3248 87.1945 66.5609 87.4206 66.6608C88.0121 66.9115 87.493 66.9605 87.528 67.0102C87.9481 67.5927 88.0649 67.2885 88.2646 67.1636C89.1235 67.927 89.2873 67.6534 88.4667 67.0326C88.3766 66.9652 88.3338 67.1665 88.2646 67.1636C87.5801 66.246 87.7189 65.8901 88.7393 66.3458C89.2171 66.5596 89.5215 67.0755 89.7321 66.5473C89.8262 66.3093 89.1882 65.8328 89.1725 65.5347C89.1341 64.8575 90.0763 64.9221 90.292 64.4958C90.3685 64.343 89.936 64.181 89.9757 64.0681C90.0772 63.7701 90.4905 63.7815 90.5387 63.4537C90.5423 63.4241 90.1494 63.1901 90.1981 63.1193C90.5548 62.5811 91.1006 62.3116 91.4212 61.7818C91.5792 61.524 91.5827 60.9636 91.7314 60.7322C91.9952 60.341 92.8032 59.9362 92.7268 59.4666C92.6762 59.1731 92.2155 59.1622 91.9264 59.011C91.3629 58.7463 92.4556 58.4908 92.6234 58.4248C92.6298 58.4227 92.7218 58.6675 92.962 58.5541C93.4509 58.5041 92.6254 58.426 92.6234 58.4248C92.7359 58.3974 92.8447 57.9072 92.7504 57.8075C92.7012 57.7551 92.273 57.8014 92.2554 57.7752C91.9618 57.3415 91.775 56.9315 91.7018 56.462C91.6613 56.2194 91.6433 55.9742 91.6481 55.7243C91.6534 55.7077 92.1281 55.6298 92.1347 55.5917C92.2379 55.0548 91.5927 54.8721 91.1607 54.571C90.7283 54.2693 90.7659 53.9558 91.4996 53.5127C91.3219 53.2552 91.5533 52.7518 91.6901 52.4515C91.8268 52.1503 90.9265 52.4095 90.9029 52.3961C90.1401 51.98 90.525 51.4763 90.3501 50.8476C90.2701 50.5496 89.8932 50.0703 89.6552 49.8447C89.4671 49.6659 89.5856 49.4292 89.3502 49.3044C89.3186 49.2878 88.9754 49.5256 88.957 49.5258C88.4067 49.5756 89.3374 49.1494 89.466 49.0104C89.931 48.5043 90.1548 48.1949 89.7048 48.0841C89.598 48.053 88.2734 48.7163 88.135 48.6733C87.9513 48.6077 88.4084 48.3412 88.2013 48.2795C88.1839 48.2741 87.9292 48.474 87.8762 48.3831C87.6273 47.9648 87.4061 47.4358 87.007 47.0955C86.9538 47.0487 86.6614 47.4807 86.5809 47.4216C86.2055 47.1467 85.8349 46.8097 85.5993 46.3333C85.5417 46.2144 85.8151 45.9692 85.858 45.868C86.1059 45.2462 85.3674 45.8754 85.3294 45.8712C85.269 45.8626 85.2117 45.8507 85.1571 45.8359C84.2205 45.5466 83.9418 44.5136 82.8535 44.3168C82.7887 44.306 81.899 44.9556 82.145 44.1033C82.1628 44.0473 82.4109 43.1728 81.9617 43.6152C81.9339 43.643 81.8234 44.1017 81.6543 43.9555C81.4845 43.8091 81.0275 43.9073 80.9932 43.3242C80.9835 43.141 81.1852 42.2509 80.6033 42.7424C80.5603 42.7751 79.4517 43.9945 79.8022 42.9449C79.8598 42.7721 80.4001 41.7439 79.8235 42.1236C79.7132 42.198 79.7073 42.4832 79.4801 42.5521C79.1311 42.6592 78.9494 42.228 78.4353 42.5592C78.3446 42.6178 77.7988 43.2331 77.8736 42.6108C77.8849 42.5131 78.0972 42.184 78.022 42.1024C77.6636 41.7122 77.0924 41.7462 76.7414 41.3092C76.6158 41.1549 76.9393 40.611 76.8317 40.385C76.7242 40.159 76.4345 39.8682 76.1485 40.0634C75.8639 40.2592 75.6937 41.2643 75.4009 41.2359C74.136 41.1173 73.1953 40.1732 72.0546 39.7476C71.8864 39.6851 71.9279 40.0689 71.6757 40.0033C70.7325 39.7521 69.1119 39.7235 68.4641 38.8551C67.9227 38.151 68.8091 37.8254 68.3473 37.5011C68.1168 37.3456 67.7016 38.4607 67.6429 38.49C67.0564 38.7886 66.739 38.2434 66.2563 38.3724C66.1593 38.3998 66.2261 38.8745 66.146 38.8929C65.868 38.96 65.5976 38.7437 65.3489 38.7833C65.2365 38.8023 65.2615 39.1613 65.1627 39.1353C64.9263 39.0781 64.7268 38.9366 64.4735 38.6192C64.449 38.5904 64.5573 38.1332 64.3782 38.1313C64.0999 38.1288 63.6876 37.8483 63.4608 38.2432C63.3907 38.3627 63.5641 39.1637 63.2738 38.6492C63.2153 38.542 63.0121 37.5746 63.0297 38.451C63.0096 38.6019 63.1042 39.7729 62.7505 39.1189C62.6544 38.9468 62.2568 38.2367 62.2248 38.3899C62.2238 38.4126 62.4397 38.7989 62.4015 38.8633C62.2693 39.0812 62.0848 39.1374 62.042 39.3405C62.0347 39.393 62.3471 39.729 62.337 39.789C62.3176 39.9466 62.1838 39.9272 62.0022 39.9373C61.9954 39.941 61.9886 39.9447 61.9818 39.9484C61.8702 40.0091 61.6128 39.7215 61.5752 39.7032C60.9462 39.4291 61.6305 40.0284 61.6506 40.0922C61.7522 40.5037 61.2793 40.466 61.2405 40.769C61.2307 40.8495 61.635 41.0074 61.6617 41.0387C61.9232 41.3453 61.2926 40.8841 61.1708 40.9327C60.8268 41.0704 60.7182 41.3906 60.6606 41.6861C60.6405 41.7941 61.1489 41.8654 61.127 41.957C61.0086 42.5005 60.8053 43.0358 60.4207 43.5591C60.3474 43.6583 59.9835 43.5164 59.8928 43.5229C59.2561 43.5759 60.0405 43.9717 60.1124 44.0329C60.4356 44.3353 60.0871 44.384 60.125 44.6185C60.2112 45.1188 60.2167 45.6565 60.2024 46.2192C60.1847 47.1302 60.0931 48.0302 60.0345 48.8006C59.902 50.5872 59.6018 51.9783 59.8364 53.6251C59.8511 53.7291 60.3514 53.5796 60.3706 53.6679C60.595 54.8064 60.5289 55.9356 60.8578 56.9951C60.8839 57.0817 61.3403 56.8739 61.3981 57.0079C61.5196 57.2796 61.5606 57.639 61.4665 57.9464C61.4217 58.0967 60.9763 57.9994 60.94 58.151C60.8565 58.5113 60.9025 58.8626 61.0602 59.1633C61.1279 59.2886 61.556 58.9643 61.606 59.1334C61.9667 60.3011 62.3957 61.2121 62.3009 62.3359C62.2938 62.4114 61.4585 62.9809 61.704 63.0099C61.9471 62.8711 62.2255 62.6957 62.4811 62.5405C62.9782 63.1469 63.3077 63.6047 63.7209 63.9941C64.1707 64.3665 64.7211 64.7391 65.3483 65.0407C65.4135 65.0718 65.5165 64.5337 65.6412 64.5901C66.3705 64.916 67.1718 65.0443 67.8822 65.8049C67.9537 65.8795 67.6473 66.7699 67.9505 66.7074C68.0044 66.6963 68.4352 66.6822 68.5885 66.5099C68.6097 66.4835 68.6472 66.0406 68.7757 66.06C69.522 66.1799 70.2799 66.4398 70.9891 66.8286C71.1054 66.8924 70.8977 67.3316 70.9811 67.3811C71.5758 67.7293 72.2991 67.4637 72.8306 67.9316C73.1893 68.2449 72.9856 69.039 73.1635 69.8451C73.187 69.9592 73.4394 69.9863 73.4386 70.4479C73.4534 71.6111 73.2743 72.8798 73.302 74.1201C73.3026 74.3894 73.8219 74.1051 73.5136 74.7484C73.487 74.7926 73.1167 74.9977 73.0161 75.211C72.9499 75.3595 73.0386 75.8342 72.9047 76.0219C72.7671 76.209 72.6494 75.8079 72.4352 76.021C72.2112 76.2352 72.2686 76.7778 71.8561 76.8054ZM92.2668 51.0809C92.6051 50.7033 91.0573 51.2616 91.5094 51.3459C91.533 51.3493 92.2503 51.0997 92.2668 51.0809ZM80.6211 72.0709C81.1337 72.6758 81.0222 71.5915 80.6497 71.1206C80.2855 70.647 80.4693 71.8863 80.6211 72.0709ZM77.5414 73.3561C78.0246 73.845 77.6185 71.5471 77.3296 72.0841C77.3127 72.1145 77.5137 73.3276 77.5414 73.3561ZM72.0967 69.9849C72.0975 70.0071 72.2871 70.0481 72.2952 70.0269C72.4469 69.5173 72.0743 69.4366 72.0967 69.9849ZM74.3522 74.4209C74.3953 74.5174 74.4571 74.5454 74.5146 74.5266L74.4888 74.5291C74.6153 74.4812 74.712 74.2109 74.5777 73.9564C74.528 73.8619 74.4646 73.8377 74.4072 73.8606L74.4675 73.8548C74.3456 73.8974 74.2365 74.1593 74.3522 74.4209ZM85.4421 40.9051C85.4513 40.8821 85.3362 40.7879 85.268 40.9086C85.0491 41.2975 85.287 41.2928 85.4421 40.9051ZM68.9425 73.5611C69.6437 73.9363 69.6007 75.9423 68.7107 75.3998C68.5573 75.3014 69.2841 74.9553 69.13 74.7143C68.8713 74.2829 68.1589 75.3002 68.0248 74.5345C68.0104 74.3998 68.9098 73.54 68.9449 73.5592C68.9441 73.5598 68.9433 73.5605 68.9425 73.5611ZM94.0684 50.2575C94.0872 50.2451 94.0334 50.0473 94.0113 50.0506C93.4859 50.1393 93.5905 50.5283 94.0684 50.2575ZM78.1649 36.1687C78.172 36.1211 77.7418 35.903 77.7114 35.9375C77.1699 36.6411 78.0238 37.078 78.1649 36.1687ZM95.3177 64.0801C95.6495 64.5546 95.5344 64.8556 94.8774 64.6548C95.0365 64.4745 95.1676 64.2727 95.3177 64.0801Z" fill="black"/>
<path d="M75.8598 70.2622C76.0031 70.3781 75.8499 70.53 75.6396 70.6454C75.5744 70.6816 75.2829 70.6633 75.2247 70.6883C75.1114 70.7371 75.2543 70.7826 75.1193 70.8309C75.0731 70.8469 74.6113 70.827 74.5735 70.8437C74.3694 70.9357 74.487 71.0226 74.3888 71.1157C73.9045 71.5743 73.7311 72.0252 73.5207 72.4894C73.4518 72.6425 73.0326 72.8286 73.2159 72.9867C73.2377 73.0051 73.6431 72.9941 73.6765 72.9976C74.1879 73.0527 73.3696 73.0344 73.2609 73.0704C72.8316 73.2131 72.7943 73.3718 72.9507 73.5092C73.0185 73.5676 73.8236 73.509 73.3717 73.5679C73.3412 73.5719 72.9107 73.5571 72.8648 73.5731C72.7615 73.6095 72.8385 73.6784 72.8044 73.7066C72.7365 73.7609 72.7408 73.7699 72.7359 73.8212C72.7254 73.8914 72.5115 73.9749 72.609 74.0502C72.6311 74.0663 73.0724 74.045 73.1474 74.0706C73.2224 74.0963 73.185 74.1642 73.081 74.1871C72.9769 74.21 72.6301 74.2002 72.5506 74.2043C71.8796 74.2376 72.8089 74.3161 72.8319 74.3262C73.2235 74.5104 72.6941 74.6684 72.6956 74.8413C72.6979 74.9726 72.8726 75.1129 72.8487 75.2378C72.8184 75.3866 72.5793 75.5128 72.6204 75.6573C72.6242 75.6726 73.1431 75.6547 73.1488 75.6733C73.2092 75.8713 73.1526 76.0679 72.8024 76.265C72.7668 76.2848 72.3112 76.2593 72.2485 76.279C71.8741 76.4 70.9748 76.5913 72.9581 76.6631C72.8807 76.745 72.8007 76.8445 72.4009 76.9177C72.1436 76.965 71.6473 76.9191 71.8591 76.9771C71.9062 76.9902 72.3408 76.9732 72.3787 76.9928C72.5378 77.0755 72.3965 77.1658 72.6211 77.2475C72.6678 77.2642 73.0572 77.2596 73.1273 77.2643C73.6952 77.3039 72.7564 77.3699 72.6882 77.3842C72.1795 77.4937 72.3797 77.5736 72.3673 77.6755C72.3642 77.6992 72.8873 77.6712 72.9031 77.694C72.978 77.8121 72.9331 77.9344 72.701 78.05C72.6481 78.0757 72.2025 78.0521 72.1545 78.0643C71.9479 78.1185 72.7895 78.1305 72.6077 78.1825C72.5704 78.1935 72.189 78.1873 72.1471 78.1893C71.4895 78.2206 72.4212 78.2477 72.4418 78.2558C72.7229 78.3575 71.7502 78.4226 71.8879 78.5209C71.9054 78.5327 72.388 78.5061 72.4076 78.5392C72.5408 78.7594 72.4082 78.9924 72.0222 79.2104C71.9628 79.2443 71.6003 79.2201 71.5556 79.2222C70.8573 79.257 71.7929 79.2795 71.8282 79.2905C72.0818 79.3777 71.2972 79.4592 72.4116 79.5184C72.0249 79.8877 72.6507 80.2553 71.6523 80.6215C71.6407 80.6261 71.1799 80.6178 71.1588 80.6271C70.9001 80.7389 71.6163 80.7174 72.4922 80.7915C72.7121 80.8101 71.6546 80.8668 71.5771 80.8718C71.2914 80.8901 70.6058 80.8712 70.5505 80.8773C70.1161 80.9279 72.3833 80.9197 72.3841 80.988C72.3803 80.9902 71.963 80.9812 71.9215 80.9869C71.7912 81.0047 71.9571 81.0224 71.8134 81.0399C71.481 81.0798 70.3793 81.094 71.0205 81.1549C71.1037 81.1627 72.3898 81.1509 72.329 81.2119C72.3037 81.2362 72.3258 81.3439 72.2424 81.3741C72.1592 81.4042 71.7447 81.3835 71.7268 81.3857C71.1788 81.4669 70.9516 81.4361 70.1403 81.4768C69.332 81.5175 71.2599 81.5062 71.475 81.5228C71.6896 81.5394 71.2374 81.5989 71.0803 81.6136C70.923 81.6282 70.6597 81.6099 70.5707 81.6229C69.9893 81.7092 71.5276 81.6608 71.8335 81.6892C72.558 81.7562 71.1284 81.8084 70.9883 81.8697C70.9504 81.8863 71.2761 81.8727 71.3065 81.8875C71.4228 81.946 70.9767 81.9812 71.3857 82.0478C71.4524 82.0587 72.3119 82.1125 71.6811 82.1473C71.5902 82.1523 71.2339 82.1382 71.1541 82.1632C71.0343 82.2004 70.9565 82.2676 71.0756 82.3076C71.1637 82.3372 71.7507 82.3033 71.5683 82.3405C71.4869 82.357 71.1435 82.3264 71.0192 82.3575C70.8949 82.3884 70.9099 82.4674 70.9218 82.4975C70.9339 82.5275 71.3792 82.5111 71.4092 82.5135C71.5811 82.5282 71.7958 82.5858 71.7953 82.5909C71.8496 82.8477 71.099 83.0845 71.3475 83.3345C71.3663 83.3541 71.8359 83.341 71.8436 83.344C72.0404 83.4112 70.7918 83.3582 70.374 83.4052C71.3269 83.3984 71.1543 83.4261 71.2588 83.4734C71.31 83.4962 71.679 83.4838 71.7167 83.4858C72.2772 83.5197 71.5533 83.5432 71.4052 83.5493C70.8605 83.5717 71.5041 83.596 71.14 83.6113C70.7786 83.6265 70.2429 83.5914 70.2497 83.6368C70.5909 83.6495 71.4823 83.6159 71.6268 83.6503C72.1732 83.7803 71.4738 84.0229 71.4012 84.1275C71.3286 84.2318 71.3915 84.2655 71.2682 84.3262C71.0453 84.436 71.7067 84.3958 72.0094 84.464C72.3121 84.5323 70.6848 84.4991 70.335 84.5089C69.9853 84.5186 70.3453 84.5291 70.1531 84.5411C69.9609 84.5531 69.723 84.5272 69.6509 84.5553C69.5788 84.5835 70.2009 84.6604 70.5666 84.6704C71.3416 84.6915 72.1549 84.6568 71.8691 84.7313C71.8522 84.7356 71.4243 84.7217 71.381 84.7381C71.0516 84.8683 71.0312 85.0037 70.7399 85.1338C70.6991 85.1517 70.2231 85.1357 70.194 85.1461C69.8896 85.2546 70.6922 85.2158 71.5838 85.2752C70.3972 85.2619 69.6713 85.2948 69.6643 85.3771C69.6597 85.4266 70.1779 85.418 70.5431 85.45C70.6532 85.4596 70.2974 85.4947 70.5411 85.501C71.3378 85.5219 72.2296 85.4889 71.8745 85.5738C71.8576 85.5775 71.4215 85.5657 71.3951 85.5785C71.2223 85.6617 72.0556 85.6716 72.1565 85.7615C72.2357 85.832 71.7275 85.9573 71.6449 86.0375C70.3109 86.0359 70.6163 86.1116 71.5361 86.1424C71.4985 86.1944 71.5505 86.2507 71.4233 86.301C71.38 86.3183 70.9937 86.3069 70.952 86.3091C70.2974 86.3426 71.1922 86.3653 71.2273 86.3765C71.5683 86.4983 70.8901 86.5975 71.5529 86.7138C71.5768 86.7179 72.5034 86.7246 71.8268 86.7557C71.7802 86.7577 71.3586 86.7193 71.326 86.774C71.2933 86.8287 70.7965 86.9318 71.2259 87.0077C71.3293 87.0261 72.0816 87.0725 71.4938 87.1098C71.414 87.1148 71.1482 87.1094 71.0004 87.1165C70.5291 87.1397 71.4657 87.1524 70.67 87.1796C69.8744 87.2069 69.2785 87.2636 69.8274 87.3402C69.8434 87.3426 70.5858 87.3607 70.574 87.3848C70.5547 87.4233 70.4 87.4778 70.4048 87.518C70.4074 87.5372 70.8684 87.5249 70.8768 87.5282C71.1351 87.6574 70.7242 87.7494 70.5458 87.8878C70.5122 87.9132 71.1408 87.9861 70.6439 88.0353C70.0998 88.0892 67.8368 88.0338 68.3759 88.1578C68.5916 88.2078 71.4627 88.2711 69.9752 88.361C70.3438 88.5352 69.5824 88.6964 70.1088 88.8712C70.1321 88.8791 70.9334 88.9039 70.9225 88.9224C70.9047 88.9499 70.5302 88.9649 70.5055 88.9845C70.3927 89.0666 70.7132 89.1417 70.6633 89.2208C70.6452 89.2509 70.258 89.2404 70.2363 89.2762C70.215 89.312 70.725 89.3359 70.4787 89.3844C70.291 89.4211 69.2487 89.4577 69.1272 89.5064C70.1553 89.5082 70.1341 89.5416 70.4055 89.601C70.4582 89.6124 70.816 89.6002 70.8594 89.6056C71.0438 89.6276 70.7472 89.6479 70.948 89.6688C70.9962 89.6739 71.3473 89.6741 71.4065 89.6782C71.9236 89.7135 71.1338 89.7717 70.9963 89.7817C70.4741 89.8199 70.9307 89.8378 70.7251 89.8672C70.5195 89.8965 70.2624 89.8527 70.1376 89.8869C69.8795 89.9578 69.9362 90.049 69.9201 90.1211C69.9158 90.1498 70.3845 90.1302 70.3948 90.1343C70.5136 90.1938 70.0151 90.2539 70.9487 90.2869C68.5348 90.3281 71.1828 90.3227 70.6996 90.4077C70.6605 90.4144 69.519 90.4229 69.3514 90.3972C69.184 90.3715 69.5408 90.3326 69.2796 90.2969C69.2183 90.2885 68.1487 90.2401 68.0839 90.2335C67.5775 90.1818 69.2833 90.1745 69.3769 90.1717C70.388 90.1407 69.2357 90.0816 69.1561 90.066C68.7912 89.9948 69.0311 89.9343 68.7707 89.8747C68.6024 89.8358 67.485 89.832 67.5192 89.8014C67.6323 89.6997 69.191 89.6642 67.8395 89.5684C67.5512 89.5478 66.33 89.5682 67.2903 89.4946C67.3508 89.49 68.2293 89.4353 67.6736 89.4037C67.6036 89.3998 67.2477 89.3999 67.2178 89.3947C67.0244 89.3596 67.3079 89.3362 67.1721 89.298C67.0363 89.2599 66.8339 89.2139 66.9546 89.1703C67.0268 89.1441 67.6899 89.1103 67.8522 89.0978C68.3199 89.0623 67.5531 89.0242 68.1194 89.0022C68.6886 88.98 69.553 89.0234 69.9208 88.9652C68.9961 88.963 68.047 88.9581 67.1171 88.9546C67.1496 88.8271 67.4486 88.7016 67.4078 88.5737C67.4018 88.5578 66.9047 88.574 66.8854 88.557C66.8065 88.4853 67.1608 88.4226 67.0197 88.3483C66.9086 88.2907 66.3822 88.2275 66.2496 88.1673C67.3077 88.1305 66.9485 88.0412 67.0452 87.9763C67.0786 87.9535 67.3612 87.955 67.4534 87.9389C67.7944 87.8779 66.8594 87.9064 66.7122 87.8897C66.0842 87.818 68.2006 87.8118 68.1483 87.7272C68.1463 87.7227 67.0181 87.668 66.9479 87.6604C66.4898 87.6125 67.3405 87.6525 67.4239 87.6225C67.5762 87.5677 67.8456 87.5296 67.5152 87.4653C67.4173 87.4466 66.7142 87.4016 67.2581 87.3652C67.3293 87.3605 67.7022 87.3631 67.724 87.3593C68.088 87.2895 66.9163 87.2877 66.5195 87.2478C66.1228 87.2079 66.9316 87.1463 67.1647 87.1338C67.7678 87.101 67.4225 87.1589 67.4816 87.1607C68.1859 87.1816 68.0646 87.1367 68.1241 87.1023C69.273 87.0974 69.204 87.0494 68.1812 87.0668C68.0695 87.0687 68.1766 87.0955 68.1241 87.1023C66.997 87.0722 66.8526 87.0195 67.9059 86.9612C68.3996 86.934 68.9752 86.9597 68.7646 86.8769C68.6696 86.8393 67.8786 86.8538 67.6629 86.8207C67.1708 86.7449 67.9087 86.6464 67.7925 86.5682C67.7503 86.5399 67.3173 86.5675 67.2735 86.5481C67.156 86.4967 67.4809 86.4513 67.3145 86.3997C67.2988 86.395 66.8456 86.4064 66.8398 86.3904C66.7871 86.2686 67.0775 86.1626 67.0855 86.0354C67.0892 85.974 66.8392 85.8641 66.8895 85.8005C66.9739 85.6902 67.633 85.5545 67.4729 85.4603C67.3704 85.3988 66.917 85.4123 66.6082 85.386C66.0094 85.3352 67.0819 85.2452 67.248 85.2331C67.2535 85.2328 67.3604 85.2856 67.5931 85.2574C68.078 85.241 67.2501 85.2337 67.248 85.2331C67.3553 85.2252 67.4582 85.1195 67.3715 85.0986C67.3242 85.0872 66.8946 85.0935 66.8781 85.0876C66.4937 84.9463 66.3845 84.8048 66.5853 84.6616C66.594 84.659 67.0745 84.6628 67.0889 84.6569C67.3025 84.574 66.7147 84.5209 66.3658 84.4524C66.017 84.3841 66.1338 84.3298 66.9586 84.2893C66.8548 84.2377 67.2194 84.1637 67.4407 84.1211C67.6619 84.0785 66.7267 84.0725 66.7082 84.0688C66.1164 83.9518 66.6517 83.8843 66.735 83.763C66.7763 83.7053 66.6406 83.5909 66.5383 83.5284C66.4559 83.4791 66.6751 83.4494 66.535 83.4039C66.5163 83.3977 66.0998 83.404 66.0838 83.4021C65.5856 83.3513 66.6036 83.3757 66.7854 83.3652C67.4466 83.3273 67.7987 83.3038 67.4877 83.2388C67.4164 83.2238 65.9507 83.1801 65.8649 83.1528C65.7562 83.1173 66.2816 83.1307 66.1543 83.0935C66.1439 83.0903 65.8198 83.091 65.8341 83.068C65.8961 82.9615 66.0847 82.8453 66.0523 82.7345C66.0491 82.7194 65.5349 82.7388 65.5219 82.7169C65.4609 82.6144 65.4799 82.502 65.7206 82.402C65.7814 82.3774 66.1414 82.3929 66.2483 82.3875C66.895 82.3547 65.9553 82.3083 65.9374 82.3006C65.4859 82.1177 66.3363 81.9776 65.9314 81.7912C65.9076 81.781 64.9003 81.7029 65.7642 81.6681C65.8217 81.6657 66.7056 81.6312 66.1013 81.6007C66.0635 81.5988 65.6084 81.6203 65.6548 81.5828C65.7011 81.5453 65.3972 81.4849 65.8972 81.4334C66.0547 81.4171 66.9364 81.3785 66.2335 81.3298C66.1845 81.3266 64.5952 81.2515 65.6917 81.2247C65.8722 81.2203 67.0325 81.2249 66.4376 81.1668C66.3223 81.1557 66.0635 81.1758 65.9019 81.1466C65.6528 81.1018 65.9636 81.0424 65.4467 80.9873C65.3552 80.9777 64.5676 80.9368 65.1654 80.904C65.259 80.8989 65.6464 80.9086 65.6897 80.8913C65.8977 80.809 65.6385 80.7227 65.9066 80.6391C66.0007 80.6094 66.627 80.6246 66.7948 80.5937C66.9626 80.5628 67.1239 80.5006 66.8378 80.4683C66.5515 80.436 65.5534 80.4713 65.4735 80.4229C65.1266 80.2124 65.7121 80.0038 65.7978 79.7936C65.8106 79.7625 65.4534 79.7883 65.4467 79.7424C65.4201 79.573 65.0852 79.2805 65.8441 79.1336C66.452 79.0158 66.9147 79.164 67.1621 79.074C67.28 79.0306 66.1197 78.9836 66.0831 78.9731C65.712 78.8707 66.2261 78.7995 66.0684 78.7074C66.0356 78.6883 65.5653 78.707 65.5427 78.6908C65.4611 78.6355 65.671 78.5773 65.6326 78.5244C65.6143 78.5007 65.2551 78.5051 65.2828 78.4833C65.345 78.431 65.496 78.3849 65.8327 78.334C65.8634 78.3293 66.3102 78.3606 66.3268 78.322C66.3525 78.2594 66.6846 78.1818 66.3416 78.1099C66.2384 78.0885 65.4175 78.0877 65.9844 78.0418C66.1029 78.0322 67.0887 78.0444 66.2369 77.991C66.0953 77.982 64.9465 77.8922 65.687 77.8481C65.8819 77.8365 66.6886 77.8068 66.5618 77.7812C66.5416 77.7777 66.1006 77.7916 66.0576 77.7704C65.9137 77.6954 65.9608 77.6168 65.8226 77.5398C65.7849 77.5192 65.3286 77.5499 65.2869 77.5192C65.1715 77.4349 65.2877 77.3297 65.4305 77.2472C65.4841 77.2168 65.8621 77.2378 65.9032 77.2356C66.5723 77.2001 65.6692 77.179 65.6165 77.1672C65.3012 77.0938 65.7254 77.0379 65.6132 76.9703C65.5833 76.9516 65.1527 76.9648 65.1143 76.9611C64.7392 76.9226 65.5125 76.9513 65.5977 76.9269C65.8391 76.8585 65.8045 76.7823 65.7495 76.7132C65.7286 76.6878 65.2293 76.7164 65.2164 76.6936C65.1303 76.5587 65.1781 76.4185 65.4534 76.2869C65.5061 76.2621 65.8906 76.2777 65.9784 76.2725C66.5928 76.2369 65.7548 76.1847 65.6749 76.1727C65.3104 76.1181 65.6504 76.0969 65.587 76.0487C65.271 75.8132 65.4962 75.5224 65.6353 75.3001C65.8144 75.0105 66.1801 74.7857 66.0851 74.5095C66.0796 74.4919 65.5681 74.5096 65.5568 74.4945C65.4335 74.2991 65.6333 74.1067 65.4856 73.9109C65.4744 73.8948 64.9895 73.918 64.9552 73.8922C64.8815 73.8393 64.9078 73.7723 65.0626 73.7188C65.1372 73.6928 65.5533 73.7277 65.6199 73.7015C65.7759 73.6403 65.8104 73.5748 65.7327 73.512C65.6985 73.4853 65.2026 73.5256 65.1969 73.4909C65.1477 73.2543 65.0623 73.0219 65.7045 72.7828C65.7486 72.7664 66.7565 72.752 66.5632 72.7171C66.2835 72.7145 65.9544 72.7147 65.6555 72.7135C65.4944 72.3691 65.8438 72.0281 65.8978 71.6827C65.9 71.6681 65.366 71.6933 65.3674 71.6651C65.3753 71.5019 65.2274 71.3435 65.7582 71.1765C65.8101 71.16 66.7496 71.1685 66.6075 71.1197C66.5816 71.1111 66.4563 71.0375 66.2523 71.0185C66.2216 71.016 65.7831 71.0294 65.7703 71.0057C65.7037 70.868 65.8038 70.7238 66.0717 70.5864C66.1158 70.5642 66.5828 70.5878 66.6182 70.572C66.8661 70.4599 66.5111 70.3381 66.9351 70.231C67.2206 70.1593 68.0278 70.1859 68.8224 70.1478C68.9345 70.1424 68.9523 70.098 69.4145 70.0957C70.577 70.0898 71.8499 70.1113 73.089 70.1025C73.3559 70.1006 73.0685 70.0412 73.7134 70.0764C73.7566 70.0789 73.9706 70.1219 74.1894 70.1326C74.3407 70.1399 74.8109 70.1266 75.0045 70.1417C75.198 70.1568 74.8038 70.1733 75.0313 70.1983C75.2617 70.2233 75.7965 70.2123 75.8598 70.2622ZM68.4296 83.9292C68.8788 83.8898 67.2337 83.884 67.6273 83.9266C67.6483 83.9287 68.4076 83.9313 68.4296 83.9292ZM68.6895 88.7023C69.415 88.6508 68.3481 88.6155 67.7878 88.6519C67.228 88.6882 68.4695 88.7181 68.6895 88.7023ZM69.2192 89.2372C69.7913 89.1769 67.4585 89.1674 67.9301 89.2319C67.9568 89.2357 69.186 89.2407 69.2192 89.2372ZM69.0486 70.3244C69.0705 70.3238 69.0918 70.2919 69.0701 70.2912C68.5477 70.2742 68.5055 70.338 69.0486 70.3244ZM69.7959 89.7679C70.1114 89.749 69.7472 89.6949 69.3548 89.7182C69.0391 89.7371 69.4034 89.7913 69.7959 89.7679ZM70.1853 81.8713C70.2098 81.8707 70.2319 81.8478 70.0933 81.8483C69.647 81.8498 69.773 81.8817 70.1853 81.8713ZM69.8227 90.6698C69.9106 90.5366 71.8375 90.4558 71.62 90.6009C71.5807 90.6272 71.0056 90.5443 70.8318 90.5777C70.5153 90.6389 71.7252 90.6796 71.0769 90.742C70.9582 90.7533 69.8135 90.6775 69.8201 90.6696C69.821 90.6697 69.8219 90.6698 69.8227 90.6698ZM70.4055 83.9065C70.4273 83.9057 70.4479 83.8741 70.4263 83.8733C69.9041 83.8562 69.8622 83.9199 70.4055 83.9065ZM71.2024 80.5368C71.2488 80.535 71.2921 80.4615 71.2494 80.4591C70.3954 80.4208 70.3052 80.5694 71.2024 80.5368ZM71.6093 86.0388C72.1347 86.0733 72.1965 86.1147 71.5368 86.1422C71.5718 86.1079 71.577 86.0733 71.6093 86.0388Z" fill="black"/>
<path d="M69.6146 96.6062C68.6718 96.7644 67.4226 96.642 66.463 96.4617C66.1602 96.4059 66.3057 96.1096 66.0979 96.0581C65.6854 95.958 65.3144 96.1139 64.9163 95.9934C64.7822 95.9521 64.9304 95.4845 64.7895 95.4518C64.021 95.2762 63.3047 95.4233 62.5262 95.36C60.1405 95.1645 57.7664 95.118 55.3847 95.1349C55.0849 95.0553 54.5014 95.2145 53.7269 95.9464C53.069 96.5443 51.9523 97.4834 51.5266 98.6431C51.477 98.7781 51.8731 98.8993 51.8894 98.939C52.1366 99.5538 51.4853 99.0392 51.2579 99.2351C50.3566 100.02 49.7649 101.185 49.4411 102.278C49.3036 102.746 50.2358 102.638 49.6255 102.892C49.5839 102.91 49.2413 102.622 49.1453 102.724C48.9284 102.954 48.7647 103.512 48.6391 103.712C48.3936 104.099 48.3672 104.17 48.1897 104.562C47.9422 105.099 47.4641 105.656 47.2956 106.279C47.2606 106.412 47.7373 106.425 47.7177 106.655C47.6977 106.886 47.4285 107.398 47.253 107.535C47.0778 107.671 46.7957 107.452 46.709 107.451C45.9815 107.434 46.5502 108.428 46.5337 108.518C46.227 110.122 45.1499 111.136 44.4398 112.473C44.2111 112.904 43.9934 113.365 43.7721 113.819C43.5483 114.281 43.4119 114.815 43.4264 114.758C43.4175 114.728 43.472 114.499 43.2462 114.042C43.0152 113.567 42.4905 113.294 42.3377 113.283C42.0077 113.251 42.3186 113.37 42.6023 113.342C42.931 113.317 43.245 113.296 43.565 113.261C43.6928 113.247 43.5005 112.741 43.6604 112.723C45.4003 112.536 47.0636 112.525 48.7443 112.808C48.9127 112.837 48.7151 113.3 48.8846 113.357C49.9271 113.69 51.56 114.535 52.109 112.534C52.7953 112.59 53.6424 112.645 54.2725 113.027C54.6833 113.273 54.308 113.78 54.7944 113.555C54.901 113.505 54.7487 113.074 54.9098 113.032C55.5879 112.854 56.3747 112.976 57.0462 112.735C57.1855 112.685 57.1379 112.296 57.1761 112.225C57.4999 111.649 58.0839 112.575 58.2005 112.64C59.1278 113.128 59.8049 112.913 60.6606 112.908C60.8615 112.907 60.6133 112.389 60.8065 112.369C61.8028 112.274 62.8473 112.3 63.8103 112.515C64.0269 112.564 63.8362 113.013 63.9401 113.06C64.3993 113.258 64.4872 112.415 64.9345 112.59C65.0289 112.625 64.9823 113.008 65.0001 113.049C65.2754 113.702 65.4825 112.767 65.5504 112.746C66.393 112.451 66.9813 113.415 67.7903 113.266C67.8887 113.247 67.6594 112.768 67.9366 112.744C69.8066 112.585 71.7431 112.695 73.601 113.063C73.8835 113.119 73.6858 113.484 73.704 113.528C73.9999 114.224 74.1795 113.286 74.2719 113.25C74.9974 112.99 75.7121 113.768 76.1883 112.65C79.3007 113.012 82.3954 112.37 85.4849 113.362C85.5237 113.373 85.4553 113.834 85.5326 113.855C86.4664 114.112 86.2862 113.396 86.9079 112.519C87.0646 112.299 87.546 113.356 87.5888 113.433C87.7442 113.719 87.584 114.405 87.636 114.46C88.0666 114.894 87.9946 112.627 88.5659 112.626C88.5838 112.629 88.5089 113.047 88.5569 113.088C88.706 113.218 88.8541 113.053 89.0005 113.196C89.336 113.529 89.4549 114.63 89.9702 113.989C90.0357 113.906 89.9356 112.62 90.4537 112.681C90.6645 112.706 91.5586 112.685 91.8146 112.769C92.068 112.852 91.8933 113.267 91.9114 113.285C92.5945 113.834 92.3349 114.06 92.677 114.872C93.0195 115.681 92.9281 113.753 93.0691 113.538C93.213 113.324 93.7092 113.777 93.831 113.935C93.9529 114.092 93.7997 114.355 93.9082 114.445C94.6287 115.028 94.2279 113.489 94.4672 113.183C95.0325 112.461 95.469 113.892 95.9888 114.034C96.1082 114.066 96.0444 113.836 96.0991 113.748C96.109 113.732 96.1228 113.721 96.1421 113.716C96.6501 113.602 96.9189 114.049 97.4962 113.642C97.5912 113.576 98.0346 112.718 98.3345 113.351C98.3757 113.442 98.2561 113.797 98.4659 113.878C98.7704 113.999 99.3498 114.08 99.6754 113.962C99.9265 113.875 99.6411 113.287 99.9579 113.471C100.098 113.553 99.8369 113.895 100.099 114.02C100.352 114.146 101.027 114.133 101.271 114.122C101.529 114.111 101.389 113.665 101.41 113.635C101.54 113.464 102.009 113.25 102.06 113.251C104.174 113.179 106.327 114.018 108.098 113.494C108.209 113.449 108.019 113.011 108.034 112.999C108.187 112.741 108.36 114.029 108.877 114.235C108.443 113.576 108.478 113.508 108.38 113.574C108.393 113.525 108.407 113.471 108.414 113.411C108.433 113.236 108.055 113.18 108.027 113.151C107.591 112.739 108.313 112.85 108.471 112.844C109.043 112.848 108.472 112.494 108.85 112.478C109.229 112.442 109.686 112.853 109.764 112.472C109.45 112.306 108.528 112.367 108.435 112.098C108.115 111.182 108.64 109.45 108.473 108.582C108.342 107.774 108.186 107.538 108.142 107.036C108.044 106.129 107.535 106.664 107.055 106.287C106.566 105.912 108.159 105.502 108.449 105.289C108.736 105.074 108.371 105.138 108.505 104.967C108.639 104.795 108.947 104.9 108.913 104.65C108.878 104.393 108.031 104.067 107.666 104.158C106.893 104.345 106.293 104.959 106.277 104.294C106.276 104.255 106.709 104.162 106.687 104.023C106.491 102.919 105.951 101.923 105.648 100.837C105.607 100.688 106.085 100.561 106.066 100.471C105.86 99.5288 105.337 100.22 104.317 100.255C105.391 99.738 105.87 99.1254 105.514 98.5276C105.3 98.1689 104.896 98.5006 104.444 98.4619C104.308 98.4501 104.457 98.0127 104.222 98.0944C103.45 98.3595 102.834 99.063 102.764 98.2663C102.762 98.2306 103.187 98.0892 103.152 97.9824C102.935 97.2933 102.177 97.6524 101.698 97.0476C101.317 96.5663 101.215 95.3821 100.956 94.731C102.133 94.1039 101.562 93.6912 100.625 93.877C100.449 93.4537 100.187 93.0358 100.119 92.5761C100.097 92.4202 100.49 92.3533 100.52 92.3187C101.005 91.7987 100.106 91.9673 100.035 91.8872C99.7907 91.6002 99.6642 91.2568 99.585 90.9336C99.4758 90.4249 99.3348 89.8308 98.7222 89.8091C98.6792 89.7996 98.0203 90.4428 98.3954 89.873C98.4076 89.8233 98.8529 89.6446 98.6413 89.4285C98.535 89.3271 98.4133 89.0971 98.1655 88.9381C97.924 88.7788 97.5805 88.708 97.274 88.896C97.1192 88.984 96.7359 89.7149 96.4477 89.116C96.4096 89.0353 96.4648 88.7755 96.4129 88.6247L96.4601 88.6247C96.4596 88.6234 96.459 88.6221 96.4584 88.6208C96.2431 88.1578 96.1752 89.0979 95.9141 88.3125C95.6554 87.5271 95.146 86.9525 94.5252 87.5327C94.5052 87.5497 94.39 88.2986 94.1888 88.2972C93.8616 88.2944 93.399 88.1645 93.0602 88.1888C92.8994 88.2006 93.0289 88.6549 93.0014 88.6649C91.9345 88.9855 91.1433 88.6247 89.9659 88.5306C89.7493 88.5124 89.1872 89.1846 88.7378 88.7216C88.2413 88.2153 88.5313 85.9208 87.5254 86.544C87.1139 86.7946 86.8362 89.6994 85.9518 88.285C84.5244 88.7826 83.0996 88.1573 81.6874 88.8204C81.6252 88.8497 81.4907 89.6673 81.335 89.6709C81.1067 89.6745 80.9402 89.3138 80.7766 89.304C80.0799 89.2545 79.4744 89.629 78.8063 89.6285C78.8035 89.6285 78.8008 89.6285 78.7982 89.6284C78.547 89.6123 78.6153 89.2305 78.317 89.2194C78.0167 89.2082 77.831 89.724 77.4156 89.49C77.1016 89.3115 76.762 88.2787 76.3473 88.1701C76.3633 89.1983 76.0828 89.1855 75.5925 89.4743C75.4986 89.5304 75.614 89.8843 75.5703 89.9293C75.3903 90.1202 75.2129 89.8301 75.043 90.0376C75.0029 90.0874 75.0146 90.4383 74.9826 90.4989C74.7068 91.027 74.1925 90.259 74.1012 90.1257C73.7564 89.6187 73.6252 90.0823 73.3722 89.8892C73.115 89.6965 73.4718 89.4207 73.1755 89.3111C72.5627 89.0842 71.8 89.1862 71.1916 89.2107C70.9492 89.2226 71.1458 89.6792 71.1118 89.6918C70.6219 89.8437 70.0789 89.3839 69.8733 90.3359C69.3436 87.9558 69.592 90.5914 68.8426 90.1679C68.7841 90.1335 68.6182 89.0018 68.8191 88.8171C69.027 88.632 69.3791 88.9617 69.6625 88.678C69.7265 88.6115 70.0601 87.5139 70.1113 87.4454C70.5153 86.9084 70.6988 88.606 70.7272 88.6979C71.0575 89.6882 71.4786 88.5059 71.6072 88.4182C72.1884 88.016 72.7165 88.2266 73.2086 87.9406C73.5285 87.7558 73.5117 86.6381 73.7729 86.66C74.6563 86.7329 75.0099 88.2794 75.7802 86.9003C75.9444 86.6065 75.7324 85.3911 76.3901 86.331C76.4309 86.3902 76.9219 87.2542 77.1691 86.691C77.2008 86.62 77.1892 86.2642 77.2326 86.2331C77.5191 86.031 77.7255 86.3087 78.035 86.1628C78.2218 86.0739 78.4346 85.9589 78.6445 85.9067L78.5244 85.9135C78.6561 85.8757 78.7976 85.8628 78.937 85.8989C79.1527 85.9543 79.4825 86.592 79.6007 86.7448C79.9323 87.1859 80.1787 86.3939 80.412 86.9413C80.6486 87.4912 80.3668 88.3851 80.8839 88.7069C80.8169 87.7845 80.7707 86.8356 80.7136 85.907C81.769 85.8416 82.8555 86.0353 83.9251 85.8935C84.0588 85.8749 83.8745 85.3929 84.0172 85.3601C84.6145 85.2247 85.1765 85.5286 85.7951 85.3318C86.2744 85.1775 86.7635 84.6068 87.268 84.4318C87.6663 85.4602 88.4002 85.0404 88.9588 85.0952C89.1553 85.1138 89.1651 85.3965 89.309 85.4782C89.8501 85.78 89.5405 84.8654 89.6724 84.7082C90.2409 84.0378 90.4428 86.145 91.1555 86.045C91.1953 86.0402 91.5843 84.8846 91.6466 84.8105C92.0296 84.3275 91.741 85.1979 92.0006 85.2654C92.4758 85.3889 92.8132 85.6389 93.3458 85.2787C93.4968 85.1724 93.8479 84.4494 94.1852 84.9771C94.2294 85.0462 94.2257 85.4197 94.2595 85.4399C94.871 85.7741 94.8309 84.6035 95.1539 84.1914C95.4819 83.7792 96.0395 84.5655 96.1576 84.7942C96.4636 85.3854 95.9524 85.0604 95.9403 85.1202C95.8118 85.7372 96.0777 85.7155 96.3454 85.7303C96.3826 85.7312 96.4938 85.7266 96.5308 85.7304C96.5706 85.7359 96.6108 85.7423 96.6498 85.7518C96.6425 86.9006 97.0705 86.8525 96.9677 85.8234C96.9531 85.7105 96.7051 85.8064 96.6498 85.7518C96.9372 84.6386 97.5326 84.5044 98.1199 85.656C98.3809 86.214 97.9313 86.6566 98.9631 86.7396C99.4526 86.8237 99.5732 86.01 100.169 86.0687C100.864 86.1549 101.501 86.7538 101.849 87.3637C102.215 87.9816 102.357 88.5843 102.608 89.0003C102.788 89.3085 103.048 88.8177 103.186 89.0315C103.314 89.2324 103.376 89.4419 103.416 89.6515C103.428 89.8487 103.411 90.0813 103.594 90.2505C103.62 90.2735 104.013 90.036 104.057 90.131C104.408 90.8547 104.5 91.689 104.965 92.5588C105.188 92.9778 105.84 93.6114 106.059 94.0763C106.438 94.8832 106.467 96.1913 107.018 96.7861C107.376 97.1751 107.703 96.8418 108.084 96.8719C108.821 96.9299 108.305 98.1492 108.216 98.324C108.212 98.3292 107.886 97.9951 107.812 98.3228C107.469 98.6934 108.211 98.3206 108.216 98.324C108.159 98.4371 108.538 99.2743 108.705 99.3904C108.796 99.4524 109.139 99.1875 109.179 99.2242C110.136 100.101 110.862 101.177 111.274 102.472C111.276 102.497 110.829 102.677 110.84 102.732C110.982 103.512 111.719 103.715 112.303 104.208C112.882 104.694 112.972 105.282 112.322 105.934C112.589 106.391 112.453 107.234 112.335 107.706C112.22 108.18 113.143 108.05 113.171 108.088C113.995 109.252 113.571 110.162 113.415 111.619C113.353 112.318 113.22 113.785 113.013 114.606C112.927 115.001 112.748 115.261 112.593 115.537C112.243 116.305 111.499 117.088 110.886 117.506C110.67 117.658 111.112 117.878 111.05 117.934C110.196 118.685 110.07 118.502 109.939 118.339C109.832 118.148 109.813 117.838 109.669 117.79C108.702 117.388 108.444 117.046 107.778 117.434C107.626 117.521 107.295 119.014 107.014 119.114C106.68 119.239 106.771 118.709 106.436 118.849C106.407 118.86 106.422 119.184 106.206 119.177C105.222 119.143 104.226 118.959 103.272 118.994C103.14 118.997 103.305 119.511 103.122 119.525C102.245 119.586 101.295 119.564 100.448 119.32C100.246 119.259 100.374 118.899 100.33 118.792C100.065 118.144 99.6518 119.082 99.5954 119.1C98.3179 119.469 97.2906 118.942 96.0793 118.981C95.8301 118.989 95.5739 119.02 95.307 119.088C95.221 119.112 94.5613 120.117 94.2728 119.252C94.253 119.195 93.9668 118.31 93.7113 118.914C93.6954 118.951 93.8732 119.407 93.5611 119.36C93.252 119.313 92.7347 119.616 92.3037 119.115C92.1668 118.957 91.8436 118.075 91.4359 118.777C91.4082 118.826 90.7835 120.415 90.5578 119.318C90.5213 119.138 90.5598 117.977 90.0686 118.572C89.9749 118.687 90.1447 118.946 89.898 119.108C89.5203 119.357 89.022 119.046 88.5633 119.563C88.4819 119.655 88.1475 120.442 87.8677 119.845C87.8241 119.751 87.9064 119.364 87.7597 119.321C87.0622 119.113 86.3393 119.374 85.644 119.107C85.3977 119.013 85.5231 118.387 85.2611 118.22C84.9986 118.053 84.473 117.893 84.203 118.18C83.9328 118.467 84.2316 119.464 83.8268 119.545C82.0688 119.898 80.3092 119.321 78.5501 119.247C78.291 119.236 78.5076 119.591 78.1271 119.601C76.6892 119.637 74.2558 119.993 73.0131 119.247C72.0143 118.649 73.2577 118.174 72.4975 117.934C72.1311 117.82 71.7534 118.985 71.6671 119.022C70.8175 119.403 70.1986 118.896 69.4401 119.064C69.2831 119.099 69.4435 119.567 69.31 119.591C68.8448 119.679 68.3474 119.476 67.9079 119.52C67.7105 119.541 67.752 119.9 67.5705 119.875C67.1436 119.819 66.7389 119.674 66.3081 119.344C66.2686 119.314 66.5247 118.863 66.1999 118.851C65.675 118.834 65.029 118.512 64.422 118.865C64.2444 118.971 64.2506 119.792 63.8586 119.232C63.7768 119.115 63.8601 118.127 63.4334 118.987C63.3713 119.13 62.6185 120.292 62.2407 119.559C62.1399 119.366 61.8773 118.564 61.6679 118.695C61.6396 118.716 61.7631 119.154 61.5886 119.201C60.9611 119.357 60.2923 119.323 59.6657 119.475C59.4907 119.517 59.762 119.967 59.5015 120.015C58.7826 120.145 57.9255 120.049 57.218 119.923C56.963 119.876 57.1292 119.494 57.1097 119.453C56.7967 118.791 56.6468 119.699 56.5514 119.754C55.9439 120.084 55.4546 119.673 54.9086 119.8C54.7522 119.834 54.8756 120.262 54.8452 120.301C54.5264 120.685 54.7499 119.905 54.5401 119.826C53.9529 119.6 53.3367 119.653 52.7495 119.726C52.539 119.754 52.7913 120.245 52.6029 120.264C51.4856 120.385 50.3151 120.377 49.2135 120.144C49.0051 120.099 49.12 119.71 49.0736 119.624C48.7555 119.021 48.3645 119.876 48.2613 119.96C47.8143 120.344 47.6578 120.011 47.2416 120.093C46.0445 120.354 44.3847 120.414 43.5057 120.433C42.861 120.478 42.1438 120.568 40.8487 120.313C40.203 120.167 39.313 119.91 38.3381 119.146C37.352 118.402 36.5962 117.07 36.3952 116.092C35.9534 113.476 36.618 112.781 36.8616 112.017C37.1825 111.311 37.4944 110.827 37.7927 110.384C38.5423 109.375 39.2194 108.344 39.7777 107.037C39.833 106.908 39.3108 106.815 39.3522 106.702C39.9068 105.251 40.7235 103.898 41.2485 102.336C41.2923 102.208 40.7704 102.191 40.8258 101.979C40.9375 101.542 41.1885 101.036 41.5167 100.676C41.6753 100.502 41.9347 100.944 42.0864 100.765C42.4396 100.353 42.7023 99.8483 42.8591 99.315C42.9252 99.0873 42.3269 99.2047 42.4484 98.924C43.2718 97.0157 44.1195 95.0063 45.9911 93.2633C46.1199 93.1456 47.0411 93.5753 47.08 93.1753C46.8645 92.995 46.5925 92.8098 46.353 92.6304C47.6825 90.5619 50.2262 87.4747 54.8445 87.1939C55.6714 87.1815 56.4856 87.1675 57.3132 87.1326C57.4364 87.1273 57.1917 86.6071 57.4299 86.5942C58.8244 86.5187 60.1702 86.2983 61.6202 86.7619C61.7645 86.8072 61.7379 87.7487 62.1433 87.5881C62.2127 87.5588 62.838 87.4059 62.9886 87.1956C63.0096 87.164 62.8752 86.7307 63.0794 86.7093C64.2528 86.5935 65.4929 86.6492 66.6724 86.8832C66.8664 86.9218 66.675 87.3944 66.8125 87.426C67.7726 87.6465 68.8098 87.268 69.737 87.6785C70.3573 87.9555 70.1422 88.7658 70.4694 89.5568C70.527 89.6682 70.8885 89.6832 70.9215 90.1454C70.9786 91.3076 70.8007 92.5816 70.8832 93.8202C70.9142 94.0865 71.3599 93.7981 71.0963 94.4436C71.0842 94.4866 70.7306 94.7027 70.6501 94.9224C70.5914 95.0742 70.7049 95.5434 70.5822 95.7381C70.4628 95.9327 70.3223 95.5401 70.1226 95.7702C69.9194 96.0033 70.0182 96.5366 69.6146 96.6062ZM111.692 109.801C111.278 110.227 112.924 110.188 112.493 109.752C112.47 109.731 111.712 109.778 111.692 109.801ZM82.9658 87.2723C83.4706 87.9528 83.6608 86.8631 83.3037 86.3342C82.9462 85.806 82.8127 87.066 82.9658 87.2723ZM78.6072 88.1913C78.6552 88.2424 78.6984 88.2688 78.7369 88.2751L78.6986 88.2773C79.0602 88.3226 78.9671 86.6717 78.5934 86.8496L78.6811 86.8446C78.6563 86.8554 78.6298 86.8741 78.6015 86.9016C78.5724 86.9294 78.5768 88.1592 78.6072 88.1913ZM68.9734 89.8053C68.9807 89.827 69.2537 89.8433 69.2576 89.8216C69.3934 89.2966 68.8479 89.2643 68.9734 89.8053ZM74.163 88.9212C74.334 89.2292 74.776 88.8463 74.5631 88.4624C74.3909 88.1535 73.9473 88.5379 74.163 88.9212ZM95.9999 114.837C95.9946 114.812 95.8008 114.789 95.8042 114.928C95.8157 115.374 96.0861 115.249 95.9999 114.837ZM66.5656 89.4911C67.7013 89.4715 68.5351 91.3341 67.3107 91.2262C67.0876 91.2072 67.7293 90.5707 67.4334 90.4234C66.8907 90.1553 66.6708 91.3917 66.0832 90.7983C65.9766 90.6894 66.503 89.4875 66.5673 89.4883C66.5667 89.4892 66.5661 89.4902 66.5656 89.4911ZM109.741 110.181C109.721 110.19 109.717 110.455 109.738 110.46C110.268 110.586 110.276 110.021 109.741 110.181ZM84.7674 113.813C84.7521 113.767 84.1321 113.725 84.1125 113.768C83.792 114.623 85.0445 114.71 84.7674 113.813ZM100.982 94.7045C100.379 94.6977 100.146 94.3901 100.625 93.8785C100.729 94.1558 100.869 94.43 100.982 94.7045Z" fill="black"/>
</svg>
