<svg width="150" height="150" viewBox="0 0 150 150" fill="none" xmlns="http://www.w3.org/2000/svg">
<path d="M73.836 30.4764C72.9512 30.6486 71.7762 30.5585 70.8594 30.4132C70.5736 30.3682 70.6953 30.0672 70.4942 30.0236C70.1028 29.9389 69.7564 30.1102 69.3689 30.008C69.2404 29.9727 69.356 29.4992 69.2214 29.4729C68.4715 29.3336 67.8066 29.5173 67.0582 29.5009C63.3911 29.4219 59.8111 29.8355 56.2317 30.5325C55.0553 30.761 53.5311 30.7689 52.4254 31.3416C52.2971 31.4084 52.5092 31.7643 52.4944 31.8047C52.265 32.4251 52.1282 31.6066 51.8288 31.5975C50.664 31.5636 49.5127 31.9859 48.6439 32.5609C48.6304 32.5698 48.617 32.5787 48.6037 32.5876C48.2326 32.8402 48.9808 33.3731 48.3888 33.1588C48.3477 33.145 48.2579 32.7093 48.1288 32.7218C47.8363 32.7498 47.4061 33.0608 47.2037 33.1332C46.8115 33.2703 46.7533 33.3084 46.4138 33.5001C45.9525 33.7575 45.2972 33.9169 44.8773 34.3216C44.7891 34.4086 45.1699 34.6825 45.0547 34.8528C44.9391 35.0219 44.5096 35.2837 44.3103 35.3037C44.1109 35.3224 43.9612 35.0016 43.8891 34.9562C43.2772 34.5738 43.3707 35.6835 43.3321 35.7463C42.5095 36.9177 41.2958 37.3423 40.3849 38.3221C39.7005 39.062 39.1428 40.0053 38.5399 40.7561C37.8204 41.6501 37.061 42.3259 36.4762 43.3085C36.4149 43.4111 36.9268 43.5738 36.8536 43.6989C36.0734 45.0318 35.2593 46.3413 34.2123 47.5698C34.1068 47.6933 33.7998 47.2994 33.6699 47.4109C32.8849 48.0884 31.3749 49.1096 32.9124 50.493C32.5546 51.0555 32.1429 51.7445 31.5289 52.1225C31.1355 52.3626 30.8396 51.817 30.8354 52.3353C30.834 52.4521 31.287 52.506 31.2552 52.6673C31.119 53.3503 30.6922 53.9598 30.6284 54.6629C30.6167 54.8054 30.9881 54.9282 31.037 54.9914C31.4284 55.5121 30.3516 55.6342 30.2428 55.7141C29.4217 56.3303 29.3477 57.0142 29.0092 57.7821C28.9301 57.9611 29.5019 57.9518 29.4432 58.1313C29.3009 58.5581 29.1311 58.9851 28.9301 59.4028C28.7039 59.8719 28.4468 60.3176 28.1523 60.7272C28.0284 60.8976 27.6825 60.5599 27.6019 60.6334C27.2523 60.9605 28.0033 61.352 27.6841 61.6816C27.618 61.7514 27.2786 61.5704 27.2337 61.5708C26.528 61.5792 27.3254 62.1104 27.3229 62.1768C27.3106 63.0288 26.2188 63.2052 26.0976 64.0069C26.0846 64.1019 26.6091 64.0521 26.5454 64.3085C26.1213 66.0263 25.4986 67.7542 24.737 69.3796C24.6198 69.6305 24.3082 69.3632 24.2609 69.3698C23.5179 69.4927 24.3945 69.869 24.4111 69.9603C24.5133 70.6968 23.6204 71.2047 24.6387 71.8544C23.751 74.7164 24.1494 77.6117 23.2656 80.5352C23.2555 80.5726 22.7924 80.5243 22.7743 80.5993C22.5577 81.523 23.2676 81.3189 24.1809 81.8278C24.4099 81.9505 23.3955 82.4922 23.3229 82.5416C23.0524 82.7149 22.3554 82.6271 22.305 82.6817C21.9139 83.1426 24.1604 82.8391 24.2223 83.3685C24.2205 83.386 23.7977 83.3641 23.7619 83.4145C23.6494 83.572 23.8315 83.6913 23.707 83.847C23.4193 84.204 22.3427 84.4711 23.0536 84.8739C23.1459 84.9221 24.4 84.6335 24.4184 85.1127C24.422 85.3018 24.5997 86.1322 24.5685 86.3785C24.535 86.6259 24.0965 86.553 24.0822 86.5728C23.6811 87.3173 23.4097 87.1318 22.6924 87.639C21.9825 88.1548 23.8378 87.62 24.0776 87.6982C24.3158 87.7743 23.9939 88.3478 23.8735 88.5053C23.7517 88.6608 23.4591 88.5832 23.4002 88.7093C23.0233 89.5468 24.4042 88.757 24.7589 88.8937C25.5989 89.2067 24.3453 90.0009 24.3666 90.5287C24.3721 90.6698 24.6482 90.4648 24.7141 90.5696C24.9708 90.9817 24.6399 91.3955 25.2077 91.769C25.3011 91.833 26.2518 91.931 25.7627 92.4178C25.6919 92.4875 25.3181 92.5077 25.3162 92.7258C25.3114 93.0498 25.4427 93.5905 25.678 93.8465C25.851 94.0339 26.2884 93.5569 26.2347 93.9019C26.211 94.0557 25.7985 93.9606 25.7815 94.2408C25.7669 94.5285 26.0348 95.1064 26.1493 95.3312C26.2615 95.5522 26.6123 95.2458 26.6478 95.2519C26.8539 95.2924 27.241 95.623 27.258 95.6601C27.9016 96.9656 28.2105 98.367 28.7204 99.6975C28.928 100.246 29.195 100.769 29.5654 101.241C29.6615 101.364 30.01 101.033 30.0288 101.049C30.4687 101.39 29.1874 101.692 29.0381 102.24C29.8137 101.683 29.7841 101.963 30.0815 102.219C30.2253 102.341 30.4753 102.051 30.5159 102.044C31.1248 101.943 30.6353 102.503 30.5441 102.63C30.2049 103.093 30.8405 102.872 30.6201 103.185C30.4051 103.501 29.8018 103.59 30.0342 103.887C30.3679 103.762 30.9155 103.01 31.195 103.138C32.2213 103.611 32.9722 105.46 33.5475 106.098C34.0998 106.729 34.3467 106.859 34.6321 107.277C35.1558 108.026 35.3429 107.312 35.951 107.426C36.5622 107.537 35.3312 108.631 35.1718 108.953C35.0135 109.275 35.3078 109.05 35.2649 109.262C35.2227 109.474 34.9044 109.524 35.0438 109.728C35.1851 109.935 36.0755 109.839 36.3616 109.596C36.9697 109.085 37.2384 108.269 37.5436 108.858C37.5612 108.892 37.2137 109.166 37.2945 109.281C37.9443 110.181 38.8393 110.838 39.5593 111.681C39.6582 111.797 39.2813 112.116 39.3361 112.189C39.9094 112.945 40.093 112.099 40.9938 111.629C40.2447 112.556 40.0653 113.31 40.6337 113.693C40.9735 113.922 41.1991 113.45 41.6208 113.289C41.7472 113.241 41.7941 113.696 41.9713 113.52C42.5502 112.946 42.8092 112.052 43.2002 112.728C43.2167 112.759 42.898 113.072 42.9723 113.152C43.4549 113.67 43.974 113.013 44.6519 113.329C44.797 113.397 44.9474 113.52 45.1005 113.673L44.8294 113.531C45.2781 113.847 45.7876 114.35 46.2073 114.567C45.7307 115.814 46.4317 115.743 46.9649 114.953C47.3505 115.126 47.7963 115.218 48.1453 115.462C48.2657 115.545 48.0624 115.886 48.0666 115.931C48.1334 116.638 48.5777 115.838 48.6725 115.83C49.7119 115.786 50.3176 116.653 51.3981 116.24C51.4364 116.225 51.7136 115.339 51.7931 116.055C51.7984 116.104 51.3958 116.44 51.8188 116.577C52.2435 116.714 52.9587 117.387 53.6571 117.097C53.8302 117.028 54.3469 116.368 54.5286 117.005C54.5526 117.091 54.4556 117.343 54.4841 117.5C54.5804 118 54.8629 117.102 54.9271 117.925C54.9923 118.749 55.3446 119.426 56.074 119.003C56.0978 118.991 56.3797 118.288 56.5708 118.335C56.877 118.41 57.2983 118.642 57.6225 118.693C57.7794 118.718 57.7578 118.246 57.7864 118.243C58.8771 118.168 59.5588 118.695 60.6581 119.048C60.8636 119.114 61.5475 118.583 61.8761 119.135C62.2399 119.74 61.4471 121.91 62.5449 121.528C62.9979 121.376 63.9138 118.609 64.4418 120.187C65.9216 120.025 67.134 120.961 68.6344 120.635C68.7022 120.62 69.0151 119.854 69.1671 119.886C69.3864 119.933 69.458 120.321 69.6144 120.367C70.2751 120.571 70.924 120.335 71.5716 120.472C71.8183 120.524 71.6798 120.896 71.9672 120.956C72.2551 121.016 72.5175 120.537 72.8855 120.835C73.1692 121.062 73.3168 122.134 73.7014 122.308C73.8402 121.381 74.0764 121.347 74.5191 121.195C74.563 121.179 74.6071 121.162 74.6529 121.143C74.7525 121.101 74.6915 120.735 74.7405 120.696C74.9391 120.533 75.0752 120.846 75.2657 120.664C75.3118 120.62 75.351 120.271 75.3909 120.216C75.73 119.732 76.123 120.564 76.1929 120.709C76.4567 121.258 76.6461 120.817 76.8677 121.043C77.0903 121.269 76.7068 121.494 76.9791 121.642C77.5429 121.951 78.3027 121.951 78.8991 122.006C79.1362 122.025 79.0042 121.547 79.0389 121.539C79.5354 121.452 80.006 121.977 80.3258 121.059C80.542 123.487 80.6332 120.841 81.3072 121.355C81.3602 121.397 81.3818 122.54 81.1609 122.698C80.939 122.856 80.6325 122.484 80.3226 122.73C80.2501 122.788 79.7872 123.834 79.7272 123.896C79.2609 124.376 79.3018 122.669 79.285 122.574C79.0905 121.55 78.5277 122.667 78.3893 122.737C77.7687 123.059 77.2802 122.779 76.7595 122.996C76.4202 123.135 76.2857 124.244 76.0288 124.186C75.2284 124.003 75.0658 122.604 74.266 123.457C74.256 123.456 74.2258 123.453 74.216 123.451C74.1608 123.508 74.1025 123.575 74.0408 123.653C73.833 123.916 73.8367 125.149 73.3608 124.116C73.3299 124.05 73.0046 123.12 72.6724 123.636C72.6302 123.702 72.5838 124.054 72.5365 124.078C72.2205 124.231 72.066 123.924 71.7367 124.017C71.4105 124.11 71.0033 124.26 70.661 124.092C70.4548 123.991 70.2694 123.297 70.1895 123.122C69.9641 122.62 69.5416 123.337 69.4387 122.751C69.3337 122.163 69.8034 121.354 69.3786 120.925C69.2369 121.839 69.0691 122.774 68.9159 123.692C67.8706 123.517 66.8848 123.081 65.8271 122.975C65.6954 122.962 65.7605 123.473 65.6177 123.473C65.0219 123.469 64.5454 123.044 63.9207 123.098C63.4249 123.139 62.8379 123.586 62.3145 123.643C62.1624 122.551 61.3746 122.797 60.8518 122.62C60.67 122.558 60.7266 122.281 60.6072 122.169C60.1502 121.754 60.2459 122.714 60.0839 122.838C59.3932 123.366 59.6689 121.267 58.9658 121.206C58.9307 121.203 58.2941 122.242 58.218 122.3C57.7431 122.686 58.2158 121.902 57.9809 121.778C57.5591 121.553 57.2775 121.231 56.6952 121.464C56.5212 121.533 56.0185 122.158 55.8157 121.568C55.7891 121.49 55.8782 121.128 55.8505 121.1C55.3346 120.635 55.1046 121.783 54.6974 122.109C54.2819 122.434 53.9227 121.538 53.8655 121.288C53.7092 120.641 54.1265 121.078 54.1513 121.022C54.4607 120.365 54.0689 120.412 53.7925 120.294C53.9807 119.16 53.5757 119.146 53.5093 120.177C53.5027 120.29 53.7456 120.231 53.7925 120.294C53.3175 121.347 52.836 121.395 52.5756 120.259C52.4559 119.727 52.7948 119.215 52.0649 119.265C51.7346 119.287 51.6788 120.086 51.3508 120.231C50.5998 120.56 49.9541 119.638 49.2755 119.574C49.0292 119.551 49.1451 120.031 48.972 120.029C48.5043 120.023 48.2165 119.603 47.7355 119.634C47.6917 119.637 47.6586 120.1 47.5214 120.065C46.4744 119.805 45.6704 119.235 44.6171 118.84C44.1793 118.677 43.3771 118.565 42.8392 118.363C42.7229 118.306 42.3786 118.145 42.2744 118.068C42.1997 118.024 42.1319 117.979 42.0737 117.933C41.3524 117.369 40.7607 116.204 40.013 115.906C39.5251 115.71 39.3712 116.151 39.0161 116.287C38.3274 116.552 38.2838 115.234 38.292 115.039C38.2924 115.032 38.725 115.193 38.6551 114.866C38.8093 114.386 38.2976 115.04 38.292 115.039C38.2958 114.913 37.6101 114.325 37.4149 114.295C37.3083 114.279 37.1097 114.664 37.0583 114.648C35.8423 114.279 34.7638 113.643 33.8778 112.708C33.8655 112.688 34.1849 112.327 34.1522 112.284C33.7052 111.669 32.9771 111.838 32.2739 111.709C31.5742 111.581 31.2636 111.154 31.5388 110.294C31.1194 110.061 30.8715 109.33 30.751 108.903C30.6313 108.477 29.9339 109.1 29.8955 109.088C28.7057 108.728 28.6483 107.879 27.9806 106.951C27.6609 106.509 26.8902 105.729 26.4634 105.289C26.1229 104.945 26.1459 104.583 25.7924 104.29C25.7446 104.25 25.4253 104.524 25.402 104.517C24.7125 104.356 25.7059 104.022 25.8069 103.841C26.1806 103.184 26.3752 102.829 25.8097 102.453C25.682 102.371 24.1904 102.693 23.9879 102.484C23.7884 102.278 24.0618 102.161 24.0663 101.993C24.0716 101.952 24.0553 101.909 23.9999 101.861C23.9792 101.843 23.6916 101.992 23.622 101.82C23.2931 101.016 23.0192 100.046 22.5782 99.2018C22.5182 99.0841 22.1281 99.4597 22.0333 99.2919C21.5954 98.5186 21.1877 97.5843 21.0582 96.6726C21.0267 96.4449 21.4124 96.4309 21.4918 96.3448C21.9701 95.8196 20.9485 95.8089 20.9044 95.7482C19.859 94.3811 20.2194 92.8883 19.3367 91.3836C19.2882 91.3103 18.111 90.8759 18.8614 90.3387C18.9103 90.3002 19.6817 89.7705 19.027 89.6517C18.986 89.6435 18.5955 89.953 18.5531 89.6012C18.5114 89.252 18.0847 88.7805 18.4687 88.1975C18.5885 88.0089 19.3792 87.4981 18.6038 87.1975C18.5504 87.1866 16.8552 86.7749 17.8946 86.3399C18.066 86.2682 19.2148 86.1183 18.543 85.6909C18.413 85.6077 18.1864 85.8336 17.9846 85.5892C17.6734 85.2085 17.9072 84.6377 17.3328 84.1826C17.2309 84.1033 16.4041 83.8078 16.9682 83.4391C17.0566 83.3821 17.451 83.4336 17.4783 83.2696C17.6103 82.4826 17.2968 81.7188 17.5309 80.9205C17.6139 80.6463 18.2449 80.7596 18.4029 80.4775C18.5605 80.1952 18.7104 79.636 18.423 79.3425C18.1354 79.0537 17.1378 79.3787 17.0579 78.9346C16.7159 76.9656 17.4326 75.0645 17.7528 73.1942C17.8014 72.9128 17.4162 73.1036 17.4652 72.6814C17.6261 71.1577 17.8101 68.4452 18.8667 67.346C19.7077 66.4566 19.8433 67.8555 20.2726 67.1414C20.4758 66.8105 19.4567 66.1211 19.4458 66.0195C19.3238 65.0312 19.9896 64.5753 20.0747 63.7485C20.0928 63.5767 19.5943 63.5991 19.6151 63.4535C19.6848 62.9468 20.0386 62.5289 20.1486 62.0733C20.1971 61.8685 19.8441 61.7917 19.9323 61.6156C20.1391 61.1955 20.4228 60.8387 20.886 60.5419C20.9284 60.5146 21.2583 60.9194 21.3864 60.6102C21.5927 60.1095 22.1418 59.5839 22.049 58.874C22.0188 58.6665 21.2564 58.3603 21.9303 58.1968C22.0717 58.1619 22.9468 58.6268 22.3286 57.8795C22.2341 57.7678 21.5916 56.7883 22.1116 56.5491C22.1617 56.5281 22.223 56.5144 22.2972 56.5094C22.5147 56.4944 23.3547 56.5772 23.3207 56.331C23.3133 56.2964 22.8616 56.2328 22.8908 56.0526C22.9986 55.4248 23.3017 54.8292 23.4262 54.1863C23.4592 54.0132 22.9381 54.0712 23.0018 53.8162C23.1761 53.1151 23.6356 52.3464 24.0474 51.7655C24.1996 51.5527 24.4742 51.8672 24.5194 51.8666C25.2515 51.8643 24.4995 51.3326 24.492 51.2198C24.4574 50.5212 25.0395 50.2618 25.1774 49.6893C25.2164 49.5322 24.7779 49.4557 24.7562 49.4109C24.5523 48.9551 25.1531 49.5002 25.3172 49.3472C25.7819 48.9142 26.0238 48.3153 26.233 47.75C26.3088 47.5432 25.7519 47.5502 25.8255 47.3666C26.2506 46.2803 26.8451 45.1963 27.6275 44.3017C27.7761 44.1329 28.0519 44.4341 28.1508 44.4349C28.8388 44.447 28.3136 43.6553 28.2962 43.5205C28.2081 42.9202 28.5976 42.9191 28.7501 42.5179C29.4963 40.5321 31.1128 38.3994 32.4618 36.8359C34.2215 34.7903 35.8974 33.4555 37.7666 31.6288C37.8871 31.5133 37.4199 31.2451 37.5208 31.1396C38.851 29.7885 40.4722 28.8206 42.0032 27.6946C42.1309 27.6023 41.6814 27.3101 41.8806 27.1468C42.2821 26.8125 42.8776 26.4976 43.4071 26.3855C43.666 26.3294 43.5667 26.857 43.8212 26.7946C44.4162 26.6502 44.981 26.4026 45.4937 26.0738C45.5367 26.046 45.5493 26.0126 45.5441 25.9758C45.5388 25.9399 45.5168 25.9006 45.4897 25.8601C45.4283 25.7689 45.3401 25.6715 45.3626 25.5901C45.3711 25.5578 45.397 25.5282 45.4488 25.5029C47.4814 24.5014 49.5097 23.679 51.7614 23.6666C51.9161 23.666 52.3265 24.5947 52.5669 24.3231C52.5109 24.048 52.4177 23.7325 52.344 23.4425C55.2777 22.4237 58.2937 22.1478 61.2612 21.7204C61.3872 21.7022 61.0844 21.2101 61.3288 21.1722C62.7364 20.9551 64.0921 20.6203 65.5909 20.9812C65.739 21.0165 65.7738 21.9575 66.1711 21.7703C66.2435 21.7357 66.8588 21.5438 66.9977 21.3252C67.0172 21.2923 66.8559 20.8679 67.06 20.8344C68.2373 20.6484 69.4936 20.6441 70.6973 20.8344C70.8925 20.8659 70.7181 21.3451 70.8566 21.3718C71.8305 21.5576 72.8643 21.1521 73.807 21.548C74.4243 21.8161 74.2322 22.6294 74.5667 23.4166C74.6089 23.5276 74.9939 23.5391 75.0171 24.0014C75.0798 25.1632 74.9217 26.4383 75.0105 27.6763C75.0336 27.9425 75.4778 27.6509 75.2196 28.2983C75.2047 28.3413 74.8691 28.5598 74.7895 28.7804C74.7371 28.9327 74.8449 29.4009 74.7364 29.5966C74.6281 29.7922 74.4927 29.4008 74.2997 29.6335C74.1174 29.869 74.2211 30.4005 73.836 30.4764ZM30.2583 106.982C30.3559 106.423 29.0978 107.485 29.6525 107.508C29.6809 107.508 30.2544 107.01 30.2583 106.982ZM67.0583 121.851C66.7345 121.074 66.3044 122.092 66.5224 122.688C66.7419 123.283 67.1576 122.087 67.0583 121.851ZM71.5144 121.922C71.0918 121.287 70.7027 123.589 71.2994 123.193C71.3341 123.171 71.5392 121.958 71.5144 121.922ZM73.0855 23.6884C73.0918 23.7099 73.3598 23.7209 73.3646 23.6991C73.4883 23.1715 72.9494 23.1501 73.0855 23.6884ZM75.9644 121.893C75.8394 121.564 75.3549 121.881 75.5093 122.291C75.6351 122.621 76.1215 122.302 75.9644 121.893ZM23.606 90.7867C23.6277 90.7744 23.5908 90.5851 23.4598 90.6303C23.0379 90.7771 23.2401 90.9961 23.606 90.7867ZM83.4374 122.314C82.3365 122.188 81.7486 120.237 82.9317 120.498C83.1465 120.545 82.4436 121.095 82.7124 121.279C83.2061 121.613 83.5823 120.416 84.0757 121.081C84.165 121.203 83.5001 122.326 83.4353 122.317C83.436 122.316 83.4367 122.315 83.4374 122.314ZM31.584 105.504C31.5954 105.484 31.436 105.276 31.4159 105.286C30.9295 105.526 31.2576 105.953 31.584 105.504ZM22.7955 79.8712C22.8405 79.8572 22.8758 79.2555 22.8342 79.2381C21.9761 78.9229 21.9015 80.1622 22.7955 79.8712ZM46.2045 114.604C46.6465 114.207 46.9699 114.256 46.9639 114.952C46.7143 114.828 46.4539 114.73 46.2045 114.604Z" fill="black"/>
<path d="M72.9209 20.4624C74.004 20.3488 75.3951 20.5683 76.4281 20.842C76.7517 20.9269 76.5678 21.2078 76.7914 21.28C77.2253 21.4209 77.652 21.3066 78.0733 21.4725C78.2141 21.529 78.0012 21.9765 78.1495 22.0253C78.9611 22.2895 79.7512 22.2362 80.5778 22.41C84.6546 23.2863 88.6299 23.9205 92.8606 25.1895C93.567 25.4079 94.3271 25.7524 95.1205 26.1303C95.8808 26.4956 96.6187 26.866 97.3428 27.0978C97.5128 27.152 97.5867 26.7399 97.6315 26.7237C98.3333 26.487 97.8242 27.1526 98.086 27.3998C99.1204 28.3806 100.363 29.1291 101.521 29.6599C102.014 29.8851 101.981 28.9167 102.203 29.5881C102.218 29.6339 101.874 29.9259 101.974 30.0429C102.201 30.3072 102.768 30.5829 102.963 30.7533C103.336 31.0816 103.406 31.1236 103.787 31.3883C104.307 31.7542 104.797 32.3595 105.401 32.6732C105.531 32.7393 105.633 32.2695 105.864 32.3431C106.096 32.4175 106.566 32.806 106.67 33.0119C106.773 33.2173 106.497 33.4446 106.479 33.5301C106.318 34.2446 107.431 33.9159 107.517 33.952C109.064 34.6234 109.842 35.8973 111.037 36.8159C111.944 37.511 113.015 38.1109 113.852 38.7544C114.413 39.1871 114.885 39.6241 115.368 40.0246C115.847 40.4049 116.303 40.7956 116.796 41.1864C116.915 41.2819 117.113 40.7696 117.261 40.888C118.832 42.1579 120.043 43.6681 120.869 45.3309C120.951 45.4979 120.446 45.5861 120.505 45.7683C120.885 46.8822 121.088 48.7698 123.093 48.2079C123.438 48.864 123.854 49.6523 123.866 50.4137C123.874 50.9034 123.238 50.8287 123.692 51.1468C123.794 51.2191 124.079 50.859 124.205 50.985C124.73 51.5157 125.033 52.2621 125.604 52.7488C125.721 52.8478 126.03 52.607 126.111 52.6049C126.476 52.5999 126.493 52.8939 126.437 53.186C126.414 53.4631 126.325 53.7247 126.332 53.7996C126.454 55.0455 126.922 55.6604 127.251 56.6113C127.323 56.8264 127.729 56.3993 127.816 56.6046C128.267 57.6901 128.513 58.8647 128.496 59.9743C128.492 60.225 128.011 60.0908 127.986 60.2123C127.875 60.7329 128.724 60.7028 128.623 61.2113C128.603 61.3169 128.217 61.3208 128.179 61.3455C127.574 61.7266 128.53 61.8332 128.561 61.9069C128.971 62.8023 128.069 63.5034 128.284 64.3702C128.311 64.4741 128.771 64.1937 128.816 64.4904C129.117 66.4811 129.034 68.6021 128.62 70.5451C128.556 70.8484 128.197 70.6255 128.152 70.6441C127.449 70.9431 128.38 71.155 128.413 71.2561C128.649 72.0452 127.836 72.7298 128.924 73.3116C128.38 76.5778 128.665 79.9154 127.213 82.9924C127.196 83.0314 126.751 82.8927 126.718 82.9706C126.319 83.9071 127.054 83.8228 127.818 84.6096C128.01 84.8093 126.885 85.1382 126.802 85.1681C126.494 85.2809 125.844 85.0046 125.781 85.0488C125.28 85.4144 127.529 85.7175 127.426 86.3184C127.419 86.3364 127.021 86.1867 126.972 86.2298C126.817 86.363 126.953 86.5455 126.784 86.6727C126.395 86.9638 125.29 86.8877 125.823 87.53C125.871 87.5871 126.51 87.6692 126.838 87.8905C126.979 87.9913 127.061 88.1232 127.008 88.2929C126.942 88.5173 126.724 89.5224 126.562 89.7728C126.405 90.0247 126.059 89.7237 126.036 89.739C125.303 90.304 125.162 89.9657 124.283 90.0643C123.407 90.1479 125.268 90.6544 125.425 90.867C125.581 91.0813 124.973 91.4435 124.78 91.5089C124.587 91.5767 124.397 91.3334 124.273 91.41C123.462 91.9091 125.048 92.0656 125.24 92.4173C125.684 93.2635 124.176 93.1539 123.829 93.5855C123.735 93.7041 124.081 93.7281 124.054 93.8608C123.943 94.3873 123.407 94.4776 123.516 95.1877C123.535 95.3023 124.089 96.12 123.385 96.1129C123.284 96.1108 123.022 95.8391 122.851 95.9995C122.595 96.2392 122.254 96.7262 122.195 97.0933C122.151 97.3647 122.809 97.3754 122.494 97.58C122.354 97.6705 122.177 97.2713 121.939 97.454C121.702 97.6359 121.388 98.2525 121.273 98.4899C121.158 98.7271 121.619 98.8121 121.635 98.8451C121.725 99.0398 121.674 99.5859 121.652 99.6244C120.75 101.392 119.371 102.73 118.61 104.461C118.507 104.695 118.414 104.928 118.329 105.169C118.269 105.336 118.743 105.435 118.738 105.463C118.649 106.093 117.737 105.119 117.181 105.3C118.061 105.67 117.796 105.819 117.698 106.238C117.649 106.443 118.028 106.514 118.053 106.548C118.407 107.081 117.667 106.93 117.512 106.906C116.937 106.826 117.398 107.324 117.013 107.267C116.632 107.208 116.314 106.68 116.126 107.03C116.367 107.296 117.293 107.469 117.266 107.811C117.175 109.119 115.352 110.619 114.713 111.3C114.077 112.005 113.921 112.276 113.466 112.611C112.636 113.2 113.369 113.374 113.147 114.044C112.908 114.715 111.983 113.335 111.673 113.151C111.369 112.96 111.555 113.281 111.346 113.216C111.139 113.148 111.133 112.824 110.911 112.937C110.695 113.048 110.626 113.947 110.795 114.282C111.16 114.99 111.935 115.402 111.221 115.631C111.18 115.643 111.003 115.233 110.861 115.295C109.746 115.795 108.751 116.475 107.626 116.848C107.622 116.849 107.619 116.851 107.615 116.852C107.458 116.903 107.324 116.424 107.232 116.448C106.277 116.67 106.979 117.181 106.92 118.231C106.465 117.127 105.875 116.632 105.256 116.918C104.877 117.088 105.156 117.529 105.044 117.977C105.008 118.113 104.588 117.903 104.629 118.148C104.756 118.955 105.368 119.677 104.504 119.63C104.467 119.626 104.414 119.18 104.295 119.196C103.532 119.293 103.722 120.109 102.968 120.46C102.377 120.735 101.156 120.562 100.459 120.672C100.109 119.385 99.5539 119.859 99.5469 120.817C99.1001 120.904 98.6476 121.088 98.1968 121.09C98.0415 121.091 98.0244 120.693 97.9945 120.659C97.5263 120.116 97.5989 121.03 97.5188 121.092C96.7114 121.67 95.7889 121.426 95.1344 122.13C95.117 122.138 95.062 122.156 95.0439 122.162C94.9686 122.227 94.8948 122.3 94.8226 122.384C94.795 122.418 95.0017 123.324 94.5424 122.754C94.5125 122.714 94.7203 122.213 94.2449 122.319C93.7665 122.425 92.7626 122.188 92.2175 122.768C92.0873 122.908 91.8619 123.739 91.3994 123.244C91.338 123.177 91.3235 122.907 91.228 122.778C90.9236 122.365 91.0218 123.304 90.6125 122.581C90.1997 121.859 89.6054 121.382 89.0667 122.051C89.0503 122.071 89.0393 122.831 88.8315 122.86C88.4959 122.906 87.9984 122.843 87.6546 122.91C87.4886 122.942 87.6764 123.377 87.649 123.39C86.5745 123.843 85.7051 123.566 84.4807 123.562C84.2579 123.56 83.7096 124.271 83.2142 123.834C82.6794 123.355 82.8623 121.051 81.8732 121.718C81.4791 121.984 81.2566 124.902 80.3091 123.511C79.7685 123.707 79.2324 123.747 78.6872 123.753L78.7152 123.751C77.7867 123.69 76.8618 123.522 75.8996 123.869C75.8327 123.893 75.6228 124.697 75.4615 124.688C75.224 124.673 75.0828 124.3 74.9136 124.277C74.195 124.172 73.5384 124.498 72.8469 124.453C72.5839 124.437 72.6747 124.049 72.3603 124.03C72.0459 124.01 71.8405 124.521 71.4152 124.277C71.0929 124.091 70.7696 123.051 70.3421 122.931C70.331 123.959 70.0378 123.939 69.5202 124.212C69.4207 124.265 69.5288 124.623 69.4818 124.666C69.2905 124.851 69.1095 124.555 68.929 124.757C68.8849 124.805 68.8838 125.156 68.8477 125.216C68.5389 125.734 68.0299 124.945 67.9412 124.808C67.6046 124.286 67.4509 124.743 67.1921 124.538C66.9359 124.333 67.3175 124.075 67.019 123.951C66.3968 123.694 65.6017 123.752 64.9705 123.736C64.7194 123.732 64.8911 124.2 64.8552 124.211C64.3341 124.33 63.8082 123.832 63.521 124.765C63.1594 122.352 63.2074 125 62.4636 124.517C62.4049 124.478 62.33 123.336 62.5551 123.169C62.7801 123.001 63.1204 123.358 63.4326 123.096C63.5064 123.035 63.9285 121.965 63.9865 121.9C64.4381 121.394 64.5027 123.099 64.527 123.193C64.8001 124.204 65.3148 123.051 65.4514 122.971C66.0724 122.606 66.6039 122.845 67.1223 122.584C67.4634 122.415 67.4946 121.297 67.7607 121.331C68.6491 121.442 68.9647 123 69.7958 121.645C69.9746 121.356 69.7929 120.136 70.4372 121.094C70.4797 121.154 70.9562 122.03 71.2322 121.473C71.2664 121.403 71.2636 121.047 71.309 121.017C71.611 120.822 71.8207 121.104 72.1496 120.967C72.4834 120.829 72.8811 120.624 73.2601 120.741C73.4892 120.812 73.7893 121.472 73.8983 121.634C74.2156 122.099 74.5356 121.329 74.7346 121.893C74.9336 122.46 74.5649 123.329 75.076 123.691C75.0846 122.766 75.1173 121.816 75.1368 120.886C76.2394 120.906 77.3368 121.189 78.4325 121.121C78.5679 121.112 78.4176 120.618 78.5609 120.595C78.585 120.592 78.6089 120.588 78.6326 120.586L78.3659 120.603C78.9492 120.499 79.4939 120.764 80.0912 120.562C80.5664 120.397 81.0466 119.811 81.5326 119.618C81.9765 120.63 82.6821 120.179 83.2434 120.2C83.4365 120.207 83.4651 120.488 83.6142 120.561C84.1755 120.827 83.8019 119.935 83.9226 119.769C84.4309 119.061 84.7891 121.148 85.499 120.985C85.5362 120.977 85.8184 119.789 85.8661 119.71C86.1876 119.192 85.9958 120.086 86.2594 120.127C86.7372 120.201 87.1067 120.409 87.5764 119.986C87.7152 119.861 87.9486 119.1 88.3493 119.575C88.4027 119.637 88.4541 120.007 88.4902 120.022C89.1372 120.262 88.9149 119.11 89.1502 118.654C89.3827 118.198 90.0509 118.875 90.2073 119.077C90.6094 119.603 90.0628 119.376 90.0608 119.437C90.0479 120.162 90.3893 119.96 90.6828 119.951C90.9903 121.059 91.3735 120.895 90.9868 119.936C90.9445 119.832 90.7519 119.989 90.6828 119.951C90.6698 118.795 91.0416 118.556 91.7776 119.453C92.1243 119.871 92.0615 120.486 92.6866 120.098C92.9693 119.921 92.6387 119.192 92.846 118.91C93.1055 118.556 93.5166 118.539 93.9384 118.542L93.6825 118.634C94.0847 118.579 94.484 118.556 94.7837 118.39C95.0251 118.257 94.6272 117.941 94.7891 117.836C95.2219 117.556 95.7359 117.727 96.1462 117.422C96.1835 117.394 95.9434 116.994 96.0868 116.943C97.1708 116.547 98.1745 116.573 99.2339 116.281C99.7489 116.139 100.562 115.644 101.064 115.538C101.936 115.358 103.158 115.622 103.756 115.188C104.14 114.91 103.859 114.536 103.9 114.178C103.962 113.494 104.979 114.167 105.147 114.26C105.154 114.264 104.872 114.538 105.161 114.646C105.5 115.014 105.145 114.263 105.147 114.26C105.219 114.309 105.601 114.176 105.832 114.032C105.937 113.967 106.017 113.905 106.043 113.858C106.092 113.769 105.816 113.437 105.845 113.398C106.557 112.473 107.308 111.779 108.225 111.24C108.245 111.235 108.541 111.614 108.584 111.596C109.194 111.34 109.08 110.63 109.17 110.038C109.262 109.441 109.59 109.246 110.415 109.552C110.587 109.194 111.217 108.992 111.595 108.858C111.971 108.727 111.246 108.131 111.247 108.099C111.281 107.044 111.997 106.932 112.565 106.162C112.834 105.802 113.16 104.949 113.299 104.463C113.409 104.079 113.71 103.971 113.749 103.579C113.754 103.527 113.36 103.385 113.352 103.365C113.082 102.788 113.91 103.408 114.111 103.413C114.8 103.424 115.196 103.406 115.194 102.877C115.195 102.844 115.195 102.808 115.193 102.77C115.186 102.616 114.035 101.62 114.072 101.347C114.121 100.998 114.538 101.342 114.577 100.974C114.581 100.943 114.287 100.804 114.396 100.618C114.896 99.7528 115.558 98.8995 115.997 98.012C116.058 97.8914 115.523 97.8011 115.604 97.6227C115.985 96.7848 116.471 95.9327 117.084 95.2973C117.237 95.1417 117.492 95.427 117.608 95.4374C118.311 95.4944 117.665 94.7065 117.678 94.6421C117.986 93.0849 119.258 92.4505 119.456 90.9646C119.469 90.8769 118.757 89.9656 119.651 90.0446C119.71 90.0518 120.631 90.1199 120.141 89.6971C120.11 89.6718 119.63 89.6617 119.766 89.4225C119.902 89.1794 119.748 88.686 120.33 88.4849C120.512 88.4256 121.443 88.3871 120.851 87.8706C120.814 87.822 119.384 86.9777 120.488 87.0418C120.662 87.051 121.708 87.2948 121.354 86.8596C121.339 86.8371 121.32 86.8132 121.299 86.7878C121.203 86.6748 120.917 86.7935 120.804 86.5226C120.627 86.1087 121.022 85.6705 120.591 85.1279C120.515 85.0323 119.796 84.5653 120.431 84.3944C120.53 84.3674 120.899 84.5118 120.965 84.3755C121.284 83.7273 121.139 82.9723 121.505 82.3173C121.634 82.0847 122.236 82.3006 122.439 82.0654C122.642 81.8304 122.874 81.3283 122.626 81.0197C122.378 80.7114 121.35 80.8761 121.323 80.4642C121.202 78.6802 121.962 77.0187 122.178 75.2768C122.209 75.0201 121.838 75.2075 121.858 74.8266C121.938 73.4173 121.693 71.0231 122.449 69.8297C123.058 68.8612 123.52 70.0886 123.767 69.3383C123.884 68.971 122.719 68.6027 122.681 68.5166C122.295 67.688 122.788 67.0986 122.591 66.3615C122.55 66.2099 122.089 66.3861 122.059 66.258C121.953 65.8258 122.129 65.3486 122.055 64.9393C122.02 64.7564 121.666 64.8235 121.678 64.6503C121.701 64.2364 121.814 63.875 122.098 63.4378C122.124 63.3975 122.598 63.5862 122.577 63.2833C122.542 62.8009 122.78 62.145 122.343 61.6577C122.212 61.514 121.407 61.6681 121.896 61.2223C121.998 61.1306 122.983 61.0149 122.066 60.8006C121.913 60.7566 120.653 60.4027 121.29 59.9322C121.458 59.8049 122.177 59.3796 122.002 59.2397C121.976 59.2227 121.581 59.4399 121.498 59.3136C121.209 58.8575 121.081 58.3638 120.768 57.995C120.686 57.9014 120.339 58.2437 120.232 58.1067C120.04 57.864 119.914 57.5765 119.835 57.3309C119.711 57.0679 119.606 56.8124 119.513 56.5703C119.417 56.3173 119.835 56.2715 119.859 56.2332C120.261 55.6155 119.399 55.9411 119.3 55.8824C118.695 55.5129 118.796 54.878 118.391 54.4507C118.28 54.332 117.977 54.659 117.928 54.6528C117.436 54.5785 118.219 54.3679 118.179 54.1476C118.068 53.5264 117.689 53.0042 117.326 52.5547C117.192 52.3895 116.907 52.863 116.792 52.7127C116.104 51.8314 115.507 50.8844 115.119 49.911C115.046 49.7267 115.425 49.5907 115.471 49.5058C115.792 48.911 114.879 49.1056 114.762 49.0874C114.223 48.9963 114.389 48.6639 114.112 48.4356C113.096 47.6047 112.185 46.6344 111.373 45.9661C110.895 45.6021 110.449 45.2387 110.056 44.9135C107.966 43.1719 106.671 41.6635 104.717 40.2944C104.594 40.2075 104.404 40.7061 104.294 40.6366C102.889 39.7199 101.713 38.5946 100.309 37.7961C100.195 37.7302 100.073 38.236 99.8809 38.1445C99.4855 37.9597 99.055 37.6355 98.7837 37.2707C98.6506 37.0934 99.1143 36.9009 98.9744 36.7289C98.6478 36.3271 98.2214 36.0134 97.7569 35.8186C97.5587 35.7368 97.5699 36.3256 97.3345 36.188C95.7215 35.2629 94.1859 34.5474 92.8728 33.3656C92.8032 33.3031 92.9397 32.7021 92.8621 32.4775C92.8426 32.413 92.8048 32.3808 92.7393 32.4045C92.6313 32.6632 92.5255 32.9747 92.4214 33.2551C90.1727 32.6701 87.3728 31.8338 84.5462 31.3943C84.4261 31.3761 84.5628 31.9331 84.3307 31.9007C82.986 31.7146 81.6554 31.7146 80.3065 31.0527C80.1729 30.9879 80.3327 30.0589 79.9055 30.1623C79.8303 30.1811 79.1975 30.2508 79.0193 30.4409C78.995 30.4697 79.0707 30.9161 78.8706 30.9121C77.7069 30.8813 76.5009 30.696 75.3557 30.3637C75.1713 30.3093 75.3962 29.8541 75.2649 29.8113C74.3255 29.5114 73.2931 29.8226 72.4057 29.3765C71.8152 29.0774 72.0542 28.2756 71.7406 27.4757C71.6978 27.3626 71.3204 27.3411 71.3019 26.8791C71.2552 25.7162 71.4576 24.4446 71.3862 23.205C71.3663 22.9374 70.8284 23.2241 71.1476 22.5795C71.1641 22.536 71.5851 22.3246 71.677 22.1074C71.7467 21.9569 71.6292 21.4853 71.7717 21.2934C71.9121 21.1018 72.0778 21.4986 72.304 21.2758C72.538 21.0507 72.4565 20.5131 72.9209 20.4624ZM113.285 108.188C113.839 108.166 112.487 107.228 112.629 107.725C112.638 107.75 113.257 108.19 113.285 108.188ZM77.3482 122.426C77.8135 123.143 78.0925 122.07 77.7676 121.516C77.4445 120.963 77.2085 122.209 77.3482 122.426ZM72.6944 123.01C73.2261 123.579 73.2916 121.245 72.7305 121.721C72.6983 121.748 72.6636 122.977 72.6944 123.01ZM73.2628 27.2878C73.2616 27.2658 72.9831 27.2353 72.976 27.2568C72.8129 27.7742 73.3619 27.8345 73.2628 27.2878ZM68.0595 123.607C68.225 123.922 68.6969 123.557 68.4913 123.165C68.3271 122.85 67.8534 123.215 68.0595 123.607ZM123.091 93.2703C123.115 93.2757 123.217 93.1024 123.088 93.0501C122.675 92.8821 122.678 93.1828 123.091 93.2703ZM60.1707 123.64C61.3359 123.728 62.0438 125.655 60.7739 125.437C60.544 125.398 61.2693 124.823 60.9765 124.649C60.4416 124.333 60.0859 125.543 59.5393 124.894C59.4404 124.776 60.1044 123.631 60.1727 123.637C60.1721 123.638 60.1714 123.639 60.1707 123.64ZM115.037 109.121C115.059 109.128 115.229 108.906 115.214 108.889C114.855 108.482 114.521 108.919 115.037 109.121ZM126.872 82.1889C126.921 82.18 127.05 81.5446 127.01 81.5176C126.208 81.0742 125.946 82.3491 126.872 82.1889ZM100.438 120.641C100.289 121.229 99.9585 121.387 99.5484 120.817C99.8455 120.77 100.138 120.693 100.438 120.641Z" fill="black"/>
<path d="M25.8342 79.5485C27.102 79.4408 28.7242 79.6663 29.9495 79.9461C30.3362 80.0332 30.1202 80.313 30.3841 80.3865C30.9 80.5302 31.3939 80.418 31.9012 80.5876C32.0687 80.6452 31.8252 81.0915 32.0013 81.1414C32.9665 81.4121 33.8994 81.366 34.885 81.5506C36.2757 81.8119 37.662 82.0675 39.0537 82.3375C40.4214 82.6236 41.8162 82.7526 43.1486 82.6982C43.8116 82.6711 44.4609 82.596 45.0345 82.4738C45.5852 82.3718 46.1629 82.1172 46.1707 82.132C46.1767 82.1342 46.1762 82.1415 46.172 82.1537C46.1563 82.1889 46.1353 82.3103 46.1842 82.323C46.2292 82.3398 46.313 82.2232 46.3524 81.9975C46.4388 81.5428 46.3442 80.7652 46.0684 80.0769C46.0034 79.914 45.6374 80.1173 45.5968 80.0938C44.9688 79.7251 45.8021 79.6753 45.8119 79.3046C45.8353 77.8068 45.3601 76.1225 44.9293 74.553C44.7484 73.8782 44.0632 74.7002 44.4029 73.9197C44.4263 73.8666 44.8772 73.9838 44.8962 73.7867C44.9284 73.4394 44.8389 72.8607 44.8184 72.4478C44.8065 72.231 44.8152 72.0373 44.8341 71.8899C45.0753 70.6094 45.2645 70.3718 45.8417 69.5537C46.4816 68.7609 47.2883 68.3844 47.7559 68.0666C47.9748 67.9167 48.1975 67.765 48.4238 67.6071C48.6259 67.4687 48.1148 67.2443 48.4454 66.9816C48.7524 66.703 49.9818 66.309 50.4907 66.384C50.9721 66.4337 50.7958 66.8064 50.8815 66.8772C51.0944 67.0749 51.359 67.1231 51.6588 67.1273C52.3175 67.1366 52.9792 66.9287 53.0724 66.9404C53.8438 67.1027 54.2265 67.2031 54.2109 67.1966C54.4448 67.2354 54.5848 67.2896 54.823 67.2737C55.0552 67.2575 55.3802 67.1342 55.7149 66.8383C56.0746 66.5242 56.437 66.0608 56.9087 65.4962C57.4527 64.9845 57.7567 64.0624 59.8463 63.5676C59.9993 63.5453 60.1535 63.5336 60.3073 63.5327C61.9947 63.5807 62.7753 64.4982 63.2394 65.0587C63.7097 65.6764 63.9596 66.2509 64.1586 66.8448C64.4002 67.6019 64.5634 68.405 64.6456 69.2604C64.6641 69.4773 65.1659 69.1818 65.1874 69.4621C65.4025 72.5328 63.8291 75.0324 62.5538 76.5154C62.4275 76.6639 62.155 76.2234 62.0057 76.3577C61.7354 76.6024 61.3987 76.8885 61.226 77.0522C61.2351 76.9615 61.2726 76.7961 61.2022 76.511C61.1361 76.2228 60.8975 75.9528 60.7547 75.8728C60.4687 75.7153 60.4852 75.7961 60.5203 75.7985C60.6125 75.8324 60.8487 75.8234 61.0526 75.7517C61.4775 75.6083 61.8783 75.2428 62.1336 74.5417C62.8603 74.5972 63.7581 74.5421 65.0241 75.1492C65.3439 75.3242 65.6191 75.5367 65.8535 75.7882C66.4549 76.5401 65.4789 76.3595 66.3622 76.9189C66.5507 77.0701 66.6802 76.5376 66.9523 76.8219C68.1101 78.1681 67.9326 79.6708 68.0935 80.7073C68.1222 80.9328 68.5144 80.9043 68.5785 80.9748C69.0941 81.5978 68.0166 82.2616 67.915 82.4017C67.1527 83.5511 67.0916 84.4141 66.7432 85.4677C66.6616 85.7088 67.2524 85.5837 67.191 85.8228C66.8641 87.0632 66.3874 88.2503 65.7989 89.2793C65.6677 89.5059 65.3194 89.1415 65.235 89.2429C64.8668 89.7018 65.6325 90.068 65.3144 90.4937C65.249 90.5831 64.8999 90.4189 64.8542 90.4254C64.7676 90.438 64.7035 90.4566 64.6578 90.4797C64.3316 90.6281 64.9985 90.9654 65.0082 91.0092C65.1252 91.6015 64.5531 91.839 64.4851 92.0323C64.461 92.0479 64.4655 92.0697 64.5053 92.0735C64.525 92.0675 64.8363 91.6982 64.8392 91.6757C64.8519 91.6559 65.0918 91.7229 65.2706 91.7007C66.2514 91.645 67.3658 91.0817 68.5726 90.1443C68.8236 89.9494 68.9497 90.3547 68.9954 90.3706C69.7477 90.5711 69.1722 89.7926 69.2068 89.6936C69.5232 88.8943 70.6322 88.6637 70.0405 87.5462C70.7634 86.6795 71.4004 85.7014 72.0714 84.7032C73.2604 82.8891 73.8005 80.453 74.7424 78.067C74.7584 78.0223 75.209 78.1502 75.239 78.0594C75.5911 76.9585 74.8537 77.1056 74.0013 76.3839C73.7869 76.2117 74.8414 75.6694 74.916 75.611C75.1976 75.4244 75.8873 75.5969 75.9412 75.5344C76.3588 74.9915 74.1008 75.1645 74.0548 74.5403C74.0569 74.5197 74.4797 74.571 74.5167 74.5133C74.6328 74.3324 74.4515 74.179 74.576 73.9987C74.8622 73.5901 75.9364 73.2691 75.1961 72.7705C75.1321 72.7311 74.5562 72.8705 74.167 72.8033C73.9972 72.8997 73.9436 73.2119 74.1703 73.4264C74.2307 73.4854 74.3426 73.5687 74.3958 73.5918C74.4524 73.6188 74.4425 73.6043 74.382 73.5854C74.2593 73.5429 73.9792 73.4976 73.8607 73.4485C73.615 73.3493 73.8102 72.9466 73.7955 72.9275C73.0586 72.3485 73.3368 72.1363 72.9258 71.3203C72.4952 70.5129 72.6247 72.441 72.4552 72.6571C72.2879 72.8734 71.6492 72.4249 71.4941 72.2638C71.3384 72.1041 71.5381 71.844 71.4017 71.7527C70.5251 71.1404 70.9566 72.6938 70.5926 72.9771C70.2459 73.2241 69.891 73.1402 69.5473 72.8692C69.1393 72.4702 68.9494 71.7667 68.6176 71.3996C68.4656 71.2249 68.4026 71.6018 68.2104 71.4667C67.8337 71.1844 67.6566 70.705 67.6504 70.2536C67.6436 69.7924 67.7516 69.387 67.8713 68.8546C67.8732 68.8348 67.8749 68.8146 67.8763 68.794C67.8753 68.6648 67.5329 67.6366 68.2835 67.6999C68.3892 67.7119 68.578 68.0496 68.8085 67.8826C69.1521 67.6327 69.677 67.1424 69.8806 66.7495C70.0317 66.4573 69.3533 66.3234 69.762 66.1545C69.9437 66.0814 69.9668 66.5553 70.2853 66.4013C70.6002 66.2485 71.1773 65.6516 71.3965 65.4244C71.6136 65.1969 71.1807 64.9965 71.1779 64.9574C71.1697 64.7254 71.4598 64.151 71.4985 64.1153C73.3825 62.2396 75.7459 61.1306 76.7339 58.889C76.8063 58.7176 76.3339 58.6025 76.3407 58.574C76.3712 58.4023 76.4567 58.3559 76.5832 58.37C76.7858 58.3149 76.9996 58.4746 77.2373 58.5818C77.4744 58.6957 77.7264 58.7586 77.9493 58.7354C77.1441 58.2237 77.6591 57.768 78.4033 57.5655C78.7372 57.4686 78.5207 57.1278 78.5457 57.0854C79.107 56.4806 79.3944 57.2624 79.4331 57.4107C79.6357 57.9798 79.9919 57.3897 80.0989 57.7798C80.19 58.1654 79.7324 58.6215 80.1932 58.7056C80.3943 58.3987 80.2161 57.4516 80.6145 57.3867C82.1297 57.1741 84.2876 58.3662 85.3434 58.5205C85.6519 58.5762 85.8986 58.6065 86.1118 58.6281C86.281 58.6379 86.2944 58.6382 86.5519 58.5154C86.8856 58.3121 86.879 58.0572 86.7734 57.8955C86.6708 57.7165 86.4824 57.5647 86.4798 57.2179C86.4791 56.9284 86.7117 56.8924 87.0018 56.9828C87.4191 57.1214 87.9785 57.4732 88.1907 57.5076C88.5527 57.5566 88.2674 57.3084 88.4919 57.2599C88.7191 57.2021 88.8374 57.5657 89.0183 57.2847C89.2163 56.9813 88.8105 55.9979 88.4598 55.8431C87.7347 55.4918 86.887 55.6727 87.2714 55.0491C87.2937 55.0111 87.6997 55.201 87.7636 55.0511C88.2546 53.8385 88.2639 52.438 88.463 51.0908C88.4906 50.9039 88.9771 51.0351 88.9984 50.9246C89.2099 49.7666 88.4405 50.2356 87.4926 49.7324C88.1607 49.7342 88.6704 49.6091 88.9716 49.3402C89.2055 49.1155 89.2953 48.7274 89.1039 48.2757C88.8141 47.6736 88.3952 48.0453 87.9182 48.0154C87.7853 48.0176 87.778 47.5116 87.5615 47.6529C86.887 48.1389 86.5941 49.0024 86.2662 48.3604C86.2476 48.3292 86.5643 48.0117 86.4807 47.9298C86.3854 47.8374 86.2839 47.7809 86.1818 47.7493C85.7646 47.6538 85.4367 48.1491 84.814 48.0727C84.2269 47.9987 83.0602 47.3179 82.2389 47.1289C82.4297 45.8083 81.6132 46.0094 81.1661 46.8757C80.6274 46.7635 80.0256 46.726 79.5149 46.5073C79.3398 46.4324 79.5275 46.0733 79.5117 46.0281C79.2821 45.3224 78.8844 46.155 78.7556 46.1647C78.7289 46.1662 78.7023 46.1673 78.6759 46.1679C77.791 46.1533 77.0923 45.4733 76.754 44.8888C76.3874 44.2887 76.1698 43.7305 75.6546 43.2223C75.6192 43.1902 74.7074 43.3914 75.2519 42.8587C75.291 42.8264 75.8138 43.0984 75.6745 42.5244C75.5391 41.9647 75.7389 40.7552 75.0464 40.3102C74.9478 40.2471 74.6016 40.2266 74.4438 40.1711C74.3283 40.1164 74.2828 40.021 74.3846 39.7821C74.4187 39.6999 74.6493 39.5594 74.7177 39.4137C74.907 38.9242 74.1894 39.5286 74.5175 38.7645C74.8488 37.9965 74.5258 37.0184 73.4937 37.1699C73.4591 37.1722 72.9877 37.775 72.7711 37.682C72.4134 37.5245 71.9116 37.2174 71.5017 37.1308C71.3052 37.0891 71.3311 37.5675 71.2955 37.5681C69.9854 37.5571 69.1154 37.0695 67.678 36.8484C67.4121 36.8068 66.6674 37.4316 66.1535 36.9495C65.5784 36.4246 66.0886 34.1319 64.7594 34.7374C64.2108 34.9851 63.7872 37.8912 62.7246 36.5009C61.9065 36.7518 61.0991 36.7792 60.2894 36.8146L60.3554 36.811C59.4164 36.7008 58.4933 36.5687 57.5 36.7848C57.4187 36.8026 57.1037 37.5832 56.9077 37.5566C56.6199 37.5158 56.5013 37.1293 56.2967 37.086C55.4594 36.8955 54.6443 37.123 53.8285 36.953C53.5229 36.8888 53.685 36.5224 53.3239 36.4427C52.9654 36.3621 52.6298 36.8224 52.1748 36.4832C51.8352 36.2248 51.6884 35.1291 51.2489 34.8989C50.9928 35.8937 50.6634 35.7981 49.998 35.8944C49.8689 35.9128 49.8953 36.292 49.8288 36.3183C49.5539 36.4323 49.431 36.0863 49.1607 36.2121C49.095 36.2421 48.987 36.5761 48.9264 36.6191C48.3956 36.9958 48.0479 36.0319 48.0061 35.8671C47.8099 35.2345 47.4716 35.5884 47.2621 35.275C47.0643 34.9643 47.582 34.9107 47.311 34.6549C46.7522 34.1269 45.9296 33.7494 45.3373 33.3299C45.1025 33.1661 44.9997 33.6623 44.9601 33.6479C44.3686 33.3891 44.2291 32.624 43.3442 33.0786C44.0984 31.8792 43.8615 32.0574 43.4338 32.2022L43.4442 32.2135C43.1178 32.2872 42.7347 32.3593 42.64 31.9936C42.6328 31.9374 43.2602 30.9592 43.6524 31.0952C43.8897 31.1802 43.9976 31.4566 44.1242 31.6541L44.0581 31.5811C44.1354 31.6823 44.2386 31.7678 44.3986 31.7808C44.505 31.7993 45.5268 31.2699 45.6025 31.2448C46.2367 31.1068 45.2758 32.5072 45.2441 32.6023C44.8993 33.6077 46.0455 32.977 46.1981 32.972C46.9535 33.0017 47.3472 33.4621 47.9722 33.4527C48.3783 33.4445 48.8298 32.4203 49.0651 32.5497C49.8431 32.9647 49.7497 34.5664 50.985 33.504C51.2465 33.2733 51.3595 32.0473 51.7838 33.138C51.8072 33.2067 52.1234 34.1797 52.5353 33.6948C52.5859 33.6335 52.655 33.2844 52.7086 33.2646C53.0685 33.1388 53.2289 33.4569 53.6131 33.3846C53.9902 33.3109 54.4468 33.1758 54.8458 33.3509C55.0788 33.4553 55.3263 34.1533 55.4306 34.3287C55.7227 34.8338 56.1806 34.1096 56.3393 34.6934C56.5091 35.2808 55.9839 36.101 56.5497 36.5215C56.6525 35.6023 56.7837 34.661 56.8963 33.7374C58.0577 33.8675 59.2169 34.1944 60.4211 34.2213L59.9425 34.2474C60.02 34.2367 60.0976 34.2251 60.1754 34.2125C60.3447 34.1842 60.1055 33.7142 60.2866 33.6711C61.0533 33.4924 61.7738 33.7654 62.5739 33.5461C63.1932 33.3747 63.8528 32.7933 64.5311 32.6207C65.0083 33.6508 65.9864 33.2473 66.7373 33.3412C66.9988 33.3731 66.9815 33.6561 67.1644 33.7488C67.8568 34.0965 67.5449 33.1593 67.7426 33.0152C68.6185 32.4132 68.5975 34.5255 69.5549 34.5523C69.6003 34.552 70.3659 33.4996 70.4799 33.4459C71.1341 33.072 70.5235 33.8465 70.8779 33.982C71.5247 34.2384 71.9169 34.5819 72.8086 34.4817C73.0541 34.446 73.8939 33.9678 74.1908 34.6761C74.2281 34.7679 74.053 35.0993 74.0947 35.14C74.8299 35.8546 75.3723 34.8384 76.1742 34.8528C77.0061 34.8806 77.4043 36.308 77.3579 36.6226C77.3222 37.4569 76.8708 36.4896 76.7987 36.5236C76.0754 36.8264 76.7022 37.1937 77.0082 37.6658C76.3597 38.3067 76.4826 38.7094 76.922 38.4879C76.9804 38.4582 77.044 38.4164 77.1105 38.3598C77.1748 38.3061 77.2424 38.2395 77.311 38.1576C77.3867 38.0645 77.0407 37.7798 77.0082 37.6658C77.417 37.5433 77.7812 37.5634 78.0597 37.7151C78.6322 38.0687 78.7708 38.7828 78.3107 39.5086C77.9685 40.016 77.3431 39.9242 77.8264 40.759C78.0357 41.1273 78.7501 40.7557 79.0557 41.0347C79.7379 41.6566 79.3077 42.6801 79.5661 42.8457C79.6404 42.8821 79.9692 42.5941 80.0156 42.5848C80.1129 42.5065 79.6854 42.5279 79.5311 42.3321C79.5114 42.3107 79.7003 41.8914 79.6039 41.8606C79.5908 41.8565 79.5781 41.8528 79.5656 41.8495C80.6168 42.0247 81.5638 42.4336 82.859 42.6118C83.4895 42.6986 84.7394 42.6128 85.5616 42.842C86.2889 43.048 87.1586 43.4486 88.149 44.1608C88.7137 44.6303 89.4668 45.2444 90.1359 45.8871C91.0315 46.826 91.2185 46.414 91.8096 46.8452C92.3644 47.2966 92.5287 48.252 92.3893 48.9408C92.2178 49.3188 91.9289 49.6483 91.8516 49.726C91.8473 49.7296 91.6781 49.15 91.4804 49.4898C91.0173 49.7218 91.8487 49.7186 91.8516 49.726C91.7581 49.8252 91.754 51.0238 91.8487 51.2609C91.9032 51.3884 92.3281 51.2921 92.3484 51.3603C92.81 52.9844 92.9375 54.7437 92.3423 56.7312C92.3265 56.7651 91.8668 56.6155 91.8358 56.694C91.5079 57.4816 91.5709 58.1811 91.4903 59.06C91.5246 59.2502 91.5445 59.4867 91.5164 59.7676C91.4515 60.742 90.4861 62.1118 88.7855 62.2343C88.1351 62.7696 86.7847 63.1237 85.8018 62.9149C85.4282 62.7812 85.0817 62.5923 84.8384 62.4492C84.3684 62.1723 84.1798 63.0865 84.1304 63.0993C82.6552 63.4891 81.9309 62.7845 80.6865 62.4166C80.1094 62.2356 78.8862 62.116 78.8792 62.2467C78.87 62.2849 78.9969 62.2714 79.3099 62.1756C79.606 62.0826 80.218 61.8514 80.7969 61.3099C80.9443 61.1691 81.1236 61.598 81.1777 61.5601C81.5736 61.2777 81.7047 61.0688 81.7514 60.9289C81.5771 61.1122 81.1073 60.6692 80.9318 60.7105C80.0899 60.8918 79.6567 60.9597 79.4536 61.8272C79.4137 62.0176 80.2675 63.3454 80.1019 63.6958C79.8932 64.138 79.5954 63.6697 79.3893 64.1205C79.3712 64.158 79.6261 64.3607 79.4238 64.5758C78.4873 65.5731 77.392 66.3849 76.55 67.2364C76.4341 67.3517 76.9409 67.5784 76.7791 67.7511C76.0187 68.5606 75.1913 69.3082 74.3887 69.7815C74.1895 69.8975 74.0298 69.5464 73.9195 69.5062C73.2424 69.2725 73.6443 70.2197 73.6193 70.2747C73.2612 71.0062 72.8224 71.3959 72.4684 71.7542C72.6375 71.4349 72.8367 70.9548 72.8699 70.2811C72.9138 69.615 72.6878 68.807 72.3657 68.3085C71.6784 67.298 71.2876 67.2902 71.2907 67.149C71.2894 67.1397 71.3205 67.0177 71.3645 66.9004C71.0336 66.5636 71.1227 66.3728 71.2074 66.937C71.2004 66.9947 71.3866 67.8894 71.666 67.2863C71.6833 67.2484 71.5008 66.7929 71.8233 66.8403C72.1511 66.8883 72.7895 66.5695 73.4681 67.0822C73.7036 67.2505 74.0874 68.115 75.0499 67.5358C75.0902 67.5206 75.4853 67.1447 76.186 67.0554C76.8376 66.934 78.0772 67.336 78.4129 68.3349C78.4542 68.4829 78.2627 68.7258 78.3629 69.143C78.4104 69.5687 79.0043 70.1349 79.6124 71.7255C79.631 71.7435 79.6511 71.7619 79.6728 71.7809C79.8135 71.9036 80.0184 71.5888 80.2489 71.9464C80.6036 72.5046 80.3987 73.3149 80.9701 73.9872C81.0721 74.0996 81.8976 74.6044 81.3146 75.0621C81.2233 75.1321 80.8322 75.0205 80.796 75.2439C80.6201 76.2972 80.8428 77.391 80.481 78.4126C80.3525 78.7709 79.7481 78.5241 79.5415 78.8768C79.3357 79.2309 79.074 79.9372 79.2879 80.3695C79.5013 80.8072 80.5639 80.5475 80.529 81.1693C80.3488 83.6316 79.2267 85.9133 77.483 88.3135C77.3625 88.4646 77.2429 88.6225 77.1264 88.7857C76.9465 89.0382 77.3873 89.0152 77.1417 89.4064C76.28 90.7964 74.6434 94.0044 72.4244 95.0543C70.7281 95.8038 72.016 93.9929 70.8951 94.6736C70.3811 94.9724 70.4466 96.3391 70.2956 96.4768C69.0312 97.7117 67.4482 97.7978 65.812 98.0532C65.7326 98.0639 65.6525 98.0739 65.5721 98.0834C65.0773 98.1327 65.5838 98.5919 65.1404 98.6186C63.6077 98.6701 62.0484 98.097 60.4956 96.8747C59.8158 96.2833 59.6606 96.652 59.09 95.8667C59.0088 95.7457 58.9314 95.6213 58.8584 95.4939C57.8622 93.6623 58.009 92.2513 58.3411 91.2254C58.3762 91.1346 58.794 91.7993 58.8484 91.0004C58.9156 90.261 59.1798 89.5832 59.3907 88.9545C59.5093 88.615 59.5895 88.2671 59.5587 87.8997C59.5333 87.6432 58.7588 87.3667 59.4572 87.0651C59.6032 87.0034 60.4951 87.4401 59.8741 86.6217C59.7722 86.4799 58.9982 85.2039 59.8436 85.0253C60.0666 84.9769 60.9279 84.9535 60.8909 84.6686C60.8829 84.6292 60.4208 84.6187 60.4482 84.4042C60.5508 83.6535 60.8282 82.9523 60.8811 82.2605C60.8933 82.0782 60.3831 82.2077 60.4131 81.9453C60.4973 81.2244 60.7634 80.4835 60.9239 80.1598C60.9852 80.0447 61.3572 80.1474 61.3988 80.1426C62.0763 80.008 61.1685 79.9414 61.1161 79.9479C60.813 79.906 61.1715 80.3385 61.7354 81.1131C61.8999 81.3224 61.4678 81.4976 61.4795 81.5638C61.7128 82.2669 61.8629 81.3805 62.177 81.5105C62.4302 81.5964 62.6421 81.6377 62.7878 81.6563C63.1386 81.7326 63.1756 81.6991 63.1364 81.7037C63.0917 81.7026 62.9558 81.7141 62.7924 81.7354C62.6146 81.7587 62.8244 82.2546 62.663 82.2707C62.303 82.3076 61.84 82.3563 61.1001 82.3621C60.6989 82.3535 60.3163 82.3823 59.3462 82.2093C58.8349 82.0528 58.1681 82.1329 56.5755 80.9009C55.802 80.2898 54.9043 78.9142 54.7388 77.6412C54.6394 77.0117 54.657 76.5112 54.718 76.0413C54.7722 75.6439 54.862 75.3007 54.9624 75.004C55.3947 73.8933 55.7471 73.4841 56.054 73.0778C56.2526 72.8354 56.4899 73.1959 56.5975 73.1844C57.3436 73.1199 56.8674 72.2748 56.8473 72.1465C56.7636 71.5541 57.1314 71.5854 57.2213 71.2581C57.3728 70.6776 57.444 70.2657 57.467 70.0347C57.4871 69.7997 57.5198 69.691 57.4745 69.4072C57.5071 69.4372 57.534 69.4618 57.6318 69.5708C57.7379 69.6752 57.8894 69.8882 58.4259 70.2129C58.8725 70.4945 59.8956 70.8401 60.8984 70.654C62.0606 70.4124 62.2693 70.04 62.3062 70.0112C62.3308 69.954 62.1787 70.0559 61.9987 70.2102C61.6228 70.5289 61.0956 71.0543 60.4263 71.619C59.1943 72.717 56.6332 74.3131 53.7613 74.0726C53.3794 74.0446 53.723 74.5911 53.3774 74.5667C53.3533 74.5646 53.3293 74.5624 53.3052 74.5601C52.0443 74.4171 51.3038 74.0805 50.9066 73.9419C50.5159 73.7811 50.4539 73.8192 50.9319 73.8797C51.4013 73.9242 51.7462 73.8173 51.8668 73.7677C51.9959 73.7138 51.9585 73.7172 51.8741 73.797C51.6021 74.002 51.4618 74.1205 51.4104 74.1892C51.3907 74.2196 51.7197 74.577 51.7269 74.6154C51.7483 74.6418 51.8771 74.5677 52.0864 74.2427C52.2928 73.9324 52.5296 73.2996 52.525 72.7329C52.5091 72.21 52.0302 72.8217 52.0028 72.3552C51.992 72.2523 51.977 72.1554 51.9588 72.0634C51.8592 72.4288 51.8893 72.8588 52.0341 73.2789C52.104 73.4766 52.5373 73.085 52.5902 73.3438C52.9281 75.1907 53.9788 77.0782 53.8713 81.0098C53.8514 81.3059 52.874 81.5877 53.0623 82.198C53.3412 82.2514 53.6701 82.2565 53.9685 82.2865C54.0818 83.949 53.057 86.9238 51.1491 88.2905C46.2354 91.3878 43.528 90.5809 40.1854 90.6043C40.0031 90.5928 40.293 91.1429 39.9365 91.1222C39.2744 91.0819 38.6232 91.0353 37.9788 90.9569C36.9116 90.8282 35.8378 90.6662 34.7405 90.203C34.5798 90.1362 34.7508 89.2078 34.2464 89.3058C34.1574 89.3235 33.4057 89.3856 33.1983 89.5741C33.1699 89.6027 33.2696 90.0506 33.0304 90.0443C31.6431 90.0009 30.1957 89.8067 28.8196 89.467C28.5986 89.4114 28.8603 88.9573 28.7031 88.9137C27.5752 88.6077 26.3273 88.9125 25.2616 88.4608C24.5465 88.1579 24.8352 87.3576 24.4604 86.5559C24.409 86.4425 23.9553 86.4192 23.937 85.9573C23.8832 84.7943 24.1212 83.5233 24.0383 82.2835C24.024 82.0155 23.3638 82.3016 23.7528 81.6573C23.7852 81.6137 24.2626 81.4036 24.3809 81.187C24.4662 81.0369 24.3221 80.5646 24.4965 80.3735C24.6613 80.1827 24.8393 80.5799 25.1175 80.3587C25.3922 80.1349 25.2925 79.5967 25.8342 79.5485ZM82.8258 61.1408C82.4869 60.6173 82.0954 62.2163 82.646 61.9232C82.6733 61.9071 82.8441 61.1667 82.8258 61.1408ZM59.3035 35.4628C59.805 36.2094 60.1914 35.1521 59.8455 34.5808C59.5079 34.0094 59.1534 35.2362 59.3035 35.4628ZM53.877 35.5C54.3997 36.1553 54.8033 33.8558 54.1208 34.2332C54.0815 34.2542 53.8466 35.4618 53.877 35.5ZM26.276 86.377C26.2723 86.3549 25.9433 86.3228 25.9348 86.3443C25.7441 86.8608 26.3971 86.9244 26.276 86.377ZM48.5575 34.7914C48.6302 35.1565 49.2687 34.9873 49.1709 34.5401C49.1015 34.1856 48.4762 34.3433 48.5575 34.7914ZM69.1001 70.7575C69.0859 70.7816 69.2527 70.9247 69.3235 70.8025C69.54 70.4165 69.3018 70.3926 69.1001 70.7575ZM40.1517 30.7185C40.9026 30.6307 41.5561 31.178 41.6231 31.6684C41.6704 31.9116 41.6199 32.1295 41.5291 32.2685C41.4345 32.4091 41.3056 32.4682 41.0197 32.4271C40.7911 32.3931 41.4821 31.8066 41.1992 31.6346C40.565 31.3307 40.3812 32.5966 39.6664 32.0974C39.5148 32.0073 40.04 30.7193 40.1539 30.7155C40.1531 30.7165 40.1524 30.7175 40.1517 30.7185ZM82.9642 59.1547C82.9618 59.1324 82.6408 59.046 82.6298 59.0654C82.3459 59.5404 82.9975 59.7162 82.9642 59.1547ZM75.0902 78.9558C75.0448 78.9681 74.8886 79.6871 74.9235 79.7173C75.7026 80.2593 76.0332 78.743 75.0902 78.9558ZM82.2306 47.0919C81.8078 47.5661 81.366 47.5701 81.1677 46.8765C81.5216 46.9608 81.88 47.0129 82.2306 47.0919Z" fill="black"/>
<path d="M107.068 95.7154C106.715 95.872 106.28 95.7314 105.949 95.5306C105.843 95.4684 105.889 95.1754 105.819 95.1192C105.685 95.0096 105.546 95.1566 105.418 95.0251C105.373 94.9802 105.414 94.517 105.367 94.4805C105.102 94.2837 104.872 94.4078 104.604 94.317C103.317 93.8683 102.071 93.7309 100.782 93.5614C100.354 93.5059 99.8252 93.1038 99.3975 93.3016C99.347 93.3252 99.3912 93.7292 99.3825 93.763C99.2465 94.2793 99.2698 93.4597 99.1653 93.3545C98.762 92.9386 98.3122 92.917 97.944 93.0867C97.7846 93.1602 97.9759 93.9589 97.7963 93.5132C97.7839 93.4831 97.8097 93.0514 97.7634 93.0071C97.6583 92.9076 97.4681 92.9915 97.3913 92.9602C97.2402 92.8977 97.2155 92.903 97.0733 92.9033C96.8783 92.9001 96.6362 92.695 96.4348 92.8002C96.3915 92.824 96.4667 93.2627 96.399 93.3404C96.3314 93.418 96.1419 93.3878 96.074 93.2863C96.0062 93.1848 96.02 92.8372 96.0056 92.7582C95.885 92.0913 95.7063 93.0283 95.6796 93.0524C95.1871 93.4635 94.7304 92.952 94.2498 92.9733C93.8844 92.9906 93.5104 93.1812 93.1584 93.1723C92.7527 93.1594 92.3843 92.9362 91.9909 92.9949C91.9492 93.0006 92.0214 93.5167 91.9705 93.5247C91.4258 93.6094 90.8841 93.5777 90.3184 93.2537C90.2615 93.2208 90.3112 92.7624 90.253 92.7023C89.9113 92.351 89.3524 91.5053 89.2317 93.3483C89.2299 93.3852 89.2282 93.4231 89.2267 93.4621C89.0252 93.3943 88.7988 93.3308 88.5919 92.9499C88.4549 92.7054 88.5099 92.2004 88.3941 92.4262C88.369 92.4766 88.4575 92.9038 88.4183 92.9465C88.2507 93.1263 88.0372 93.0166 87.9227 93.2687C87.9007 93.3208 87.9883 93.7004 87.9946 93.7707C88.0542 94.3379 87.7496 93.4463 87.7021 93.3884C87.3947 92.9436 87.3177 93.187 87.2493 93.2092C87.2343 93.2135 87.4874 93.6715 87.4908 93.6875C87.4996 93.7764 87.7332 93.5693 87.6611 93.1801C87.6392 93.1034 87.2139 92.9602 87.1787 92.9222C87.0042 92.8084 87.8171 93.0294 87.6606 92.8881C87.6267 92.8654 87.2484 92.8145 87.2075 92.8054C86.557 92.7115 87.4822 92.8176 87.5044 92.7965C87.7483 92.735 87.0425 92.866 86.9844 93.0603C86.9755 93.088 86.9802 93.1141 87.0033 93.1373C87.0256 93.1575 87.4861 93.004 87.5191 93.0633C87.7429 93.4542 87.7637 93.9004 87.6414 94.5097C87.6233 94.6041 87.2768 94.7232 87.239 94.7475C86.6593 95.1467 87.5133 94.7584 87.5548 94.7607C87.8664 94.8033 87.3046 95.3871 88.3151 94.8971C88.4374 95.7371 89.3156 95.9687 89.4437 97.0176C89.3917 97.0496 89.3558 97.1076 89.3333 97.1823C89.3312 97.1946 89.0821 97.5824 89.0829 97.6076C89.1332 97.931 89.4526 97.2794 89.8218 96.4842C89.9003 96.2795 89.6579 97.3123 89.6564 97.3924C89.6129 97.6774 89.3803 98.3236 89.3782 98.3806C89.4001 98.8383 89.9678 96.6433 90.0769 96.6683C90.0803 96.673 89.9694 97.0757 89.9715 97.1187C89.979 97.2541 90.0538 97.1006 90.0611 97.2487C90.0742 97.5904 89.9247 98.6841 90.1915 98.0784C90.2238 97.9991 90.4021 96.7261 90.525 96.8059C90.5775 96.84 90.8224 96.8485 90.891 96.9388C90.9553 97.0292 90.8627 97.4362 90.866 97.4546C91.0133 98.0201 90.9162 98.2385 90.9563 99.0568C91.0055 99.8723 91.1341 97.9483 91.1929 97.7372C91.2504 97.5267 91.3713 97.9888 91.4025 98.1482C91.4321 98.3077 91.3649 98.5672 91.3952 98.6584C91.6012 99.2536 91.5558 97.7095 91.6478 97.4084C91.8545 96.6942 91.9271 98.1284 92.0892 98.2745C92.1329 98.3139 92.1076 97.9872 92.1485 97.9581C92.3105 97.8471 92.3939 98.2957 92.5825 97.8904C92.6133 97.8244 92.7752 96.9676 92.8563 97.5994C92.8684 97.6905 92.8263 98.0463 92.8925 98.1269C92.9905 98.2479 93.1786 98.327 93.2874 98.208C93.3673 98.12 93.2767 97.5328 93.3764 97.7153C93.4211 97.7967 93.338 98.1402 93.4226 98.2644C93.5058 98.3888 93.7296 98.3726 93.8086 98.36C93.8903 98.3471 93.8414 97.9022 93.8478 97.8722C93.8859 97.7 94.04 97.4836 94.054 97.4839C94.748 97.4205 95.4199 98.1519 96.1015 97.8788C96.155 97.858 96.1018 97.39 96.1098 97.382C96.2876 97.1786 96.1873 98.4316 96.334 98.8443C96.2787 97.8928 96.3643 98.0623 96.4886 97.9529C96.549 97.8993 96.5005 97.532 96.5047 97.494C96.5749 96.9304 96.6685 97.651 96.6913 97.7983C96.7753 98.3401 96.8167 97.6942 96.8741 98.0562C96.9317 98.4155 96.8557 98.9549 96.9827 98.9427C97.0039 98.6004 96.8729 97.7137 96.9623 97.5654C97.2929 97.0047 97.9956 97.6726 98.2887 97.7311C98.5788 97.7898 98.6716 97.7222 98.8456 97.837C99.1587 98.0446 99.0152 97.3896 99.1886 97.0778C99.3632 96.7659 99.3531 98.3958 99.3981 98.7438C99.4426 99.0916 99.454 98.7306 99.4972 98.9209C99.5398 99.1112 99.4806 99.3524 99.5617 99.4205C99.6428 99.4886 99.8242 98.8564 99.8333 98.4897C99.8523 97.7128 99.7141 96.9055 99.9359 97.1803C99.9487 97.1966 99.9319 97.6259 99.9798 97.6667C100.356 97.9772 100.736 97.978 101.109 98.2504C101.161 98.2885 101.141 98.7662 101.172 98.7938C101.489 99.0823 101.34 98.2862 101.459 97.3873C101.483 98.5742 101.611 99.2945 101.839 99.2898C101.977 99.2873 101.927 98.771 101.997 98.4017C102.018 98.2903 102.134 98.6407 102.139 98.3964C102.156 97.5978 102.02 96.7118 102.272 97.0545C102.284 97.0709 102.273 97.508 102.31 97.5326C102.549 97.6936 102.535 96.8599 102.781 96.7466C102.948 96.6686 103.257 97.0367 103.485 97.1764C103.514 97.196 103.541 97.2111 103.566 97.2198C103.632 98.5526 103.834 98.234 103.833 97.3104C103.963 97.3376 104.093 97.2717 104.231 97.3816C104.279 97.419 104.303 97.8054 104.314 97.8461C104.491 98.4828 104.424 97.5875 104.442 97.549C104.66 97.1696 105.072 97.7671 105.102 97.056C105.106 97.0294 104.795 96.1569 105.08 96.7725C105.103 96.8134 105.178 97.2369 105.295 97.2259C105.395 97.2249 105.855 97.5497 105.741 97.1026C105.724 96.9879 105.285 96.378 105.703 96.7911C105.762 96.8451 105.934 97.0479 106.045 97.1473C106.41 97.4505 105.76 96.7776 106.378 97.2809C106.995 97.7887 107.657 97.9311 107.335 97.3995C107.327 97.3809 106.716 96.9576 106.753 96.9136C106.816 96.8372 107.019 96.7645 107.056 96.6563C107.073 96.6054 106.629 96.4731 106.625 96.4616C106.568 96.2933 106.617 96.1852 106.718 96.0799C106.847 95.9497 107.057 95.8289 107.198 95.6395C107.246 95.5732 106.662 95.2772 107.173 95.2276C107.732 95.1614 109.95 95.6565 109.47 95.1713C109.277 94.9593 106.437 94.5229 107.937 94.3949C107.603 93.8862 108.369 93.4229 107.818 92.9326C107.794 92.9098 106.99 92.8868 106.998 92.8391C107.011 92.7662 107.381 92.6981 107.401 92.6417C107.44 92.5452 107.404 92.4567 107.35 92.3743C107.273 92.2553 107.16 92.1503 107.168 92.0251C107.172 91.9443 107.559 91.9022 107.559 91.7961C107.558 91.6854 107.049 91.7459 107.252 91.5578C107.407 91.4191 108.361 90.9753 108.403 90.7485C107.443 91.116 107.426 91.01 107.108 90.9747C107.047 90.9696 106.739 91.155 106.694 91.1614C106.506 91.1962 106.747 91.0166 106.545 91.0657C106.497 91.0778 106.189 91.2459 106.133 91.2668C105.651 91.4619 106.267 90.9578 106.365 90.8551C106.75 90.4897 106.343 90.7024 106.468 90.5236C106.59 90.3407 106.87 90.2896 106.915 90.1383C107.003 89.8174 106.783 89.6355 106.659 89.4681C106.606 89.4015 106.291 89.7537 106.276 89.7513C106.081 89.7089 106.328 89.2426 105.587 89.8182C107.258 88.0727 105.35 89.9075 105.539 89.4112C105.555 89.3712 106.345 88.5467 106.518 88.4837C106.692 88.4213 106.517 88.7524 106.779 88.6493C106.838 88.6219 107.725 88.0047 107.789 87.9789C108.283 87.7672 107.032 88.9286 106.966 88.9952C106.271 89.7338 107.25 89.106 107.349 89.1004C107.778 89.0451 107.715 89.3547 108.049 89.3735C108.266 89.3893 109.198 88.7733 109.246 88.9079C109.413 89.3834 108.085 90.1962 109.486 90.0034C109.786 89.9713 110.879 89.4052 110.135 90.1343C110.092 90.1896 109.351 90.7207 109.922 90.6957C109.995 90.6939 110.336 90.5914 110.372 90.6092C110.61 90.7341 110.366 90.9233 110.539 91.0746C110.712 91.2276 110.951 91.4163 110.859 91.6233C110.805 91.751 110.163 91.9647 110.006 92.0265C109.946 92.0512 109.907 92.0732 109.885 92.0932C109.741 92.2162 110.256 92.2779 109.774 92.3873C109.213 92.5069 108.341 92.4498 107.989 92.6503C108.911 92.586 109.859 92.531 110.787 92.4757C110.789 92.948 110.499 93.3918 110.532 93.8337C110.536 93.8892 111.035 93.8426 111.052 93.9039C111.125 94.1663 110.761 94.3719 110.882 94.6459C110.978 94.8581 111.481 95.1404 111.585 95.3904C110.518 95.405 110.831 95.7694 110.692 96.0034C110.644 96.0839 110.366 96.0278 110.265 96.0702C109.887 96.2289 110.824 96.3053 110.956 96.3996C111.508 96.8247 109.438 96.3859 109.413 96.6895C109.411 96.6993 109.821 96.9009 110.135 97.0728C110.32 97.1695 110.473 97.2549 110.494 97.2734C110.873 97.6022 110.11 97.1902 109.993 97.2848C109.774 97.4657 109.473 97.5186 109.645 97.9545C109.701 98.0726 110.211 98.6413 109.616 98.587C109.54 98.578 109.223 98.3796 109.193 98.3882C108.68 98.5389 109.649 99.1869 109.777 99.6804C109.893 100.189 108.946 100.008 108.734 99.8827C108.159 99.5986 108.675 99.5823 108.64 99.529C108.22 98.9489 108.122 99.2314 107.936 99.3148C107.147 98.4809 107.044 98.6544 107.747 99.401C107.826 99.4811 107.872 99.3022 107.936 99.3148C108.57 100.265 108.269 100.688 107.429 99.9653C107.044 99.6203 106.865 99.0672 106.646 99.4226C106.542 99.5808 106.946 100.264 106.88 100.532C106.698 101.154 105.998 100.605 105.732 100.789C105.625 100.858 105.843 101.251 105.772 101.313C105.576 101.481 105.325 101.199 105.151 101.398C105.135 101.416 105.257 101.855 105.192 101.872C104.694 102.007 104.263 101.755 103.813 101.773C103.782 101.774 103.747 101.78 103.709 101.79C103.537 101.848 103.302 102.037 103.151 102.002C102.843 101.932 102.435 101.293 102.182 101.466C102.017 101.578 102.078 102.028 102.021 102.341C101.911 102.946 101.609 101.887 101.566 101.723C101.565 101.718 101.705 101.604 101.616 101.375C101.545 100.893 101.567 101.721 101.566 101.723C101.538 101.617 101.239 101.53 101.186 101.619C101.157 101.668 101.197 102.096 101.181 102.114C100.81 102.518 100.424 102.647 100.012 102.467C100.005 102.459 99.9907 101.978 99.9734 101.965C99.732 101.763 99.6148 102.358 99.4398 102.716C99.2654 103.074 99.1101 102.965 98.9552 102.146C98.8146 102.257 98.5894 101.903 98.4605 101.688C98.332 101.473 98.3589 102.408 98.3492 102.426C98.0447 103.033 97.8349 102.507 97.4853 102.439C97.3212 102.405 97.0031 102.554 96.8289 102.664C96.6913 102.752 96.6023 102.536 96.4752 102.681C96.4582 102.7 96.4918 103.116 96.487 103.132C96.3591 103.635 96.3917 102.615 96.3549 102.435C96.2218 101.778 96.1432 101.428 95.9712 101.746C95.9324 101.818 95.8535 103.287 95.7767 103.376C95.6771 103.488 95.6994 102.961 95.5963 103.092C95.5874 103.102 95.5991 103.426 95.5326 103.414C95.2198 103.361 94.8804 103.181 94.5514 103.22C94.5069 103.224 94.5736 103.737 94.5092 103.751C94.2095 103.817 93.8694 103.802 93.563 103.563C93.488 103.502 93.5339 103.142 93.5175 103.035C93.4179 102.389 93.2803 103.328 93.2564 103.346C92.6884 103.795 92.2716 102.939 91.6568 103.318C91.6247 103.341 91.3075 104.334 91.2403 103.464C91.2361 103.407 91.1743 102.517 91.0319 103.114C91.0226 103.151 91.0666 103.61 90.9398 103.555C90.8172 103.5 90.5735 103.786 90.4331 103.27C90.3865 103.107 90.3505 102.218 90.0918 102.896C90.0812 102.944 89.5903 104.485 89.6201 103.381C89.6268 103.2 89.8127 102.056 89.5014 102.609C89.4397 102.716 89.4793 102.985 89.3361 103.125C89.096 103.338 88.9199 102.99 88.526 103.43C88.4605 103.509 88.0653 104.226 88.0182 103.592C88.0142 103.494 88.171 103.136 88.0881 103.067C87.7164 102.743 87.0664 102.809 86.4816 102.171C86.2779 101.94 86.7363 101.488 86.5851 101.188C86.5138 101.048 86.3948 100.869 86.2481 100.699C86.2038 100.608 86.1169 100.561 85.9637 100.634C85.6823 100.765 85.1134 101.597 84.916 101.525C84.0468 101.196 83.8768 100.153 83.426 99.427C83.3578 99.3171 83.1394 99.6203 83.0169 99.4691C82.5658 98.9379 81.5809 97.9561 81.993 97.024C82.3295 96.3084 83.0112 96.6776 83.0829 96.2427C83.1226 96.0454 81.9793 96.3179 81.9262 96.2841C81.4104 95.9991 81.7881 95.5195 81.5215 95.1766C81.4659 95.1032 81.0383 95.3168 80.9954 95.2502C80.8443 95.0202 80.9805 94.7004 80.8908 94.4659C80.8502 94.3619 80.5141 94.4499 80.508 94.3481C80.5079 94.3462 80.5078 94.3443 80.5079 94.3423C80.5171 94.0666 80.6073 93.7056 80.9124 93.259C80.9407 93.2224 81.403 93.432 81.3993 93.1299C81.3976 92.6184 81.7432 91.9191 81.6886 91.0198C81.6727 90.763 80.9118 90.401 81.6903 90.1045C81.8634 90.0435 82.6163 90.6669 82.2303 89.6888C82.1135 89.5556 82.0316 87.8527 82.9133 88.1168C83.1421 88.1776 83.8473 88.6492 83.937 88.4366C83.9511 88.4028 83.5996 88.1076 83.7326 87.9666C84.2017 87.4859 84.7285 87.3037 85.115 87.0129C85.2234 86.9332 84.885 86.5703 85.0547 86.4651C85.5285 86.1742 86.1036 86.1532 86.5074 86.2189C86.6586 86.2435 86.6335 86.6338 86.6522 86.672C86.9373 87.2981 86.8528 86.3968 86.8994 86.3353C87.1743 85.9691 87.4632 86.359 87.7114 86.2177C87.781 86.1799 87.682 85.7577 87.6924 85.7179C87.8083 85.328 87.7748 86.1093 87.8799 86.1841C88.1686 86.3971 88.4457 86.3412 88.6876 86.2721C88.7786 86.246 88.6459 85.7534 88.7295 85.7358C88.7721 85.7261 88.8152 85.7174 88.8586 85.71C89.2065 85.6358 89.5656 85.6802 89.9104 85.9158C89.9829 85.9652 89.957 86.3513 89.9757 86.4383C90.1051 87.0473 90.2122 86.2033 90.2422 86.122C90.3782 85.7508 90.4532 86.0877 90.5845 86.0181C91.2258 85.672 92.0525 85.8606 92.6774 85.973C93.4967 86.117 94.139 86.4565 94.9047 86.3309C94.9539 86.3234 94.8838 85.8143 94.9259 85.8013C95.4669 85.6564 96.0146 85.8353 96.5531 85.6674C96.5981 85.6545 96.5145 85.1724 96.5861 85.1354C96.7329 85.0561 96.9214 85.0755 97.075 85.2248C97.1499 85.2967 97.0684 85.7161 97.1434 85.7799C97.3145 85.9298 97.5073 85.9574 97.6785 85.8735C97.7519 85.8367 97.6216 85.3451 97.7184 85.336C98.3742 85.2634 99.0285 85.1555 99.7131 85.7755C99.7609 85.8181 99.8347 86.8241 99.9259 86.6277C99.9242 86.3479 99.913 86.0191 99.9065 85.7202C100.863 85.5279 101.828 85.8479 102.789 85.8741C102.829 85.8751 102.745 85.3433 102.821 85.3425C103.287 85.3369 103.711 85.177 104.197 85.6944C104.244 85.745 104.248 86.6847 104.376 86.539C104.395 86.5126 104.606 86.3814 104.65 86.1761C104.657 86.1451 104.607 85.7078 104.672 85.6932C105.052 85.616 105.452 85.7051 105.839 85.9619C105.9 86.0042 105.85 86.4728 105.893 86.507C106.21 86.7457 106.528 86.3809 106.812 86.7939C106.99 87.0722 106.969 87.881 107.097 88.6702C107.114 88.7817 107.209 88.7935 107.24 89.2544C107.358 90.4112 107.386 91.6858 107.511 92.9189C107.52 93.0512 107.6 93.0442 107.793 93.0597C107.803 93.0627 107.964 93.083 108.41 92.9467C108.638 92.8637 109.027 92.7393 109.526 92.2476C110.044 91.7773 110.356 90.8065 110.364 90.445C110.379 90.0611 110.464 90.2125 110.348 90.9321C110.247 91.675 109.509 92.6026 109.033 92.874C108.545 93.1955 108.284 93.2682 108.107 93.3501C108.02 93.3873 107.948 93.4178 107.897 93.4445C107.879 93.4661 107.86 93.4883 107.842 93.5113C107.817 93.5379 107.632 93.6231 107.578 93.7127C107.517 93.8039 107.459 93.9157 107.439 94.0265C107.417 94.1793 107.496 94.6457 107.449 94.8423C107.405 95.0385 107.309 94.6486 107.242 94.8792C107.174 95.1126 107.227 95.6459 107.068 95.7154ZM97.8768 100.725C97.7467 100.282 97.8052 101.926 97.9063 101.527C97.9111 101.506 97.8835 100.747 97.8768 100.725ZM109.252 93.3994C108.528 93.5634 109.593 93.6792 110.154 93.5615C110.714 93.4338 109.471 93.3445 109.252 93.3994ZM108.582 91.7254C108.05 92.011 110.365 91.711 109.854 91.5171C109.825 91.505 108.612 91.7071 108.582 91.7254ZM106.643 88.9151C106.646 88.9369 106.736 88.955 106.737 88.9333C106.765 88.4095 106.587 88.3736 106.643 88.9151ZM107.399 90.2445C107.162 90.4593 107.56 90.4176 107.861 90.1556C108.099 89.9359 107.688 89.9669 107.399 90.2445ZM92.0652 99.0771C92.0643 99.0526 92.0017 99.0282 91.9977 99.1667C91.9851 99.6128 92.0799 99.4902 92.0652 99.0771ZM105.623 88.2719C105.846 88.6024 104.649 90.1282 104.528 89.7101C104.505 89.6335 105.06 89.3685 105.116 89.1815C105.212 88.836 104.307 89.6462 104.623 89.0555C104.679 88.9459 105.612 88.2495 105.625 88.2704C105.624 88.2709 105.623 88.2714 105.623 88.2719ZM97.7235 98.7543C97.7203 98.7327 97.6323 98.716 97.6312 98.7377C97.6076 99.2615 97.7853 99.2954 97.7235 98.7543ZM89.0148 97.5057C89.0413 97.468 88.9293 97.3108 88.8965 97.3382C88.3688 97.7943 88.4313 98.1068 88.7519 97.8145C88.8175 97.7501 88.894 97.6579 88.9882 97.5423C88.997 97.5304 89.0058 97.5182 89.0148 97.5057ZM103.571 97.2552C103.629 96.7258 103.71 96.658 103.833 97.3098C103.744 97.282 103.659 97.2826 103.571 97.2552Z" fill="black"/>
<path d="M111.727 35.6619C111.871 35.9952 111.719 36.4121 111.511 36.7467C111.446 36.8496 111.155 36.7988 111.097 36.8688C110.984 37.0053 111.128 37.1342 110.994 37.2747C110.948 37.3193 110.486 37.2677 110.449 37.3145C110.247 37.5709 110.366 37.8239 110.271 38.0849C109.8 39.3922 109.648 40.6726 109.471 41.9963C109.413 42.4295 109.009 42.9708 109.206 43.4135C109.23 43.465 109.634 43.421 109.668 43.4298C110.184 43.5688 109.364 43.5434 109.259 43.6488C108.843 44.0678 108.822 44.5194 108.994 44.9021C109.068 45.0647 109.866 44.8669 109.421 45.051C109.391 45.0638 108.959 45.0393 108.915 45.0865C108.816 45.1935 108.901 45.3854 108.871 45.4667C108.809 45.6232 108.815 45.6485 108.816 45.7937C108.815 45.9915 108.612 46.2396 108.72 46.447C108.744 46.4911 109.182 46.4094 109.261 46.4777C109.339 46.5455 109.312 46.739 109.211 46.8089C109.111 46.8788 108.763 46.8696 108.684 46.8852C108.019 47.0153 108.959 47.1866 108.984 47.213C109.403 47.71 108.902 48.1826 108.937 48.6674C108.965 49.0348 109.169 49.4146 109.173 49.7592C109.177 50.1759 108.971 50.546 109.052 50.9367C109.06 50.9786 109.571 50.8765 109.582 50.9271C109.697 51.4533 109.703 51.9854 109.432 52.5462C109.404 52.6029 108.944 52.603 108.889 52.6644C108.711 52.8642 108.39 53.1697 108.469 53.3587C108.531 53.5037 108.864 53.5733 109.745 53.4186C109.706 53.5868 109.677 53.772 109.352 54.0475C109.144 54.2265 108.645 54.3097 108.889 54.3554C108.943 54.3648 109.335 54.1735 109.385 54.1963C109.592 54.29 109.54 54.511 109.814 54.5492C109.871 54.5555 110.209 54.3629 110.275 54.3368C110.801 54.1172 110.041 54.6768 110.002 54.7433C109.681 55.1931 109.955 55.2359 110.075 55.4096C110.103 55.4508 110.479 55.0822 110.519 55.1076C110.72 55.2402 110.845 55.4454 110.862 55.789C110.865 55.8667 110.515 56.147 110.501 56.2012C110.452 56.4411 111.051 55.8499 111.013 56.062C111.006 56.1065 110.738 56.3781 110.713 56.4122C110.328 56.9509 111.003 56.3044 111.029 56.3C111.391 56.2439 110.892 57.0938 111.184 57.1498C111.218 57.1548 111.464 56.7343 111.542 56.7707C112.06 57.0088 112.493 57.4728 112.792 58.1517C112.839 58.2567 112.574 58.5138 112.553 58.554C112.236 59.184 112.825 58.4544 112.872 58.4441C113.229 58.3843 112.966 59.1604 113.767 58.3644C114.404 59.3014 116.02 59.7855 115.898 61.6202C115.896 61.6409 115.476 61.8335 115.473 61.8719C115.416 62.3323 116.016 61.9284 116.957 61.9236C117.199 61.9382 116.273 62.5088 116.199 62.5374C115.944 62.6841 115.267 62.8113 115.22 62.8476C115.144 62.9022 115.172 62.917 115.268 62.9118C115.64 62.8849 117.041 62.553 117.091 62.7705C117.089 62.7792 116.674 62.8353 116.638 62.8654C116.525 62.9563 116.701 62.9908 116.571 63.0769C116.271 63.2785 115.19 63.4879 115.851 63.5798C115.937 63.5919 117.206 63.3754 117.173 63.5927C117.159 63.6771 117.218 64.051 117.141 64.1493C117.065 64.254 116.647 64.2166 116.629 64.2253C116.1 64.5181 115.867 64.4357 115.064 64.6012C114.262 64.7545 116.186 64.6277 116.403 64.6687C116.62 64.71 116.175 64.9098 116.019 64.9575C115.863 65.0061 115.598 64.959 115.51 65C114.935 65.2653 116.47 65.0896 116.777 65.1699C117.505 65.3642 116.076 65.5459 115.935 65.7166C115.897 65.7643 116.223 65.7271 116.253 65.7706C116.368 65.9441 115.92 66.0436 116.325 66.2482C116.391 66.2799 117.246 66.4636 116.612 66.5492C116.521 66.561 116.166 66.5085 116.084 66.5794C115.961 66.6868 115.876 66.8775 115.99 66.9979C116.074 67.0876 116.665 67.0139 116.478 67.1153C116.394 67.1602 116.055 67.0553 115.927 67.1404C115.799 67.2253 115.803 67.4563 115.81 67.5419C115.817 67.6288 116.264 67.6054 116.294 67.6139C116.463 67.6652 116.669 67.8461 116.667 67.8613C116.678 68.6167 115.881 69.2481 116.075 69.985C116.09 70.0431 116.561 70.0399 116.568 70.0491C116.75 70.2551 115.516 70.0119 115.09 70.1146C116.041 70.1659 115.863 70.232 115.958 70.3755C116.004 70.4448 116.374 70.4366 116.412 70.4454C116.963 70.5844 116.236 70.5985 116.087 70.6049C115.539 70.6291 116.176 70.747 115.809 70.7629C115.446 70.7793 114.919 70.6395 114.916 70.7693C115.254 70.831 116.15 70.8015 116.287 70.9105C116.803 71.3235 116.055 71.964 115.961 72.2574C115.868 72.5489 115.924 72.6499 115.789 72.8155C115.546 73.1126 116.214 73.0424 116.503 73.2552C116.793 73.4683 115.175 73.2701 114.824 73.2757C114.473 73.2812 114.83 73.3344 114.636 73.3568C114.442 73.3792 114.21 73.2893 114.133 73.3662C114.055 73.4441 114.663 73.7027 115.026 73.753C115.796 73.8594 116.614 73.8095 116.316 74.0032C116.299 74.0143 115.874 73.9499 115.828 73.994C115.477 74.3468 115.437 74.7294 115.129 75.0884C115.086 75.1377 114.612 75.0705 114.582 75.0991C114.264 75.3979 115.071 75.3219 115.955 75.526C114.771 75.4405 114.041 75.5058 114.026 75.7454C114.016 75.8889 114.535 75.882 114.897 75.9857C115.006 76.0166 114.647 76.106 114.89 76.1316C115.685 76.215 116.579 76.1482 116.217 76.3758C116.2 76.3859 115.765 76.3408 115.738 76.3764C115.559 76.6074 116.391 76.6551 116.488 76.9064C116.563 77.1026 116.051 77.4459 115.969 77.6714C114.635 77.6632 114.94 77.8838 115.86 77.9648C115.823 78.1113 115.877 78.2683 115.752 78.411C115.709 78.4602 115.323 78.4344 115.281 78.4411C114.628 78.5473 115.524 78.5961 115.56 78.6263C115.908 78.959 115.239 79.2622 115.916 79.559C115.94 79.5698 116.867 79.5439 116.195 79.6619C116.149 79.6702 115.722 79.5834 115.698 79.7379C115.672 79.8907 115.194 80.2121 115.638 80.3963C115.745 80.4416 116.504 80.5098 115.927 80.6588C115.848 80.6791 115.582 80.6857 115.436 80.7179C114.972 80.8229 115.908 80.777 115.123 80.9236C114.337 81.0701 113.759 81.3008 114.329 81.4682C114.346 81.474 115.09 81.4469 115.085 81.5155C115.078 81.625 114.943 81.8009 114.963 81.9149C114.972 81.9694 115.425 81.8756 115.434 81.884C115.737 82.2083 115.368 82.5206 115.26 82.9406C115.24 83.019 115.895 83.1053 115.434 83.3358C114.946 83.5879 112.803 83.8684 113.246 84.1383C113.25 84.2872 113.456 84.6523 113.51 84.7911C113.524 84.7936 113.54 84.7954 113.559 84.7964C113.827 84.8188 116.346 83.4325 115.234 84.4521C115.815 84.6717 115.453 85.4923 116.182 85.6029C116.214 85.6083 116.904 85.1948 116.926 85.2424C116.957 85.3149 116.681 85.5717 116.695 85.6317C116.746 85.8886 117.131 85.8638 117.231 86.0686C117.27 86.1464 116.949 86.3657 116.998 86.4602C117.048 86.5553 117.483 86.2816 117.384 86.5455C117.307 86.7452 116.59 87.5104 116.605 87.7091C116.758 87.5734 116.883 87.4684 116.988 87.3867C117.406 87.0584 117.489 87.1063 117.742 87.0582C117.802 87.046 118.04 86.7758 118.082 86.7572C118.257 86.6745 118.081 86.9199 118.266 86.8219C118.31 86.7984 118.562 86.5544 118.612 86.5209C119.045 86.2242 118.592 86.8872 118.518 87.0071C118.229 87.4553 118.584 87.1621 118.501 87.3671C118.421 87.5738 118.153 87.6749 118.14 87.834C118.116 88.1655 118.358 88.3051 118.506 88.4546C118.567 88.513 118.83 88.1208 118.846 88.121C119.052 88.142 118.862 88.6346 119.537 87.9825C118.071 89.9035 119.766 87.8696 119.641 88.3956C119.631 88.4378 118.916 89.328 118.751 89.4087C118.587 89.4891 118.73 89.1439 118.482 89.2764C118.424 89.308 117.624 90.0316 117.566 90.0673C117.117 90.3501 118.209 89.0394 118.264 88.9635C118.855 88.1379 117.97 88.8957 117.88 88.9221C117.474 89.0514 117.494 88.7452 117.178 88.8057C116.973 88.8431 116.19 89.6404 116.135 89.5403C115.948 89.1983 117.001 88.0454 115.79 88.728C115.552 88.8582 114.814 89.6056 115.1 89.0773C115.126 89.0296 115.162 88.9714 115.207 88.9015C115.239 88.8463 115.776 88.1278 115.287 88.4095C115.225 88.4446 114.954 88.6759 114.919 88.6812C114.692 88.7122 114.857 88.4675 114.669 88.4527C114.481 88.4373 114.223 88.4397 114.226 88.248C114.227 88.1323 114.682 87.6378 114.787 87.5071C115.089 87.1329 114.404 87.4983 114.815 87.1017C115.23 86.7063 116 86.2928 116.192 85.9354C115.445 86.4809 114.673 87.0332 113.919 87.5766C113.695 87.2191 113.709 86.7189 113.449 86.4072C113.416 86.3688 113.033 86.6899 112.986 86.6554C112.791 86.5071 112.977 86.1455 112.731 86.0239C112.538 85.9309 111.985 86.0417 111.769 85.945C111.892 85.8476 111.987 85.7636 112.06 85.6904C111.961 85.4377 111.587 84.7728 111.578 84.5017C112.114 84.2336 111.821 84.045 111.867 83.8434C111.885 83.7614 112.164 83.7145 112.245 83.6448C112.544 83.3848 111.641 83.6442 111.486 83.6141C110.825 83.479 112.908 83.1069 112.816 82.8538C112.812 82.8421 111.67 82.8321 111.596 82.8158C111.12 82.7241 111.981 82.734 112.05 82.626C112.176 82.4286 112.428 82.2761 112.075 82.1108C111.971 82.0637 111.255 81.9967 111.783 81.8202C111.852 81.7972 112.224 81.7652 112.244 81.7508C112.583 81.4943 111.417 81.6086 111.009 81.5155C110.601 81.4207 111.389 81.1462 111.618 81.0891C112.211 80.9352 111.882 81.1463 111.942 81.1469C112.649 81.1503 112.516 81.022 112.566 80.9114C113.71 80.8026 113.63 80.6662 112.615 80.7973C112.504 80.8121 112.617 80.886 112.566 80.9114C111.436 80.9111 111.278 80.7439 112.316 80.4908C112.803 80.3736 113.382 80.4133 113.157 80.1783C113.055 80.071 112.268 80.1608 112.047 80.0699C111.542 79.8592 112.266 79.5165 112.142 79.2842C112.096 79.1984 111.667 79.2982 111.621 79.2395C111.498 79.0828 111.819 78.933 111.649 78.7772C111.633 78.763 111.181 78.8086 111.174 78.7586C111.113 78.3795 111.401 78.0457 111.409 77.6567C111.413 77.4685 111.166 77.1285 111.22 76.9344C111.309 76.5964 111.978 76.2036 111.827 75.9171C111.731 75.7293 111.277 75.7543 110.971 75.6638C110.378 75.487 111.46 75.2553 111.628 75.2273C111.633 75.2265 111.734 75.3891 111.97 75.3141C112.456 75.285 111.63 75.2293 111.628 75.2273C111.736 75.2076 111.852 74.8974 111.769 74.8311C111.723 74.7948 111.293 74.7938 111.277 74.7752C110.913 74.3331 110.828 73.9015 111.054 73.4884C111.063 73.4814 111.542 73.5215 111.557 73.5049C111.785 73.2744 111.209 73.0799 110.873 72.8551C110.539 72.6302 110.666 72.4789 111.497 72.4155C111.404 72.2564 111.783 72.0657 112.012 71.9584C112.242 71.851 111.31 71.7669 111.292 71.7545C110.727 71.3685 111.275 71.2155 111.384 70.8696C111.438 70.7043 111.327 70.3713 111.238 70.1819C111.167 70.0341 111.392 69.9657 111.262 69.8266C111.244 69.8078 110.828 69.7945 110.812 69.788C110.326 69.6081 111.336 69.7522 111.519 69.736C112.187 69.6788 112.543 69.6345 112.246 69.4277C112.178 69.3798 110.725 69.1509 110.645 69.0692C110.544 68.9626 111.065 69.0383 110.946 68.9247C110.936 68.915 110.612 68.8938 110.631 68.8303C110.714 68.5357 110.924 68.2302 110.91 67.925C110.91 67.8839 110.393 67.9045 110.384 67.8449C110.34 67.567 110.376 67.2668 110.628 67.0183C110.692 66.9561 111.05 67.0138 111.157 67.0046C111.807 66.9463 110.874 66.7823 110.857 66.7628C110.425 66.2778 111.284 65.9431 110.879 65.504C110.855 65.4758 109.846 65.3176 110.708 65.2306C110.766 65.2273 111.648 65.1241 111.041 65.0743C111.003 65.0719 110.55 65.1305 110.594 65.051C110.637 64.9684 110.329 64.8743 110.822 64.7443C110.977 64.707 111.851 64.5589 111.143 64.531C111.093 64.5194 109.501 64.571 110.587 64.4186C110.766 64.3935 111.918 64.2543 111.317 64.2442C111.2 64.2446 110.948 64.3061 110.782 64.2922C110.529 64.2784 110.823 64.164 110.314 64.2535C110.222 64.2632 109.459 64.4602 110.043 64.3306C110.094 64.3184 110.232 64.28 110.352 64.2478C110.448 64.2228 110.532 64.2027 110.553 64.2057C110.774 64.2266 110.571 64.4104 110.839 64.3439C110.93 64.3152 111.479 64.013 111.624 63.928C111.77 63.8447 111.885 63.7241 111.639 63.8723C111.398 64.0268 110.584 64.605 110.527 64.6623C110.308 64.94 110.61 64.3856 110.346 64.0674C110.309 64.0218 110.125 64.3315 110.055 64.2848C109.805 64.1186 109.008 63.9693 109.075 63.0913C109.137 62.3931 109.762 62.2658 109.685 61.9101C109.647 61.7395 108.862 62.6058 108.813 62.616C108.335 62.7316 108.443 62.1766 108.098 62.1165C108.026 62.1035 107.797 62.5191 107.737 62.5032C107.532 62.4511 107.492 62.1563 107.315 62.0651C107.234 62.0247 107.023 62.3159 106.975 62.242C106.858 62.0685 106.813 61.8354 106.88 61.4501C106.887 61.4155 107.267 61.1525 107.166 61.0446C107 60.8686 107.004 60.4268 106.562 60.4774C106.429 60.4935 105.852 61.078 106.112 60.538C106.166 60.4243 106.903 59.7684 106.142 60.2098C106.022 60.2911 104.903 60.7817 105.319 60.1321C105.428 59.9619 105.953 59.3369 105.788 59.3376C105.763 59.3389 105.466 59.6713 105.372 59.6267C105.048 59.4643 104.863 59.1491 104.543 58.9337C104.456 58.8747 104.167 59.2578 104.046 59.1574C103.713 58.8792 103.528 58.3517 103.464 57.9221C103.44 57.7621 103.824 57.6804 103.855 57.6509C104.371 57.1938 103.523 57.5138 103.447 57.4799C103.004 57.2885 103.276 56.8482 103.055 56.5864C102.994 56.5112 102.615 56.7254 102.573 56.7219C102.151 56.6673 102.927 56.5344 102.965 56.3913C103.075 55.9877 102.937 55.6627 102.798 55.3503C102.747 55.2355 102.299 55.4981 102.258 55.3899C102.146 55.1098 102.071 54.8167 102.04 54.5119C102.021 54.2453 102.058 53.953 102.173 53.6943C102.213 53.6034 102.601 53.5991 102.685 53.5689C103.275 53.364 102.421 53.3067 102.337 53.2809C101.952 53.1547 102.28 53.0396 102.196 52.8905C101.784 52.1663 101.919 51.2332 102 50.5454C102.104 49.645 102.423 48.949 102.279 48.132C102.27 48.0802 101.763 48.1633 101.748 48.1189C101.591 47.5394 101.76 46.9595 101.586 46.3855C101.572 46.3382 101.091 46.4298 101.053 46.3545C100.972 46.2007 100.99 46.0006 101.137 45.8351C101.209 45.7545 101.629 45.8403 101.692 45.7597C101.84 45.5719 101.867 45.3779 101.782 45.1958C101.744 45.1183 101.254 45.2569 101.244 45.1544C101.167 44.4567 101.059 43.7735 101.681 43.052C101.723 43.0027 102.729 42.9319 102.533 42.8361C102.254 42.8363 101.925 42.8459 101.626 42.8508C101.437 41.8439 101.765 40.8366 101.802 39.8283C101.804 39.7859 101.271 39.8676 101.271 39.7856C101.271 39.3084 101.117 38.8437 101.643 38.3535C101.694 38.304 102.634 38.3183 102.49 38.1772C102.464 38.1519 102.337 37.9407 102.132 37.8888C102.101 37.8814 101.663 37.925 101.65 37.8558C101.579 37.4484 101.676 37.0338 101.942 36.6277C101.986 36.5627 102.453 36.6292 102.489 36.583C102.735 36.2638 102.379 35.9027 102.802 35.5905C103.087 35.3891 103.894 35.4565 104.689 35.3458C104.801 35.3294 104.819 35.2021 105.281 35.1961C106.443 35.1792 107.716 35.2389 108.956 35.2137C109.222 35.2076 108.935 35.0462 109.58 35.1417C109.623 35.1479 109.837 35.2671 110.056 35.2976C110.207 35.3185 110.677 35.2803 110.871 35.323C111.065 35.3656 110.67 35.4148 110.898 35.4869C111.129 35.5548 111.663 35.5227 111.727 35.6619ZM113.039 71.4739C113.495 71.3934 111.856 71.2558 112.239 71.4077C112.26 71.4152 113.016 71.4781 113.039 71.4739ZM114.733 86.0127C115.24 85.4719 114.3 85.9868 113.902 86.3969C113.507 86.81 114.58 86.1786 114.733 86.0127ZM116.134 87.009C116.468 86.5112 114.616 87.9292 115.118 87.8028C115.147 87.7961 116.115 87.0383 116.134 87.009ZM104.916 35.8582C104.938 35.8563 104.959 35.762 104.937 35.76C104.415 35.711 104.373 35.8998 104.916 35.8582ZM117.649 87.8357C117.83 87.5725 117.458 87.7143 117.229 88.0406C117.047 88.3059 117.425 88.1668 117.649 87.8357ZM115.132 65.7167C115.157 65.7151 115.179 65.6512 115.041 65.6521C114.594 65.655 114.72 65.7428 115.132 65.7167ZM119.649 89.5498C119.42 89.2392 120.477 87.6116 120.661 88.0509C120.694 88.1302 120.139 88.4141 120.101 88.6094C120.03 88.9642 120.905 88.1202 120.623 88.7317C120.569 88.8422 119.659 89.57 119.647 89.5514C119.648 89.5509 119.649 89.5503 119.649 89.5498ZM115.014 71.5534C115.036 71.5527 115.063 71.4639 115.042 71.4602C114.525 71.3727 114.469 71.5519 115.014 71.5534ZM115.355 61.5812C115.393 61.5514 115.288 61.3146 115.247 61.3333C114.487 61.7332 114.646 62.1337 115.355 61.5812ZM115.933 77.6749C116.458 77.7727 116.52 77.8843 115.861 77.9644C115.896 77.8682 115.901 77.7715 115.933 77.6749Z" fill="black"/>
<path d="M50.4574 118.894C50.3362 118.483 50.5309 118.01 50.7772 117.679C50.8535 117.575 51.1376 117.662 51.2036 117.592C51.3319 117.46 51.2057 117.305 51.3569 117.181C51.4085 117.139 51.8598 117.253 51.9033 117.209C52.1384 116.968 52.055 116.705 52.1902 116.456C52.302 116.25 52.4066 116.047 52.5057 115.843C53.0509 114.488 53.672 113.23 54.5047 112.142C54.8367 111.704 55.5318 111.43 55.7096 110.912C55.7304 110.85 55.3903 110.627 55.3714 110.597C55.0912 110.128 55.6895 110.69 55.8488 110.668C56.4797 110.577 56.8353 110.252 57.0372 109.838C57.1228 109.661 56.4309 109.209 56.8812 109.404C56.9116 109.417 57.1737 109.762 57.2417 109.761C57.3949 109.757 57.4984 109.559 57.5873 109.526C57.7577 109.466 57.7752 109.445 57.8971 109.348C58.0694 109.215 58.3959 109.226 58.5148 109.012C58.5397 108.965 58.2193 108.655 58.2363 108.547C58.2532 108.439 58.4448 108.343 58.5628 108.386C58.6807 108.429 58.86 108.727 58.9166 108.785C59.3864 109.272 59.0343 108.384 59.05 108.346C59.2879 107.706 59.9777 107.901 60.4061 107.653C60.7343 107.462 61.0134 107.115 61.3463 106.976C61.7445 106.81 62.1696 106.877 62.52 106.677C62.5574 106.657 62.3028 106.202 62.3483 106.176C62.499 106.088 62.6648 106.009 62.8136 105.957C63.5713 105.655 64.4218 105.656 65.0824 105.951C65.1777 105.995 65.0175 106.438 65.1025 106.509C65.686 106.943 65.8338 107.956 66.9859 106.316C67.2671 106.527 67.5834 106.809 67.6471 107.236C67.6466 107.28 67.6432 107.327 67.6365 107.376C67.5944 107.669 67.1789 107.974 67.4445 107.913C67.5043 107.901 67.7351 107.529 67.8057 107.537C68.1066 107.574 68.2264 107.863 68.5661 107.871C68.636 107.872 68.8905 107.577 68.9494 107.536C69.4343 107.211 68.9444 108.044 68.9235 108.12C68.806 108.72 69.1085 108.752 69.3043 108.994C69.3495 109.051 69.6872 108.642 69.7461 108.686C70.0451 108.916 70.2518 109.249 70.2703 109.664C70.2735 109.757 69.8734 109.965 69.8561 110.023C69.7811 110.269 70.4828 109.804 70.4242 110.035C70.4122 110.083 70.0901 110.288 70.0593 110.317C69.5718 110.767 70.3782 110.295 70.4091 110.303C70.809 110.389 70.0975 111.077 70.3554 111.223C70.3873 111.24 70.754 110.918 70.8192 110.983C71.258 111.42 71.4463 111.992 71.3987 112.613C71.3924 112.709 71.0616 112.867 71.0271 112.896C70.4959 113.357 71.2981 112.872 71.3401 112.871C71.6513 112.875 71.1421 113.501 72.0807 112.888C72.1554 113.351 72.4441 113.401 72.5449 113.518C72.7981 113.676 73.0162 113.899 73.221 114.362C73.2281 114.376 73.093 114.817 73.1085 114.843C73.2984 115.158 73.4304 114.451 73.7533 113.625C73.8284 113.416 73.74 114.476 73.7417 114.555C73.7312 114.843 73.5665 115.51 73.5707 115.567C73.624 116.018 73.986 113.78 74.1142 113.798C74.1181 113.803 74.0385 114.213 74.0443 114.256C74.0633 114.39 74.1237 114.231 74.1416 114.379C74.1801 114.719 74.0953 115.819 74.3105 115.196C74.3362 115.115 74.4397 113.834 74.5556 113.905C74.6028 113.935 74.8241 113.927 74.8839 114.012C74.9436 114.097 74.8854 114.51 74.8888 114.528C75.0544 115.082 74.9795 115.306 75.0692 116.119C75.1698 116.929 75.1554 115.001 75.1935 114.786C75.2308 114.572 75.37 115.022 75.4105 115.179C75.4491 115.335 75.4098 115.599 75.4441 115.688C75.6799 116.263 75.5096 114.729 75.5639 114.421C75.6768 113.691 75.8659 115.112 76.0339 115.24C76.077 115.275 76.0187 114.953 76.0511 114.919C76.1768 114.792 76.3079 115.228 76.4211 114.803C76.4424 114.734 76.4547 113.867 76.6157 114.481C76.6395 114.57 76.6537 114.927 76.7242 114.998C76.8294 115.105 77.006 115.157 77.0835 115.023C77.1401 114.924 76.9628 114.359 77.0797 114.524C77.1324 114.598 77.1175 114.949 77.2134 115.058C77.3094 115.168 77.5001 115.117 77.5708 115.091C77.6415 115.064 77.5135 114.636 77.5137 114.605C77.515 114.43 77.604 114.192 77.6153 114.19C78.1831 114.013 78.941 114.583 79.4642 114.159C79.5048 114.127 79.333 113.688 79.3378 113.679C79.4337 113.442 79.6874 114.672 79.9283 115.033C79.6209 114.131 79.7395 114.274 79.8189 114.138C79.8567 114.072 79.7119 113.731 79.7051 113.694C79.6072 113.136 79.8894 113.805 79.9515 113.94C80.1781 114.439 80.0297 113.809 80.1828 114.142C80.3361 114.471 80.4243 115.008 80.5325 114.963C80.4519 114.63 80.083 113.814 80.1166 113.65C80.2371 113.032 81.0347 113.484 81.3107 113.456C81.5815 113.431 81.6378 113.342 81.8262 113.401C82.1665 113.507 81.8308 112.928 81.8791 112.584C81.9275 112.24 82.4483 113.783 82.6 114.1C82.7517 114.416 82.6446 114.071 82.7441 114.238C82.8436 114.406 82.869 114.651 82.9632 114.692C83.0578 114.732 83.0113 114.081 82.899 113.732C82.6616 112.992 82.2781 112.269 82.5596 112.465C82.5761 112.476 82.7018 112.887 82.757 112.911C83.1896 113.093 83.5193 112.982 83.9372 113.13C83.9946 113.151 84.1326 113.608 84.168 113.625C84.5372 113.806 84.1499 113.097 83.9666 112.21C84.369 113.327 84.7143 113.971 84.9088 113.903C85.0254 113.863 84.8198 113.387 84.7652 113.016C84.749 112.904 84.9605 113.204 84.8886 112.971C84.6549 112.208 84.2567 111.405 84.5922 111.657C84.6073 111.67 84.7323 112.089 84.773 112.101C85.0349 112.188 84.7731 111.396 84.967 111.218C85.1162 111.079 85.6153 111.444 85.8415 111.457C86.2558 112.725 86.342 112.376 86.1491 111.473C86.2951 111.467 86.4273 111.373 86.5978 111.457C86.6556 111.486 86.7298 111.866 86.7469 111.904C87.0075 112.511 86.8266 111.633 86.8488 111.591C87.0954 111.174 87.4969 111.776 87.7073 111.067C87.7135 111.042 87.5825 110.123 87.7849 110.776C87.7965 110.822 87.7564 111.255 87.9145 111.263C88.0899 111.269 88.4072 111.731 88.6068 111.292C88.649 111.186 88.7868 110.428 88.9111 111.016C88.9267 111.096 88.909 111.362 88.9295 111.51C88.9871 111.982 89.0529 111.046 89.0999 111.845C89.1231 112.31 89.1561 112.709 89.2095 112.855L88.6734 112.547C88.627 112.655 88.6916 112.694 88.9245 112.627C88.9408 112.623 89.5749 112.234 89.6011 112.292C89.6421 112.385 89.5938 112.587 89.6551 112.67C89.6848 112.709 90.0492 112.425 90.061 112.427C90.4641 112.563 90.2534 112.993 90.2918 113.387C90.2975 113.459 90.9321 113.288 90.5756 113.658C90.1839 114.06 88.1815 115.122 88.7972 115.098C89.0415 115.086 91.5951 113.761 90.4295 114.715C90.9727 114.914 90.5106 115.644 91.1848 115.778C91.2148 115.784 91.9477 115.454 91.9612 115.501C91.9798 115.572 91.6695 115.785 91.6718 115.841C91.6732 116.079 92.0465 116.097 92.0985 116.3C92.1189 116.377 91.7646 116.535 91.7885 116.626C91.8128 116.717 92.2918 116.532 92.1325 116.757C92.0106 116.928 91.1326 117.497 91.0828 117.663C91.9945 117.188 92.0156 117.274 92.3266 117.282C92.3867 117.283 92.6889 117.089 92.7337 117.081C92.7492 117.078 92.7618 117.077 92.7721 117.076C92.7776 117.083 92.7856 117.109 92.7906 117.116C92.907 117.127 92.7079 117.262 92.8983 117.243C92.9482 117.238 93.2756 117.111 93.3352 117.101C93.8563 117.013 93.1734 117.448 93.0509 117.514C92.592 117.784 93.0383 117.679 92.8679 117.818C92.6961 117.955 92.417 117.928 92.325 118.049C92.1338 118.295 92.2508 118.492 92.2839 118.671C92.2991 118.741 92.7375 118.569 92.7502 118.576C92.9058 118.692 92.4634 118.968 93.3875 118.811C91.0807 119.529 93.6375 118.84 93.2256 119.175C93.1921 119.201 92.0933 119.511 91.9146 119.49C91.736 119.469 92.056 119.283 91.7805 119.262C91.7156 119.257 90.6512 119.416 90.5848 119.419C90.0641 119.433 91.7054 118.969 91.7938 118.937C92.7484 118.594 91.5981 118.76 91.5121 118.749C91.1153 118.689 91.3047 118.489 91.0162 118.444C90.8294 118.415 89.7687 118.767 89.7836 118.705C89.8261 118.539 90.8317 118.069 90.3811 118.115L90.4632 118.29C90.3731 118.3 90.2301 118.335 90.0167 118.403C89.7373 118.491 88.6806 119.105 89.444 118.494C89.492 118.455 90.2048 117.923 89.6763 118.113C89.6097 118.137 89.2953 118.303 89.2628 118.306C89.051 118.319 89.2741 118.135 89.1096 118.115C88.945 118.094 88.7133 118.09 88.7691 117.939C88.8023 117.848 89.3468 117.46 89.4748 117.356C89.8444 117.056 89.1254 117.338 89.5971 117.02C90.0705 116.7 90.8823 116.383 91.1347 116.078C90.3203 116.515 89.4812 116.959 88.6609 117.397C88.5411 117.11 88.6549 116.699 88.4672 116.451C88.4432 116.421 88.0303 116.701 87.9936 116.675C87.8411 116.567 88.0737 116.261 87.8632 116.181C87.6985 116.12 87.1712 116.263 86.9872 116.214C87.8505 115.596 87.4341 115.603 87.4381 115.426C87.4389 115.364 87.6806 115.218 87.7388 115.137C87.9522 114.835 87.1958 115.389 87.051 115.435C86.4346 115.635 88.2126 114.487 88.0583 114.345C88.0502 114.336 87.0364 114.847 86.9691 114.872C86.5275 115.035 87.2872 114.641 87.319 114.538C87.3771 114.35 87.5503 114.125 87.1946 114.19C87.0891 114.209 86.4549 114.528 86.8549 114.151C86.9071 114.101 87.216 113.892 87.2289 113.873C87.4206 113.556 86.6018 114.118 86.1886 114.329L88.9198 115.899C88.9168 115.933 88.9142 115.964 88.912 115.991C88.8942 116.387 88.9304 115.579 88.9145 115.345C88.8974 114.742 88.9402 115.088 88.9415 115.029C88.9867 114.326 88.9362 114.445 88.8915 114.386C88.8864 113.237 88.7913 113.307 88.8451 114.329C88.85 114.441 88.8827 114.333 88.8915 114.386C88.8504 115.514 88.8703 115.656 88.7134 114.611C88.6348 114.123 88.6296 113.544 88.4971 113.769C88.4377 113.872 88.5588 114.654 88.5369 114.874C88.5005 115.375 88.2215 114.675 88.0943 114.822C88.0528 114.874 88.1949 115.287 88.1715 115.337C88.1134 115.47 87.9521 115.175 87.899 115.361C87.8947 115.378 88.0292 115.811 88.0031 115.824C87.8067 115.931 87.5235 115.712 87.259 115.79C87.1365 115.826 86.9882 116.142 86.8385 116.142C86.5823 116.144 86.0487 115.64 85.8921 115.872C85.7895 116.022 85.9829 116.433 86.0367 116.743C86.1431 117.344 85.5476 116.426 85.4572 116.283C85.4544 116.279 85.537 116.131 85.3867 115.94C85.1708 115.504 85.4577 116.281 85.4572 116.283C85.3991 116.191 85.1173 116.192 85.1005 116.292C85.0915 116.347 85.2654 116.74 85.2577 116.761C85.0705 117.249 84.7765 117.485 84.3532 117.438C84.3439 117.432 84.1751 116.982 84.1554 116.975C83.876 116.856 83.961 117.455 83.9193 117.846C83.8773 118.237 83.6952 118.183 83.2953 117.453C83.202 117.601 82.8848 117.332 82.6984 117.166C82.5126 117 82.8264 117.881 82.8231 117.902C82.7267 118.57 82.3616 118.134 82.0122 118.169C81.8458 118.185 81.5824 118.419 81.4421 118.574C81.3322 118.697 81.182 118.515 81.0986 118.69C81.0871 118.713 81.2317 119.104 81.2313 119.121C81.2386 119.641 80.9991 118.649 80.9149 118.485C80.6094 117.888 80.4451 117.571 80.3576 117.923C80.3389 118.003 80.6349 119.444 80.5762 119.551C80.5017 119.686 80.3952 119.17 80.3215 119.323C80.315 119.336 80.406 119.647 80.3336 119.653C79.9976 119.683 79.6001 119.592 79.2649 119.705C79.2185 119.719 79.3973 120.205 79.3309 120.234C79.0197 120.37 78.6438 120.429 78.2704 120.252C78.1784 120.207 78.1655 119.843 78.1292 119.741C77.9127 119.123 77.9236 120.074 77.8982 120.096C77.3482 120.642 76.7688 119.856 76.1492 120.301C76.1208 120.327 75.8745 121.348 75.7135 120.489C75.7004 120.431 75.5578 119.552 75.4614 120.158C75.4546 120.195 75.5423 120.649 75.4022 120.605C75.2652 120.561 75.0306 120.864 74.8489 120.359C74.7881 120.2 74.6889 119.315 74.4801 120.008C74.4756 120.058 74.0745 121.626 74.0504 120.523C74.0471 120.341 74.1619 119.188 73.8993 119.761C73.8471 119.871 73.8981 120.137 73.7712 120.286C73.5724 120.517 73.3875 120.182 73.0978 120.661C73.05 120.747 72.7547 121.498 72.7194 120.885C72.7149 120.789 72.8192 120.414 72.7594 120.36C72.4808 120.1 72.0878 120.28 71.8309 119.938C71.7422 119.817 71.957 119.226 71.891 119.035C71.8241 118.843 71.6587 118.627 71.4599 118.864C71.2577 119.1 71.0868 120.094 70.8737 120.109C70.5252 120.132 70.213 120.014 69.9306 119.835C69.0458 119.367 68.4219 118.622 67.9065 118.079C67.7838 117.948 67.6486 118.312 67.4507 118.132C66.6972 117.455 65.7352 116.634 66.1323 115.85C66.4418 115.21 67.0775 115.34 67.1385 114.979C67.1706 114.811 66.119 115.319 66.0725 115.314C65.604 115.267 65.9439 114.84 65.6916 114.734C65.6394 114.713 65.265 115.001 65.2252 114.98C65.0872 114.914 65.1941 114.69 65.1007 114.616C65.0578 114.584 64.7612 114.786 64.7598 114.733C64.7538 114.61 64.8298 114.451 65.054 114.181C65.0741 114.156 65.4799 113.959 65.4503 113.885C65.402 113.768 65.5854 113.45 65.2285 113.542C65.1214 113.57 64.4599 114.056 64.8686 113.655C64.9542 113.572 65.7544 112.996 65.0174 113.433C64.8911 113.501 63.9014 114.099 64.4398 113.587C64.5813 113.452 65.174 112.903 65.0475 112.949C65.0284 112.958 64.7035 113.256 64.649 113.258C64.4636 113.261 64.4213 113.142 64.2443 113.155C64.1974 113.16 63.8921 113.501 63.8347 113.501C63.6773 113.502 63.6721 113.333 63.6934 113.159C63.7019 113.094 63.976 112.833 64.002 112.801C64.4151 112.272 63.7873 112.922 63.743 112.953C63.4684 113.132 63.6889 112.763 63.55 112.796C63.513 112.805 63.2595 113.154 63.2321 113.181C62.9669 113.45 63.4691 112.861 63.4973 112.775C63.51 112.736 63.5179 112.702 63.5216 112.672C63.6732 112.619 63.7187 112.686 63.7703 112.767C63.7936 112.803 63.519 113.222 63.5494 113.253C63.7299 113.446 64.0785 113.513 64.4565 113.273C64.5266 113.227 64.5189 112.84 64.5391 112.753C64.6472 112.147 64.7201 112.985 64.7739 113.064C64.9482 113.422 65.0014 113.076 65.1571 113.115C65.3623 113.161 65.6024 113.143 65.8319 113.067C65.435 113.302 65.0248 113.32 64.6842 113.372C64.105 113.458 63.5433 113.354 63.1634 113.71C63.1396 113.732 63.4442 114.144 63.4281 114.168C63.2134 114.455 62.836 114.482 62.6892 114.792C62.6772 114.816 63.0107 115.17 63.0035 115.22C62.9908 115.326 62.905 115.364 62.7462 115.298C62.6688 115.267 62.4308 114.922 62.3571 114.899C62.184 114.844 62.0853 114.888 62.0727 115.009C62.069 115.06 62.4554 115.376 62.4257 115.413C62.2276 115.679 62.1416 115.908 61.4543 115.769C61.4079 115.758 60.5666 115.202 60.697 115.355C60.927 115.514 61.2003 115.697 61.4477 115.865C61.3639 116.28 60.9109 116.427 60.7513 116.792C60.7453 116.806 61.2669 116.923 61.2586 116.948C61.2277 117.044 61.2686 117.148 61.1464 117.234C61.0712 117.349 60.9511 117.456 60.7519 117.556C60.6951 117.584 59.7684 117.428 59.893 117.559C59.9156 117.583 60.0164 117.765 60.2128 117.835C60.2425 117.844 60.6809 117.875 60.6866 117.928C60.7117 118.237 60.5761 118.529 60.2813 118.791C60.2329 118.834 59.773 118.739 59.7344 118.769C59.4641 118.989 59.7985 119.271 59.3651 119.45C59.0736 119.573 58.2696 119.487 57.4725 119.541C57.3599 119.549 57.3399 119.642 56.8778 119.638C55.7151 119.637 54.4435 119.552 53.2042 119.555C52.9366 119.547 53.2228 119.807 52.5785 119.648C52.5351 119.631 52.324 119.464 52.1066 119.422C51.9562 119.39 51.4847 119.428 51.2929 119.363C51.1013 119.302 51.4973 119.253 51.2738 119.158C51.0477 119.06 50.5113 119.072 50.4574 118.894ZM81.8679 116.42C81.615 116.034 82.1625 117.586 82.1374 117.176C82.1356 117.154 81.8806 116.439 81.8679 116.42ZM89.7377 116.095C90.3076 115.628 89.3352 116.076 88.8909 116.429C88.446 116.779 89.5646 116.236 89.7377 116.095ZM90.8444 117.017C91.2766 116.612 89.2096 117.694 89.7012 117.613C89.7291 117.609 90.8193 117.041 90.8444 117.017ZM57.2669 119.127C57.245 119.127 57.2191 119.199 57.2406 119.203C57.7597 119.273 57.8108 119.131 57.2669 119.127ZM91.9079 117.883C92.1896 117.733 91.8023 117.737 91.4543 117.927C91.1728 118.075 91.556 118.065 91.9079 117.883ZM76.1006 116.04C76.097 116.016 76.0363 115.998 76.0474 116.137C76.0841 116.581 76.1607 116.449 76.1006 116.04ZM92.551 120.051C92.5442 119.69 94.3579 119.008 94.2404 119.413C94.2195 119.488 93.61 119.434 93.4639 119.56C93.1987 119.794 94.3925 119.574 93.8091 119.896C93.7027 119.957 92.5475 120.074 92.5482 120.051C92.5491 120.051 92.5501 120.051 92.551 120.051ZM81.1331 114.585C81.1238 114.565 81.0406 114.574 81.0461 114.594C81.1824 115.101 81.3522 115.083 81.1331 114.585ZM72.918 114.745C72.9266 114.7 72.7777 114.61 72.7596 114.648C72.4071 115.433 72.7484 115.632 72.918 114.745ZM85.8559 111.49C85.7827 110.961 85.8804 110.865 86.1485 111.472C86.0487 111.467 85.9567 111.491 85.8559 111.49Z" fill="black"/>
</svg>
