<svg width="150" height="150" viewBox="0 0 150 150" fill="none" xmlns="http://www.w3.org/2000/svg">
<path d="M81.1875 75.0026C79.7617 75.0982 77.962 74.8972 76.5656 74.6667C76.1375 74.595 76.3598 74.3067 76.058 74.2444C75.4705 74.1233 74.9211 74.2611 74.3381 74.1225C74.142 74.0752 74.3896 73.6148 74.1829 73.5758C73.0734 73.366 72.0234 73.485 70.8912 73.3952C65.635 72.9795 60.4504 72.9821 55.1004 73.0686C55.0251 73.0608 55.0053 73.0592 55.0231 73.0401C55.05 73.0185 55.129 72.907 55.0779 72.8865C55.0336 72.8635 54.893 72.9737 54.7699 73.2105C54.5123 73.686 54.3665 74.5466 54.4714 75.339C54.4959 75.5263 54.8996 75.4069 54.9336 75.4416C55.4608 75.9685 54.638 75.8173 54.5522 76.2032C54.4569 76.652 54.4157 77.1361 54.419 77.6241C54.4249 78.7991 54.7027 79.9764 55.1174 80.9833C55.3714 81.5865 55.9475 80.726 55.7118 81.4786C55.6969 81.5315 55.2361 81.5065 55.2481 81.6917C55.2732 82.11 55.6142 82.8206 55.7006 83.127C55.8655 83.7255 55.9105 83.8195 56.1415 84.358C56.4562 85.0955 56.6935 86.0623 57.1981 86.798C57.3063 86.9533 57.5781 86.527 57.785 86.7528C57.9925 86.9827 58.345 87.6903 58.3932 87.9813C58.4377 88.2685 58.0798 88.3411 58.0348 88.4225C57.653 89.1068 58.9388 89.4581 59.0224 89.5536C60.1246 90.8601 60.7806 92.2921 61.3925 94.0625C61.7393 95.0089 61.805 96.1138 61.4884 97.1628C61.2442 97.9932 60.7429 98.7576 60.131 99.3111C58.9681 100.395 57.6474 101.165 56.4363 101.636C54.4718 102.379 52.8031 102.518 51.0146 102.943C50.8238 102.986 51.1546 103.447 50.9199 103.502C48.4433 104.068 46.0452 104.382 43.6278 104.466C43.3864 104.474 43.6083 103.971 43.3616 103.952C41.8563 103.838 39.3609 103.435 38.9734 105.569C38.0071 105.711 36.854 105.925 35.9082 105.78C35.2987 105.688 35.6843 105.058 35.0771 105.458C34.9405 105.548 35.26 105.906 35.0475 106.01C34.4514 106.302 33.7824 106.489 33.1557 106.75C33.0069 106.819 32.9429 106.913 33.0223 106.946C33.0739 106.962 33.3525 107.233 33.4211 107.263C33.7251 107.37 33.8514 106.967 33.7074 106.745C33.5757 106.508 33.3007 106.503 33.2707 106.505C33.1375 106.503 33.0832 106.633 33.0775 106.726C33.2271 107.316 33.7662 107.803 34.3294 108.399C34.5055 108.584 34.6689 108.003 34.8506 108.165C35.8021 109.017 36.8668 109.96 37.8008 110.987C38.0105 111.218 37.5132 111.395 37.6004 111.524C37.9871 112.085 38.6213 111.509 39.002 112.023C39.085 112.132 38.7974 112.393 38.7916 112.441C38.7056 113.197 39.5228 112.642 39.6126 112.682C40.7667 113.18 40.8532 114.435 41.9127 115.011C42.0414 115.08 42.0513 114.498 42.3956 114.715C44.6738 116.147 46.9642 117.857 48.9686 119.688C49.2801 119.971 48.83 120.104 48.8266 120.155C48.7878 120.973 49.5464 120.358 49.6766 120.404C50.7064 120.798 51.097 122.014 52.3258 121.505C53.5659 122.518 54.8722 123.432 56.1795 124.344C58.5114 125.97 60.9284 127.272 63.3041 128.935C63.3511 128.967 63.086 129.356 63.1813 129.418C64.3466 130.153 64.3642 129.385 65.4672 128.843C65.7362 128.703 66.0424 129.911 66.0842 130.003C66.2102 130.341 65.7919 130.93 65.8465 131.004C66.3213 131.599 66.8576 129.398 67.6199 129.603C67.6432 129.613 67.4351 129.989 67.4895 130.047C67.6603 130.226 67.8983 130.116 68.0672 130.305C68.4471 130.738 68.3752 131.855 69.2389 131.379C69.3461 131.314 69.4653 130.032 70.1486 130.221C70.4243 130.303 71.6677 130.474 72.0059 130.594C72.3482 130.72 72.0567 131.102 72.0792 131.122C72.98 131.778 72.587 131.96 73.0116 132.817C73.4478 133.667 73.4674 131.732 73.6799 131.533C73.8924 131.336 74.5755 131.831 74.7458 131.994C74.9173 132.16 74.6817 132.413 74.8377 132.509C75.8777 133.13 75.3314 131.569 75.6788 131.274C76.4844 130.567 77.0893 131.993 77.8522 132.113C78.0547 132.145 77.8811 131.825 78.0579 131.789C78.7553 131.648 79.2128 132.071 79.9841 131.606C80.119 131.53 80.6776 130.623 81.1582 131.21C81.2262 131.294 81.0913 131.666 81.3998 131.716C81.8599 131.792 82.6914 131.776 83.1555 131.597C83.5067 131.464 83.0205 130.934 83.4942 131.058C83.7037 131.113 83.3787 131.501 83.7689 131.576C84.1628 131.651 85.119 131.503 85.4852 131.438C85.8503 131.375 85.5869 130.962 85.6126 130.928C85.6576 130.871 85.7463 130.804 85.8496 130.738C86.0268 130.59 86.1615 130.426 86.1826 130.418C87.5872 130.009 88.4485 126.268 87.8113 123.494C87.7633 123.264 87.317 123.478 87.3049 123.444C87.0039 122.683 88.3267 123.136 88.6586 122.51C87.7277 122.733 87.8521 122.374 87.6529 121.829C87.5557 121.567 87.2177 121.778 87.1762 121.76C86.5549 121.461 87.2135 121.056 87.3449 120.955C87.8285 120.584 87.1383 120.42 87.4574 120.166C87.7728 119.91 88.3864 120.223 88.2637 119.676C87.8976 119.596 87.1119 120.182 86.883 119.806C86.0352 118.401 85.9391 115.401 85.6206 114.162C85.312 112.924 85.1213 112.564 84.998 111.819C84.9881 111.759 84.9777 111.704 84.967 111.653C84.7246 110.579 84.2824 111.17 83.7301 110.56C83.1395 109.916 84.7932 109.662 85.0714 109.418C85.3486 109.174 84.9664 109.192 85.0865 108.982C85.2067 108.771 85.5497 108.974 85.4819 108.626C85.4131 108.276 84.4737 107.648 84.0892 107.673C83.2734 107.727 82.6857 108.443 82.596 107.463C82.5917 107.406 83.0538 107.409 83.0173 107.202C82.8579 106.288 82.587 105.407 82.4987 104.378C82.4815 103.962 82.4546 103.495 82.7459 102.987C83.0715 102.436 83.7178 102.371 84.0851 102.426C84.3274 102.46 84.1244 102.941 84.2502 102.969C84.5401 103.042 84.7447 103.078 84.8992 103.055C85.4098 102.982 85.3229 102.34 85.9215 101.7C85.6693 102.869 86.0178 103.632 87.0481 103.694C87.6623 103.728 87.5839 103.205 87.9877 102.855C88.1077 102.749 88.5307 103.117 88.6135 102.875C88.8869 102.083 88.5069 101.188 89.5188 101.556C89.5635 101.573 89.4167 102.008 89.572 102.036C90.5806 102.212 90.6956 101.378 91.7628 101.249C92.5973 101.147 94.1215 101.567 95.0925 101.554C95.1933 102.886 96.103 102.487 96.3564 101.527C96.983 101.49 97.6417 101.343 98.2577 101.368C98.47 101.376 98.4002 101.779 98.433 101.816C98.9466 102.393 99.063 101.459 99.1852 101.4C100.537 100.789 101.886 101.145 102.97 100.065C103.009 100.025 102.763 99.1322 103.329 99.6409C103.37 99.6749 103.101 100.231 103.707 100.031C104.299 99.8416 105.662 99.7521 106.149 98.8965C106.15 98.8936 106.152 98.8906 106.153 98.8875C106.282 98.6584 106.232 97.8086 106.886 98C106.979 98.0245 107.11 98.2634 107.269 98.3196C107.794 98.477 107.221 97.7305 108.014 98.0349C108.573 98.2381 109.256 98.1491 109.591 97.5717C109.738 97.3154 109.799 96.9718 109.711 96.611C109.705 96.5616 109.03 96.1899 109.056 95.9285C109.106 95.5261 109.167 94.9273 109.057 94.4598C109.046 94.4115 109.034 94.3645 109.021 94.3194C108.953 94.0939 108.553 94.3702 108.533 94.3336C107.835 92.9748 107.705 91.8386 106.96 90.2874C106.824 90.0022 105.815 89.6164 105.871 88.8475C105.919 87.9926 108.17 87.2072 106.764 86.2546C106.183 85.8597 103.485 87.0831 103.901 85.2853C102.218 83.898 101.394 81.9317 99.4922 80.7695C99.406 80.7161 98.6266 81.0701 98.472 80.9013C98.2437 80.6498 98.3795 80.2578 98.2223 80.0685C97.5805 79.2794 96.6927 78.8673 96.0257 78.155C95.77 77.8833 96.1394 77.7017 95.831 77.3742C95.531 77.0551 94.9658 77.2189 94.7053 76.6213C94.6751 76.5501 94.6606 76.4639 94.6565 76.3676C94.6547 76.3656 94.6483 76.3606 94.6461 76.3589C94.5354 75.8542 94.6288 75.0026 94.2564 74.6296C93.6637 75.4707 93.3326 75.2193 92.5697 75.0526C92.423 75.0213 92.357 75.4039 92.2779 75.4048C91.9534 75.4164 91.901 75.0332 91.5783 75.0696C91.5002 75.078 91.3134 75.3753 91.2397 75.3995C90.6092 75.617 90.4143 74.584 90.3749 74.4028C90.2331 73.7161 89.8143 74.004 89.6026 73.6502C89.3879 73.2959 89.9846 73.3326 89.675 73.0187C89.0304 72.367 87.9928 71.8955 87.1917 71.4965C86.8707 71.3389 86.8902 71.8673 86.8396 71.8545C86.1319 71.6495 85.6474 70.8921 84.9095 71.5933C85.3791 69.1733 84.4155 71.6319 83.6378 70.8083C83.5768 70.743 83.8832 69.6374 84.2468 69.5985C84.6115 69.5606 84.9327 70.0742 85.4468 70.0083C85.5659 69.9908 86.5582 69.2549 86.6653 69.2326C87.4872 69.0444 86.859 70.6373 86.8498 70.7354C86.775 71.813 87.9299 71.0918 88.1465 71.1116C89.117 71.1858 89.6845 71.7588 90.4696 71.8961C90.9823 71.9891 91.5776 71.043 91.9058 71.271C92.9999 72.0402 92.5447 73.5921 94.3068 73.1197C94.6844 73.0233 95.1401 71.8557 95.4064 73.1894C95.4258 73.2746 95.5091 74.3941 96.159 74.1738C96.1736 74.1689 96.192 74.1557 96.2128 74.1374C96.2848 74.193 96.4958 74.3584 96.558 74.4248C96.6648 74.3542 96.8419 74.1843 96.8952 74.202C97.3292 74.3555 97.3353 74.756 97.7668 74.984C98.1943 75.208 98.7491 75.4611 99.0489 75.9183C99.238 76.2012 99.0709 76.9625 99.0732 77.191C99.0614 77.8311 99.9398 77.6172 99.7376 78.2123C99.5358 78.812 98.5467 79.0514 98.8027 79.8194C99.4707 79.1795 100.181 78.5469 100.865 77.9158C101.984 79.0667 102.883 80.4072 104.024 81.5749C104.166 81.7193 104.389 81.229 104.552 81.3763C105.237 82.0027 105.513 82.8406 106.249 83.4832C106.82 83.9795 107.757 84.287 108.364 84.848C107.834 85.884 108.835 86.6128 109.256 87.4076C109.403 87.6835 109.155 87.8218 109.201 88.0569C109.369 88.9383 109.942 88.1077 110.191 88.2246C111.266 88.7734 109.494 89.9175 110.072 90.9103C110.097 90.9476 111.46 91.1779 111.57 91.2638C112.284 91.7582 111.261 91.5319 111.358 91.9787C111.487 92.6117 111.473 93.1347 111.713 93.7443C111.793 93.9603 111.893 94.1926 112.016 94.4647C112.177 94.7645 112.989 95.7597 112.322 96.5887C112.236 96.6899 111.875 96.577 111.841 96.6574C111.416 97.6388 111.685 98.0933 111.891 98.7288C111.991 98.9794 112.071 99.2491 112.029 99.5545C111.874 100.609 110.363 101.012 110.064 100.958C109.228 100.918 110.206 100.468 110.185 100.386C109.919 99.6362 109.479 100.306 109.023 100.607C108.212 99.7975 107.741 100.253 108.557 100.913C108.65 100.985 108.907 100.641 109.023 100.607C109.294 101.447 109.004 102.06 108.342 102.155C108.081 102.195 107.759 102.16 107.397 102.032C106.801 101.801 106.843 101.146 105.928 101.85C105.508 102.156 106.022 102.789 105.672 103.181C104.852 104.08 103.295 103.821 102.325 104.2C101.968 104.339 102.439 104.661 102.196 104.771C101.538 105.064 100.875 104.882 100.23 105.182C100.171 105.21 100.411 105.624 100.2 105.672C98.5898 106.04 97.1526 105.945 95.493 106.096C94.692 106.172 93.2726 106.516 92.4374 106.495C90.9853 106.472 89.2324 105.811 88.013 105.927C87.2165 106.002 87.3676 106.459 87.009 106.752C86.3027 107.32 85.1898 106.161 85.0491 105.98C85.0459 105.975 85.7418 105.923 85.3947 105.662C85.2202 105.162 85.0577 105.979 85.0491 105.98C85.0184 105.942 84.8541 105.894 84.6392 105.847C84.4411 105.798 84.2525 105.766 84.2325 105.761C84.1973 105.759 84.4068 105.749 84.5617 105.727C84.8138 105.691 84.8317 106.141 85.0111 106.083C85.3632 105.964 85.8658 105.632 86.1839 105.217C86.5091 104.805 86.6425 104.426 86.7117 104.197C86.8356 103.733 86.8209 103.688 86.8655 103.703C87.0286 103.907 87.4987 105.166 87.8065 106.244C87.81 106.275 87.3491 106.418 87.363 106.489C87.5504 107.492 88.3544 107.87 89.0174 108.581C89.4332 109.028 89.6576 109.516 89.6196 110.039C89.5813 110.304 89.4561 110.585 89.2282 110.873C89.5394 111.468 89.481 112.484 89.4299 113.075C89.3748 113.651 90.2931 113.463 90.3249 113.504C91.3203 114.787 91.0392 115.782 91.3331 117.331C91.4733 118.069 91.9264 119.503 92.1756 120.307C92.3771 120.942 92.227 121.37 92.4577 121.958C92.4885 122.038 92.888 121.893 92.9076 121.916C93.501 122.537 92.4442 122.348 92.2841 122.513C91.6963 123.116 91.3892 123.452 91.7769 124.304C91.8658 124.496 93.372 125.009 93.4726 125.43C93.5985 125.955 93.07 125.771 93.2017 126.334C93.2117 126.383 93.5382 126.37 93.5188 126.729C93.368 128.429 93.2194 130.395 91.6589 133.003C91.4212 133.355 92.1748 133.183 91.7948 133.729C90.8019 135.233 88.527 136.588 86.6919 136.721C86.1475 136.764 85.5709 136.783 85.0243 136.754C84.7053 136.735 84.852 136.352 84.7703 136.256C84.2701 135.671 83.7995 136.677 83.7009 136.707C81.3813 137.442 79.4355 136.758 76.9297 137.187C76.7973 137.214 75.7046 138.216 75.245 137.334C75.2119 137.275 74.7789 136.377 74.336 136.959C74.3075 136.995 74.5796 137.466 74.0677 137.392C73.5558 137.318 72.6902 137.557 72.0305 136.984C71.8214 136.803 71.4038 135.871 70.6577 136.476C70.6189 136.523 69.3241 137.934 69.1364 136.783C69.109 136.593 69.3702 135.467 68.4886 135.902C68.3166 135.985 68.5395 136.295 68.11 136.372C67.4418 136.49 66.7129 136.004 65.842 136.308C65.6947 136.365 64.9095 136.968 64.6356 136.263C64.5931 136.153 64.8335 135.82 64.6146 135.71C63.5729 135.181 62.3605 135.033 61.373 134.351C61.0303 134.112 61.4571 133.61 61.1346 133.295C60.8053 132.979 60.1191 132.501 59.5997 132.572C59.0788 132.643 59.0902 133.754 58.4527 133.538C56.1528 132.741 54.2517 131.208 52.4303 129.718C52.0779 129.424 51.7232 129.14 51.3597 128.869C51.0529 128.641 51.1093 129.115 50.6442 128.801C48.9347 127.649 45.7894 125.914 44.7131 124.265C43.8594 122.95 45.6227 123.589 44.8494 122.764C44.4679 122.362 43.3431 123 43.2127 122.956C41.9581 122.55 41.5147 121.624 40.4854 121.107C40.2695 120.997 40.1959 121.518 40.0152 121.421C39.3994 121.095 38.9201 120.506 38.3558 120.157C38.0991 119.999 37.9377 120.325 37.7289 120.144C37.2273 119.714 36.8401 119.252 36.5063 118.596C36.4768 118.537 37.0596 118.407 36.6729 118.107C36.0423 117.618 35.4493 116.769 34.4983 116.472C34.2178 116.387 33.7064 117.031 33.5762 116.21C33.5474 116.036 34.2944 115.373 33.2074 115.595C33.0303 115.637 31.3613 115.758 31.3663 114.775C31.3752 114.524 31.5941 113.642 31.2518 113.499C31.2019 113.48 31.0489 113.939 30.798 113.766C29.9105 113.132 29.1021 112.271 28.1494 111.23C27.8867 110.933 27.8699 111.691 27.4791 111.215C27.2555 110.938 27.0104 110.584 26.7887 110.193C26.1878 109.092 25.7392 107.775 25.8925 105.994C26.007 104.209 27.2166 102.304 28.3257 101.501C29.3499 100.759 28.8845 101.608 28.9881 101.574C30.405 101.38 30.4836 100.481 30.8088 100.284C30.8296 100.273 30.8504 100.262 30.8713 100.251C31.706 99.646 32.5488 99.8108 33.3748 99.4481C33.607 99.3482 33.3144 98.9858 33.3515 98.9347C33.7467 98.4281 33.5912 99.279 33.9286 99.2702C34.875 99.2494 35.8373 98.9623 36.7092 98.6964C37.0293 98.5983 36.5475 98.2 36.8373 98.1177C38.5515 97.6223 40.356 97.313 42.0466 97.2844C42.3642 97.2801 42.2391 97.6937 42.3189 97.7684C42.8718 98.2922 43.3642 97.3542 43.5006 97.2493C44.1111 96.7721 44.4286 97.0625 45.0023 96.8988C47.8096 96.0962 51.2172 95.7277 53.2096 95.146C54.3578 94.8247 55.1629 94.4974 55.6501 94.1939C55.0667 94.7062 54.8468 96.0192 55.2063 96.6187C55.0455 96.161 54.7298 95.5424 54.3185 94.8698C54.2159 94.7012 53.87 95.1269 53.7767 94.9867C52.5608 93.1294 51.3505 90.824 50.0447 88.4433C49.9377 88.2463 49.6408 88.7494 49.4532 88.4359C49.0648 87.7933 48.6987 86.8946 48.558 86.1174C48.4891 85.7398 49.06 86.054 48.9853 85.6816C48.813 84.8109 48.5399 83.9178 48.2072 83.0693C48.0646 82.705 47.7546 83.4125 47.6061 82.922C47.1905 81.5456 46.861 80.1308 46.684 78.69C46.4636 76.6731 46.3543 74.5247 47.3092 71.8207C47.4351 71.4924 48.4585 71.4902 48.5245 70.7464C48.2829 70.5943 47.9749 70.4788 47.7057 70.346C48.1108 69.227 48.8653 67.8535 50.2326 66.7714C51.5887 65.6756 53.339 65.192 54.6808 65.1487C57.7042 65.0378 60.7115 65.094 63.7445 65.0407C63.9244 65.0374 63.5942 64.513 63.9481 64.504C65.9873 64.4519 67.9766 64.2623 70.0603 64.7716C70.2701 64.8215 70.177 65.7615 70.7838 65.6145C70.8842 65.5874 71.8129 65.4567 72.0428 65.2525C72.0744 65.2217 71.9083 64.7836 72.1994 64.77C73.9325 64.6988 75.7381 64.8124 77.4551 65.1125C77.7281 65.1618 77.4235 65.6231 77.6238 65.6624C79.0268 65.9367 80.5525 65.6273 81.8601 66.0951C82.7315 66.4088 82.3682 67.2049 82.8167 68.013C82.8705 68.1272 83.4121 68.1577 83.429 68.6195C83.4856 69.7832 83.1894 71.051 83.2797 72.2919C83.2893 72.5615 84.12 72.2783 83.6273 72.921C83.5769 72.9651 83.0051 73.169 82.8611 73.3832C82.759 73.5319 82.921 74.0065 82.7201 74.1948C82.5236 74.383 82.325 73.9828 82.0002 74.2001C81.6911 74.4206 81.7924 74.959 81.1875 75.0026ZM89.1599 115.691C88.856 116.285 90.4647 115.934 89.9425 115.511C89.9153 115.491 89.1745 115.661 89.1599 115.691ZM101.975 81.2739C101.898 82.24 102.975 81.8291 103.067 81.1108C103.152 80.3881 101.996 80.9793 101.975 81.2739ZM96.8831 76.9757C97.0244 77.9065 98.7264 76.3072 97.8237 76.0919C97.772 76.0791 96.8752 76.9219 96.8831 76.9757ZM80.64 68.1705C80.6395 68.1923 81.0451 68.2264 81.0513 68.205C81.2796 67.6895 80.4861 67.6222 80.64 68.1705ZM91.1282 73.4528C91.1696 73.8418 91.9331 73.8774 91.8868 73.3912C91.8469 72.997 91.0731 72.9652 91.1282 73.4528ZM77.8953 132.915C77.8871 132.891 77.6028 132.876 77.6113 133.015C77.641 133.461 78.0366 133.324 77.8953 132.915ZM80.6064 69.3757C82.3731 69.5161 82.9226 71.6008 81.3627 71.2049C81.0616 71.1423 82.061 70.6449 81.6907 70.4396C80.9672 70.0628 80.4628 71.2736 79.7046 70.6223C79.5651 70.5028 80.503 69.3617 80.6094 69.3731C80.6084 69.374 80.6074 69.3749 80.6064 69.3757ZM87.327 116.481C87.3087 116.496 87.3893 116.878 87.4124 116.882C87.9722 116.955 87.8087 116.178 87.327 116.481ZM62.1942 128.955C62.1939 128.907 61.4071 128.503 61.3621 128.526C60.5686 129.103 62.2004 129.945 62.1942 128.955ZM95.1109 101.588C95.4762 101.026 95.9465 100.912 96.3545 101.527C95.9407 101.542 95.528 101.581 95.1109 101.588Z" fill="black"/>
<path d="M60.9721 110.504C61.0315 109.753 61.4267 109.035 61.8194 108.526C61.9425 108.365 62.1868 108.553 62.283 108.451C62.4726 108.245 62.4097 107.988 62.6211 107.792C62.6919 107.73 63.0949 107.976 63.1578 107.911C63.5001 107.551 63.5419 107.085 63.787 106.697C65.0211 104.72 65.9681 102.751 66.9949 100.715C67.1271 100.455 67.3234 100.186 67.5214 99.8995C67.8118 99.4873 68.1136 99.0277 68.1855 98.5639C68.1999 98.4716 67.8045 98.3673 67.7802 98.3386C67.4117 97.8906 68.1335 98.2869 68.3025 98.1628C68.9665 97.6824 69.3038 96.9821 69.4263 96.3017C69.4783 96.0094 68.6247 95.9558 69.1543 95.8689C69.1902 95.8629 69.5571 96.099 69.6298 96.0465C69.7937 95.9273 69.8565 95.5893 69.943 95.476C70.1112 95.2601 70.127 95.213 70.2308 94.9884C70.3758 94.6834 70.7358 94.3971 70.7972 94.0181C70.8083 93.9386 70.3635 93.8533 70.3449 93.71C70.3264 93.5668 70.4945 93.2811 70.6351 93.2213C70.7757 93.1618 71.073 93.3466 71.1536 93.361C71.832 93.4874 71.1425 92.7535 71.1403 92.7022C71.1486 91.728 71.9482 91.2471 72.298 90.4784C72.5577 89.9048 72.688 89.2037 72.962 88.6687C73.2942 88.0227 73.7662 87.5751 74.0275 86.9188C74.0555 86.8498 73.5485 86.7092 73.5819 86.6243C73.9321 85.7326 74.3901 84.8924 75.1158 84.1774C75.1888 84.1064 75.5479 84.4123 75.6455 84.353C76.2333 83.9857 77.4432 83.5349 75.8015 82.3696C76.0418 82.0452 76.3221 81.6436 76.8353 81.4971C77.166 81.402 77.518 81.8163 77.448 81.4718C77.4328 81.3944 77.0052 81.281 77.012 81.179C77.0412 80.7496 77.3575 80.4165 77.3262 79.9629C77.319 79.8702 76.9584 79.7214 76.9051 79.6705C76.4762 79.2518 77.4606 79.3708 77.5522 79.3378C78.2401 79.0812 78.2275 78.6462 78.4529 78.2078C78.5054 78.1062 77.9756 78.0005 78.0092 77.8946C78.1901 77.3472 78.4882 76.8343 78.9407 76.4325C79.0427 76.3435 79.3937 76.6409 79.4629 76.6083C79.7631 76.4623 79.0312 76.0429 79.3045 75.8962C79.3611 75.8648 79.6913 76.0581 79.7332 76.0677C80.3907 76.2188 79.6097 75.6941 79.6082 75.6502C79.5695 75.0863 80.5832 75.2257 80.6665 74.7396C80.6756 74.681 80.1857 74.5848 80.2379 74.4329C80.584 73.417 81.1977 72.4615 82.0057 71.6874C82.1314 71.5656 82.4055 71.8304 82.4502 71.8407C83.1516 71.9958 82.3589 71.4871 82.3507 71.4236C82.3086 70.9323 83.1834 70.9299 82.3102 70.179C83.4418 68.7472 83.6623 66.8778 85.338 65.7301C85.3583 65.7149 85.7541 65.9543 85.7929 65.9232C86.2634 65.5518 85.5745 65.3299 84.9439 64.6268C84.7865 64.4483 85.8579 64.6658 85.938 64.6784C86.2335 64.7246 86.8084 65.1092 86.8712 65.107C87.3692 65.0782 85.3166 64.1145 85.4602 63.8203C85.4681 63.8128 85.8238 64.0352 85.8731 64.0288C86.0276 64.0097 85.9158 63.8611 86.0812 63.8501C86.4658 63.821 87.4857 64.2432 87.0399 63.6962C86.9815 63.6263 85.8023 63.1101 85.9856 62.8742C86.0179 62.8334 86.0755 62.7205 86.1411 62.5997C86.2293 62.4365 86.3314 62.2592 86.4102 62.2052C86.5499 62.1095 86.8773 62.3831 86.898 62.3816C87.5645 62.2678 87.7021 62.5029 88.5171 62.6841C89.3289 62.8649 87.5751 62.0628 87.4173 61.896C87.2602 61.7293 87.7918 61.6733 87.9635 61.6806C88.1353 61.6877 88.3331 61.882 88.4403 61.8659C89.1426 61.7563 87.6614 61.2817 87.4467 61.0254C86.9438 60.4074 88.3387 60.812 88.5958 60.6084C88.6653 60.5532 88.3445 60.4674 88.3489 60.3899C88.3701 60.0851 88.8447 60.1323 88.6189 59.6674C88.581 59.5938 87.9286 58.9752 88.57 59.1024C88.6622 59.1213 88.9505 59.3415 89.0764 59.2677C89.265 59.1576 89.48 58.9009 89.4594 58.6758C89.444 58.5093 88.8461 58.3925 89.0891 58.3143C89.1973 58.2798 89.439 58.5646 89.6166 58.4872C89.7944 58.4096 89.9465 58.0719 90.0047 57.9294C90.06 57.7921 89.6258 57.6647 89.6043 57.6406C89.4831 57.4988 89.4175 57.151 89.429 57.1293C89.9347 56.0018 91.1172 55.3282 91.4544 54.1233C91.4807 54.0305 91.034 53.8727 91.0337 53.8563C91.0057 53.4792 92.0012 54.2743 92.4753 54.2654C91.6125 53.8597 91.8266 53.8202 91.8357 53.5736C91.8406 53.452 91.4851 53.3366 91.456 53.3106C91.0341 52.9054 91.7307 53.1337 91.876 53.1751C92.4105 53.3267 91.8926 52.9266 92.2501 53.0277C92.6051 53.1278 93.0037 53.5238 93.0981 53.3258C92.8231 53.1149 91.9562 52.8508 91.9042 52.6366C91.6998 51.8398 92.871 51.1038 93.1675 50.6954C93.4694 50.2756 93.4883 50.1052 93.7325 49.9062C94.1753 49.545 93.5032 49.4013 93.3909 48.9667C93.2795 48.5307 94.6408 49.4371 94.9722 49.559C95.3027 49.682 95.0086 49.4684 95.2053 49.5079C95.4018 49.5477 95.5538 49.7685 95.6805 49.6839C95.8068 49.5999 95.43 48.9846 95.1323 48.7657C94.4976 48.3093 93.7005 48.0749 94.1245 47.8884C94.1493 47.878 94.4945 48.1397 94.5703 48.0898C95.1544 47.6972 95.4918 47.1157 96.0415 46.7163C96.1196 46.6582 96.4996 46.9555 96.5498 46.9243C97.0715 46.6044 96.2758 46.3868 95.6326 45.7054C96.6423 46.332 97.353 46.5452 97.5492 46.2039C97.6704 45.994 97.1965 45.7802 96.9523 45.4671C96.8787 45.3728 97.2717 45.3979 97.0733 45.2532C96.4254 44.7791 95.5698 44.4822 96.0771 44.3012C96.1004 44.294 96.4539 44.5555 96.5067 44.5151C96.8576 44.2411 96.1545 43.7911 96.2785 43.3649C96.3792 43.0245 97.119 42.7505 97.3871 42.449C98.5411 43.1181 98.4584 42.6484 97.7348 42.0622C97.889 41.87 97.9887 41.5943 98.2192 41.4513C98.2986 41.4011 98.6047 41.6429 98.646 41.6548C99.2924 41.846 98.5729 41.3038 98.5717 41.2363C98.5795 40.5483 99.4077 40.4811 99.1259 39.6615C99.1158 39.632 98.3385 39.1263 98.9972 39.3437C99.0421 39.3595 99.307 39.7372 99.4724 39.5253C99.6357 39.317 100.322 39.142 100.145 38.6103C100.102 38.4812 99.5819 37.8906 100.177 38.0455C100.257 38.067 100.47 38.2286 100.614 38.2768C101.074 38.4286 100.307 37.8883 101.055 38.1918C101.803 38.495 102.449 38.5833 102.179 37.9786C102.172 37.9602 101.589 37.4921 101.661 37.3998C101.775 37.2541 102.046 37.1123 102.146 36.9457C102.193 36.8661 101.771 36.6703 101.773 36.6522C101.887 35.9864 102.474 35.8305 102.982 35.3636C103.077 35.2781 102.735 34.6444 103.282 34.7112C103.881 34.784 105.645 36.2278 105.513 35.4308C105.465 35.1319 103.5 33.5523 104.435 33.6853L104.428 33.6952C104.496 33.7088 104.58 33.7324 104.68 33.7671C104.869 32.8698 105.945 32.6024 105.911 31.583C105.91 31.5369 105.266 31.046 105.316 30.9761C105.392 30.8714 105.757 30.9833 105.822 30.911C106.106 30.6109 105.976 30.1455 106.177 29.8249C106.253 29.702 106.585 29.907 106.676 29.7566C106.766 29.6043 106.343 29.299 106.66 29.1798C106.9 29.0912 107.935 29.3148 108.138 29.1279C107.184 28.7442 107.265 28.5996 107.111 28.2352C107.081 28.1654 106.725 28.0953 106.694 28.056C106.557 27.8943 106.869 27.9056 106.714 27.7436C106.677 27.7044 106.347 27.584 106.298 27.5456C106.277 27.529 106.258 27.5134 106.243 27.4985C106.245 27.4893 106.257 27.4636 106.26 27.4545C105.984 27.1455 106.752 27.1801 106.89 27.1914C107.443 27.2273 107.06 26.9646 107.306 26.9173C107.552 26.8715 107.7 27.1696 107.881 27.0711C108.256 26.868 108.388 26.4534 108.554 26.1504C108.618 26.0293 108.156 25.9075 108.155 25.8854C108.175 25.5738 108.749 25.5405 107.989 24.9759C110.231 25.8936 107.859 24.7143 108.479 24.5674C108.529 24.5563 109.559 25.0489 109.652 25.2337C109.745 25.4191 109.343 25.4192 109.499 25.6889C109.535 25.7532 110.388 26.4368 110.433 26.4918C110.781 26.929 109.237 26.203 109.147 26.1738C108.174 25.8598 109.087 26.6193 109.129 26.7171C109.314 27.1738 108.979 27.3266 109.105 27.6836C109.185 27.9164 110.201 28.3817 110.116 28.4901C109.978 28.668 109.543 28.6447 109.269 28.6909L109.304 28.5998C109.018 28.6837 108.906 28.8151 109.455 29.2937C109.686 29.4957 110.865 29.8352 109.826 29.8564C109.76 29.86 108.838 29.7991 109.288 30.1642C109.345 30.2106 109.674 30.346 109.691 30.3837C109.796 30.6343 109.485 30.6414 109.527 30.8865C109.567 31.1322 109.646 31.4501 109.433 31.6198C109.305 31.7235 108.627 31.6029 108.451 31.5914C107.949 31.555 108.54 32.0837 107.981 31.9311C107.423 31.7715 106.756 31.1805 106.297 31.2661C107.109 31.707 107.936 32.1737 108.748 32.6271C108.383 33.2456 107.77 33.6949 107.422 34.3037C107.38 34.3802 107.845 34.5765 107.809 34.6669C107.653 35.0484 107.164 35.1331 107.041 35.5456C107.038 35.5556 107.036 35.5659 107.033 35.5764L107.15 35.4031C107.115 35.7058 107.376 36.2249 107.332 36.5333C106.343 36.1168 106.414 36.6735 106.163 36.8866C106.076 36.9613 105.842 36.8027 105.722 36.8187C105.277 36.8826 106.139 37.2695 106.22 37.4164C106.563 38.0466 104.765 36.9305 104.59 37.3036C104.579 37.3243 105.392 38.1479 105.432 38.216C105.697 38.6542 105.081 38.0376 104.933 38.1143C104.663 38.2571 104.341 38.2614 104.456 38.6995C104.49 38.83 104.975 39.3794 104.422 39.2382C104.349 39.2198 104.04 39.0114 104.012 39.0154C103.525 39.1074 104.517 39.7316 104.755 40.1004C104.993 40.4682 104.15 40.2936 103.922 40.2195C103.328 40.0339 103.765 39.9839 103.718 39.9461C103.171 39.4923 103.163 39.7352 103.028 39.8425C102.037 39.2601 101.975 39.4931 102.89 39.957C102.99 40.0073 102.966 39.8427 103.028 39.8425C103.913 40.554 103.903 40.8457 102.863 40.5285C102.374 40.3824 101.947 39.9761 101.92 40.4273C101.907 40.6321 102.621 40.9798 102.725 41.2251C102.961 41.7855 102.09 41.8044 101.999 42.1862C101.965 42.3252 102.406 42.4315 102.396 42.5341C102.373 42.8029 101.987 42.8184 102.005 43.117C102.007 43.1442 102.426 43.3263 102.392 43.3955C102.149 43.9147 101.645 44.205 101.338 44.7238C101.185 44.9835 101.155 45.5428 100.957 45.7905C100.632 46.194 99.7359 46.4476 99.6619 46.9118C99.6091 47.2188 100.037 47.3823 100.246 47.6426C100.652 48.1461 99.5121 47.9935 99.337 47.9675C99.3315 47.9661 99.3586 47.6945 99.0901 47.7001C98.6273 47.5354 99.3365 47.964 99.337 47.9675C99.2263 47.9461 98.8867 48.3529 98.9196 48.4741C98.9357 48.5436 99.3272 48.7227 99.3285 48.7551C99.3469 49.5256 99.1262 50.1652 98.6235 50.68C98.61 50.6867 98.195 50.444 98.1687 50.4627C97.7931 50.7126 98.1974 51.2042 98.3512 51.659C98.5043 52.1152 98.2816 52.287 97.4634 52.0705C97.4419 52.3339 96.9539 52.479 96.6614 52.5607C96.3684 52.6433 97.1853 53.0995 97.1934 53.1238C97.4653 53.8813 96.8378 53.9276 96.4957 54.4069C96.3353 54.6268 96.2056 55.1739 96.1574 55.4916C96.1195 55.7455 95.8625 55.7662 95.8891 56.0215C95.8925 56.0559 96.2765 56.2197 96.2867 56.2349C96.6208 56.6755 95.7672 56.109 95.5827 56.0703C94.9118 55.93 94.5472 55.8695 94.6812 56.2913C94.7116 56.3884 95.9209 57.2435 95.9368 57.4012C95.9584 57.5986 95.5186 57.3043 95.5528 57.5179C95.5553 57.536 95.8457 57.68 95.7839 57.7702C95.5033 58.1853 95.0698 58.6244 94.8687 59.0955C94.8394 59.1608 95.3398 59.3103 95.305 59.4085C95.143 59.8653 94.8747 60.3574 94.4501 60.6683C94.3438 60.7447 94.0544 60.5187 93.9475 60.4934C93.2999 60.3424 94.0415 60.9606 94.0412 61.0013C94.0507 61.9933 92.9962 62.2047 92.9595 63.1918C92.9598 63.2449 93.6917 64.0375 92.8452 63.8008C92.7888 63.7853 91.9243 63.5398 92.4024 63.9366C92.4324 63.9614 92.8855 64.0712 92.7654 64.2101C92.6454 64.349 92.7909 64.7414 92.2325 64.7441C92.0565 64.7452 91.1828 64.5239 91.7091 65.0469C91.7299 65.0668 92.1343 65.397 92.3049 65.6212C92.4409 65.7953 92.4312 65.9035 91.972 65.7414C91.8007 65.6809 90.7689 65.1496 91.1797 65.6629C91.2596 65.7619 91.5349 65.7883 91.6177 65.9865C91.7464 66.2897 91.3369 66.419 91.6867 66.8795C91.7486 66.961 92.3692 67.4841 91.7626 67.3634C91.6676 67.3445 91.3406 67.1313 91.2648 67.1876C90.9003 67.4581 90.9524 67.94 90.5332 68.1856C90.3854 68.273 89.8557 67.931 89.6389 67.9918C89.4213 68.0543 89.145 68.251 89.3337 68.5159C89.5223 68.7815 90.4931 69.0688 90.4621 69.3132C90.3226 70.3846 89.3577 71.0218 88.8338 71.8961C88.7557 72.0263 89.1317 72.0707 89.0395 72.2742C88.7066 73.0136 88.3865 74.4295 87.3939 74.7327C86.5995 74.974 86.4962 74.1312 86.0841 74.4113C85.8864 74.5472 86.8296 75.2601 86.8403 75.3216C86.9558 75.9311 86.346 76.0087 86.2927 76.4782C86.2819 76.575 86.7442 76.7001 86.7303 76.7802C86.6866 77.0561 86.3753 77.216 86.2989 77.4608C86.2655 77.5713 86.5977 77.7096 86.5269 77.7918C86.3612 77.9904 86.1281 78.1244 85.7179 78.1983C85.6805 78.2051 85.3446 77.8739 85.2482 78.0345C85.0938 78.2936 84.6322 78.4841 84.7896 78.9457C84.8376 79.0833 85.5746 79.4448 84.968 79.3966C84.8413 79.3866 83.9795 78.9043 84.6342 79.5065C84.7428 79.6072 85.5891 80.4957 84.8302 80.3641C84.6304 80.3295 83.8419 80.107 83.9023 80.2735C83.9132 80.2974 84.3395 80.4288 84.3336 80.5397C84.3061 80.9275 84.1 81.2465 84.0636 81.6401C84.0547 81.7456 84.5297 81.811 84.5033 81.9618C84.4314 82.3768 84.1076 82.7819 83.8075 83.0769C83.6961 83.1853 83.399 82.9307 83.3573 82.9225C82.6802 82.787 83.4507 83.2688 83.4737 83.3426C83.6056 83.7966 83.1069 83.8559 83.068 84.1973C83.0562 84.291 83.4721 84.4195 83.499 84.4522C83.7577 84.7808 83.1195 84.3229 82.9921 84.3918C82.633 84.5832 82.5063 84.9289 82.4132 85.2522C82.3796 85.3712 82.8892 85.4624 82.8539 85.5666C82.6539 86.1863 82.3213 86.7752 81.8035 87.2258C81.7052 87.3103 81.3895 87.0785 81.2996 87.0633C80.6715 86.9542 81.3214 87.5404 81.3691 87.6263C81.5868 88.0189 81.236 87.9656 81.1951 88.2013C80.9996 89.3569 80.207 90.5204 79.634 91.4266C78.8922 92.6024 78.1081 93.4351 77.6533 94.6707C77.6237 94.7497 78.1247 94.8831 78.1052 94.9538C77.8348 95.8517 77.2826 96.5973 77.0407 97.5131C77.0204 97.587 77.5082 97.6825 77.4907 97.8074C77.4583 98.064 77.3082 98.341 77.0643 98.5134C76.9466 98.5969 76.6313 98.2787 76.5206 98.3663C76.2609 98.572 76.1118 98.8295 76.0627 99.1404C76.0439 99.2707 76.5751 99.2906 76.5153 99.4442C76.1252 100.478 75.7822 101.516 74.7758 102.298C74.7069 102.351 73.7463 102.038 73.8668 102.258C74.1222 102.373 74.4282 102.494 74.704 102.609C74.6923 102.651 74.6802 102.692 74.668 102.733C74.1962 104.275 73.3157 105.617 72.6996 107.091C72.6729 107.155 73.2147 107.233 73.1658 107.358C72.8856 108.074 72.7654 108.818 71.9986 109.37C71.9245 109.422 71.0541 109.066 71.1083 109.333C71.1174 109.383 71.1228 109.737 71.2822 109.897C71.307 109.919 71.7411 110.008 71.7155 110.117C71.5634 110.739 71.2501 111.333 70.8054 111.824C70.7328 111.904 70.3228 111.656 70.2662 111.714C69.8718 112.119 70.0509 112.736 69.5435 112.995C69.206 113.16 68.4467 112.872 67.6406 112.831C67.5254 112.83 67.4843 112.95 67.0283 112.882C65.8713 112.757 64.6367 112.414 63.4037 112.277C63.2701 112.273 63.2495 112.408 63.1907 112.623C63.1354 112.858 63.039 113.078 62.7393 112.572C62.7193 112.536 62.6777 112.311 62.6152 112.164C62.5521 112.012 62.4693 111.876 62.3717 111.807C62.2372 111.71 61.7523 111.732 61.5904 111.561C61.4294 111.389 61.8437 111.346 61.6639 111.128C61.4844 110.901 60.9465 110.839 60.9721 110.504ZM95.3614 52.9139C94.8752 52.8752 96.3219 53.6589 96.0673 53.2954C96.0533 53.2769 95.3854 52.9154 95.3614 52.9139ZM106.706 33.0365C105.95 32.8825 106.754 33.6054 107.332 33.7393C107.914 33.8647 106.938 33.0785 106.706 33.0365ZM107.525 30.349C106.88 30.3844 108.971 31.42 108.688 30.9055C108.673 30.8757 107.563 30.3462 107.525 30.349ZM67.6134 112.052C67.5911 112.05 67.5313 112.18 67.5517 112.188C68.0338 112.401 68.1506 112.149 67.6134 112.052ZM107.966 27.7267C107.64 27.6854 107.877 28.0627 108.282 28.1126C108.606 28.1546 108.37 27.7818 107.966 27.7267ZM89.319 60.9575C89.2957 60.9493 89.2268 61.0387 89.3519 61.0982C89.7553 61.2894 89.7106 61.0957 89.319 60.9575ZM109.847 23.8656C109.468 24.3791 107.579 23.8308 108.107 23.3033C108.203 23.209 108.517 23.8381 108.748 23.7763C109.166 23.666 108.199 22.9132 108.914 22.9574C109.044 22.9676 109.871 23.8394 109.849 23.8679C109.848 23.8671 109.847 23.8664 109.847 23.8656ZM93.5579 52.0993C93.5369 52.0925 93.4476 52.2196 93.465 52.2329C93.89 52.5476 94.07 52.292 93.5579 52.0993ZM85.56 66.2986C85.5148 66.2854 85.321 66.5818 85.3541 66.6113C86.0399 67.1523 86.4342 66.5538 85.56 66.2986ZM97.4211 42.4613C97.0496 42.0528 97.0965 41.8471 97.7338 42.0625C97.6214 42.1875 97.5334 42.3302 97.4211 42.4613Z" fill="black"/>
<path d="M97.6785 13.4407C98.118 13.5542 98.1317 13.7678 98.1044 14.0088C98.0933 14.0825 97.9024 14.3035 97.8849 14.3634C97.8508 14.4801 97.9687 14.3907 97.9162 14.5211C97.8975 14.5651 97.6007 14.9192 97.5873 14.9568C97.5163 15.1605 97.6362 15.1056 97.6236 15.2213C97.6123 15.3287 97.6035 15.4244 97.6011 15.5143C97.5856 15.8994 97.6579 16.15 97.7169 16.4228C97.7412 16.5333 97.5518 16.922 97.7401 16.8416C97.7622 16.8317 98.02 16.5188 98.0431 16.4946C98.3986 16.1255 97.8605 16.7421 97.8057 16.8382C97.5905 17.2188 97.6337 17.3049 97.7953 17.2374C97.8649 17.2079 98.3641 16.5753 98.0951 16.94C98.077 16.9647 97.7901 17.2857 97.767 17.3264C97.7152 17.4181 97.7951 17.3853 97.7851 17.4217C97.7645 17.4936 97.7708 17.4933 97.7896 17.516C97.8129 17.5499 97.709 17.743 97.8047 17.6968C97.8261 17.6861 98.1059 17.3447 98.1662 17.2975C98.2262 17.2504 98.2316 17.3046 98.1729 17.3914C98.1144 17.4784 97.8828 17.7366 97.8324 17.7981C97.4063 18.3168 98.0494 17.6445 98.069 17.6311C98.4052 17.4046 98.1243 17.8622 98.199 17.9257C98.2557 17.9725 98.4311 17.8941 98.4682 17.9588C98.5113 18.0372 98.4065 18.2638 98.4941 18.2866C98.5031 18.2895 98.8401 17.8949 98.8518 17.8977C98.9762 17.9275 99.0216 18.0438 98.871 18.3791C98.8556 18.4131 98.5409 18.7427 98.5073 18.7969C98.3079 19.1209 97.785 19.8601 99.1422 18.4134C99.1246 18.5018 99.1132 18.5993 98.8752 18.9231C98.7222 19.1317 98.3703 19.4825 98.5364 19.3472C98.5734 19.3171 98.858 18.9885 98.8916 18.9678C99.033 18.8812 98.9754 19.0197 99.1603 18.8843C99.1987 18.856 99.4586 18.5661 99.5077 18.516C99.9063 18.1108 99.3027 18.8307 99.2626 18.8866C98.9653 19.3038 99.1332 19.186 99.1673 19.2339C99.1749 19.2451 99.5162 18.8484 99.5362 18.8453C99.6066 18.8377 99.6376 18.8756 99.6114 18.9746C99.6004 19.0154 99.5795 19.0668 99.5476 19.1297C99.5224 19.1784 99.2113 19.4976 99.1839 19.5377C99.0664 19.7103 99.6408 19.0952 99.5395 19.249C99.5188 19.2806 99.258 19.559 99.2305 19.5906C98.7981 20.0864 99.4403 19.4111 99.4576 19.399C99.6901 19.231 99.0574 19.9707 99.1913 19.907C99.208 19.8986 99.5247 19.5342 99.5516 19.5324C99.7327 19.5184 99.7398 19.7061 99.5655 20.0716C99.5388 20.1279 99.2812 20.3834 99.2515 20.4168C98.7885 20.9399 99.437 20.2653 99.4656 20.2439C99.6749 20.0924 99.1711 20.6956 99.9585 19.9063C99.8446 20.3301 100.428 20.0211 99.8853 20.8842C99.8791 20.8943 99.5566 21.2235 99.5457 21.2423C99.4114 21.472 99.899 20.9474 100.537 20.3453C100.697 20.1943 99.9858 20.9777 99.9339 21.0354C99.7429 21.248 99.2593 21.734 99.2233 21.7762C98.9415 22.108 100.513 20.4738 100.542 20.5004C100.54 20.504 100.246 20.8004 100.22 20.8325C100.136 20.9331 100.259 20.8209 100.166 20.931C99.9512 21.1857 99.1897 21.9819 99.6601 21.5449C99.7212 21.4882 100.612 20.5604 100.594 20.6281C100.586 20.6557 100.646 20.6825 100.6 20.7543C100.554 20.8259 100.256 21.1145 100.245 21.1282C99.8949 21.5524 99.7237 21.7028 99.173 22.299C98.624 22.8927 99.9666 21.5092 100.124 21.3617C100.28 21.2147 99.9878 21.5612 99.8836 21.6792C99.7794 21.7972 99.588 21.9784 99.5309 22.047C99.1579 22.4955 100.215 21.378 100.441 21.1706C100.975 20.6801 99.9948 21.7209 99.9204 21.8442C99.9004 21.8775 100.123 21.6402 100.151 21.6242C100.255 21.5641 99.9561 21.8955 100.27 21.6304C100.321 21.5871 100.947 20.9972 100.517 21.4595C100.455 21.5261 100.199 21.774 100.153 21.8404C100.083 21.9399 100.054 22.0212 100.154 21.9523C100.228 21.9012 100.628 21.4712 100.514 21.6153C100.463 21.6796 100.209 21.9114 100.134 22.0118C100.059 22.112 100.1 22.1323 100.121 22.1357C100.141 22.1387 100.449 21.8168 100.471 21.7964C100.598 21.6803 100.772 21.5508 100.774 21.5532C100.914 21.6169 100.475 22.2397 100.749 22.1633C100.77 22.1577 101.099 21.8223 101.106 21.8181C101.272 21.7063 100.363 22.5634 100.084 22.8754C100.759 22.2029 100.647 22.335 100.74 22.2803C100.786 22.2534 101.043 21.9893 101.071 21.9636C101.483 21.5835 100.977 22.1013 100.874 22.2077C100.495 22.5989 100.963 22.1569 100.71 22.4185C100.458 22.6781 100.063 23.0401 100.085 23.0532C100.333 22.8189 100.955 22.1802 101.072 22.0926C101.512 21.7604 101.109 22.3488 101.096 22.4401C101.085 22.532 101.143 22.5016 101.078 22.6118C100.961 22.811 101.42 22.3341 101.664 22.1508C101.907 21.9673 100.726 23.0869 100.479 23.3343C100.232 23.5815 100.494 23.335 100.36 23.4735C100.227 23.6119 100.046 23.7674 100.005 23.8284C99.9638 23.8894 100.44 23.4867 100.707 23.2365C101.272 22.7062 101.843 22.1269 101.667 22.3556C101.656 22.3691 101.343 22.6608 101.318 22.6974C101.132 22.979 101.168 23.046 101.008 23.2997C100.985 23.335 100.636 23.6582 100.619 23.6825C100.44 23.9361 101.005 23.3652 101.672 22.7725C100.81 23.5878 100.298 24.1032 100.323 24.1398C100.338 24.1622 100.71 23.8008 100.986 23.5612C101.069 23.489 100.825 23.7485 101.004 23.5828C101.588 23.0412 102.221 22.4123 101.997 22.6918C101.986 22.7049 101.666 23.001 101.651 23.0244C101.558 23.1771 102.166 22.6067 102.274 22.5739C102.358 22.5478 102.038 22.9482 102.008 23.0374C101.039 23.9538 101.289 23.7739 101.97 23.1548C101.962 23.2021 102.021 23.1886 101.948 23.2961C101.923 23.3328 101.638 23.5931 101.608 23.6227C101.144 24.085 101.804 23.4804 101.834 23.4609C102.128 23.2761 101.672 23.7814 102.199 23.3745C102.218 23.3598 102.897 22.729 102.415 23.2042C102.382 23.2368 102.06 23.5096 102.056 23.5539C102.053 23.5983 101.729 23.9789 102.072 23.7167C102.154 23.6536 102.722 23.1597 102.307 23.5758C102.25 23.6322 102.054 23.8112 101.948 23.9149C101.612 24.2455 102.302 23.6121 101.73 24.1652C101.158 24.7183 100.742 25.1462 101.172 24.8029C101.185 24.793 101.735 24.2951 101.736 24.3128C101.736 24.3414 101.643 24.4686 101.662 24.4815C101.671 24.4876 102.004 24.1693 102.012 24.1649C102.25 24.0424 101.982 24.3575 101.903 24.5344C101.887 24.5674 102.377 24.1712 102.03 24.5278C101.649 24.918 99.9641 26.4286 100.405 26.1118C100.582 25.985 102.72 24.0693 101.657 25.111C101.994 24.9327 101.491 25.5107 101.944 25.2262C101.964 25.2137 102.565 24.6843 102.564 24.6992C102.561 24.7224 102.29 24.9806 102.279 25.0051C102.226 25.1145 102.491 24.9298 102.483 24.9951C102.481 25.0194 102.19 25.2753 102.187 25.3042C102.184 25.3329 102.571 25.0003 102.406 25.1853C102.281 25.3262 101.521 26.0403 101.449 26.1413C102.212 25.4526 102.208 25.4804 102.432 25.3228C102.475 25.2922 102.736 25.0474 102.77 25.0206C102.915 24.906 102.703 25.1132 102.86 24.9871C102.897 24.9568 103.158 24.7217 103.204 24.6838C103.6 24.3518 103.035 24.9044 102.937 25.0005C102.563 25.3656 102.909 25.0672 102.767 25.2168C102.624 25.3663 102.417 25.5205 102.337 25.6178C102.171 25.8192 102.247 25.8183 102.261 25.8586C102.268 25.8732 102.61 25.5521 102.619 25.547C102.73 25.4924 102.38 25.8489 103.087 25.2394C101.304 26.8667 103.275 25.0976 102.946 25.4548C102.919 25.4836 102.072 26.2481 101.937 26.3495C101.803 26.4508 102.055 26.1972 101.848 26.3572C101.799 26.3946 100.985 27.0893 100.935 27.13C100.54 27.4478 101.807 26.3057 101.875 26.242C102.616 25.5541 101.737 26.2996 101.672 26.3466C101.375 26.5617 101.532 26.377 101.317 26.5274C101.178 26.6244 100.346 27.3707 100.361 27.3358C100.409 27.2203 101.553 26.1623 100.515 27.0294C100.294 27.2144 99.3954 28.0413 100.082 27.3684C100.125 27.326 100.757 26.715 100.333 27.0754C100.28 27.1208 100.016 27.3597 99.9922 27.3777C99.8364 27.4937 100.038 27.2943 99.9242 27.3705C99.81 27.4468 99.6439 27.565 99.718 27.467C99.7623 27.4084 100.241 26.9496 100.357 26.8353C100.69 26.5067 100.109 27.0073 100.52 26.6176C100.933 26.2258 101.589 25.6617 101.839 25.3908C101.154 26.0121 100.451 26.6488 99.7615 27.2733C99.7401 27.2014 99.9168 26.9514 99.8411 26.9291C99.8309 26.9269 99.4699 27.2687 99.4496 27.275C99.3656 27.3002 99.6046 27.0365 99.4741 27.1029C99.3717 27.1557 98.9616 27.4873 98.843 27.5541C99.6094 26.8244 99.3128 27.0325 99.3607 26.9418C99.3771 26.9103 99.5855 26.7194 99.6475 26.6506C99.8763 26.3957 99.1991 27.0407 99.0849 27.1339C98.5979 27.5322 100.151 26.0946 100.082 26.097C100.079 26.0965 99.231 26.8412 99.1768 26.8861C98.8236 27.1789 99.4623 26.6165 99.5128 26.5484C99.6051 26.4238 99.7886 26.2254 99.5231 26.4251C99.4445 26.4843 98.9131 26.9453 99.2987 26.5612C99.3491 26.5109 99.6233 26.2582 99.6379 26.2419C99.8795 25.967 99.0205 26.7639 98.7159 27.0191C98.4114 27.2742 98.9819 26.7 99.1479 26.5362C99.5776 26.1127 99.3455 26.3701 99.3894 26.3305C99.9122 25.8585 99.8076 25.9241 99.8385 25.87C100.677 25.0848 100.609 25.1127 99.8672 25.8171C99.7862 25.8941 99.8744 25.8315 99.8385 25.87C99.0028 26.6265 98.8787 26.7051 99.6275 25.9637C99.9784 25.6161 100.408 25.2332 100.224 25.3446C100.141 25.3948 99.5686 25.9407 99.3992 26.0753C99.0127 26.3824 99.5164 25.8408 99.4027 25.8896C99.3616 25.9075 99.056 26.2146 99.0171 26.2371C98.9129 26.2978 99.1332 26.0578 98.9934 26.1521C98.9803 26.161 98.6544 26.4761 98.6444 26.4739C98.5628 26.464 98.7363 26.2249 98.696 26.1706C98.6765 26.1446 98.4558 26.2751 98.4697 26.2168C98.4919 26.1176 98.9192 25.6105 98.7694 25.6855C98.6731 25.733 98.3502 26.0514 98.1175 26.255C97.667 26.6502 98.4095 25.8749 98.5248 25.7552C98.5286 25.7512 98.6251 25.6975 98.7829 25.5257C99.127 25.184 98.5265 25.7539 98.5248 25.7552C98.5994 25.6779 98.6352 25.5666 98.5651 25.6187C98.5268 25.6472 98.2193 25.9471 98.2052 25.9564C97.8774 26.17 97.7486 26.1937 97.8415 26.0008C97.8468 25.9938 98.1935 25.6612 98.2017 25.649C98.3252 25.4694 97.8839 25.8586 97.6093 26.0767C97.3343 26.2941 97.399 26.1931 97.9754 25.6028C97.8823 25.656 98.1168 25.3742 98.2597 25.2038C98.4026 25.0334 97.7314 25.6847 97.7168 25.6963C97.2515 26.0668 97.6097 25.6676 97.6255 25.5646C97.6342 25.5147 97.4962 25.5678 97.4007 25.6167C97.3242 25.6564 97.4694 25.4916 97.3533 25.5735C97.3378 25.5844 97.0439 25.8794 97.0318 25.89C96.6595 26.222 97.392 25.515 97.5175 25.3834C97.9739 24.9046 98.2155 24.6481 97.9707 24.843C97.9145 24.8874 96.8578 25.9036 96.7873 25.9542C96.6975 26.0181 97.075 25.6526 96.9714 25.7289C96.9628 25.7351 96.7332 25.9638 96.7351 25.9455C96.7412 25.8635 96.8335 25.689 96.7704 25.6718C96.7627 25.6686 96.4062 26.0392 96.3891 26.0407C96.3094 26.0472 96.284 25.995 96.4173 25.7882C96.4513 25.7363 96.7105 25.4864 96.7839 25.4086C97.2277 24.9378 96.5489 25.5881 96.5336 25.5982C96.1512 25.8549 96.6972 25.199 96.3465 25.422C96.3263 25.4354 95.5928 26.127 96.185 25.4977C96.2244 25.4559 96.8302 24.812 96.3964 25.2331C96.3693 25.2595 96.0588 25.5922 96.0778 25.5459C96.0966 25.4996 95.8629 25.6961 96.1936 25.3203C96.298 25.2021 96.8988 24.5564 96.3907 25.0426C96.355 25.0764 95.2203 26.1897 95.9748 25.394C96.0991 25.2631 96.9091 24.4322 96.4735 24.8385C96.3891 24.9174 96.2162 25.1102 96.0931 25.216C95.9037 25.3793 96.0984 25.1351 95.719 25.4873C95.6518 25.5497 95.0901 26.102 95.4936 25.6607C95.5568 25.5916 95.8294 25.3163 95.8532 25.2791C95.9678 25.1006 95.7573 25.2576 95.9123 25.0349C95.9667 24.9566 96.406 24.5102 96.5107 24.3781C96.6155 24.2461 96.7039 24.1074 96.4941 24.3027C96.2843 24.4981 95.607 25.2314 95.5344 25.2725C95.2185 25.4504 95.5471 24.9549 95.5286 24.8196C95.526 24.7995 95.2902 25.0681 95.2688 25.0572C95.1881 25.0174 94.8529 25.1621 95.317 24.5571C95.6875 24.0716 96.0592 23.7855 96.1938 23.5728C96.2576 23.4709 95.4487 24.3032 95.42 24.3264C95.1291 24.5625 95.4526 24.1615 95.3104 24.2447C95.281 24.2621 94.9682 24.6135 94.9468 24.6245C94.8707 24.6652 94.9918 24.4912 94.946 24.5011C94.9246 24.5063 94.6824 24.7716 94.6931 24.7437C94.7157 24.6799 94.8009 24.553 95.01 24.2879C95.029 24.2637 95.3437 23.9461 95.3404 23.9204C95.3342 23.8799 95.5292 23.6079 95.2695 23.8351C95.1915 23.9036 94.6359 24.508 95.002 24.0744C95.0785 23.9838 95.7496 23.2618 95.1534 23.8707C95.1122 23.9127 94.948 24.0782 94.8051 24.2169C94.604 24.4118 94.4448 24.5541 94.7272 24.226C94.8545 24.0782 95.3877 23.4727 95.2922 23.5571C95.2772 23.5709 94.9849 23.9011 94.9477 23.9254C94.8221 24.0055 94.8237 23.9433 94.7011 24.0184C94.6678 24.0391 94.372 24.3869 94.3323 24.4071C94.2227 24.4633 94.2611 24.3412 94.3256 24.2068C94.35 24.1567 94.6122 23.8841 94.639 23.8529C95.0751 23.3452 94.46 24.0065 94.4202 24.0415C94.1807 24.25 94.4439 23.916 94.3427 23.9758C94.3156 23.9915 94.0317 24.3154 94.0045 24.3426C93.7382 24.6076 94.2679 24.0439 94.3158 23.9723C94.4518 23.7698 94.3991 23.7689 94.3358 23.7859C94.3121 23.7926 93.9886 24.1733 93.9713 24.175C93.8628 24.1931 93.841 24.1093 93.9749 23.8596C94.0006 23.8118 94.2632 23.5309 94.3198 23.4637C94.716 22.9937 94.1367 23.5999 94.0789 23.6553C93.815 23.9083 94.0336 23.6477 93.973 23.6786C93.6722 23.8335 93.7112 23.5669 93.7182 23.3875C93.7256 23.1551 93.8796 22.8036 93.7102 22.7818C93.6997 22.78 93.3702 23.1713 93.3569 23.1748C93.2014 23.2027 93.2582 22.9873 93.0868 23.0344C93.0733 23.0375 92.7651 23.412 92.7328 23.4295C92.6643 23.4678 92.6569 23.4265 92.7373 23.2915C92.776 23.2263 93.061 22.9227 93.0943 22.8635C93.1724 22.7249 93.1704 22.6776 93.0953 22.7156C93.0628 22.7327 92.7553 23.1223 92.7383 23.1152C92.6162 23.0753 92.4743 23.0665 92.7984 22.4996C92.8206 22.4606 93.4658 21.6863 93.3275 21.8224C93.146 22.0352 92.9337 22.2866 92.7403 22.5146C92.5067 22.5281 92.6021 22.1524 92.5098 22.0066C92.5058 22.0006 92.1758 22.4205 92.1666 22.4111C92.135 22.379 92.0677 22.3906 92.0814 22.3072C92.0893 22.2509 92.1331 22.153 92.2444 21.9706C92.2718 21.926 92.8631 21.1959 92.7574 21.2933C92.7381 21.3111 92.6357 21.3895 92.5029 21.5445C92.4829 21.568 92.2136 21.9141 92.1988 21.9186C92.1174 21.9389 92.1437 21.8326 92.2949 21.6111C92.3199 21.5747 92.6025 21.203 92.6223 21.1736C92.7652 20.9686 92.53 21.2467 92.9557 21.0129C93.2837 20.8727 93.6254 20.137 94.0719 19.4692C94.1035 19.4217 94.1628 19.4131 94.26 19.3644C94.3575 19.3169 94.4886 19.2185 94.5273 18.9899C94.6572 17.8317 95.0491 16.6121 95.2318 15.3844C95.2575 15.249 94.8926 15.1957 94.7419 15.1572C94.6695 15.1347 94.6676 15.1025 94.6673 15.0345C94.677 14.9669 94.6284 14.8623 94.7664 14.7037C94.7704 14.683 95.0369 14.6199 95.3692 14.5995C95.6936 14.5774 95.9246 14.5516 96.0426 14.4784C96.1977 14.3766 96.1768 13.8622 96.47 13.7714C96.76 13.6832 96.7378 14.1145 96.9826 13.9903C97.2168 13.8587 97.4614 13.3803 97.6785 13.4407ZM98.8962 24.4402C99.2023 24.1109 98.0252 25.26 98.322 25.0006C98.3378 24.9867 98.8812 24.4564 98.8962 24.4402ZM100.833 26.1151C101.351 25.6056 100.55 26.3112 100.149 26.7033C99.749 27.0948 100.677 26.2695 100.833 26.1151ZM101.419 25.9718C101.821 25.5634 100.09 27.1272 100.462 26.8356C100.483 26.8192 101.396 25.9955 101.419 25.9718ZM94.0283 19.1912C94.0402 19.1729 94.0523 19.1554 94.041 19.1738C93.7581 19.6131 93.7209 19.6391 94.0283 19.1912ZM102.04 25.7985C102.267 25.5797 101.977 25.8019 101.694 26.074C101.467 26.2928 101.757 26.0706 102.04 25.7985ZM99.358 22.4173C99.375 22.3996 99.3816 22.3751 99.2846 22.4741C98.9724 22.793 99.0729 22.7152 99.358 22.4173ZM102.388 26.1462C102.405 26.0335 103.812 24.7158 103.703 24.9209C103.684 24.958 103.224 25.3068 103.107 25.4363C102.893 25.6722 103.811 24.8836 103.35 25.3412C103.266 25.4248 102.384 26.1554 102.386 26.1479C102.386 26.1473 102.387 26.1467 102.388 26.1462ZM100.299 23.0489C100.314 23.0333 100.317 23.0065 100.301 23.0213C99.9218 23.3802 99.9162 23.4343 100.299 23.0489ZM99.5398 21.1761C99.5711 21.1419 99.5718 21.0825 99.5413 21.1124C98.9357 21.7149 98.9317 21.836 99.5398 21.1761ZM101.983 23.0624C102.378 22.7153 102.439 22.6899 101.97 23.1543C101.982 23.1162 101.973 23.0986 101.983 23.0624Z" fill="black"/>
<path d="M88.6093 26.4152C88.695 26.2725 88.7982 26.4271 88.8721 26.6386C88.8957 26.7042 88.8781 26.9955 88.8932 27.054C88.9218 27.1678 88.9576 27.0254 88.9846 27.161C88.9938 27.2074 88.9726 27.6689 88.9824 27.7069C89.0374 27.9121 89.0935 27.7956 89.1518 27.8951C89.4283 28.3859 89.6968 28.5676 89.973 28.7882C90.0617 28.8604 90.1593 29.2836 90.2612 29.1043C90.2733 29.0829 90.283 28.6776 90.2864 28.6443C90.3411 28.1347 90.2966 28.9519 90.3142 29.0614C90.38 29.4937 90.4769 29.5353 90.5636 29.3825C90.6014 29.3164 90.6021 28.5105 90.6174 28.9635C90.6185 28.9941 90.5904 29.4238 90.598 29.4701C90.6151 29.5742 90.6603 29.4992 90.676 29.5341C90.705 29.6034 90.7102 29.5993 90.7404 29.6056C90.7815 29.618 90.8213 29.834 90.8718 29.7388C90.8824 29.7172 90.891 29.2758 90.9096 29.2016C90.9283 29.1274 90.9667 29.1667 90.9752 29.2713C90.9838 29.3759 90.961 29.722 90.9595 29.8016C90.9463 30.4727 91.0389 29.5468 91.0463 29.5242C91.1765 29.1386 91.2432 29.6721 91.3461 29.6761C91.4226 29.6779 91.5185 29.508 91.5901 29.536C91.6753 29.571 91.7401 29.8142 91.8261 29.778C91.8353 29.7747 91.8548 29.2561 91.8661 29.2511C91.9871 29.1976 92.1017 29.2611 92.1971 29.6178C92.2067 29.6541 92.1637 30.1078 92.1716 30.1712C92.2222 30.5494 92.2743 31.4537 92.4429 29.4771C92.4864 29.5575 92.5424 29.6412 92.5585 30.0429C92.5694 30.3015 92.5105 30.7949 92.5581 30.5858C92.5688 30.5392 92.587 30.1049 92.601 30.0679C92.6599 29.9123 92.704 30.0567 92.7678 29.8359C92.7808 29.79 92.8039 29.4013 92.8114 29.3315C92.8735 28.7665 92.8492 29.7057 92.853 29.7743C92.8829 30.2862 92.9433 30.0896 93.0031 30.1062C93.017 30.1102 93.0361 29.5873 93.0508 29.5724C93.1278 29.5026 93.1943 29.5523 93.2469 29.7887C93.2584 29.8425 93.2131 30.2859 93.217 30.3344C93.2344 30.5427 93.3009 29.7037 93.319 29.8873C93.3229 29.9249 93.2922 30.3051 93.2904 30.347C93.2623 31.0043 93.3447 30.076 93.351 30.0558C93.355 30.0423 93.3587 30.0317 93.3621 30.0239C93.387 30.0042 93.4931 30.059 93.5194 30.0412C93.6057 29.897 93.5133 30.766 93.592 30.646C93.6023 30.63 93.6614 30.1507 93.6862 30.1348C93.8519 30.0265 93.9857 30.1846 94.0514 30.5899C94.0618 30.6523 93.9792 31.0056 93.9723 31.0498C93.8634 31.7399 94.0516 30.8233 94.0655 30.7901C94.1692 30.5517 94.0659 31.3311 94.3217 30.2457C94.4765 30.6711 94.8481 30.1125 94.842 31.1373C94.8421 31.1493 94.7305 31.5964 94.7311 31.6182C94.7365 31.8855 94.8899 31.1858 95.142 30.3456C95.2059 30.1348 94.9899 31.1707 94.9739 31.2466C94.9167 31.5267 94.7422 32.1897 94.7326 32.2443C94.6573 32.6732 95.1949 30.4706 95.2375 30.4804C95.2379 30.4844 95.1319 30.8881 95.1253 30.9292C95.1046 31.0583 95.1553 30.9 95.1309 31.042C95.0746 31.3705 94.8135 32.4408 95.0054 31.828C95.0303 31.7485 95.3385 30.4998 95.3609 30.5682C95.3693 30.5964 95.4403 30.5919 95.4376 30.6773C95.4349 30.7626 95.3186 31.1606 95.3154 31.1783C95.2256 31.7211 95.1504 31.9363 94.9686 32.7273C94.7868 33.5152 95.2682 31.6485 95.3325 31.4429C95.3968 31.2379 95.3167 31.6844 95.2848 31.8385C95.253 31.9928 95.1754 32.2446 95.16 32.3326C95.0596 32.9075 95.4266 31.4133 95.5216 31.122C95.748 30.4325 95.4101 31.8221 95.4079 31.9666C95.4075 32.0057 95.4845 31.6892 95.501 31.6621C95.5652 31.5589 95.4685 31.9949 95.6142 31.6107C95.6378 31.548 95.8962 30.7276 95.7497 31.3415C95.7285 31.43 95.6261 31.7714 95.6192 31.8522C95.6089 31.9736 95.6262 32.0592 95.6808 31.9507C95.7211 31.8705 95.8587 31.2994 95.8313 31.4811C95.819 31.5622 95.7096 31.8882 95.694 32.0129C95.6783 32.1376 95.7271 32.1355 95.7473 32.1288C95.7675 32.1219 95.8784 31.6905 95.8878 31.662C95.9425 31.4989 96.0336 31.3014 96.0365 31.3028C96.1994 31.2922 96.1274 32.0523 96.3361 31.8537C96.3523 31.8388 96.4746 31.3853 96.4784 31.3784C96.5705 31.2002 96.1959 32.3915 96.1067 32.8007C96.3662 31.8838 96.3341 32.0541 96.3895 31.9613C96.4164 31.9158 96.5115 31.5592 96.5231 31.5233C96.697 30.9901 96.51 31.6896 96.4724 31.8329C96.3343 32.3599 96.5258 31.7453 96.4337 32.0977C96.3422 32.4474 96.1744 32.9566 96.2018 32.9573C96.3032 32.6316 96.5309 31.7695 96.5901 31.6362C96.814 31.132 96.7546 31.8426 96.7927 31.9291C96.8303 32.0153 96.8662 31.9601 96.866 32.0882C96.8656 32.3198 97.0239 31.6772 97.1433 31.3964C97.2625 31.1155 96.8028 32.6766 96.7132 33.0148C96.6237 33.3529 96.7273 33.0081 96.6819 33.195C96.6366 33.3819 96.5575 33.6068 96.5539 33.6807C96.5505 33.7547 96.7622 33.1679 96.8661 32.8172C97.0863 32.0741 97.2864 31.2855 97.2496 31.5719C97.2474 31.5889 97.125 31.999 97.1223 32.0432C97.1051 32.3803 97.1738 32.4204 97.1697 32.7211C97.169 32.7631 97.036 33.2202 97.0343 33.2499C97.0301 33.3215 97.037 33.3351 97.053 33.3031C97.1068 33.1965 97.264 32.583 97.4654 31.9266C97.1523 33.0712 96.9838 33.7776 97.03 33.797C97.0576 33.8091 97.1846 33.3066 97.2951 32.958C97.3283 32.8529 97.2581 33.2023 97.3231 32.9674C97.5354 32.1994 97.7423 31.3318 97.6976 31.687C97.6953 31.7039 97.5798 32.1244 97.5801 32.1518C97.5822 32.3309 97.7948 31.5251 97.866 31.4391C97.922 31.3716 97.864 31.8809 97.8879 31.9719C97.5673 33.2669 97.6841 32.981 97.9182 32.0913C97.9374 32.1348 97.9799 32.0915 97.9773 32.2217C97.9766 32.266 97.8805 32.6402 97.872 32.6811C97.7383 33.3222 97.9589 32.4549 97.9729 32.4222C98.1172 32.1059 98.0182 32.7793 98.2303 32.1479C98.238 32.1251 98.4482 31.2226 98.3139 31.886C98.3047 31.9317 98.1898 32.338 98.2125 32.3766C98.2345 32.4151 98.1833 32.9128 98.3185 32.503C98.3513 32.4044 98.5384 31.6753 98.4322 32.2537C98.4178 32.3323 98.3577 32.5912 98.33 32.7365C98.2421 33.1997 98.4492 32.2862 98.2946 33.0669C98.1398 33.8475 98.0483 34.4375 98.2082 33.9103C98.2131 33.895 98.379 33.1714 98.39 33.1857C98.4076 33.2093 98.4066 33.3672 98.4304 33.3672C98.4419 33.367 98.5298 32.9144 98.5334 32.9066C98.6585 32.6689 98.6257 33.0818 98.669 33.2726C98.677 33.3085 98.8419 32.7005 98.7719 33.1933C98.6962 33.7329 98.2213 35.9459 98.4018 35.432C98.4753 35.2267 99.0621 32.416 98.8291 33.8861C98.9988 33.5435 98.9504 34.3092 99.1483 33.8106C99.1572 33.7886 99.3174 33.0033 99.3258 33.0159C99.338 33.0363 99.2786 33.4061 99.2854 33.4325C99.3119 33.5521 99.4124 33.2447 99.4484 33.3018C99.4622 33.3228 99.3873 33.7027 99.404 33.7278C99.4209 33.7524 99.5248 33.253 99.5089 33.5004C99.4966 33.6889 99.3344 34.7187 99.3416 34.8434C99.523 33.8314 99.5386 33.8557 99.62 33.5945C99.6357 33.5438 99.6911 33.1902 99.7018 33.1481C99.7464 32.9687 99.7063 33.2628 99.7531 33.0672C99.7644 33.0202 99.8256 32.6745 99.8382 32.6165C99.9479 32.1108 99.8436 32.8944 99.8256 33.0308C99.7571 33.549 99.8463 33.1011 99.8275 33.3065C99.8087 33.512 99.7393 33.7608 99.7374 33.8872C99.7337 34.1486 99.7961 34.1019 99.8347 34.1249C99.8505 34.132 99.9194 33.6683 99.9235 33.6586C99.9778 33.5474 99.9273 34.0446 100.105 33.1279C99.7177 35.5106 100.166 32.9008 100.132 33.3853C100.129 33.4245 99.94 34.5502 99.8967 34.7128C99.8534 34.8752 99.8917 34.5197 99.8266 34.7736C99.8114 34.8332 99.601 35.8823 99.5861 35.9455C99.4695 36.4392 99.7566 34.7577 99.771 34.6652C99.9259 33.6659 99.6949 34.7953 99.6721 34.8722C99.5683 35.2244 99.5743 34.982 99.4947 35.2324C99.443 35.3942 99.2477 36.4944 99.2355 36.4575C99.1942 36.3355 99.4453 34.797 99.1527 36.1177C99.0901 36.3994 98.8885 37.6039 99.0124 36.6506C99.0201 36.5904 99.142 35.7198 99.0253 36.2634C99.0106 36.332 98.9479 36.6823 98.9394 36.7112C98.8841 36.8977 98.9201 36.6161 98.8729 36.7456C98.8256 36.8751 98.7614 37.0692 98.7563 36.9456C98.7531 36.8716 98.8515 36.2155 98.8731 36.0544C98.936 35.5905 98.7747 36.3405 98.8638 35.7811C98.9537 35.2189 99.1354 34.3734 99.1683 34.0055C98.9993 34.9146 98.8242 35.8474 98.6533 36.7615C98.5806 36.715 98.5586 36.4067 98.4721 36.4318C98.4612 36.4358 98.3783 36.9261 98.3641 36.943C98.3043 37.012 98.3319 36.6564 98.2587 36.786C98.2016 36.8881 98.0604 37.3968 97.9959 37.5192C98.1772 36.4765 98.0517 36.8178 98.0294 36.7147C98.0216 36.679 98.0783 36.4022 98.0864 36.3098C98.1158 35.9678 97.9483 36.8879 97.9084 37.03C97.737 37.636 98.1559 35.5615 98.0941 35.6021C98.0912 35.6037 97.8287 36.7014 97.8093 36.7691C97.6854 37.2112 97.8841 36.3836 97.8821 36.298C97.8785 36.1417 97.9107 35.8732 97.8021 36.1879C97.7703 36.2812 97.5948 36.9628 97.6853 36.426C97.6972 36.3557 97.7769 35.9914 97.779 35.9695C97.8121 35.6043 97.5645 36.7495 97.4544 37.1317C97.3439 37.5137 97.476 36.7147 97.5183 36.4853C97.6267 35.8917 97.5893 36.237 97.6031 36.1795C97.7664 35.4943 97.7127 35.6067 97.7043 35.5439C97.9479 34.4212 97.9047 34.4822 97.6945 35.4833C97.6717 35.5926 97.7113 35.4917 97.7043 35.5439C97.4438 36.6407 97.3764 36.7736 97.5695 35.7375C97.6602 35.2519 97.8019 34.6938 97.7056 34.888C97.662 34.9756 97.4966 35.7492 97.4282 35.9548C97.2711 36.4237 97.3733 35.6901 97.2987 35.7921C97.2713 35.8291 97.1904 36.2548 97.1681 36.2946C97.1082 36.4012 97.154 36.0783 97.0828 36.2324C97.0762 36.2469 96.979 36.6897 96.9672 36.6928C96.8756 36.7252 96.875 36.4264 96.7956 36.3985C96.7569 36.3852 96.6257 36.6101 96.5964 36.5508C96.5449 36.4508 96.6232 35.7903 96.5238 35.9298C96.4589 36.0187 96.3521 36.4594 96.2562 36.7536C96.0698 37.3237 96.286 36.2713 96.3219 36.109C96.3231 36.1037 96.3843 36.0094 96.4264 35.7798C96.5413 35.3085 96.3229 36.1071 96.3219 36.109C96.3293 36.0749 96.3299 36.0394 96.3262 36.0099C96.3189 35.9486 96.2932 35.9128 96.269 35.9668C96.2495 36.0106 96.1411 36.4262 96.1329 36.4412C95.9422 36.7878 95.8225 36.8679 95.7886 36.6499C95.7894 36.6411 95.9212 36.1791 95.9214 36.1642C95.9287 35.9444 95.7383 36.5014 95.6017 36.8254C95.4653 37.1493 95.4643 37.0276 95.6661 36.2275C95.6071 36.3186 95.6639 35.9556 95.7002 35.7359C95.7365 35.5161 95.4756 36.4143 95.4684 36.4314C95.2374 36.9809 95.3461 36.4551 95.3006 36.3553C95.2795 36.3064 95.1776 36.4182 95.1149 36.5066C95.0648 36.5779 95.109 36.3625 95.0452 36.49C95.0366 36.507 94.925 36.9082 94.9195 36.9233C94.7542 37.3942 95.0487 36.4196 95.0932 36.2432C95.2551 35.6018 95.3393 35.2596 95.2179 35.5484C95.19 35.6145 94.7623 37.0167 94.7242 37.095C94.6754 37.1941 94.8271 36.6911 94.7722 36.8077C94.7677 36.8173 94.6789 37.129 94.6706 37.1118C94.631 37.0359 94.622 36.8372 94.5557 36.8522C94.5471 36.8531 94.4171 37.3506 94.4024 37.3601C94.3334 37.4039 94.2824 37.3698 94.2972 37.1241C94.3012 37.0621 94.4055 36.7174 94.4315 36.6137C94.5881 35.986 94.3131 36.8849 94.3047 36.9011C94.0945 37.3115 94.25 36.4724 94.0547 36.8392C94.0432 36.8607 93.7475 37.8244 93.9532 36.9852C93.967 36.9294 94.1765 36.0705 94.0076 36.6509C93.9971 36.6873 93.891 37.1299 93.8854 37.0804C93.8795 37.031 93.775 37.3178 93.8772 36.8278C93.9096 36.6735 94.1116 35.815 93.9131 36.4896C93.8986 36.5365 93.4708 38.0675 93.7302 37.0021C93.7728 36.8267 94.061 35.7027 93.8871 36.2723C93.8537 36.3828 93.7994 36.6361 93.7464 36.7894C93.6653 37.0258 93.7135 36.7175 93.5645 37.2131C93.5379 37.3007 93.3316 38.061 93.4608 37.4772C93.4809 37.3858 93.5778 37.0107 93.5805 36.9667C93.5931 36.7556 93.4946 36.9984 93.5202 36.729C93.529 36.6342 93.6807 36.0266 93.7051 35.8599C93.7296 35.6933 93.7369 35.5292 93.6569 35.8044C93.5773 36.0799 93.3666 37.0556 93.328 37.1286C93.1627 37.4464 93.2066 36.8564 93.1356 36.7539C93.1254 36.7387 93.0626 37.0904 93.0428 37.0932C92.9673 37.1045 92.7953 37.412 92.8765 36.6553C92.9385 36.0487 93.0846 35.6051 93.0901 35.3546C93.0911 35.2348 92.8649 36.3731 92.8548 36.4084C92.7492 36.7665 92.8094 36.2553 92.7455 36.4045C92.7326 36.4355 92.662 36.9005 92.6521 36.9218C92.6181 36.9988 92.6302 36.7881 92.6039 36.8228C92.592 36.8394 92.5371 37.1944 92.5336 37.1658C92.5244 37.1013 92.5313 36.9496 92.5625 36.6138C92.5652 36.5832 92.645 36.1433 92.632 36.1245C92.6264 36.117 92.6236 36.0889 92.6208 36.0573L92.9282 36.0912C92.9055 36.0016 92.8817 35.8835 92.8338 36.1347C92.8144 36.2367 92.7562 37.0556 92.7704 36.4883C92.7734 36.3698 92.8493 35.3869 92.7597 36.2344C92.7446 36.3753 92.615 37.5179 92.6423 36.7774C92.6494 36.5826 92.6888 35.7767 92.6658 35.9022C92.6624 35.9222 92.6399 36.3627 92.6249 36.4048C92.5725 36.5454 92.5316 36.4954 92.4793 36.6303C92.4653 36.6672 92.4514 37.1236 92.4316 37.1641C92.3768 37.276 92.3286 37.1563 92.2909 37.0106C92.2774 36.9561 92.3142 36.5797 92.3157 36.5386C92.3399 35.8696 92.2684 36.77 92.2584 36.8221C92.1967 37.134 92.1936 36.7087 92.1489 36.8183C92.1367 36.8474 92.1161 37.2776 92.1115 37.3158C92.0661 37.6888 92.1319 36.9181 92.124 36.8322C92.1026 36.5889 92.0568 36.6206 92.0148 36.6731C91.9993 36.693 91.9835 37.1923 91.97 37.2044C91.8892 37.2855 91.8177 37.2331 91.76 36.9538C91.7494 36.9003 91.7816 36.5171 91.7841 36.4293C91.8016 35.8148 91.7215 36.6495 91.7101 36.7288C91.6579 37.0908 91.6668 36.7507 91.6365 36.8125C91.4867 37.12 91.3409 36.886 91.225 36.7402C91.0758 36.5526 90.9702 36.1807 90.8121 36.2677C90.8022 36.2727 90.7858 36.784 90.777 36.795C90.6632 36.9126 90.5697 36.7079 90.4531 36.8504C90.4438 36.8611 90.4337 37.3461 90.418 37.3797C90.3858 37.452 90.3511 37.424 90.3297 37.2681C90.3188 37.1929 90.3572 36.7781 90.3456 36.711C90.3185 36.5536 90.2837 36.5174 90.2461 36.5936C90.2301 36.627 90.23 37.1234 90.211 37.1283C90.0807 37.1718 89.9506 37.2519 89.848 36.6052C89.8407 36.5608 89.8714 35.5534 89.8445 35.7458C89.8323 36.0252 89.8198 36.354 89.8078 36.6527C89.6155 36.8066 89.4441 36.4511 89.2598 36.3917C89.252 36.3893 89.2501 36.9235 89.235 36.9216C89.1501 36.9113 89.0628 37.057 88.9878 36.5243C88.9803 36.4722 89.0073 35.5331 88.9776 35.6745C88.9721 35.7003 88.9295 35.8247 88.9156 36.0284C88.9136 36.0591 88.911 36.4977 88.8987 36.5102C88.8251 36.5752 88.7546 36.4738 88.6883 36.2048C88.6779 36.1606 88.6967 35.6938 88.6892 35.6583C88.6342 35.4096 88.5704 35.7638 88.5224 35.3395C88.4886 35.0538 88.5093 34.2467 88.4916 33.452C88.4894 33.3399 88.4665 33.322 88.4665 32.8598C88.4649 31.6973 88.481 30.4244 88.4781 29.1853C88.4775 28.9184 88.435 29.2058 88.4588 28.5609C88.4642 28.5177 88.4972 28.3037 88.504 28.085C88.5098 27.9337 88.5019 27.4635 88.5138 27.2699C88.5262 27.0765 88.5385 27.4707 88.5565 27.2433C88.5752 27.0131 88.5749 26.4782 88.6093 26.4152ZM95.863 34.7538C95.9646 34.3157 95.5071 35.8958 95.6401 35.5245C95.647 35.5047 95.858 34.7753 95.863 34.7538ZM98.7885 35.1873C98.8925 34.4685 98.6731 35.5128 98.5909 36.0676C98.5095 36.6218 98.7574 35.4052 98.7885 35.1873ZM99.2004 34.7246C99.2675 34.1553 98.8447 36.4494 98.9677 35.9925C98.9748 35.9667 99.1966 34.7576 99.2004 34.7246ZM88.5887 33.2265C88.5895 33.2046 88.5703 33.1831 88.57 33.2048C88.5558 33.7271 88.5913 33.7697 88.5887 33.2265ZM99.6099 34.2118C99.6537 33.8991 99.5593 34.2523 99.5047 34.6411C99.4609 34.9539 99.5555 34.6007 99.6099 34.2118ZM95.1999 32.7422C95.206 32.7184 95.199 32.6936 95.1632 32.8275C95.0482 33.2587 95.0983 33.1418 95.1999 32.7422ZM100.133 34.2753C100.072 34.1756 100.353 32.2687 100.399 32.4972C100.407 32.5386 100.262 33.0972 100.252 33.2717C100.233 33.5897 100.461 32.4013 100.387 33.0464C100.374 33.1645 100.136 34.2852 100.133 34.2779C100.133 34.277 100.133 34.2762 100.133 34.2753ZM96.3955 32.851C96.4011 32.8299 96.3891 32.805 96.3827 32.8256C96.2289 33.3248 96.2531 33.3753 96.3955 32.851ZM94.6881 31.5632C94.6978 31.5178 94.6643 31.4655 94.6531 31.5067C94.4378 32.3334 94.5011 32.4408 94.6881 31.5632ZM97.8801 32.0066C98.0243 31.5011 98.0597 31.446 97.9182 32.0906C97.9081 32.0521 97.8908 32.0426 97.8801 32.0066Z" fill="black"/>
<path d="M113.744 37.6727C113.601 37.6475 113.754 37.6149 113.964 37.5898C114.03 37.5816 114.321 37.586 114.379 37.5806C114.493 37.5702 114.35 37.56 114.485 37.5498C114.531 37.5463 114.993 37.5507 115.031 37.547C115.235 37.527 115.117 37.5083 115.215 37.4881C115.7 37.3883 115.873 37.2914 116.083 37.1906C116.129 37.1678 116.329 37.1443 116.405 37.1187C116.443 37.1067 116.45 37.0947 116.388 37.0833C116.366 37.0793 115.961 37.0817 115.928 37.081C115.416 37.0691 116.234 37.073 116.343 37.0652C116.772 37.0354 116.81 37.0002 116.653 36.9726C116.586 36.9606 115.78 36.9737 116.232 36.9609C116.263 36.9601 116.693 36.9626 116.739 36.9592C116.842 36.9515 116.765 36.9369 116.8 36.9308C116.867 36.9192 116.863 36.9177 116.868 36.9071C116.878 36.8926 117.092 36.8746 116.995 36.8587C116.973 36.8554 116.531 36.8612 116.456 36.856C116.381 36.8511 116.419 36.8373 116.523 36.8322C116.627 36.8272 116.974 36.828 117.053 36.8269C117.724 36.8175 116.795 36.8045 116.772 36.8026C116.38 36.7657 116.909 36.7317 116.907 36.6954C116.905 36.669 116.73 36.6406 116.754 36.615C116.784 36.585 117.023 36.556 116.981 36.5268C116.977 36.5238 116.459 36.5326 116.453 36.529C116.392 36.4899 116.448 36.4489 116.798 36.4045C116.833 36.4 117.289 36.3992 117.352 36.3943C117.726 36.3644 118.624 36.3099 116.641 36.3254C116.718 36.3076 116.798 36.286 117.197 36.264C117.454 36.2498 117.951 36.2511 117.739 36.2427C117.692 36.2408 117.257 36.2516 117.219 36.2482C117.06 36.2341 117.201 36.2131 116.976 36.2002C116.929 36.1977 116.54 36.2057 116.47 36.206C115.902 36.2084 116.84 36.1775 116.908 36.1731C117.416 36.1408 117.216 36.1285 117.228 36.1072C117.231 36.1023 116.708 36.1187 116.692 36.1143C116.617 36.0918 116.661 36.0654 116.893 36.0371C116.946 36.0307 117.391 36.0256 117.439 36.022C117.645 36.0062 116.804 36.0227 116.985 36.0079C117.023 36.0048 117.404 35.9974 117.446 35.996C118.103 35.9744 117.171 35.9901 117.151 35.989C116.869 35.9747 117.841 35.9373 117.703 35.9205C117.686 35.9185 117.203 35.9358 117.184 35.9295C117.049 35.8879 117.181 35.8358 117.565 35.7802C117.624 35.7715 117.987 35.7664 118.032 35.7647C118.729 35.7377 117.794 35.7593 117.759 35.758C117.505 35.7471 118.289 35.7068 117.174 35.7271C117.559 35.6393 116.931 35.5842 117.926 35.4727C117.937 35.4713 118.398 35.457 118.419 35.4543C118.677 35.4209 117.961 35.451 117.085 35.467C116.865 35.4712 117.922 35.4214 117.999 35.4175C118.284 35.4033 118.97 35.3826 119.025 35.3793C119.459 35.3526 117.193 35.4367 117.192 35.4227C117.195 35.4221 117.613 35.4087 117.654 35.4059C117.784 35.3974 117.618 35.3998 117.762 35.3909C118.093 35.3703 119.194 35.3261 118.553 35.3369C118.47 35.3384 117.185 35.389 117.245 35.374C117.27 35.3679 117.247 35.3464 117.33 35.3371C117.413 35.3276 117.827 35.3159 117.845 35.3148C118.392 35.2766 118.619 35.2742 119.43 35.2339C120.237 35.1934 118.311 35.2713 118.096 35.2763C117.881 35.2812 118.333 35.2509 118.489 35.2415C118.647 35.2321 118.91 35.2256 118.999 35.2192C119.579 35.1774 118.042 35.2492 117.736 35.2554C117.012 35.2705 118.44 35.2019 118.579 35.1827C118.617 35.1776 118.292 35.1939 118.261 35.1919C118.144 35.1841 118.59 35.1585 118.181 35.1614C118.114 35.1619 117.255 35.1868 117.884 35.1529C117.975 35.1481 118.331 35.136 118.411 35.1273C118.53 35.1144 118.607 35.0967 118.488 35.0932C118.4 35.0907 117.814 35.1231 117.995 35.1074C118.077 35.1004 118.42 35.0921 118.544 35.0801C118.668 35.0681 118.652 35.0517 118.64 35.0457C118.628 35.0397 118.183 35.0628 118.153 35.0636C117.981 35.068 117.766 35.0653 117.766 35.0643C117.71 35.014 118.457 34.9281 118.207 34.887C118.188 34.8837 117.719 34.9089 117.711 34.9087C117.514 34.9041 118.761 34.8554 119.178 34.8253C118.226 34.8725 118.399 34.8584 118.294 34.8534C118.242 34.851 117.874 34.8715 117.836 34.8729C117.276 34.893 117.999 34.853 118.147 34.8444C118.691 34.8131 118.047 34.8393 118.411 34.8183C118.772 34.7973 119.307 34.7787 119.3 34.7692C118.959 34.7832 118.069 34.8341 117.924 34.8339C117.377 34.8333 118.073 34.7477 118.145 34.7217C118.216 34.6959 118.153 34.692 118.275 34.6727C118.496 34.6376 117.836 34.6808 117.533 34.6824C117.23 34.684 118.856 34.6048 119.205 34.5841C119.554 34.5635 119.194 34.5803 119.386 34.5674C119.578 34.5546 119.816 34.5476 119.888 34.5376C119.959 34.5273 119.337 34.5441 118.972 34.5616C118.198 34.5988 117.386 34.6498 117.671 34.6189C117.687 34.6171 118.115 34.5969 118.158 34.5911C118.485 34.5459 118.504 34.5158 118.793 34.4715C118.834 34.4653 119.309 34.4422 119.338 34.4384C119.641 34.3976 118.84 34.4509 117.949 34.4884C119.134 34.4244 119.858 34.3763 119.864 34.358C119.868 34.3469 119.351 34.3783 118.986 34.3923C118.876 34.3966 119.231 34.3687 118.987 34.3813C118.192 34.4225 117.302 34.4808 117.655 34.4426C117.672 34.4408 118.108 34.4182 118.134 34.4139C118.305 34.3863 117.473 34.4325 117.371 34.4197C117.292 34.4097 117.797 34.3532 117.879 34.3312C119.21 34.2519 118.905 34.2538 117.986 34.3027C118.023 34.2895 117.97 34.2809 118.097 34.2625C118.14 34.2562 118.525 34.2351 118.567 34.2321C119.22 34.185 118.326 34.2347 118.291 34.2345C117.949 34.2297 118.625 34.1664 117.962 34.1829C117.938 34.1835 117.013 34.2402 117.688 34.1911C117.734 34.1878 118.156 34.1695 118.187 34.1558C118.219 34.1423 118.714 34.0889 118.284 34.1002C118.181 34.1028 117.429 34.1414 118.015 34.0957C118.095 34.0895 118.36 34.0736 118.508 34.0625C118.978 34.0272 118.043 34.0849 118.837 34.0277C119.63 33.9705 120.224 33.9191 119.675 33.938C119.659 33.9385 118.918 33.9831 118.929 33.9771C118.948 33.9675 119.102 33.9455 119.096 33.937C119.094 33.933 118.634 33.9661 118.625 33.966C118.366 33.9557 118.774 33.909 118.95 33.867C118.984 33.8592 118.355 33.8863 118.85 33.8419C119.392 33.793 121.651 33.6506 121.111 33.6595C120.895 33.6627 118.03 33.8473 119.513 33.725C119.142 33.7133 119.899 33.6244 119.372 33.6237C119.348 33.6236 118.549 33.6757 118.559 33.671C118.576 33.6638 118.95 33.6336 118.974 33.6275C119.085 33.6014 118.764 33.6086 118.813 33.5881C118.831 33.5804 119.217 33.5543 119.238 33.545C119.259 33.5357 118.75 33.5681 118.994 33.5395C119.181 33.5178 120.22 33.4327 120.34 33.4128C119.315 33.4888 119.336 33.4799 119.064 33.4873C119.011 33.4888 118.655 33.5182 118.611 33.5202C118.427 33.5293 118.722 33.5028 118.522 33.5133C118.474 33.5158 118.124 33.5421 118.065 33.5457C117.548 33.577 118.335 33.5053 118.472 33.4927C118.992 33.445 118.536 33.4756 118.741 33.4537C118.946 33.4318 119.203 33.4218 119.326 33.4049C119.583 33.3698 119.525 33.3545 119.539 33.3376C119.543 33.3311 119.076 33.3713 119.066 33.3712C118.946 33.3677 119.442 33.3161 118.511 33.3813C120.917 33.1853 118.277 33.3917 118.757 33.336C118.796 33.3316 119.934 33.2406 120.102 33.2332C120.269 33.2259 119.914 33.2622 120.175 33.2498C120.236 33.2468 121.304 33.1748 121.368 33.1714C121.874 33.144 120.173 33.277 120.08 33.2848C119.073 33.3694 120.222 33.2936 120.302 33.291C120.667 33.2789 120.429 33.3102 120.69 33.3039C120.858 33.2999 121.972 33.2163 121.939 33.2259C121.828 33.258 120.274 33.3824 121.623 33.3031C121.911 33.2862 123.129 33.1907 122.172 33.279C122.112 33.2846 121.237 33.3621 121.792 33.3281C121.861 33.3238 122.216 33.2975 122.246 33.2965C122.44 33.2902 122.157 33.3164 122.293 33.3152C122.43 33.3139 122.632 33.3096 122.513 33.3284C122.441 33.3397 121.78 33.3955 121.619 33.4101C121.153 33.4522 121.918 33.4053 121.354 33.4513C120.786 33.4974 119.923 33.5502 119.558 33.5896C120.48 33.5234 121.427 33.4561 122.354 33.3899C122.324 33.4218 122.028 33.4718 122.07 33.498C122.077 33.5012 122.572 33.4624 122.592 33.465C122.672 33.476 122.319 33.5151 122.461 33.5222C122.573 33.5274 123.099 33.506 123.232 33.511C122.177 33.5924 122.537 33.5883 122.442 33.6099C122.409 33.6174 122.127 33.6363 122.035 33.6462C121.696 33.6833 122.628 33.6134 122.775 33.6073C123.403 33.5816 121.291 33.7257 121.345 33.741C121.347 33.7418 122.473 33.6788 122.544 33.676C123.001 33.6564 122.152 33.7039 122.069 33.7163C121.918 33.7389 121.65 33.7651 121.981 33.7582C122.078 33.756 122.781 33.7204 122.239 33.7644C122.168 33.7702 121.796 33.794 121.774 33.7963C121.412 33.836 122.581 33.76 122.977 33.7435C123.374 33.7272 122.568 33.7938 122.335 33.8117C121.734 33.858 122.078 33.8225 122.019 33.8259C121.315 33.8667 121.437 33.869 121.378 33.8806C120.232 33.9556 120.301 33.9617 121.322 33.8923C121.433 33.8847 121.326 33.8855 121.378 33.8806C122.504 33.8149 122.648 33.8182 121.598 33.8985C121.106 33.936 120.531 33.9669 120.742 33.9719C120.838 33.9742 121.627 33.9209 121.843 33.9148C122.335 33.9007 121.6 33.9702 121.717 33.9806C121.759 33.9845 122.191 33.9513 122.235 33.9531C122.353 33.9577 122.03 33.9881 122.196 33.9897C122.212 33.9899 122.664 33.9594 122.67 33.9628C122.725 33.9878 122.436 34.0298 122.43 34.0593C122.427 34.0736 122.678 34.0846 122.629 34.1023C122.546 34.1331 121.89 34.2023 122.051 34.2144C122.154 34.2226 122.607 34.1936 122.915 34.1821C123.514 34.1599 122.444 34.2416 122.279 34.2537C122.273 34.254 122.166 34.2478 121.934 34.2674C121.45 34.2985 122.276 34.2536 122.279 34.2537C122.172 34.2616 122.07 34.2917 122.157 34.2917C122.204 34.2917 122.633 34.2664 122.65 34.2669C123.035 34.2784 123.146 34.3058 122.947 34.3497C122.939 34.3508 122.459 34.3757 122.445 34.3778C122.232 34.4081 122.82 34.3893 123.169 34.3871C123.519 34.3848 123.403 34.404 122.579 34.4563C122.684 34.463 122.32 34.499 122.1 34.52C121.879 34.5411 122.814 34.4947 122.832 34.4946C123.424 34.4916 122.891 34.5344 122.809 34.5671C122.768 34.5827 122.905 34.6028 123.008 34.6124C123.091 34.62 122.872 34.6375 123.013 34.6413C123.032 34.6418 123.447 34.6204 123.463 34.6201C123.962 34.6081 122.945 34.6511 122.763 34.6623C122.103 34.7027 121.752 34.7246 122.063 34.7246C122.134 34.7245 123.599 34.6658 123.685 34.6685C123.794 34.6719 123.269 34.6932 123.396 34.6962C123.407 34.6964 123.731 34.6812 123.717 34.6873C123.656 34.7157 123.469 34.7519 123.502 34.7764C123.506 34.7798 124.019 34.7521 124.032 34.7567C124.094 34.7782 124.076 34.8061 123.837 34.8407C123.777 34.8492 123.417 34.8611 123.31 34.867C122.664 34.9027 123.604 34.8731 123.622 34.8743C124.075 34.8991 123.226 34.9664 123.633 34.9948C123.656 34.9962 124.664 34.9746 123.801 35.0176C123.743 35.0205 122.861 35.0638 123.465 35.047C123.502 35.046 123.957 35.0228 123.911 35.0336C123.865 35.0443 124.169 35.0469 123.67 35.0786C123.513 35.0886 122.632 35.1315 123.335 35.1158C123.384 35.1144 124.973 35.0722 123.877 35.1203C123.697 35.1282 122.538 35.1709 123.133 35.1623C123.248 35.1606 123.506 35.1461 123.668 35.147C123.917 35.1485 123.607 35.1742 124.124 35.1684C124.216 35.1673 125.003 35.1485 124.406 35.1781C124.313 35.1828 123.926 35.1945 123.882 35.2002C123.675 35.2274 123.935 35.238 123.668 35.2678C123.574 35.2783 122.948 35.2965 122.78 35.3097C122.613 35.3228 122.452 35.3429 122.739 35.3407C123.025 35.3385 124.022 35.2961 124.102 35.305C124.451 35.344 123.867 35.4136 123.783 35.4664C123.771 35.4743 124.127 35.4571 124.134 35.4679C124.162 35.5068 124.499 35.5698 123.741 35.6256C123.135 35.67 122.671 35.648 122.424 35.6757C122.307 35.6888 123.467 35.6683 123.504 35.67C123.875 35.6849 123.362 35.7156 123.52 35.7334C123.553 35.7371 124.023 35.7206 124.046 35.724C124.127 35.7352 123.918 35.7544 123.957 35.766C123.975 35.7712 124.334 35.7614 124.307 35.7673C124.245 35.781 124.094 35.7964 123.758 35.8166C123.727 35.8185 123.28 35.8215 123.264 35.8312C123.239 35.8468 122.907 35.8727 123.25 35.8819C123.353 35.8846 124.174 35.8665 123.608 35.89C123.489 35.8949 122.504 35.9138 123.356 35.9075C123.497 35.9063 124.646 35.9032 123.906 35.9299C123.711 35.9369 122.905 35.961 123.032 35.9644C123.052 35.9648 123.493 35.9522 123.536 35.9565C123.68 35.9715 123.634 35.9912 123.772 36.0068C123.81 36.0109 124.266 35.9947 124.308 36.0012C124.423 36.0189 124.308 36.0474 124.165 36.0699C124.112 36.0783 123.734 36.08 123.693 36.0813C123.024 36.1019 123.927 36.0907 123.98 36.0926C124.295 36.1048 123.871 36.1255 123.984 36.1396C124.014 36.1435 124.444 36.1332 124.483 36.1334C124.858 36.1364 124.085 36.1424 123.999 36.1497C123.758 36.1705 123.793 36.1882 123.849 36.204C123.87 36.2098 124.369 36.1952 124.382 36.2006C124.468 36.2318 124.421 36.2666 124.146 36.3024C124.093 36.3091 123.709 36.3104 123.621 36.3128C123.007 36.3294 123.845 36.3308 123.925 36.3327C124.29 36.3412 123.95 36.3505 124.013 36.3611C124.33 36.415 124.105 36.4873 123.967 36.5416C123.788 36.6126 123.423 36.6679 123.518 36.7324C123.524 36.7364 124.035 36.7299 124.047 36.7333C124.17 36.7796 123.97 36.8245 124.118 36.8711C124.129 36.8748 124.614 36.8682 124.649 36.8742C124.722 36.8866 124.696 36.9021 124.541 36.9147C124.467 36.9211 124.051 36.9135 123.984 36.9198C123.828 36.9346 123.794 36.9499 123.871 36.9641C123.905 36.9701 124.401 36.9604 124.407 36.9683C124.454 37.0198 124.533 37.0708 123.993 37.1187C123.964 37.1215 123.933 37.1242 123.9 37.127C123.855 37.1306 122.848 37.1338 123.041 37.1414C123.321 37.142 123.65 37.142 123.949 37.1422C124.11 37.2167 123.76 37.2909 123.706 37.3652C123.704 37.3682 124.238 37.363 124.237 37.3689C124.229 37.4051 124.377 37.4381 123.846 37.4748C123.794 37.4784 122.854 37.4762 122.997 37.4872C123.022 37.4892 123.148 37.5051 123.352 37.5089C123.382 37.5095 123.821 37.5066 123.834 37.5117C123.9 37.5417 123.8 37.573 123.532 37.6026C123.488 37.6072 123.021 37.6023 122.986 37.6056C122.738 37.6298 123.093 37.6564 122.669 37.6795C122.383 37.6949 121.576 37.6894 120.782 37.6976C120.775 37.6976 120.768 37.6978 120.762 37.6979C120.758 37.6979 120.755 37.6979 120.752 37.698C120.752 37.698 120.751 37.698 120.751 37.698C120.751 37.698 120.751 37.6979 120.751 37.6981C120.751 37.6981 120.751 37.6981 120.751 37.6981C120.751 37.6981 120.751 37.6981 120.751 37.6981C120.751 37.6981 120.751 37.6981 120.751 37.6981C120.751 37.6981 120.751 37.6981 120.751 37.6981C120.751 37.6981 120.751 37.6981 120.751 37.6981C119.709 37.6981 124.223 37.6981 117.626 37.6981C117.626 37.6981 117.626 37.6981 117.626 37.6981C117.626 37.6981 117.626 37.6981 117.626 37.6981C117.626 37.6981 117.626 37.6981 117.626 37.6981C117.626 37.6981 117.626 37.6981 117.626 37.6981C117.626 37.6981 117.626 37.6981 117.626 37.6981C117.626 37.6981 117.626 37.6981 117.626 37.6981C117.626 37.6981 117.626 37.6981 117.626 37.6981C117.626 37.6981 117.626 37.6981 117.626 37.6981C117.626 37.6981 117.626 37.6981 117.626 37.6981C117.626 37.6981 117.626 37.6981 117.626 37.6981C117.626 37.6981 117.626 37.6981 117.626 37.698C117.626 37.698 117.626 37.698 117.626 37.698C117.626 37.698 117.626 37.698 117.627 37.698C117.627 37.698 117.628 37.698 117.629 37.698C117.631 37.6979 117.632 37.6979 117.634 37.6979C117.646 37.6975 117.657 37.6969 117.67 37.6965C117.694 37.6952 117.722 37.6941 117.76 37.6927C117.836 37.6901 117.956 37.6876 118.187 37.6873C119.35 37.686 120.622 37.6907 121.862 37.6888C122.128 37.6884 121.841 37.6755 122.486 37.6831C122.529 37.6836 122.743 37.6931 122.962 37.6953C123.113 37.697 123.583 37.694 123.777 37.6973C123.789 37.6976 123.799 37.6978 123.807 37.6979C123.808 37.6979 123.809 37.698 123.81 37.698C123.81 37.698 123.81 37.698 123.811 37.698C123.811 37.698 123.811 37.6979 123.811 37.6981C123.811 37.6981 123.811 37.6981 123.811 37.6981C123.811 37.6981 123.811 37.6981 123.811 37.6981C123.811 37.6981 123.811 37.6981 123.811 37.6981C123.811 37.6981 123.811 37.6981 123.811 37.6981C123.811 37.6981 123.811 37.6981 123.811 37.6981C123.811 37.6981 123.811 37.6981 123.811 37.6981C123.811 37.6981 123.811 37.6981 123.811 37.6981C128.948 37.6981 109.429 37.6981 114.565 37.6981C114.565 37.6981 114.565 37.6981 114.565 37.6981C114.565 37.6981 114.565 37.6981 114.565 37.6981C114.565 37.6981 114.565 37.6981 114.565 37.6981C114.565 37.6981 114.565 37.6981 114.565 37.6981C114.565 37.6981 114.565 37.6981 114.565 37.6981C114.565 37.6981 114.565 37.6981 114.565 37.6981C114.565 37.6981 114.565 37.6981 114.565 37.6981C114.565 37.6981 114.565 37.6981 114.565 37.698C114.565 37.698 114.565 37.698 114.565 37.698C114.565 37.698 114.565 37.698 114.565 37.698C114.565 37.698 114.565 37.698 114.564 37.698C114.563 37.698 114.561 37.6979 114.56 37.6979C114.557 37.6978 114.554 37.6977 114.552 37.6976C114.544 37.6971 114.543 37.6968 114.546 37.6964C114.552 37.6955 114.576 37.6945 114.599 37.6936C114.645 37.6913 114.686 37.6896 114.573 37.6865C114.342 37.6814 113.808 37.6837 113.744 37.6727ZM121.114 34.6136C120.666 34.6449 122.309 34.5636 121.916 34.5737C121.895 34.5743 121.136 34.612 121.114 34.6136ZM120.79 33.5597C120.067 33.6226 121.132 33.5549 121.69 33.5071C122.248 33.4591 121.009 33.5405 120.79 33.5597ZM120.253 33.4789C119.683 33.5338 122.01 33.3658 121.539 33.3857C121.512 33.3868 120.286 33.4757 120.253 33.4789ZM120.555 37.6594C120.534 37.6595 120.512 37.6663 120.534 37.6666C121.056 37.6702 121.099 37.6565 120.555 37.6594ZM119.669 33.4052C119.355 33.4331 119.719 33.4176 120.11 33.3829C120.424 33.355 120.06 33.3704 119.669 33.4052ZM119.381 35.1495C119.357 35.1507 119.335 35.1566 119.474 35.1509C119.919 35.1323 119.793 35.1304 119.381 35.1495ZM119.627 33.2102C119.542 33.2467 117.622 33.4146 117.837 33.3668C117.875 33.3581 118.45 33.3306 118.623 33.3098C118.937 33.2715 117.73 33.3584 118.376 33.2937C118.494 33.2818 119.636 33.2077 119.63 33.21C119.629 33.21 119.628 33.2101 119.627 33.2102ZM119.141 34.718C119.12 34.7193 119.099 34.7272 119.121 34.7263C119.643 34.7038 119.684 34.6878 119.141 34.718ZM118.376 35.4752C118.33 35.4772 118.287 35.4943 118.33 35.4934C119.183 35.4726 119.272 35.4371 118.376 35.4752ZM117.914 34.3288C117.389 34.3529 117.327 34.3483 117.985 34.3028C117.951 34.3121 117.946 34.3196 117.914 34.3288Z" fill="black"/>
<path d="M113.587 47.9063C113.299 47.7924 113.338 47.5843 113.458 47.3951C113.496 47.3365 113.737 47.1722 113.774 47.1248C113.848 47.0337 113.718 47.0982 113.813 46.9996C113.846 46.9661 114.225 46.7022 114.251 46.6736C114.392 46.5207 114.277 46.5616 114.338 46.4779C114.641 46.0683 114.723 45.8796 114.829 45.6628C114.865 45.5916 115.186 45.3195 115.013 45.3894C115.009 45.391 114.993 45.401 114.969 45.4161C114.873 45.4789 114.652 45.6302 114.629 45.6447C114.198 45.9197 114.879 45.4658 114.964 45.3979C115.3 45.129 115.311 45.0778 115.163 45.1381C115.099 45.1649 114.439 45.6252 114.806 45.3619C114.831 45.344 115.19 45.1067 115.226 45.078C115.307 45.0135 115.234 45.0431 115.259 45.0186C115.308 44.9699 115.304 44.9711 115.301 44.9587C115.301 44.9397 115.468 44.804 115.377 44.8443C115.357 44.8537 114.993 45.1039 114.928 45.1411C114.863 45.1782 114.885 45.1447 114.969 45.0823C115.052 45.0199 115.341 44.8281 115.406 44.7829C115.959 44.4021 115.178 44.9058 115.157 44.9169C114.81 45.102 115.229 44.7762 115.206 44.7452C115.187 44.7212 115.026 44.7945 115.03 44.7575C115.036 44.7128 115.219 44.5563 115.166 44.5519C115.161 44.5512 114.734 44.8459 114.727 44.8457C114.653 44.8444 114.675 44.7758 114.94 44.5429C114.967 44.5192 115.346 44.2673 115.396 44.2282C115.69 43.9947 116.407 43.4514 114.761 44.5579C114.815 44.4993 114.868 44.4352 115.189 44.196C115.395 44.042 115.81 43.7698 115.629 43.8789C115.588 43.9032 115.232 44.152 115.198 44.1699C115.056 44.2448 115.161 44.1482 114.966 44.2601C114.925 44.2834 114.605 44.5048 114.547 44.5436C114.073 44.8578 114.839 44.3142 114.893 44.273C115.299 43.9649 115.124 44.0636 115.121 44.0376C115.12 44.0314 114.693 44.3334 114.677 44.3382C114.6 44.3582 114.623 44.3118 114.799 44.1584C114.839 44.1236 115.209 43.8747 115.247 43.8451C115.41 43.7176 114.716 44.1939 114.859 44.0808C114.888 44.0576 115.202 43.8418 115.237 43.8176C115.773 43.4376 115.003 43.9625 114.986 43.9728C114.742 44.1141 115.533 43.5488 115.407 43.6089C115.391 43.6166 114.998 43.8965 114.978 43.9015C114.84 43.9362 114.92 43.8191 115.208 43.5576C115.252 43.5173 115.553 43.3146 115.59 43.2887C116.158 42.8831 115.387 43.4135 115.357 43.4316C115.137 43.5602 115.771 43.0969 114.849 43.7235C115.118 43.4333 114.559 43.7253 115.328 43.0839C115.337 43.0764 115.715 42.8132 115.732 42.7993C115.929 42.6299 115.345 43.0454 114.619 43.5354C114.437 43.6585 115.295 43.0398 115.357 42.9943C115.589 42.8265 116.152 42.4358 116.196 42.4028C116.545 42.1433 114.691 43.4491 114.682 43.4368C114.685 43.4342 115.027 43.1958 115.06 43.1708C115.165 43.0925 115.027 43.1846 115.142 43.0987C115.408 42.8998 116.307 42.2629 115.775 42.6209C115.706 42.6673 114.656 43.4099 114.698 43.3639C114.715 43.3449 114.684 43.3379 114.748 43.2843C114.812 43.2308 115.153 42.9958 115.168 42.9851C115.605 42.6542 115.795 42.529 116.452 42.0537C117.107 41.5801 115.533 42.6935 115.355 42.8144C115.178 42.935 115.539 42.6631 115.666 42.5697C115.792 42.4763 116.01 42.3279 116.081 42.2741C116.544 41.9223 115.294 42.8187 115.04 42.9898C114.44 43.395 115.601 42.5612 115.707 42.4688C115.736 42.4439 115.472 42.6344 115.445 42.6492C115.343 42.7056 115.702 42.4415 115.359 42.6653C115.304 42.7017 114.595 43.1882 115.105 42.8174C115.179 42.7639 115.471 42.5607 115.533 42.5099C115.626 42.4338 115.681 42.3761 115.578 42.4373C115.502 42.4826 115.028 42.8284 115.172 42.7159C115.236 42.6657 115.52 42.473 115.617 42.3952C115.715 42.3173 115.692 42.3117 115.678 42.313C115.665 42.3144 115.303 42.575 115.279 42.5919C115.137 42.6886 114.954 42.8022 114.954 42.801C114.876 42.7857 115.455 42.3051 115.221 42.4036C115.203 42.411 114.822 42.6857 114.815 42.6896C114.646 42.7913 115.67 42.0771 116.004 41.826C115.229 42.3799 115.366 42.2747 115.275 42.3265C115.23 42.3519 114.931 42.5682 114.9 42.5898C114.439 42.9086 115.025 42.4843 115.145 42.3972C115.586 42.077 115.058 42.4459 115.353 42.2317C115.645 42.0192 116.086 41.7149 116.075 41.7103C115.795 41.9058 115.074 42.4295 114.951 42.5069C114.489 42.7992 115.027 42.3493 115.072 42.2875C115.117 42.226 115.061 42.2562 115.154 42.1732C115.32 42.023 114.788 42.4151 114.532 42.5785C114.277 42.7417 115.605 41.8013 115.888 41.5959C116.171 41.3906 115.877 41.598 116.032 41.4839C116.186 41.3698 116.383 41.2364 116.438 41.189C116.493 41.1416 115.977 41.4895 115.678 41.7005C115.045 42.1477 114.388 42.6274 114.611 42.4475C114.624 42.4368 114.974 42.1903 115.007 42.1621C115.258 41.9464 115.256 41.9094 115.476 41.7151C115.506 41.688 115.895 41.4136 115.917 41.3947C116.15 41.1967 115.503 41.6718 114.771 42.1804C115.737 41.4913 116.322 41.0617 116.316 41.042C116.314 41.0302 115.894 41.334 115.593 41.5411C115.502 41.6035 115.786 41.3895 115.588 41.5305C114.938 41.9913 114.218 42.5176 114.495 42.2949C114.508 42.2844 114.864 42.0321 114.884 42.0144C115.013 41.8982 114.335 42.3826 114.241 42.4249C114.168 42.4582 114.563 42.1383 114.62 42.0749C115.703 41.2961 115.444 41.4601 114.694 41.9916C114.717 41.9597 114.668 41.9802 114.764 41.8966C114.797 41.8681 115.112 41.6445 115.146 41.6197C115.672 41.2309 114.943 41.7497 114.913 41.7682C114.621 41.9452 115.158 41.5301 114.604 41.8962C114.584 41.9093 113.832 42.4502 114.376 42.0486C114.414 42.0209 114.761 41.7815 114.78 41.7522C114.799 41.7229 115.188 41.4127 114.83 41.6497C114.743 41.7066 114.127 42.1387 114.599 41.7878C114.663 41.7402 114.879 41.5855 114.998 41.4976C115.377 41.2175 114.616 41.7636 115.257 41.2926C115.899 40.8217 116.374 40.4621 115.919 40.7694C115.906 40.7783 115.302 41.2098 115.308 41.1985C115.318 41.18 115.436 41.0792 115.427 41.0745C115.422 41.0724 115.05 41.3449 115.043 41.3492C114.816 41.4765 115.137 41.2184 115.262 41.0875C115.286 41.0629 114.767 41.4185 115.163 41.1179C115.597 40.7887 117.437 39.4713 116.983 39.7644C116.802 39.8815 114.469 41.555 115.661 40.665C115.339 40.8491 115.933 40.3709 115.483 40.6476C115.463 40.6598 114.812 41.1262 114.818 41.1164C114.829 41.101 115.13 40.8781 115.147 40.86C115.227 40.7785 114.958 40.953 114.988 40.9091C114.998 40.8928 115.313 40.667 115.326 40.6476C115.338 40.6284 114.922 40.9239 115.115 40.77C115.262 40.6527 116.1 40.0327 116.191 39.9519C115.36 40.5565 115.372 40.5378 115.145 40.6863C115.1 40.7151 114.813 40.928 114.777 40.9525C114.625 41.057 114.862 40.8786 114.697 40.9928C114.657 41.0202 114.373 41.2269 114.325 41.2609C113.902 41.5587 114.532 41.0828 114.642 41.0001C115.059 40.6857 114.688 40.9512 114.85 40.8248C115.012 40.6983 115.226 40.555 115.322 40.4753C115.521 40.3102 115.463 40.3267 115.466 40.3039C115.466 40.296 115.09 40.5757 115.081 40.581C114.977 40.6401 115.372 40.3351 114.613 40.8791C116.558 39.449 114.419 41.0104 114.798 40.7098C114.828 40.6855 115.749 40.0111 115.888 39.9172C116.027 39.8233 115.744 40.0409 115.96 39.8937C116.011 39.8591 116.882 39.2379 116.935 39.201C117.351 38.9124 115.974 39.9188 115.899 39.9745C115.086 40.5759 116.025 39.908 116.091 39.864C116.396 39.6624 116.21 39.8149 116.429 39.6726C116.57 39.5807 117.474 38.9236 117.45 38.9494C117.373 39.0351 116.118 39.9596 117.224 39.1824C117.46 39.0167 118.444 38.2942 117.678 38.8733C117.63 38.9099 116.927 39.4371 117.381 39.1162C117.438 39.0758 117.726 38.8664 117.751 38.8498C117.912 38.7427 117.686 38.9139 117.801 38.8413C117.916 38.7687 118.086 38.6584 117.994 38.7376C117.94 38.785 117.408 39.1813 117.278 39.2791C116.905 39.5607 117.53 39.1171 117.075 39.4541C116.618 39.7928 115.913 40.2929 115.623 40.5198C116.371 39.9767 117.14 39.4197 117.892 38.8738C117.883 38.9166 117.659 39.1168 117.71 39.1172C117.717 39.1167 118.117 38.8217 118.135 38.8136C118.209 38.781 117.931 39.0011 118.055 38.9324C118.153 38.8781 118.588 38.5812 118.704 38.5149C117.852 39.1428 118.155 38.9488 118.086 39.0177C118.062 39.0416 117.833 39.2071 117.76 39.2642C117.492 39.4756 118.246 38.9218 118.367 38.8387C118.886 38.4844 117.173 39.7267 117.227 39.7122C117.229 39.7119 118.15 39.061 118.208 39.0213C118.586 38.762 117.891 39.253 117.828 39.3076C117.712 39.4074 117.499 39.5725 117.776 39.3911C117.858 39.3374 118.434 38.934 117.998 39.2595C117.941 39.3022 117.638 39.5201 117.621 39.5336C117.336 39.76 118.285 39.0741 118.613 38.8492C118.94 38.6245 118.292 39.1098 118.105 39.2486C117.621 39.6079 117.893 39.3948 117.845 39.4291C117.271 39.8376 117.375 39.775 117.332 39.8163C116.401 40.4898 116.463 40.4583 117.29 39.8563C117.381 39.7906 117.29 39.8483 117.332 39.8163C118.25 39.162 118.374 39.0874 117.528 39.7153C117.131 40.0095 116.661 40.3414 116.843 40.234C116.926 40.1856 117.565 39.7199 117.745 39.6001C118.154 39.3269 117.569 39.7774 117.674 39.7242C117.712 39.7049 118.06 39.4465 118.098 39.4246C118.2 39.3657 117.943 39.5642 118.085 39.4767C118.098 39.4685 118.465 39.2013 118.471 39.201C118.531 39.1934 118.31 39.3828 118.321 39.4125C118.327 39.4266 118.545 39.3018 118.513 39.3434C118.459 39.414 117.943 39.8243 118.085 39.7486C118.177 39.7004 118.544 39.4335 118.798 39.2584C119.291 38.9189 118.433 39.5621 118.299 39.6611C118.295 39.6644 118.201 39.7164 118.016 39.8575C117.624 40.1433 118.298 39.6622 118.299 39.6611C118.213 39.7252 118.144 39.8056 118.218 39.7591C118.258 39.7337 118.606 39.4822 118.62 39.4737C118.952 39.2771 119.061 39.2409 118.917 39.3851C118.91 39.3906 118.519 39.6695 118.508 39.679C118.345 39.8188 118.831 39.4875 119.125 39.2979C119.418 39.1084 119.33 39.1871 118.665 39.6745C118.757 39.6241 118.47 39.8504 118.296 39.9871C118.122 40.1238 118.884 39.5815 118.899 39.5715C119.397 39.2503 118.97 39.5736 118.919 39.6458C118.894 39.6811 119.02 39.6248 119.112 39.5776C119.186 39.5394 119.012 39.6723 119.132 39.5999C119.148 39.5902 119.487 39.3475 119.5 39.3386C119.913 39.0595 119.08 39.6451 118.933 39.7526C118.4 40.1433 118.116 40.3519 118.378 40.1839C118.439 40.1455 119.639 39.3043 119.713 39.2599C119.806 39.2037 119.376 39.5055 119.485 39.4389C119.494 39.4335 119.758 39.2456 119.749 39.2585C119.714 39.3157 119.576 39.4479 119.618 39.4507C119.623 39.4518 120.04 39.1505 120.053 39.1472C120.117 39.132 120.117 39.165 119.935 39.3234C119.888 39.3634 119.593 39.5685 119.506 39.6313C118.983 40.0117 119.756 39.4778 119.772 39.469C120.166 39.2446 119.492 39.7632 119.848 39.5655C119.868 39.5536 120.702 38.9879 120.001 39.4933C119.955 39.527 119.238 40.0436 119.736 39.7012C119.767 39.6797 120.135 39.4131 120.103 39.4473C120.07 39.4815 120.327 39.3184 119.926 39.6167C119.799 39.7107 119.084 40.2263 119.665 39.8309C119.706 39.8032 121.015 38.9026 120.123 39.5394C119.976 39.6442 119.026 40.3114 119.521 39.9801C119.616 39.9159 119.825 39.7629 119.961 39.6756C120.171 39.5407 119.926 39.7317 120.356 39.4453C120.432 39.3946 121.082 38.9498 120.598 39.3002C120.522 39.3551 120.204 39.576 120.171 39.6044C120.012 39.7404 120.236 39.6085 120.028 39.779C119.955 39.8389 119.441 40.1958 119.308 40.2982C119.175 40.4006 119.051 40.5051 119.29 40.3471C119.528 40.1892 120.341 39.609 120.413 39.5729C120.727 39.4169 120.276 39.7931 120.235 39.8845C120.229 39.8981 120.518 39.6883 120.53 39.6938C120.576 39.7129 120.891 39.5792 120.289 40.0431C119.807 40.4138 119.406 40.6485 119.216 40.8076C119.125 40.8835 120.084 40.2303 120.115 40.2116C120.434 40.0202 120.021 40.327 120.164 40.2561C120.194 40.2413 120.578 39.9694 120.598 39.9598C120.673 39.9246 120.509 40.056 120.548 40.0448C120.566 40.0391 120.861 39.8336 120.841 39.8538C120.797 39.8998 120.68 39.995 120.41 40.1967C120.385 40.2151 120.014 40.4633 120.005 40.4803C119.992 40.5069 119.73 40.7122 120.023 40.5315C120.11 40.4771 120.786 40.0106 120.326 40.3421C120.23 40.4114 119.417 40.9692 120.125 40.4958C120.243 40.4171 121.201 39.7825 120.597 40.2119C120.439 40.3249 119.778 40.7887 119.886 40.7219C119.904 40.7111 120.265 40.4579 120.303 40.4379C120.432 40.3716 120.404 40.4143 120.529 40.3515C120.563 40.3343 120.934 40.0693 120.973 40.0519C121.08 40.0038 120.998 40.0901 120.893 40.1885C120.853 40.2251 120.538 40.4348 120.505 40.4585C119.958 40.8446 120.706 40.3376 120.751 40.3103C121.021 40.1468 120.679 40.3982 120.781 40.3483C120.808 40.3352 121.161 40.089 121.194 40.068C121.508 39.8637 120.866 40.2952 120.799 40.3482C120.61 40.498 120.649 40.4948 120.704 40.4777C120.725 40.4712 121.133 40.1834 121.147 40.1807C121.237 40.1598 121.217 40.2151 121.008 40.3977C120.968 40.4325 120.648 40.6459 120.576 40.6964C120.074 41.0498 120.773 40.5882 120.841 40.5457C121.15 40.3515 120.872 40.5472 120.931 40.5211C121.225 40.3923 121.079 40.5786 120.994 40.7009C120.887 40.8613 120.613 41.1102 120.73 41.1126C120.737 41.113 121.158 40.8237 121.17 40.8204C121.298 40.7902 121.158 40.9401 121.307 40.8961C121.318 40.893 121.717 40.6179 121.749 40.6038C121.817 40.5731 121.804 40.6002 121.682 40.697C121.624 40.7437 121.274 40.969 121.222 41.0113C121.101 41.1102 121.08 41.1419 121.153 41.11C121.184 41.0959 121.591 40.8118 121.6 40.8149C121.65 40.8271 121.713 40.8272 121.57 40.9635C121.51 41.0218 121.413 41.1045 121.263 41.223C121.228 41.2503 120.395 41.8177 120.559 41.7155C120.791 41.5591 121.064 41.3747 121.311 41.2073C121.483 41.1739 121.231 41.4249 121.219 41.5024C121.219 41.5057 121.656 41.1986 121.657 41.2032C121.665 41.2286 121.798 41.16 121.373 41.4789C121.332 41.51 120.564 42.052 120.683 41.9745C120.705 41.9604 120.812 41.8937 120.978 41.7761C121.003 41.7583 121.36 41.5028 121.371 41.4963C121.429 41.463 121.346 41.5191 121.113 41.6551C121.075 41.6776 120.706 41.9639 120.676 41.9829C120.468 42.1195 120.713 41.8529 120.3 42.0253C120.028 42.1499 119.454 42.72 118.864 43.2516C118.78 43.3265 118.759 43.33 118.433 43.6577C117.61 44.4792 116.699 45.3682 115.822 46.2434C115.638 46.4373 115.858 46.2507 115.393 46.6973C115.365 46.7304 115.183 46.8513 115.009 46.9866C114.891 47.0822 114.572 47.4282 114.412 47.5411C114.249 47.6513 114.509 47.3525 114.304 47.4654C114.095 47.5783 113.712 47.9534 113.587 47.9063ZM117.517 40.598C117.157 40.8663 118.497 39.912 118.17 40.1325C118.153 40.1443 117.535 40.5849 117.517 40.598ZM116.655 39.8455C116.075 40.2815 116.943 39.6616 117.392 39.3254C117.839 38.9896 116.831 39.7132 116.655 39.8455ZM116.154 40.0567C115.699 40.4044 117.587 39.0345 117.197 39.2996C117.175 39.3146 116.18 40.0365 116.154 40.0567ZM118.737 43.4492C118.72 43.4633 118.7 43.4724 118.717 43.4581C119.111 43.1149 119.158 43.1053 118.737 43.4492ZM115.614 40.2959C115.362 40.4852 115.664 40.2811 115.978 40.0457C116.23 39.8562 115.929 40.0605 115.614 40.2959ZM116.363 42.0051C116.343 42.0193 116.328 42.0363 116.441 41.9563C116.805 41.6984 116.698 41.7652 116.363 42.0051ZM115.47 40.1435C115.418 40.2206 113.872 41.3715 114.028 41.2163C114.056 41.1882 114.532 40.8646 114.668 40.7559C114.915 40.5578 113.932 41.2636 114.447 40.8695C114.541 40.7974 115.476 40.1366 115.472 40.142C115.471 40.1425 115.471 40.143 115.47 40.1435ZM115.911 41.7499C115.894 41.7627 115.881 41.7805 115.899 41.7681C116.326 41.468 116.352 41.4319 115.911 41.7499ZM115.707 42.841C115.67 42.868 115.644 42.9063 115.679 42.8824C116.383 42.3991 116.438 42.3196 115.707 42.841ZM114.648 42.0539C114.217 42.3542 114.162 42.3827 114.693 41.9921C114.669 42.019 114.67 42.0285 114.648 42.0539Z" fill="black"/>
</svg>
