<svg width="150" height="150" viewBox="0 0 150 150" fill="none" xmlns="http://www.w3.org/2000/svg">
<path d="M46.5946 22.6842C47.4912 22.5429 48.6839 22.7002 49.5871 22.9144C49.8712 22.9808 49.7227 23.2717 49.9138 23.3307C50.2802 23.4457 50.6718 23.3046 51.025 23.4414C51.1478 23.4881 50.9922 23.9492 51.1213 23.9877C51.8523 24.1954 52.5105 24.0814 53.2463 24.184C56.8289 24.6898 60.3148 24.8915 63.9471 25.1376C65.1287 25.2182 66.5749 25.6524 67.8172 25.4829C67.9634 25.4627 67.8809 25.0565 67.909 25.0234C68.3493 24.5168 68.1908 25.3334 68.4681 25.4452C69.5689 25.8869 70.8051 25.9389 71.8822 25.7957C72.3437 25.7337 71.8918 24.9229 72.3504 25.3805C72.3813 25.4115 72.2623 25.8405 72.3846 25.8879C72.6613 25.9946 73.1956 25.9244 73.415 25.9613C73.8374 26.0347 73.9079 26.0313 74.3124 26.0414C74.8649 26.0591 75.4958 26.2815 76.0896 26.192C76.2158 26.1716 76.055 25.7281 76.257 25.6558C76.4586 25.5835 76.9959 25.6283 77.1662 25.7347C77.3411 25.8412 77.2612 26.187 77.2913 26.2669C77.5383 26.9414 78.1618 26.0208 78.2415 25.9989C79.7014 25.628 80.9034 26.1753 82.2538 26.1945C83.2667 26.2078 84.3814 26.0506 85.3419 26.0901C86.5055 26.1393 87.477 26.3947 88.6058 26.3729C88.7252 26.3711 88.5942 25.85 88.7402 25.8467C90.2832 25.8128 91.829 25.897 93.3408 26.2752C93.4939 26.3136 93.2874 26.7654 93.4398 26.831C93.8699 27.0115 94.4169 27.3056 94.9433 27.3777C95.5765 27.4621 96.1451 27.2483 96.4976 26.1906C97.1445 26.2901 97.9584 26.4099 98.5129 26.8474C98.8821 27.1302 98.4781 27.5994 98.9542 27.4213C99.0603 27.3819 98.9593 26.9384 99.1166 26.9124C99.8076 26.8059 100.524 27.0177 101.235 26.8879C101.384 26.8611 101.399 26.4702 101.45 26.4065C101.869 25.8901 102.301 26.9166 102.415 27.0096C103.276 27.709 103.982 27.6322 105.076 28.2004C105.343 28.355 105.276 27.7126 105.559 27.8606C106.121 28.1634 106.966 28.8086 107.361 29.9188C107.746 31.0309 107.514 31.905 107.38 32.3313C107.311 32.5222 107.234 32.7091 107.148 32.8907C107.052 33.0895 106.657 32.8058 106.589 32.8951C106.294 33.2837 107.093 33.5653 106.817 33.9442C106.759 34.0236 106.4 33.8845 106.356 33.8907C105.658 33.9816 106.507 34.419 106.51 34.4902C106.571 35.3757 105.489 35.6189 105.39 36.408C105.378 36.5038 105.903 36.442 105.842 36.7038C105.435 38.4506 104.651 40.1623 103.657 41.6132C103.503 41.8394 103.236 41.5278 103.189 41.527C102.439 41.521 103.242 42.0317 103.242 42.1261C103.221 42.8569 102.253 43.1486 103.108 43.9991C101.784 46.2988 101.249 48.8204 99.8672 50.9835C99.7069 51.2746 99.5156 51.5449 99.303 51.7832C99.274 51.817 98.8908 51.5507 98.8362 51.6154C98.1575 52.3488 98.8728 52.5088 99.1811 53.607C99.2448 53.8986 98.0882 53.6496 98.0071 53.6214C97.6873 53.5573 97.2687 52.9905 97.1933 52.9941C96.6087 53.0041 98.3466 54.4706 97.9084 54.9249C97.8927 54.9355 97.6507 54.5865 97.586 54.593C97.386 54.6104 97.3915 54.8372 97.1831 54.8374C96.7045 54.8313 95.8919 54.0849 95.9449 54.8838C95.9505 54.9866 96.8585 55.9095 96.4137 56.1941C96.238 56.3098 95.5208 56.8817 95.269 56.9536C95.016 57.0316 94.9171 56.5932 94.8917 56.5893C94.0327 56.5223 94.1135 56.1871 93.3954 55.6944C92.687 55.1955 93.8232 56.7544 93.8297 57.0077C93.8365 57.2608 93.1838 57.1407 93.0062 57.0652C92.8253 56.9926 92.8077 56.6934 92.6744 56.6715C91.7977 56.5281 92.9184 57.6444 92.8831 58.024C92.7884 58.9261 91.7012 57.9022 91.216 58.0134C91.084 58.0437 91.3355 58.2763 91.2485 58.3596C90.8973 58.6871 90.4444 58.4252 90.1698 59.0329C90.1273 59.1309 90.1421 60.0931 89.6068 59.658C89.5308 59.5947 89.4664 59.2275 89.2558 59.2454C88.9406 59.2722 88.436 59.4377 88.2063 59.6829C88.0365 59.8644 88.5342 60.2743 88.1908 60.2393C88.0383 60.2231 88.1038 59.8091 87.8305 59.804C87.5586 59.7986 87.0082 60.0793 86.8004 60.1903C86.5932 60.3016 86.8995 60.6494 86.8952 60.6846C86.8647 60.8893 86.5455 61.276 86.5087 61.2923C85.0581 62.0163 83.484 62.1973 82.0569 62.7631C81.7198 62.896 81.3927 63.064 81.0835 63.2765C80.9608 63.3603 81.2623 63.7336 81.2458 63.7507C80.8957 64.1538 80.6695 62.8636 80.1538 62.6633C80.6475 63.4803 80.38 63.4256 80.1146 63.6916C79.987 63.8207 80.2493 64.0973 80.2537 64.138C80.3051 64.7507 79.7953 64.2082 79.6807 64.1029C79.2614 63.7147 79.4179 64.3671 79.1348 64.11C78.8518 63.8561 78.8204 63.2556 78.5175 63.4386C78.603 63.7832 79.2751 64.4241 79.1171 64.6826C78.5354 65.6584 76.4638 66.0389 75.6016 66.2822C75.2132 66.4044 74.9391 66.4896 74.7055 66.5517C74.4065 66.6299 74.1742 66.6679 73.8602 66.6439C72.8405 66.5081 73.2444 67.1367 72.521 67.4014C71.7747 67.6135 72.3808 66.0456 72.3449 65.6893C72.3337 65.3329 72.1914 65.6724 72.1405 65.4649C72.0978 65.2586 72.3236 65.0654 72.1527 64.9528C71.9995 64.851 71.285 65.27 71.0694 65.5743C70.632 66.2333 70.6089 67.1101 70.0977 66.5828C70.0707 66.5523 70.3525 66.2092 70.242 66.1128C69.3677 65.3576 68.4834 64.7654 67.7968 63.9521C67.7033 63.8395 68.0745 63.5161 68.0236 63.4464C67.5058 62.7217 67.2936 63.5484 66.4002 64.0113C67.1696 63.1016 67.3766 62.3609 66.8639 61.9858C66.5531 61.7579 66.3076 62.2193 65.8912 62.3703C65.7652 62.4155 65.7518 61.9682 65.5701 62.1379C64.9748 62.6916 64.6631 63.5645 64.3356 62.8947C64.3221 62.8644 64.6492 62.562 64.5839 62.4831C64.1579 61.9688 63.6155 62.605 62.9971 62.299C62.5112 62.0578 62.0089 61.1089 61.5372 60.712C62.269 59.5956 61.5993 59.5335 60.9207 60.1975C60.5998 59.9561 60.2116 59.7859 59.9433 59.4853C59.8514 59.3827 60.1178 59.0902 60.1242 59.0458C60.2246 58.3489 59.6299 59.0423 59.5391 59.032C58.9413 58.9407 58.5804 58.5524 58.1247 58.3117C57.8288 58.1559 57.507 58.0547 57.0703 58.1106C57.0312 58.1166 56.5407 58.9061 56.6416 58.1904C56.6503 58.1419 57.122 57.9197 56.7527 57.6799C56.3776 57.4373 55.9312 56.6015 55.1891 56.6237C55.0131 56.6325 54.2597 57.0318 54.3486 56.37C54.362 56.2812 54.5538 56.092 54.5937 55.9382C54.7248 55.4505 54.0773 56.1362 54.3891 55.3716C54.6986 54.6035 54.7745 53.9091 53.9933 53.9323C53.9709 53.933 53.3598 54.3791 53.2304 54.2351C53.0259 54.0079 52.8482 53.5905 52.6452 53.3558C52.5471 53.2431 52.2547 53.6116 52.2314 53.597C51.6811 53.1897 51.444 52.6638 51.2678 52.0869C51.2581 52.0727 51.2397 52.0263 51.2333 52.0103C51.2109 51.6673 51.1983 51.3075 51.1424 50.9089C51.1158 50.7119 50.3465 50.3522 50.7107 49.8395C51.1105 49.2808 53.3991 49.0375 52.6114 48.2813C52.2966 47.9773 49.4006 48.3053 50.6378 47.2205C49.9115 46.0169 50.3169 44.6091 49.4591 43.4325C49.4209 43.3795 48.5969 43.399 48.5704 43.2561C48.5327 43.0443 48.8653 42.8368 48.8501 42.6823C48.7966 42.0366 48.3385 41.5508 48.2312 40.9423C48.1897 40.7114 48.5853 40.6938 48.5356 40.4175C48.4858 40.1426 47.9454 40.0909 48.0883 39.664C48.1976 39.34 49.1338 38.8005 49.1545 38.4017C48.1567 38.6498 48.1108 38.3915 47.7301 38.015C47.6564 37.9424 47.335 38.1266 47.2823 38.097C47.0601 37.9787 47.3062 37.7508 47.0703 37.6456C47.0135 37.6198 46.6738 37.7089 46.6083 37.6931C46.0384 37.5634 46.6832 36.9231 46.7954 36.8122C47.221 36.3877 46.7439 36.3749 46.8814 36.1003C47.0187 35.8255 47.3576 36.086 47.4065 35.7954C47.474 35.3945 47.3849 34.9599 47.2757 34.556L47.2883 34.6117C47.2588 34.4121 47.2277 34.2163 47.209 34.0349C47.1849 33.8177 46.7394 34.0251 46.7252 33.9955C46.5476 33.5472 47.0001 33.0387 46.0474 32.8647C48.4249 32.3365 45.7879 32.6055 46.221 31.8996C46.2563 31.8441 47.3905 31.7009 47.5715 31.8851C47.7524 32.0683 47.4194 32.3935 47.7033 32.6411C47.7697 32.7026 48.8682 32.9607 48.9376 32.9985C49.4787 33.3131 47.7917 33.5556 47.7008 33.5891C46.7229 33.9435 47.9276 34.2425 48.0234 34.3313C48.0688 34.378 48.108 34.4249 48.1419 34.4703L48.1071 34.3163C48.4589 34.7224 48.4124 35.1807 48.7492 35.5219C48.9933 35.7732 50.0782 35.5049 50.1094 35.7486C50.2122 36.5563 48.7769 37.2243 50.2758 37.6041C50.5955 37.6856 51.7361 37.2208 50.9543 38.0232C50.9052 38.0741 50.1639 38.7101 50.7639 38.8083C50.8396 38.8207 51.1837 38.7296 51.223 38.7617C51.4791 38.9767 51.2514 39.227 51.4576 39.4793C51.6642 39.7333 51.9501 40.0273 51.9189 40.3855C51.9003 40.6003 51.3254 41.0226 51.1928 41.1572C50.8102 41.5421 51.6268 41.633 51.1225 41.9416C50.616 42.2532 49.6941 42.1471 49.4539 42.6786C50.3522 42.4588 51.2796 42.2536 52.1855 42.0419C52.4053 43.0012 52.3667 44.0121 52.6669 44.9472C52.705 45.0629 53.1511 44.8108 53.2043 44.9312C53.4266 45.4384 53.2148 45.9957 53.5065 46.5028C53.7345 46.8963 54.3734 47.2091 54.6296 47.6083C53.6937 48.1757 54.2329 48.7252 54.2852 49.2239C54.3039 49.3983 54.0305 49.4706 53.9787 49.6155C53.791 50.1612 54.6191 49.6744 54.7972 49.7515C55.4847 50.0487 53.9165 50.6312 53.7895 51.1875L53.5779 50.7176C53.5725 50.7698 53.5832 50.8173 53.614 50.8577C53.6345 50.89 54.7532 50.5423 54.8283 50.5246C55.3471 50.468 54.5288 50.783 54.5578 50.9672C54.6134 51.3013 54.5538 51.6593 55.0514 51.7174C55.2023 51.7383 55.8703 51.4212 55.6394 51.9525C55.6101 52.0231 55.3409 52.2817 55.3427 52.3136C55.4115 52.8771 56.2078 52.01 56.6293 51.8479C57.046 51.6813 56.8301 52.5333 56.7624 52.7722C56.5719 53.3809 56.4802 52.8842 56.4372 52.9244C55.9027 53.4021 56.2084 53.485 56.3627 53.6679C55.7177 54.6203 56.0475 54.766 56.5268 53.8534C56.5795 53.7544 56.3693 53.7376 56.3627 53.6679C57.1878 52.8725 57.5071 52.9191 57.2804 54.0221C57.1775 54.5391 56.7164 54.9361 57.3404 55.0655C57.6228 55.1215 57.9329 54.3865 58.2397 54.314C58.8877 54.158 59.1609 54.9876 59.6607 55.2293C59.7039 55.2503 59.7478 55.2679 59.7928 55.2814C60.0248 55.3512 60.0124 54.8598 60.1787 54.895C60.6208 54.9882 60.8088 55.4552 61.267 55.5165C61.309 55.5217 61.4425 55.0779 61.5642 55.1382C62.4996 55.595 63.1204 56.3048 64.0052 56.8783C64.4312 57.1527 65.3301 57.4497 65.7276 57.7845C66.4273 58.3647 66.9262 59.5316 67.6141 59.8278C68.0645 60.0244 68.2393 59.5919 68.5849 59.4594C69.2529 59.2018 69.1765 60.4609 69.1556 60.6482C69.1534 60.6536 68.7724 60.5164 68.8098 60.8271C68.6308 61.2941 69.1509 60.6474 69.1556 60.6482C69.1452 60.7734 69.7248 61.2971 69.8925 61.3021C69.9859 61.3074 70.1862 60.9247 70.2302 60.934C71.2647 61.16 72.0492 61.4818 72.512 61.8632C72.5185 61.8749 72.3375 62.3202 72.357 62.3427C72.6391 62.6713 72.9854 62.1289 73.0933 61.7866C73.2056 61.4407 73.1092 61.5645 73.3521 62.3617C73.3748 62.3237 73.4096 62.3298 73.4616 62.3576C73.6435 62.398 73.9282 62.5253 74.1389 62.6014C74.4526 62.7097 74.1048 61.8374 74.1141 61.8136C74.4547 61.0033 75.0899 61.2603 75.9147 60.8843C76.3038 60.7083 77.0169 60.1339 77.4257 59.7868C77.7457 59.5119 78.0742 59.5808 78.3574 59.2705C78.3961 59.2287 78.1524 58.8867 78.1594 58.8648C78.3278 58.2124 78.6087 59.2157 78.7741 59.3342C79.3775 59.7672 79.7023 59.9936 80.0885 59.4672C80.1455 59.3905 80.0603 58.7591 80.058 58.2574C80.0368 57.9785 80.0356 57.7443 80.0934 57.6845C80.3008 57.4734 80.419 57.9958 80.6312 57.7623C80.6494 57.7427 80.513 57.4487 80.6804 57.3899C81.4572 57.1122 82.3457 56.9209 83.0964 56.542C83.1994 56.4913 82.852 56.0849 82.9969 56.0042C83.6762 55.6262 84.4442 55.2882 85.2153 55.1833C85.4061 55.1588 85.4597 55.5326 85.542 55.6116C86.0449 56.0869 85.943 55.0903 85.9849 55.0495C86.9856 54.0506 88.2849 54.3341 89.2288 53.3267C89.282 53.2695 89.2313 52.132 89.8768 52.7492C89.9189 52.791 90.5891 53.4177 90.4446 52.7946C90.4351 52.7558 90.0715 52.4473 90.3089 52.3524C90.5495 52.2551 90.7098 51.7879 91.2642 52.0125C91.4361 52.0854 92.1647 52.6534 92.0023 51.8999C92.0029 51.8398 91.3896 50.3119 92.1863 51.0763C92.317 51.202 93.0289 52.1227 92.9253 51.4353C92.9015 51.3045 92.6457 51.1821 92.6698 50.9496C92.696 50.6005 93.1543 50.6026 92.9746 50.0479C92.9465 49.9464 92.492 49.2837 93.0168 49.5912C93.1008 49.6374 93.3643 49.9248 93.4458 49.8971C93.842 49.7575 93.7897 49.3696 94.0994 49.3456C94.2114 49.3309 94.7619 49.6331 94.9517 49.6193C95.0573 49.6124 95.1726 49.5701 95.2045 49.5099C95.2661 49.3474 95.2806 49.1752 95.1984 49.0216C95.0125 48.6715 93.9695 48.6444 94.0261 48.2233C94.2811 46.3823 95.465 44.9899 96.1719 43.4797C96.2773 43.2554 95.8693 43.3095 96.0006 42.9704C96.4885 41.7102 97.0291 39.5282 98.1281 38.7933C99.0135 38.1959 99.0427 39.3963 99.5179 38.8566C99.7468 38.5926 98.7857 37.8537 98.7781 37.7698C98.695 36.9362 99.3527 36.6267 99.4196 35.9457C99.4327 35.8059 98.9444 35.7807 98.96 35.6643C99.0088 35.2667 99.335 34.9428 99.4082 34.5778C99.4398 34.414 99.0874 34.3377 99.1578 34.2018C99.3218 33.875 99.554 33.6153 99.9712 33.3664C100.009 33.343 100.383 33.6716 100.47 33.416C100.608 33.0048 101.063 32.556 100.835 31.9987C100.766 31.8327 99.9652 31.6574 100.582 31.4736C100.711 31.4355 101.663 31.7082 100.896 31.1884C100.873 31.1729 100.822 31.134 100.757 31.0802C100.604 30.9963 100.35 30.923 100.203 31.1435C100.051 31.3399 100.078 31.9038 100.488 32.1925C100.745 32.4141 101.712 32.5798 101.803 32.8589C101.82 32.9094 101.347 33.0368 101.516 33.2972C101.824 33.7283 102.011 33.8207 102.037 33.8656C102.069 33.9059 101.976 33.8886 101.836 33.9196C101.757 33.9357 101.726 34.4019 101.619 34.4143C101.328 34.4479 100.758 34.2211 100.267 34.0129C100.082 33.9343 100.264 33.5771 100.255 33.5344C100.119 32.8418 99.8612 33.7215 99.7785 33.7651C99.2742 34.026 98.9232 33.5695 98.4437 33.6465C98.3122 33.6668 98.3731 34.103 98.3446 34.1394C98.0505 34.4948 98.305 33.7374 98.1368 33.6405C97.6716 33.3675 97.1218 33.3738 96.607 33.4084C96.4182 33.4218 96.6061 33.9289 96.4436 33.9355C95.9192 33.9621 95.3782 33.9546 94.82 33.8976C94.3277 33.8488 93.8425 33.7612 93.3748 33.626C93.1834 33.5698 93.3115 33.1876 93.2731 33.0991C93.0078 32.4797 92.5893 33.3102 92.4953 33.3883C92.0694 33.7451 91.9079 33.4021 91.5293 33.4587C89.6881 33.7415 87.4443 33.4779 85.7095 33.3104C83.4803 33.095 81.7158 32.7019 79.5738 32.7656C79.4386 32.7691 79.5673 33.2825 79.4508 33.2922C77.9219 33.3932 76.4335 33.1726 74.9127 33.3002C74.789 33.3098 74.9606 33.797 74.7619 33.8287C74.362 33.8971 73.8216 33.8638 73.4111 33.7037C73.2093 33.6265 73.4865 33.2139 73.2833 33.1447C72.8072 32.9827 72.3189 32.942 71.8156 33.0135C71.6054 33.0451 71.9156 33.5448 71.6432 33.5472C69.816 33.574 67.9902 33.6385 66.1508 32.9768C66.0277 32.9314 65.9237 31.9223 65.6467 32.1127C65.6231 32.3922 65.6208 32.7212 65.6087 33.0201C62.9301 33.1533 60.276 32.7796 57.5988 32.705C57.4874 32.702 57.6757 33.2374 57.4603 33.2343C56.179 33.2167 54.9658 33.3562 53.6619 32.8173C53.5342 32.7646 53.6031 31.8255 53.2299 31.9654C53.173 31.9909 52.585 32.1128 52.4373 32.3159C52.4171 32.3466 52.5188 32.7857 52.3346 32.7974C51.2732 32.8581 50.1482 32.7525 49.0791 32.4803C48.9093 32.4355 49.0918 31.9693 48.9714 31.9334C48.0959 31.682 47.1589 32.034 46.3231 31.6083C45.7951 31.3218 45.9603 30.5149 45.6839 29.7199C45.668 29.6638 45.5702 29.6312 45.4684 29.5549C45.3688 29.4785 45.3093 29.3585 45.283 29.1273C45.2383 27.9648 45.4034 26.692 45.3402 25.4528C45.3082 25.1859 44.8734 25.4732 45.1373 24.8283C45.1407 24.8067 45.2215 24.7425 45.3337 24.6563C45.4142 24.5701 45.5274 24.462 45.5758 24.3527C45.6394 24.2015 45.534 23.7312 45.6496 23.5377C45.7504 23.3444 45.8981 23.7387 46.091 23.5116C46.2768 23.2816 46.1905 22.7466 46.5946 22.6842ZM75.6869 62.9524C76.1527 63.212 75.3978 61.7498 75.3253 62.2359C75.3229 62.261 75.6637 62.9397 75.6869 62.9524ZM51.1694 44.3295C50.5737 44.9053 51.6749 44.8865 52.1416 44.4686C52.6084 44.053 51.3499 44.1546 51.1694 44.3295ZM49.5965 40.4549C49.1614 41.0531 51.4371 40.5355 50.854 40.1685C50.8209 40.147 49.6217 40.42 49.5965 40.4549ZM47.0598 29.4965C47.0534 29.4747 46.7988 29.4527 46.7949 29.4744C46.6586 29.9965 47.1655 30.04 47.0598 29.4965ZM47.9819 36.6008C47.7159 36.8249 48.1776 37.1384 48.5091 36.8603C48.7755 36.6355 48.3127 36.321 47.9819 36.6008ZM90.8129 57.3188C90.8289 57.3381 90.9944 57.2704 90.9234 57.1513C90.6931 56.769 90.5428 56.9975 90.8129 57.3188ZM46.9748 29.8113C46.9424 30.8461 45.0577 31.5955 45.2093 30.4454C45.2372 30.2382 45.8476 30.8535 46.0064 30.5825C46.2957 30.0888 45.0712 29.8373 45.6924 29.3178C45.8062 29.2231 46.9809 29.7518 46.9776 29.813C46.9767 29.8124 46.9758 29.8119 46.9748 29.8113ZM76.772 64.6123C76.7874 64.629 77.0146 64.5282 77.0087 64.5065C76.8711 63.9863 76.4231 64.1842 76.772 64.6123ZM99.1803 50.8939C99.1931 50.8939 99.2201 50.852 99.2509 50.7887C99.3278 50.6398 99.4381 50.3515 99.4127 50.3286C98.9316 49.9602 98.571 50.3192 98.6713 50.6055C98.7191 50.7493 98.8693 50.8877 99.1803 50.8939ZM61.5483 60.6768C61.0432 60.9776 60.7544 60.8702 60.9214 60.1987C61.1248 60.3647 61.3437 60.5079 61.5483 60.6768Z" fill="black"/>
<path d="M61.9179 85.6837C61.7894 85.0192 61.9766 84.1786 62.22 83.5541C62.2955 83.3587 62.5813 83.475 62.6468 83.3402C62.7747 83.0756 62.6462 82.8262 62.7978 82.566C62.8493 82.4832 63.3034 82.6189 63.3469 82.5316C63.5821 82.05 63.4985 81.569 63.6358 81.0766C64.3164 78.6414 64.7619 76.2607 65.3877 73.8012C65.5941 72.9882 66.1936 72.0737 66.2005 71.1881C66.2011 71.0837 65.7921 71.0561 65.7637 71.0299C65.3309 70.6187 66.1076 70.8962 66.2574 70.7275C66.8515 70.0532 67.1036 69.2238 67.1752 68.4374C67.2061 68.0998 66.3387 68.1854 66.8697 67.9945C66.9057 67.9815 67.2922 68.1887 67.3628 68.116C67.5201 67.9552 67.5708 67.5523 67.655 67.4134C67.8192 67.1452 67.8346 67.089 67.9408 66.8152C68.0325 66.5872 68.2172 66.3453 68.3614 66.1056C68.454 65.9491 68.5336 65.7883 68.5718 65.6153C68.5925 65.5176 68.1367 65.4517 68.1357 65.2757C68.1338 65.0989 68.358 64.7312 68.5187 64.6524C68.678 64.5735 68.9554 64.7912 69.0373 64.8064C69.7176 64.9513 69.1483 64.0823 69.171 64.0048C69.4854 62.9472 70.1316 62.3073 71.7951 61.4991C72.1053 61.3692 72.4657 61.2646 72.849 61.2185C75.2713 61.0745 76.2935 62.52 76.8151 63.3157C76.9549 63.5597 77.059 63.7998 77.142 64.0358C77.3218 64.6177 77.4108 65.1739 77.6691 65.7177C77.7038 65.7919 78.1472 65.5059 78.1906 65.5968C78.6527 66.5662 78.9702 67.5521 79.0107 68.631C79.0142 68.7391 78.5418 68.7799 78.5199 68.8978C78.3947 69.6157 77.9156 70.8671 79.8961 70.481C79.9767 70.897 80.0892 71.3932 79.8598 71.8886C79.7123 72.2074 79.1647 72.1802 79.4731 72.3733C79.5421 72.417 79.9108 72.1712 79.9839 72.2488C80.2904 72.574 80.3375 73.0479 80.7076 73.3354C80.7836 73.3931 81.1314 73.2164 81.2051 73.2097C81.8029 73.1603 81.0772 73.8385 81.0449 73.9326C80.805 74.6392 81.1578 74.9223 81.3661 75.3821C81.4146 75.4893 81.8248 75.1364 81.888 75.2304C82.2091 75.7192 82.4394 76.2684 82.5034 76.8749C82.5169 77.0108 82.0699 77.121 82.0565 77.1973C82.0047 77.5338 82.7693 77.1774 82.7345 77.4869C82.7284 77.5518 82.3814 77.7131 82.3497 77.7422C81.8545 78.2027 82.7311 77.8576 82.7679 77.8803C83.2585 78.1665 82.5898 78.941 82.9681 79.2843C83.0138 79.3239 83.3525 78.9566 83.4553 79.0824C83.8885 79.6083 84.2601 80.1917 84.5694 80.8182C84.623 81.0131 84.7007 81.2407 84.8382 81.5052C84.8995 81.6165 84.6364 81.8775 84.6161 81.9177C84.3659 82.5874 84.932 81.8314 84.9756 81.815C85.3482 81.7342 85.4134 82.5934 85.9841 81.6045C87.3132 82.412 89.1839 81.8292 91.0207 82.7694C91.045 82.7802 91.0171 83.2422 91.0658 83.2616C91.6423 83.4997 91.5085 82.7871 91.8394 81.8947C91.9187 81.6707 92.2594 82.7114 92.2909 82.7871C92.4004 83.067 92.3423 83.757 92.3768 83.8104C92.6642 84.2289 92.492 81.9681 92.8319 81.9458C92.8429 81.9489 92.8246 82.3683 92.8561 82.4078C92.9546 82.532 93.0332 82.3606 93.1317 82.4979C93.356 82.8158 93.5138 83.9093 93.7778 83.2471C93.8113 83.1611 93.6562 81.8833 93.9708 81.9204C94.0971 81.9365 94.6451 81.8711 94.806 81.9413C94.9673 82.0116 94.8951 82.4333 94.9075 82.4503C95.3707 82.9621 95.2327 83.2013 95.5097 83.9923C95.7869 84.7801 95.5669 82.864 95.6339 82.6424C95.7008 82.4214 96.0466 82.8457 96.1362 82.9958C96.2256 83.1459 96.1534 83.4164 96.2285 83.4993C96.7234 84.0403 96.3415 82.5291 96.4616 82.2117C96.7438 81.4602 97.1403 82.8609 97.4671 82.9734C97.556 83.0038 97.4582 82.6853 97.532 82.6485C97.8246 82.5067 98.0466 82.9355 98.356 82.4993C98.4064 82.4282 98.616 81.5483 98.849 82.1623C98.882 82.2509 98.8379 82.6119 98.974 82.681C99.1771 82.7847 99.5303 82.835 99.7296 82.7005C99.8768 82.601 99.656 82.029 99.8639 82.1962C99.9563 82.2709 99.8222 82.6253 99.9932 82.7373C100.163 82.8491 100.572 82.8048 100.727 82.7825C100.883 82.7598 100.767 82.3213 100.778 82.2905C100.843 82.1138 101.131 81.8798 101.158 81.8787C102.508 81.7391 103.781 82.4344 105.093 82.1776C105.197 82.1582 105.125 81.689 105.141 81.6812C105.499 81.4833 105.221 82.7324 105.465 83.1503C105.431 82.1974 105.575 82.3696 105.826 82.2674C105.948 82.2175 105.886 81.8479 105.897 81.8102C106.086 81.2518 106.202 81.9781 106.231 82.1267C106.338 82.6735 106.481 82.033 106.552 82.3992C106.622 82.7626 106.426 83.293 106.66 83.2928C106.738 82.9539 106.585 82.0574 106.774 81.9186C107.007 81.7473 107.304 81.7132 107.612 81.752C108.316 81.8291 109.087 82.2944 109.53 82.5289C110.183 82.8726 110.574 83.1146 110.741 83.7611C110.829 84.3445 110.851 84.4718 111.03 84.6184C111.189 84.7534 111.429 84.8806 111.47 85.2684C111.512 86.0227 110.14 85.0333 109.793 84.9679C109.458 84.8603 109.759 85.0629 109.561 85.0245C109.368 84.9764 109.21 84.7711 109.094 84.8302C108.994 84.8711 109.294 85.5144 109.53 85.7982C109.552 85.8217 109.574 85.845 109.596 85.8679C110.117 86.4059 110.792 86.7498 110.317 86.8885C110.289 86.8958 110.013 86.5595 109.921 86.6007C109.205 86.9319 108.676 87.4332 107.966 87.6765C107.869 87.7088 107.615 87.2974 107.556 87.3113C106.938 87.4462 107.616 87.919 107.936 88.8136C107.235 87.8532 106.644 87.4045 106.319 87.65C106.121 87.7979 106.471 88.1821 106.558 88.5742C106.584 88.693 106.226 88.5158 106.344 88.7312C106.727 89.438 107.398 90.0548 106.811 90.0392C106.785 90.0371 106.584 89.6451 106.512 89.6638C106.05 89.779 106.481 90.4942 106.127 90.8527C105.851 91.1337 105.008 91.0695 104.606 91.2206C103.909 90.0837 103.738 90.5479 104.079 91.4175C103.826 91.5277 103.6 91.7248 103.31 91.7506C103.211 91.7599 103.063 91.3983 103.031 91.3684C102.545 90.8966 102.904 91.7246 102.872 91.7846C102.505 92.402 101.715 92.0839 101.549 92.961C101.543 92.9926 101.997 93.8009 101.509 93.3064C101.475 93.2722 101.424 92.8095 101.167 92.9285C100.913 93.046 100.197 92.9062 100.102 93.4784C100.078 93.6167 100.292 94.3737 99.8132 93.9858C99.7483 93.933 99.6251 93.6959 99.5131 93.5926C99.1535 93.2654 99.6195 94.0802 99.0606 93.4971C98.5018 92.9141 97.9102 92.594 97.8938 93.2775C97.8922 93.2983 98.2441 93.9585 98.137 94.0208C97.964 94.1208 97.6461 94.1622 97.4816 94.2923C97.4033 94.3546 97.7323 94.6839 97.7236 94.701C97.3579 95.3035 96.7436 95.2691 96.0852 95.6066C96.0068 95.6463 96.0372 95.9621 95.9303 96.1247L95.9914 96.0545C95.9533 96.1552 95.8644 96.2214 95.6699 96.1955C95.0632 96.1164 93.365 94.5938 93.4443 95.4262C93.4753 95.76 95.6451 97.6692 94.1579 97.2008C93.9424 98.1529 92.8407 98.3939 92.7412 99.4336C92.7363 99.4804 93.3118 100.052 93.2459 100.125C93.1475 100.231 92.799 100.073 92.7189 100.142C92.3776 100.419 92.405 100.923 92.119 101.224C92.0117 101.338 91.7331 101.063 91.605 101.198C91.477 101.333 91.809 101.74 91.4603 101.792C91.1947 101.83 90.254 101.344 90.0072 101.464C90.8131 102.102 90.6914 102.225 90.7135 102.635C90.7179 102.714 91.0379 102.886 91.0544 102.935C91.1277 103.14 90.8287 103.039 90.9174 103.249C90.9383 103.3 91.2112 103.521 91.2434 103.575C91.4498 103.917 91.0789 103.877 90.8091 103.807L90.8286 103.783C90.7268 103.759 90.6381 103.732 90.5997 103.721C90.0648 103.563 90.3768 103.91 90.123 103.909C89.8678 103.911 89.7925 103.577 89.5869 103.648C89.159 103.8 88.9331 104.23 88.7108 104.534C88.6238 104.657 89.0706 104.832 89.0672 104.855C88.9953 105.177 88.4073 105.165 89.0955 105.818C86.9564 104.68 89.1905 106.101 88.546 106.207C88.4941 106.215 87.5115 105.632 87.4442 105.428C87.3757 105.226 87.7868 105.248 87.6694 104.95C87.6419 104.88 86.8858 104.082 86.8521 104.015C86.5811 103.506 88.0258 104.414 88.1115 104.454C89.0431 104.878 88.2571 103.982 88.2392 103.867C88.151 103.346 88.5362 103.213 88.5161 102.796C88.5053 102.524 87.6194 101.843 87.7535 101.72C87.8126 101.666 87.8884 101.633 87.9732 101.614C87.9881 101.598 88.0254 101.544 88.041 101.528C88.5491 101.484 89.4668 101.964 88.8017 100.915C88.6379 100.657 87.6144 99.9841 88.5927 100.291C88.6538 100.311 89.516 100.632 89.1706 100.168C89.127 100.11 88.8437 99.8946 88.8357 99.8558C88.7866 99.6013 89.0827 99.68 89.0887 99.4463C89.0943 99.213 89.0684 98.9093 89.295 98.8061C89.4308 98.7441 90.0653 99.0008 90.2339 99.0454C90.7179 99.1766 90.2128 98.5679 90.7357 98.8118C91.2628 99.0548 91.8302 99.7444 92.3047 99.7168C91.5627 99.1649 90.8091 98.5875 90.0663 98.0278C90.47 97.526 91.0842 97.1795 91.4275 96.6221C91.4694 96.5522 91.0153 96.3336 91.0498 96.2514C91.1955 95.9075 91.6694 95.8489 91.772 95.4555C91.8503 95.1491 91.6019 94.5844 91.6691 94.2548C92.6386 94.6998 92.6127 94.1292 92.8757 93.9052C92.977 93.7863 93.2505 93.4243 93.3759 93.3313C93.3785 93.3298 93.3811 93.3283 93.3838 93.3269C93.507 93.2598 93.6899 93.4756 93.8221 93.4806C94.3145 93.4982 93.5702 92.9096 93.5477 92.733C93.4643 91.9728 94.8687 93.5558 95.1984 93.216C95.2144 93.1997 94.7507 92.124 94.7441 92.04C94.6802 91.5062 95.0243 92.3187 95.2125 92.2766C95.5568 92.2008 95.8873 92.2873 95.9846 91.8042C96.0102 91.6634 95.8086 90.94 96.2951 91.2615C96.3586 91.3037 96.5626 91.6162 96.5929 91.6214C97.1199 91.6944 96.4582 90.7289 96.423 90.2711C96.3889 89.813 97.1344 90.2875 97.3194 90.4448C97.8044 90.8469 97.3457 90.7366 97.3701 90.7918C97.6658 91.4414 97.8042 91.2025 97.9931 91.1497C98.6474 92.0942 98.823 91.8972 98.1869 91.091C98.1169 91.0032 98.0532 91.1729 97.9931 91.1497C97.5108 90.1177 97.6876 89.8302 98.5207 90.5489C98.9101 90.8867 99.1005 91.4463 99.3618 91.0338C99.4815 90.8472 98.9978 90.2165 99.0362 89.939C99.1262 89.3043 99.9609 89.6611 100.251 89.3514C100.357 89.2383 100.009 88.942 100.074 88.8519C100.246 88.6118 100.616 88.7693 100.759 88.4894C100.772 88.4636 100.488 88.105 100.556 88.0575C101.067 87.69 101.675 87.6642 102.21 87.3416C102.47 87.1852 102.78 86.6918 103.055 86.5698C103.531 86.3592 104.424 86.5386 104.673 86.1504C104.833 85.901 104.508 85.5779 104.408 85.2646C104.207 84.6641 105.167 85.2626 105.32 85.3503C105.325 85.3532 105.216 85.5828 105.46 85.6829C105.827 86.0083 105.32 85.353 105.32 85.3503C105.416 85.4117 105.828 85.1891 105.834 85.0639C105.837 84.9962 105.527 84.6978 105.534 84.6691C105.695 84.0115 105.955 83.5736 106.423 83.2846C106.43 83.2839 106.437 83.2836 106.444 83.2835C106.452 83.2865 106.825 83.5896 106.842 83.591C107.099 83.636 106.582 83.1921 106.065 83.6473C105.814 83.8839 105.681 84.4361 105.871 84.9793C106.051 85.5244 106.535 85.9307 107.046 85.9274C107.234 86.2848 107.571 86.4612 107.768 86.4555C107.976 86.4572 108.074 86.3291 108.121 86.2302C108.188 86.0194 107.906 86.9111 107.909 86.9313C107.765 87.429 107.658 87.053 107.338 86.8861C107.278 86.8621 107.214 86.842 107.146 86.8286C106.881 86.7738 106.337 86.8925 106.042 86.991C105.809 87.0698 105.668 86.8496 105.452 86.9892C105.423 87.0079 105.452 87.4244 105.443 87.4404C105.205 87.9386 105.318 86.9207 105.268 86.7389C105.084 86.0784 104.961 85.7267 104.648 86.0424C104.574 86.1147 104.391 87.5841 104.264 87.6729C104.097 87.7858 104.148 87.2589 103.971 87.3912C103.956 87.402 103.969 87.7258 103.859 87.7149C103.347 87.6686 102.773 87.5053 102.23 87.568C102.156 87.5753 102.279 88.0833 102.173 88.1024C101.676 88.1914 101.122 88.2089 100.607 88.005C100.481 87.9532 100.531 87.5886 100.497 87.484C100.285 86.8509 100.121 87.8057 100.084 87.8265C99.2041 88.3469 98.4205 87.5605 97.4962 88.0465C97.4457 88.0747 97.1283 89.1132 96.8739 88.268C96.8566 88.2118 96.603 87.3465 96.4946 87.9623C96.4879 88.0008 96.6392 88.4446 96.439 88.4151C96.2383 88.3859 95.9512 88.7152 95.6358 88.2397C95.536 88.0899 95.2609 87.228 95.0612 87.9492C95.0506 87.9994 94.7729 89.6156 94.5431 88.5334C94.5059 88.3551 94.442 87.1966 94.1774 87.8129C94.1267 87.9323 94.2535 88.1825 94.1091 88.3552C93.8883 88.6211 93.54 88.3341 93.2749 88.8691C93.2299 88.9637 93.0518 89.7642 92.8315 89.1783C92.7974 89.0865 92.8288 88.6966 92.7303 88.6589C92.2671 88.4775 91.789 88.7602 91.3094 88.5086C91.1372 88.4202 91.2021 87.7916 91.0225 87.6292C90.8413 87.467 90.4952 87.3132 90.3142 87.6014C90.13 87.8899 90.3487 88.886 90.0609 88.9682C88.8022 89.3201 87.4991 88.6975 86.0615 88.3878C85.8398 88.3387 85.9695 88.7236 85.6307 88.6711C84.496 88.558 81.6085 87.9546 80.7175 86.1307C80.1428 84.8108 81.6317 85.5298 81.1253 84.7286C80.9215 84.3738 79.7155 84.7247 79.6005 84.6307C79.5687 84.6081 79.538 84.5849 79.5081 84.5611C78.9133 84.2729 79.0651 83.657 78.6457 83.3091C78.5556 83.2337 78.2271 83.5882 78.1542 83.5202C77.9011 83.289 77.8888 82.8844 77.689 82.6399C77.5986 82.5308 77.308 82.7435 77.2625 82.6183C77.1507 82.3209 77.1361 82.0056 77.2742 81.5782C77.2871 81.5397 77.7637 81.4677 77.6641 81.2667C77.5011 80.9403 77.5707 80.3927 77.0727 80.1988C76.924 80.1424 76.1995 80.5296 76.5718 80.0261C76.6497 79.9206 77.5516 79.5177 76.6571 79.6502C76.5097 79.6757 75.2469 79.7411 75.792 79.1773C75.935 79.0286 76.5793 78.5152 76.402 78.4435C76.3751 78.4348 76.0157 78.7025 75.9234 78.6135C75.6048 78.2961 75.4543 77.8748 75.1453 77.5392C75.062 77.4499 74.7217 77.8 74.6104 77.6597C74.3033 77.2731 74.1651 76.6802 74.1134 76.2025C74.0947 76.0251 74.4884 75.9826 74.5211 75.9548C75.0567 75.5082 74.1821 75.7598 74.1077 75.7197C73.6574 75.4683 73.9299 75.0202 73.6845 74.7197C73.618 74.6364 73.2474 74.8673 73.2041 74.863C72.7765 74.8093 73.5518 74.6617 73.5802 74.5061C73.6622 74.0689 73.4768 73.7004 73.2885 73.3745C73.2189 73.2555 72.8111 73.5818 72.754 73.4727C72.4062 72.8275 72.1826 72.1154 72.1935 71.3781C72.1965 71.2391 72.5844 71.1764 72.6567 71.1198C73.1641 70.7279 72.2845 70.7758 72.1881 70.7478C71.7479 70.6192 72.0251 70.3933 71.8779 70.1891C71.1889 69.2386 70.8739 67.9472 70.5992 67.0148C70.6071 67.0137 70.6153 67.0135 70.624 67.0146C70.7092 67.0226 70.7815 67.1094 71.3109 67.4276C71.5805 67.5769 72.0259 67.8024 72.6971 67.8815C73.3616 67.9715 74.1736 67.7939 74.6456 67.5288C75.0417 67.308 75.1321 67.1759 75.1807 67.1285C75.2226 67.0794 75.2 67.1016 75.1712 67.1645C75.1592 67.1889 75.578 67.4836 75.5753 67.5055C75.5114 67.7634 75.0481 68.2589 74.9008 68.8414C74.885 68.8999 74.8711 68.9607 74.8595 69.0238C74.8477 69.0835 75.3295 69.184 75.3268 69.2838C75.3233 69.4931 75.2139 69.7144 74.9976 69.8679C74.8935 69.9415 74.5452 69.6741 74.4478 69.7533C74.2191 69.9412 74.1006 70.1998 74.0968 70.4847C74.0963 70.6064 74.6215 70.5795 74.5844 70.725C74.347 71.7092 74.1916 72.7495 73.345 73.7278C73.287 73.7946 72.2842 73.6705 72.4425 73.873C72.7149 73.9376 73.0384 73.9981 73.3311 74.059C73.1873 75.6885 72.6081 77.2792 72.3651 78.9634C72.355 79.0343 72.8994 78.9708 72.8827 79.1078C72.7872 79.9008 72.8604 80.6827 72.2638 81.457C72.2054 81.5346 71.2722 81.4166 71.3945 81.6702C71.4168 81.7146 71.5138 82.0879 71.7104 82.1979C71.7402 82.2128 72.1823 82.1791 72.1865 82.2965C72.2036 82.9777 72.0605 83.6765 71.7607 84.3366C71.7114 84.4448 71.2506 84.3052 71.2114 84.3822C70.9377 84.9232 71.2712 85.5324 70.837 86.0408C70.5451 86.3849 69.7404 86.2438 68.9434 86.4193C68.8309 86.4397 68.8114 86.6717 68.3492 86.6785C67.1866 86.7048 65.9143 86.5842 64.6749 86.6247C64.4077 86.6357 64.6948 86.9583 64.0501 86.7667C64.0067 86.7547 63.7938 86.5111 63.5759 86.4445C63.425 86.3997 62.9541 86.4727 62.7614 86.3833C62.5688 86.2975 62.964 86.2105 62.7389 86.0626C62.5113 85.9127 61.975 85.967 61.9179 85.6837ZM107.928 85.1895C107.823 84.7245 107.641 86.3598 107.818 85.9843C107.827 85.9643 107.933 85.2123 107.928 85.1895ZM92.0928 97.9003C92.8384 98.1037 92.0721 97.3395 91.5072 97.1676C90.9439 96.9943 91.8668 97.8386 92.0928 97.9003ZM90.9112 100.428C91.5546 100.522 89.7089 99.0944 89.8938 99.6358C89.9041 99.6666 90.8737 100.423 90.9112 100.428ZM68.7355 85.5259C68.7136 85.5271 68.6879 85.6876 68.7095 85.6935C69.2294 85.7925 69.2803 85.4728 68.7355 85.5259ZM89.6852 102.94C89.7042 102.946 89.7217 102.951 89.7375 102.954C89.7406 102.951 89.7482 102.94 89.7514 102.936C89.9909 102.993 89.8749 102.591 89.5184 102.445C89.3442 102.374 89.3054 102.487 89.3741 102.626C89.3682 102.632 89.354 102.652 89.3483 102.658C89.4016 102.764 89.5185 102.881 89.6852 102.94ZM97.5442 83.7727C97.5389 83.7486 97.4192 83.7367 97.4334 83.8746C97.4796 84.3185 97.6328 84.179 97.5442 83.7727ZM87.073 106.874C87.5212 106.339 89.3667 107.033 88.7777 107.546C88.6709 107.639 88.4194 106.967 88.18 107.018C87.7423 107.113 88.6454 107.946 87.9251 107.867C87.794 107.852 87.0436 106.902 87.0714 106.871C87.0719 106.872 87.0724 106.873 87.073 106.874ZM108.061 83.2155C108.061 83.1931 107.899 83.1562 107.893 83.1776C107.763 83.6895 108.066 83.7617 108.061 83.2155ZM90.6024 83.231C90.5916 83.1853 90.2234 83.1483 90.2091 83.1908C90.021 84.0481 90.7912 84.1253 90.6024 83.231ZM104.582 91.1939C104.703 91.7369 104.547 91.9053 104.08 91.4176C104.252 91.3533 104.409 91.2629 104.582 91.1939Z" fill="black"/>
<path d="M66.3921 91.4778C65.4808 91.6222 64.3027 91.4717 63.3948 91.2644C63.1134 91.2001 63.2549 90.9081 63.0598 90.8506C62.6764 90.7386 62.3197 90.8829 61.9438 90.7495C61.8186 90.7038 61.9724 90.2413 61.841 90.204C61.1155 90.003 60.4412 90.1239 59.7115 90.0297C56.1194 89.5655 52.5928 89.4207 48.9612 89.2624C47.7685 89.2106 46.3091 88.8162 45.0826 89.0274C44.9358 89.0525 45.0329 89.4557 45.0057 89.4898C44.5847 90.0111 44.7097 89.1897 44.4322 89.0877C43.3284 88.6863 42.0451 88.6849 41.0874 88.9001C40.6716 88.9967 41.1233 89.7704 40.7322 89.3487C40.7045 89.3206 40.7556 88.8835 40.6539 88.847C40.6027 88.8186 40.4776 88.8237 40.5796 88.7996C40.648 88.7626 40.5117 88.8853 41.1863 88.5643C41.3617 88.4554 41.644 88.3153 41.9948 87.8122C42.162 87.5461 42.3334 87.2481 42.3868 86.6625C42.431 86.119 42.2523 85.5849 42.048 85.2591C41.6165 84.6018 41.29 84.4942 41.1098 84.3828C40.9219 84.2882 40.8221 84.2594 40.7492 84.2359C40.5585 84.1811 40.5609 84.1907 40.5777 84.1898C40.7449 84.2112 40.8966 84.233 40.9915 84.2627C41.4698 84.4169 41.5322 84.4263 41.9802 84.5298C42.5768 84.6742 43.2152 85.0692 43.8479 85.1633C43.9844 85.1825 43.9417 84.7069 44.1744 84.7011C44.4122 84.6959 44.9466 84.9133 45.0972 85.0772C45.2475 85.2399 45.0535 85.5396 45.0595 85.626C45.0913 86.3468 46.0219 85.7024 46.1102 85.7128C47.6886 85.9006 48.675 86.9212 49.939 87.5272C50.9014 87.9883 51.9942 88.3557 52.8735 88.8598C53.9199 89.4622 54.6833 90.1745 55.7028 90.7346C55.8101 90.7943 55.9526 90.2749 56.0851 90.3476C57.4924 91.1211 58.8062 92.026 59.9302 93.2103C60.0425 93.3295 59.6167 93.5911 59.7129 93.7322C60.3132 94.5883 61.0093 96.1923 62.6509 94.9441C63.1454 95.4056 63.7339 95.9568 63.9589 96.646C64.0978 97.0854 63.4937 97.2375 63.9962 97.3695C64.1087 97.3997 64.274 96.9744 64.4225 97.046C64.5415 97.1034 64.6543 97.1705 64.7628 97.243C65.5483 97.8094 66.0164 98.6949 66.4479 99.3799C66.5592 99.5549 66.9096 99.3812 66.9957 99.4172C67.717 99.7726 66.9295 100.751 66.8701 100.875C66.4978 102.061 66.6466 102.73 66.5542 103.644C66.5301 103.848 67.0758 103.658 67.0703 103.861C67.0297 104.926 66.7887 105.949 66.3565 106.836C66.2595 107.03 65.8662 106.745 65.7977 106.832C65.501 107.21 66.2949 107.51 66.0204 107.873C65.9632 107.95 65.6044 107.811 65.5599 107.817C64.862 107.904 65.7124 108.342 65.7159 108.412C65.7868 109.275 64.7103 109.53 64.6377 110.314C64.6298 110.409 65.1509 110.334 65.1 110.592C64.761 112.316 64.1249 114.021 63.3112 115.55C63.1853 115.788 62.8842 115.513 62.8368 115.517C62.0919 115.596 62.9507 116.008 62.963 116.099C63.0356 116.813 62.1198 117.234 63.0946 117.941C62.3731 119.774 62.2017 121.708 61.8637 123.523C61.8251 123.739 61.7911 123.906 61.7575 124.067C61.7231 124.246 61.6973 124.384 61.6616 124.426C61.6381 124.442 61.6312 124.408 61.4977 124.223C61.4458 124.153 61.2539 123.918 60.9795 123.801C60.7026 123.672 60.3866 123.675 60.2111 123.726C59.8922 123.831 59.9262 123.908 59.9463 123.923C59.9731 123.946 60.0558 123.921 60.1262 123.904C60.1513 123.894 60.4474 124.251 60.5007 124.226C61.2028 123.824 60.5555 123.451 60.1504 122.527C60.0398 122.305 61.1458 122.561 61.2372 122.563C61.5511 122.607 62.0417 123.107 62.1131 123.1C62.6875 123.021 60.7675 121.815 61.0405 121.39C61.0523 121.379 61.3675 121.66 61.4255 121.647C61.6074 121.604 61.5403 121.401 61.7347 121.362C62.1834 121.273 63.1691 121.775 62.8813 121.022C62.8432 120.925 61.6994 120.331 61.997 119.962C62.1196 119.812 62.5333 119.091 62.7309 118.925C62.9238 118.768 63.1944 119.121 63.2185 119.116C64.0148 118.86 64.0851 119.182 64.9449 119.329C65.8024 119.475 64.1075 118.552 63.9914 118.328C63.8751 118.106 64.506 117.94 64.7005 117.923C64.8942 117.908 65.0447 118.166 65.1736 118.126C66.0215 117.854 64.5123 117.373 64.3686 117.023C64.03 116.19 65.4631 116.591 65.8379 116.257C65.9395 116.166 65.6068 116.083 65.6432 115.968C65.7917 115.514 66.3163 115.52 66.2587 114.855C66.2481 114.748 65.7642 113.915 66.4458 114.029C66.5433 114.047 66.7789 114.336 66.9546 114.216C67.215 114.039 67.5819 113.636 67.6631 113.312C67.7242 113.07 67.0873 112.957 67.4103 112.813C67.5539 112.751 67.6925 113.15 67.9379 113.018C68.1806 112.888 68.537 112.373 68.6736 112.174C68.807 111.978 68.3743 111.812 68.3619 111.778C68.2909 111.586 68.4202 111.071 68.447 111.04C69.1191 110.16 69.9786 109.447 71.0147 108.865C71.8967 108.456 72.5834 107.838 74.0326 107.533C74.2811 107.506 74.1129 107.042 74.1507 107.033C74.6785 106.949 74.7189 107.249 74.6576 107.561C74.5958 107.882 74.52 108.275 74.6001 108.537C74.6044 108.552 74.6094 108.566 74.6152 108.581C74.875 107.663 75.0267 107.895 75.4212 107.929C75.6121 107.945 75.6467 107.564 75.6755 107.535C76.1354 107.108 76.0608 107.857 76.0491 108.011C76.0156 108.583 76.4358 108.058 76.4126 108.443C76.3869 108.823 75.9284 109.213 76.2594 109.343C76.4852 109.067 76.5771 108.139 76.8922 108.115C78.096 108.016 79.5701 109.525 80.2564 109.988C80.9547 110.448 81.2182 110.529 81.5767 110.876C82.221 111.509 82.2758 110.776 82.9026 110.797C83.531 110.823 82.4559 112.075 82.3412 112.414C82.2237 112.752 82.4818 112.488 82.4611 112.701C82.4397 112.913 82.1441 113.011 82.2919 113.187C82.4386 113.361 83.2757 113.152 83.5392 112.887C84.0953 112.322 84.3001 111.487 84.6476 112.05C84.6671 112.082 84.3425 112.382 84.4286 112.489C85.1178 113.326 85.9934 113.941 86.6656 114.766C86.758 114.88 86.3819 115.198 86.4322 115.269C86.9522 116.007 87.1631 115.174 88.0648 114.721C87.2887 115.626 87.0804 116.367 87.5925 116.747C87.8988 116.975 88.1534 116.52 88.572 116.374C88.6984 116.33 88.7085 116.779 88.8929 116.612C89.4987 116.07 89.8182 115.195 90.1484 115.884C90.1621 115.915 89.8258 116.208 89.892 116.29C90.316 116.823 90.8756 116.201 91.5079 116.555C91.9963 116.827 92.4753 117.839 92.9227 118.295C92.09 119.337 92.7457 119.462 93.5062 118.891C93.7994 119.17 94.1886 119.411 94.4132 119.752C94.491 119.869 94.1819 120.117 94.1692 120.16C93.9676 120.836 94.6675 120.25 94.7576 120.277C95.7191 120.606 95.8975 121.618 97.0241 121.662C97.064 121.663 97.6729 120.963 97.4508 121.648C97.4345 121.695 96.9369 121.841 97.2549 122.131C97.5586 122.409 97.9081 123.308 98.6214 123.279C98.7993 123.277 99.4786 122.828 99.3262 123.406C99.3123 123.488 99.1674 123.713 99.1406 123.864C99.1155 124.014 99.1445 124.037 99.1727 124.014C99.2727 123.968 99.2507 123.695 99.347 124.243C99.4312 124.639 99.7723 124.95 100.155 124.934C100.533 124.928 100.876 124.611 100.854 124.138C100.861 124.1 100.315 123.58 100.39 123.442C100.521 123.214 100.76 122.859 100.765 122.539C100.759 122.522 100.752 122.509 100.746 122.497C100.678 122.365 100.307 122.654 100.288 122.634C99.6079 121.836 99.6646 121.002 99.3606 119.945C99.3068 119.753 98.4935 119.503 98.7785 118.941C99.0911 118.327 101.324 117.759 100.424 117.11C100.063 116.847 97.2512 117.613 98.3005 116.346C97.3875 115.264 97.5398 113.794 96.4765 112.78C96.429 112.734 95.6215 112.902 95.5692 112.767C95.4931 112.565 95.7805 112.298 95.7366 112.148C95.5612 111.519 95.0175 111.127 94.792 110.548C94.7056 110.328 95.0899 110.233 94.9864 109.971C94.8822 109.708 94.3422 109.765 94.3956 109.315C94.437 108.974 95.2444 108.255 95.1811 107.855C94.2541 108.3 94.1569 108.057 93.7045 107.762C93.6173 107.706 93.3409 107.952 93.2831 107.934C93.0414 107.864 93.2343 107.588 92.9811 107.533C92.9201 107.52 92.6063 107.677 92.5388 107.675C91.9543 107.666 92.4502 106.903 92.5363 106.771C92.8638 106.267 92.3925 106.351 92.4689 106.053C92.5449 105.755 92.9316 105.939 92.9178 105.644C92.8861 105.027 92.4988 104.424 92.2375 103.916C92.1324 103.716 91.7962 104.077 91.7716 104.054C91.5927 103.863 91.5703 103.58 91.4366 103.403C91.2985 103.268 91.0975 103.22 90.6917 103.392C92.3843 101.641 90.3343 103.316 90.2989 102.496C90.297 102.431 91.1462 101.666 91.4039 101.72C91.6615 101.774 91.5735 102.237 91.9523 102.295C92.0415 102.309 93.1173 101.945 93.2003 101.946C93.2255 101.946 93.2477 101.948 93.2672 101.951C93.3091 102.013 93.4394 102.189 93.4714 102.256C93.9408 102.422 92.5877 103.241 92.5189 103.302C91.7558 104.01 92.9863 103.858 93.1176 103.933C93.7075 104.255 93.7229 104.796 94.1727 105.094C94.4648 105.289 95.4713 104.803 95.5536 105.036C95.8287 105.815 94.5639 106.767 96.1132 106.84C96.4442 106.857 97.4642 106.165 96.8671 107.12C96.8299 107.181 96.2357 107.96 96.8446 107.939C96.9214 107.936 97.2403 107.778 97.2855 107.802C97.5828 107.968 97.4095 108.259 97.665 108.473C97.9203 108.686 98.262 108.926 98.3039 109.291C98.3297 109.51 97.8481 110.039 97.7448 110.198C97.4447 110.654 98.2662 110.594 97.8301 110.995C97.3918 111.398 96.4649 111.463 96.3297 112.033C97.1717 111.651 98.0453 111.278 98.8967 110.903C99.3012 111.828 99.4525 112.85 99.9169 113.744C99.9752 113.854 100.371 113.528 100.445 113.64C100.757 114.119 100.644 114.714 101.02 115.183C101.311 115.545 101.997 115.768 102.318 116.14C101.48 116.847 102.103 117.329 102.231 117.825C102.275 117.998 102.015 118.11 101.986 118.263C101.881 118.838 102.631 118.237 102.819 118.291C103.625 118.525 101.734 119.477 102.064 120.045C102.082 120.077 103.282 119.97 103.37 119.99C103.943 120.123 103.043 120.216 103.069 120.461C103.102 120.783 103.054 121.079 103.221 121.322C103.327 121.579 103.524 122.27 103.505 122.547C103.519 122.812 103.543 123.088 103.579 123.405C103.639 123.714 104.068 124.787 103.24 125.152C103.135 125.195 102.832 124.972 102.781 125.018C101.842 125.798 102.703 126.573 101.952 127.615C101.567 128.097 100.624 128.417 99.7156 128.315C98.796 128.228 98.1471 127.766 97.941 127.551C97.9235 127.531 97.909 127.513 97.8973 127.498C97.5983 127.039 97.8015 127.067 98.0715 127.176C98.3766 127.301 98.8262 127.433 98.861 127.405C99.3748 126.957 98.8208 126.876 98.2569 126.644C98.0352 126.552 97.8274 126.447 97.7051 126.36C98.1828 125.319 97.7607 125.139 97.3622 126.095C97.3232 126.204 97.6526 126.276 97.7051 126.36C96.7926 127.153 96.1756 126.913 96.3879 125.764C96.4902 125.227 97.0109 124.9 96.3345 124.655C96.0393 124.55 95.6521 125.249 95.2989 125.25C94.5153 125.267 94.3373 124.184 93.7948 123.901C93.5906 123.792 93.4946 124.269 93.3451 124.206C92.9602 124.05 92.8738 123.566 92.4614 123.45C92.4234 123.44 92.2102 123.849 92.1094 123.776C91.3281 123.222 90.8725 122.489 90.1016 121.876C89.7288 121.58 88.9105 121.262 88.5515 120.925C87.9355 120.346 87.4931 119.191 86.8196 118.896C86.3788 118.7 86.1936 119.127 85.8516 119.26C85.1927 119.52 85.2619 118.251 85.2831 118.063C85.2838 118.057 85.6729 118.203 85.6332 117.889C85.8129 117.421 85.2878 118.064 85.2831 118.063C85.2976 117.941 84.6974 117.393 84.5175 117.375C84.4196 117.365 84.2146 117.745 84.1683 117.733C83.0724 117.442 82.1401 116.951 81.3498 116.213C81.3386 116.195 81.6196 115.805 81.5899 115.769C81.1786 115.256 80.5304 115.549 79.9218 115.59C79.3137 115.632 79.0378 115.338 79.188 114.474C78.8102 114.378 78.5106 113.796 78.3393 113.454C78.1677 113.111 77.691 113.918 77.6592 113.922C76.6411 114.058 76.4609 113.371 75.7121 112.937C75.3596 112.73 74.5686 112.543 74.1415 112.491C73.7979 112.447 73.6847 112.173 73.3546 112.207C73.3452 112.208 73.3334 112.227 73.3205 112.257C73.3139 112.304 73.289 112.367 73.2615 112.428C73.2312 112.528 73.2045 112.624 73.1965 112.63C73.1945 112.631 73.1926 112.633 73.1907 112.634C73.9975 113.348 73.7385 112.22 73.9149 112.077C74.4663 111.46 74.4196 111.03 74.5022 111.345C74.4958 111.425 75.1175 112.752 75.1086 112.859C75.0688 113.011 74.8295 112.54 74.7487 112.746C74.74 112.765 74.9278 113.028 74.8162 113.088C74.6731 113.167 74.499 113.26 74.3045 113.367C74.1772 113.359 73.7882 113.586 73.5013 113.948C73.4484 114.012 73.9028 114.274 73.8346 114.371C73.4982 114.845 73.0437 115.404 72.4431 115.827C72.2951 115.928 72.0642 115.633 71.9558 115.6C71.2946 115.412 71.8679 116.233 71.8549 116.284C71.4903 117.608 70.2144 118.027 69.8075 119.448C69.7864 119.526 70.3321 120.56 69.4558 120.337C69.3972 120.322 68.5052 120.086 68.8979 120.603C68.9225 120.635 69.3979 120.73 69.2066 120.954C69.0151 121.18 69.0335 121.734 68.3946 121.824C68.193 121.852 67.2854 121.648 67.683 122.347C67.7117 122.394 68.7604 123.728 67.7082 123.346C67.5361 123.281 66.5651 122.646 66.8301 123.35C66.8812 123.487 67.1894 123.48 67.1993 123.772C67.215 124.22 66.6967 124.464 66.8787 125.137C66.9169 125.248 67.3774 125.987 66.7166 125.902C66.6136 125.888 66.3377 125.604 66.2182 125.705C65.6161 126.218 65.4442 126.982 64.4125 127.733C64.0015 128.024 63.7968 127.358 63.2094 127.666C63.1325 127.705 63.0446 127.751 62.9436 127.804C62.8408 127.857 62.7396 127.911 62.545 128.015C62.3633 128.109 62.1481 128.213 61.8726 128.313C61.7216 128.367 61.6253 128.4 61.3702 128.464C61.1326 128.522 60.8582 128.566 60.5504 128.574C59.2744 128.71 57.6912 127.603 57.3255 126.907C56.9513 126.365 56.8015 125.977 56.6514 125.699C56.2143 124.976 55.3497 125.992 55.1354 124.805C55.0692 124.42 55.0454 124.019 55.039 123.731C55.0316 123.457 55.0422 123.186 55.0667 122.909C55.2041 121.371 55.8103 120.003 56.1566 118.644C56.2233 118.385 55.8279 118.529 55.9032 118.141C56.1735 116.705 56.4628 114.269 57.5118 113.335C58.3494 112.587 58.4788 113.854 58.9092 113.227C59.1156 112.925 58.0991 112.253 58.0865 112.163C57.9501 111.279 58.5982 110.881 58.6408 110.15C58.6496 109.999 58.1575 110.011 58.1699 109.883C58.2079 109.448 58.5303 109.076 58.6001 108.678C58.6302 108.5 58.2749 108.437 58.3449 108.286C58.5103 107.917 58.7425 107.635 59.1653 107.349C59.2038 107.323 59.5769 107.662 59.666 107.387C59.8071 106.947 60.2696 106.468 60.0522 105.884C59.986 105.711 59.1873 105.525 59.8088 105.338C59.9383 105.299 60.8863 105.585 60.1298 105.043C60.0065 104.946 58.9946 104.143 59.7661 104.007C59.9702 103.97 60.7989 103.9 60.6971 103.718C60.6801 103.694 60.2316 103.715 60.2075 103.58C60.1302 103.101 60.2174 102.659 60.0851 102.305C60.0486 102.215 59.591 102.335 59.5503 102.214C59.442 101.876 59.4931 101.686 59.6849 101.822C59.7599 101.869 60.0938 101.684 60.1348 101.676C60.7653 101.455 59.9749 101.889 59.9645 101.978C59.8956 102.262 60.1705 102.439 60.4012 102.534C60.3051 102.404 60.1984 102.278 60.0355 102.199C59.9122 102.138 59.7167 102.534 59.6719 102.547C59.2252 102.67 59.8667 102.193 59.7849 102.019C59.5537 101.526 59.0894 101.213 58.6575 100.958C58.497 100.864 58.3642 101.388 58.2241 101.3C57.3914 100.786 56.5873 100.157 55.9414 99.3849C55.8201 99.2386 56.131 98.9851 56.1487 98.891C56.2721 98.232 55.4839 98.7132 55.3664 98.7311C54.8277 98.8111 54.8861 98.4431 54.5517 98.3016C52.9225 97.6179 51.205 96.3277 49.8387 95.4213C48.0659 94.2471 46.7413 93.1803 44.8936 92.4956C44.776 92.4521 44.6934 92.9722 44.5906 92.9413C43.289 92.5292 42.1114 91.8927 40.9063 91.7296C40.808 91.7157 40.8218 92.22 40.6642 92.2149C40.344 92.2091 39.9894 92.1041 39.7414 91.9033C39.6184 91.806 39.8743 91.4282 39.7453 91.3384C39.6782 91.2917 39.61 91.2517 39.5419 91.2186C39.3867 91.1848 39.2251 91.152 38.9455 91.0758C38.8745 91.0561 38.7945 91.0329 38.699 91.0022C38.4093 90.8825 38.0648 90.8938 37.0386 90.1132C36.5614 89.7052 35.6582 88.8676 35.3814 87.1849C35.2437 86.3989 35.4089 85.3937 35.6198 84.876C35.83 84.3081 36.1123 83.8743 36.3727 83.5523C37.4619 82.3303 37.9978 82.302 38.3474 82.1212C39.0881 81.8646 39.0203 81.9292 39.1714 81.8892C39.2828 81.8687 39.3728 81.8554 39.4545 81.8442C39.6286 81.8208 39.7195 81.8132 39.7984 81.8051C40.1545 81.7707 40.3498 81.7455 40.6048 81.6982C40.8408 81.6494 40.4585 81.1759 40.7582 81.1521C42.8186 80.9945 44.6152 80.8816 46.5269 81.4849C46.6569 81.5267 46.7955 82.5321 47.0657 82.3341C47.0812 82.0541 47.0743 81.7251 47.078 81.426C49.806 81.2181 52.4823 81.5386 55.2055 81.5695C55.3199 81.5707 55.1177 81.0384 55.3392 81.038C56.6241 81.0353 57.8698 80.8787 59.1861 81.4019C59.3168 81.453 59.2556 82.3929 59.638 82.2486C59.705 82.2223 60.282 82.094 60.4314 81.8893C60.4516 81.8584 60.3437 81.4205 60.5302 81.4068C61.6078 81.3348 62.7512 81.4304 63.8283 81.6951C64.0042 81.7387 63.8184 82.2062 63.9436 82.2413C64.8219 82.4866 65.7787 82.1297 66.6253 82.5528C67.1776 82.8378 66.9826 83.6452 67.2818 84.4395C67.3253 84.5516 67.6724 84.5692 67.6895 85.0315C67.7353 86.194 67.5692 87.467 67.6378 88.706C67.6535 88.9729 68.1074 88.6854 67.8388 89.3304C67.8207 89.3736 67.4881 89.5877 67.4043 89.8065C67.3465 89.9578 67.4511 90.4279 67.333 90.6216C67.2152 90.8151 67.0818 90.4211 66.8852 90.6488C66.6934 90.8793 66.7803 91.414 66.3921 91.4778ZM77.5293 111.923C77.4598 111.389 76.7041 112.851 77.1568 112.634C77.1796 112.622 77.5332 111.95 77.5293 111.923ZM98.3266 113.374C97.8426 114.049 98.9261 113.846 99.3113 113.349C99.6963 112.852 98.4728 113.168 98.3266 113.374ZM96.0353 109.802C95.7274 110.478 97.8606 109.531 97.2129 109.276C97.1759 109.261 96.0531 109.762 96.0353 109.802ZM65.8907 84.6673C65.8954 84.6891 66.1495 84.71 66.1552 84.6884C66.2898 84.1657 65.7817 84.1243 65.8907 84.6673ZM93.6528 106.317C93.4404 106.593 93.9586 106.806 94.2243 106.464C94.4377 106.188 93.9167 105.972 93.6528 106.317ZM66.5251 116.672C66.5017 116.663 66.3879 116.804 66.5073 116.874C66.8922 117.1 66.9173 116.823 66.5251 116.672ZM89.6813 100.347C90.2856 101.217 89.178 102.914 88.6369 101.906C88.5378 101.722 89.3916 101.858 89.3612 101.546C89.3021 100.974 88.1688 101.502 88.3553 100.714C88.3896 100.569 89.6495 100.293 89.6845 100.346C89.6834 100.347 89.6824 100.347 89.6813 100.347ZM78.2439 110.073C78.2479 110.051 78.033 109.924 78.0183 109.941C77.6725 110.353 78.099 110.606 78.2439 110.073ZM60.3299 124.368C60.3328 124.358 60.3805 124.325 60.5213 124.338C60.6623 124.343 60.8609 124.479 60.9051 124.554C60.9815 124.67 60.9331 124.571 60.9195 124.58C60.488 124.569 60.2619 124.774 60.3286 124.933C60.3681 125.01 60.4275 124.955 60.4132 124.852C60.417 124.744 60.3073 124.602 60.3299 124.368ZM92.9086 118.329C93.4422 118.079 93.7444 118.238 93.5057 118.89C93.3154 118.695 93.0988 118.519 92.9086 118.329Z" fill="black"/>
<path d="M68.5037 31.3863C68.6527 31.7432 68.5139 32.2175 68.3188 32.5933C68.2584 32.7128 67.9647 32.6655 67.91 32.7498C67.8035 32.9126 67.9529 33.0482 67.8258 33.2131C67.7822 33.2678 67.3177 33.2252 67.2827 33.2824C67.094 33.5955 67.2273 33.8726 67.1481 34.1853C66.7582 35.7267 66.7174 37.2526 66.6808 38.8148C66.6691 39.3316 66.3283 40.0016 66.5795 40.5034C66.6092 40.5618 67.0062 40.4722 67.0409 40.4794C67.572 40.5936 66.7528 40.6413 66.6611 40.775C66.2994 41.3051 66.3393 41.8419 66.564 42.2705C66.661 42.4532 67.4263 42.1358 67.0101 42.399C66.9821 42.4173 66.5492 42.4352 66.5122 42.4953C66.429 42.6318 66.5417 42.8472 66.5233 42.9451C66.4857 43.1342 66.4951 43.1643 66.519 43.3343C66.5481 43.5675 66.3853 43.8771 66.5269 44.1089C66.5583 44.1576 66.9796 44.0086 67.0688 44.0784C67.1578 44.1485 67.1621 44.3743 67.0741 44.4674C66.986 44.5605 66.6395 44.5949 66.5639 44.623C65.9263 44.8612 66.8892 44.9406 66.9181 44.9671C67.4208 45.4814 67.0141 46.0995 67.1469 46.6475C67.25 47.0676 67.533 47.4617 67.617 47.847C67.717 48.3114 67.607 48.7647 67.7907 49.1718C67.8099 49.2157 68.282 48.9934 68.3061 49.0453C68.5577 49.5821 68.7114 50.1107 68.6342 50.7162C68.6262 50.7771 68.1928 50.9321 68.162 51.0079C68.0936 51.186 67.983 51.4399 67.9733 51.6222C67.9952 51.9742 68.2689 52.1635 69.3759 51.6276C69.4589 51.9001 69.5733 52.2223 69.3754 52.6485C69.2481 52.9227 68.7481 53.0662 69.0339 53.1145C69.0979 53.1256 69.4282 52.8373 69.4965 52.8718C69.7826 53.0154 69.8345 53.3459 70.1755 53.4479C70.2455 53.4678 70.5587 53.236 70.6255 53.2095C71.1678 52.997 70.5183 53.7094 70.4899 53.7882C70.2795 54.3789 70.6002 54.4877 70.7873 54.7726C70.8311 54.8396 71.2027 54.4597 71.2599 54.5127C71.549 54.7896 71.75 55.143 71.7932 55.5913C71.8013 55.691 71.3968 55.8936 71.3825 55.9549C71.3265 56.226 72.0241 55.7536 71.9824 56.0008C71.9748 56.0526 71.6576 56.2655 71.6282 56.296C71.167 56.7769 71.9652 56.2873 71.9972 56.2955C72.4262 56.3954 71.7874 57.1598 72.1012 57.3366C72.1391 57.3565 72.4637 56.9887 72.5475 57.0635C73.1058 57.5567 73.4836 58.225 73.6652 59.007C73.6941 59.128 73.3724 59.3124 73.3434 59.3471C72.9035 59.9023 73.6452 59.3266 73.6948 59.3284C73.7985 59.3364 73.8447 59.4011 73.8724 59.4699C73.8761 59.583 73.882 59.8027 74.2473 59.0841C74.1651 59.0916 74.0136 59.0563 73.8148 59.0656C73.6226 59.0721 73.4319 59.1401 73.3543 59.1867C73.1885 59.2925 73.29 59.2398 73.384 59.1155C73.6037 58.8548 73.933 58.4148 74.6113 58.0785C74.6279 58.0688 75.043 58.2708 75.0744 58.2499C75.4512 58.0099 74.7614 57.8024 74.0245 57.2761C73.8372 57.1497 74.8913 57.3458 74.9707 57.3535C75.26 57.393 75.8842 57.6835 75.9432 57.6828C76.4113 57.6628 74.2657 56.9307 74.333 56.7319C74.3388 56.7266 74.7247 56.8881 74.7699 56.8841C74.9117 56.8716 74.7728 56.7644 74.9271 56.7557C75.2829 56.7384 76.349 57.0236 75.8003 56.6337C75.7287 56.5839 74.4915 56.2323 74.6082 56.0622C74.6563 55.9944 74.7379 55.6482 74.845 55.5775C74.9529 55.5056 75.3315 55.6874 75.3506 55.6857C75.9532 55.5764 76.1425 55.7385 76.9617 55.8249C77.7782 55.9084 75.9121 55.4226 75.72 55.3109C75.5284 55.2 76.0177 55.1275 76.1827 55.1198C76.3476 55.1128 76.5851 55.2429 76.6827 55.223C77.3226 55.0855 75.7936 54.8457 75.5231 54.6738C74.8807 54.2724 76.3075 54.4675 76.4966 54.2949C76.5473 54.2496 76.2205 54.2132 76.2034 54.1571C76.1397 53.9367 76.6019 53.9284 76.2601 53.6075C76.2048 53.5538 75.4132 53.1737 76.054 53.208C76.1463 53.2131 76.4812 53.3439 76.5789 53.2798C76.7253 53.1844 76.8553 52.9758 76.7707 52.8156C76.7082 52.6968 76.1103 52.6749 76.3169 52.593C76.4091 52.5566 76.7194 52.7375 76.8648 52.662C77.0101 52.5873 77.0572 52.3176 77.0686 52.2145C77.0799 52.1111 76.6332 52.0668 76.6058 52.0519C76.4496 51.9645 76.2839 51.7247 76.2883 51.7079C76.429 50.8409 77.3344 50.2024 77.2706 49.3063C77.2662 49.2359 76.7975 49.1828 76.7921 49.1711C76.6476 48.9035 77.8312 49.341 78.2736 49.2689C77.3364 49.0947 77.5251 49.0367 77.4563 48.8566C77.4225 48.7688 77.0526 48.7347 77.0172 48.7199C76.4931 48.4891 77.2182 48.5586 77.3674 48.5685C77.9164 48.6048 77.3039 48.3899 77.671 48.4136C78.0354 48.4367 78.5349 48.6649 78.5603 48.5108C78.2355 48.3979 77.3393 48.3275 77.2223 48.1822C76.7807 47.626 77.6368 46.9541 77.7851 46.6089C77.8411 46.4794 77.8702 46.3823 77.8939 46.3014L77.873 46.4758C77.8865 46.3371 77.8939 46.2428 77.9736 46.1147C78.2065 45.7414 77.5416 45.8628 77.2454 45.618C76.9492 45.3727 78.5728 45.5324 78.9234 45.5078C79.2739 45.4841 78.9151 45.4379 79.1084 45.4018C79.3016 45.3658 79.5369 45.4616 79.6117 45.3667C79.6864 45.2725 79.072 44.9878 78.7074 44.9432C77.9348 44.8485 77.1184 44.9453 77.4114 44.6958C77.4288 44.6815 77.8551 44.7417 77.9 44.6863C78.2421 44.2444 78.2765 43.776 78.5817 43.3362C78.6243 43.2753 79.0984 43.3457 79.1286 43.3105C79.4447 42.9445 78.6382 43.0538 77.7536 42.8198C78.9381 42.9038 79.6672 42.8141 79.6836 42.5296C79.6938 42.359 79.1749 42.3713 78.8135 42.2489C78.7046 42.2124 79.0643 42.1031 78.8215 42.0728C78.0277 41.9733 77.1325 42.0571 77.4975 41.7748C77.5148 41.7625 77.9492 41.8185 77.9771 41.7749C78.1598 41.4944 77.3283 41.4288 77.2386 41.1136C77.1682 40.8672 77.6922 40.4509 77.7856 40.1751C79.1184 40.2321 78.8233 39.9588 77.9085 39.8166C77.9533 39.6368 77.9093 39.4392 78.0435 39.2712C78.0892 39.2134 78.4735 39.2686 78.5155 39.2628C79.1745 39.1735 78.2837 39.0576 78.2503 39.017C77.9275 38.5814 78.6202 38.2688 77.9769 37.8332C77.9537 37.8178 77.0292 37.7511 77.7101 37.6754C77.757 37.6707 78.1719 37.8228 78.2134 37.6359C78.2551 37.4456 78.7684 37.1168 78.3531 36.8297C78.2532 36.7604 77.5101 36.5623 78.1039 36.462C78.1846 36.4489 78.449 36.4818 78.598 36.4646C79.0728 36.4089 78.1398 36.315 78.9395 36.2635C79.739 36.2128 80.3446 36.05 79.8114 35.7565C79.7959 35.7472 79.0583 35.6433 79.0748 35.5606C79.1019 35.4275 79.2674 35.2481 79.2709 35.1109C79.2723 35.0441 78.8096 35.0588 78.8019 35.0467C78.5716 34.5808 79.0019 34.2922 79.2131 33.8239C79.2525 33.7414 78.6437 33.4395 79.1518 33.308C79.7082 33.1643 81.9505 33.5193 81.4451 33.0612C81.2431 32.8782 78.3987 32.4274 79.9078 32.2392C79.5924 31.6062 80.4025 31.133 79.947 30.4812C79.9268 30.4517 79.1408 30.2733 79.1592 30.2103C79.1749 30.1598 79.2942 30.135 79.4048 30.1129C79.4961 30.0985 79.5822 30.0791 79.5963 30.0495C79.7356 29.7775 79.4394 29.4903 79.5123 29.223C79.539 29.1215 79.9219 29.1901 79.9538 29.0682C79.9853 28.9463 79.4839 28.8225 79.7429 28.6753C79.9402 28.5644 80.9893 28.5203 81.1237 28.3614C80.0993 28.2741 80.1295 28.1605 79.875 27.9345C79.8256 27.8911 79.4655 27.9053 79.4237 27.8834C79.2458 27.7934 79.5469 27.7461 79.3524 27.6587C79.3057 27.6374 78.9557 27.6093 78.8978 27.5903C78.3918 27.4282 79.1949 27.289 79.3347 27.2655C79.8658 27.1742 79.4154 27.077 79.6285 26.9916C79.8415 26.9071 80.0857 27.0783 80.2195 26.9705C80.4962 26.7468 80.4653 26.4292 80.5024 26.1832C80.5151 26.0848 80.0424 26.1124 80.0333 26.0974C79.9324 25.882 80.4472 25.7196 79.5277 25.5223C81.9446 25.5979 79.3054 25.3776 79.8143 25.1273C79.8554 25.1076 80.9945 25.187 81.1531 25.29C81.3115 25.3928 80.944 25.4925 81.1931 25.638C81.2515 25.6727 82.3022 25.9316 82.3649 25.9591C82.8541 26.1767 81.1526 26.0548 81.0584 26.0561C80.0419 26.0755 81.1729 26.3765 81.2479 26.4357C81.5912 26.709 81.3355 26.8959 81.5788 27.1209C81.7359 27.2678 82.8488 27.3689 82.8064 27.4707C82.6663 27.81 81.1029 27.8109 82.4243 28.2477C82.7061 28.3415 83.9292 28.3659 82.9517 28.5469C82.8901 28.5582 81.9993 28.6786 82.5442 28.8336C82.613 28.8531 82.9678 28.8812 82.9961 28.9019C83.1789 29.0405 82.8896 29.0996 83.0138 29.2458C83.138 29.3915 83.3259 29.5725 83.1921 29.7179C83.112 29.806 82.4408 29.8675 82.2751 29.8977C81.798 29.9812 82.5489 30.1878 81.9776 30.2135C81.4035 30.238 80.5575 30.005 80.172 30.1721C80.7428 30.2319 81.3227 30.2966 81.9014 30.3616C81.8988 30.3719 81.8985 30.4041 81.8957 30.4143C82.2484 30.4619 82.6007 30.5093 82.9504 30.5557C82.8694 30.9554 82.5292 31.3305 82.5295 31.7556C82.5304 31.8087 83.0304 31.8023 83.0442 31.8602C83.1008 32.1004 82.7291 32.2771 82.8488 32.534C82.943 32.7378 83.4509 32.9844 83.5673 33.1955C82.503 33.2324 82.8381 33.5621 82.7262 33.7706C82.6874 33.8446 82.4059 33.8193 82.31 33.8677C81.9554 34.0488 82.895 34.0179 83.0379 34.084C83.6479 34.3656 81.5347 34.2455 81.5681 34.5348C81.5691 34.5502 82.6828 34.8092 82.7513 34.8393C83.1984 35.0285 82.3578 34.8408 82.2682 34.9363C82.1047 35.1105 81.8276 35.2273 82.1446 35.4626C82.2385 35.5317 82.9315 35.7262 82.3815 35.8178C82.3094 35.8298 81.9377 35.7996 81.9151 35.8113C81.5383 36.0268 82.7078 36.0996 83.0965 36.2569C83.4852 36.4132 82.6664 36.5766 82.4314 36.6077C81.8232 36.6878 82.1786 36.5083 82.1198 36.4993C81.4204 36.3906 81.5332 36.5499 81.4676 36.6649C80.3194 36.6225 80.3798 36.7895 81.4043 36.7834C81.5162 36.7825 81.4139 36.6863 81.4676 36.6649C82.5878 36.828 82.7228 37.0102 81.6608 37.1578C81.1631 37.2267 80.5925 37.1101 80.7889 37.4033C80.8775 37.5368 81.67 37.5254 81.88 37.6494C82.359 37.9312 81.6062 38.2352 81.7106 38.5058C81.7484 38.6046 82.1852 38.5295 82.226 38.5976C82.3356 38.7787 82.0042 38.92 82.163 39.1031C82.178 39.1197 82.6325 39.1 82.6359 39.155C82.6708 39.5744 82.3661 39.924 82.3413 40.3584C82.3293 40.5708 82.5652 40.9528 82.507 41.1703C82.4089 41.5435 81.7341 41.9864 81.8832 42.3164C81.9787 42.53 82.4333 42.4991 82.7391 42.5994C83.3317 42.7934 82.2499 43.0668 82.0826 43.1032C82.0771 43.1042 81.976 42.9197 81.7403 43.0089C81.2539 43.0497 82.0806 43.1011 82.0826 43.1032C81.9745 43.1264 81.8602 43.4882 81.9446 43.5619C81.9908 43.6023 82.4208 43.5937 82.4367 43.6146C82.806 44.1108 82.9008 44.601 82.6863 45.0858C82.6773 45.0942 82.1974 45.0676 82.1825 45.0876C81.9609 45.3682 82.5435 45.5652 82.8859 45.8103C83.2282 46.056 83.1066 46.2369 82.2784 46.3552C82.3173 46.426 82.2837 46.507 82.215 46.5879C82.1921 46.7147 82.1857 47.0961 82.1398 47.2165C82.0132 47.3146 81.8035 47.3994 81.6536 47.4579C81.4068 47.5545 82.3172 47.77 82.3326 47.7864C82.8292 48.296 82.2565 48.4181 82.0897 48.8062C82.0081 48.9942 82.0599 49.4072 82.1149 49.6422C82.1598 49.8289 81.9243 49.8834 82.0286 50.0673C82.0425 50.0921 82.4544 50.1571 82.4687 50.1668C82.9195 50.4433 81.9412 50.1493 81.7557 50.1474C81.0815 50.1398 80.7196 50.1492 80.9769 50.434C81.0357 50.4996 82.4373 50.9553 82.5008 51.0678C82.5808 51.2133 82.0771 51.0567 82.1739 51.2121C82.1817 51.2252 82.499 51.2916 82.468 51.3675C82.3282 51.7212 82.0558 52.0848 82.0017 52.4767C81.9931 52.5301 82.51 52.5743 82.5057 52.6535C82.4852 53.0256 82.3768 53.416 82.0602 53.7146C81.9807 53.7874 81.6428 53.6513 81.5344 53.6458C80.8779 53.6132 81.7543 53.9907 81.7652 54.0223C82.0502 54.7765 81.1031 55.0679 81.3205 55.8379C81.3344 55.8793 82.233 56.4217 81.3642 56.3243C81.3062 56.3188 80.4195 56.2119 80.972 56.4818C81.0065 56.4988 81.467 56.5406 81.3844 56.6656C81.302 56.7903 81.5331 57.0918 80.9967 57.1475C80.8275 57.1655 79.9411 57.057 80.5624 57.4329C80.6079 57.4531 82.0418 58.2026 80.9617 57.983C80.784 57.9463 79.6816 57.5855 80.1823 57.9762C80.2793 58.052 80.5499 58.0551 80.6694 58.2128C80.8534 58.4562 80.4824 58.5913 80.9004 58.9674C80.9753 59.0315 81.6635 59.4531 81.0515 59.3903C80.9559 59.3798 80.6045 59.2117 80.5392 59.266C80.2301 59.515 80.3375 59.9651 79.9499 60.204C79.8116 60.2923 79.2588 59.9908 79.0514 60.0513C78.8428 60.1152 78.5924 60.2835 78.7865 60.5438C78.9804 60.8047 79.9591 61.0706 79.924 61.3296C79.8486 61.8821 79.4993 62.4191 78.9715 62.9724C78.3952 63.5324 77.7658 64.247 76.1206 65.0381C75.5938 65.2464 76.2376 65.4067 75.3118 65.7124C74.2804 66.0521 72.5613 66.0237 71.4146 65.5173C70.813 65.2722 70.4002 65.0183 70.0004 64.7194C69.6643 64.4653 69.3886 64.201 69.1588 63.9349C68.913 63.6116 68.7838 63.272 68.8554 62.8944C69.0068 62.1429 69.7355 62.2755 69.6959 61.8527C69.6758 61.6492 68.6781 62.2666 68.6223 62.2572C68.0815 62.1919 68.3034 61.652 67.9631 61.482C67.8917 61.4456 67.5708 61.7969 67.5137 61.7622C67.3187 61.6502 67.3452 61.3461 67.1905 61.2114C67.1215 61.1532 66.8489 61.3876 66.8197 61.3053C66.7449 61.1085 66.7591 60.8801 66.91 60.5236C66.924 60.4915 67.3486 60.311 67.2753 60.188C67.1537 59.9869 67.2463 59.5587 66.8146 59.5534C66.6852 59.5525 66.0222 60.0369 66.3778 59.5644C66.4516 59.4651 67.2722 58.917 66.4694 59.2634C66.3354 59.3204 65.2111 59.7296 65.7141 59.1612C65.8467 59.012 66.4373 58.4521 66.2794 58.4495C66.2554 58.4508 65.9276 58.7503 65.8465 58.7111C65.5695 58.5721 65.4406 58.309 65.164 58.1548C65.0899 58.1149 64.7805 58.4687 64.6818 58.4003C64.4082 58.2105 64.2808 57.821 64.2294 57.4912C64.2105 57.3682 64.5669 57.2201 64.5963 57.1901C65.0762 56.7059 64.2862 57.1496 64.2181 57.1429C63.8053 57.0948 64.0441 56.6885 63.8129 56.5428C63.7499 56.5016 63.4178 56.7801 63.3782 56.7898C62.9869 56.8781 63.6904 56.5401 63.7124 56.4187C63.776 56.0766 63.5956 55.8636 63.4113 55.6795C63.343 55.6122 62.9803 55.971 62.9242 55.9079C62.7125 55.6784 62.5409 55.4122 62.4354 55.1083C62.3108 54.8277 62.2228 54.5307 62.1866 54.2435C62.1718 54.104 62.5499 53.9958 62.6149 53.931C63.0758 53.4902 62.2157 53.642 62.115 53.6167C61.6652 53.5232 61.9343 53.2932 61.7821 53.1075C61.0324 52.1984 60.8556 50.9384 60.7439 50.0476C60.5933 48.8745 60.7539 47.9623 60.4418 46.9651C60.4226 46.9014 59.9363 47.0734 59.9132 47.0194C59.6383 46.3169 59.6995 45.5713 59.4283 44.8796C59.4069 44.8227 58.9442 44.9913 58.8938 44.9022C58.7872 44.7201 58.7709 44.466 58.8914 44.245C58.9493 44.1374 59.3809 44.1977 59.4308 44.0912C59.5483 43.8436 59.5445 43.6004 59.4323 43.3836C59.3836 43.2918 58.9161 43.5142 58.891 43.3884C58.7097 42.5326 58.5079 41.6906 59.0383 40.7471C59.0747 40.6821 60.0687 40.5078 59.8617 40.4066C59.5829 40.4308 59.2563 40.4708 58.959 40.5025C58.6486 39.2746 58.8715 38.0087 58.8218 36.7594C58.8196 36.7061 58.295 36.8422 58.2879 36.7389C58.2469 36.1444 58.0571 35.5817 58.5475 34.9347C58.5955 34.8713 59.5349 34.842 59.3823 34.6767C59.3545 34.6491 59.2134 34.3896 59.0059 34.3312C58.9747 34.3235 58.5397 34.3979 58.522 34.3117C58.4271 33.8176 58.5015 33.282 58.7502 32.7602C58.7913 32.6777 59.2611 32.7465 59.2945 32.688C59.5272 32.2712 59.1602 31.8256 59.5785 31.4225C59.8605 31.1537 60.6689 31.2384 61.4622 31.0938C61.5741 31.0729 61.591 30.9147 62.0534 30.9061C63.2158 30.8835 64.4889 30.95 65.7279 30.9167C65.9947 30.9089 65.7071 30.7285 66.3521 30.8348C66.3952 30.8419 66.6097 30.9733 66.8288 31.0053C66.9802 31.0272 67.45 30.9833 67.644 31.0281C67.8378 31.0726 67.4441 31.1275 67.6725 31.205C67.9039 31.2815 68.438 31.237 68.5037 31.3863ZM80.5496 47.8963C80.0819 47.9373 81.6874 48.2965 81.3328 48.0708C81.3137 48.0595 80.5726 47.8939 80.5496 47.8963ZM81.2964 31.2028C80.5566 31.3037 81.6068 31.5272 82.1763 31.4625C82.7454 31.3976 81.5205 31.1737 81.2964 31.2028ZM80.956 29.2888C80.3682 29.4493 82.6893 29.6845 82.2389 29.4158C82.2135 29.4003 80.9902 29.2793 80.956 29.2888ZM61.6977 31.7229C61.7195 31.7202 61.7385 31.6054 61.7168 31.6032C61.1932 31.5516 61.1556 31.7836 61.6977 31.7229ZM80.5277 27.4072C80.208 27.4472 80.5566 27.6624 80.9541 27.6125C81.2738 27.5723 80.9254 27.3574 80.5277 27.4072ZM77.2757 54.4893C77.2514 54.4853 77.2101 54.5573 77.3446 54.5904C77.7781 54.6968 77.6841 54.5568 77.2757 54.4893ZM80.7771 24.315C80.6421 24.7568 78.697 24.8521 78.9647 24.3656C79.0132 24.2783 79.5557 24.6253 79.7405 24.5268C80.0769 24.3484 78.8887 24.0794 79.5572 23.9315C79.6793 23.9064 80.7889 24.291 80.7797 24.3161C80.7788 24.3158 80.778 24.3154 80.7771 24.315ZM78.6001 47.5654C78.5782 47.5635 78.5352 47.6675 78.5557 47.6747C79.0544 47.841 79.1413 47.6316 78.6001 47.5654ZM74.9177 58.5067C74.8733 58.4939 74.738 58.6875 74.772 58.7142C75.4908 59.1967 75.7859 58.7652 74.9177 58.5067ZM77.8213 40.1721C77.3009 40.0317 77.2448 39.8858 77.9078 39.8171C77.8681 39.934 77.8582 40.0534 77.8213 40.1721Z" fill="black"/>
</svg>
