<svg width="150" height="150" viewBox="0 0 150 150" fill="none" xmlns="http://www.w3.org/2000/svg">
<path d="M68.2417 40.8576C68.3839 41.5764 68.2281 42.475 68.0148 43.1798C67.9487 43.4004 67.6576 43.2872 67.5988 43.4398C67.4841 43.7398 67.6257 44.0187 67.4892 44.3036C67.4425 44.3989 66.9813 44.2775 66.9429 44.3775C66.7359 44.9259 66.8502 45.4536 66.7481 46.0246C66.2442 48.7868 66.0414 51.5044 65.7909 54.3056C65.7088 55.2284 65.2722 56.347 65.4394 57.302C65.4593 57.4138 65.8657 57.3542 65.8988 57.376C66.4045 57.7176 65.5882 57.593 65.4757 57.8086C65.0316 58.6677 64.9767 59.6159 65.1168 60.4507C65.1776 60.8052 65.9895 60.4669 65.5307 60.8138C65.4996 60.8379 65.0711 60.7397 65.0232 60.8356C64.9156 61.0533 64.9841 61.4697 64.9465 61.6389C64.8718 61.9648 64.875 62.019 64.8635 62.3286C64.8441 62.7518 64.6191 63.2506 64.7064 63.7072C64.7263 63.8048 65.1703 63.6862 65.2419 63.8427C65.3134 63.9994 65.2665 64.4083 65.1593 64.544C65.052 64.6797 64.7067 64.6127 64.6266 64.6353C63.9511 64.8205 64.8689 65.3157 64.8903 65.3773C65.255 66.4955 64.701 67.4419 64.6742 68.4799C64.6548 69.2735 64.8051 70.1283 64.7587 70.8771C64.7015 71.7737 64.4382 72.5345 64.4507 73.4008C64.4515 73.4923 64.9736 73.4024 64.9756 73.5142C64.9957 74.7249 64.8979 75.8851 64.5016 77.0799C64.4614 77.1982 64.0122 77.0266 63.9448 77.1436C63.543 77.8583 62.5975 78.9688 64.5602 79.4917C64.4617 79.9872 64.356 80.5693 63.9363 80.999C63.666 81.2766 63.1831 80.9735 63.3784 81.3372C63.4219 81.4191 63.8608 81.3355 63.8931 81.4568C64.0287 81.9676 63.8616 82.5033 64.0618 82.9989C64.1035 83.0992 64.4937 83.0936 64.5623 83.1255C65.1173 83.3994 64.159 83.7554 64.0864 83.8387C63.5435 84.4836 63.7191 84.9425 63.6707 85.5791C63.6594 85.7242 64.1914 85.5821 64.1992 85.7229C64.2322 86.4601 64.1455 87.1531 63.8668 87.8696C63.8039 88.0237 63.3686 87.8503 63.3157 87.9223C63.0882 88.2385 63.9231 88.3665 63.7207 88.6658C63.6791 88.7287 63.3011 88.666 63.2585 88.6751C62.5898 88.8165 63.5083 89.0399 63.5255 89.0889C63.762 89.7368 62.762 90.0711 62.8545 90.66C62.8665 90.7307 63.3599 90.6119 63.3642 90.8084C63.3891 92.1878 63.1339 93.5578 62.5924 94.8746C62.5093 95.0736 62.1665 94.8841 62.1206 94.8921C61.4026 95.0182 62.3154 95.2594 62.3423 95.3293C62.526 95.9092 61.6782 96.2975 62.7241 96.8193C62.5365 97.407 62.407 97.9434 62.2434 98.5462C62.2098 98.6669 62.1508 98.8778 62.0953 99.0474C62.0311 99.2391 62.0005 99.3399 61.8798 99.6141C61.8202 99.7453 61.752 99.8794 61.6604 100.024C61.5521 100.174 61.5194 100.293 61.1169 100.634C60.7844 100.935 59.9705 101.203 59.3653 101.024C58.7467 100.865 58.4174 100.527 58.2109 100.285C57.9459 99.928 57.3447 99.5478 56.4128 98.8954C56.3897 98.8804 56.5008 98.4308 56.4527 98.4026C55.8598 98.0666 55.888 98.7974 55.4418 99.6419C55.3366 99.8547 55.0756 98.7841 55.0448 98.7059C54.95 98.4165 55.0853 97.7355 55.0516 97.6788C54.9189 97.4736 54.8404 97.8455 54.7606 98.3047C54.6691 98.8421 54.5861 99.4985 54.4082 99.5001C54.3972 99.4964 54.4393 99.0787 54.4097 99.0375C54.3155 98.908 54.2282 99.076 54.1333 98.9359C53.9211 98.6129 53.7407 97.5174 53.4544 98.1917C53.423 98.2799 53.6184 99.5479 53.329 99.5271C53.2085 99.5145 52.7193 99.6355 52.5638 99.5964C52.4055 99.5532 52.3877 99.1285 52.3742 99.1135C51.8194 98.7047 51.9036 98.4442 51.4109 97.7536C50.8903 97.0818 51.6294 98.8658 51.6288 99.0962C51.63 99.324 51.1725 99.0296 51.027 98.9268C50.8854 98.8203 50.8648 98.538 50.7581 98.4907C50.033 98.2057 51.0039 99.4394 51.0214 99.776C51.0566 100.185 50.8441 100.078 50.5508 99.9092C50.2788 99.7512 49.9427 99.5371 49.7681 99.5832C49.6711 99.6088 49.9271 99.8234 49.8822 99.896C49.7119 100.175 49.2652 99.9692 49.2816 100.518C49.2773 100.613 49.7049 101.4 49.1249 101.101C49.0397 101.06 48.8289 100.762 48.6769 100.811C48.4487 100.883 48.1426 101.133 48.1018 101.387C48.073 101.573 48.6555 101.773 48.3896 101.826C48.2703 101.852 48.0928 101.511 47.8889 101.582C47.6836 101.651 47.4429 102.043 47.3643 102.199C47.2843 102.353 47.7153 102.502 47.7334 102.53C47.8364 102.689 47.8666 103.067 47.8537 103.091C47.2347 104.315 46.0513 105.339 45.8697 106.823C45.8556 106.938 46.3277 106.997 46.3302 107.016C46.412 107.442 45.2968 106.802 44.8183 106.957C45.7469 107.176 45.5357 107.287 45.5649 107.582C45.5799 107.725 45.9554 107.748 45.9888 107.77C46.4809 108.101 45.7472 108.05 45.5945 108.05C45.0339 108.045 45.6239 108.34 45.2492 108.34C44.8766 108.343 44.4055 108.012 44.3479 108.28C44.6621 108.433 45.5752 108.447 45.6689 108.677C45.7795 108.946 45.7614 109.246 45.6796 109.556C45.5104 110.163 45.0853 110.883 45.0125 111.289C44.907 111.872 44.9745 112.063 44.8547 112.408C44.6499 113.039 45.3049 112.789 45.6298 113.131C45.961 113.464 44.3271 113.442 43.9833 113.529C43.6409 113.621 44.0055 113.649 43.8224 113.743C43.6398 113.838 43.3849 113.702 43.3335 113.888C43.2808 114.081 43.9703 114.471 44.3419 114.458C45.1269 114.439 45.8892 114.11 45.6847 114.541C45.6729 114.567 45.2386 114.582 45.2151 114.679C45.0907 115.235 45.1744 115.779 45.2844 116.293C45.3244 116.482 45.3725 116.67 45.4273 116.868C45.4564 116.969 45.0296 117.198 45.048 117.267C45.3033 117.998 45.7536 117.267 46.4522 116.689C45.7161 117.609 45.4365 118.364 46.0458 118.636C46.3962 118.774 46.5041 118.254 46.7753 117.95C46.8486 117.857 46.9873 118.245 47.0645 118.009C47.2874 117.232 47.246 116.34 47.5267 116.713C47.5423 116.73 47.4765 117.165 47.5337 117.193C47.9346 117.363 47.9196 116.524 48.2428 116.36C48.3269 116.317 48.4455 116.322 48.5884 116.342L48.0799 116.595C48.459 116.479 48.9653 116.416 49.2524 116.263C50.0651 117.321 50.2399 116.794 49.7978 115.967C50.0576 115.805 50.2761 115.555 50.5819 115.46C50.6871 115.427 50.8881 115.764 50.925 115.787C51.5039 116.153 51.0197 115.387 51.045 115.318C51.3517 114.594 52.2449 114.689 52.2694 113.736C52.2703 113.701 51.6454 113.017 52.249 113.37C52.2907 113.395 52.429 113.853 52.6787 113.649C52.9261 113.448 53.7118 113.349 53.699 112.726C53.6976 112.575 53.3183 111.874 53.9005 112.103C53.9795 112.134 54.1573 112.334 54.2962 112.401C54.7415 112.608 54.0848 111.936 54.7917 112.335C55.4981 112.735 56.1878 112.847 56.0612 112.134C56.0586 112.112 55.5523 111.558 55.6511 111.454C55.8104 111.287 56.1344 111.125 56.2775 110.929C56.3458 110.836 55.9342 110.615 55.9397 110.594C56.1955 109.829 56.8423 109.633 57.4542 109.039C57.5685 108.929 57.2767 108.227 57.8512 108.245C58.4836 108.258 60.2296 109.745 60.1801 108.786C60.1664 108.388 57.8666 106.635 59.4246 106.89C59.6069 105.793 60.7265 105.243 60.6771 104.047C60.6754 103.993 60 103.537 60.0525 103.442C60.1325 103.3 60.5124 103.362 60.5805 103.263C60.8742 102.849 60.7398 102.312 60.9494 101.887C61.0282 101.725 61.3707 101.916 61.4643 101.72C61.5573 101.522 61.1232 101.22 61.4493 101.024C61.6518 100.903 62.3974 100.957 62.777 100.839C62.793 100.801 62.8123 100.68 62.8213 100.64C62.8999 100.598 62.959 100.552 62.988 100.498C61.9689 100.359 62.0169 100.159 61.7818 99.775C61.736 99.7017 61.3728 99.7404 61.3327 99.7043C61.1614 99.5585 61.4671 99.4648 61.2766 99.3263C61.2308 99.2928 60.8809 99.2646 60.8236 99.2364C60.3237 99.0002 61.1297 98.7189 61.2695 98.6628C61.8014 98.4599 61.3483 98.3355 61.558 98.1685C61.7672 97.9976 62.0189 98.2665 62.1477 98.0616C62.4141 97.6322 62.3488 97.0658 62.3426 96.6239C62.338 96.4469 61.876 96.5919 61.8645 96.5671C61.728 96.2206 62.1942 95.8109 61.2461 95.7025C63.6237 95.2208 60.9952 95.5114 61.415 94.9656C61.4489 94.9225 62.5741 94.7209 62.7606 94.8609C62.9472 95.0031 62.6204 95.2856 62.9017 95.483C62.9681 95.5265 64.0612 95.746 64.129 95.788C64.6608 96.0986 62.9596 96.2575 62.8675 96.2789C61.871 96.5301 63.0375 96.8344 63.12 96.9372C63.4994 97.3829 63.2602 97.776 63.5129 98.1633C63.6755 98.418 64.791 98.4814 64.7488 98.6896C64.6026 99.394 63.0324 99.4762 64.3136 100.242C64.5848 100.408 65.8163 100.412 64.801 100.804C64.7833 100.81 64.7005 100.835 64.6008 100.872C64.5778 100.976 64.528 101.286 64.4869 101.384C64.2136 101.43 63.8124 101.534 64.1473 101.801C64.2057 101.847 64.5435 101.959 64.561 102.001C64.6712 102.281 64.3528 102.335 64.3978 102.616C64.4427 102.897 64.5283 103.254 64.3132 103.481C64.184 103.619 63.4857 103.586 63.3051 103.601C62.7869 103.642 63.4061 104.155 62.8277 104.072C62.2481 103.985 61.5518 103.408 61.0752 103.596C61.923 103.965 62.786 104.361 63.6341 104.744C63.2767 105.508 62.6612 106.129 62.3226 106.895C62.2813 106.99 62.7733 107.118 62.7397 107.228C62.5936 107.691 62.0869 107.891 61.9732 108.389C61.8868 108.775 62.1334 109.403 62.0378 109.822C61.0031 109.493 61.005 110.178 60.6886 110.489C60.5789 110.598 60.3472 110.436 60.2122 110.474C59.7086 110.62 60.591 110.979 60.6523 111.153C60.9045 111.905 59.132 110.749 58.8662 111.218C58.8531 111.241 59.5623 112.188 59.5878 112.272C59.7703 112.799 59.2396 112.083 59.0559 112.193C58.7194 112.392 58.3588 112.423 58.3624 112.957C58.3659 113.112 58.731 113.785 58.1558 113.63C58.0806 113.61 57.8018 113.362 57.769 113.368C57.2024 113.487 58.0975 114.241 58.2286 114.702C58.358 115.165 57.4735 114.949 57.2456 114.855C56.651 114.618 57.1602 114.562 57.1231 114.514C56.68 113.95 56.582 114.248 56.391 114.373C55.5106 113.635 55.3635 113.902 56.1964 114.505C56.2881 114.571 56.3226 114.371 56.391 114.373C57.1069 115.265 56.9688 115.634 55.941 115.192C55.4601 114.982 55.1552 114.47 54.9477 114.992C54.8516 115.229 55.484 115.713 55.488 116.017C55.4919 116.718 54.5139 116.642 54.2286 117.068C54.1233 117.224 54.5498 117.418 54.487 117.536C54.3192 117.853 53.8816 117.811 53.7401 118.159C53.7274 118.191 54.0842 118.48 54.0084 118.555C53.4367 119.128 52.7128 119.353 52.0532 119.86C51.7953 120.059 51.4691 120.513 51.1547 120.787C50.938 120.918 50.3308 121.27 50.0827 121.321C49.9502 121.37 49.8228 121.406 49.7068 121.426C48.6292 121.626 47.2174 121.057 46.162 120.959C45.4482 120.886 45.4575 121.342 45.0158 121.515C44.0648 121.829 43.491 120.132 43.5542 119.926C43.552 119.928 44.1546 120.244 44.0082 119.846C44.1489 119.345 43.5664 119.933 43.5542 119.926C43.5065 119.792 42.7024 118.776 42.5321 118.612C42.4184 118.528 42.1024 118.828 42.0478 118.775C41.8656 118.596 41.7001 118.407 41.5504 118.211C40.7153 117.132 40.4146 116.089 40.409 115.08C40.4141 115.058 40.8927 115.007 40.8991 114.959C41.0061 114.294 40.384 113.978 39.9956 113.467C39.6104 112.961 39.719 112.513 40.5429 112.211C40.4363 111.826 40.8204 111.286 41.0626 110.996C41.304 110.707 40.378 110.585 40.3616 110.554C39.9033 109.701 40.3622 109.22 40.6648 108.467C40.6941 108.403 40.7214 108.335 40.7455 108.263C40.8649 107.908 40.9046 107.15 40.9109 106.721C40.9135 106.381 41.1766 106.246 41.1238 105.914C41.117 105.869 40.7047 105.797 40.6927 105.781C40.308 105.31 41.2417 105.75 41.4358 105.732C42.1426 105.67 42.5201 105.63 42.3528 105.125C42.3137 105.012 41.0116 104.275 40.995 104.058C40.9741 103.782 41.4388 104.045 41.4066 103.754C41.4045 103.729 41.0971 103.625 41.1668 103.474C41.4875 102.77 41.9861 102.05 42.325 101.279C42.3729 101.174 41.8447 101.083 41.9086 100.924C42.2082 100.176 42.6869 99.3734 43.3611 98.8125C43.528 98.6762 43.7513 98.9875 43.8644 99.0116C44.5413 99.1668 44.0064 98.3124 44.0372 98.2435C44.6639 96.7034 46.1659 96.3868 47.336 95.1135C47.344 95.1047 47.3519 95.0785 47.3611 95.0401C47.4172 94.7655 47.6408 93.8342 48.2698 94.3643C48.3248 94.4 49.0004 95.0428 48.9969 94.3795C48.9991 94.3373 48.6151 94.0118 48.9683 93.902C49.3129 93.7961 49.7724 93.2897 50.3936 93.6208C50.5987 93.7218 51.1498 94.4739 51.4022 93.6938C51.3947 93.6405 51.8039 91.9324 52.2385 92.9795C52.3082 93.1529 52.4381 94.2994 52.85 93.6481C52.9326 93.5226 52.7254 93.2851 52.966 93.0961C53.3448 92.8051 53.8773 93.0828 54.3515 92.5629C54.4174 92.4878 54.6773 91.9528 54.9286 92.0832C54.9731 92.1128 55.0171 92.1775 55.0576 92.2908C55.0913 92.3855 55.01 92.7705 55.1312 92.8178C55.704 93.0452 56.3992 92.8256 57.0861 93.188C57.3275 93.3169 57.1093 93.9175 57.3378 94.1233C57.568 94.3282 58.047 94.5904 58.4108 94.3942C58.7857 94.2012 58.7048 93.1371 59.2322 93.2116C60.5922 93.4095 62.2671 94.3898 63.3789 95.9862C63.0415 95.6181 62.4127 94.9388 61.0833 94.565C59.8067 94.1423 57.8995 94.6567 57.177 95.2858C56.7754 95.5794 56.5013 95.8892 56.3608 96.0699C56.2584 96.204 56.1826 96.321 56.123 96.4223C56.0046 96.625 55.9482 96.7656 55.914 96.8643C55.8219 97.1908 55.9239 97.0791 55.9621 96.9786C55.9957 96.8975 55.6301 96.8912 55.6574 96.7452C55.7784 96.1507 55.6667 94.4552 56.5054 93.7216C57.1841 93.0964 57.5517 94.0087 57.853 93.5166C57.9956 93.2894 56.8679 92.9042 56.8373 92.8413C56.5265 92.2101 57.0751 91.8469 56.9633 91.3044C56.9401 91.1909 56.4622 91.2597 56.4476 91.1636C56.3931 90.8409 56.6326 90.4835 56.6165 90.1946C56.6088 90.0582 56.2487 90.0555 56.2859 89.9327C56.3709 89.6377 56.5415 89.3784 56.8993 89.0976C56.9319 89.0719 57.364 89.292 57.3973 89.0609C57.4509 88.6703 57.8112 88.2712 57.4974 87.817C57.4027 87.6836 56.5839 87.6265 57.1673 87.389C57.2891 87.3388 58.2683 87.4762 57.4387 87.0993C57.3014 87.0287 56.187 86.4385 56.9414 86.226C57.1401 86.1699 57.9557 86.0432 57.8381 85.8832C57.8191 85.8614 57.3741 85.9183 57.3385 85.7896C57.2207 85.3397 57.2953 84.8513 57.1812 84.4039C57.15 84.2815 56.6847 84.4362 56.6527 84.2544C56.5642 83.7557 56.7129 83.1296 56.8802 82.6399C56.9424 82.4653 57.3139 82.6065 57.3556 82.5957C58.0342 82.4208 57.1382 82.2524 57.089 82.1806C56.795 81.7332 57.2344 81.4204 57.1411 81.0083C57.1164 80.8945 56.6826 80.9545 56.6453 80.9303C56.2811 80.6811 57.0457 80.8894 57.1376 80.746C57.3977 80.34 57.3824 79.9017 57.3452 79.4849C57.3309 79.3328 56.8248 79.4814 56.8177 79.3452C56.7663 78.533 56.8477 77.7018 57.153 76.9289C57.2114 76.7828 57.592 76.8907 57.6809 76.8632C58.3031 76.6737 57.4775 76.3278 57.4004 76.2526C57.0485 75.9096 57.393 75.7946 57.3399 75.5077C57.0754 74.0958 57.3578 72.3659 57.5373 71.0326C57.7686 69.3124 58.1714 67.97 58.1184 66.3124C58.1156 66.2069 57.6016 66.3003 57.5925 66.2091C57.4987 65.0359 57.7254 63.8888 57.6033 62.7117C57.5942 62.6152 57.1064 62.7434 57.0755 62.5882C57.0086 62.2698 57.0435 61.8692 57.2049 61.5522C57.2827 61.3976 57.6943 61.6157 57.7642 61.4599C57.9277 61.097 57.9701 60.7054 57.8998 60.3263C57.8688 60.1652 57.3682 60.3975 57.3666 60.189C57.345 58.7711 57.2843 57.3727 57.9489 55.9555C57.9946 55.8581 59.0037 55.7897 58.8137 55.5754C58.5343 55.5552 58.2053 55.551 57.9064 55.5395C57.7774 53.4629 58.1528 51.4442 58.2281 49.3579C58.2311 49.2709 57.6956 49.4159 57.6988 49.2475C57.7163 48.288 57.577 47.3054 58.115 46.3274C58.1676 46.2287 59.1067 46.291 58.9667 45.994C58.9412 45.941 58.8189 45.4937 58.6157 45.3782C58.585 45.3624 58.146 45.4404 58.1342 45.2976C58.0729 44.4694 58.1773 43.617 58.4484 42.7848C58.493 42.6522 58.9594 42.7953 58.9952 42.7009C59.2456 42.0378 58.8924 41.3012 59.3172 40.6567C59.6032 40.2289 60.4102 40.3884 61.2049 40.1628C61.3171 40.1307 61.335 39.869 61.7972 39.8558C62.9597 39.8213 64.2326 39.9485 65.4717 39.8968C65.7386 39.8855 65.4512 39.5356 66.0961 39.7428C66.1393 39.757 66.3533 40.0119 66.572 40.0755C66.7233 40.1196 67.1935 40.0405 67.3871 40.1305C67.5805 40.2206 67.1863 40.3193 67.4137 40.4699C67.6438 40.6208 68.1788 40.5544 68.2417 40.8576ZM42.1886 109.749C42.6732 109.552 41.0578 109.238 41.3978 109.612C41.4163 109.63 42.1647 109.76 42.1886 109.749ZM61.534 105.588C60.7413 105.566 61.601 106.234 62.2074 106.27C62.8156 106.298 61.7759 105.591 61.534 105.588ZM62.3397 102.29C61.6748 102.441 63.8359 103.321 63.5391 102.764C63.5226 102.732 62.3785 102.281 62.3397 102.29ZM61.4298 41.2242C61.4517 41.2208 61.4733 41.027 61.4517 41.0225C60.9294 40.9185 60.8865 41.3056 61.4298 41.2242ZM62.4645 98.8038C62.1443 98.9028 62.4862 99.2579 62.8871 99.1389C63.2106 99.0388 62.864 98.6756 62.4645 98.8038ZM49.2791 98.9462C49.2968 98.9632 49.423 98.8977 49.3399 98.7872C49.0703 98.4307 48.9776 98.6566 49.2791 98.9462ZM62.025 93.2579C62.0981 94.1023 60.2553 94.8401 60.3349 93.9935C60.3471 93.8361 60.9968 94.2101 61.1345 93.9892C61.3824 93.5704 60.1504 93.5738 60.7088 93.0879C60.8105 92.9932 62.025 93.2041 62.0279 93.2588C62.0269 93.2585 62.026 93.2582 62.025 93.2579ZM44.1638 109.905C44.1857 109.903 44.2375 109.719 44.2174 109.711C43.7209 109.515 43.6131 109.902 44.1638 109.905ZM56.9348 98.5296C56.9377 98.5747 57.3052 98.7062 57.3265 98.671C57.7779 97.9014 56.9233 97.6033 56.9348 98.5296ZM49.2801 116.286C49.1145 115.749 49.2563 115.556 49.7967 115.967C49.6192 116.066 49.4582 116.188 49.2801 116.286Z" fill="black"/>
<path d="M64.7 39.3131C64.769 39.1417 65.0033 39.2246 65.2288 39.3683C65.3005 39.4122 65.3717 39.6962 65.4268 39.7385C65.5378 39.8195 65.5469 39.6644 65.6637 39.7658C65.7027 39.8009 65.8303 40.2458 65.8679 40.2724C66.0792 40.4131 66.1606 40.2578 66.3404 40.2956C67.2125 40.4872 67.9904 40.3679 68.8071 40.2681C69.0808 40.233 69.529 40.5044 69.7143 40.2316C69.7353 40.1996 69.5657 39.8309 69.5587 39.7977C69.4536 39.2885 69.732 40.0586 69.83 40.1361C70.2207 40.4409 70.4877 40.3725 70.6489 40.1375C70.7174 40.0363 70.318 39.3298 70.5841 39.7092C70.6023 39.7347 70.7414 40.1429 70.7847 40.1748C70.8837 40.2458 70.9633 40.13 71.021 40.1432C71.133 40.1707 71.1457 40.1608 71.2298 40.1315C71.3454 40.0953 71.5657 40.236 71.6462 40.0973C71.6633 40.0663 71.4613 39.6723 71.4733 39.5861C71.4854 39.5001 71.6078 39.49 71.6843 39.571C71.7607 39.652 71.8775 39.979 71.9143 40.0498C72.224 40.6479 71.9959 39.7366 72.0034 39.7086C72.1475 39.2252 72.6049 39.6085 72.8809 39.492C73.088 39.4034 73.2504 39.1464 73.4576 39.0858C73.7053 39.0152 74.0043 39.1493 74.2181 39.0152C74.2409 39.0015 74.012 38.5349 74.0395 38.5172C74.3323 38.329 74.6704 38.2484 75.1216 38.4387C75.1671 38.4581 75.3027 38.8953 75.3588 38.9398C75.6998 39.2025 76.3537 39.903 75.6993 38.0265C75.8605 38.0426 76.0532 38.0482 76.3247 38.3676C76.5002 38.5728 76.6197 39.061 76.6303 38.8267C76.6329 38.7744 76.4367 38.3855 76.4534 38.3374C76.5238 38.135 76.7238 38.2039 76.7682 37.9414C76.7768 37.887 76.618 37.5314 76.5983 37.4636C76.4411 36.9135 76.9112 37.734 76.9609 37.787C77.334 38.1816 77.3844 37.9429 77.5534 37.885C77.5927 37.8717 77.3438 37.409 77.3743 37.379C77.5345 37.2298 77.7472 37.1886 78.0236 37.3236C78.0856 37.3548 78.2213 37.7812 78.2598 37.8171C78.4274 37.9704 78.1187 37.1872 78.273 37.3193C78.3051 37.3462 78.444 37.7016 78.4635 37.7388C78.7701 38.3231 78.4501 37.4467 78.455 37.4223C78.5082 37.0945 78.9921 37.9459 79.0964 37.7521C79.1085 37.728 78.8775 37.3017 78.923 37.2612C79.2242 36.9887 79.6501 36.9521 80.1504 37.1591C80.2279 37.1907 80.3308 37.5409 80.3516 37.5806C80.6802 38.1998 80.3508 37.3231 80.3547 37.2832C80.3955 36.9903 80.833 37.657 80.4927 36.5908C81.2361 36.6953 81.5816 35.8687 82.56 36.5379C82.572 36.5454 82.7387 36.9753 82.7618 36.9883C83.0425 37.1503 82.7281 36.5057 82.5045 35.649C82.4485 35.4338 82.9527 36.3687 82.9911 36.4366C83.132 36.6871 83.3695 37.3311 83.401 37.3778C83.6521 37.7431 82.7529 35.6618 82.8625 35.6145C82.8674 35.6165 83.0161 36.0067 83.0415 36.041C83.121 36.1488 83.0846 35.9841 83.1688 36.1044C83.3628 36.3832 83.816 37.3876 83.6634 36.7559C83.6432 36.674 83.1219 35.4982 83.2435 35.5125C83.2786 35.5174 83.3731 35.4705 83.4534 35.4645C83.4578 35.4609 83.4752 35.4572 83.4796 35.4537C83.5105 35.4521 83.5393 35.4567 83.5616 35.473C83.6404 35.5307 83.7645 35.9277 83.7747 35.9429C84.1109 36.3975 84.1482 36.6276 84.5218 37.3513C84.8952 38.0717 84.1434 36.2964 84.0878 36.0866C84.0323 35.8774 84.2994 36.2563 84.3832 36.3917C84.4668 36.5273 84.5384 36.7827 84.5934 36.8562C84.9552 37.3355 84.2869 35.9474 84.2144 35.6461C84.041 34.9335 84.6747 36.2181 84.8276 36.3057C84.8688 36.3295 84.7209 36.0384 84.7325 36.0005C84.7802 35.8542 85.0104 36.2412 84.9565 35.8197C84.948 35.7509 84.696 34.924 84.9986 35.4807C85.0421 35.561 85.1597 35.8982 85.2308 35.9546C85.3371 36.0394 85.4749 36.0651 85.4917 35.9282C85.5039 35.8271 85.218 35.311 85.3491 35.4531C85.4076 35.5166 85.4947 35.853 85.5934 35.9459C85.6918 36.0388 85.8119 35.9705 85.855 35.9388C85.8981 35.9069 85.6947 35.5098 85.6866 35.4806C85.6416 35.3128 85.6472 35.0762 85.6554 35.0732C86.0393 34.8469 86.7178 35.3681 87.0149 34.9646C87.0384 34.9336 86.8273 34.5135 86.8289 34.5043C86.8557 34.2772 87.278 35.4558 87.5222 35.8045C87.1248 34.9384 87.2389 35.0765 87.2716 34.9476C87.2871 34.8848 87.1175 34.5564 87.1055 34.5204C86.9315 33.9844 87.2629 34.6292 87.3328 34.7602C87.5898 35.2421 87.3669 34.6368 87.5392 34.9587C87.7104 35.278 87.8724 35.7923 87.9419 35.7539C87.8234 35.4332 87.4073 34.6427 87.4033 34.4863C87.3874 33.8952 88.0583 34.3618 88.2546 34.3539C88.4505 34.3461 88.4786 34.2646 88.6257 34.3341C88.8916 34.4597 88.5584 33.8841 88.5445 33.559C88.5311 33.2337 89.1386 34.7445 89.2963 35.0572C89.4536 35.3699 89.3243 35.0335 89.4214 35.2007C89.5184 35.3679 89.5738 35.6036 89.6478 35.6497C89.7218 35.6957 89.5919 35.0728 89.4597 34.7313C89.1795 34.0079 88.7945 33.2888 89.0297 33.4972C89.0435 33.5097 89.1944 33.9108 89.2381 33.9387C89.2621 33.9534 89.2854 33.9666 89.3083 33.9786C89.6119 34.1382 89.828 34.083 90.1305 34.2467C90.1755 34.2715 90.3402 34.719 90.3684 34.7384C90.6633 34.9421 90.28 34.2336 90.0222 33.3735C90.4722 34.4717 90.8135 35.1149 90.9462 35.0654C91.0271 35.0356 90.8086 34.5655 90.7159 34.2079C90.6879 34.1001 90.884 34.4032 90.7986 34.1747C90.5194 33.4276 90.1173 32.6295 90.3939 32.8978C90.4065 32.9107 90.5578 33.3202 90.589 33.3357C90.7928 33.437 90.4819 32.6637 90.5928 32.5077C90.6771 32.3863 91.0786 32.7696 91.242 32.7917C91.7479 34.0261 91.7518 33.6941 91.4548 32.8218C91.5541 32.8218 91.625 32.7368 91.757 32.8204C91.801 32.8493 91.9281 33.2146 91.9473 33.2518C92.2466 33.8369 91.9472 32.9927 91.9526 32.9527C92.0258 32.5552 92.4384 33.1206 92.3825 32.4295C92.3804 32.4046 92.0491 31.5391 92.351 32.1472C92.3712 32.1894 92.464 32.6062 92.5655 32.6009C92.664 32.597 93.0193 32.9907 92.9826 32.5438C92.9744 32.436 92.7766 31.7055 93.0534 32.2283C93.0905 32.2995 93.1787 32.5504 93.244 32.6836C93.4526 33.108 93.132 32.2277 93.4656 32.9517C93.7981 33.676 94.1103 34.1938 94.0323 33.6352C94.0304 33.6188 93.7907 32.9156 93.8341 32.9113C93.9027 32.9055 94.0517 33.0136 94.1127 32.9849C94.1425 32.9706 93.9568 32.5482 93.9591 32.5382C94.0761 32.2162 94.3727 32.5425 94.6645 32.6218C94.7202 32.6364 94.6101 32.0056 94.8684 32.439C95.1504 32.9137 95.8661 35.0627 95.8757 34.4822C95.8779 34.2507 94.9615 31.5275 95.6383 32.8618C95.7887 32.4108 96.3194 33.0243 96.4227 32.4234C96.4282 32.3964 96.1863 31.6313 96.2198 31.6304C96.2701 31.6305 96.426 31.972 96.4664 31.9832C96.6376 32.0395 96.6562 31.6904 96.7978 31.6908C96.8527 31.6896 96.9711 32.0587 97.0368 32.0573C97.1025 32.0555 96.9633 31.5632 97.1297 31.764C97.2561 31.9172 97.6809 32.8712 97.8005 32.9564C97.4449 31.9917 97.5058 31.9916 97.5082 31.7012C97.5086 31.6449 97.3638 31.3169 97.3576 31.273C97.3293 31.0867 97.4661 31.3523 97.4307 31.1513C97.4223 31.103 97.3004 30.7737 97.2867 30.7156C97.1654 30.2091 97.5369 30.9136 97.5998 31.0369C97.8429 31.5037 97.7131 31.0649 97.8323 31.24C97.9515 31.4151 97.9695 31.6826 98.0686 31.7789C98.2723 31.9787 98.4096 31.8674 98.528 31.8408C98.5758 31.8277 98.3817 31.3998 98.3848 31.3877C98.4395 31.2408 98.7106 31.6721 98.4417 30.7762C99.3455 33.0156 98.4203 30.5345 98.7281 30.936C98.7524 30.9687 99.1609 32.0347 99.1778 32.2071C99.1929 32.38 99.0045 32.0691 99.0363 32.3359C99.0435 32.3986 99.3348 33.4312 99.3466 33.4959C99.4379 34.002 98.8351 32.4063 98.7981 32.3201C98.3972 31.3903 98.7019 32.5062 98.7048 32.59C98.7126 32.9762 98.53 32.788 98.5239 33.068C98.5193 33.2492 98.9017 34.2991 98.8408 34.2852C98.6399 34.2392 98.0327 32.8019 98.3494 34.1261C98.4168 34.4086 98.8751 35.5411 98.4224 34.6849C98.394 34.6309 98.0004 33.84 98.1412 34.3806C98.1591 34.4487 98.2836 34.7821 98.2854 34.8133C98.2953 35.016 98.158 34.7646 98.1436 34.9149C98.1292 35.0652 98.1265 35.2823 98.0152 35.1951C97.9479 35.1432 97.659 34.5432 97.5817 34.3988C97.3593 33.9827 97.5663 34.7239 97.3322 34.2069C97.0966 33.6873 96.8635 32.8516 96.6403 32.5425C96.9614 33.4097 97.2866 34.3014 97.6075 35.1742C97.3923 35.2201 97.0818 35.0174 96.8898 35.1335C96.8659 35.1489 97.0679 35.604 97.0469 35.6324C96.9573 35.7507 96.7349 35.4559 96.664 35.6336C96.6088 35.7734 96.6939 36.304 96.6464 36.464C96.2143 35.4963 96.1923 35.889 96.056 35.8375C96.008 35.8201 95.9096 35.5551 95.8512 35.4788C95.6333 35.197 96.0113 36.0535 96.0372 36.2012C96.1453 36.8322 95.3781 34.8598 95.2621 34.9603C95.2562 34.9648 95.5729 36.0516 95.5856 36.122C95.6726 36.5794 95.4317 35.7605 95.3532 35.7014C95.2097 35.5935 95.0547 35.3645 95.0699 35.7129C95.0745 35.8161 95.2562 36.4997 95.0021 36.0149C94.9687 35.9515 94.838 35.6022 94.824 35.5843C94.5822 35.2876 95.0034 36.381 95.0835 36.7757C95.1635 37.1702 94.7732 36.4544 94.6687 36.245C94.3979 35.7034 94.6141 35.9896 94.5955 35.9334C94.372 35.2646 94.3456 35.405 94.2695 35.3709C93.8425 34.3044 93.7892 34.3993 94.1909 35.3404C94.2348 35.4432 94.2391 35.3265 94.2695 35.3709C94.6311 36.4398 94.6004 36.6069 94.1236 35.6626C93.8996 35.2203 93.7311 34.6679 93.6736 34.917C93.648 35.0293 93.9621 35.7558 93.9891 35.977C94.0539 36.4806 93.6224 35.8581 93.5426 36.0153C93.5131 36.0726 93.7181 36.4569 93.7037 36.5099C93.6658 36.6516 93.4768 36.3775 93.4559 36.5654C93.4544 36.5829 93.6421 36.9959 93.6191 37.0114C93.4525 37.1355 93.175 36.9351 92.9768 37.0082C92.8792 37.0444 92.807 37.345 92.6902 37.3395C92.4886 37.3323 92.0243 36.8132 91.9405 37.0233C91.8868 37.1578 92.0862 37.5656 92.1679 37.8668C92.3276 38.4498 91.7654 37.5245 91.68 37.3805C91.6771 37.3758 91.7163 37.2423 91.5802 37.0477C91.3618 36.6138 91.68 37.3782 91.68 37.3805C91.6255 37.2872 91.4206 37.2641 91.4231 37.3577C91.4245 37.4088 91.6064 37.798 91.604 37.8172C91.5555 38.1562 91.4444 38.3508 91.2591 38.3892C91.1998 38.4015 91.1331 38.3977 91.0588 38.3774C91.0513 38.3712 90.8626 37.9293 90.8474 37.9203C90.6302 37.7829 90.7848 38.3574 90.8188 38.7241C90.8527 39.0908 90.7197 39.0221 90.32 38.2972C90.2806 38.4285 90.0148 38.1477 89.8569 37.9758C89.6991 37.8039 90.0705 38.6623 90.0721 38.6819C90.1271 39.3053 89.8013 38.8644 89.5734 38.8748C89.4644 38.8782 89.3362 39.0838 89.2772 39.2219C89.2313 39.3325 89.0944 39.1535 89.078 39.3142C89.0756 39.3357 89.2546 39.7118 89.2581 39.7278C89.3782 40.2196 89.0047 39.2716 88.914 39.1129C88.5846 38.5358 88.4043 38.2305 88.4255 38.5613C88.4302 38.6371 88.9526 40.0089 88.9426 40.107C88.9287 40.232 88.7383 39.7418 88.7291 39.8849C88.7282 39.8967 88.8601 40.1928 88.8169 40.1962C88.6179 40.2162 88.3519 40.1271 88.1828 40.2364C88.1592 40.2502 88.397 40.7074 88.3662 40.7351C88.2213 40.8649 88.0267 40.9287 87.7648 40.7797C87.6998 40.7415 87.5828 40.3999 87.5316 40.3056C87.2212 39.7352 87.516 40.6313 87.51 40.6533C87.382 41.1998 86.8142 40.5173 86.6564 41.0224C86.6489 41.0514 86.9032 42.0369 86.5116 41.264C86.4852 41.2128 86.088 40.4207 86.2677 41.0004C86.2788 41.0366 86.4898 41.4418 86.4078 41.4255C86.3263 41.4092 86.3378 41.7331 86.0596 41.3068C85.9739 41.1761 85.5937 40.4238 85.742 41.0171L85.7995 40.9932C85.8038 41.009 85.8085 41.0258 85.8137 41.0435C85.8278 41.0908 86.3284 42.6048 85.857 41.6137C85.7795 41.4505 85.3335 40.3793 85.4728 40.9664C85.5001 41.0802 85.6335 41.3047 85.6498 41.4734C85.6753 41.7331 85.4586 41.4875 85.5722 42.0008C85.5925 42.0916 85.8346 42.8444 85.5483 42.3166C85.5035 42.2339 85.3678 41.8706 85.323 41.8426C85.1097 41.7072 85.0728 42.0044 84.8338 41.8147C84.7495 41.7482 84.529 41.1614 84.4139 41.028C84.2987 40.8946 84.1357 40.7885 84.1957 41.0739C84.2557 41.3595 84.7025 42.2541 84.6559 42.3607C84.4539 42.8233 83.8902 42.4266 83.5191 42.4911C83.464 42.5006 83.6451 42.8117 83.574 42.8493C83.3126 42.9891 82.9729 43.4971 82.4406 42.8986C82.0142 42.4192 82.0712 41.8923 81.8302 41.7259C81.7143 41.6469 82.0918 42.7472 82.0892 42.788C82.0694 43.1996 81.7542 42.7749 81.6678 42.9828C81.65 43.0259 81.8636 43.4462 81.8465 43.4781C81.7896 43.5908 81.6139 43.4373 81.5436 43.5088C81.5126 43.5418 81.6598 43.8696 81.6138 43.8589C81.5054 43.8373 81.3721 43.7298 81.1589 43.4545C81.1395 43.4294 81.0154 42.9967 80.9469 43.0077C80.8362 43.0268 80.5828 42.7734 80.6 43.1386C80.6058 43.2482 80.9246 44.0047 80.6295 43.514C80.5678 43.4115 80.2032 42.4954 80.4492 43.3162C80.4899 43.4527 80.7932 44.5719 80.4337 43.9199C80.3391 43.7483 79.977 43.0256 79.9852 43.1598C79.9875 43.1808 80.1817 43.5774 80.1644 43.6315C80.1004 43.8148 79.9541 43.8256 79.884 44.0052C79.8655 44.054 80.0926 44.4534 80.0594 44.5127C79.9682 44.6765 79.7546 44.6406 79.5656 44.5654C79.4955 44.5369 79.3825 44.1743 79.3629 44.138C79.045 43.5459 79.3624 44.3922 79.3637 44.4488C79.3677 44.7894 79.1126 44.4366 79.0473 44.586C79.0289 44.6262 79.2176 45.0139 79.2265 45.0518C79.3103 45.4236 79.0559 44.6916 78.9836 44.6297C78.7805 44.4534 78.6698 44.5376 78.5794 44.6354C78.5464 44.6719 78.7864 45.1126 78.7546 45.1401C78.5693 45.3115 78.3271 45.3616 78.0055 45.1983C77.9448 45.1666 77.8211 44.8015 77.7787 44.7241C77.4829 44.182 77.7234 44.9899 77.7349 45.0717C77.788 45.4447 77.6221 45.1456 77.5692 45.2367C77.3091 45.6887 76.7523 45.6777 76.3374 45.7003C75.799 45.7311 75.2946 45.5449 74.8802 45.8196C74.8539 45.8365 75.0785 46.2971 75.0583 46.3177C74.7899 46.5625 74.3975 46.5084 74.1335 46.7768C74.1112 46.7981 74.334 47.2308 74.3045 47.28C74.2453 47.3841 74.1254 47.4049 73.9796 47.2973C73.9089 47.2457 73.8078 46.8375 73.7399 46.7934C73.5826 46.6893 73.4602 46.7021 73.386 46.8164C73.3549 46.8661 73.6091 47.2979 73.554 47.3266C73.1861 47.5302 72.8347 47.7652 72.1954 47.3305C72.1517 47.3006 71.7513 46.3753 71.7663 46.5776C71.8664 46.8388 71.9895 47.1439 72.0992 47.4221C71.5868 47.8017 70.8905 47.7025 70.2859 47.8789C70.2596 47.8868 70.4967 48.3676 70.4466 48.3854C70.1612 48.4875 69.9361 48.7319 69.4624 48.3425C69.4165 48.3043 69.1006 47.4194 69.0636 47.5849C69.057 47.615 68.9709 47.7807 69.0085 47.9841C69.0146 48.0147 69.19 48.4174 69.1526 48.4447C68.932 48.597 68.6328 48.5986 68.2785 48.4377C68.2226 48.4104 68.1142 47.9538 68.0734 47.9304C67.7839 47.768 67.6523 48.1861 67.2912 47.8535C67.0594 47.6256 66.8737 46.8382 66.5743 46.0981C66.5317 45.9938 66.4382 46.0019 66.3112 45.5572C65.9925 44.4393 65.6804 43.2048 65.3351 42.0148C65.2596 41.7588 65.2882 42.0489 65.1466 41.4191C65.1365 41.3771 65.1138 41.1612 65.0632 40.9481C65.0276 40.8009 64.8874 40.352 64.845 40.1627C64.8017 39.9739 64.927 40.3479 64.8864 40.1225C64.8418 39.8953 64.6745 39.3873 64.7 39.3131ZM89.1489 37.2087C88.9031 36.8265 89.5637 38.3331 89.4715 37.9433C89.4662 37.9227 89.1611 37.2274 89.1489 37.2087ZM96.6457 33.8558C96.3071 33.208 96.6276 34.2273 96.8828 34.73C97.1377 35.2321 96.7484 34.0522 96.6457 33.8558ZM97.3294 33.0338C97.0323 32.5341 97.8338 34.7248 97.772 34.2445C97.7687 34.2173 97.3467 33.0628 97.3294 33.0338ZM66.8436 45.7788C66.8357 45.7584 66.7694 45.7572 66.7747 45.7782C66.8993 46.2868 67.0358 46.2876 66.8436 45.7788ZM97.9953 32.1706C97.8567 31.8855 97.8914 32.2611 98.0673 32.6144C98.2094 32.8983 98.1693 32.5247 97.9953 32.1706ZM85.1418 37.0447C85.1313 37.0226 85.0859 37.0177 85.1403 37.1451C85.3157 37.5555 85.3185 37.4177 85.1418 37.0447ZM99.4583 31.6015C99.2079 31.6 98.411 29.8401 98.7236 29.9567C98.7803 29.9777 98.8429 30.5676 98.9579 30.7104C99.1675 30.9704 98.817 29.8102 99.1454 30.3802C99.2052 30.4847 99.4738 31.6056 99.4588 31.6041C99.4586 31.6032 99.4584 31.6024 99.4583 31.6015ZM88.3081 35.4202C88.298 35.4009 88.2392 35.4045 88.2468 35.4247C88.4321 35.9139 88.5507 35.9068 88.3081 35.4202ZM82.5997 37.0098C82.5788 36.9683 82.4438 36.9785 82.4567 37.0194C82.7289 37.8317 83.0028 37.8134 82.5997 37.0098ZM91.2576 32.8238C91.1128 32.3152 91.1583 32.2296 91.4542 32.8213C91.384 32.8123 91.3255 32.8307 91.2576 32.8238Z" fill="black"/>
<path d="M104.82 35.9214C104.963 36.6168 104.811 37.4886 104.601 38.1769C104.536 38.3854 104.244 38.28 104.186 38.4246C104.073 38.7081 104.216 38.9756 104.082 39.2631C104.036 39.3585 103.574 39.2402 103.536 39.3403C103.332 39.9017 103.451 40.3793 103.353 40.9371C102.872 43.6365 102.702 46.2874 102.494 49.0181C102.426 49.9318 102.007 51.0063 102.191 51.9469C102.213 52.0547 102.618 51.9902 102.652 52.0107C103.164 52.3324 102.345 52.2258 102.237 52.4365C101.808 53.2727 101.771 54.2141 101.927 55.0174C101.995 55.3611 102.8 55.0163 102.348 55.3626C102.318 55.3866 101.887 55.2994 101.841 55.3938C101.738 55.6077 101.815 56.0144 101.781 56.1809C101.713 56.5009 101.718 56.5523 101.713 56.854C101.702 57.2661 101.488 57.7573 101.585 58.2012C101.607 58.2959 102.049 58.1706 102.124 58.3218C102.199 58.4736 102.161 58.8721 102.057 59.0066C101.953 59.1411 101.606 59.0837 101.527 59.1074C100.856 59.3029 101.785 59.7653 101.807 59.8248C102.198 60.9089 101.668 61.8389 101.668 62.855C101.669 63.6276 101.843 64.4556 101.817 65.1879C101.785 66.0656 101.544 66.8075 101.583 67.6552C101.587 67.7455 102.106 67.6412 102.111 67.7515C102.168 68.9226 102.108 70.0745 101.753 71.2352C101.716 71.351 101.262 71.1997 101.198 71.3152C100.821 72.0132 99.9162 73.1537 101.897 73.5789C101.817 74.0516 101.734 74.6498 101.331 75.0772C101.072 75.3535 100.578 75.0809 100.787 75.4227C100.834 75.4997 101.269 75.4028 101.306 75.518C101.462 75.9981 101.318 76.5361 101.539 77.0209C101.584 77.1193 101.974 77.0954 102.044 77.1237C102.61 77.3618 101.668 77.74 101.6 77.8227C101.086 78.4522 101.282 78.9468 101.264 79.5384C101.259 79.6764 101.784 79.5182 101.799 79.6511C101.867 80.3287 101.814 81.0846 101.575 81.7439C101.52 81.8919 101.076 81.7501 101.027 81.8205C100.817 82.1323 101.657 82.2242 101.472 82.5297C101.434 82.5945 101.053 82.553 101.011 82.5643C100.351 82.7419 101.281 82.9133 101.301 82.9609C101.574 83.5563 100.596 83.9301 100.725 84.5167C100.741 84.5863 101.226 84.4374 101.243 84.6325C101.356 85.9136 101.197 87.3239 100.78 88.5825C100.715 88.7876 100.356 88.631 100.311 88.6429C99.6078 88.8359 100.54 88.9924 100.573 89.0589C100.813 89.5654 100.014 90.0438 101.116 90.4276C100.899 91.4493 100.904 92.441 100.81 93.5165C100.772 94.1032 100.486 94.8661 100.006 95.3601C99.5333 95.8617 99.0218 96.0949 98.6019 96.2282C97.7514 96.4787 97.1012 96.4163 96.4641 96.2629C96.4346 96.2562 96.4053 95.7937 96.3472 95.7823C95.6515 95.6378 95.8874 96.3223 95.6288 97.2564C95.5676 97.4899 95.0739 96.5066 95.028 96.4372C94.8727 96.1768 94.843 95.4837 94.7983 95.4362C94.4195 95.0705 94.9266 97.2786 94.6097 97.3553C94.5983 97.3542 94.542 96.9382 94.504 96.9049C94.3834 96.8005 94.3392 96.9835 94.2174 96.8683C93.9448 96.6008 93.5123 95.5771 93.4084 96.2964C93.403 96.3884 93.8898 97.5742 93.6445 97.6108C93.5347 97.6242 93.1938 97.8293 93.0699 97.8212C92.9365 97.8119 92.757 97.4323 92.7423 97.4206C92.1384 97.1855 92.1031 96.9287 91.3892 96.4736C90.6379 96.0692 92.0373 97.4027 92.1444 97.5997C92.1447 97.6002 92.145 97.6007 92.1452 97.6012C92.2483 97.7939 91.7352 97.7014 91.5605 97.6753C91.3891 97.641 91.2386 97.4035 91.1238 97.4079C90.3567 97.482 91.7902 98.123 91.9715 98.4002C92.4464 99.0028 91.0884 98.5176 90.8136 98.7979C90.7438 98.8663 91.0721 98.9249 91.0712 99.0071C91.0696 99.3232 90.5818 99.3685 90.8754 99.8256C90.9203 99.9094 91.6865 100.372 91.0343 100.404C90.9399 100.41 90.6083 100.258 90.5014 100.374C90.34 100.549 90.1964 100.912 90.2835 101.15C90.3476 101.327 90.9546 101.222 90.7467 101.398C90.6544 101.477 90.3354 101.265 90.1901 101.421C90.0435 101.578 90.0145 102.031 90.0152 102.203C90.0149 102.375 90.466 102.312 90.4949 102.328C90.6598 102.422 90.8569 102.75 90.8558 102.777C90.8484 104.171 90.1741 105.567 90.5624 106.986C90.5924 107.097 91.0521 106.975 91.0615 106.991C91.2964 107.352 90.0231 107.179 89.6366 107.496C90.5799 107.355 90.425 107.533 90.5604 107.793C90.6266 107.918 90.9847 107.803 91.0236 107.811C91.6027 107.936 90.9008 108.157 90.7583 108.211C90.2339 108.407 90.8905 108.466 90.5409 108.601C90.1943 108.736 89.636 108.602 89.6781 108.866C90.026 108.894 90.8836 108.582 91.0533 108.76C91.3304 109.049 91.3965 109.487 91.388 109.943C91.3345 110.318 91.2869 110.755 91.4078 110.972C91.617 111.337 91.7886 111.366 91.9465 111.616C92.2876 112.06 92.4334 111.38 92.784 111.198C93.1271 110.997 92.5205 112.507 92.4586 112.855C92.4131 113.207 92.5773 112.88 92.5959 113.084C92.6205 113.289 92.3941 113.476 92.5577 113.593C92.7357 113.718 93.3395 113.19 93.429 112.828C93.6386 112.072 93.5665 111.25 93.8699 111.564C93.8892 111.582 93.7908 112.004 93.8683 112.053C93.955 112.104 94.0447 112.148 94.1359 112.184C94.7086 112.413 95.3281 112.368 95.996 112.41C96.1044 112.416 96.1697 112.897 96.2378 112.904C96.9644 112.963 96.4679 112.284 96.3782 111.351C96.8046 112.458 97.2915 113.049 97.7683 112.796C98.0453 112.644 97.738 112.221 97.7055 111.813C97.6931 111.692 98.0589 111.88 97.9556 111.655C97.6111 110.926 96.9692 110.29 97.5224 110.334C97.5482 110.336 97.7525 110.726 97.8237 110.707C98.2905 110.576 97.8195 109.886 98.1008 109.514C98.3193 109.225 99.1511 109.131 99.5197 108.86C100.477 109.79 100.567 109.247 99.9949 108.505C100.218 108.313 100.385 108.04 100.665 107.903C100.761 107.855 101.017 108.152 101.057 108.169C101.685 108.436 101.077 107.765 101.089 107.695C101.194 107.235 101.557 107.044 101.801 106.747L101.703 106.914C101.813 106.69 101.862 106.442 101.726 106.098C101.713 106.067 100.875 105.671 101.567 105.77C101.615 105.777 101.918 106.145 102.07 105.866C102.22 105.591 102.908 105.216 102.665 104.65C102.606 104.514 101.998 103.998 102.622 104.005C102.707 104.006 102.945 104.127 103.098 104.14C103.587 104.177 102.733 103.785 103.535 103.907C104.336 104.03 105.016 103.899 104.641 103.291C104.631 103.272 103.962 102.933 104.017 102.804C104.105 102.597 104.351 102.338 104.416 102.111C104.446 102.003 103.984 101.936 103.982 101.915C103.953 101.124 104.492 100.729 104.861 99.9821C104.93 99.8448 104.415 99.2918 104.96 99.1206C105.558 98.9226 107.706 99.7253 107.331 98.8486C107.181 98.483 104.417 97.6392 105.963 97.3506C105.746 96.2833 106.59 95.3694 106.059 94.2955C106.035 94.248 105.232 94.1127 105.24 94.0108C105.253 93.8572 105.623 93.7536 105.642 93.6368C105.727 93.1466 105.361 92.7452 105.331 92.297C105.316 92.1239 105.709 92.112 105.686 91.8953C105.674 91.7989 105.562 91.7413 105.457 91.6818C105.302 91.6617 105.172 91.6571 105.151 91.4556C105.151 91.2047 105.45 90.1215 104.971 89.8291C104.628 90.8002 104.4 90.6949 104.028 90.9535C103.962 91.0045 104.021 91.3639 103.992 91.4066C103.892 91.5888 103.777 91.2992 103.695 91.511C103.676 91.5619 103.72 91.9102 103.712 91.9711C103.675 92.494 103.267 91.7878 103.155 91.6794C102.8 91.2435 102.851 91.7131 102.629 91.5815C102.392 91.4582 102.532 91.1197 102.294 91.0857C101.788 91.0212 101.307 91.3509 100.93 91.5695C100.777 91.6609 101.131 91.992 101.114 92.0143C100.891 92.2956 100.304 92.0977 100.695 92.9669C99.0841 91.1537 100.662 93.2754 99.9868 93.1842C99.9334 93.1761 99.1883 92.309 99.2148 92.0771C99.2425 91.8446 99.6432 91.9895 99.6713 91.6471C99.6724 91.5698 99.3124 90.5145 99.3166 90.4337C99.3179 89.8188 100.312 91.21 100.373 91.2815C101.079 92.026 100.77 90.8632 100.831 90.7361C101.056 90.1821 101.537 90.2038 101.831 89.797C102.031 89.5325 101.674 88.4735 101.955 88.413C102.428 88.3157 102.875 88.6456 103.229 88.8299C103.612 89.0192 103.845 89.0279 104.528 88.4204C104.823 88.1903 104.795 86.8582 105.716 88.1436C105.814 88.233 106.135 89.3335 106.786 89.1695C106.875 89.1501 107.095 88.8704 107.18 88.901C107.625 89.0731 107.742 89.4154 107.97 89.7008C108.128 89.944 108.514 90.6121 108.559 90.8987C108.573 90.9529 108.597 91.008 108.639 91.0645C108.843 91.3378 109.114 91.6745 109.045 92.031C109.006 92.2543 108.378 92.5826 108.226 92.6892C107.788 92.9865 108.573 93.1935 108.017 93.3846C107.457 93.5649 106.58 93.3451 106.232 93.723C107.156 93.6931 108.106 93.6841 109.036 93.6713C109.041 94.6021 108.707 95.4624 108.671 96.3157C108.667 96.4223 109.172 96.3587 109.181 96.4763C109.212 96.9792 108.808 97.3503 108.875 97.8624C108.929 98.2549 109.377 98.7621 109.431 99.1872C108.346 99.2307 108.583 99.8682 108.393 100.259C108.327 100.396 108.054 100.322 107.941 100.402C107.518 100.703 108.47 100.744 108.587 100.884C109.082 101.496 107.023 101.007 106.936 101.527C106.932 101.552 107.925 102.189 107.978 102.257C108.333 102.682 107.587 102.199 107.454 102.358C107.21 102.648 106.884 102.796 107.078 103.28C107.135 103.422 107.717 103.91 107.127 103.959C107.05 103.966 106.702 103.832 106.673 103.848C106.19 104.144 107.295 104.53 107.585 104.904C107.875 105.278 106.979 105.374 106.733 105.367C106.097 105.352 106.546 105.131 106.494 105.099C105.876 104.736 105.895 105.043 105.766 105.218C104.678 104.847 104.642 105.141 105.636 105.403C105.745 105.431 105.702 105.239 105.766 105.218C106.759 105.782 106.772 106.158 105.66 106.109C105.138 106.085 104.661 105.73 104.671 106.273C104.674 106.52 105.44 106.735 105.562 107.008C105.821 107.593 105.025 107.872 104.855 108.305C104.794 108.414 104.631 108.735 104.547 108.827C104.53 108.852 104.516 108.878 104.503 108.906C104.43 109.072 104.879 109.197 104.84 109.321C104.735 109.651 104.302 109.678 104.224 110.04C104.218 110.074 104.618 110.299 104.557 110.385C104.096 111.038 103.416 111.388 102.814 112.012C102.526 112.313 102.148 113.035 101.763 113.307C101.102 113.79 99.9085 113.874 99.3895 114.381C99.0411 114.717 99.3554 115.052 99.3194 115.43C99.2273 116.178 98.0232 115.554 97.8822 115.427C97.88 115.424 98.2341 115.148 97.9275 115.031C97.6126 114.64 97.8878 115.422 97.8822 115.427C97.782 115.363 96.9169 115.575 96.7622 115.699C96.681 115.772 96.8533 116.169 96.8063 116.2C96.0223 116.703 95.0494 116.984 94.0675 116.957C93.6507 116.947 93.2373 116.883 92.8292 116.764C92.8067 116.752 92.9083 116.282 92.8566 116.26C92.1504 115.935 91.5505 116.388 90.7112 116.448C89.8809 116.506 89.2627 116.014 89.3483 115.065C88.7783 114.812 88.3442 113.88 88.2358 113.344C88.124 112.82 87.3065 113.241 87.259 113.206C86.3382 112.457 86.2205 111.563 86.2382 110.735C86.274 110.544 86.3109 110.338 86.3031 110.109C86.2917 109.75 86.0614 109.063 85.9129 108.684C85.7934 108.385 85.9897 108.174 85.8191 107.902C85.7963 107.865 85.3866 107.949 85.3693 107.939C84.8394 107.667 85.8685 107.717 86.0424 107.632C86.6756 107.324 87.0115 107.15 86.6659 106.77C86.5869 106.685 85.103 106.524 85.0043 106.348C84.879 106.121 85.4093 106.175 85.2662 105.938C85.2546 105.918 84.9311 105.943 84.9362 105.79C84.9557 105.077 85.118 104.289 85.092 103.523C85.0898 103.418 84.5743 103.548 84.5629 103.394C84.51 102.669 84.5713 101.836 84.8929 101.105C84.9739 100.925 85.3188 101.082 85.4294 101.054C86.0976 100.892 85.214 100.427 85.2064 100.359C84.9964 98.8434 86.0543 97.9136 86.4818 96.1269C86.4864 96.0489 86.0319 94.7894 86.9884 94.9324C87.0572 94.9328 87.9705 95.1586 87.6959 94.5346C87.6816 94.4929 87.167 94.4048 87.4754 94.0971C87.6125 93.963 87.7377 93.747 87.9126 93.5402C88.1605 93.2491 88.4933 92.9851 88.9484 92.9816C89.2195 92.9675 90.0531 93.435 90.132 92.5722C90.1019 92.5216 90.1624 90.684 90.894 91.5697C91.0113 91.7178 91.4332 92.7874 91.7105 92.0389C91.7676 91.8941 91.4942 91.7194 91.7026 91.47C92.0314 91.0844 92.6291 91.2297 92.9476 90.6199C92.9999 90.512 93.169 89.6627 93.5467 90.1954C93.6046 90.2791 93.611 90.6732 93.748 90.6893C94.3935 90.7701 94.9092 90.4277 95.3949 90.6166C95.5635 90.6833 95.5929 91.3139 95.7786 91.4515C95.9614 91.5901 96.2798 91.6915 96.3153 91.3878C96.3422 91.0866 96.0288 90.1362 96.0836 90.0394C96.1324 89.9301 95.9714 89.8707 95.3644 90.345C94.7251 90.7664 94.0224 92.2749 94.1326 92.9502C94.1946 92.8 94.2596 92.6033 94.3161 92.3741C94.37 92.1879 94.4158 91.9778 94.4433 91.7463C94.4647 91.5686 94.1019 91.6811 94.1059 91.4448C94.1245 90.4793 93.8357 88.8423 94.6142 87.9831C95.2373 87.3274 95.6806 88.1838 95.9396 87.6739C96.0632 87.4258 94.909 87.1211 94.8737 87.0577C94.5152 86.443 95.0363 86.0684 94.8882 85.5094C94.8575 85.3949 94.3853 85.4986 94.3643 85.4012C94.2884 85.0708 94.5034 84.7542 94.4698 84.4419C94.4536 84.3029 94.094 84.3231 94.1237 84.1952C94.1904 83.8901 94.3455 83.6072 94.686 83.3269C94.717 83.3006 95.1614 83.4863 95.181 83.2647C95.2115 82.9056 95.5494 82.4549 95.2116 82.0199C95.1099 81.8904 94.2891 81.8759 94.8591 81.6195C94.9781 81.5653 95.963 81.648 95.1148 81.329C94.9739 81.2758 93.8308 80.7402 94.5739 80.486C94.7695 80.4192 95.578 80.2511 95.4527 80.0961C95.4327 80.0752 94.9909 80.1539 94.9492 80.0267C94.8095 79.5954 94.8607 79.1385 94.7266 78.6824C94.6899 78.5606 94.232 78.7377 94.1919 78.5561C94.0809 78.0458 94.2018 77.4531 94.3482 76.966C94.403 76.7878 94.7801 76.914 94.8213 76.9013C95.4919 76.6969 94.5897 76.5658 94.5376 76.4957C94.2253 76.0533 94.6516 75.7405 94.5419 75.343C94.5127 75.2337 94.0817 75.3084 94.0434 75.2864C93.6697 75.0587 94.4419 75.2315 94.528 75.0891C94.7719 74.6918 94.7399 74.233 94.6871 73.832C94.667 73.6844 94.1668 73.8475 94.1546 73.715C94.0728 72.9348 94.1246 72.0899 94.4031 71.3321C94.4564 71.1875 94.8405 71.2802 94.9285 71.2504C95.5437 71.045 94.7069 70.7352 94.6274 70.6643C94.2642 70.342 94.6046 70.2182 94.5422 69.9331C94.2314 68.5553 94.4613 66.8468 94.6031 65.5396C94.7857 63.8416 95.1533 62.5195 95.0599 60.8969C95.0544 60.7938 94.5429 60.8973 94.5316 60.8084C94.4093 59.6596 94.6097 58.5318 94.4622 57.3796C94.451 57.2853 93.9661 57.4212 93.9319 57.2698C93.8582 56.9591 93.8846 56.5667 94.0394 56.2531C94.114 56.0992 94.53 56.3056 94.5966 56.1507C94.7526 55.7901 94.7871 55.4042 94.7093 55.0355C94.6751 54.8787 94.1793 55.1154 94.1735 54.9116C94.124 53.5232 94.0379 52.1643 94.679 50.749C94.723 50.6527 95.7308 50.5674 95.5374 50.3634C95.2577 50.3483 94.9287 50.3494 94.6297 50.3429C94.467 48.3131 94.8142 46.3226 94.8659 44.2811C94.8679 44.1958 94.3341 44.3437 94.3354 44.1787C94.3422 43.2396 94.1931 42.28 94.7228 41.3088C94.7746 41.2099 95.7141 41.2589 95.5717 40.9691C95.5457 40.9175 95.42 40.4844 95.2159 40.3743C95.1851 40.3592 94.7467 40.4379 94.7338 40.2997C94.6663 39.516 94.7656 38.6269 95.0329 37.8391C95.0769 37.7052 95.544 37.8473 95.5793 37.7521C95.8267 37.0685 95.4713 36.3989 95.8951 35.7382C96.1804 35.3142 96.9877 35.4714 97.7822 35.2491C97.8943 35.2173 97.912 34.9621 98.3743 34.9493C99.5368 34.9156 100.81 35.0383 102.049 34.9878C102.316 34.9765 102.028 34.64 102.673 34.8392C102.716 34.8528 102.93 35.0986 103.149 35.1602C103.301 35.2028 103.771 35.1259 103.964 35.2129C104.158 35.3 103.764 35.3961 103.991 35.5429C104.222 35.6901 104.756 35.6239 104.82 35.9214ZM88.1995 111.069C88.5483 110.621 86.9218 110.886 87.4186 111.255C87.445 111.272 88.1835 111.094 88.1995 111.069ZM107.453 95.3787C106.712 95.6662 107.758 95.9596 108.334 95.7633C108.909 95.5535 107.678 95.2847 107.453 95.3787ZM106.731 91.9322C106.237 92.4123 108.555 92.13 108.005 91.727C107.973 91.7029 106.76 91.9025 106.731 91.9322ZM98.0088 36.2995C98.0307 36.296 98.0519 36.1025 98.0302 36.0981C97.5077 35.9953 97.4657 36.3821 98.0088 36.2995ZM102.89 90.5057C103.085 90.7729 103.363 90.3435 103.124 89.9927C102.909 89.7111 102.615 90.1765 102.89 90.5057ZM90.0705 98.4934C90.0944 98.499 90.1698 98.381 90.0425 98.3271C89.6306 98.1533 89.6644 98.3946 90.0705 98.4934ZM98.2355 93.4885C98.9088 93.0249 100.475 94.2411 99.7095 94.5927C99.5705 94.6581 99.5582 93.9175 99.3026 93.9051C98.825 93.8927 99.4429 94.9578 98.7428 94.7119C98.6124 94.6684 98.194 93.5112 98.2348 93.4856C98.235 93.4866 98.2353 93.4876 98.2355 93.4885ZM90.0713 110.414C90.09 110.403 90.0738 110.22 90.0529 110.218C89.5158 110.195 89.5593 110.626 90.0713 110.414ZM96.8963 95.7264C96.9126 95.7724 97.3776 95.7165 97.3868 95.6676C97.4047 94.7897 96.5355 94.888 96.8963 95.7264ZM99.5503 108.879C99.3014 108.379 99.3998 108.18 99.9938 108.506C99.8395 108.625 99.7054 108.763 99.5503 108.879Z" fill="black"/>
<path d="M61.2877 61.3382C61.4197 61.0966 61.7538 61.0827 62.0469 61.1585C62.1382 61.1817 62.2517 61.4525 62.3215 61.4798C62.4566 61.5337 62.4708 61.3616 62.6119 61.4371C62.6601 61.463 62.8547 61.8833 62.9 61.9013C63.1441 61.9982 63.2443 61.8071 63.4352 61.8129C64.4188 61.8181 65.2368 61.5645 66.0915 61.3353C66.3709 61.2605 66.8794 61.4599 67.0437 61.1612C67.0629 61.1259 66.8508 60.7798 66.8404 60.7474C66.6839 60.2501 67.0468 60.9843 67.1571 61.0479C67.5971 61.2968 67.8687 61.1911 68.0177 60.9319C68.0807 60.8204 67.5999 60.1655 67.9124 60.5099C67.9337 60.5331 68.1152 60.9244 68.1634 60.9504C68.2731 61.0082 68.3477 60.8801 68.4088 60.8857C68.5283 60.898 68.5407 60.8863 68.6261 60.8455C68.7445 60.793 68.9841 60.9064 69.0603 60.7541C69.0754 60.7207 68.8309 60.3514 68.8361 60.2631C68.8414 60.1749 68.9685 60.1486 69.0551 60.2199C69.1418 60.2913 69.2913 60.6048 69.3358 60.6711C69.7093 61.2318 69.3942 60.3456 69.3999 60.3164C69.5175 59.8073 70.0171 60.139 70.3019 59.9834C70.513 59.8668 70.6559 59.5911 70.8723 59.5017C71.1298 59.3974 71.4439 59.4998 71.6614 59.3362C71.6846 59.3194 71.4096 58.8782 71.4374 58.8567C71.7304 58.6306 72.0768 58.5088 72.5629 58.6457C72.6116 58.6599 72.7857 59.0835 72.8472 59.1217C73.2191 59.3471 73.9552 59.9731 73.1373 58.1614C73.3059 58.159 73.5049 58.1434 73.8126 58.4322C74.0108 58.6181 74.1699 59.0957 74.1646 58.8585C74.1637 58.8055 73.9312 58.437 73.9454 58.3864C74.0056 58.1739 74.2192 58.2201 74.2456 57.9515C74.2506 57.8959 74.06 57.5562 74.0346 57.4903C73.8317 56.9549 74.3806 57.7261 74.4361 57.7738C74.8531 58.128 74.8917 57.8807 75.0616 57.8043C75.1014 57.7866 74.8103 57.349 74.8398 57.3154C74.9961 57.1473 75.2166 57.081 75.5147 57.1855C75.5816 57.2098 75.7519 57.6239 75.7945 57.6556C75.9798 57.7911 75.6041 57.0378 75.7738 57.1535C75.8091 57.177 75.9779 57.5192 76.0008 57.5545C76.3598 58.1084 75.9672 57.2619 75.9706 57.2368C76.0044 56.9007 76.5662 57.7038 76.6622 57.497C76.6733 57.4714 76.404 57.0679 76.4488 57.022C76.7438 56.7149 77.1879 56.63 77.722 56.7845C77.8049 56.8079 77.9348 57.1493 77.9591 57.187C78.3417 57.7747 77.9415 56.9279 77.943 56.8872C77.9667 56.5879 78.4656 57.2119 78.0427 56.1751C78.8242 56.2003 79.1337 55.3306 80.1951 55.9017C80.2081 55.9079 80.4083 56.3233 80.4333 56.334C80.7356 56.4677 80.3683 55.8517 80.083 55.0123C80.0115 54.8015 80.5944 55.69 80.6385 55.7545C80.8007 55.992 81.0876 56.6156 81.1232 56.6594C81.4071 57.0012 80.3429 54.9992 80.4543 54.9401C80.4595 54.9416 80.6382 55.3191 80.6668 55.351C80.7562 55.4512 80.7083 55.2892 80.8033 55.4016C81.0225 55.6621 81.5557 56.6265 81.3583 56.0062C81.3324 55.9259 80.7178 54.796 80.8457 54.7977C80.8971 54.7994 81.063 54.688 81.1508 54.7362C81.2386 54.7843 81.3964 55.1694 81.4082 55.1835C81.7942 55.6003 81.8489 55.8279 82.2902 56.5128C82.7301 57.195 81.8208 55.495 81.7484 55.2901C81.6764 55.0857 81.9826 55.436 82.0791 55.563C82.1756 55.69 82.2675 55.9391 82.3298 56.0069C82.739 56.4494 81.9497 55.126 81.8549 54.8304C81.63 54.1307 82.3752 55.3546 82.5399 55.4269C82.5844 55.4464 82.4121 55.169 82.4222 55.1294C82.4642 54.9765 82.7272 55.3426 82.6474 54.9231C82.6343 54.8548 82.3266 54.0461 82.6742 54.5764C82.7242 54.6529 82.8653 54.9811 82.9429 55.0307C83.059 55.1054 83.2046 55.1176 83.2152 54.978C83.223 54.8747 82.8974 54.3822 83.0422 54.5126C83.1067 54.5709 83.2146 54.9017 83.3226 54.9858C83.4303 55.07 83.5524 54.9898 83.596 54.9539C83.6394 54.9178 83.4079 54.5362 83.398 54.5075C83.3694 54.4216 83.3544 54.3155 83.3478 54.233C83.3589 54.2225 83.4049 54.2098 83.4166 54.2C83.4159 54.1235 83.4212 54.0674 83.4255 54.0657C83.8489 53.8195 84.5507 54.3366 84.8843 53.9298C84.911 53.8984 84.7092 53.4737 84.7114 53.4644C84.7531 53.2344 85.1373 54.4265 85.3762 54.7801C85.0023 53.9035 85.1155 54.0435 85.1575 53.9134C85.1774 53.85 85.0166 53.5171 85.0059 53.4807C84.8528 52.9378 85.1671 53.5915 85.2332 53.7245C85.4767 54.2135 85.2768 53.6001 85.4397 53.9269C85.6012 54.2514 85.7423 54.7722 85.8169 54.7347C85.7112 54.4095 85.3192 53.6064 85.3249 53.4484C85.3471 52.8498 86.0281 53.3324 86.234 53.3301C86.4408 53.3272 86.4761 53.246 86.6255 53.3202C86.8956 53.4546 86.5871 52.8649 86.5963 52.5368C86.6059 52.2087 87.1334 53.7494 87.2762 54.0692C87.4184 54.3892 87.307 54.0464 87.3967 54.2178C87.4862 54.3893 87.5273 54.6283 87.6014 54.6771C87.6753 54.7259 87.5839 54.0946 87.4702 53.7465C87.229 53.009 86.878 52.2725 87.1087 52.4901C87.1222 52.5032 87.2513 52.9119 87.2951 52.9414C87.6373 53.1631 87.8769 53.0935 88.2043 53.2802C88.2496 53.3064 88.3922 53.7616 88.4205 53.7819C88.7156 53.995 88.3623 53.2708 88.1451 52.3992C88.5467 53.516 88.8628 54.1723 89.0072 54.1244C89.0941 54.0959 88.8936 53.6178 88.8173 53.2558C88.7942 53.1467 88.9821 53.4557 88.9054 53.2241C88.6546 52.4669 88.2776 51.6565 88.5496 51.9322C88.562 51.9455 88.699 52.36 88.7304 52.3762C88.9345 52.4826 88.6504 51.699 88.7652 51.546C88.7777 51.5293 88.7962 51.5225 88.8191 51.5232C88.9606 51.5278 89.2727 51.8203 89.4135 51.8406C89.9046 53.081 89.9225 52.7448 89.6272 51.8719C89.7278 51.8718 89.7992 51.7862 89.9304 51.8693C89.9753 51.8976 90.1055 52.2617 90.1251 52.2988C90.4336 52.8794 90.1257 52.038 90.13 51.9981C90.1935 51.601 90.6288 52.1508 90.5447 51.4614C90.5417 51.4365 90.168 50.5885 90.4971 51.182C90.5201 51.2228 90.6333 51.6347 90.7348 51.6241C90.8354 51.614 91.2153 51.9848 91.1521 51.5385C91.1385 51.4304 90.8806 50.7195 91.1973 51.2187C91.2404 51.2865 91.3487 51.5294 91.4254 51.6565C91.6712 52.0608 91.278 51.2104 91.6744 51.9019C92.0701 52.5938 92.441 53.0748 92.3182 52.521C92.3152 52.5047 92.0069 51.8286 92.0514 51.8189C92.1246 51.803 92.2816 51.8957 92.346 51.8563C92.3764 51.8374 92.1415 51.4401 92.143 51.4298C92.2278 51.0931 92.567 51.377 92.8765 51.41C92.9328 51.4173 92.7454 50.8023 93.0644 51.1929C93.4175 51.6184 94.4378 53.6416 94.3832 53.0525C94.3617 52.8164 93.0296 50.2707 93.9176 51.4751C94.011 50.9943 94.654 51.4975 94.6623 50.877C94.6637 50.8488 94.2852 50.1412 94.3193 50.1332C94.3707 50.1227 94.5892 50.4281 94.6328 50.4304C94.8225 50.4467 94.7692 50.1032 94.9193 50.0687C94.9761 50.0548 95.1638 50.3941 95.2323 50.377C95.3001 50.3598 95.0654 49.9052 95.2714 50.0668C95.4278 50.1904 96.0401 51.0367 96.1836 51.0898C95.6383 50.2182 95.7005 50.2041 95.6473 49.9166C95.6368 49.8609 95.4264 49.5706 95.4115 49.5287C95.3466 49.3515 95.537 49.5819 95.4619 49.3918C95.444 49.346 95.256 49.0495 95.2307 48.9954C95.0085 48.524 95.5208 49.1339 95.6101 49.24C95.9497 49.6428 95.7312 49.2404 95.8875 49.3846C96.0439 49.5285 96.1146 49.7886 96.2353 49.8594C96.4877 50.0041 96.595 49.8674 96.7164 49.8079C96.7636 49.7824 96.478 49.409 96.4788 49.3962C96.5071 49.2363 96.8717 49.5937 96.4116 48.7792C97.7938 50.7596 96.3379 48.5478 96.7332 48.8666C96.765 48.8925 97.404 49.8385 97.4555 50.0051C97.5069 50.1715 97.251 49.9125 97.3388 50.1672C97.3594 50.2269 97.8687 51.1718 97.8937 51.2328C98.0887 51.7101 97.1464 50.2881 97.0914 50.212C96.492 49.3958 97.0272 50.4221 97.0459 50.5048C97.1338 50.8824 96.9084 50.7422 96.9544 51.0221C96.9838 51.2032 97.5802 52.1481 97.5131 52.1504C97.2929 52.1569 96.3959 50.8801 96.9682 52.1174C97.0895 52.3816 97.7744 53.3936 97.1437 52.656C97.1034 52.6099 96.5467 51.9222 96.7913 52.4247C96.8221 52.4881 97.0113 52.7895 97.0186 52.8202C97.0643 53.0198 96.8763 52.803 96.8871 52.9562C96.8967 53.1103 96.926 53.3304 96.7912 53.2718C96.7099 53.2372 96.3073 52.7064 96.2023 52.5804C95.9009 52.2168 96.2373 52.91 95.9059 52.4488C95.5731 51.9851 95.1911 51.2055 94.9072 50.948C95.3856 51.7394 95.8719 52.5544 96.3504 53.3519C96.1238 53.4519 95.7611 53.3213 95.5663 53.4842C95.5429 53.505 95.8234 53.9167 95.8047 53.9501C95.7268 54.088 95.4347 53.8485 95.3821 54.0423C95.3399 54.1953 95.491 54.7157 95.453 54.8901C94.8625 54.0089 94.8878 54.4074 94.7257 54.3872C94.669 54.3805 94.5342 54.1321 94.4611 54.0673C94.1898 53.8279 94.6926 54.6182 94.7344 54.7633C94.9119 55.3826 93.8775 53.5362 93.7602 53.6593C93.7549 53.6646 94.1933 54.7099 94.2118 54.7797C94.3411 55.2301 94.0119 54.4413 93.9191 54.3964C93.7508 54.3135 93.5575 54.111 93.5958 54.4637C93.6088 54.5673 93.8489 55.2349 93.5327 54.7858C93.4915 54.7269 93.3262 54.3926 93.3093 54.3767C93.0195 54.1161 93.5475 55.1618 93.6494 55.5549C93.7507 55.9481 93.2748 55.2812 93.1483 55.0835C92.821 54.5726 93.0811 54.8294 93.0585 54.7745C92.7842 54.1244 92.7555 54.274 92.6674 54.2509C92.1529 53.2237 92.1013 53.3255 92.5786 54.2307C92.631 54.3295 92.6319 54.2098 92.6674 54.2509C93.1101 55.2892 93.0665 55.4709 92.5059 54.5712C92.2437 54.1492 92.0457 53.6064 91.9865 53.8669C91.9598 53.9844 92.3202 54.6891 92.3498 54.9131C92.4121 55.4266 91.9215 54.8385 91.8249 55.0078C91.7886 55.0699 92.0146 55.4436 91.9953 55.4998C91.9443 55.6504 91.7289 55.3894 91.6971 55.5837C91.6943 55.6019 91.8933 56.0099 91.8648 56.0282C91.6498 56.1764 91.3373 55.9905 91.1003 56.0765C90.9858 56.1184 90.8774 56.4296 90.7465 56.4267C90.742 56.4267 90.7374 56.4264 90.7327 56.426C90.5009 56.4041 90.0421 55.9061 89.9378 56.1144C89.8674 56.2512 90.0536 56.6654 90.1184 56.9714C90.244 57.5646 89.7036 56.6231 89.6234 56.4759C89.6208 56.471 89.6743 56.3361 89.5421 56.1375C89.3403 55.6956 89.6237 56.4736 89.6234 56.4759C89.5712 56.3811 89.3519 56.3548 89.3468 56.4495C89.3441 56.5012 89.5084 56.8983 89.5041 56.9176C89.3978 57.3698 89.1954 57.564 88.8814 57.4694C88.874 57.4629 88.7083 57.0119 88.6931 57.0023C88.476 56.8568 88.5973 57.4399 88.6087 57.8095C88.62 58.179 88.4885 58.1047 88.1224 57.3621C88.074 57.4923 87.8189 57.2004 87.6672 57.0222C87.5156 56.844 87.8474 57.7184 87.8481 57.7381C87.8725 58.3643 87.5664 57.9097 87.3375 57.9115C87.228 57.9108 87.0936 58.1113 87.0317 58.247C86.9838 58.3555 86.8528 58.1722 86.8333 58.3318C86.8306 58.3531 86.9988 58.7342 87.0019 58.7503C87.1112 59.244 86.7621 58.2869 86.6761 58.1257C86.3631 57.5396 86.1894 57.2303 86.2036 57.5613C86.2061 57.6374 86.7017 59.0189 86.6927 59.1156C86.6792 59.2393 86.4964 58.7462 86.4873 58.8881C86.4864 58.8998 86.6134 59.198 86.5721 59.2C86.3815 59.2131 86.1264 59.1173 85.9674 59.222C85.9453 59.2351 86.1806 59.6934 86.1523 59.72C86.0853 59.7826 86.0078 59.828 85.9145 59.8392L86.1823 59.7107C86.0837 59.7309 85.9683 59.7175 85.8326 59.6529C85.7648 59.6195 85.6242 59.2869 85.5664 59.1965C85.2157 58.6498 85.5726 59.5232 85.5684 59.5455C85.4796 60.1002 84.8608 59.4634 84.7453 59.9798C84.7397 60.0095 85.0782 60.9689 84.6228 60.232C84.5924 60.183 84.1283 59.4281 84.3579 59.9899C84.3723 60.025 84.6173 60.4105 84.5351 60.401C84.4529 60.3917 84.4957 60.712 84.1811 60.3122C84.0819 60.1863 83.6116 59.4371 83.8577 60.1015C83.8752 60.1477 84.4888 61.6201 83.938 60.6707C83.8474 60.5144 83.3178 59.4819 83.499 60.0585C83.5344 60.1701 83.6868 60.3825 83.7142 60.5505C83.757 60.8092 83.5168 60.584 83.6671 61.0887C83.6939 61.178 83.9927 61.9105 83.6626 61.4085C83.6109 61.3299 83.4472 60.9784 83.399 60.9546C83.1692 60.8402 83.1497 61.1428 82.89 60.9763C82.7983 60.918 82.5322 60.3504 82.4043 60.228C82.2765 60.1056 82.1005 60.0156 82.181 60.2966C82.2615 60.5776 82.7822 61.4315 82.7409 61.5434C82.5614 62.0293 81.9522 61.6879 81.5718 61.7914C81.5154 61.8066 81.7235 62.1006 81.6524 62.1457C81.3918 62.313 81.0737 62.8593 80.4826 62.3133C80.0087 61.8762 80.0317 61.3407 79.7709 61.1988C79.6454 61.1316 80.1112 62.1979 80.1114 62.2392C80.1188 62.655 79.7634 62.2615 79.6884 62.4797C79.673 62.5248 79.9231 62.9246 79.9076 62.9584C79.8564 63.0778 79.6652 62.9415 79.597 63.0211C79.5671 63.0577 79.7424 63.3713 79.694 63.3656C79.5803 63.3555 79.4349 63.2617 79.1948 63.0079C79.1729 62.9848 79.0141 62.5632 78.9439 62.5817C78.8308 62.6126 78.5498 62.3858 78.5948 62.7502C78.6089 62.8596 78.9927 63.5852 78.6522 63.1241C78.5811 63.0279 78.1384 62.1467 78.4514 62.945C78.5031 63.0778 78.897 64.1695 78.4782 63.5534C78.368 63.3913 77.9412 62.7046 77.9593 62.8386C77.9632 62.8594 78.1928 63.2368 78.1787 63.293C78.125 63.4845 77.9782 63.5094 77.9172 63.6983C77.9016 63.7494 78.1658 64.1257 78.1357 64.189C78.0533 64.3636 77.8288 64.3516 77.6291 64.2962C77.555 64.2751 77.4109 63.9235 77.388 63.8891C77.0159 63.3293 77.4072 64.1441 77.4131 64.2007C77.4442 64.5415 77.1523 64.2164 77.096 64.3737C77.0799 64.4162 77.3042 64.7846 77.3163 64.8216C77.4308 65.1858 77.1128 64.4789 77.0332 64.4248C76.8091 64.2709 76.7027 64.367 76.6178 64.4748C76.587 64.5149 76.8682 64.9308 76.8378 64.9617C76.6609 65.1539 76.4105 65.2338 76.0699 65.104C76.0052 65.0788 75.8486 64.7266 75.7988 64.6536C75.4514 64.1428 75.7643 64.9259 75.782 65.007C75.8656 65.3757 75.6705 65.0946 75.6225 65.1923C75.3937 65.6736 74.8152 65.729 74.3958 65.797C73.8406 65.8928 73.3067 65.7654 72.909 66.0886C72.8837 66.1086 73.1553 66.5432 73.1366 66.5662C72.8784 66.8462 72.4808 66.8344 72.2323 67.1374C72.2118 67.1614 72.4805 67.5672 72.4554 67.6199C72.4053 67.731 72.2857 67.766 72.1269 67.6761C72.0499 67.6331 71.9066 67.2374 71.8332 67.2015C71.6634 67.1163 71.5381 67.1452 71.4744 67.2684C71.4477 67.3218 71.7498 67.722 71.6966 67.7575C71.3437 68.0057 71.0118 68.2842 70.3204 67.9307C70.2728 67.9064 69.7654 67.0352 69.8024 67.2353C69.9326 67.4829 70.0909 67.7713 70.2327 68.0345C69.7609 68.4767 69.0507 68.4687 68.4739 68.7263C68.45 68.7371 68.7482 69.1824 68.7034 69.2056C68.441 69.3419 68.271 69.6056 67.7412 69.2935C67.69 69.2626 67.2448 68.4351 67.2381 68.6017C67.2361 68.6325 67.1888 68.8025 67.2543 68.9996C67.2652 69.0287 67.5012 69.3992 67.4691 69.4318C67.2836 69.6121 67.007 69.6529 66.6714 69.5352C66.6148 69.5166 66.4219 69.0892 66.3789 69.0728C66.0766 68.9593 66.068 69.3731 65.7017 69.0951C65.4517 68.91 65.0844 68.1899 64.6263 67.5372C64.561 67.4454 64.486 67.4687 64.2493 67.0715C63.6526 66.0739 63.043 64.9557 62.4033 63.8944C62.265 63.6661 62.3152 63.9699 62.0451 63.3806C62.0268 63.3413 61.9901 63.1147 61.8987 62.9148C61.8354 62.7766 61.5752 62.3841 61.5042 62.2013C61.4337 62.0185 61.6613 62.342 61.5933 62.1184C61.5253 61.8917 61.2348 61.4418 61.2877 61.3382ZM86.9851 56.2279C86.7537 55.8365 87.3508 57.3693 87.2762 56.9756C87.2718 56.9547 86.9966 56.247 86.9851 56.2279ZM95.1239 52.2559C94.6681 51.6831 95.1553 52.6347 95.5029 53.0798C95.8522 53.5233 95.2623 52.4294 95.1239 52.2559ZM95.7068 51.2797C95.3093 50.853 96.5211 52.8463 96.3782 52.3801C96.3704 52.3536 95.73 51.3044 95.7068 51.2797ZM64.7869 67.183C64.775 67.1646 64.7142 67.175 64.724 67.1943C64.9582 67.6624 65.0785 67.6419 64.7869 67.183ZM96.2351 50.2653C96.0372 50.0173 96.1473 50.3789 96.3951 50.6863C96.5956 50.933 96.4822 50.5732 96.2351 50.2653ZM82.913 56.1379C82.9006 56.1167 82.8532 56.1165 82.9178 56.2391C83.1263 56.6337 83.12 56.495 82.913 56.1379ZM97.6182 49.3338C97.3621 49.3978 96.1841 47.8661 96.5221 47.9039C96.5837 47.9104 96.7742 48.4736 96.9206 48.5852C97.1885 48.7877 96.5838 47.7371 97.0385 48.2136C97.1218 48.3008 97.6353 49.3337 97.6193 49.3363C97.619 49.3355 97.6186 49.3347 97.6182 49.3338ZM86.2191 54.4061C86.2097 54.3864 86.148 54.3887 86.1546 54.4093C86.3183 54.9062 86.4421 54.9021 86.2191 54.4061ZM80.2658 56.3725C80.2414 56.3329 80.1014 56.3574 80.1173 56.3973C80.4514 57.1864 80.7354 57.1393 80.2658 56.3725ZM89.4288 51.8729C89.2915 51.362 89.3334 51.2784 89.6266 51.8714C89.5569 51.8619 89.4981 51.88 89.4288 51.8729Z" fill="black"/>
</svg>
