<svg width="150" height="150" viewBox="0 0 150 150" fill="none" xmlns="http://www.w3.org/2000/svg">
<path d="M89.3359 30.9992C87.3831 31.1273 84.8374 30.9542 82.9002 30.7288C82.6222 30.697 82.5313 30.6197 82.4784 30.5392C82.4181 30.4428 82.4078 30.3417 82.1823 30.3083C81.3538 30.1884 80.5887 30.3255 79.7845 30.1841C79.5133 30.1358 79.8555 29.6767 79.5702 29.6366C78.0247 29.4203 76.5634 29.5264 74.9982 29.4156C67.2812 28.8688 59.7069 28.6311 51.8947 28.3398C49.3156 28.244 46.2007 27.7902 43.528 27.9389C43.221 27.9567 43.3987 28.3644 43.3399 28.397C42.3978 28.8962 42.7189 28.082 42.1216 27.9652C41.7709 27.899 41.4221 27.8407 41.0783 27.7898C38.9534 27.4847 36.7171 27.4361 34.7491 27.5471C33.7831 27.605 34.7363 28.419 33.7747 27.9591C33.7054 27.9281 33.9606 27.4993 33.6885 27.4516C33.087 27.343 31.956 27.4234 31.5186 27.4028C30.6841 27.3612 30.4915 27.37 29.9112 27.4432C29.7511 27.4613 29.6155 27.5066 29.7458 27.4304C29.8073 27.3909 29.9607 27.2831 30.0843 27.1193C30.2099 26.9567 30.2558 26.8037 30.2512 26.7837C30.244 26.7126 30.1807 26.8938 30.1725 27.1286C30.16 27.3656 30.1784 27.6596 30.2277 27.9538C30.2699 28.1936 30.6815 27.8367 30.7907 28.2121C30.8961 28.5744 30.9955 29.6716 30.944 30.0601C30.8908 30.4473 30.5262 30.3367 30.4564 30.4139C29.8645 31.0476 30.9685 32.2337 31.0143 32.3977C31.3764 33.7413 31.5421 35.0234 31.6425 36.3002C31.7667 37.8892 31.7883 39.4411 31.9852 41.0433C32.2544 43.2332 32.7192 45.5408 32.9703 47.6143C33.2678 50.0863 33.3245 52.206 33.723 54.5922C33.7645 54.8429 34.2333 54.4712 34.2851 54.7775C34.837 58.0376 35.3117 61.282 35.5424 64.585C35.5654 64.9177 35.042 64.5763 35.0383 64.9141C35.0324 65.7768 34.975 66.858 35.0762 67.8939C35.2131 69.3124 35.6529 70.6386 36.9151 71.0972C37.101 72.458 37.3486 74.1052 37.2016 75.388C37.1075 76.2157 36.4674 75.5609 36.8699 76.473C36.9601 76.6782 37.3286 76.3118 37.4318 76.6261C37.8665 77.9535 38.0368 79.4616 38.5404 80.7583C38.6437 81.0214 39.0089 80.8663 39.0939 80.9291C39.7866 81.4605 39.099 82.7367 39.083 82.9871C38.9702 84.8893 39.4505 86.1591 39.8038 87.833C39.8858 88.2221 40.2962 87.651 40.3935 88.0215C40.8907 89.9412 41.2909 91.9556 41.4874 93.9015C41.53 94.3355 41.0085 94.0441 41.0066 94.2564C41.003 95.1875 41.8693 95.2051 41.8822 96.0941C41.8859 96.281 41.4912 96.2637 41.4576 96.3055C40.9311 96.9627 41.9408 97.2063 41.9902 97.3325C42.6398 98.9408 41.9309 100.219 42.4288 101.8C42.4895 101.989 42.8615 101.445 43.004 101.987C43.7635 104.867 44.3924 107.938 44.8183 110.934C44.9242 111.672 45.0134 112.385 45.0921 113.101C45.156 113.674 44.7147 113.351 44.6788 113.396C44.118 114.105 45.1157 114.294 45.1879 114.461C45.7447 115.843 45.26 117.352 46.5533 118.099C46.8987 120.37 47.3514 123.179 47.8658 124.711C47.8282 124.621 47.7218 124.453 47.5755 124.334C47.4294 124.211 47.2955 124.161 47.2363 124.143C47.1203 124.115 47.2276 124.143 47.3647 124.137C47.6562 124.131 48.0957 124.075 48.5239 124.009C49.4002 123.872 50.331 123.697 51.2676 123.542C53.1385 123.231 55.0323 122.99 56.959 122.922C57.0393 122.918 56.9892 123.397 57.149 123.387C59.0485 123.277 58.5488 122.646 59.6208 121.55C59.8803 121.276 61.0368 122.136 61.1227 122.199C61.4751 122.425 61.2882 123.156 61.3988 123.192C62.3161 123.465 61.7713 121.259 62.9089 121.054C62.9455 121.051 62.8682 121.489 62.9719 121.512C63.2983 121.586 63.5585 121.371 63.8699 121.462C64.5894 121.673 65.0205 122.716 65.917 121.911C66.0149 121.823 65.7318 120.934 66.2685 120.586C66.3687 120.521 66.4973 120.476 66.6616 120.458C67.077 120.411 68.8899 120.106 69.4087 120.119C69.9249 120.129 69.637 120.589 69.6758 120.601C71.1221 120.952 70.6343 121.25 71.416 121.965C72.1892 122.68 71.7654 120.791 72.0181 120.543C72.2774 120.293 73.3192 120.626 73.5904 120.755C73.8549 120.883 73.5762 121.179 73.805 121.243C75.3075 121.667 74.3362 120.224 74.7831 119.87C75.8578 119.034 76.876 120.38 77.9051 120.442C78.1912 120.459 77.9359 120.151 78.1857 120.102C79.1688 119.915 79.7937 120.322 80.8905 119.856C81.0781 119.779 81.9419 118.879 82.57 119.489C82.657 119.577 82.432 119.941 82.8575 120.007C83.4847 120.105 84.6186 120.157 85.3027 120.032C85.802 119.94 85.2254 119.357 85.854 119.535C86.1319 119.616 85.6177 119.961 86.1424 120.083C86.6735 120.204 88.0054 120.201 88.509 120.202C89.023 120.201 88.7521 119.75 88.7944 119.721C89.0474 119.554 90.0354 119.37 90.1233 119.375C93.4486 119.475 96.5111 120.104 99.7113 120.841C100.67 121.107 101.643 121.34 102.642 121.516C102.966 121.574 102.861 121.067 102.912 121.071C104.053 121.139 102.901 122.149 103.573 122.737C103.68 121.783 104.093 122.058 104.89 122.135C105.274 122.171 105.154 121.764 105.196 121.736C105.873 121.316 106.096 122.109 106.162 122.276C106.409 122.89 106.948 122.351 107.118 122.761C107.29 123.17 106.598 123.566 107.345 123.723C107.627 123.436 107.267 122.444 107.862 122.427C109.111 122.389 110.846 122.84 112.44 123.291C113.297 123.544 113.952 123.722 114.213 123.673C114.287 123.656 114.16 123.747 114.184 123.755C114.193 123.765 114.24 123.707 114.276 123.635C114.747 122.357 114.67 121.595 114.898 120.66C115.261 118.864 114.548 119.475 114.311 118.336C114.066 117.187 115.663 117.82 116.021 117.671C116.377 117.528 116.026 117.327 116.226 117.136C116.426 116.946 116.646 117.386 116.738 116.92C116.785 116.672 116.656 116.219 116.471 115.787C116.294 115.401 116.066 115.031 115.89 114.947C115.125 114.574 114.297 115.133 114.616 113.893C114.635 113.822 115.057 114.064 115.107 113.793C115.491 111.615 115.547 109.343 115.863 107.158C115.907 106.859 116.38 107.132 116.411 106.958C116.735 105.137 115.925 105.775 115.043 104.774C116.227 105.009 116.958 104.46 116.975 103.075C116.985 102.244 116.466 102.384 116.104 101.842C115.994 101.68 116.353 101.095 116.11 100.986C115.315 100.63 114.421 101.179 114.782 99.7566C114.799 99.694 115.235 99.8953 115.262 99.6787C115.44 98.2825 114.607 98.1123 114.509 96.6023C114.431 95.4184 114.94 93.3135 115.021 91.9649C116.355 91.9914 116.047 90.7176 115.126 90.2027C115.162 89.3283 115.107 88.3823 115.231 87.5364C115.273 87.2458 115.66 87.4352 115.702 87.3984C116.354 86.8322 115.458 86.4547 115.422 86.2669C115.072 84.2234 115.74 82.5464 115.063 80.599C115.046 80.5524 114.614 80.4889 114.548 80.2903C114.516 80.1941 114.567 80.067 114.784 79.8967C114.83 79.8627 115.257 80.5057 115.282 79.5852C115.307 78.6659 115.789 76.9284 115.345 75.6571C115.238 75.3505 114.477 74.5763 115.057 73.946C115.135 73.8608 115.402 73.9494 115.549 73.8261C116.015 73.4264 115.075 73.2362 115.864 72.7606C116.653 72.2947 117.236 71.3256 116.663 70.0472C116.646 70.0042 115.898 69.7208 115.902 69.3112C115.909 68.6695 116.042 67.74 116.02 67.0712C116.01 66.7448 115.554 66.9657 115.544 66.9093C115.227 64.747 115.592 63.1956 115.643 60.8621C115.654 60.431 114.951 59.2645 115.372 58.4021C115.776 57.5564 117.674 58.0388 117.554 56.6735C117.532 56.4602 117.469 56.2103 117.348 55.9283C116.864 54.778 113.904 54.9561 114.384 52.9788C112.423 50.7045 110.706 48.4133 107.958 47.1406C107.834 47.083 107.04 47.5131 106.791 47.3367C106.42 47.0713 106.409 46.6193 106.145 46.4225C105.038 45.5876 103.787 45.2212 102.662 44.5154C102.234 44.2492 102.579 44 102.065 43.6824C101.553 43.3672 100.949 43.6118 100.361 42.9989C99.9135 42.5316 99.8856 41.3211 99.2418 40.8161C98.7103 41.6958 98.2278 41.4012 97.2282 41.1333C97.0354 41.0817 97.0333 41.4948 96.9326 41.4862C96.519 41.4581 96.3759 41.0286 95.9673 41.0168C95.8688 41.0136 95.6836 41.312 95.5925 41.326C94.8072 41.4582 94.3792 40.2466 94.3144 40.0359C94.0702 39.2476 93.5488 39.4391 93.2737 38.9828C92.9902 38.5147 93.7437 38.7583 93.3562 38.3104C92.8478 37.7074 92.1788 37.0993 91.6731 36.4499L91.7077 36.4996C91.4734 36.1068 91.2439 35.7239 91.0441 35.3661C90.8096 34.9486 90.565 35.4642 90.522 35.4099C89.9183 34.5949 89.8988 33.4817 88.8168 33.3937C90.6937 31.7144 88.3166 32.9671 88.2077 31.4009C88.2074 31.3925 88.2122 31.382 88.2213 31.37C88.3146 31.242 88.8839 30.9602 89.2626 30.978C89.3712 30.9821 89.4645 31.0113 89.5273 31.0761C89.8259 31.3831 89.7523 32.1014 90.2427 32.5103C90.3578 32.6127 91.6618 32.8184 91.7675 32.8757C92.5946 33.357 91.1647 34.2819 91.104 34.3687C90.4686 35.313 91.967 35.594 92.1645 35.7652C92.2679 35.8577 92.3639 35.952 92.4533 36.0463L92.357 35.908C93.0114 36.3826 93.5512 37.0358 94.3371 37.3382C94.925 37.5625 95.6183 36.6794 95.9781 36.9662C97.2057 37.9146 96.9484 39.5637 98.987 39.187C99.4242 39.1053 99.7328 37.8776 100.317 39.3142C100.351 39.4034 100.717 40.6186 101.451 40.3938C101.544 40.3655 101.717 40.0542 101.808 40.0715C102.419 40.1931 102.623 40.6328 103.256 40.835C103.887 41.0365 104.673 41.252 105.265 41.7374C105.622 42.0288 105.787 42.898 105.889 43.149C106.173 43.864 107.137 43.5578 107.163 44.2435C107.183 44.9292 106.099 45.2648 106.734 46.1044C107.263 45.3456 107.85 44.5941 108.406 43.8465C110.294 45.1108 111.979 46.6727 113.777 48.3234C114 48.5294 114.119 47.9526 114.374 48.1738C115.44 49.1198 116.027 50.3128 117.007 51.5954C117.764 52.5856 118.898 53.7407 119.378 55.2569C119.132 55.6069 119.022 56.0278 118.967 56.4982C118.806 57.3248 119.05 58.3262 119.04 59.1277C119.035 59.5309 118.751 59.5167 118.678 59.8087C118.403 60.8844 119.305 60.331 119.469 60.613C120.164 61.828 118.055 62.0289 118.165 63.4674C118.17 63.5379 119.331 64.4322 119.405 64.559C119.89 65.3626 119.018 64.7072 118.951 65.2197C118.827 66.1545 118.575 66.8081 118.931 67.8888C119.036 68.1994 119.756 68.9473 119.224 69.5768C119.154 69.6584 118.78 69.6213 118.76 69.6863C118.418 70.8745 119.589 70.884 119.997 71.5489C120.405 72.2232 119.611 73.2714 119.38 73.4839C118.784 74.045 119.117 73.0646 119.057 73.0368C118.348 72.6951 118.48 73.444 118.428 74.0303C117.28 74.1256 117.359 74.9331 118.378 74.6278C118.489 74.5924 118.377 74.1449 118.428 74.0303C119.561 74.5169 119.716 75.4125 118.673 76.4033C118.184 76.8658 117.605 76.445 117.828 77.8325C117.929 78.4686 118.718 78.2107 118.938 78.7693C119.119 79.2324 119.141 79.7256 119.102 80.2558C119.031 81.1858 118.76 82.1812 118.84 83.0218C118.885 83.4993 119.315 83.031 119.361 83.3578C119.483 84.224 119.162 84.9888 119.333 85.8591C119.349 85.9382 119.801 85.7426 119.808 86.0144C119.87 88.0644 119.585 89.8525 119.58 91.9949C119.578 93.0296 119.828 94.8812 119.776 95.9534C119.69 97.8135 119.024 100.098 119.175 101.686C119.271 102.725 119.726 102.5 120.032 102.944C120.625 103.811 119.54 105.315 119.372 105.521C119.366 105.524 119.267 104.635 119.031 105.107C118.543 105.376 119.37 105.511 119.372 105.521C119.264 105.657 119.142 107.433 119.224 107.792C119.269 107.986 119.7 107.883 119.715 107.984C120.069 110.377 120.139 112.769 119.865 115.218C119.855 115.261 119.376 115.181 119.359 115.283C119.32 115.497 119.3 115.696 119.294 115.883C119.259 116.974 119.695 117.799 119.936 118.835C120.22 120.047 120.026 121.041 119.13 121.698C119.104 122.694 118.707 123.921 117.828 125.389C117.467 125.998 116.886 126.812 116.398 127.264C115.928 127.718 115.79 127.949 115.722 128.101C115.69 128.164 115.664 128.206 115.633 128.219C112.962 129.126 112.14 128.531 111.457 128.449C110.607 128.227 109.797 127.884 108.702 127.609C107.741 127.368 105.803 127.082 104.742 126.944C103.904 126.837 103.459 126.509 102.675 126.469C102.569 126.464 102.577 126.893 102.542 126.902C101.587 127.189 102.225 126.293 102.093 126.075C101.618 125.283 101.316 124.849 100.175 124.894C99.9185 124.903 98.9122 126.08 98.4248 126.127C98.4251 126.133 98.424 126.136 98.422 126.139C98.3169 126.17 98.2054 126.043 98.1716 125.933C98.1182 125.82 98.0571 125.706 97.7801 125.724C97.7261 125.726 97.6976 126.048 97.3602 125.981C95.8012 125.679 93.9692 125.31 92.1991 125.229C91.9608 125.218 92.2322 125.75 91.8911 125.742C90.2672 125.703 88.4711 125.63 86.8737 125.383C86.4812 125.32 86.7283 124.961 86.6431 124.854C86.1044 124.206 85.3674 125.152 85.242 125.171C82.3128 125.664 80.012 124.928 77.0235 125.587C76.8556 125.624 75.7035 126.742 75.0569 125.943C75.0146 125.89 74.3654 125.069 73.934 125.726C73.9087 125.767 74.3041 126.18 73.6968 126.203C73.0956 126.226 72.159 126.648 71.2697 126.265C70.9855 126.145 70.2383 125.358 69.5571 126.171C69.5056 126.227 68.5594 127.981 67.9555 126.971C67.8703 126.829 67.7752 125.959 67.2167 126.181C67.1198 126.219 67.0099 126.287 66.8857 126.395C66.7214 126.54 67.0971 126.738 66.6426 126.98C65.9619 127.349 64.9287 127.214 64.1208 127.884C63.9696 128.004 63.4742 128.894 62.8135 128.407C62.7123 128.331 62.802 127.92 62.5106 127.93C61.1305 127.972 59.7817 128.494 58.3701 128.499C57.8606 128.504 57.9863 127.841 57.4538 127.776C56.9201 127.711 55.8587 127.762 55.4031 128.149C54.9251 128.54 55.7017 129.398 54.9348 129.639C53.647 130.04 52.3548 130.315 50.9358 130.533C50.2153 130.64 49.505 130.738 48.5249 130.803C48.0124 130.826 47.493 130.881 46.446 130.755C45.9395 130.678 45.1757 130.563 44.1829 130.009C43.1754 129.482 42.1797 128.275 41.8435 127.396C41.1656 125.542 41.2197 124.918 41.0128 123.991C40.9147 123.459 40.6546 123.964 40.489 123.195C39.8956 120.386 38.5749 115.73 38.7809 113.159C38.9451 111.165 39.879 113.299 39.8579 112.03C39.8575 111.991 39.8561 111.949 39.8537 111.903C39.813 111.172 38.5086 110.654 38.4344 110.489C37.6978 108.893 37.9374 107.619 37.4429 106.142C37.3404 105.836 36.9509 106.247 36.8686 105.985C36.5846 105.097 36.5749 104.101 36.3402 103.235C36.235 102.852 35.9008 103.003 35.8472 102.639C35.713 101.762 35.6902 100.974 35.8308 100.066C35.8436 99.9832 36.395 100.398 36.2686 99.7607C36.0613 98.7228 36.1007 97.3829 35.5003 96.2697C35.3215 95.9426 34.5174 96.1093 34.9019 95.2288C34.9821 95.0444 35.9889 95.0307 34.9622 94.339C34.7909 94.2216 33.3412 92.9935 33.9035 92.1052C34.0516 91.8722 34.7316 91.2106 34.5145 90.8141C34.4821 90.761 34.1021 91.0862 33.9828 90.7441C33.5708 89.5419 33.333 88.2335 32.9228 86.9929C32.8123 86.6613 32.4759 87.2639 32.3255 86.7663C31.9114 85.3986 31.6523 83.6334 31.504 82.2395C31.4503 81.7259 31.8935 81.9953 31.926 81.9502C32.4565 81.2234 31.4999 81.0615 31.4074 80.8768C30.8441 79.7254 31.0672 78.7106 30.7278 77.6126C30.6351 77.3084 30.2582 77.6146 30.208 77.5605C29.7093 76.9934 30.5646 77.3169 30.5655 76.8943C30.5717 75.7144 30.2829 74.4495 30.0032 73.3119C29.8997 72.8933 29.5033 73.4657 29.4158 73.0868C29.1091 71.7831 28.845 70.4307 28.6562 69.0891C28.5201 68.126 28.4227 67.172 28.3721 66.2379C28.3495 65.8104 28.7749 66.0062 28.8458 65.9037C29.3443 65.1996 28.3668 64.4723 28.2532 64.283C27.7369 63.4363 28.01 63.0134 27.8119 62.2175C26.8323 58.3133 26.3219 53.3729 25.9596 49.6112C25.5089 45.0193 25.4233 41.3344 24.8592 37.1668C24.8211 36.8887 24.7831 36.6268 24.7402 36.3435C24.697 36.0561 24.2278 36.4122 24.1842 36.1672C23.92 34.6145 23.7164 33.0684 23.512 31.4565C23.4107 30.643 23.3078 29.8319 23.2154 28.8844C23.1976 27.8516 22.793 27.1235 23.5009 24.4441C23.598 24.1548 23.7347 23.8064 23.9495 23.414C24.3205 22.7785 24.1648 22.8394 24.0178 22.8171C23.9049 22.8078 23.7191 22.6171 24.7188 21.5827C27.0823 19.5969 28.3131 19.8518 29.1281 19.665C29.9543 19.5837 30.5654 19.6105 31.0933 19.6698C31.6003 19.7307 30.9485 20.1638 31.4395 20.2182C32.5896 20.3502 33.7108 20.3957 34.7823 20.329C35.2414 20.3001 34.5511 19.7961 35.1538 19.7975C37.2072 19.7987 39.1746 19.7997 41.1917 19.8843C43.118 19.9664 45.0779 20.1307 47.0503 20.4699C47.3223 20.5172 47.549 21.5278 48.1424 21.3412C48.1901 21.062 48.1914 20.733 48.2143 20.4342C53.9971 20.3381 59.7272 20.7406 65.5334 20.8453C65.7784 20.8496 65.3597 20.3119 65.8339 20.3175C68.575 20.3491 71.2379 20.2234 74.0456 20.777C74.325 20.8311 74.1674 21.7694 74.9942 21.634C75.1417 21.6092 76.3758 21.4938 76.6983 21.2924C76.7415 21.262 76.5214 20.8217 76.9167 20.8121C78.7532 20.7736 80.6978 20.8419 82.5528 21.0163C83.043 21.0605 83.4923 21.1112 83.968 21.169C84.3363 21.2159 83.9411 21.6798 84.2018 21.7173C86.0894 21.9799 88.1357 21.6409 89.9334 22.0789C91.1272 22.3737 90.6875 23.1775 91.3171 23.977C91.4074 24.0898 92.1522 24.1133 92.1872 24.5758C92.2774 25.7391 91.9063 27.0092 92.0451 28.2494C92.0542 28.3829 92.3183 28.3798 92.4957 28.4232C92.5911 28.4449 92.6431 28.4783 92.6859 28.5463C92.6891 28.6143 92.6247 28.7169 92.4778 28.877C92.4361 28.9199 91.7097 29.1284 91.5308 29.3458C91.4067 29.4961 91.6287 29.968 91.3694 30.1597C91.1182 30.3512 90.8417 29.9549 90.4184 30.1791C89.9949 30.4062 90.1784 30.9425 89.3359 30.9992ZM111.824 126.507C111.25 125.939 110.836 127.534 111.63 127.286C111.649 127.28 111.702 127.105 111.748 126.923C111.794 126.737 111.835 126.544 111.826 126.511C111.826 126.509 111.825 126.507 111.824 126.507ZM111.15 47.7325C111.401 48.8648 112.562 48.4797 112.431 47.622C112.272 46.7507 111.065 47.3845 111.15 47.7325ZM103.142 43.1261C103.739 44.1292 105.053 42.1954 103.86 42.0518C103.791 42.0429 103.107 43.0677 103.142 43.1261ZM88.3439 24.1801C88.3532 24.202 88.8935 24.2275 88.9012 24.2059C89.1916 23.6857 88.1169 23.6351 88.3439 24.1801ZM95.1681 39.16C95.2585 39.5983 96.2178 39.7653 96.0943 39.2263C95.9975 38.7974 95.0597 38.6212 95.1681 39.16ZM77.9939 121.241C77.9797 121.217 77.6011 121.224 77.6189 121.362C77.6794 121.804 78.197 121.639 77.9939 121.241ZM87.92 26.8921C88.3872 29.1236 86.7767 30.8662 86.4524 28.4421C86.3926 28.0067 87.2619 29.2233 87.307 28.641C87.3849 27.5598 86.0537 27.2268 86.3826 26.0672C86.4439 25.8464 87.8984 26.75 87.9236 26.8954C87.9224 26.8943 87.9212 26.8932 87.92 26.8921ZM111.819 124.494C111.81 124.47 111.292 124.348 111.275 124.366C110.89 124.823 111.938 125.071 111.819 124.494ZM55.6479 123.644C55.6194 123.602 54.3908 123.809 54.3593 123.859C53.9013 124.825 56.3647 124.413 55.6479 123.644ZM115.056 91.9436C114.53 91.3635 114.467 90.6699 115.125 90.2054C115.092 90.7828 115.088 91.3632 115.056 91.9436Z" fill="black"/>
<path d="M92.4543 26.5374C92.5981 26.9498 92.4462 27.475 92.2374 27.881C92.1726 28.0086 91.8808 27.9452 91.823 28.0336C91.7103 28.2058 91.854 28.3729 91.7197 28.5395C91.6738 28.5949 91.2117 28.5283 91.1741 28.5864C90.9715 28.905 91.0908 29.2093 90.9946 29.5406C90.52 31.1531 90.3613 32.7449 90.1705 34.3858C90.1079 34.9196 89.6974 35.5871 89.8885 36.1401C89.9112 36.2046 90.3159 36.1603 90.3495 36.1721C90.8636 36.3581 90.0445 36.3054 89.9376 36.4334C89.5155 36.9406 89.4868 37.5063 89.651 37.9847C89.722 38.1893 90.5237 37.97 90.0752 38.1844C90.0449 38.1993 89.6137 38.1541 89.5687 38.2113C89.4675 38.341 89.5485 38.583 89.5161 38.683C89.4514 38.8758 89.4563 38.9075 89.4546 39.0891C89.4484 39.3362 89.2397 39.634 89.3421 39.8978C89.3652 39.954 89.805 39.8709 89.8817 39.9599C89.9584 40.0489 89.9254 40.2888 89.8229 40.3714C89.7204 40.4541 89.373 40.4263 89.2938 40.4421C88.6251 40.5725 89.5596 40.8317 89.5833 40.8667C89.9875 41.5085 89.4697 42.0739 89.4844 42.6848C89.4968 43.1484 89.6827 43.6366 89.6691 44.0777C89.6513 44.6046 89.4232 45.0538 89.4773 45.56C89.4826 45.614 89.9996 45.5373 90.007 45.6031C90.0855 46.3048 90.0476 46.9857 89.718 47.6972C89.6844 47.768 89.2265 47.6914 89.1658 47.7629C88.8039 48.2 87.9257 48.8986 89.9163 49.0928C89.848 49.3848 89.7794 49.7356 89.3884 50.0039C89.1368 50.1774 88.6354 50.0321 88.8539 50.2304C88.9027 50.2755 89.335 50.2 89.3752 50.2687C89.5442 50.5577 89.4142 50.8813 89.6489 51.1588C89.6977 51.2152 90.0863 51.1852 90.1569 51.1991C90.7295 51.3169 89.7997 51.5777 89.7335 51.6322C89.2397 52.042 89.4507 52.3167 89.4524 52.6721C89.4526 52.7545 89.9713 52.6364 89.9903 52.7148C90.0813 53.1131 90.0552 53.5655 89.8408 53.973C89.7919 54.0646 89.3432 54.0021 89.297 54.0469C89.0991 54.2451 89.9414 54.2443 89.7681 54.4367C89.7327 54.4777 89.3507 54.4729 89.3091 54.482C88.6574 54.6243 89.5926 54.6782 89.6145 54.7057C89.912 55.0528 88.9514 55.3261 89.1058 55.6566C89.1253 55.6963 89.6027 55.5797 89.628 55.6943C89.8006 56.4727 89.7136 57.2941 89.3756 58.0606C89.3241 58.187 88.9568 58.1227 88.9126 58.1332C88.2238 58.3042 89.1628 58.3241 89.2005 58.3608C89.474 58.654 88.7105 58.9825 89.8368 59.1049C89.549 60.4033 90.2655 61.6493 89.4926 62.8667C89.4843 62.8828 89.0288 62.9574 89.0146 62.9906C88.9262 63.1851 89.0559 63.2103 89.3103 63.1643C89.4363 63.1369 89.5931 63.0878 89.761 63.0062C89.8445 62.9648 89.9308 62.9147 90.0118 62.8459C90.096 62.7888 90.1679 62.6677 90.1232 62.4266C90.0901 62.2893 89.8704 62.037 89.2571 61.897C88.8631 61.7858 88.2814 61.8559 87.9578 62.0734C87.6223 62.284 87.5128 62.5204 87.4788 62.6677C87.5418 62.5715 87.8129 62.401 87.905 62.3322C88.0374 62.4805 88.1526 62.6205 88.1731 62.6437C88.3664 62.8646 88.6251 63.5033 88.6707 63.5418C89.0283 63.8449 87.9582 61.845 88.202 61.7212C88.2109 61.721 88.3674 62.1093 88.4053 62.1368C88.5229 62.2236 88.509 62.0455 88.6315 62.1455C88.9135 62.378 89.436 63.3487 89.3577 62.6776C89.3485 62.5903 88.7639 61.443 89.0032 61.4003C89.102 61.3823 89.4606 61.1998 89.6009 61.2312C89.7392 61.2626 89.8292 61.6749 89.8439 61.6881C90.333 62.0759 90.3152 62.3304 90.7595 63.0241C91.1984 63.7174 90.4297 61.9492 90.4051 61.7268C90.3827 61.504 90.7517 61.843 90.8575 61.9703C90.9641 62.0973 91.0006 62.3661 91.0762 62.4318C91.5728 62.8614 90.8533 61.4914 90.8396 61.1683C90.8127 60.4018 91.4963 61.6721 91.7514 61.7273C91.8208 61.7421 91.663 61.4532 91.702 61.4064C91.8591 61.2251 92.1276 61.6025 92.2199 61.1362C92.2336 61.0606 92.1352 60.1844 92.4614 60.7395C92.5078 60.8197 92.5758 61.173 92.6866 61.2194C92.8535 61.2887 93.1037 61.2867 93.202 61.1288C93.275 61.0119 92.9752 60.4926 93.1602 60.6237C93.2424 60.6825 93.2445 61.0432 93.3894 61.1265C93.5354 61.2094 93.7953 61.1098 93.8946 61.066C93.9931 61.0221 93.803 60.6152 93.8021 60.584C93.8001 60.4043 93.937 60.1364 93.9543 60.1317C94.8287 59.8032 95.8513 60.2909 96.6455 59.8192C96.7089 59.7827 96.5414 59.3414 96.5498 59.3312C96.7315 59.0788 96.8718 60.3337 97.1395 60.6948C96.8711 59.7801 97.0103 59.9215 97.1472 59.7774C97.2131 59.7072 97.0766 59.3616 97.0742 59.3232C97.0502 58.7501 97.3158 59.429 97.3738 59.567C97.5874 60.0743 97.5101 59.4296 97.6534 59.7687C97.7954 60.1054 97.8088 60.655 97.9619 60.6087C97.9213 60.267 97.5842 59.4331 97.6679 59.2626C97.9889 58.6157 99.0012 59.0893 99.38 59.0759C99.7599 59.0614 99.8614 58.9739 100.101 59.0458C100.533 59.1766 100.246 58.5635 100.419 58.2147C100.594 57.866 100.827 59.481 100.937 59.815C101.045 60.1492 101.005 59.7897 101.087 59.9683C101.169 60.147 101.131 60.3989 101.243 60.4482C101.356 60.4974 101.487 59.8326 101.446 59.4674C101.357 58.6941 101.065 57.9245 101.386 58.1484C101.405 58.1618 101.445 58.5907 101.511 58.6208C102.034 58.8467 102.51 58.7701 103.018 58.9663C103.089 58.994 103.125 59.4719 103.167 59.4933C103.601 59.7182 103.312 58.9571 103.351 58.0414C103.529 59.2154 103.781 59.9058 104.066 59.8588C104.237 59.831 104.112 59.3274 104.156 58.9475C104.169 58.833 104.356 59.1601 104.333 58.9164C104.261 58.1197 103.983 57.264 104.346 57.5582C104.362 57.5724 104.399 58.009 104.449 58.0267C104.772 58.1436 104.658 57.3172 104.959 57.1613C105.194 57.039 105.724 57.4631 106.02 57.4975C106.235 58.8139 106.448 58.4687 106.407 57.5434C106.596 57.5504 106.787 57.4669 106.984 57.5643C107.052 57.5974 107.072 57.9852 107.086 58.0252C107.306 58.6532 107.246 57.7568 107.28 57.7159C107.657 57.3117 108.107 57.9298 108.421 57.2143C108.432 57.1886 108.323 56.268 108.53 56.9217C108.543 56.9669 108.468 57.4037 108.666 57.4082C108.838 57.4121 109.188 57.7467 109.412 57.5291C109.417 57.5278 109.43 57.5275 109.434 57.5264C109.469 57.4951 109.501 57.4515 109.53 57.3927C109.584 57.2832 109.675 56.5178 109.866 57.0895C109.891 57.1672 109.898 57.4336 109.938 57.5782C110.066 58.0391 110.02 57.1025 110.193 57.8852C110.367 58.6677 110.619 59.2421 110.836 58.6708C110.843 58.6542 110.839 57.9091 110.925 57.9131C111.063 57.9201 111.268 58.0572 111.409 58.0402C111.477 58.0318 111.394 57.5762 111.405 57.5668C111.84 57.2703 112.2 57.6534 112.701 57.7938C112.793 57.8204 113.004 57.1742 113.214 57.6572C113.443 58.1861 113.412 60.457 113.805 59.8888C113.962 59.6616 113.992 56.7816 114.408 58.245C114.998 57.8368 115.611 58.5624 116.196 58.002C116.222 57.9771 116.265 57.1721 116.331 57.1794C116.429 57.1916 116.503 57.5626 116.573 57.5835C116.869 57.6802 117.117 57.3461 117.399 57.3813C117.507 57.3939 117.489 57.7825 117.617 57.7976C117.744 57.8124 117.803 57.2988 117.987 57.5362C118.126 57.7172 118.306 58.7518 118.483 58.8648C118.439 57.8376 118.558 57.8529 118.755 57.5718C118.793 57.5173 118.732 57.1619 118.749 57.1177C118.818 56.9297 118.904 57.2225 118.968 57.0185C118.984 56.9695 118.968 56.6188 118.98 56.5589C119.08 56.0365 119.323 56.8158 119.365 56.9515C119.524 57.4669 119.566 57.0078 119.68 57.2085C119.793 57.4091 119.65 57.673 119.776 57.7921C120.038 58.0385 120.357 57.9673 120.612 57.9721C120.714 57.9719 120.624 57.5068 120.638 57.4959C120.842 57.3678 121.077 57.8565 121.152 56.9187C121.403 59.3239 121.269 56.6793 121.59 57.149C121.615 57.187 121.695 58.3261 121.611 58.4974C121.528 58.6686 121.375 58.3182 121.261 58.5847C121.233 58.6472 121.11 59.7233 121.09 59.7891C120.93 60.303 120.829 58.6 120.815 58.5068C120.661 57.5016 120.503 58.6621 120.452 58.7441C120.218 59.1198 119.994 58.8898 119.796 59.1596C119.666 59.334 119.705 60.4508 119.596 60.4216C119.234 60.3253 119.035 58.7743 118.763 60.1404C118.705 60.4318 118.836 61.6481 118.532 60.7015C118.513 60.6418 118.278 59.7738 118.195 60.3343C118.184 60.405 118.202 60.7604 118.186 60.7912C118.073 60.9905 117.977 60.7115 117.85 60.8539C117.724 60.9963 117.574 61.2068 117.416 61.0942C117.321 61.0269 117.168 60.371 117.115 60.2113C116.966 59.7509 116.874 60.5238 116.766 59.9626C116.657 59.3985 116.763 58.527 116.538 58.1711C116.581 59.0948 116.616 60.0434 116.656 60.9726C116.21 60.9647 115.756 60.6916 115.314 60.7598C115.26 60.7692 115.347 61.2619 115.289 61.2847C115.045 61.3789 114.806 61.0391 114.558 61.1969C114.365 61.321 114.184 61.8608 113.986 62.0076C113.786 60.9608 113.502 61.3411 113.272 61.2613C113.191 61.2338 113.175 60.9516 113.113 60.8639C112.876 60.5397 113.046 61.4647 113 61.6157C112.802 62.2608 112.617 60.1523 112.327 60.228C112.311 60.2313 112.214 61.371 112.195 61.4432C112.068 61.9133 112.135 61.0541 112.025 60.9796C111.824 60.8435 111.669 60.5863 111.477 60.9348C111.421 61.038 111.33 61.752 111.157 61.2217C111.134 61.1522 111.109 60.7801 111.094 60.7595C110.821 60.419 110.922 61.5864 110.825 61.9942C110.727 62.4018 110.441 61.6171 110.375 61.3894C110.204 60.8003 110.436 61.1244 110.436 61.065C110.439 60.3571 110.296 60.4927 110.173 60.4453C110.042 59.3037 109.882 59.3892 110.045 60.4008C110.063 60.5112 110.144 60.3954 110.173 60.4453C110.18 61.4741 110.047 61.7011 109.791 60.9629L109.88 60.9523C109.852 60.8792 109.822 60.7964 109.791 60.7038C109.631 60.2276 109.64 59.645 109.384 59.8933C109.268 60.0056 109.428 60.7819 109.345 61.0114C109.156 61.5351 108.716 60.8536 108.466 61.009C108.375 61.0653 108.534 61.4792 108.474 61.5325C108.318 61.675 108.115 61.3775 107.965 61.5693C107.951 61.5872 108.06 62.029 108.006 62.0432C107.603 62.1595 107.199 61.9308 106.768 61.9951C106.559 62.0262 106.231 62.3363 106.008 62.3246C105.623 62.3063 105.045 61.7415 104.756 61.9587C104.567 62.0984 104.696 62.5355 104.666 62.8557C104.608 63.4759 104.105 62.4807 104.032 62.3259C104.029 62.3207 104.187 62.1813 104.048 61.9713C103.9 61.506 104.033 62.3235 104.032 62.3259C103.984 62.2257 103.608 62.1948 103.554 62.2941C103.525 62.3481 103.631 62.7651 103.614 62.7853C103.216 63.2568 102.77 63.4606 102.251 63.3666C102.241 63.3599 102.153 62.8874 102.13 62.8776C101.808 62.7282 101.754 63.342 101.604 63.7327C101.454 64.1233 101.251 64.0497 100.933 63.2763C100.784 63.4167 100.458 63.118 100.264 62.9365C100.071 62.7547 100.267 63.6695 100.259 63.6904C100.012 64.3573 99.6638 63.8911 99.2464 63.9093C99.0454 63.9168 98.705 64.1436 98.5275 64.2957C98.3868 64.4175 98.2341 64.2311 98.1227 64.4057C98.1076 64.4291 98.2348 64.8262 98.2329 64.8433C98.1986 65.3681 98.0139 64.3638 97.933 64.1972C97.6386 63.5916 97.466 63.2733 97.3353 63.6316C97.3042 63.714 97.5534 65.1657 97.4907 65.2722C97.4057 65.4089 97.3071 64.8909 97.2218 65.0471C97.2145 65.06 97.3044 65.3713 97.2274 65.3783C96.8735 65.4139 96.4494 65.3411 96.1104 65.4775C96.0635 65.495 96.2734 65.9687 96.2086 66.0019C95.9069 66.157 95.5529 66.2479 95.1753 66.1174C95.0801 66.0843 95.0168 65.7264 94.9671 65.6302C94.6632 65.0489 94.8116 65.9894 94.7948 66.0139C94.3826 66.6269 93.6792 65.9722 93.2683 66.5586C93.244 66.5929 93.3855 67.6169 92.9722 66.8511C92.9454 66.7998 92.5204 66.0168 92.656 66.6134C92.6649 66.6505 92.8929 67.0495 92.7712 67.0481C92.6497 67.0468 92.5948 67.3972 92.263 66.9945C92.1605 66.8667 91.7008 66.1035 91.8454 66.8072C91.8505 66.8582 92.3052 68.3944 91.7852 67.4266C91.7003 67.2671 91.2297 66.2058 91.3224 66.8182C91.342 66.9362 91.5024 67.147 91.4961 67.3282C91.4921 67.6048 91.1999 67.4004 91.3047 67.9262C91.3222 68.0196 91.5876 68.7678 91.2438 68.2731C91.1892 68.196 91.0318 67.8412 90.9728 67.8231C90.9239 67.8078 90.8817 67.8052 90.8442 67.8104L92.1139 66.8109C91.6084 67.4103 90.0466 68.6432 87.9447 68.3506C86.884 68.1866 86.3913 67.8724 85.9561 67.5999C85.5296 67.3147 85.237 67.0279 85.0159 66.7792C84.7954 66.5289 84.6446 66.3114 84.5252 66.1217C84.4083 65.9364 84.3113 65.7476 84.2844 65.6944C84.2007 65.5288 84.1382 65.3857 84.0869 65.2557C83.9872 65.0028 83.9209 64.7654 83.8975 64.6113C83.8796 64.4768 83.8813 64.3487 83.9084 64.2217C83.956 64.0066 84.5887 63.9678 84.7147 63.7505C84.8433 63.5433 84.9592 63.2686 84.6522 63.1569C84.346 63.0508 83.384 63.3641 83.271 63.149C82.792 62.2523 83.3049 61.4268 83.3202 60.6068C83.323 60.4859 82.9752 60.6145 82.9547 60.448C82.8759 59.8264 82.4672 58.7569 83.1928 58.1798C83.7738 57.7216 84.268 58.2232 84.4953 57.8869C84.6038 57.7251 83.4354 57.6217 83.3966 57.5849C83.0038 57.2201 83.5039 56.9531 83.3286 56.6275C83.2923 56.5606 82.8262 56.6529 82.8005 56.5955C82.7085 56.3999 82.907 56.1732 82.859 55.9822C82.8365 55.8998 82.4785 55.9331 82.5024 55.8546C82.5554 55.6668 82.6982 55.4943 83.0258 55.2951C83.0556 55.277 83.5073 55.3683 83.5173 55.2286C83.5324 55.0054 83.8505 54.6943 83.497 54.4635C83.3905 54.3929 82.5702 54.4264 83.1295 54.2385C83.2463 54.199 84.233 54.2002 83.3738 54.0466C83.231 54.0213 82.0693 53.7472 82.8026 53.5556C82.9956 53.5052 83.7971 53.3641 83.6666 53.2758C83.6459 53.2642 83.2073 53.3317 83.1612 53.258C83.0067 53.0007 83.0426 52.7201 82.8939 52.4492C82.8534 52.3768 82.4016 52.5045 82.3557 52.3959C82.2287 52.0956 82.3308 51.7125 82.463 51.417C82.5126 51.3071 82.8931 51.3682 82.9339 51.3588C83.598 51.2086 82.6928 51.1659 82.6387 51.1255C82.3143 50.8744 82.7313 50.6584 82.6108 50.4175C82.5787 50.3509 82.15 50.4134 82.1111 50.4013C81.7316 50.2775 82.5079 50.353 82.5902 50.2641C82.8233 50.0149 82.7799 49.7457 82.7169 49.5005C82.6932 49.4105 82.1974 49.5285 82.1819 49.4474C82.0804 48.9637 82.113 48.4672 82.3744 47.9895C82.4245 47.8996 82.8105 47.944 82.8977 47.923C83.5081 47.7782 82.6651 47.6159 82.584 47.575C82.2141 47.39 82.5518 47.3027 82.4836 47.1348C82.1444 46.3095 82.3428 45.2641 82.4631 44.4704C82.6175 43.4351 82.9657 42.6277 82.8508 41.6491C82.844 41.5869 82.3339 41.6601 82.3214 41.6066C82.1841 40.9145 82.371 40.2256 82.2109 39.5332C82.1987 39.4764 81.7154 39.5672 81.6795 39.4762C81.6024 39.2901 81.6246 39.0504 81.7762 38.8573C81.8492 38.7631 82.2673 38.8807 82.3323 38.7861C82.4846 38.5658 82.5153 38.3324 82.434 38.1109C82.3984 38.0166 81.9048 38.1676 81.8971 38.0445C81.8345 37.2042 81.737 36.3814 82.3679 35.5193C82.4112 35.4603 83.4183 35.3959 83.2235 35.2746C82.9437 35.2689 82.6147 35.2736 82.3157 35.2734C82.139 34.059 82.4751 32.8324 82.5185 31.609C82.5203 31.5577 81.987 31.6509 81.9876 31.5516C81.9906 30.9702 81.8384 30.4031 82.3654 29.8118C82.417 29.7517 83.3566 29.7762 83.2135 29.6016C83.1873 29.5706 83.0605 29.3082 82.8562 29.2419C82.8254 29.2329 82.3872 29.2831 82.3739 29.1988C82.3047 28.714 82.4025 28.1956 82.6688 27.705C82.7127 27.6262 83.1799 27.7084 83.2152 27.6524C83.4618 27.2617 83.1059 26.819 83.5294 26.4379C83.8147 26.1839 84.622 26.2773 85.4165 26.1433C85.5285 26.1243 85.5463 25.9701 86.0086 25.9622C87.171 25.9416 88.444 26.0155 89.683 25.9847C89.9499 25.978 89.6625 25.7749 90.3074 25.8951C90.3506 25.9034 90.5647 26.0512 90.7835 26.0878C90.9348 26.1132 91.4049 26.0671 91.5986 26.119C91.792 26.1708 91.398 26.2283 91.6255 26.3151C91.856 26.4019 92.3908 26.3627 92.4543 26.5374ZM99.3929 62.1279C99.1532 61.724 99.5246 63.3267 99.5736 62.9097C99.5755 62.8876 99.4049 62.1477 99.3929 62.1279ZM115.685 59.4533C115.461 58.7398 115.402 59.8123 115.563 60.3639C115.723 60.9151 115.753 59.6696 115.685 59.4533ZM117.532 58.8205C117.29 58.2602 117.379 60.5915 117.58 60.1088C117.592 60.0815 117.546 58.853 117.532 58.8205ZM85.6434 26.7681C85.6653 26.766 85.6864 26.6519 85.6647 26.6493C85.1422 26.5893 85.1003 26.8176 85.6434 26.7681ZM119.372 58.1529C119.291 57.8408 119.117 58.2136 119.218 58.6017C119.299 58.9139 119.473 58.5411 119.372 58.1529ZM92.0346 62.4787C92.024 62.4565 91.94 62.464 91.9898 62.5933C92.15 63.0099 92.2112 62.853 92.0346 62.4787ZM122.553 57.985C122.079 57.9175 121.71 56.0047 122.232 56.1998C122.327 56.2351 122.059 56.8224 122.184 56.9908C122.414 57.2977 122.505 56.0828 122.754 56.721C122.799 56.8378 122.58 57.9931 122.552 57.9877C122.553 57.9868 122.553 57.9859 122.553 57.985ZM98.8482 60.2269C98.8403 60.2065 98.7265 60.2131 98.729 60.2347C98.7948 60.7562 99.0228 60.7435 98.8482 60.2269ZM89.001 62.6994C89.0457 62.6897 89.0482 62.4417 89.0047 62.4357C88.1382 62.4307 88.1372 62.9755 89.001 62.6994ZM106.03 57.5318C106.065 56.9932 106.202 56.9077 106.406 57.5428C106.28 57.5281 106.157 57.5433 106.03 57.5318Z" fill="black"/>
<path d="M43.1328 48.0191C43.2187 47.8659 43.4974 47.9776 43.7498 48.1444C43.8314 48.1956 43.8487 48.4889 43.907 48.5371C44.0197 48.6312 44.0897 48.4717 44.2099 48.5851C44.2512 48.6238 44.303 49.0846 44.3448 49.1147C44.5789 49.2751 44.7387 49.1203 44.9625 49.1706C46.0655 49.4179 47.1461 49.3101 48.2526 49.2063C48.6161 49.1721 49.163 49.4448 49.4671 49.1577C49.5024 49.1239 49.3566 48.7447 49.3546 48.7104C49.3255 48.1836 49.529 48.9773 49.6433 49.0553C50.0955 49.363 50.4702 49.2808 50.7313 49.0289C50.8421 48.9205 50.4548 48.201 50.73 48.5855C50.7489 48.6114 50.8523 49.0307 50.903 49.0621C51.0179 49.1325 51.1492 49.0069 51.2238 49.0174C51.3686 49.0397 51.3871 49.0287 51.5045 48.9934C51.6658 48.9487 51.9254 49.0844 52.0622 48.9322C52.0909 48.8985 51.8953 48.4998 51.9272 48.4087C51.9592 48.3177 52.1225 48.2988 52.2089 48.3781C52.2953 48.4574 52.3919 48.7913 52.4281 48.8628C52.7327 49.4661 52.5905 48.5284 52.604 48.4989C52.8768 47.9808 53.4112 48.3434 53.7927 48.1912C54.0811 48.0749 54.3215 47.7884 54.5992 47.698C54.9057 47.5997 55.2408 47.6782 55.5181 47.5547C55.5546 47.5384 55.591 47.5209 55.6272 47.5019C55.6764 47.4769 55.4131 47.0249 55.4764 46.9921C56.095 46.7023 57.3616 46.1731 58.9617 47.2241C59.0945 47.3282 58.7129 47.648 58.8158 47.7697C59.5511 48.624 58.9435 49.605 60.8956 49.0745C60.9875 49.4677 61.0229 49.8675 60.6976 50.2057C60.4867 50.4204 59.9702 50.3986 60.2173 50.5199C60.2723 50.5478 60.6836 50.3976 60.7345 50.4498C60.9495 50.6757 60.859 50.9707 61.1168 51.1702C61.1704 51.2116 61.5534 51.1402 61.6249 51.1439C62.2056 51.1845 61.3016 51.5069 61.2386 51.5538C60.928 51.7999 60.9215 51.9605 60.9566 52.1288C60.9736 52.2086 61.001 52.2901 61.0052 52.3816C61.0079 52.4453 61.5221 52.3238 61.5432 52.3825C61.6462 52.6919 61.6252 53.015 61.4137 53.3295C61.3653 53.3985 60.9167 53.3679 60.8708 53.4023C60.6737 53.5521 61.5157 53.5323 61.3424 53.6747C61.3069 53.7048 60.9252 53.7125 60.8837 53.7201C60.2321 53.8386 61.1663 53.8515 61.1881 53.8712C61.4838 54.1133 60.5215 54.3308 60.6719 54.5693C60.6908 54.598 61.1693 54.506 61.1932 54.5887C61.3547 55.1344 61.2485 55.7213 60.887 56.2778C60.8315 56.3645 60.4666 56.3207 60.4222 56.328C59.7284 56.4453 60.6656 56.4588 60.702 56.4845C60.9651 56.6887 60.1903 56.9249 61.3102 57.0203C60.9656 57.9491 61.6334 58.8039 60.6974 59.7519C60.6866 59.7639 60.2255 59.7753 60.206 59.7992C59.967 60.0915 60.6778 59.9881 61.5644 60.099C61.787 60.1262 60.7433 60.343 60.6671 60.3618C60.3858 60.4284 59.6988 60.4378 59.6448 60.4569C59.222 60.6165 61.48 60.4128 61.4943 60.5711C61.4909 60.5764 61.0734 60.5913 61.0332 60.6084C60.9071 60.662 61.0759 60.6882 60.9366 60.7433C60.6141 60.8677 59.5205 61.0069 60.1731 61.0927C60.2577 61.1029 61.5348 60.9508 61.4886 61.0971C61.4688 61.1548 61.5179 61.4009 61.4433 61.4764C61.3688 61.5547 60.9517 61.557 60.9344 61.5638C60.4136 61.821 60.1795 61.7763 59.3874 61.9788C58.5994 62.1861 60.5069 61.9046 60.7252 61.9136C60.943 61.9237 60.5142 62.1193 60.3645 62.1801C60.2143 62.2385 59.9472 62.2337 59.864 62.2787C59.3223 62.5791 60.8234 62.2207 61.1355 62.2349C61.1754 62.2363 61.209 62.2386 61.237 62.2416C61.727 62.2938 60.4792 62.623 60.3775 62.7882C60.3481 62.8329 60.6608 62.7373 60.6972 62.7628C60.8378 62.8658 60.4218 63.0482 60.8542 63.0875C60.9261 63.0995 61.7799 62.9646 61.1935 63.2039C61.1095 63.2401 60.7595 63.3141 60.699 63.3891C60.6071 63.499 60.5826 63.6674 60.7251 63.7023C60.8287 63.7241 61.3491 63.4454 61.2046 63.5736C61.1415 63.6333 60.8015 63.7114 60.712 63.8184C60.6213 63.9254 60.7105 64.0706 60.7497 64.1104C60.7903 64.1546 61.153 63.8933 61.1814 63.8825C61.342 63.8163 61.5429 63.7282 61.5405 63.7253C61.6086 63.7533 61.3682 63.7401 61.2879 63.8837C61.2082 64.0223 61.41 64.151 61.5756 64.0398L61.3084 64.2167C61.3472 64.1699 61.3806 64.1171 61.4073 64.057C61.4289 64.0099 61.0795 63.6945 61.0794 63.6839C61.061 63.428 61.8354 64.416 62.2094 64.6356C61.5346 63.9626 61.7036 64.0391 61.7146 63.8829C61.7192 63.8071 61.4403 63.5636 61.4177 63.5329C61.0868 63.0731 61.6325 63.5522 61.7465 63.6479C62.1658 63.9999 61.76 63.4967 62.0409 63.7314C62.32 63.9641 62.6316 64.4084 62.7073 64.3251C62.4917 64.0588 61.8101 63.4784 61.7701 63.3157C61.617 62.702 62.5327 62.7836 62.768 62.654C63.0027 62.5251 63.0178 62.4219 63.2113 62.4044C63.5613 62.3726 63.0264 61.9712 62.9341 61.6372C62.8422 61.3029 63.9254 62.5201 64.1881 62.7523C64.4505 62.9848 64.2164 62.71 64.3725 62.8262C64.5284 62.9423 64.6496 63.1568 64.7499 63.1593C64.8501 63.1618 64.5494 62.5849 64.3104 62.3069C63.8041 61.7179 63.1725 61.1984 63.5044 61.2728C63.5238 61.2774 63.7994 61.6066 63.8586 61.609C64.32 61.6172 64.5738 61.3966 65.0079 61.3796C65.0679 61.3778 65.3725 61.7458 65.4112 61.7486C65.8158 61.779 65.1863 61.2719 64.6697 60.5303C65.4742 61.4031 66.0394 61.8658 66.189 61.7301C66.2799 61.6482 65.9037 61.2912 65.7063 60.9737C65.6468 60.8781 65.9567 61.0733 65.7984 60.8874C65.2815 60.279 64.6024 59.695 65.0014 59.8033C65.0197 59.809 65.3015 60.1431 65.3428 60.1399C65.6123 60.1201 65.0522 59.5026 65.145 59.2737C65.2184 59.0935 65.7965 59.2444 65.9998 59.1661C66.9136 60.1379 66.8395 59.7878 66.2657 59.0649C66.3857 59.0038 66.4548 58.868 66.6336 58.8753C66.6949 58.8775 66.937 59.1798 66.9694 59.2067C67.4758 59.6298 66.9082 58.9358 66.9052 58.8908C66.9001 58.4311 67.5387 58.7663 67.3126 58.0781C67.3042 58.0536 66.6979 57.3525 67.2083 57.8036C67.243 57.8352 67.453 58.2131 67.5766 58.1462C67.7032 58.0766 68.2225 58.2801 68.0848 57.8307C68.0513 57.7227 67.649 57.0757 68.1047 57.459C68.1662 57.5113 68.3293 57.7216 68.4394 57.822C68.79 58.142 68.2046 57.4101 68.7741 57.9701C69.3437 58.5301 69.8302 58.8983 69.6193 58.3594C69.6135 58.3434 69.1728 57.7443 69.2269 57.7146C69.3135 57.668 69.5153 57.7025 69.5889 57.6366C69.6246 57.6044 69.3107 57.2654 69.3119 57.2536C69.4045 56.8469 69.8444 57.0236 70.225 56.9599C70.2948 56.9492 70.0689 56.3337 70.4623 56.6626C70.8896 57.0254 72.1059 58.9368 72.013 58.3423C71.9682 58.1104 70.4912 55.641 71.5006 56.758C71.6606 56.2141 72.3698 56.677 72.488 56.0287C72.4932 55.9999 72.191 55.2553 72.243 55.2423C72.3174 55.2262 72.5116 55.5489 72.5657 55.5512C72.7395 55.566 72.8127 55.3554 72.9308 55.2444C72.9397 55.2387 72.9709 55.2352 72.9809 55.2316C73.0251 55.2059 73.0715 55.1907 73.1212 55.1967C73.2002 55.2059 73.2163 55.5935 73.3033 55.6067C73.3871 55.6204 73.4138 55.1066 73.5506 55.3466C73.6559 55.5299 73.759 56.5701 73.8514 56.6918C73.8574 55.6639 73.9343 55.6844 74.0886 55.4178C74.1186 55.3661 74.1001 55.0075 74.1153 54.9646C74.1807 54.7823 74.2191 55.0808 74.2836 54.883C74.299 54.8355 74.3177 54.4849 74.3319 54.4264C74.4591 53.915 74.5655 54.7141 74.5776 54.853C74.6364 55.3811 74.7162 54.9296 74.7728 55.1409C74.8273 55.3522 74.6968 55.5987 74.7694 55.7304C74.9175 56.0028 75.1414 55.9694 75.3142 56.0056C75.3845 56.018 75.3902 55.5468 75.4014 55.5378C75.5605 55.4365 75.6476 55.9497 75.8444 55.0335C75.6422 57.4411 75.9616 54.8122 76.112 55.3192C76.1238 55.3602 75.9947 56.4945 75.9099 56.6524C75.8255 56.8102 75.7792 56.4443 75.6596 56.6925C75.6314 56.7507 75.3848 57.7979 75.3624 57.8605C75.1848 58.3489 75.368 56.653 75.3725 56.5592C75.417 55.5462 75.1403 56.6745 75.0976 56.75C74.8928 57.0945 74.7767 56.8419 74.6193 57.0894C74.5184 57.2495 74.4171 58.3624 74.3611 58.3237C74.1825 58.1969 74.1658 56.6351 73.9484 57.9809C73.9068 58.2685 73.9206 59.4894 73.8303 58.5287C73.8295 58.468 73.73 57.5904 73.7034 58.1477C73.7007 58.2179 73.7147 58.5735 73.7102 58.6036C73.6822 58.7984 73.6423 58.5168 73.6128 58.6554C73.5843 58.7942 73.5692 58.9994 73.501 58.887C73.4981 58.8824 73.4948 58.8751 73.4911 58.8654L74.2366 58.6737C74.1651 58.5534 73.9103 58.0244 73.8349 57.8919C73.602 57.482 73.8504 58.2103 73.5879 57.7075C73.3138 57.207 73.0427 56.3803 72.769 56.1014C73.1551 56.9417 73.5488 57.8053 73.9405 58.6488C73.7658 58.6947 73.4325 58.5344 73.2491 58.6915C73.2273 58.7116 73.5079 59.123 73.4923 59.1548C73.4262 59.2869 73.1418 59.0472 73.0976 59.2449C73.0664 59.3984 73.2634 59.9008 73.247 60.074C72.5855 59.2451 72.6388 59.648 72.4772 59.6473C72.4198 59.648 72.2542 59.4191 72.1717 59.3655C71.8629 59.1704 72.4724 59.8824 72.533 60.0208C72.7945 60.6103 71.5038 58.9329 71.3818 59.0937C71.3739 59.1024 71.9744 60.0651 72.0071 60.129C72.2114 60.5515 71.7502 59.8315 71.6471 59.8069C71.4592 59.7618 71.219 59.6093 71.3182 59.955C71.3471 60.0578 71.7188 60.6624 71.3089 60.296C71.255 60.2481 71.0212 59.9576 71.0005 59.9464C70.6441 59.7696 71.3946 60.6697 71.5839 61.0292C71.7742 61.3877 71.1442 60.8622 70.9708 60.7039C70.5216 60.2948 70.8458 60.4715 70.8109 60.4236C70.3899 59.857 70.3894 60.0168 70.2905 60.0236C69.5319 59.1607 69.4895 59.2886 70.1905 60.0345C70.2672 60.116 70.2441 59.9943 70.2905 60.0236C70.9731 60.9233 70.9818 61.1067 70.1848 60.4047C69.8116 60.0755 69.4771 59.6027 69.4685 59.8913C69.4643 60.022 70.0151 60.5908 70.1003 60.8036C70.2956 61.2884 69.6329 60.8924 69.5727 61.1046C69.5519 61.1806 69.8915 61.4569 69.8876 61.5198C69.8784 61.6872 69.5799 61.5203 69.6025 61.7259C69.605 61.7449 69.9324 62.0596 69.9084 62.0895C69.7363 62.3204 69.3543 62.2803 69.1285 62.4826C69.0187 62.5813 69.0027 62.9416 68.8571 63.0115C68.6092 63.1317 67.9145 62.8861 67.8618 63.1603C67.826 63.3379 68.1653 63.6404 68.3347 63.9064C68.6644 64.4208 67.7602 63.8045 67.6227 63.7067C67.6182 63.7034 67.6359 63.5369 67.4242 63.4183C67.0569 63.0991 67.6223 63.7042 67.6227 63.7067C67.5339 63.6434 67.2774 63.7501 67.3015 63.8479C67.3147 63.9012 67.6263 64.1973 67.6276 64.2192C67.6499 64.7353 67.4797 65.0557 67.0874 65.1599C67.0769 65.1581 66.7466 64.8091 66.7261 64.8091C66.4305 64.8003 66.7491 65.3113 66.8735 65.6786C66.9976 66.0459 66.8194 66.0574 66.1693 65.54C66.1508 65.7038 65.7637 65.5731 65.5329 65.4897C65.3022 65.4062 65.947 66.0838 65.9533 66.1035C66.1596 66.7304 65.6634 66.4672 65.3874 66.6205C65.2552 66.6922 65.1434 66.9906 65.1014 67.174C65.0693 67.32 64.8626 67.2152 64.8772 67.3961C64.879 67.4204 65.18 67.7086 65.1877 67.7235C65.4412 68.1714 64.7782 67.3965 64.6327 67.2843C64.1668 66.9244 63.8888 66.7165 63.8961 66.9031C63.7097 67.0187 63.2531 67.4297 63.0377 67.4714C63.0152 67.5014 62.993 67.5406 62.97 67.5898C62.9443 67.6782 63.1948 69.1519 62.9764 69.3059C62.7091 69.4943 62.6967 68.9567 62.3983 69.1541C62.3697 69.1698 62.45 69.4881 62.2084 69.5151C61.1403 69.7049 59.103 69.1686 58.0348 68.2764C57.8825 68.161 57.7623 68.7235 57.5255 68.5483C56.4371 67.7032 56.0168 66.8255 55.9607 66.1688C55.9503 66.0031 56.3185 65.9405 56.402 65.8665C56.9168 65.4407 55.9656 65.5914 55.9319 65.5535C55.1703 64.8069 55.8902 64.0811 55.3699 63.5274C55.3477 63.5067 54.7502 63.4499 54.8155 63.3027C54.8372 63.258 54.9293 63.2053 55.1344 63.1442C55.1896 63.1256 56.0462 62.8835 55.4344 62.8771C55.3962 62.877 54.9558 63.0105 54.9845 62.8863C55.0136 62.765 54.686 62.6115 55.1633 62.3975C55.3133 62.3279 56.175 62.1114 55.4613 62.0553C55.4117 62.0554 53.807 62.0028 54.8899 61.8126C55.0682 61.7811 56.2235 61.6758 55.6154 61.574C55.4976 61.5541 55.2456 61.6367 55.0766 61.5694C54.8166 61.4697 55.1105 61.2732 54.5826 61.1684C54.4892 61.1506 53.6946 61.1022 54.2829 60.9613C54.375 60.9395 54.7633 60.9345 54.8027 60.8838C54.9919 60.6451 54.7163 60.4326 54.9683 60.1908C55.0568 60.106 55.6843 60.1032 55.8463 60.0116C56.0083 59.9204 56.1588 59.7473 55.868 59.6831C55.5771 59.6175 54.5866 59.7716 54.499 59.6496C54.1188 59.1171 54.6756 58.548 54.7356 58.0135C54.7446 57.9341 54.391 58.0165 54.3787 57.9007C54.3316 57.4727 53.9647 56.7595 54.7066 56.3652C55.3008 56.049 55.7795 56.3919 56.0166 56.1596C56.1296 56.047 54.9652 55.9851 54.9276 55.9614C54.5454 55.7282 55.0508 55.532 54.8825 55.3174C54.8476 55.2734 54.38 55.3409 54.3555 55.3033C54.2675 55.1743 54.4703 55.0254 54.4254 54.902C54.4042 54.8464 54.046 54.8755 54.071 54.8225C54.1266 54.6965 54.2715 54.5803 54.6009 54.4421C54.6309 54.4294 55.0812 54.4777 55.0927 54.3861C55.11 54.2391 55.4306 54.0367 55.0776 53.8917C54.9714 53.849 54.1522 53.9008 54.711 53.7604C54.8277 53.7311 55.8131 53.6915 54.9549 53.6277C54.8122 53.6146 53.6524 53.5033 54.3832 53.3519C54.5755 53.3116 55.3747 53.1843 55.2435 53.1368C55.2227 53.1308 54.7858 53.1975 54.7391 53.1548C54.6089 53.0315 54.6086 52.8939 54.5249 52.7762C54.5077 52.7518 54.4871 52.7283 54.4612 52.7059C54.4196 52.6715 53.9718 52.776 53.9244 52.7249C53.7935 52.5856 53.8872 52.4031 54.0104 52.2668C54.0568 52.2166 54.4346 52.1866 54.4749 52.1775C55.1272 52.0189 54.2307 52.1344 54.1766 52.1308C53.8512 52.0995 54.2559 51.964 54.1361 51.9445C54.1046 51.9412 53.6877 52.0494 53.65 52.0566C53.283 52.1354 54.0358 51.9581 54.1159 51.9274C54.3435 51.841 54.3043 51.8437 54.2843 51.9447C54.2775 51.9837 53.7987 52.1318 53.8015 52.1726C53.8122 52.3057 53.8942 52.5264 54.1692 52.8424C54.4343 53.1489 54.9617 53.5716 55.6295 53.771C55.8778 53.8412 55.9087 53.4234 55.9926 53.3679C56.5107 52.9486 56.615 53.8401 56.7316 53.9453C57.125 54.3935 57.3324 54.0522 57.5948 54.1113C58.3446 54.2412 58.4878 54.1145 58.436 54.094C58.1305 54.1854 57.8148 54.2368 57.5443 54.2846C56.7413 54.4289 56.0486 54.3094 55.3945 54.6587C55.3527 54.6804 55.5775 55.1423 55.5435 55.1672C55.0944 55.4682 54.5433 55.4554 54.1003 55.7669C54.0634 55.7916 54.282 56.2289 54.2279 56.2841C54.118 56.4006 53.9393 56.4344 53.7536 56.3342C53.6635 56.2861 53.6175 55.8622 53.5298 55.8217C53.3256 55.7266 53.1513 55.7488 53.018 55.8752C52.9614 55.93 53.2198 56.3666 53.1336 56.4013C52.5522 56.6462 51.9819 56.9171 51.1887 56.4871C51.1343 56.4575 50.8061 55.5038 50.7756 55.7149C50.8498 55.9847 50.945 56.2996 51.0284 56.5868C50.1969 57.0052 49.2359 56.913 48.3239 57.0921C48.2854 57.0997 48.4842 57.6 48.4099 57.6176C47.9828 57.7189 47.5912 57.9672 47.0218 57.5533C46.9657 57.5128 46.7786 56.592 46.6824 56.7595C46.6678 56.7895 46.4957 56.9561 46.4876 57.1665C46.4871 57.1981 46.6174 57.6185 46.5553 57.6451C46.1924 57.7921 45.7648 57.7769 45.3074 57.5857C45.2347 57.5538 45.2227 57.0817 45.171 57.0548C44.8022 56.8676 44.4863 57.2764 44.0506 56.8967C43.7558 56.6394 43.7765 55.8256 43.5949 55.0433C43.5753 54.9328 43.4162 54.9245 43.3918 54.4623C43.3296 53.3015 43.3088 52.0281 43.2323 50.7912C43.2119 50.5251 43.2064 50.8128 43.1944 50.1679C43.1913 50.1249 43.1964 49.9104 43.19 49.6915C43.1834 49.5403 43.1473 49.0715 43.1379 48.8781C43.1266 48.6849 43.1656 49.0773 43.1657 48.8488C43.1651 48.6174 43.0991 48.0866 43.1328 48.0191ZM64.4992 65.1186C64.1147 64.8666 65.2556 66.0518 65.0562 65.6961C65.0452 65.6775 64.5183 65.1308 64.4992 65.1186ZM72.8239 57.457C72.3706 56.8793 72.8383 57.842 73.1817 58.2906C73.5161 58.744 72.957 57.6346 72.8239 57.457ZM73.3229 56.6272C73.1257 56.0745 73.4296 58.3877 73.4584 57.9091C73.4597 57.8822 73.3332 56.6595 73.3229 56.6272ZM44.0915 54.7634C44.0896 54.7417 43.9929 54.7326 43.994 54.7542C44.0071 55.2792 44.2042 55.2966 44.0915 54.7634ZM74.4569 56.0479C74.4339 55.7297 74.2831 56.0854 74.3135 56.4804C74.3345 56.7978 74.482 56.4432 74.4569 56.0479ZM59.5916 62.9531C59.6153 62.9467 59.6257 62.8866 59.49 62.9146C59.053 63.0056 59.1931 63.0624 59.5916 62.9531ZM76.6339 56.2757C76.325 56.1436 76.3809 54.2067 76.7137 54.472C76.7725 54.5199 76.4908 55.0615 76.5485 55.2449C76.6538 55.579 76.9229 54.3951 76.988 55.0593C76.9985 55.1807 76.6494 56.2873 76.633 56.2783C76.6333 56.2775 76.6336 56.2766 76.6339 56.2757ZM63.0758 63.747C63.0592 63.7329 62.9888 63.773 63.0026 63.7897C63.3376 64.1925 63.4799 64.1118 63.0758 63.747ZM60.2348 59.5763C60.2807 59.5688 60.3125 59.3868 60.2696 59.3838C59.4112 59.3425 59.3446 59.7152 60.2348 59.5763ZM66.0265 59.1898C65.7287 58.7484 65.763 58.631 66.265 59.0647C66.1784 59.0979 66.1118 59.1537 66.0265 59.1898Z" fill="black"/>
<path d="M47.5223 77.6953C47.7046 77.472 48.2092 77.4265 48.6325 77.4743C48.7647 77.4889 48.825 77.7801 48.923 77.8014C49.1185 77.8412 49.197 77.6518 49.4007 77.7113C49.4677 77.7327 49.5892 78.1832 49.6555 78.1959C50.0237 78.2598 50.2447 78.0367 50.5809 77.9997C52.2247 77.824 53.7606 77.3734 55.4122 77.0073C55.9594 76.8852 56.7302 77.0684 57.235 76.7242C57.2938 76.6836 57.1377 76.3073 57.1405 76.2716C57.1939 75.7215 57.3622 76.5254 57.5212 76.5919C57.7411 76.6843 57.959 76.7291 58.1627 76.739C58.7378 76.6077 59.8919 76.6561 60.6449 77.1953C61.3872 77.706 61.6421 78.186 61.8654 78.5029C62.1225 78.9139 62.6849 78.174 62.4365 78.7766C62.4176 78.8141 61.9779 78.8641 61.9724 78.984C61.9601 79.2496 62.1226 79.5774 62.1174 79.7172C62.1052 79.981 62.115 80.0164 62.1474 80.2294C62.1862 80.5192 62.0154 80.8538 62.1459 81.0973C62.1751 81.1491 62.603 81.0191 62.6889 81.0962C62.7748 81.1746 62.7665 81.3965 62.673 81.4789C62.5796 81.5628 62.232 81.5812 62.155 81.6046C61.5051 81.8054 62.4598 81.8982 62.4861 81.9132C62.7425 82.1447 62.7282 82.3431 62.6469 82.4104C62.4611 82.1503 62.247 82.1161 62.2297 82.0991C62.1927 82.0751 62.4549 82.0284 62.6503 82.1027C62.7412 82.1406 62.8307 82.2034 62.9224 82.2652C62.7148 82.3119 62.8138 82.4219 62.944 82.3637C62.9665 82.3552 62.8373 81.8522 62.8595 81.8417C63.1106 81.7295 63.6469 81.5889 64.3118 81.667C64.3804 81.6746 64.5007 82.1207 64.5819 82.1524C65.0677 82.3429 66.0528 82.8525 65.3397 80.9863C65.6033 80.9365 65.9222 80.8564 66.3232 81.093C66.5813 81.2452 66.6877 81.7527 66.754 81.4748C66.7693 81.4125 66.5106 81.0589 66.5491 80.9944C66.7083 80.7252 67.0371 80.7031 67.1617 80.3746C67.1868 80.3068 66.9818 79.9753 66.9608 79.9066C66.7942 79.3484 67.4448 80.0581 67.5215 80.0928C68.0893 80.3541 68.2217 80.0465 68.523 79.8862C68.5935 79.8489 68.2495 79.4438 68.3079 79.3916C68.6098 79.1297 68.9882 78.9608 69.4414 78.9646C69.5427 78.9666 69.6991 79.3913 69.759 79.4119C70.0206 79.4981 69.6323 78.7503 69.8747 78.8191C69.9253 78.8326 70.1001 79.1723 70.1271 79.205C70.55 79.7194 70.1587 78.8688 70.1718 78.8373C70.3283 78.42 71.0087 79.1488 71.2266 78.8621C71.2521 78.8269 70.9312 78.4554 71.018 78.3821C71.5254 77.9504 72.1687 77.6782 72.8848 77.5947C73.0291 77.5578 73.1675 77.5349 73.3158 77.5181C73.5022 77.4988 73.5329 77.8829 73.5632 77.9181C73.9797 78.4967 73.7201 77.5975 73.7741 77.5405C74.1695 77.138 74.6557 77.8563 74.9365 76.7357C77.2072 77.1737 78.3405 77.6325 78.8513 78.7406C78.8594 78.7551 78.7061 79.1902 78.7249 79.2178C78.9566 79.5502 79.11 78.8409 79.3398 77.9922C79.3754 77.7762 79.3585 78.836 79.3829 78.9145C79.4109 79.2016 79.3384 79.8847 79.3514 79.9406C79.44 80.1939 79.4879 79.5494 79.5049 78.9568C79.5112 78.5186 79.4755 78.1099 79.474 78.1098C79.4761 78.1133 79.5218 78.5282 79.5307 78.5689C79.5652 78.6958 79.5586 78.529 79.6092 78.6652C79.7216 78.9812 80.0952 80.0252 80.0671 79.3577C80.0587 79.272 79.6102 78.0686 79.7284 78.0872C79.776 78.0978 79.9833 77.9768 80.093 78.011C80.1997 78.0487 80.3485 78.4389 80.3611 78.4525C80.8278 78.8227 80.8625 79.0619 81.3842 79.6985C81.9168 80.3235 80.9031 78.6827 80.8358 78.4724C80.7672 78.264 81.1609 78.5523 81.2867 78.6584C81.411 78.7658 81.501 79.0205 81.5852 79.0725C82.1439 79.4053 81.1733 78.2 81.0829 77.8941C80.8594 77.175 81.7916 78.2708 82.0431 78.2698C82.1106 78.2698 81.8903 78.0257 81.9142 77.9727C82.0117 77.7661 82.3601 78.0683 82.322 77.601C82.3143 77.5258 81.9988 76.7026 82.4512 77.1608C82.5157 77.2274 82.6689 77.5527 82.7864 77.5715C82.9607 77.6008 83.2023 77.5407 83.2667 77.3649C83.3165 77.2336 82.9102 76.7908 83.1261 76.8766C83.2212 76.9162 83.291 77.2714 83.4533 77.3225C83.6109 77.3745 83.8642 77.2278 83.9706 77.1717C84.0737 77.1149 83.8463 76.7278 83.8428 76.6966C83.8374 76.594 83.898 76.451 83.9638 76.3468C84.0196 76.264 84.0756 76.2054 84.0877 76.2022C84.8024 75.9609 85.5632 76.2243 86.0188 76.5235C86.4958 76.823 86.8267 77.1324 87.2629 77.1985C87.3304 77.2095 87.4911 76.7661 87.5035 76.7634C87.7858 76.6788 87.0972 77.7349 87.0638 78.1804C87.4443 77.3063 87.4556 77.5025 87.6341 77.4678C87.7202 77.45 87.8332 77.0965 87.8545 77.0646C88.1689 76.5907 87.9424 77.2802 87.9052 77.4251C87.7617 77.9553 88.0695 77.3849 87.9791 77.7399C87.897 78.0951 87.596 78.5547 87.7455 78.6029C87.8989 78.2957 88.1132 77.4252 88.2522 77.3219C88.7405 76.9292 89.0644 77.6842 89.3786 77.7369C89.3937 77.7404 89.4083 77.7433 89.4224 77.7457C89.7246 77.7806 89.8258 77.7219 90.019 77.8212C90.397 78.0086 90.2031 77.3627 90.3809 77.0387C90.5549 76.7136 90.6483 78.3409 90.7215 78.6845C90.7962 79.0277 90.7873 78.6661 90.8511 78.8518C90.9171 79.0371 90.8561 79.2847 90.9645 79.3435C91.0758 79.4023 91.2551 78.7486 91.2311 78.382C91.1844 77.6052 90.9551 76.818 91.226 77.0649C91.2424 77.0795 91.2649 77.5092 91.3246 77.5435C91.7974 77.8013 92.2326 77.7375 92.7179 77.9237C92.7855 77.9498 92.8414 78.4256 92.8827 78.4458C93.3156 78.6551 92.997 77.9057 92.9609 76.995C93.2143 78.1546 93.5077 78.8306 93.7899 78.7594C93.9566 78.7172 93.7867 78.2264 93.7882 77.8455C93.7878 77.731 94.0038 78.0376 93.9533 77.7981C93.7856 77.016 93.4247 76.1952 93.778 76.456C93.7945 76.4684 93.891 76.8954 93.9387 76.9079C94.2511 76.988 94.0111 76.1896 94.2354 76.0028C94.4081 75.8576 94.9497 76.1928 95.2172 76.169C95.7264 77.4024 95.8515 77.017 95.5633 76.1379C95.733 76.1039 95.8688 75.9838 96.0699 76.0284C96.1392 76.0432 96.2735 76.4072 96.2979 76.4417C96.6842 76.9824 96.3591 76.1448 96.3742 76.0981C96.5702 75.6198 97.1725 76.0661 97.1804 75.3003C97.1809 75.2726 96.7387 74.4582 97.1598 74.9967C97.1891 75.0336 97.289 75.4626 97.4619 75.4006C97.6318 75.3406 98.1778 75.5937 98.173 75.0926C98.1707 74.9728 97.9064 74.2521 98.3218 74.686C98.3779 74.7452 98.5026 74.9805 98.6008 75.0936C98.9137 75.4541 98.458 74.6345 98.9564 75.2616C99.4547 75.8891 99.9262 76.2967 99.8556 75.6985C99.8541 75.6808 99.5236 75.0132 99.6013 74.9813C99.7281 74.9292 99.965 74.9736 100.081 74.9104C100.139 74.8783 99.8963 74.4842 99.9031 74.4714C100.133 74.1521 100.585 74.1311 101.015 74.3989C101.173 74.4989 101.274 74.6562 101.322 74.797C101.347 74.8561 102.069 74.9251 101.646 75.2582C101.183 75.6098 98.9424 76.0002 99.5727 76.2634C99.7022 76.328 100.481 76.2463 101.053 76.1958C101.636 76.1655 101.954 76.0601 101.404 76.5931C101.45 76.6255 101.495 76.6585 101.539 76.6912C101.836 76.8978 102.037 77.1527 102.332 77.3402C102.617 77.523 102.982 77.6056 103.29 77.351C103.326 77.327 103.368 76.523 103.411 76.5296C103.484 76.5407 103.579 76.9056 103.649 76.9193C103.66 76.922 103.671 76.9239 103.683 76.9252C103.96 76.9523 104.097 76.5976 104.335 76.553C104.432 76.533 104.55 76.9037 104.673 76.8738C104.798 76.8417 104.652 76.3472 104.904 76.4983C105.095 76.614 105.68 77.4866 105.884 77.5192C105.424 76.5997 105.533 76.5674 105.59 76.2351C105.601 76.1707 105.404 75.8693 105.401 75.8223C105.387 75.6232 105.581 75.8579 105.559 75.6457C105.554 75.5946 105.402 75.2781 105.39 75.2182C105.385 75.1948 105.381 75.1736 105.379 75.1546C105.332 74.7489 105.819 75.3253 105.9 75.4333C106.234 75.8564 106.108 75.4139 106.283 75.5635C106.455 75.7151 106.417 76.009 106.569 76.081C106.882 76.2312 107.137 76.0758 107.367 76.0129C107.458 75.9859 107.244 75.5642 107.253 75.55C107.406 75.3713 107.752 75.7825 107.572 74.8599C108.442 77.1156 107.616 74.5992 108.041 74.9729C108.075 75.0033 108.438 76.0858 108.407 76.271C108.378 76.4553 108.146 76.1541 108.116 76.4382C108.106 76.5057 108.291 77.5702 108.294 77.6375C108.306 78.1672 107.739 76.5585 107.7 76.4729C107.277 75.5485 107.47 76.7022 107.456 76.7921C107.372 77.21 107.118 77.0513 107.055 77.3593C107.013 77.559 107.446 78.5896 107.363 78.5884C107.225 78.5876 106.971 78.2492 106.784 78.0778C106.595 77.9048 106.478 77.9008 106.649 78.575C106.718 78.8629 107.338 79.9179 106.679 79.1755C106.637 79.1289 106.069 78.432 106.204 78.985C106.221 79.0548 106.379 79.3738 106.373 79.4101C106.327 79.6479 106.113 79.4365 106.005 79.6345C105.898 79.8325 105.746 80.118 105.456 80.0951C105.279 80.0834 104.877 79.5156 104.765 79.3787C104.451 78.9855 104.398 79.7838 104.145 79.2545C103.981 78.874 103.978 78.3131 103.857 77.9099C103.81 77.7443 103.75 77.6041 103.669 77.5079C103.791 78.4245 103.893 79.3686 103.985 80.2942C103.034 80.3699 102.067 80.0408 100.929 79.5149C100.785 79.4453 100.701 79.9651 100.526 79.8909C99.9306 79.6254 99.5591 79.0434 99.1729 78.5037C99.0311 78.3094 98.9091 78.1298 98.7885 77.9734C98.3533 77.4058 97.7438 77.1107 97.5333 76.8665C98.509 76.4123 98.0761 76.2316 98.2355 76.3971C98.2956 76.4543 98.5533 76.3383 98.6681 76.3625C98.89 76.4224 98.8252 76.5812 98.6669 76.7215C98.5136 76.8671 98.268 76.9912 98.279 77.1286C98.3231 77.5484 98.7383 77.777 99.1475 77.7573C99.565 77.747 99.9865 77.5298 100.317 77.318C100.565 77.1145 100.755 76.9331 100.902 76.9384C100.909 76.9489 101.405 78.0034 101.468 78.0537C101.781 78.4365 101.391 77.6674 101.426 77.5676C101.443 77.3974 101.252 77.1822 101.308 77.5295C101.318 77.6353 101.594 78.287 101.235 77.8676C101.188 77.8127 101.003 77.4885 100.983 77.475C100.623 77.2663 101.225 78.2724 101.331 78.6734C101.435 79.0751 100.833 78.4969 100.672 78.3223C100.26 77.8682 100.609 78.0585 100.584 78.0044C100.273 77.3684 100.206 77.5528 100.076 77.5633C99.4567 76.5955 99.3507 76.7421 99.94 77.5803C100.005 77.6715 100.028 77.531 100.076 77.5633C100.581 78.5762 100.495 78.7992 99.7637 78.0112C99.4227 77.6404 99.2083 77.0983 99.0624 77.431C98.9927 77.583 99.4434 78.2354 99.4469 78.4836C99.4472 79.0542 98.7534 78.5987 98.5532 78.8378C98.477 78.9265 98.7756 79.2578 98.7293 79.3322C98.604 79.5321 98.3026 79.3223 98.1932 79.5634C98.1839 79.5855 98.4271 79.9707 98.373 80.0042C97.9583 80.2694 97.4457 80.1864 96.9759 80.3755C96.7508 80.4672 96.4253 80.8643 96.1678 80.9045C95.7091 80.9844 94.9999 80.5226 94.6948 80.7791C94.489 80.9464 94.6665 81.3663 94.6483 81.6927C94.6092 82.3267 93.966 81.3855 93.8888 81.2329C93.8855 81.2283 94.0619 81.0728 93.8955 80.8752C93.7143 80.421 93.8912 81.2302 93.8888 81.2329C93.8329 81.1373 93.4074 81.1339 93.3438 81.2359C93.3098 81.2921 93.4287 81.7056 93.4087 81.7271C92.946 82.2246 92.3778 82.4406 91.7821 82.3251C91.7709 82.318 91.7158 81.8405 91.6907 81.8296C91.3394 81.6647 91.2101 82.2731 90.9763 82.651C90.7412 83.0285 90.4976 82.9337 90.2725 82.1253C90.1133 82.2261 89.8643 82.0056 89.6834 81.8066C89.6262 81.7681 89.5743 81.7297 89.5289 81.6947C89.2688 81.4827 89.2304 82.4136 89.2021 82.4328C88.3692 83.0088 87.8951 82.3907 87.2274 82.1254C86.8959 81.9968 86.2608 81.9078 85.9499 81.8827C85.6983 81.8651 85.6693 81.6106 85.4441 81.661C85.414 81.6676 85.2611 82.0557 85.2476 82.0671C84.8535 82.4331 85.3745 81.5527 85.4152 81.371C85.5729 80.7147 85.6453 80.3587 85.3404 80.5598C85.2667 80.604 84.5587 81.8922 84.4921 81.957C84.4013 82.0364 84.6209 81.5588 84.5319 81.6599C84.5257 81.6686 84.4025 81.9683 84.3966 81.9507C84.3625 81.8675 84.6268 81.7949 85.0837 81.8147C85.1473 81.8153 85.0794 82.3333 85.1879 82.3407C85.4414 82.3564 85.7326 82.3088 85.9495 82.2074C86.1488 82.1099 86.1466 82.027 86.0732 81.9285C86.0336 81.8806 85.8697 81.5601 85.816 81.4676C85.4759 80.916 85.8682 81.7747 85.8712 81.7941C85.8361 82.3399 84.9861 81.8972 84.6392 82.6182C84.625 82.6566 84.9192 83.6707 84.3211 83.028C84.2798 82.9862 83.6862 82.3175 83.8967 82.8987C83.9091 82.9355 84.2333 83.2696 84.0657 83.3195C83.9 83.3683 83.8025 83.7824 83.3209 83.4783C83.1647 83.3847 82.5935 82.6948 82.6706 83.4415C82.7007 83.4839 82.9251 85.1371 82.3009 84.2059C82.1974 84.0516 81.8089 82.9649 81.6556 83.6568C81.6191 83.7921 81.8506 83.9855 81.693 84.2114C81.4331 84.5611 80.8834 84.4048 80.3298 84.9942C80.2652 85.0692 80.0159 85.5363 79.6576 85.5481C79.5636 85.5517 79.4664 85.4924 79.382 85.3277C79.3352 85.2334 79.4275 84.8479 79.2741 84.8014C78.5596 84.5783 77.8129 84.6986 77.3195 84.2788C77.1519 84.1318 77.4256 83.5602 77.2994 83.3447C77.1713 83.1289 76.924 82.8654 76.6701 83.0702C76.4112 83.2735 76.1997 84.2667 75.9305 84.2403C74.7797 84.1061 74.5412 83.3365 74.6343 83.295C74.6566 83.2878 74.5366 83.6259 74.5898 83.6462C74.6781 83.684 75.0425 83.8401 75.4686 83.7639C75.8885 83.6924 76.1454 83.4352 76.0203 83.069C76.0182 83.0621 76.0161 83.0551 76.0139 83.0483C75.399 82.7125 75.5864 82.0803 75.2079 82.0158C75.0234 81.9858 75.4684 83.0687 75.4569 83.1175C75.3476 83.6091 74.8873 83.282 74.6997 83.5735C74.6614 83.6337 74.9517 84.0089 74.9165 84.0556C74.7996 84.218 74.5243 84.1356 74.3915 84.2576C74.3324 84.3133 74.5261 84.6162 74.4494 84.6289C74.2666 84.6636 74.0559 84.612 73.7389 84.4075C73.7099 84.3888 73.5747 83.9503 73.4546 84.0013C73.258 84.0866 72.8672 83.9306 72.8278 84.3511C72.8173 84.4768 73.2293 85.1869 72.8089 84.776C72.7207 84.6903 72.2599 83.8179 72.5326 84.6451C72.5773 84.783 72.8917 85.9299 72.3887 85.3659C72.2557 85.2178 71.7612 84.5723 71.749 84.7261C71.7489 84.7496 72.0121 85.1066 71.9706 85.1805C71.8227 85.4331 71.5613 85.5303 71.3994 85.7831C71.3557 85.8518 71.6768 86.1935 71.6043 86.2833C71.4071 86.5301 71.0265 86.6139 70.7003 86.6342C70.5793 86.6411 70.4589 86.2749 70.4317 86.2431C69.9929 85.7225 70.3718 86.5454 70.3608 86.612C70.2836 87.0169 69.905 86.742 69.7401 86.9607C69.6945 87.0197 69.9441 87.374 69.9506 87.4142C70.0062 87.8115 69.7275 87.0824 69.6085 87.0503C69.2734 86.9583 69.0459 87.12 68.8373 87.2919C68.7622 87.355 69.0901 87.7467 69.0194 87.7985C68.6032 88.1139 68.08 88.3241 67.4603 88.3078C67.3424 88.3042 67.2418 87.9271 67.1853 87.8565C66.7978 87.3589 66.9432 88.2112 66.9224 88.3072C66.848 88.7371 66.622 88.4633 66.4398 88.6056C65.577 89.1394 64.6433 89.7851 61.6584 89.3319C61.449 89.2726 61.2491 89.2081 61.0565 89.1409C59.6209 88.4507 57.9372 88.217 56.2741 84.7308C56.175 84.4529 56.0992 84.2069 56.0304 83.9876C55.9975 83.8799 55.5292 84.1154 55.4941 84.0209C55.0949 82.8373 55.2585 82.1207 55.0296 81.6352C55.0129 81.5988 54.5412 81.7232 54.4985 81.6698C54.408 81.5623 54.4155 81.4582 54.5632 81.4109C54.6344 81.387 55.0434 81.3097 55.1059 81.284C55.2593 81.2317 55.2696 81.2413 55.3565 81.6229C55.4082 81.8045 54.8242 81.7474 54.9515 82.0091C55.1405 82.3471 55.5019 83.0952 56.7166 83.8068C57.9538 84.5445 59.5638 84.4637 60.1901 84.2489C59.816 84.3293 59.3971 84.3331 58.8593 84.0881C58.8004 84.061 58.4434 83.1173 58.4041 83.3343C58.4854 83.602 58.5903 83.9139 58.6821 84.1984C57.7754 84.6723 56.664 84.7255 55.6189 85.094C55.5751 85.1096 55.8517 85.5734 55.7676 85.6062C55.2832 85.7961 54.8708 86.13 54.1573 85.8571C54.0868 85.8308 53.7435 84.9558 53.6518 85.1494C53.6352 85.1847 53.4586 85.3967 53.4821 85.6085C53.4862 85.6402 53.7006 86.0254 53.6326 86.0685C53.2366 86.3108 52.746 86.4137 52.1927 86.3575C52.1035 86.3474 51.9978 85.885 51.933 85.874C51.4716 85.7998 51.201 86.2988 50.6138 86.068C50.2219 85.9092 50.0431 85.1141 49.6378 84.4143C49.5763 84.3176 49.3922 84.3584 49.2411 83.9202C48.8929 82.8111 48.5754 81.5771 48.1895 80.3994C48.0898 80.1505 48.208 80.4161 48.0104 79.8014C47.9875 79.763 47.9339 79.5558 47.8814 79.3426C47.8402 79.1969 47.6813 78.7543 47.6303 78.5672C47.5791 78.3803 47.7261 78.7465 47.694 78.5161C47.6592 78.2833 47.4445 77.7929 47.5223 77.6953ZM88.4909 80.6598C88.3669 80.1881 88.0567 81.8043 88.3681 81.4528C88.3835 81.4337 88.4984 80.6831 88.4909 80.6598ZM102.327 78.6708C102.227 77.9047 101.652 78.8153 101.73 79.4394C101.881 80.0763 102.391 78.9091 102.327 78.6708ZM104.939 77.8663C104.511 77.4223 105.277 79.6273 105.411 79.066C105.419 79.034 104.965 77.8913 104.939 77.8663ZM50.1876 83.966C50.1776 83.9465 50.0603 83.9701 50.0661 83.991C50.1977 84.5008 50.437 84.4515 50.1876 83.966ZM106.349 76.5476C106.163 76.2851 106.158 76.69 106.392 77.0133C106.577 77.2749 106.576 76.876 106.349 76.5476ZM82.498 78.9315C82.4824 78.9124 82.406 78.9375 82.4848 79.0515C82.739 79.4183 82.7584 79.2531 82.498 78.9315ZM109.139 75.559C108.691 75.5987 107.865 73.8356 108.409 73.9004C108.506 73.9126 108.397 74.5448 108.556 74.6788C108.844 74.9235 108.639 73.723 109.025 74.2864C109.093 74.3901 109.166 75.5607 109.139 75.5618C109.139 75.5609 109.139 75.56 109.139 75.559ZM88.6803 78.6907C88.6806 78.6691 88.5793 78.6309 88.5731 78.6514C88.4137 79.1538 88.6472 79.2364 88.6803 78.6907ZM78.493 79.0954C78.504 79.0512 78.3189 78.9331 78.2956 78.9687C77.8512 79.7123 78.2907 79.9795 78.493 79.0954ZM95.2347 76.2002C95.1329 75.6731 95.2166 75.5693 95.5626 76.1375C95.4507 76.1488 95.3488 76.1873 95.2347 76.2002Z" fill="black"/>
<path d="M58.8311 99.0982C58.9739 99.5864 58.8196 100.22 58.6082 100.702C58.5427 100.853 58.2513 100.777 58.1929 100.881C58.0791 101.083 58.2216 101.275 58.086 101.477C58.0396 101.543 57.578 101.459 57.54 101.529C57.3348 101.912 57.4513 102.276 57.3518 102.666C57.074 103.747 56.8947 104.822 56.7507 105.9C56.7476 105.82 56.7422 105.713 56.7208 105.56C56.709 105.479 56.6976 105.408 56.6684 105.279C56.6329 105.126 56.5796 104.939 56.4817 104.713C56.3754 104.479 56.2656 104.255 55.9871 103.916C55.6833 103.547 55.2057 103.177 54.6822 102.974C53.5812 102.579 52.9797 102.775 52.5505 102.884C51.9389 103.091 51.8065 103.247 51.7233 103.301C51.6344 103.372 51.6112 103.402 51.6025 103.417C51.585 103.467 51.7322 103.358 51.8595 103.255C52.1297 103.036 52.4484 102.749 52.7729 102.463C53.262 102.029 54.1251 101.719 54.4807 101.094C54.5223 101.021 54.1987 100.772 54.1857 100.737C53.9947 100.202 54.523 100.832 54.7095 100.798C55.4631 100.648 55.9802 100.201 56.3239 99.6707C56.4684 99.4455 55.7315 99.0291 56.2321 99.1835C56.2662 99.1937 56.5073 99.5564 56.5912 99.542C56.7835 99.5061 56.9524 99.2513 57.0706 99.1924C57.2975 99.0825 57.3236 99.054 57.4974 98.91C57.7407 98.7134 58.1575 98.6417 58.354 98.3545C58.3956 98.2919 58.0418 98.0113 58.084 97.8797C58.1263 97.748 58.3842 97.5884 58.5302 97.6056C58.6755 97.6231 58.8564 97.9223 58.92 97.9734C59.452 98.4074 59.1484 97.4667 59.1728 97.4194C59.5909 96.6048 60.4784 96.6187 61.111 96.1888C61.5929 95.86 62.0284 95.3742 62.5176 95.106C62.6777 95.0185 62.8411 94.9492 63.0051 94.8874C63.4703 94.7075 63.9329 94.587 64.4627 94.3281C64.5414 94.291 64.2437 93.8529 64.3466 93.8041C64.745 93.6213 65.2013 93.4441 65.8681 93.3659C66.4969 93.288 67.5983 93.3526 68.5064 94.035C69.075 94.4656 69.4321 95.027 69.6005 95.4986C69.658 95.6658 69.157 95.7117 69.1818 95.8797C69.3318 96.9385 68.5239 97.8602 70.5517 97.9017C70.5416 98.3201 70.5146 98.7617 70.1565 99.1053C69.9263 99.3273 69.41 99.2106 69.6508 99.4124C69.7046 99.457 70.1261 99.3323 70.174 99.402C70.3741 99.6909 70.2888 100.031 70.5591 100.184C70.6148 100.214 70.9887 100.104 71.0591 100.096C71.2794 100.07 71.2811 100.097 71.1987 100.148C71.0598 100.201 70.7166 100.336 70.6794 100.356C70.4459 100.46 70.3736 100.466 70.2609 100.376C70.1563 100.289 69.952 100.125 69.7663 100.106C69.6811 100.098 69.8622 99.593 69.7533 99.5653C69.4567 99.5076 69.3663 99.5578 69.3989 99.5745C69.431 99.5967 69.567 99.6105 69.7464 99.637C69.8304 99.6477 70.0097 100.06 70.0646 100.083C70.3208 100.166 69.8777 99.4492 70.1119 99.5061C70.1608 99.5169 70.3687 99.8372 70.3982 99.8675C70.8716 100.337 70.395 99.5286 70.4007 99.4982C70.4921 99.0727 71.3014 99.6613 71.4986 99.3011C71.5203 99.2582 71.1236 98.9659 71.2027 98.8683C71.7297 98.2129 72.4679 97.6483 73.3754 97.2635C73.5153 97.204 73.7069 97.5275 73.7452 97.5522C74.347 97.9342 73.7394 97.2162 73.7463 97.1583C73.8161 96.7201 74.6148 97.0227 74.0022 96.0563C74.3038 95.8685 74.5788 95.6436 74.8766 95.3906C75.0232 95.2672 75.1817 95.1294 75.3777 94.9779C75.4874 94.8946 75.5729 94.8293 75.7437 94.7224C75.8936 94.6357 76.097 94.4967 76.5286 94.3922C77.2278 94.1927 78.2221 94.4919 78.6391 94.8644C79.0973 95.23 79.283 95.5475 79.4326 95.8249C79.7079 96.3767 79.7573 96.8199 79.7177 97.2928C79.7169 97.3135 79.3083 97.529 79.3091 97.5703C79.314 98.0601 79.9006 97.6337 80.6754 97.205C80.8535 97.0775 80.1308 97.8525 80.101 97.9309C79.9362 98.1681 79.4318 98.6349 79.4066 98.6871C79.2775 99.1584 80.7325 97.3978 80.629 97.3318C80.6269 97.3349 80.4284 97.702 80.4071 97.7376C80.3962 97.7575 80.3901 97.7698 80.3866 97.7769C80.4046 97.8286 80.4779 97.7614 80.462 97.8846C80.4063 98.2239 80.0883 99.2877 80.5066 98.7491C80.5537 98.6758 80.9109 97.4433 81.0061 97.5302C81.0474 97.5697 81.2728 97.5829 81.3394 97.6671C81.4051 97.7542 81.337 98.1654 81.3395 98.1836C81.5656 98.7389 81.4744 98.9632 81.6612 99.7708C81.8881 100.57 81.7256 98.6464 81.7607 98.4286C81.7926 98.2123 82.0329 98.6393 82.1176 98.7841C82.196 98.931 82.1677 99.2021 82.2329 99.2818C82.6873 99.7916 82.2024 98.3149 82.2344 97.9971C82.2644 97.2499 82.7831 98.5891 83.0729 98.6418C83.1457 98.6572 82.9926 98.3653 83.0347 98.3187C83.1945 98.1399 83.4891 98.5044 83.5626 98.0282C83.5798 97.9485 83.395 97.09 83.7782 97.6052C83.8346 97.679 83.9393 98.0241 84.0618 98.0536C84.2448 98.0985 84.5211 98.0435 84.6044 97.8618C84.665 97.7282 84.2659 97.2778 84.4797 97.368C84.5758 97.4076 84.6371 97.7668 84.8061 97.8147C84.9755 97.863 85.2453 97.6874 85.3437 97.613C85.442 97.5391 85.1525 97.1939 85.1455 97.1631C85.1066 96.9859 85.1844 96.6844 85.2019 96.6737C86.0334 96.0912 87.2196 96.1292 88.0622 95.334C88.1331 95.2712 87.8455 94.895 87.8539 94.8813C88.0477 94.547 88.4343 95.7599 88.8085 96.0337C88.3448 95.2025 88.5252 95.2947 88.7219 95.0974C88.8156 95.0042 88.6232 94.6844 88.6178 94.6457C88.6511 94.0295 89.092 94.6676 89.1501 94.8091C89.357 95.2219 89.479 94.8557 89.6477 94.9324C89.6756 94.9484 89.6988 94.9847 89.7118 95.0525C89.7401 95.425 89.5099 95.9227 89.6562 95.9507C89.7287 95.7949 89.8137 95.4983 89.8736 95.22C89.9376 94.9452 89.9978 94.6839 90.2148 94.6894C90.6231 94.6981 91.0516 94.9848 91.2696 95.2844C91.4991 95.5876 91.5894 95.9053 91.6221 96.1723C91.6861 96.7203 91.5511 97.1471 91.5541 97.3919C91.5504 97.8759 91.6214 98.0162 91.5226 98.2923C91.3373 98.7869 91.9829 98.5613 92.3038 98.8467C92.6223 99.131 90.989 99.0676 90.642 99.1275C90.2947 99.1847 90.6564 99.2127 90.4667 99.2702C90.2769 99.3276 90.0345 99.2335 89.9676 99.3506C89.9009 99.4667 90.5341 99.7602 90.9009 99.7913C91.6782 99.8543 92.4869 99.683 92.2107 100.008C92.1943 100.027 91.7649 99.9804 91.7237 100.051C91.41 100.61 91.3995 101.173 91.1202 101.722C91.0811 101.797 90.6038 101.741 90.5756 101.785C90.2816 102.244 91.0804 102.066 91.978 102.287C90.7905 102.263 90.0677 102.419 90.0717 102.767C90.0739 102.976 90.5907 102.922 90.9605 103.042C91.072 103.078 90.7222 103.238 90.9668 103.254C91.7666 103.307 92.6511 103.135 92.3121 103.493C92.296 103.509 91.8581 103.481 91.8342 103.535C91.6787 103.883 92.5127 103.877 92.6371 104.222C92.6833 104.348 92.6045 104.533 92.5042 104.724C92.378 104.799 92.2333 104.881 92.2044 104.922C90.9712 105.469 91.4904 105.699 92.1468 105.026C92.1497 105.081 92.2277 105.077 92.2816 105.234C92.3024 105.288 92.1438 105.641 92.1332 105.682C92.0294 106.341 92.3844 105.509 92.4112 105.48C92.8003 105.227 93.1436 105.913 93.5644 105.235C93.5811 105.21 93.5551 104.285 93.7016 104.954C93.7136 105 93.5914 105.43 93.8014 105.449C94.0052 105.47 94.4747 105.921 94.7281 105.454C94.7896 105.342 94.8707 104.572 95.1035 105.133C95.1349 105.209 95.1499 105.475 95.2001 105.618C95.362 106.071 95.28 105.136 95.5067 105.907C95.7324 106.679 96.0485 107.234 96.2803 106.651C96.2881 106.634 96.2677 105.888 96.3729 105.888C96.5366 105.888 96.7821 106.021 96.9445 106.013C97.0261 106.01 96.9702 105.549 96.9847 105.541C97.0747 105.501 97.1781 105.481 97.2752 105.479L97.0021 105.522C97.2811 105.323 97.7317 105.409 98.2144 105.241C98.3217 105.204 98.1683 104.529 98.6338 104.79C99.1493 105.072 100.403 106.974 100.485 106.203C100.522 105.89 98.8456 103.546 100.103 104.422C100.409 103.664 101.414 103.784 101.608 102.907C101.617 102.868 101.162 102.2 101.228 102.157C101.325 102.094 101.62 102.333 101.698 102.297C102.029 102.155 102.053 101.707 102.336 101.527C102.442 101.459 102.663 101.78 102.79 101.699C102.917 101.617 102.659 101.166 102.974 101.221C103.124 101.248 103.497 101.537 103.809 101.736L103.663 101.836C103.808 101.99 103.927 102.118 103.994 102.135C103.546 101.211 103.663 101.171 103.794 100.831C103.821 100.765 103.648 100.447 103.655 100.398C103.691 100.189 103.874 100.441 103.909 100.222C103.918 100.169 103.822 99.8309 103.827 99.7679C103.88 99.2134 104.362 99.9224 104.417 100.054C104.674 100.54 104.682 100.08 104.838 100.27C104.984 100.462 104.826 100.736 104.976 100.847C105.275 101.078 105.623 101.018 105.916 101.041C106.032 101.048 105.965 100.578 105.982 100.568C106.236 100.456 106.457 100.966 106.647 100.042C106.682 102.462 106.811 99.8162 107.139 100.322C107.165 100.363 107.125 101.504 107.007 101.664C106.891 101.824 106.754 101.458 106.595 101.711C106.555 101.77 106.309 102.828 106.284 102.892C106.07 103.389 106.111 101.684 106.101 101.59C106.01 100.574 105.741 101.722 105.692 101.802C105.432 102.166 105.22 101.935 105.06 102.212C104.958 102.392 105.098 103.501 105.046 103.474C104.96 103.431 104.826 103.033 104.698 102.824C104.58 102.613 104.461 102.598 104.647 103.253C104.723 103.534 105.26 104.63 104.788 103.792C104.772 103.765 104.64 103.548 104.534 103.427L104.982 103.119C104.833 103.055 104.729 103.06 104.856 103.302C104.889 103.366 105.121 103.636 105.124 103.672C105.144 103.91 104.888 103.756 104.861 103.959C104.833 104.162 104.828 104.435 104.616 104.46C104.49 104.474 103.949 104.066 103.803 103.978C103.387 103.722 103.775 104.401 103.334 104.036C102.888 103.67 102.451 102.903 102.025 102.788C102.632 103.486 103.246 104.21 103.852 104.916C103.441 105.236 102.853 105.361 102.478 105.75C102.431 105.8 102.813 106.125 102.772 106.188C102.597 106.449 102.16 106.363 102.007 106.683C101.89 106.933 102.02 107.516 101.888 107.801C101.075 107.103 100.987 107.644 100.668 107.771C100.557 107.816 100.39 107.587 100.269 107.564C99.8179 107.48 100.497 108.137 100.513 108.309C100.557 109.056 99.3016 107.357 98.9507 107.645C98.942 107.655 99.2225 108.802 99.1899 108.899C99.0802 109.479 98.951 108.583 98.7127 108.613C98.6036 108.626 98.4895 108.631 98.3824 108.633C98.0606 108.73 97.2456 108.941 96.9187 108.864C97.0692 108.751 97.0066 108.65 96.9308 108.906C96.8974 109.007 96.8662 109.715 96.686 109.189C96.6624 109.121 96.626 108.749 96.6106 108.729C96.3192 108.399 96.4606 109.563 96.3696 109.977C96.2746 110.391 95.8997 109.628 95.8132 109.405C95.5884 108.827 95.8828 109.134 95.8819 109.075C95.8687 108.365 95.7002 108.512 95.543 108.474C95.3604 107.34 95.168 107.436 95.381 108.439C95.4054 108.548 95.5054 108.426 95.543 108.474C95.5736 109.608 95.3424 109.786 94.9418 108.774C94.7561 108.298 94.8113 107.714 94.4564 107.964C94.2921 108.075 94.4356 108.856 94.2872 109.086C93.9351 109.61 93.3558 108.9 92.8897 108.993C92.7131 109.027 92.8633 109.468 92.7358 109.505C92.3757 109.6 92.099 109.245 91.6517 109.32C91.6088 109.326 91.612 109.791 91.4695 109.765C90.4236 109.591 88.9133 108.629 88.1085 106.925C87.8613 106.433 87.5766 105.752 87.4712 105.177C87.4212 105.03 87.3861 104.887 87.3964 104.773C87.4403 104.245 88.0693 103.606 87.8941 103.201C87.7817 102.935 87.331 103.01 87.0184 102.904C86.4123 102.697 87.4741 102.276 87.639 102.222C87.6445 102.22 87.7572 102.444 87.9867 102.317C88.4696 102.234 87.6412 102.224 87.639 102.222C87.7452 102.184 87.8378 101.732 87.7495 101.647C87.7011 101.6 87.2722 101.636 87.2551 101.611C86.8581 101.023 86.7386 100.449 86.9206 99.8891C86.929 99.879 87.4097 99.8775 87.4233 99.8539C87.6255 99.5244 87.0289 99.3427 86.6669 99.1253C86.3044 98.9025 86.408 98.7354 87.2173 98.5294C87.0987 98.3701 87.4357 98.1197 87.6355 97.9669C87.8356 97.8161 86.9117 97.9686 86.8926 97.9658C86.5815 97.9091 86.5569 97.886 86.6322 97.8908C86.7221 97.9099 86.8403 97.9092 87.1448 98.279C87.2503 98.3951 87.4101 98.6226 87.7716 98.9046C88.1188 99.1847 88.7053 99.4465 89.1895 99.519C89.891 99.6057 90.143 99.5336 90.3089 99.5328C90.6431 99.5162 90.5229 99.3062 90.5717 99.4438C90.5766 99.4624 90.7726 99.8298 90.779 99.8445C90.9873 100.298 90.5092 99.3995 90.4099 99.2467C90.0259 98.7043 89.7742 98.442 89.7573 98.8206C89.7532 98.9074 90.423 100.22 90.3965 100.34C90.3533 100.499 90.1021 100.035 90.056 100.219C90.0518 100.235 90.2354 100.502 90.1552 100.539C89.78 100.716 89.2533 100.85 88.8406 101.16C88.7836 101.202 89.1421 101.581 89.063 101.649C88.69 101.967 88.1916 102.258 87.6105 102.315C87.4665 102.328 87.3588 101.974 87.2812 101.896C86.8163 101.417 87.0603 102.355 87.0279 102.393C86.3295 103.273 85.2432 102.859 84.1653 103.596C84.1233 103.636 83.7866 104.763 83.3387 103.966C83.3017 103.915 82.9136 103.09 82.7789 103.719C82.7678 103.759 83.0049 104.186 82.7002 104.181C82.4075 104.174 81.898 104.521 81.4491 104.017C81.2947 103.858 81.0517 102.976 80.5831 103.631C80.5898 103.689 79.599 105.15 79.5615 104.009C79.5582 103.82 79.8706 102.714 79.2438 103.155C79.1172 103.237 79.2179 103.539 78.9142 103.614C78.4552 103.715 78.0901 103.285 77.4658 103.42C77.4079 103.416 77.3493 103.414 77.2898 103.413C77.1141 103.432 76.002 103.661 76.0055 102.867C76.0105 102.748 76.3604 102.54 76.2143 102.354C75.5524 101.475 74.9592 101.008 74.8869 100.405C74.8684 100.197 75.4489 99.945 75.5037 99.7121C75.5582 99.4782 75.555 99.1498 75.2483 99.1916C74.9425 99.2358 74.1383 99.8372 73.9953 99.7518C73.8078 99.6492 73.7138 99.6118 74.0937 99.972C74.2957 100.145 74.6649 100.477 75.4296 100.771C76.1787 101.078 77.3195 101.107 77.9869 100.884C78.7069 100.692 79 100.469 79.1245 100.383C79.2741 100.273 79.328 100.209 79.3537 100.17C79.4062 100.089 79.361 100.088 79.3124 100.114C79.2626 100.141 79.5417 100.37 79.4737 100.442C79.2048 100.72 78.579 101.863 77.591 101.792C76.798 101.736 76.9154 100.951 76.4656 101.059C76.2493 101.112 76.9328 102.071 76.9244 102.132C76.8623 102.722 76.2642 102.592 76.0582 103.008C76.0143 103.095 76.4047 103.373 76.363 103.444C76.222 103.691 75.8656 103.735 75.6879 103.946C75.6089 104.042 75.8652 104.295 75.7596 104.351C75.5051 104.492 75.2162 104.54 74.7764 104.463C74.7376 104.455 74.5897 104 74.4137 104.121C74.1273 104.319 73.5822 104.319 73.379 104.863C73.3218 105.023 73.7528 105.726 73.1603 105.421C73.0305 105.359 72.6391 104.453 72.6953 105.395C72.6965 105.474 72.6696 105.857 72.5075 106.166C72.3495 106.476 71.9954 106.725 71.6327 106.451C71.4208 106.316 70.8679 105.639 70.5797 105.817C70.5309 105.845 70.8214 106.244 70.5055 106.34C69.4843 106.718 67.2218 106.348 65.8832 105.206C65.5419 104.937 65.7049 105.731 65.1933 105.283C64.1358 104.277 63.8029 103.28 63.6426 102.528C63.6033 102.301 63.586 102.098 63.5811 101.919C63.5778 101.679 63.9838 101.749 64.0194 101.722C64.6124 101.324 63.7068 101.392 63.6382 101.319C63.2364 100.903 63.6139 100.533 63.458 100.225C63.4164 100.141 62.9982 100.261 62.9577 100.248C62.5617 100.117 63.3461 100.149 63.416 100.027C63.6153 99.6892 63.5445 99.4028 63.4589 99.2026C63.427 99.1308 62.9457 99.2877 62.9232 99.2257C62.8004 98.8728 62.716 98.7233 63.2499 99.1938C63.3608 99.2835 63.6527 99.018 63.7416 98.9967C64.0472 98.9108 64.051 99.0206 64.0181 99.2112C63.981 99.3975 63.9124 99.6613 63.9247 99.7306C63.9878 100.098 64.2187 100.244 64.4484 100.337C64.6751 100.442 64.9233 100.526 65.2127 100.663C66.0164 101.037 66.6606 101.021 66.9378 101.004C67.2328 100.98 67.2933 100.944 67.2817 100.94C67.244 100.926 66.9299 100.994 66.6397 101.088C66.5744 101.112 66.5107 101.135 66.4488 101.159C65.4729 101.535 64.5834 101.69 63.8216 102.364C63.7733 102.407 64.1284 102.781 64.0913 102.822C63.6012 103.337 62.9332 103.612 62.4858 104.184C62.4482 104.23 62.8259 104.546 62.7771 104.632C62.6783 104.813 62.4879 104.943 62.2374 104.958C62.1171 104.965 61.9368 104.569 61.8207 104.583C61.5504 104.614 61.3469 104.751 61.2296 104.965C61.1813 105.057 61.6252 105.321 61.5372 105.411C60.9419 106.03 60.406 106.685 59.3164 106.902C59.241 106.918 58.4684 106.268 58.5172 106.499C58.7143 106.697 58.9548 106.922 59.1701 107.129C58.8519 107.563 58.4874 107.94 58.0388 108.359C57.8095 108.572 57.5785 108.782 57.2081 109.102C57.1071 109.189 57.0142 109.268 56.8544 109.398C56.7105 109.512 56.516 109.675 56.1462 109.91C55.9557 110.028 55.6054 110.245 55.0699 110.433C54.4334 110.611 52.8905 111.223 50.7567 109.836C50.3125 109.523 49.9321 109.116 49.6964 108.789C49.4958 108.515 49.3468 108.249 49.2332 108.007C49.0093 107.531 48.9068 107.092 48.8623 106.846C48.7854 106.411 48.781 106.107 48.7844 105.856C48.8142 105.567 48.8385 105.281 48.8508 104.993C48.8532 104.932 48.3187 105.034 48.3207 104.917C48.332 104.239 48.1869 103.579 48.7203 102.888C48.7724 102.819 49.7118 102.857 49.5704 102.655C49.5446 102.619 49.4204 102.313 49.2167 102.233C49.186 102.222 48.7473 102.276 48.7348 102.177C48.6701 101.605 48.7718 101.007 49.0409 100.435C49.0852 100.343 49.5519 100.441 49.5875 100.377C49.8364 99.9093 49.4822 99.4047 49.9066 98.9599C50.1923 98.6599 50.9994 98.775 51.7941 98.6141C51.9062 98.5929 51.924 98.4065 52.3863 98.3977C53.5488 98.3735 54.8217 98.4628 56.0608 98.4273C56.3277 98.4162 56.0403 98.1747 56.6852 98.3172C56.7284 98.3302 56.9424 98.5109 57.1612 98.5529C57.3124 98.585 57.7826 98.5269 57.9762 98.5934C58.1696 98.6535 57.7755 98.7228 58.0029 98.8309C58.2331 98.9311 58.768 98.8918 58.8311 99.0982ZM88.5062 97.3126C88.9079 97.0944 87.3582 97.6488 87.7381 97.5446C87.7585 97.5394 88.4861 97.3225 88.5062 97.3126ZM102.028 104.434C101.383 104.037 101.984 104.931 102.47 105.248C102.956 105.565 102.223 104.554 102.028 104.434ZM103.334 102.573C102.77 102.305 104.275 104.088 104.163 103.56C104.157 103.53 103.367 102.589 103.334 102.573ZM52.0196 99.3496C52.0415 99.3484 52.0629 99.2142 52.0413 99.2111C51.5189 99.1395 51.4764 99.406 52.0196 99.3496ZM104.574 101.246C104.443 100.948 104.331 101.349 104.504 101.712C104.626 102.005 104.719 101.618 104.574 101.246ZM83.3337 99.4012C83.3233 99.379 83.2237 99.3884 83.2677 99.5197C83.41 99.943 83.5094 99.7774 83.3337 99.4012ZM108.17 101.271C107.62 101.146 107.419 99.1997 108.007 99.4586C108.113 99.5054 107.731 100.055 107.856 100.238C108.09 100.572 108.338 99.3762 108.555 100.04C108.594 100.162 108.203 101.283 108.169 101.274C108.169 101.273 108.17 101.272 108.17 101.271ZM90.367 96.6454C90.3871 96.6347 90.3614 96.503 90.3398 96.5089C89.8331 96.6437 89.8677 96.8604 90.367 96.6454ZM79.1636 97.2423C79.2007 97.2144 79.0851 96.9284 79.0416 96.9389C78.2236 97.231 78.4573 97.8126 79.1636 97.2423ZM92.1729 104.939C92.6602 104.723 92.6003 104.537 92.1472 105.026C92.1558 104.985 92.1538 104.972 92.1729 104.939Z" fill="black"/>
</svg>
