<svg width="150" height="150" viewBox="0 0 150 150" fill="none" xmlns="http://www.w3.org/2000/svg">
<path d="M87.4662 29.5487C86.9098 30.3613 85.9307 31.1856 85.1155 31.7479C84.8521 31.9336 84.7501 31.6161 84.5678 31.7255C84.2116 31.9397 84.0483 32.3224 83.6782 32.519C83.5519 32.5859 83.331 32.1467 83.2059 32.2245C82.5308 32.6446 82.1288 33.2429 81.5135 33.7521C78.5441 36.1937 75.8365 38.7943 73.0247 41.445C72.0953 42.3219 70.7285 43.1495 69.9512 44.2309C69.863 44.3551 70.2185 44.5697 70.2229 44.6135C70.2813 45.2935 69.7925 44.6203 69.5082 44.761C68.3545 45.3492 67.4591 46.234 66.7536 47.1999C66.4758 47.5891 67.3867 47.8008 66.7291 47.8353C66.684 47.8383 66.4562 47.4535 66.3326 47.5165C66.0535 47.6594 65.7145 48.126 65.5262 48.2739C65.1622 48.5568 65.1126 48.615 64.8063 48.9287C64.4075 49.3312 63.7783 49.6801 63.4114 50.2053C63.334 50.3183 63.7768 50.4936 63.682 50.7016C63.5885 50.9079 63.1559 51.3065 62.9594 51.3615C62.7556 51.4242 62.5596 51.1273 62.4793 51.0962C61.8075 50.828 62.0316 51.9386 61.9896 52.0158C61.7238 52.4883 61.3921 52.8728 61.028 53.2189C60.3445 53.8676 59.5552 54.3583 58.8962 55.0382C58.1326 55.8281 57.4323 56.7898 56.6925 57.5086C56.3018 57.8877 55.9051 58.2138 55.5496 58.5135C55.3731 58.6622 55.2017 58.811 55.0807 58.9247C54.9582 59.0098 54.9087 59.202 55.0777 58.7315C55.1044 58.6325 55.1246 58.4892 55.1164 58.3449C55.103 58.2049 55.6459 58.321 55.6142 58.1034C55.4643 57.5006 55.3548 57.5655 55.4944 57.6704C55.6128 57.7873 55.8557 57.9913 56.1089 58.195C56.6362 58.6181 57.2653 59.1107 57.8632 59.663C57.9879 59.7769 57.5752 60.0636 57.6851 60.2003C58.3487 61.0192 59.2822 62.5884 60.8034 61.1806C61.3551 61.5905 62.0526 62.0946 62.367 62.7499C62.5772 63.1764 61.9865 63.3999 62.52 63.4746C62.64 63.492 62.7433 63.0465 62.9019 63.0983C63.5754 63.3205 64.1506 63.8422 64.8619 64.0261C65.0039 64.0606 65.1803 63.7115 65.2512 63.6734C65.8353 63.3706 65.8153 64.4736 65.8749 64.5937C66.3715 65.5211 67.0417 65.7256 67.7558 66.2248C67.9174 66.3384 68.018 65.7742 68.1848 65.8687C69.0552 66.3705 69.8932 67.0141 70.5432 67.7706C70.6889 67.9413 70.2652 68.1847 70.3213 68.2846C70.5699 68.7203 71.1567 68.107 71.3972 68.5102C71.4492 68.5949 71.1807 68.8707 71.1693 68.9144C70.9881 69.5982 71.7282 68.988 71.7961 69.013C72.6639 69.3117 72.5021 70.4122 73.2413 70.8124C73.3294 70.859 73.4511 70.3418 73.6815 70.4967C73.9933 70.706 74.3047 70.9312 74.6141 71.1712C75.787 72.08 76.8797 73.1273 77.8287 74.252C78.0121 74.4692 77.6333 74.6344 77.6198 74.6804C77.4172 75.4068 78.1419 74.784 78.2342 74.8107C78.9586 75.049 79.0179 76.0811 80.0819 75.4892C82.1607 77.5068 85.0075 78.9935 86.6665 80.8342C86.6367 80.855 86.6072 80.8822 86.5956 80.9157C86.5967 80.9273 86.5403 81.3853 86.564 81.4081C86.7588 81.5431 86.9209 81.3482 86.8865 81.0824C86.8569 80.8131 86.7345 80.4289 86.6225 79.9771C86.5498 79.7669 87.4694 80.3875 87.5656 80.4046C87.8492 80.538 88.1922 81.1469 88.2622 81.1597C88.8679 81.2046 87.2823 79.5853 87.6236 79.2462C87.6379 79.2371 87.8858 79.5798 87.9463 79.5777C88.1337 79.5737 88.1037 79.3659 88.302 79.365C88.7578 79.3641 89.6546 80.018 89.5055 79.216C89.4842 79.113 88.4505 78.3455 88.814 78.0137C88.9546 77.8907 89.489 77.2095 89.7094 77.0669C89.9312 76.9248 90.146 77.3184 90.171 77.316C91.0111 77.1456 91.0322 77.4815 91.8798 77.7197C92.7236 77.9566 91.1527 76.8347 91.0684 76.5944C90.9835 76.3561 91.648 76.2423 91.8435 76.2474C92.0415 76.2496 92.1561 76.5303 92.2924 76.5007C93.1932 76.2927 91.7337 75.6618 91.6381 75.2871C91.4033 74.4105 92.802 74.941 93.2249 74.6267C93.3403 74.5403 93.0137 74.4296 93.0662 74.3129C93.2734 73.8585 93.807 73.9002 93.827 73.2131C93.8291 73.1025 93.4351 72.2136 94.1113 72.3762C94.208 72.4007 94.4151 72.7128 94.6058 72.6009C94.8903 72.4348 95.3052 72.0399 95.419 71.709C95.5052 71.4616 94.8702 71.3139 95.2082 71.1854C95.359 71.1284 95.4641 71.5446 95.7249 71.4199C95.9867 71.2934 96.3858 70.7806 96.5399 70.5756C96.6912 70.3731 96.2596 70.1966 96.2496 70.1616C96.1938 69.9588 96.3373 69.4501 96.3659 69.4171C97.7171 67.7151 99.5894 66.7283 100.858 65.038C100.958 64.9063 100.543 64.6607 100.555 64.6373C100.806 64.0925 101.397 65.2788 101.968 65.2885C101.245 64.666 101.529 64.6192 101.735 64.2609C101.833 64.0892 101.497 63.9039 101.483 63.865C101.285 63.2677 101.94 63.6365 102.08 63.7059C102.598 63.9588 102.291 63.3574 102.638 63.5261C102.918 63.6621 103.08 64.0737 103.272 64.0812C103.318 64.083 103.365 64.0626 103.415 64.0116C103.254 63.6923 102.426 63.254 102.536 62.9452C102.953 61.7625 104.994 60.9065 105.722 60.4198C106.451 59.922 106.639 59.699 107.118 59.4833C107.985 59.0977 107.315 58.7794 107.586 58.1925C107.856 57.6076 108.618 59.0718 108.895 59.301C109.17 59.5312 109.024 59.1901 109.219 59.2836C109.414 59.3765 109.386 59.697 109.618 59.6107C109.849 59.5264 109.985 58.6309 109.812 58.2969C109.452 57.5887 108.744 57.1263 109.334 56.9979C109.368 56.9906 109.577 57.3773 109.693 57.3318C109.909 57.2436 110.112 57.1262 110.231 57.0447L110.275 57.9989C109.865 57.2658 109.35 56.5755 108.972 55.8069C108.906 55.6694 109.35 55.4544 109.316 55.3707C108.951 54.4944 108.554 55.2589 107.564 55.4847C108.524 54.7801 108.892 54.0996 108.438 53.578C108.164 53.2635 107.828 53.6656 107.379 53.7103C107.244 53.7245 107.315 53.2704 107.098 53.3933C106.389 53.795 105.906 54.5925 105.701 53.8318C105.693 53.7977 106.083 53.5791 106.032 53.4827C105.703 52.8579 105.021 53.3459 104.451 52.8657C104.001 52.4853 103.681 51.3763 103.292 50.826C104.288 49.9383 103.638 49.6794 102.787 50.1109C102.522 49.765 102.17 49.4573 101.981 49.063C101.916 48.9276 102.264 48.7364 102.283 48.6948C102.577 48.0471 101.79 48.5129 101.701 48.4681C100.767 47.9543 100.706 46.8877 99.5646 46.6276C99.5238 46.6186 98.8051 47.2062 99.1271 46.5575C99.1501 46.5136 99.6763 46.462 99.392 46.1061C99.1089 45.7513 98.8895 44.7822 98.1477 44.6131C97.9687 44.5719 97.1524 44.7976 97.3734 44.1713C97.4039 44.0868 97.6295 43.9393 97.6975 43.7951C97.9124 43.3337 97.1541 43.8934 97.5846 43.1874C98.0132 42.4793 98.1272 41.7258 97.2952 41.6362C97.2696 41.632 96.6218 42.0254 96.4937 41.8701C96.2887 41.6206 96.0985 41.1883 95.8655 40.9444C95.7541 40.8282 95.4863 41.2173 95.4612 41.2026C94.5399 40.5896 94.3269 39.7563 93.6693 38.7847C93.5536 38.6104 92.6759 38.5881 92.7644 37.9521C92.8605 37.2548 94.8382 36.0605 93.7381 35.6647C93.3051 35.5137 90.8265 37.0616 91.4215 35.5111C90.1704 34.6939 89.8198 33.184 88.479 32.4658C88.4195 32.4339 87.6729 32.799 87.5813 32.678C87.4491 32.5002 87.6449 32.1546 87.5551 32.0127C87.3518 31.6707 86.9971 31.3977 86.71 31.144C86.5237 30.9792 86.3377 30.8007 86.1979 30.5921C86.0556 30.3823 86.4172 30.2153 86.2472 29.9655C86.0801 29.7203 85.5554 29.8794 85.4974 29.4132C85.4543 29.0594 86.0722 28.1652 85.908 27.7715C85.101 28.4089 84.9416 28.1787 84.4179 27.9713C84.3167 27.9316 84.1061 28.2383 84.044 28.2313C83.7844 28.2069 83.9076 27.8914 83.641 27.8856C83.5771 27.8843 83.3068 28.1084 83.2396 28.1204C82.6582 28.2311 82.9518 27.3564 83.0026 27.2044C83.1941 26.6243 82.7511 26.8096 82.7473 26.4908C82.7435 26.1724 83.1756 26.2784 83.084 25.9824C82.8911 25.366 82.3419 24.8323 81.9488 24.376C81.7899 24.195 81.5539 24.6321 81.5231 24.6135C81.1045 24.3298 81.1254 23.6207 80.2585 24.0616C81.7799 22.1569 79.8854 24.0044 79.7501 23.1662C79.7401 23.0995 80.5109 22.2542 80.7819 22.294C81.0529 22.3341 81.0208 22.8173 81.4171 22.8573C81.5098 22.8659 82.5716 22.4354 82.6583 22.434C83.3307 22.4143 82.1177 23.6168 82.0636 23.6961C81.4931 24.5692 82.6769 24.1601 82.8257 24.2071C83.4993 24.4112 83.6573 24.9544 84.183 25.1632C84.5271 25.3037 85.3929 24.5971 85.5392 24.8205C86.0208 25.5596 85.0124 26.7839 86.5715 26.5494C86.9055 26.5021 87.7397 25.5919 87.3948 26.6881C87.3722 26.756 86.9832 27.6708 87.583 27.5304C87.6585 27.5126 87.9353 27.2887 87.9862 27.3044C88.3257 27.4185 88.2268 27.7491 88.5351 27.9189C88.8421 28.0872 89.2424 28.268 89.3741 28.6313C89.4117 28.7359 89.3524 28.9415 89.2692 29.1403C89.2712 29.1432 89.2781 29.1514 89.2802 29.1544C89.1633 29.3309 89.0471 29.5329 89.0118 29.6224C88.8091 30.1159 89.6026 29.8653 89.2717 30.3493C88.9556 30.8546 88.0646 31.1453 88.1051 31.7547C88.8158 31.1628 89.56 30.5723 90.2806 29.9838C90.9117 30.7573 91.386 31.7271 92.127 32.4801C92.2171 32.57 92.4967 32.1388 92.603 32.2269C93.0579 32.6083 93.1407 33.223 93.6698 33.5898C94.0633 33.8535 94.8212 33.899 95.2465 34.164C94.6762 35.106 95.4418 35.4048 95.7385 35.8674C95.8433 36.0297 95.6288 36.214 95.6521 36.3747C95.7419 36.9733 96.2687 36.1661 96.4701 36.167C97.3345 36.1756 95.8225 37.6576 96.3348 38.1329C96.3612 38.1584 97.4994 37.7264 97.5944 37.7255C98.2013 37.706 97.3518 38.0413 97.4592 38.2796C97.6539 38.7133 97.6777 39.135 98.2808 39.2991C98.4578 39.3459 99.227 39.141 99.0357 39.7345C99.0108 39.8123 98.7224 40.0497 98.7283 40.0882C98.8567 40.7618 99.724 39.974 100.241 39.948C100.758 39.9224 100.514 40.8487 100.413 41.0828C100.156 41.6924 100.083 41.1051 100.029 41.1347C99.3955 41.4869 99.737 41.6768 99.8875 41.9268C99.0727 42.7378 99.3951 42.9843 100.047 42.183C100.118 42.0949 99.8879 42.0045 99.8875 41.9268C100.884 41.3441 101.291 41.5712 100.846 42.6407C100.638 43.1426 100.069 43.3753 100.693 43.7394C100.976 43.9055 101.474 43.279 101.819 43.3354C102.609 43.4646 102.624 44.569 103.15 44.9689C103.341 45.1143 103.504 44.6515 103.645 44.7408C104.022 44.9769 104.039 45.4754 104.453 45.68C104.491 45.6982 104.761 45.3214 104.855 45.4162C105.582 46.1296 105.967 46.9804 106.674 47.7689C107.02 48.1538 107.818 48.6608 108.141 49.093C108.695 49.8307 108.966 51.1178 109.612 51.602C110.031 51.9168 110.291 51.5278 110.671 51.4904C111.408 51.4177 111.099 52.686 111.045 52.8765C111.041 52.8807 110.669 52.6211 110.65 52.9511C110.377 53.3744 111.04 52.8744 111.045 52.8765C111.012 53.0004 111.518 53.7323 111.698 53.8071C111.798 53.8492 112.086 53.5254 112.132 53.5527C112.783 53.9447 113.361 54.4103 113.846 54.9408C114.865 56.297 115.134 58.4458 114.067 59.764C113.185 60.9338 112.756 61.1071 112.249 61.4467C112.224 61.4552 111.952 61.0578 111.899 61.0818C111.154 61.4008 111.162 62.1235 110.922 62.7457C110.684 63.3638 110.281 63.5265 109.522 63.0724C109.264 63.4044 108.586 63.4795 108.187 63.5205C107.785 63.5634 108.35 64.3116 108.339 64.3444C108.032 65.3729 107.301 65.3001 106.563 65.867C106.348 66.0328 106.068 66.3536 105.822 66.6776C105.658 66.8913 105.51 67.1024 105.403 67.2661C105.189 67.5977 104.867 67.6126 104.718 67.9681C104.697 68.0159 105.03 68.2705 105.032 68.2923C105.114 68.9237 104.514 68.0802 104.326 68.0136C103.643 67.7705 103.252 67.6693 103.123 68.2614C103.091 68.3989 103.931 69.6486 103.848 69.865C103.739 70.1448 103.423 69.7122 103.319 70.015C103.31 70.0405 103.553 70.2547 103.422 70.3784C102.811 70.9602 102.063 71.5273 101.515 72.2205C101.439 72.3145 101.93 72.5304 101.827 72.6712C101.351 73.3251 100.76 74.0072 100.069 74.4753C99.8984 74.5888 99.6965 74.2665 99.5867 74.2321C98.9161 74.0318 99.4098 74.9166 99.386 74.9749C98.8144 76.4071 97.4444 76.7804 96.814 78.2476C96.778 78.3324 97.1753 79.4615 96.3119 79.1632C96.2538 79.1442 95.3774 78.8303 95.6964 79.4028C95.7164 79.4386 96.1853 79.5782 95.9554 79.796C95.7164 80.0255 95.6426 80.61 94.9664 80.6549C94.7549 80.6671 93.8613 80.373 94.1346 81.1492C94.1634 81.1927 94.9446 82.7434 93.9469 82.2231C93.7828 82.1366 92.9291 81.3535 93.0294 82.1478C93.0491 82.3008 93.3676 82.3296 93.3103 82.6408C93.211 83.1318 92.5952 83.3512 92.5473 84.1334C92.535 84.2762 92.7644 85.1611 92.028 85.0189C91.9166 84.9929 91.7494 84.6235 91.5589 84.7345C90.5824 85.1643 90.0123 86.5825 86.7325 86.6593C85.5736 86.5226 86.1897 85.9749 85.1618 85.5541C85.0639 85.5061 84.958 85.4517 84.8476 85.3906C84.2717 84.9965 83.9023 84.6415 83.5011 84.7087C83.0788 84.7895 82.8633 85.8266 82.4008 85.6372C80.4503 84.8212 79.3774 83.3072 77.9646 82.1654C77.7556 81.9951 77.724 82.4161 77.4036 82.1871C76.2202 81.3461 74.0432 80.1003 73.5312 78.7368C73.1219 77.6468 74.393 78.0515 73.9458 77.3887C73.7322 77.0722 72.7058 77.7415 72.6117 77.714C71.7081 77.4757 71.5493 76.6942 70.8499 76.3392C70.7036 76.2645 70.5343 76.7309 70.4127 76.663C70.3717 76.6406 70.3323 76.6158 70.2941 76.589C69.959 76.356 69.7369 75.9679 69.4194 75.7645C69.2606 75.664 69.0693 75.9703 68.949 75.842C68.6543 75.5352 68.4555 75.193 68.3397 74.683C68.3289 74.6364 68.7955 74.4291 68.5624 74.232C68.1738 73.9062 67.8774 73.2717 67.2074 73.2075C67.0069 73.1891 66.5191 73.8489 66.5559 73.176C66.5638 73.0358 67.2172 72.2909 66.3773 72.7367C66.2411 72.8127 64.9839 73.3283 65.1296 72.5276C65.1671 72.3159 65.4363 71.5202 65.1905 71.5045C65.1559 71.5052 64.9975 71.9317 64.8322 71.8698C64.259 71.6491 63.7647 71.2577 63.1818 71.0367C63.0268 70.9793 62.9739 71.4916 62.752 71.3946C62.1252 71.1179 61.4912 70.5703 61.0196 70.104C60.846 69.9311 61.1873 69.6995 61.1951 69.6558C61.3059 68.9348 60.6834 69.611 60.5765 69.6064C59.925 69.572 59.7532 68.9694 59.2389 68.7895C59.0935 68.7366 58.9632 69.1609 58.9175 69.1781C58.458 69.3393 59.0549 68.796 58.9308 68.6219C58.5928 68.1373 58.0439 67.8528 57.5293 67.616C57.3407 67.53 57.2887 68.0778 57.1231 67.9962C56.1387 67.5211 55.1649 66.9128 54.3234 66.1059C54.1684 65.9547 54.4756 65.6886 54.4815 65.5904C54.5163 64.9 53.7098 65.3964 53.5653 65.4027C52.957 65.4627 52.9524 65.0618 52.5256 64.8662C51.906 64.5703 51.2456 64.219 50.3441 63.4433C49.8917 63.0306 49.335 62.5291 48.7295 61.467C48.1003 60.479 47.6689 58.3062 48.1856 56.8046C48.7321 55.1584 49.2048 54.851 49.4696 54.4797C49.7572 54.147 49.9622 53.9483 50.16 53.7561C50.5438 53.3888 50.8701 53.1035 51.1741 52.8339C53.014 51.2162 54.5368 50.1859 56.0464 48.469C56.0487 48.4665 56.0507 48.4638 56.0523 48.4611C56.1242 48.3457 55.6737 48.1103 55.7528 48.0116C56.8118 46.7256 58.0385 45.7313 59.059 44.449C59.1418 44.3461 58.6602 44.1482 58.7811 43.972C59.02 43.6151 59.4335 43.2202 59.8558 43.0021C60.0607 42.8955 60.1592 43.3948 60.3592 43.2818C60.8253 43.0195 61.2222 42.6537 61.5157 42.2334C61.6446 42.0489 61.0507 41.9529 61.2509 41.7349C62.5977 40.2522 63.829 38.8369 65.6851 37.8191C65.8103 37.7515 66.6224 38.3602 66.6781 38.0214C66.4903 37.8131 66.2511 37.587 66.041 37.3741C67.8933 35.195 70.0974 33.3834 72.1134 31.3345C72.1976 31.2488 71.6674 31.0319 71.828 30.8645C72.7659 29.8862 73.5524 28.8397 74.8946 28.191C75.0257 28.1277 75.6586 28.8259 75.8299 28.4373C75.8646 28.3628 76.1961 27.8286 76.1495 27.5807C76.1412 27.5446 75.7485 27.3219 75.8692 27.1752C76.6084 26.2935 77.4981 25.4931 78.4646 24.8524C78.618 24.753 78.8261 25.2141 78.944 25.1399C79.763 24.6272 80.18 23.6591 81.0928 23.2957C81.7001 23.0586 82.149 23.7622 82.9444 24.0714C83.0583 24.1131 83.3183 23.8564 83.6735 24.1533C84.5612 24.9054 85.3767 25.899 86.3386 26.6835C86.556 26.8405 86.6153 26.3557 86.931 26.9625C86.9599 26.9942 86.8838 27.393 86.9806 27.6111C87.0521 27.7568 87.4712 27.9956 87.5306 28.2172C87.5816 28.4475 87.1996 28.2807 87.2275 28.5861C87.2496 28.9018 87.7152 29.1863 87.4662 29.5487ZM106.392 63.7417C105.857 63.6128 106.913 64.875 106.904 64.3595C106.902 64.3332 106.418 63.7477 106.392 63.7417ZM90.4643 32.5552C90.2124 33.3586 91.1938 32.8519 91.4097 32.256C91.6316 31.6674 90.5378 32.3084 90.4643 32.5552ZM87.2472 29.5903C87.1092 30.3397 88.993 28.9616 88.2866 28.8266C88.2454 28.8174 87.2554 29.5471 87.2472 29.5903ZM82.1208 25.2962C82.1375 25.3104 82.3347 25.1291 82.3239 25.1088C82.0367 24.6501 81.6452 25.0103 82.1208 25.2962ZM83.9906 26.5131C83.8533 26.8383 84.4221 26.9478 84.596 26.5454C84.7366 26.222 84.1616 26.1083 83.9906 26.5131ZM93.8665 75.1097C93.8439 75.0989 93.7092 75.2356 93.8209 75.3177C94.1806 75.5822 94.2448 75.2952 93.8665 75.1097ZM78.8328 20.9992C79.576 21.8507 78.6603 23.6721 77.9792 22.6806C77.8538 22.5004 78.7419 22.5729 78.6701 22.2561C78.5316 21.6716 77.4496 22.3055 77.5299 21.484C77.5436 21.3321 78.7919 20.9453 78.8361 20.9987C78.835 20.9989 78.8339 20.999 78.8328 20.9992ZM104.95 62.378C104.93 62.3667 104.721 62.5242 104.73 62.545C104.972 63.0281 105.391 62.713 104.95 62.378ZM86.1832 81.2098C86.1922 81.1674 85.7223 80.8506 85.6864 80.8755C84.9698 81.4509 86.0061 82.1421 86.1832 81.2098ZM103.311 50.7943C102.73 50.9372 102.454 50.7262 102.787 50.1123C102.953 50.3466 103.143 50.5617 103.311 50.7943Z" fill="black"/>
<path d="M90.3799 30.0256C90.5296 29.5445 90.9367 29.2563 91.314 29.1092C91.4302 29.0648 91.6287 29.285 91.7193 29.2628C91.8988 29.2157 91.8613 29.0316 92.0537 29.0059C92.1182 28.9987 92.4453 29.3297 92.5045 29.3158C92.8209 29.245 92.8778 28.9873 93.113 28.8549C94.2687 28.21 95.158 27.4579 96.1168 26.7142C96.4343 26.4672 97.0614 26.4052 97.2055 25.983C97.2214 25.934 96.9064 25.6774 96.8881 25.6481C96.6108 25.1959 97.1761 25.7895 97.318 25.7972C97.8816 25.8242 98.1853 25.5592 98.3144 25.1997C98.3688 25.0455 97.6855 24.5943 98.1154 24.7996C98.1446 24.8133 98.4279 25.1396 98.4893 25.1421C98.6282 25.1469 98.6951 24.9675 98.7691 24.9403C98.9138 24.8891 98.9266 24.8698 99.0217 24.7797C99.1556 24.658 99.4541 24.6598 99.5203 24.4547C99.5335 24.41 99.1819 24.1378 99.1749 24.0383C99.1686 23.9382 99.3165 23.8428 99.4315 23.875C99.5463 23.9073 99.7739 24.1702 99.8374 24.2192C100.371 24.6345 99.8562 23.8357 99.8589 23.8007C99.9159 23.1926 100.576 23.2878 100.891 22.982C101.129 22.7494 101.268 22.3758 101.517 22.1747C101.731 22.0034 101.996 21.9335 102.219 21.8039C102.329 21.7327 102.425 21.661 102.525 21.5611C102.562 21.5249 102.18 21.168 102.227 21.1213C102.731 20.6396 103.456 20.1247 104.75 20.1766C104.876 20.1871 104.818 20.6635 104.941 20.7033C105.31 20.8216 105.746 21.1256 106.112 21.2467C106.492 21.3663 106.873 21.279 107.678 20.6364C108.116 21.0419 108.408 21.5452 108.282 22.0054C108.273 22.019 108.264 22.0329 108.254 22.0471C108.099 22.2777 107.631 22.4706 107.881 22.4622C107.937 22.4607 108.274 22.1829 108.33 22.1987C108.568 22.2636 108.573 22.5157 108.865 22.5381C108.926 22.5425 109.236 22.3063 109.299 22.2742C109.814 22.0179 109.14 22.6861 109.106 22.7561C108.849 23.2651 109.126 23.3016 109.26 23.4995C109.292 23.5464 109.668 23.1775 109.714 23.211C109.943 23.389 110.083 23.6438 110.07 24.0052C110.067 24.0868 109.681 24.3162 109.661 24.3694C109.581 24.6015 110.258 24.1015 110.193 24.3122C110.18 24.3559 109.872 24.5807 109.842 24.6104C109.373 25.0778 110.145 24.552 110.173 24.5544C110.543 24.5679 109.886 25.3039 110.141 25.4009C110.173 25.412 110.508 25.0591 110.573 25.1089C111.011 25.4391 111.268 25.9595 111.312 26.6135C111.32 26.7155 111.004 26.9027 110.973 26.9354C110.494 27.4505 111.245 26.8899 111.289 26.8879C111.619 26.8858 111.152 27.5485 112.093 26.9357C112.382 27.8728 113.442 28.1377 113.289 29.4684C113.287 29.4846 112.929 29.7753 112.929 29.8064C112.918 30.1838 113.419 29.6686 114.192 29.22C114.387 29.1074 113.691 29.9154 113.642 29.9766C113.459 30.2007 112.917 30.6239 112.886 30.6721C112.647 31.0556 114.32 29.5252 114.432 29.6486C114.433 29.655 114.108 29.918 114.086 29.9562C114.019 30.076 114.171 29.9972 114.093 30.1253C113.912 30.4201 113.118 31.1855 113.695 30.8664C113.769 30.8246 114.702 29.9394 114.757 30.0905C114.779 30.1519 114.972 30.331 114.96 30.4415C114.948 30.5519 114.608 30.7944 114.599 30.8103C114.329 31.3274 114.111 31.4251 113.581 32.0479C113.054 32.6693 114.455 31.3445 114.641 31.229C114.826 31.1136 114.592 31.5271 114.501 31.6603C114.41 31.7934 114.186 31.9389 114.143 32.0229C113.86 32.5742 114.909 31.4422 115.181 31.2857C115.824 30.9141 114.862 31.9793 114.863 32.1859C114.863 32.2416 115.079 31.9952 115.126 32.0011C115.309 32.0267 115.043 32.3956 115.453 32.2351C115.52 32.2092 116.237 31.7165 115.836 32.2108C115.778 32.282 115.495 32.501 115.479 32.6005C115.454 32.7493 115.512 32.9238 115.666 32.9132C115.78 32.9054 116.149 32.4412 116.079 32.6329C116.048 32.7184 115.747 32.9 115.709 33.0411C115.672 33.1818 115.817 33.3129 115.877 33.3585C115.937 33.4038 116.231 33.067 116.257 33.0506C116.406 32.9581 116.659 32.9116 116.667 32.9209C117.141 33.3369 117.007 34.2772 117.617 34.5417C117.664 34.5628 117.976 34.2101 117.987 34.2099C118.242 34.1887 117.263 34.9735 117.047 35.3498C117.713 34.6678 117.638 34.8377 117.794 34.8468C117.87 34.8506 118.11 34.569 118.141 34.546C118.29 34.4365 118.339 34.4212 118.336 34.4543C118.392 34.5876 118.164 34.8829 118.1 34.9625C117.739 35.379 118.354 35.1653 118.071 35.4263C117.759 35.6188 117.233 35.7404 117.264 35.8117C117.611 35.7939 118.413 35.3198 118.621 35.5682C118.82 35.8331 118.841 36.2767 118.727 36.5826C118.617 36.8971 118.422 37.0973 118.242 37.2209C117.874 37.4672 117.531 37.4668 117.375 37.5364C117.066 37.6624 117.013 37.759 116.799 37.7392C116.418 37.6898 116.828 38.2208 116.767 38.5878C116.696 38.9546 116.12 37.4277 115.949 37.1212C115.785 36.8118 115.908 37.1507 115.805 36.9862C115.703 36.8208 115.661 36.5799 115.576 36.538C115.559 36.5293 115.549 36.5488 115.545 36.5882L115.631 36.5586C115.583 36.7132 115.585 37.1842 115.646 37.4698C115.808 38.2295 116.11 38.9889 115.86 38.763C115.846 38.7496 115.76 38.3289 115.71 38.2984C115.314 38.0691 114.992 38.1438 114.601 37.9602C114.547 37.9343 114.443 37.468 114.41 37.4479C114.061 37.238 114.392 37.9755 114.526 38.8684C114.197 37.7282 113.899 37.0608 113.698 37.1189C113.578 37.1533 113.76 37.6391 113.799 38.0106C113.812 38.1224 113.617 37.8123 113.679 38.0485C113.884 38.8202 114.243 39.64 113.938 39.3683C113.925 39.3552 113.811 38.9331 113.773 38.9181C113.527 38.8197 113.776 39.6152 113.611 39.7805C113.482 39.91 113.03 39.5337 112.821 39.5244C112.356 38.2739 112.285 38.6274 112.548 39.512C112.418 39.5216 112.312 39.6192 112.153 39.5457C112.098 39.5208 111.98 39.1522 111.96 39.1153C111.64 38.5383 111.923 39.3893 111.911 39.4317C111.772 39.8567 111.284 39.3265 111.294 40.0461C111.294 40.0721 111.654 40.9259 111.314 40.3367C111.29 40.2962 111.204 39.8733 111.071 39.8967C110.939 39.9193 110.503 39.5722 110.519 40.0393C110.522 40.1521 110.748 40.8776 110.414 40.3862C110.369 40.3194 110.265 40.0744 110.185 39.9487C109.928 39.5494 110.311 40.4046 109.902 39.719C109.493 39.0334 109.093 38.5661 109.168 39.1444C109.169 39.1615 109.466 39.8432 109.409 39.8596C109.316 39.8855 109.125 39.8111 109.039 39.8622C108.998 39.8869 109.242 40.2793 109.239 40.2906C109.085 40.6658 108.695 40.4119 108.309 40.4296C108.237 40.4329 108.406 41.0628 108.048 40.6986C107.652 40.3028 106.598 38.2936 106.594 38.9296C106.585 39.1891 107.999 41.6913 107.006 40.5635C106.847 41.1082 106.074 40.7182 106.027 41.4077C106.025 41.4386 106.454 42.1177 106.413 42.1353C106.349 42.1608 106.094 41.8845 106.04 41.8943C105.966 41.905 105.921 41.951 105.888 42.0109L105.902 41.9975C105.862 42.1342 105.894 42.3143 105.79 42.3973C105.732 42.4446 105.435 42.1942 105.365 42.254C105.294 42.3155 105.676 42.6585 105.406 42.6138C105.2 42.5794 104.293 42.0577 104.124 42.0884C104.965 42.6798 104.9 42.7357 105.039 43.0113C105.066 43.0647 105.377 43.2444 105.405 43.2802C105.524 43.4314 105.253 43.3018 105.387 43.4603C105.419 43.4982 105.706 43.7001 105.749 43.7425C106.121 44.1125 105.39 43.7794 105.264 43.7187C104.782 43.4952 105.13 43.7947 104.919 43.736C104.709 43.6753 104.563 43.4384 104.413 43.4334C104.102 43.4248 104.017 43.6372 103.899 43.7701C103.854 43.8233 104.259 44.0641 104.261 44.0782C104.268 44.2686 103.781 44.0876 104.478 44.7139C102.489 43.3415 104.612 44.9254 104.096 44.8044C104.055 44.7937 103.136 44.1165 103.041 43.9653C102.947 43.8131 103.286 43.9564 103.131 43.7283C103.095 43.6742 102.308 42.9406 102.266 42.8893C101.932 42.4899 103.31 43.4953 103.389 43.5453C104.247 44.087 103.406 43.285 103.363 43.2094C103.17 42.8561 103.448 42.8809 103.319 42.6138C103.237 42.4388 102.33 41.7857 102.4 41.7469C102.627 41.621 103.954 42.4432 102.979 41.4788C102.772 41.2717 101.739 40.618 102.633 41.0144C102.69 41.0394 103.49 41.4279 103.083 41.0399C103.032 40.9908 102.741 40.7863 102.725 40.7574C102.622 40.5676 102.892 40.6766 102.848 40.5055C102.805 40.3334 102.731 40.0911 102.921 40.042C103.036 40.0112 103.631 40.3283 103.783 40.3985C103.928 40.4644 103.969 40.4458 103.977 40.4008C104.061 40.3345 104.257 40.083 104.353 40.0364C104.376 39.9607 104.292 39.7502 104.555 40.0264C104.948 40.4425 105.384 41.1969 105.725 41.3996C105.17 40.6598 104.607 39.8954 104.054 39.1479C104.367 38.9521 104.83 38.9865 105.103 38.7489C105.137 38.7185 104.817 38.3351 104.846 38.2916C104.973 38.1088 105.319 38.3036 105.419 38.07C105.495 37.8875 105.367 37.3454 105.447 37.1388C106.098 37.9798 106.122 37.5434 106.332 37.5314C106.405 37.5272 106.545 37.7726 106.631 37.829C106.95 38.0372 106.409 37.2704 106.376 37.1192C106.242 36.4711 107.311 38.2977 107.482 38.1415C107.49 38.1344 107.075 37.0746 107.061 37.0021C106.96 36.535 107.27 37.3353 107.383 37.3683C107.591 37.4288 107.808 37.618 107.811 37.2431C107.81 37.1329 107.599 36.4498 107.939 36.887C107.983 36.9442 108.146 37.2795 108.166 37.2941C108.5 37.5321 107.976 36.4848 107.901 36.0786C107.827 35.672 108.342 36.3205 108.473 36.516C108.818 37.0192 108.524 36.7779 108.545 36.8335C108.803 37.4911 108.859 37.3287 108.968 37.3424C109.479 38.3714 109.56 38.2561 109.079 37.3525C109.026 37.254 109.008 37.3816 108.968 37.3424C108.551 36.2921 108.631 36.0941 109.219 36.9823C109.494 37.3991 109.673 37.9499 109.782 37.668C109.833 37.5407 109.471 36.8363 109.464 36.6027C109.452 36.0681 109.996 36.6356 110.142 36.4476C110.196 36.3789 109.958 36.0093 109.99 35.9484C110.074 35.7852 110.313 36.0376 110.38 35.8307C110.386 35.8114 110.185 35.4037 110.224 35.3816C110.517 35.2055 110.894 35.3697 111.22 35.2554C111.376 35.2001 111.572 34.8622 111.752 34.8514C112.065 34.8289 112.621 35.3351 112.808 35.1048C112.931 34.9562 112.755 34.5368 112.727 34.221C112.674 33.6082 113.235 34.555 113.314 34.7042C113.316 34.7092 113.215 34.8536 113.357 35.0527C113.545 35.5017 113.313 34.7068 113.314 34.7042C113.367 34.7998 113.665 34.8144 113.692 34.7155C113.707 34.6614 113.564 34.2558 113.575 34.2353C113.823 33.7567 114.162 33.5433 114.584 33.6326C114.593 33.6391 114.714 34.1042 114.733 34.1138C114.829 34.1658 114.887 34.1229 114.927 34.0286L114.534 34.1647C114.52 34.0132 114.423 33.702 114.355 33.4852C114.252 33.1477 114.306 33.2505 114.744 33.9505C114.724 33.8421 114.943 34.1344 115.086 34.3046C115.232 34.472 114.656 33.7343 114.642 33.7219C114.428 33.514 114.334 33.572 114.273 33.743C114.211 33.9346 114.167 34.1545 113.955 34.7921C113.865 35.0813 113.654 35.7581 113.786 36.5644C113.913 37.3668 114.273 37.9081 114.431 38.1554C114.456 38.1939 114.481 38.2279 114.507 38.258C114.41 38.203 114.48 38.0324 114.315 38.0468C114.291 38.0488 114.006 38.3529 113.991 38.3608C113.545 38.6182 114.313 37.9474 114.424 37.8006C114.826 37.2671 115.036 36.9783 114.698 37.0787C114.621 37.1017 113.497 38.0485 113.386 38.058C113.244 38.0688 113.644 37.7261 113.487 37.7469C113.473 37.7484 113.243 37.976 113.212 37.9238C113.065 37.6846 112.993 37.3393 112.773 37.1577C112.744 37.1319 112.408 37.5243 112.36 37.4929C112.133 37.3447 111.947 37.1228 111.944 36.7707C111.945 36.683 112.233 36.4638 112.301 36.3802C112.713 35.8744 111.949 36.435 111.923 36.4329C111.271 36.4015 111.646 35.558 111.026 35.4853C110.992 35.4833 110.115 36.0196 110.689 35.3673C110.727 35.3236 111.316 34.6594 110.819 35.012C110.788 35.034 110.491 35.3829 110.46 35.2809C110.429 35.1793 110.1 35.2703 110.379 34.8348C110.467 34.6974 111.051 34.03 110.449 34.4125C110.408 34.4402 109.103 35.3676 109.867 34.5783C109.993 34.4486 110.86 33.6769 110.32 33.9671C110.215 34.0236 110.058 34.2356 109.888 34.2887C109.626 34.3707 109.756 34.0508 109.277 34.291C109.192 34.334 108.536 34.782 108.924 34.3196C108.985 34.2472 109.29 34.007 109.292 33.945C109.307 33.6501 108.965 33.6561 109.023 33.3182C109.043 33.1991 109.537 32.812 109.611 32.642C109.684 32.4725 109.699 32.246 109.431 32.374C109.161 32.5017 108.473 33.2299 108.331 33.1895C107.712 33.0117 107.8 32.2211 107.512 31.7554C107.47 31.6862 107.242 31.9694 107.16 31.884C106.855 31.5701 106.11 31.2074 106.447 30.4263C106.721 29.8047 107.319 29.8003 107.363 29.4657C107.384 29.3071 106.412 29.952 106.366 29.9545C105.911 29.9866 106.191 29.5171 105.918 29.432C105.861 29.4146 105.527 29.7492 105.483 29.731C105.331 29.6729 105.395 29.4188 105.279 29.3363C105.226 29.2997 104.953 29.534 104.939 29.4723C104.903 29.3284 104.942 29.1351 105.123 28.8219C105.139 28.7934 105.539 28.5782 105.49 28.4895C105.411 28.349 105.541 27.9793 105.158 28.0461C105.043 28.0668 104.395 28.5706 104.766 28.1247C104.843 28.0315 105.64 27.4507 104.882 27.8634C104.756 27.9328 103.702 28.4477 104.215 27.8999C104.35 27.7561 104.942 27.2028 104.801 27.2269C104.78 27.2319 104.452 27.5289 104.383 27.5105C104.146 27.4363 104.06 27.2447 103.821 27.1556C103.757 27.1329 103.442 27.4733 103.358 27.4304C103.128 27.3158 103.047 27.008 103.025 26.7328C103.018 26.6312 103.36 26.4597 103.39 26.4305C103.876 25.9602 103.108 26.438 103.045 26.4409C102.662 26.4461 102.922 26.0763 102.713 25.9691C102.656 25.9397 102.323 26.2148 102.285 26.2272C101.909 26.3411 102.597 25.9787 102.627 25.8709C102.635 25.8445 102.641 25.8193 102.645 25.795C102.863 25.7982 102.968 26.0036 103.205 26.2799C103.304 26.3927 102.846 26.6588 102.955 26.7665C103.569 27.5184 105.518 27.8868 106.16 27.3879C106.291 27.3099 106.127 26.9492 106.138 26.8578C106.159 26.2289 106.525 26.9873 106.607 27.0436C106.908 27.3215 106.83 26.9804 106.935 26.9993C107.297 27.0454 107.239 27.0105 107.068 27.0579C106.896 27.1591 106.721 27.2466 106.565 27.3296C105.951 27.6599 105.316 27.7637 104.918 28.2868C104.892 28.3197 105.281 28.6554 105.263 28.6884C105.025 29.095 104.564 29.2731 104.348 29.7033C104.33 29.7378 104.713 30.0396 104.696 30.1062C104.663 30.2453 104.534 30.339 104.337 30.3198C104.241 30.3112 104 29.9626 103.909 29.96C103.699 29.9527 103.565 30.0415 103.519 30.2011C103.5 30.2698 103.923 30.5459 103.871 30.6082C103.522 31.0412 103.217 31.4894 102.366 31.4635C102.308 31.4613 101.544 30.8034 101.63 30.9955C101.831 31.1895 102.074 31.4121 102.292 31.6166C101.865 32.3178 101.077 32.6755 100.514 33.2462C100.49 33.27 100.932 33.5751 100.89 33.6226C100.638 33.9036 100.526 34.2646 99.8767 34.218C99.8129 34.2139 99.102 33.5991 99.1389 33.7781C99.1458 33.8105 99.1374 34.019 99.2705 34.1789C99.2909 34.2025 99.6498 34.4562 99.6277 34.5038C99.4868 34.7838 99.2186 34.9624 98.8388 35.0204C98.7765 35.0299 98.4328 34.7101 98.3848 34.7148C98.0472 34.7506 98.198 35.1493 97.7756 35.0214C97.4929 34.9332 96.8312 34.4694 96.1213 34.1074C96.0189 34.0601 95.9824 34.0883 95.5729 33.8742C94.5347 33.3504 93.4535 32.6737 92.3473 32.1143C92.1104 31.9829 92.1774 32.5008 91.7123 31.9825C91.6824 31.9405 91.637 31.5736 91.4689 31.4313C91.3588 31.3199 90.9137 31.1496 90.7913 30.9754C90.6711 30.7985 91.0559 30.9244 90.9208 30.7127C90.7848 30.498 90.3196 30.2308 90.3799 30.0256ZM115.731 35.0554C116.061 35.3597 114.785 34.3188 115.143 34.5092C115.162 34.5201 115.715 35.0395 115.731 35.0554ZM105.548 40.0018C106.078 40.5152 105.543 39.5878 105.14 39.1859C104.734 38.7875 105.385 39.8477 105.548 40.0018ZM104.605 41.5699C105.159 41.7841 103.324 40.3434 103.578 40.7904C103.593 40.8159 104.573 41.558 104.605 41.5699ZM96.1157 33.7033C96.0984 33.69 96.0392 33.7384 96.0568 33.7512C96.4686 34.0743 96.5782 33.9894 96.1157 33.7033ZM104.304 42.9979C104.589 43.1413 104.366 42.8243 104.013 42.6449C103.729 42.4997 103.95 42.8175 104.304 42.9979ZM114.278 32.7361C114.295 32.7183 114.273 32.6618 114.172 32.757C113.848 33.0638 113.994 33.036 114.278 32.7361ZM103.007 44.7783C103.275 44.5789 104.927 45.5924 104.529 45.7507C104.457 45.7781 104.13 45.2618 103.942 45.2206C103.6 45.1449 104.489 45.9719 103.881 45.6955C103.771 45.6435 102.99 44.7857 103.005 44.7762C103.006 44.7769 103.007 44.7776 103.007 44.7783ZM117.209 36.3667C117.226 36.3805 117.293 36.3314 117.277 36.3165C116.881 35.9758 116.787 36.0248 117.209 36.3667ZM112.814 29.6112C112.846 29.5772 112.758 29.4127 112.722 29.4366C112.019 29.9306 112.196 30.2667 112.814 29.6112ZM112.805 39.4922C112.913 40.013 112.847 40.1044 112.548 39.5125C112.638 39.5157 112.717 39.4911 112.805 39.4922Z" fill="black"/>
<path d="M35.0865 81.2358C35.4593 81.213 35.7477 81.4931 35.9048 81.7872C35.9538 81.8786 35.8018 82.131 35.8272 82.2049C35.8736 82.3477 36.0255 82.2577 36.0592 82.4202C36.0689 82.4749 35.8473 82.8819 35.8613 82.9295C35.9398 83.1874 36.1442 83.1513 36.2593 83.3133C36.8326 84.1164 37.428 84.6189 38.0316 85.1776C38.2362 85.3645 38.3028 85.8767 38.6278 85.8454C38.6646 85.8406 38.8432 85.4763 38.8642 85.4497C39.189 85.0443 38.77 85.7479 38.7697 85.8717C38.7701 86.3614 38.992 86.5268 39.2606 86.4976C39.3781 86.4856 39.6855 85.7351 39.551 86.1776C39.5421 86.2076 39.3105 86.5713 39.3114 86.6244C39.3138 86.744 39.4531 86.7338 39.4785 86.7872C39.5264 86.8921 39.5419 86.8958 39.6109 86.9403C39.7042 87.0049 39.7175 87.2583 39.8749 87.2355C39.9091 87.2295 40.096 86.8282 40.1705 86.7842C40.2449 86.7402 40.3266 86.8297 40.3092 86.9396C40.2916 87.0494 40.1053 87.3424 40.0719 87.4148C39.7912 88.0272 40.3569 87.2801 40.3839 87.2691C40.8336 87.0753 40.8165 87.6766 41.0524 87.8116C41.2365 87.9158 41.5255 87.8819 41.6967 88.0099C41.8929 88.1598 41.9428 88.4665 42.1715 88.5537C42.1953 88.5633 42.4334 88.1014 42.4631 88.1123C42.7878 88.2339 43.0184 88.4366 43.1229 88.9068C43.1329 88.9541 42.8631 89.3237 42.8591 89.3944C42.8429 89.8206 42.6453 90.7506 43.7645 89.1093C43.8382 89.2438 43.9368 89.3966 43.8344 89.8017C43.7686 90.0625 43.4471 90.4481 43.6389 90.3165C43.6819 90.2873 43.8822 89.9006 43.9298 89.8851C44.1303 89.8203 44.1874 90.0199 44.4135 89.8943C44.4604 89.8681 44.656 89.5313 44.6988 89.4752C45.0475 89.0225 44.6523 89.8807 44.6367 89.9511C44.5247 90.4781 44.7406 90.3751 44.8789 90.4739C44.9109 90.497 45.1432 90.026 45.1839 90.0323C45.394 90.0725 45.5379 90.2131 45.5753 90.5081C45.5831 90.5748 45.318 90.935 45.3098 90.9863C45.2766 91.2081 45.7327 90.5006 45.7099 90.6999C45.7057 90.741 45.4978 91.061 45.4787 91.0984C45.1784 91.6856 45.7033 90.9145 45.7254 90.9039C46.0149 90.7517 45.5976 91.637 45.8095 91.6056C45.8354 91.6011 46.0504 91.1667 46.1079 91.1791C46.4849 91.2546 46.729 91.5612 46.8347 92.0808C46.8512 92.1609 46.6261 92.4479 46.6056 92.4878C46.2866 93.1117 46.8114 92.3361 46.8457 92.3159C47.1047 92.1781 46.8013 92.9133 47.4694 92.0164C47.763 92.6542 48.629 92.4573 48.5891 93.6111C48.5894 93.6249 48.333 94.008 48.3345 94.0339C48.3507 94.3495 48.702 93.7244 49.2707 93.0473C49.4136 92.8773 48.9298 93.8223 48.8955 93.8923C48.769 94.1502 48.3776 94.7139 48.3567 94.7661C48.1959 95.1782 49.3915 93.2518 49.4879 93.3116C49.4889 93.3167 49.254 93.6619 49.24 93.7021C49.1956 93.8281 49.3088 93.7034 49.2569 93.8405C49.1359 94.1571 48.5691 95.1021 48.9964 94.6135C49.0512 94.5497 49.7209 93.4516 49.7707 93.5548C49.7899 93.5968 49.9473 93.6701 49.944 93.7665C49.9406 93.8628 49.6912 94.1955 49.6845 94.2125C49.5024 94.7456 49.3393 94.9112 48.9613 95.6321C48.585 96.3504 49.5994 94.711 49.737 94.5434C49.8743 94.3764 49.7145 94.8103 49.6506 94.9558C49.5866 95.1014 49.4208 95.3082 49.3911 95.3947C49.1989 95.961 49.9547 94.6189 50.1575 94.3851C50.6376 93.8316 49.9455 95.0855 49.9559 95.2579C49.9588 95.3045 50.1141 95.0175 50.151 95.0048C50.295 94.9584 50.1054 95.3664 50.4182 95.0804C50.4692 95.0338 51.0061 94.3565 50.7137 94.918C50.6715 94.999 50.4618 95.2879 50.4525 95.3765C50.4383 95.5093 50.4869 95.6324 50.6049 95.5663C50.6921 95.5174 50.9611 94.9928 50.9137 95.1787C50.8925 95.2617 50.6667 95.5251 50.6421 95.6568C50.6173 95.7883 50.7328 95.8439 50.7803 95.86C50.8278 95.8759 51.0444 95.4859 51.0638 95.4627C51.1761 95.3305 51.3704 95.1996 51.3771 95.2045C51.7565 95.3816 51.6968 96.234 52.1597 96.2351C52.1964 96.2362 52.4318 95.8293 52.44 95.8254C52.6369 95.7178 51.8925 96.7237 51.7307 97.1163C52.2351 96.3078 52.1796 96.4771 52.3003 96.4303C52.3588 96.407 52.5409 96.0855 52.5641 96.0555C52.9123 95.6129 52.5542 96.2432 52.4826 96.3732C52.2194 96.8515 52.5998 96.3308 52.4243 96.6508C52.2502 96.9684 51.9132 97.3888 51.979 97.4228C52.1804 97.1467 52.6152 96.3666 52.7404 96.2752C53.2132 95.9291 53.1729 96.7343 53.2805 96.8898C53.3855 97.0435 53.4613 97.0175 53.4771 97.1742C53.5042 97.4567 53.8079 96.8657 54.064 96.6704C54.3204 96.4756 53.3945 97.8148 53.2185 98.1175C53.0422 98.4199 53.2513 98.1265 53.1635 98.2986C53.0757 98.4706 52.9118 98.648 52.9109 98.7332C52.9099 98.8183 53.3514 98.3627 53.5632 98.0641C54.0118 97.4312 54.4049 96.717 54.352 97.0229C54.3487 97.0409 54.0978 97.3883 54.0968 97.4391C54.0967 97.8309 54.2724 97.9686 54.2954 98.3303C54.2982 98.3806 54.0177 98.7661 54.0164 98.7999C54.0022 99.153 54.3833 98.445 54.95 97.7504C54.9559 97.7536 54.9562 97.7532 54.9565 97.7528C54.9548 97.7554 54.953 97.758 54.9512 97.7606C54.7596 98.0337 54.5984 98.283 54.4654 98.5001C54.1255 99.0508 53.9682 99.394 54.0459 99.4508C54.1108 99.4988 54.3828 99.0575 54.6259 98.78C54.6991 98.6963 54.5511 99.0247 54.6929 98.8262C55.1567 98.1777 55.6001 97.4021 55.5227 97.7757C55.5185 97.7932 55.2637 98.1475 55.2669 98.1812C55.2865 98.4005 55.7532 97.7101 55.9311 97.7057C56.073 97.7039 55.9602 98.237 56.0273 98.3794C55.2963 99.4954 55.566 99.3066 56.1088 98.5624C56.1599 98.6407 56.266 98.6478 56.2638 98.7981C56.2633 98.8495 56.0372 99.1632 56.0174 99.2001C55.7041 99.7773 56.2248 99.0485 56.2593 99.0291C56.6115 98.8515 56.3776 99.5084 56.8951 99.0543C56.9139 99.038 57.4282 98.2671 57.1022 98.8621C57.0795 98.903 56.7973 99.2224 56.8543 99.2984C56.9092 99.373 56.7826 99.883 57.1166 99.5879C57.1979 99.5174 57.6721 98.9283 57.4024 99.4539C57.3657 99.5252 57.2138 99.7435 57.1431 99.8739C56.9183 100.29 57.443 99.5137 57.049 100.207C56.6554 100.9 56.4052 101.448 56.8106 101.056C56.8226 101.045 57.2509 100.438 57.277 100.468C57.3166 100.517 57.3107 100.698 57.3666 100.728C57.3938 100.742 57.6274 100.345 57.6365 100.34C57.954 100.238 57.8552 100.663 57.9477 100.935C57.9651 100.986 58.4044 100.522 58.2023 100.982C57.9796 101.486 56.6813 103.342 57.1413 102.997C57.3268 102.86 58.9671 100.501 58.2843 101.831C58.723 101.675 58.5246 102.454 59.0473 102.169C59.0704 102.157 59.5492 101.513 59.5687 101.539C59.5718 101.544 59.5722 101.552 59.5704 101.563C59.5567 101.649 59.4094 101.908 59.4206 101.942C59.4678 102.11 59.7499 101.915 59.8285 102.03C59.8586 102.073 59.6229 102.381 59.6579 102.432C59.6926 102.482 60.0186 102.088 59.941 102.335C59.8815 102.523 59.3235 103.405 59.3137 103.548C59.916 102.715 59.9472 102.763 60.1845 102.6C60.2304 102.568 60.4244 102.267 60.4571 102.237C60.5949 102.109 60.4472 102.368 60.5933 102.226C60.6285 102.192 60.8359 101.909 60.8764 101.865C61.2293 101.483 60.8405 102.177 60.7717 102.297C60.5123 102.755 60.8073 102.405 60.7233 102.599C60.6392 102.792 60.4289 102.956 60.3992 103.09C60.3375 103.365 60.4888 103.408 60.5722 103.49C60.607 103.522 60.8631 103.128 60.8746 103.124C61.0231 103.087 60.8011 103.544 61.4063 102.831C60.0043 104.797 61.5939 102.679 61.4131 103.149C61.3982 103.186 60.7192 104.104 60.5852 104.213C60.4508 104.321 60.6168 103.999 60.4129 104.172C60.3649 104.213 59.6588 105.02 59.6115 105.066C59.2419 105.421 60.2581 104.051 60.3109 103.973C60.879 103.136 60.1103 103.999 60.0431 104.049C59.7338 104.273 59.8001 104.023 59.5695 104.176C59.4201 104.275 58.751 105.17 58.734 105.115C58.6783 104.933 59.5496 103.64 58.6377 104.648C58.4434 104.863 57.7542 105.872 58.2274 105.029C58.2578 104.976 58.702 104.214 58.3411 104.639C58.2957 104.693 58.0897 104.983 58.0662 105.003C57.9129 105.131 58.0489 104.88 57.9254 104.96C57.8022 105.039 57.6332 105.168 57.651 105.033C57.6617 104.953 57.9974 104.379 58.0735 104.235C58.2939 103.819 57.816 104.421 58.107 103.934C58.3977 103.444 58.9386 102.766 59.0678 102.409C58.5482 103.174 58.0119 103.957 57.4887 104.726C57.4806 104.718 57.473 104.71 57.4659 104.7C57.3569 104.556 57.3531 104.241 57.1749 104.171C57.1507 104.162 56.9012 104.593 56.8685 104.595C56.7322 104.6 56.8421 104.25 56.6651 104.303C56.5268 104.346 56.1561 104.734 56.003 104.793C56.5249 103.87 56.2102 104.095 56.1723 103.955C56.1586 103.907 56.3147 103.671 56.3426 103.58C56.444 103.239 55.9763 104.05 55.8734 104.159C55.4354 104.624 56.5716 102.838 56.4291 102.809C56.4223 102.807 55.7344 103.705 55.6854 103.757C55.3726 104.101 55.8879 103.421 55.8925 103.324C55.8999 103.148 55.9938 102.888 55.7263 103.108C55.6467 103.173 55.2035 103.724 55.4494 103.236C55.4815 103.171 55.6877 102.861 55.6943 102.839C55.7953 102.471 55.1563 103.453 54.8867 103.751C54.6172 104.049 54.969 103.313 55.0804 103.108C55.3642 102.573 55.2541 102.913 55.2889 102.865C55.7006 102.293 55.5736 102.355 55.5596 102.275C56.1778 101.307 56.0744 101.322 55.5419 102.196C55.4839 102.291 55.5788 102.225 55.5596 102.275C54.9063 103.195 54.7513 103.266 55.2475 102.333C55.4789 101.894 55.8284 101.435 55.5989 101.537C55.4943 101.583 55.0849 102.26 54.9224 102.411C54.5512 102.757 54.8183 102.051 54.6476 102.078C54.5852 102.088 54.3875 102.476 54.3366 102.495C54.2006 102.547 54.3191 102.236 54.1564 102.329C54.1414 102.338 53.9099 102.728 53.8845 102.718C53.6893 102.654 53.7004 102.315 53.5334 102.196C53.4493 102.137 53.1657 102.25 53.1049 102.151C52.9983 101.98 53.1747 101.308 52.9592 101.359C52.8202 101.39 52.59 101.781 52.385 102.016C52.141 102.296 52.2214 102.035 52.3364 101.756L52.3536 101.767C52.425 101.592 52.5103 101.411 52.5386 101.353C52.541 101.348 52.6727 101.305 52.7597 101.085C53.0001 100.663 52.5406 101.351 52.5386 101.353C52.5857 101.255 52.4949 101.074 52.419 101.128C52.3776 101.158 52.1533 101.524 52.1361 101.533C51.7325 101.73 51.48 101.697 51.3947 101.403C51.396 101.394 51.6613 100.993 51.6611 100.976C51.6644 100.724 51.2745 101.172 50.9939 101.406C50.7133 101.64 50.7043 101.496 51.0965 100.767C50.9708 100.81 51.0729 100.442 51.1308 100.216C51.191 99.9918 50.6773 100.773 50.6621 100.786C50.1801 101.179 50.3762 100.669 50.255 100.492C50.1982 100.407 49.9693 100.422 49.8298 100.454C49.7186 100.48 49.7967 100.27 49.66 100.349C49.6416 100.359 49.4255 100.716 49.4144 100.727C49.0777 101.104 49.6591 100.267 49.743 100.105C50.0483 99.5152 50.2064 99.1983 49.952 99.4048C49.8935 99.452 49.046 100.65 48.9637 100.699C48.8578 100.76 49.1595 100.33 49.0401 100.404C49.03 100.41 48.8565 100.684 48.8322 100.652C48.7172 100.505 48.6581 100.243 48.489 100.174C48.4665 100.163 48.2168 100.614 48.1799 100.606C48.0069 100.568 47.8649 100.455 47.8596 100.167C47.8592 100.094 48.0731 99.8036 48.1233 99.7088C48.4261 99.135 47.8597 99.8884 47.8399 99.897C47.3573 100.125 47.6143 99.2814 47.1416 99.4613C47.1148 99.4724 46.4691 100.256 46.8836 99.4958C46.9111 99.4452 47.3365 98.6684 46.972 99.153C46.9493 99.1833 46.7352 99.5864 46.7091 99.515C46.6829 99.4437 46.439 99.649 46.6367 99.1825C46.6988 99.0355 47.1175 98.2571 46.6772 98.8103C46.6466 98.849 45.6985 100.13 46.2478 99.18C46.3383 99.0237 46.9631 98.046 46.5687 98.5006C46.4923 98.5888 46.3815 98.8249 46.2559 98.9368C46.0604 99.108 46.1432 98.7928 45.7916 99.1823C45.7295 99.2513 45.2536 99.8824 45.5268 99.348C45.5695 99.2643 45.7892 98.9448 45.7884 98.8931C45.7856 98.6457 45.5298 98.791 45.5589 98.4928C45.5688 98.3878 45.9222 97.8703 45.9695 97.7018C46.0167 97.5334 46.0183 97.3439 45.8229 97.5592C45.6274 97.7745 45.1447 98.65 45.0375 98.677C44.5808 98.8002 44.5864 98.1132 44.3491 97.8645C44.3135 97.8273 44.1598 98.1523 44.0939 98.1192C43.8519 97.9997 43.281 98.0394 43.4745 97.2667C43.6324 96.6496 44.0799 96.3824 44.0861 96.0953C44.0883 95.9579 43.4139 96.9052 43.3804 96.9275C43.046 97.157 43.2202 96.6605 43.0142 96.7188C42.9716 96.731 42.7497 97.1467 42.7163 97.1526C42.6004 97.177 42.6318 96.9499 42.5368 96.9365C42.4941 96.9317 42.312 97.2414 42.2961 97.1991C42.2561 97.1015 42.2713 96.9336 42.3773 96.6036C42.3869 96.5736 42.6639 96.2192 42.6193 96.1724C42.5465 96.0976 42.6138 95.7493 42.3372 95.9821C42.2544 96.0524 41.8247 96.7519 42.0588 96.2305C42.1077 96.1216 42.6385 95.2907 42.1223 95.9734C42.0361 96.0866 41.3175 96.9939 41.6453 96.3263C41.7305 96.15 42.1088 95.4359 42.0067 95.5221C41.9913 95.5364 41.7813 95.9248 41.7291 95.9433C41.5491 96.0022 41.4647 95.8957 41.2873 95.9495C41.2395 95.9646 41.0444 96.38 40.9808 96.3901C40.8057 96.4186 40.7241 96.2332 40.6881 96.0445C40.6754 95.9742 40.8991 95.6678 40.9175 95.6309C41.2165 95.0297 40.7209 95.7854 40.6781 95.821C40.4163 96.0312 40.5541 95.6188 40.4029 95.6587C40.3616 95.6687 40.1576 96.0485 40.1326 96.0782C39.8856 96.3674 40.3246 95.7291 40.3349 95.6358C40.3651 95.3721 40.2429 95.339 40.1211 95.3299C40.076 95.3272 39.8574 95.7783 39.82 95.7709C39.5954 95.7364 39.4311 95.5823 39.3876 95.2358C39.3804 95.1701 39.599 94.8528 39.6368 94.7731C39.9022 94.216 39.4014 94.8931 39.3442 94.952C39.0832 95.2208 39.2285 94.9116 39.131 94.9274C38.6653 95.018 38.3562 94.574 38.139 94.2857C37.8201 93.8914 37.7202 93.4104 37.2802 93.2667C37.2534 93.2577 37.0226 93.715 36.9963 93.713C36.6739 93.6698 36.5053 93.3435 36.1692 93.3232C36.1422 93.3209 35.9344 93.7604 35.8833 93.7709C35.7757 93.7948 35.7065 93.7256 35.7045 93.5468C35.7048 93.4614 35.9573 93.126 35.9533 93.0474C35.9444 92.8635 35.8712 92.783 35.7488 92.8038C35.6963 92.8136 35.5088 93.2768 35.4596 93.2559C35.1236 93.125 34.7735 93.0298 34.7513 92.2877C34.7503 92.237 35.2094 91.3395 35.0707 91.4843C34.9345 91.7287 34.7786 92.0184 34.6353 92.2808C34.0964 92.1735 33.8175 91.6325 33.388 91.3567C33.371 91.3458 33.1627 91.8387 33.129 91.8202C32.9156 91.7047 32.6593 91.7443 32.6876 91.1709C32.6888 91.1141 33.0988 90.2686 32.9755 90.3678C32.9529 90.3858 32.8092 90.4573 32.703 90.6331C32.6873 90.6597 32.5196 91.0652 32.4876 91.0646C32.2921 91.0484 32.1812 90.8905 32.143 90.5851C32.1376 90.5353 32.3384 90.1129 32.3356 90.0734C32.3077 89.7942 32.0705 90.084 32.1403 89.6604C32.1854 89.3745 32.4522 88.6125 32.6536 87.8429C32.6825 87.7344 32.64 87.703 32.766 87.2583C33.0784 86.1385 33.4774 84.929 33.8086 83.7348C33.8777 83.4766 33.6481 83.7107 33.9129 83.1151C33.9289 83.0745 34.1127 82.9051 34.2075 82.7056C34.2715 82.5671 34.3722 82.1061 34.4718 81.9342C34.5732 81.7631 34.5016 82.1536 34.6462 81.9616C34.7883 81.7661 34.9233 81.2467 35.0865 81.2358ZM51.3988 99.2129C51.5868 98.7999 50.6904 100.179 50.9618 99.8858C50.976 99.87 51.3897 99.2333 51.3988 99.2129ZM58.0428 103.207C58.3716 102.555 57.7425 103.418 57.4839 103.919C57.2238 104.417 57.9427 103.404 58.0428 103.207ZM59.0244 103.23C59.2728 102.706 57.934 104.616 58.2808 104.283C58.3005 104.264 59.0099 103.26 59.0244 103.23ZM32.9319 87.6984C32.9384 87.6775 32.908 87.644 32.8995 87.664C32.7062 88.1497 32.7616 88.2144 32.9319 87.6984ZM60.042 103.251C60.2046 102.979 59.9189 103.221 59.7172 103.559C59.5548 103.832 59.8392 103.589 60.042 103.251ZM49.5284 95.9377C49.5407 95.9164 49.5207 95.8776 49.4472 95.9951C49.2105 96.3735 49.3222 96.2951 49.5284 95.9377ZM61.2215 104.104C61.1029 103.904 62.1639 102.29 62.2212 102.607C62.2315 102.664 61.7751 103.039 61.7135 103.211C61.601 103.523 62.3867 102.6 62.0751 103.178C62.0177 103.284 61.2251 104.119 61.2195 104.106C61.2202 104.106 61.2208 104.105 61.2215 104.104ZM52.4345 97.5298C52.4451 97.5108 52.4124 97.4653 52.3997 97.4828C52.094 97.9071 52.1596 97.999 52.4345 97.5298ZM48.2341 93.9193C48.2563 93.8785 48.1792 93.7791 48.1533 93.8133C47.6477 94.5042 47.8017 94.7072 48.2341 93.9193ZM56.0095 98.4103C56.3437 98.001 56.4328 97.9853 56.109 98.5617C56.0825 98.5027 56.0389 98.4681 56.0095 98.4103Z" fill="black"/>
<path d="M47.7992 99.6171C47.7197 99.9026 47.3684 100.044 47.0411 100.08C46.9373 100.093 46.7564 99.8611 46.6748 99.8619C46.5189 99.8603 46.5515 100.033 46.3779 100.019C46.3195 100.013 46.0167 99.6615 45.9637 99.6622C45.6753 99.6684 45.6243 99.8928 45.4097 99.9772C44.3511 100.394 43.5422 101.026 42.7165 101.669C42.4453 101.88 41.8589 101.929 41.7831 102.315C41.7747 102.36 42.1051 102.596 42.1263 102.623C42.4501 103.036 41.8377 102.492 41.7037 102.485C41.1742 102.459 40.9281 102.715 40.877 103.044C40.856 103.185 41.576 103.567 41.1396 103.396C41.1098 103.385 40.7832 103.103 40.7259 103.103C40.5963 103.104 40.5716 103.268 40.5086 103.297C40.3857 103.351 40.3781 103.37 40.3117 103.455C40.2167 103.571 39.9421 103.592 39.9342 103.78C39.9341 103.82 40.3252 104.028 40.359 104.113C40.3922 104.198 40.2895 104.287 40.1766 104.271C40.0643 104.253 39.7826 104.05 39.7112 104.014C39.1065 103.713 39.8086 104.344 39.8201 104.37C39.9697 104.876 39.3721 104.864 39.2475 105.133C39.1785 105.284 39.2167 105.477 39.2205 105.585C39.2842 105.419 39.3315 105.192 39.3131 104.93C39.2916 104.581 39.1439 104.251 38.9985 104.065C38.8576 103.884 38.732 103.807 38.6517 103.773C38.4921 103.712 38.4746 103.778 38.5299 103.781C38.5416 103.782 38.7668 103.315 38.7776 103.314C38.9033 103.313 39.249 103.498 39.5297 103.942C39.5587 103.988 39.3809 104.41 39.4033 104.482C39.5426 104.913 39.7474 105.897 40.3954 104.015C40.5483 104.134 40.7495 104.266 40.8169 104.694C40.8628 104.97 40.6418 105.427 40.8245 105.253C40.8645 105.214 40.9288 104.783 40.9807 104.756C41.1978 104.645 41.3749 104.832 41.6075 104.656C41.6558 104.619 41.7345 104.238 41.7612 104.172C41.9805 103.64 41.9175 104.589 41.9333 104.663C42.0649 105.216 42.2948 105.064 42.5249 105.13C42.5788 105.146 42.6323 104.621 42.6885 104.618C42.9752 104.607 43.2517 104.718 43.4609 105.005C43.5081 105.07 43.3525 105.491 43.3699 105.545C43.4478 105.775 43.6681 104.962 43.7475 105.167C43.7639 105.21 43.663 105.578 43.658 105.62C43.579 106.276 43.8538 105.384 43.8771 105.368C44.1763 105.15 44.1054 106.132 44.3617 106.052C44.3929 106.041 44.4432 105.557 44.5243 105.556C45.0659 105.548 45.5748 105.808 45.9864 106.308C46.0499 106.385 45.9066 106.723 45.9008 106.768C45.8113 107.465 46.0898 106.571 46.1241 106.543C46.3898 106.348 46.3823 107.155 46.794 106.11C47.089 106.339 47.4094 106.421 47.7416 106.508C47.7506 106.508 47.7759 106.519 47.7849 106.52C48.2953 106.667 48.8033 106.811 49.1429 107.548C49.1503 107.563 49.0046 108 49.0199 108.026C49.2049 108.348 49.3489 107.645 49.7568 106.85C49.859 106.651 49.6982 107.705 49.6887 107.782C49.6523 108.069 49.4211 108.716 49.42 108.773C49.4153 109.224 50.0165 107.037 50.1705 107.08C50.1743 107.085 50.0399 107.481 50.0415 107.525C50.0461 107.661 50.1315 107.513 50.1319 107.663C50.1319 108.008 49.864 109.077 50.1755 108.499C50.2157 108.424 50.5395 107.179 50.6606 107.277C50.7086 107.317 50.9591 107.365 51.0034 107.464C51.0485 107.563 50.8894 107.949 50.8893 107.967C50.9238 108.546 50.7927 108.745 50.665 109.552C50.5386 110.356 51.0358 108.494 51.132 108.297C51.2276 108.101 51.2386 108.574 51.2293 108.735C51.2197 108.895 51.1072 109.137 51.1125 109.231C51.1506 109.846 51.4573 108.334 51.6044 108.058C51.9535 107.403 51.6826 108.812 51.7842 108.986C51.8116 109.033 51.8687 108.711 51.9104 108.691C52.0744 108.616 52.0349 109.068 52.2946 108.716C52.3372 108.659 52.6898 107.865 52.5993 108.495C52.5861 108.585 52.4585 108.92 52.4938 109.012C52.547 109.151 52.6768 109.268 52.7995 109.179C52.89 109.113 52.9706 108.526 53.006 108.725C53.0217 108.814 52.8602 109.125 52.8973 109.265C52.9342 109.404 53.118 109.439 53.1887 109.447C53.2598 109.454 53.3416 109.014 53.3551 108.987C53.4342 108.831 53.6219 108.66 53.6333 108.663C54.2283 108.772 54.5666 109.643 55.1984 109.559C55.2479 109.553 55.3421 109.092 55.3509 109.086C55.555 108.938 55.1058 110.109 55.1023 110.542C55.338 109.618 55.3552 109.802 55.49 109.73C55.5551 109.695 55.624 109.331 55.6386 109.296C55.8625 108.776 55.7255 109.489 55.7004 109.636C55.6081 110.175 55.8324 109.569 55.7714 109.93C55.7111 110.288 55.4909 110.783 55.5958 110.805C55.7142 110.483 55.8716 109.602 55.9876 109.484C56.425 109.037 56.792 109.861 57.01 109.994C57.2281 110.128 57.3207 110.088 57.4265 110.244C57.6177 110.526 57.6978 109.863 57.9304 109.611C58.1633 109.36 57.6685 110.913 57.6006 111.256C57.5324 111.6 57.6492 111.259 57.6269 111.452C57.6046 111.645 57.4844 111.859 57.5299 111.946C57.5751 112.032 57.9108 111.478 58.0274 111.13C58.2743 110.394 58.4045 109.587 58.5 109.908C58.5053 109.927 58.3641 110.332 58.3902 110.384C58.6002 110.781 58.9037 110.882 59.1254 111.241C59.1559 111.291 58.9986 111.742 59.015 111.777C59.1854 112.136 59.3003 111.336 59.6603 110.509C59.3305 111.649 59.22 112.371 59.4079 112.427C59.5201 112.461 59.631 111.954 59.7957 111.62C59.8452 111.519 59.8353 111.884 59.9109 111.651C60.1584 110.893 60.3066 110.01 60.4103 110.403C60.4146 110.422 60.2783 110.837 60.3011 110.87C60.4476 111.087 60.6784 110.286 60.9056 110.24C61.0862 110.205 61.2421 110.769 61.405 110.895C61.0728 112.187 61.3221 111.936 61.6165 111.061C61.7243 111.127 61.8655 111.109 61.9493 111.261C61.9782 111.313 61.8585 111.681 61.8533 111.723C61.7707 112.377 62.0391 111.522 62.0729 111.494C62.4325 111.233 62.4918 111.946 62.9177 111.368C62.9328 111.347 63.1679 110.45 63.0775 111.125C63.0711 111.171 62.8843 111.56 63.0003 111.621C63.1127 111.682 63.238 112.224 63.5071 111.847C63.524 111.823 63.5551 111.759 63.5909 111.686C63.696 111.478 63.8402 111.203 63.8025 111.642C63.7954 111.722 63.7218 111.978 63.704 112.125C63.6486 112.596 63.8923 111.692 63.7713 112.481C63.648 113.269 63.6497 113.882 63.9487 113.387C63.9579 113.373 64.1665 112.659 64.2179 112.683C64.302 112.722 64.3946 112.902 64.4866 112.918C64.5308 112.926 64.6048 112.47 64.6142 112.463C64.9662 112.278 65.0877 112.726 65.3648 112.969C65.4178 113.014 65.7172 112.436 65.724 112.945C65.7362 113.504 65.1417 115.692 65.5449 115.225C65.7083 115.039 66.4295 112.256 66.3416 113.755C66.8158 113.474 67.0495 114.294 67.5532 113.85C67.576 113.831 67.7752 113.052 67.8151 113.071C67.8741 113.099 67.8437 113.474 67.8855 113.506C68.0565 113.651 68.2834 113.365 68.4587 113.444C68.5252 113.473 68.4381 113.852 68.5173 113.886C68.5977 113.921 68.7352 113.427 68.8073 113.688C68.8638 113.887 68.787 114.93 68.8847 115.068C69.0463 114.052 69.1211 114.085 69.2999 113.838C69.3345 113.79 69.3594 113.432 69.3785 113.391C69.457 113.216 69.4599 113.517 69.5375 113.325C69.5563 113.279 69.6086 112.932 69.6268 112.875C69.7849 112.376 69.8017 113.176 69.8059 113.316C69.8196 113.846 69.9267 113.4 69.9651 113.613C70.0042 113.827 69.8648 114.066 69.9271 114.201C70.0554 114.481 70.2768 114.455 70.4417 114.495C70.508 114.509 70.529 114.038 70.54 114.03C70.6959 113.932 70.7636 114.445 70.9752 113.533C70.7221 115.935 71.0926 113.313 71.2214 113.821C71.2314 113.862 71.082 114.994 70.9985 115.151C70.9151 115.308 70.8774 114.941 70.7574 115.188C70.7288 115.246 70.4639 116.288 70.4397 116.35C70.2489 116.834 70.4752 115.143 70.4821 115.05C70.554 114.038 70.2529 115.159 70.2053 115.233C69.9877 115.57 69.8805 115.313 69.7028 115.55C69.587 115.703 69.4177 116.808 69.3494 116.763C69.1215 116.616 69.27 115.062 68.8376 116.363C68.7449 116.641 68.61 117.856 68.5756 116.879C68.5723 116.817 68.5783 115.929 68.4143 116.465C68.3937 116.533 68.3383 116.885 68.3207 116.912C68.2047 117.09 68.1934 116.801 68.0773 116.919C67.962 117.038 67.8167 117.219 67.7282 117.082C67.6762 117 67.7045 116.333 67.7013 116.167C67.6923 115.691 67.4728 116.431 67.5159 115.864C67.5608 115.294 67.8128 114.461 67.7387 114.074C67.5731 114.984 67.3959 115.917 67.2257 116.831C66.919 116.744 66.6693 116.393 66.3507 116.374C66.3116 116.372 66.2566 116.868 66.2118 116.879C66.0211 116.922 65.9389 116.545 65.7295 116.647C65.5685 116.728 65.3099 117.212 65.1355 117.312C65.2637 116.258 64.9709 116.563 64.8382 116.436C64.7907 116.392 64.8535 116.116 64.834 116.018C64.7588 115.653 64.6303 116.581 64.5585 116.716C64.2544 117.293 64.691 115.222 64.4785 115.229C64.4682 115.229 64.0953 116.302 64.0615 116.366C63.8471 116.787 64.1282 115.978 64.0749 115.881C63.9755 115.703 63.9488 115.421 63.7231 115.708C63.6582 115.794 63.389 116.453 63.428 115.904C63.4329 115.832 63.5229 115.47 63.5189 115.447C63.4386 115.055 63.1687 116.195 62.9827 116.559C62.7935 116.922 62.8379 116.102 62.8613 115.867C62.9231 115.262 62.9795 115.631 62.9971 115.574C63.207 114.9 63.0752 114.993 63.0083 114.916C63.2617 113.796 63.1337 113.836 62.9378 114.841C62.9166 114.951 63.0043 114.861 63.0083 114.916C62.809 115.568 62.6715 115.866 62.6165 115.769C62.5821 115.705 62.5838 115.469 62.6277 115.05C62.6795 114.555 62.8747 114.01 62.6323 114.168C62.5222 114.239 62.3689 115.016 62.2413 115.207C61.9521 115.643 61.8903 114.868 61.6859 114.937C61.6102 114.962 61.5703 115.398 61.5149 115.43C61.3676 115.514 61.3373 115.172 61.1786 115.304C61.164 115.316 61.0807 115.763 61.0423 115.759C60.7471 115.74 60.5713 115.396 60.2782 115.313C60.1351 115.273 59.8227 115.452 59.6859 115.365C59.453 115.218 59.3021 114.498 59.0474 114.597C58.8804 114.66 58.7972 115.107 58.6585 115.39C58.3891 115.938 58.4536 114.847 58.4679 114.679C58.4685 114.673 58.6168 114.601 58.6109 114.359C58.696 113.88 58.4698 114.677 58.4679 114.679C58.4769 114.57 58.2599 114.407 58.1893 114.478C58.1509 114.517 58.0565 114.936 58.0386 114.949C57.6174 115.235 57.2622 115.254 56.9846 114.973C56.9811 114.963 57.1132 114.501 57.1033 114.483C56.9671 114.226 56.6954 114.762 56.4478 115.057C56.2003 115.352 56.1057 115.206 56.2267 114.384C56.0816 114.453 56.0062 114.055 55.9662 113.815C55.9264 113.575 55.6695 114.474 55.6561 114.49C55.2341 114.989 55.2182 114.43 54.9626 114.275C54.8413 114.199 54.5439 114.259 54.3741 114.319C54.2394 114.367 54.2291 114.137 54.0883 114.244C54.0693 114.258 53.9738 114.664 53.9653 114.678C53.7176 115.127 54.0418 114.16 54.0658 113.978C54.1531 113.317 54.1925 112.963 53.9621 113.222C53.9091 113.281 53.4221 114.668 53.3368 114.733C53.2265 114.816 53.3963 114.317 53.2773 114.417C53.2673 114.425 53.183 114.738 53.1342 114.71C52.9069 114.583 52.6906 114.328 52.4291 114.289C52.3938 114.283 52.3011 114.79 52.2477 114.789C51.9966 114.783 51.7446 114.693 51.5804 114.398C51.5402 114.324 51.672 113.987 51.6883 113.88C51.7864 113.236 51.4286 114.112 51.4062 114.125C50.8676 114.443 50.7754 113.535 50.2411 113.805C50.2123 113.822 49.7604 114.741 49.9142 113.887C49.9242 113.83 50.0846 112.957 49.8516 113.519C49.8371 113.555 49.7627 114.006 49.69 113.938C49.618 113.869 49.3964 114.123 49.4141 113.608C49.4195 113.446 49.5711 112.573 49.2699 113.218C49.2506 113.264 48.6442 114.744 48.8815 113.671C48.9208 113.495 49.247 112.381 48.9527 112.916C48.8961 113.02 48.8713 113.282 48.7608 113.419C48.5924 113.63 48.5391 113.292 48.2722 113.753C48.2253 113.835 47.9165 114.566 48.006 113.97C48.02 113.876 48.1481 113.51 48.1209 113.457C47.9865 113.203 47.7228 113.397 47.6031 113.084C47.5608 112.974 47.7678 112.382 47.7434 112.2C47.7183 112.019 47.6245 111.824 47.4705 112.077C47.3168 112.331 47.1229 113.314 46.9892 113.359C46.5537 113.509 46.2563 113.134 45.9472 112.851L46.0584 112.882C45.9633 112.798 45.8664 112.722 45.7628 112.674C45.698 112.644 45.6642 113.005 45.5628 112.985C45.1871 112.915 44.4636 113.077 44.3261 112.262C44.208 111.607 44.6515 111.239 44.5084 110.949C44.4385 110.811 44.0579 111.912 44.0263 111.942C43.7155 112.248 43.6726 111.709 43.4323 111.813C43.3826 111.835 43.3139 112.302 43.273 112.315C43.1343 112.366 43.049 112.13 42.9227 112.139C42.8655 112.145 42.7922 112.496 42.7502 112.458C42.6492 112.37 42.5815 112.199 42.5428 111.844C42.5393 111.811 42.7126 111.393 42.6289 111.356C42.4924 111.298 42.3991 110.935 42.1539 111.23C42.0819 111.319 41.8934 112.118 41.9185 111.542C41.9237 111.421 42.1746 110.468 41.8615 111.269C41.8109 111.403 41.3439 112.474 41.4111 111.729C41.4287 111.533 41.5434 110.732 41.4568 110.842C41.4443 110.86 41.3762 111.297 41.3185 111.327C41.1155 111.428 40.9412 111.339 40.7364 111.434C40.6795 111.459 40.6485 111.92 40.5667 111.944C40.3412 112.01 40.1273 111.841 39.9617 111.655C39.9023 111.586 40.0384 111.23 40.0426 111.189C40.1125 110.518 39.8566 111.386 39.8169 111.43C39.5673 111.695 39.5312 111.251 39.3438 111.321C39.2905 111.339 39.2222 111.765 39.204 111.8C39.0199 112.142 39.2731 111.407 39.233 111.31C39.1224 111.035 38.9294 111.023 38.7411 111.032C38.6726 111.036 38.6218 111.538 38.5614 111.537C38.1964 111.533 37.8365 111.389 37.5365 111.016C37.4809 110.945 37.6322 110.589 37.6421 110.5C37.7189 109.883 37.3316 110.641 37.2694 110.706C36.9974 111.003 37.0389 110.66 36.8619 110.669C36.4328 110.69 35.9714 110.563 35.3137 110.2C34.7257 109.758 33.5016 109.452 32.4175 106.82C31.9906 105.61 32.1414 104.234 32.4593 103.433C32.9689 102.481 33.4859 102.021 33.7767 101.336C33.8003 101.284 33.3272 101.081 33.3424 101.031C33.5581 100.408 34.0421 100.032 34.2419 99.4832C34.2593 99.4384 33.8221 99.218 33.8373 99.1359C33.8668 98.9641 34.0005 98.8212 34.216 98.7873C34.3202 98.7706 34.599 99.095 34.6965 99.0739C34.9249 99.0244 35.0568 98.9039 35.0988 98.7183C35.1158 98.6388 34.652 98.4305 34.7057 98.3496C35.0601 97.7971 35.3887 97.2486 36.282 97.1766C36.3435 97.1716 37.1424 97.787 37.0507 97.5953C36.8402 97.411 36.5873 97.2004 36.3597 97.0066C36.8117 96.2139 37.65 95.7905 38.2709 95.1887C38.297 95.1633 37.8598 94.8502 37.9084 94.799C38.1927 94.499 38.3546 94.1066 39.0268 94.1663C39.0928 94.1719 39.7617 94.8319 39.7418 94.6458C39.7378 94.6122 39.7711 94.3946 39.6547 94.221C39.6367 94.1952 39.2959 93.9173 39.3265 93.8665C39.5159 93.5701 39.83 93.3873 40.2602 93.3283C40.3292 93.3205 40.6249 93.6863 40.6768 93.6838C41.0466 93.6583 40.9963 93.2018 41.4819 93.3125C41.8055 93.3905 42.3343 94.0041 42.9665 94.4944C43.056 94.5633 43.1426 94.5008 43.4752 94.8219C44.3126 95.6282 45.1845 96.557 46.0813 97.4122C46.2749 97.596 46.1635 97.2996 46.5676 97.8084C46.5947 97.8424 46.6782 98.0626 46.8164 98.2341C46.9121 98.3525 47.2689 98.6602 47.3821 98.8212C47.4953 98.982 47.186 98.7344 47.31 98.9329C47.4347 99.1345 47.8343 99.491 47.7992 99.6171ZM55.7854 112.742C55.8126 112.284 55.3698 113.868 55.5702 113.515C55.5804 113.496 55.7844 112.764 55.7854 112.742ZM66.8986 115.173C66.9123 114.437 66.6283 115.469 66.6116 116.037C66.5962 116.603 66.8954 115.396 66.8986 115.173ZM68.2616 114.875C68.2129 114.287 67.8043 116.584 68.0393 116.145C68.0528 116.12 68.2645 114.909 68.2616 114.875ZM42.834 94.9523C42.8506 94.9666 42.9176 94.9286 42.9033 94.9123C42.5578 94.5184 42.4238 94.5949 42.834 94.9523ZM69.5995 114.499C69.602 114.18 69.4218 114.522 69.4192 114.918C69.4177 115.237 69.5973 114.895 69.5995 114.499ZM51.5713 109.76C51.5765 109.736 51.5306 109.701 51.4943 109.834C51.3773 110.265 51.4835 110.164 51.5713 109.76ZM71.6952 114.781C71.4065 114.646 71.5028 112.712 71.8154 112.981C71.8712 113.029 71.5871 113.567 71.639 113.751C71.732 114.086 72.0192 112.906 72.064 113.571C72.0704 113.692 71.7097 114.793 71.6942 114.784C71.6945 114.783 71.6948 114.782 71.6952 114.781ZM56.2493 110.821C56.2532 110.799 56.1866 110.76 56.1793 110.78C56.0038 111.274 56.138 111.353 56.2493 110.821ZM48.828 107.926C48.8369 107.88 48.6845 107.792 48.6662 107.831C48.3441 108.627 48.6546 108.81 48.828 107.926ZM61.3991 110.931C61.6074 110.441 61.7157 110.405 61.6164 111.06C61.5473 111.007 61.47 110.982 61.3991 110.931Z" fill="black"/>
<path d="M75.5111 119.128C75.2207 119.577 74.5508 119.994 73.9789 120.25C73.7988 120.332 73.6633 120.058 73.5316 120.104C73.2733 120.194 73.2012 120.463 72.9268 120.542C72.8341 120.567 72.5875 120.163 72.4972 120.198C72.0128 120.385 71.7634 120.796 71.3496 121.07C69.2903 122.44 67.5024 124.057 65.6827 125.735C65.0834 126.289 64.109 126.747 63.6917 127.499C63.6433 127.588 63.9865 127.811 63.9993 127.847C64.1385 128.25 63.8882 128.04 63.6603 127.921C63.5783 127.87 63.5005 127.831 63.4547 127.839C63.129 127.886 62.8876 128.036 62.8278 128.068C62.796 128.076 62.8237 128.053 62.8651 127.845C62.9093 127.656 62.9036 127.159 62.6715 126.74C62.4846 126.412 62.6243 126.288 62.7367 126.174C62.8546 126.081 62.8799 125.951 62.476 125.929C62.4306 125.934 62.2771 126.353 62.1484 126.319C61.8451 126.247 61.8207 126.203 61.8506 126.236C61.9009 126.312 61.9382 126.313 62.0761 126.319C62.0869 126.319 62.0981 126.32 62.1097 126.322C62.3373 126.349 62.7211 126.504 63.0597 126.371C63.136 126.34 62.9797 125.914 63.0968 125.825C63.2077 125.736 63.5612 125.728 63.6903 125.815C63.8233 125.902 63.8203 126.252 63.8523 126.328C64.1159 126.969 64.4076 125.989 64.4569 125.959C65.3804 125.431 66.3285 125.83 67.2615 125.703C67.9763 125.605 68.7224 125.333 69.4058 125.274C70.2231 125.206 70.9353 125.364 71.7183 125.237C71.8015 125.224 71.6467 124.719 71.7486 124.702C72.8158 124.525 73.8898 124.471 74.9868 124.709C74.9967 124.712 75.0066 124.714 75.0166 124.716C75.1282 124.741 75.032 125.208 75.1461 125.26C75.8457 125.569 76.9571 126.367 77.1571 124.357C77.6134 124.392 78.1608 124.421 78.592 124.782C78.8698 125.015 78.6692 125.532 78.961 125.292C79.0268 125.239 78.8955 124.815 78.9972 124.767C79.4246 124.568 79.9386 124.662 80.3575 124.399C80.4431 124.344 80.3831 123.958 80.4021 123.886C80.5644 123.301 81.0033 124.204 81.0861 124.265C81.7264 124.717 82.1472 124.478 82.6954 124.441C82.8227 124.433 82.6257 123.925 82.7465 123.899C83.3673 123.768 84.0551 123.751 84.6914 123.928C84.8339 123.968 84.7465 124.423 84.8166 124.465C85.1236 124.645 85.1162 123.801 85.4167 123.957C85.4798 123.989 85.4796 124.372 85.4943 124.413C85.7229 125.053 85.7886 124.112 85.8305 124.087C86.3615 123.758 86.7791 124.698 87.3108 124.513C87.3735 124.49 87.1867 124.022 87.3656 123.987C88.5474 123.75 89.8142 123.774 91.0316 124.057C91.221 124.1 91.1204 124.473 91.1359 124.516C91.3844 125.196 91.4256 124.253 91.4822 124.213C91.9271 123.92 92.4354 124.664 92.6649 123.526C94.6944 123.741 96.6283 122.949 98.6933 123.773C98.7195 123.782 98.714 124.245 98.7662 124.262C99.3939 124.467 99.2021 123.765 99.5339 122.857C99.618 122.629 100.019 123.655 100.052 123.73C100.176 124.006 100.133 124.698 100.171 124.75C100.482 125.159 100.24 122.904 100.6 122.872C100.611 122.875 100.601 123.295 100.635 123.333C100.742 123.454 100.828 123.28 100.935 123.415C101.183 123.727 101.36 124.817 101.628 124.149C101.661 124.063 101.484 122.787 101.811 122.819C101.951 122.832 102.533 122.756 102.697 122.825C102.863 122.893 102.792 123.316 102.805 123.333C103.288 123.838 103.152 124.079 103.448 124.866C103.746 125.65 103.503 123.736 103.572 123.514C103.642 123.292 103.994 123.712 104.091 123.861C104.187 124.009 104.111 124.281 104.192 124.363C104.725 124.895 104.308 123.39 104.432 123.07C104.716 122.315 105.137 123.709 105.486 123.814C105.579 123.842 105.473 123.526 105.548 123.487C105.835 123.34 106.093 123.761 106.398 123.316C106.447 123.244 106.631 122.358 106.895 122.962C106.932 123.049 106.899 123.412 107.042 123.475C107.247 123.572 107.626 123.603 107.819 123.457C107.958 123.349 107.709 122.791 107.919 122.946C108.014 123.015 107.898 123.378 108.086 123.478C108.282 123.577 108.677 123.502 108.842 123.461C108.992 123.423 108.831 122.999 108.839 122.967C108.872 122.788 109.128 122.52 109.137 122.517C109.283 122.48 109.45 122.443 109.487 122.447C109.489 122.452 109.49 122.452 109.416 122.501C109.381 122.526 109.329 122.563 109.259 122.63C109.175 122.71 108.922 122.969 108.875 123.412C108.835 123.89 109.026 124.179 109.161 124.34C109.304 124.502 109.393 124.54 109.42 124.556C109.498 124.595 109.526 124.593 109.527 124.585C108.55 124.003 107.897 123.238 106.932 122.887C106.829 122.849 106.654 123.291 106.636 123.289C106.212 123.268 107.101 122.343 107.093 121.852C106.636 122.689 106.596 122.464 106.318 122.418C106.183 122.396 106.05 122.747 106.021 122.773C105.564 123.151 105.836 122.469 105.885 122.325C106.067 121.797 105.612 122.272 105.734 121.919C105.855 121.569 106.298 121.214 106.089 121.091C105.849 121.343 105.532 122.196 105.295 122.219C104.393 122.3 103.651 120.983 103.221 120.61C102.788 120.238 102.596 120.185 102.392 119.902C102.016 119.383 101.834 120.056 101.357 120.102C100.878 120.146 101.934 118.894 102.084 118.574C102.235 118.254 101.987 118.521 102.04 118.325C102.094 118.13 102.342 118.01 102.256 117.866C102.172 117.722 101.474 118.003 101.227 118.278C100.701 118.858 100.404 119.638 100.228 119.176C100.218 119.149 100.519 118.836 100.469 118.75C100.066 118.083 99.4661 117.655 99.0437 117.021C98.9856 116.933 99.3228 116.586 99.292 116.53C98.9698 115.948 98.701 116.734 97.9371 117.296C98.6575 116.35 98.9101 115.645 98.5434 115.392C98.3227 115.24 98.0736 115.696 97.7262 115.904C97.6216 115.967 97.6599 115.565 97.4969 115.749C96.9617 116.35 96.6172 117.192 96.4314 116.642C96.424 116.617 96.7185 116.289 96.675 116.228C96.3923 115.834 95.8923 116.502 95.4295 116.318C95.07 116.176 94.7824 115.379 94.4641 115.074C95.1996 113.961 94.6875 113.992 94.0487 114.674C93.8331 114.49 93.549 114.369 93.3898 114.115C93.3345 114.028 93.5949 113.736 93.6075 113.695C93.8083 113.046 93.2216 113.733 93.1515 113.73C92.7924 113.697 92.5878 113.477 92.3676 113.285L92.582 113.382C92.3182 113.255 92.0402 113.167 91.6686 113.428C91.6411 113.446 91.4024 114.341 91.4036 113.649C91.4025 113.601 91.6857 113.231 91.421 113.14C91.1615 113.048 90.7081 112.461 90.2587 112.838C90.1461 112.928 89.8411 113.649 89.7127 113.047C89.6949 112.966 89.7469 112.703 89.7231 112.553C89.6405 112.072 89.504 113.001 89.4169 112.198C89.3313 111.394 89.0138 110.778 88.5697 111.322C88.5548 111.338 88.4497 112.079 88.3223 112.068C88.1166 112.049 87.8171 111.903 87.5988 111.919C87.4947 111.926 87.5854 112.383 87.5678 112.393C86.9064 112.689 86.3939 112.33 85.6238 112.264C85.4792 112.252 85.2039 112.934 84.8574 112.494C84.4687 112.015 84.343 109.73 83.7432 110.404C83.4926 110.677 83.7988 113.549 82.9844 112.216C82.1509 112.798 81.103 112.298 80.3299 113.065C80.2952 113.1 80.386 113.907 80.2864 113.924C80.2785 113.926 80.2706 113.926 80.2625 113.925C80.1296 113.913 79.9543 113.615 79.8515 113.622C79.3925 113.648 79.102 114.077 78.6785 114.161C78.5175 114.193 78.454 113.807 78.2613 113.847C78.0705 113.886 78.104 114.411 77.7776 114.258C77.5302 114.141 77.0189 113.211 76.7309 113.177C77.0382 114.158 76.8595 114.194 76.6372 114.551C76.5943 114.62 76.768 114.94 76.7534 114.991C76.6952 115.203 76.5014 114.954 76.4537 115.181C76.4418 115.235 76.549 115.569 76.5459 115.633C76.5226 116.184 75.9793 115.529 75.8845 115.415C75.5292 114.98 75.5732 115.446 75.3602 115.298C75.1456 115.151 75.2948 114.833 75.0791 114.771C74.6345 114.642 74.1811 114.845 73.8041 114.947C73.6534 114.99 73.8957 115.405 73.8774 115.421C73.6055 115.631 73.1471 115.252 73.2509 116.197C72.3253 113.957 73.1326 116.479 72.5507 116.153C72.5041 116.126 72.1247 115.049 72.2087 114.847C72.2914 114.647 72.5995 114.925 72.705 114.619C72.7284 114.547 72.6638 113.447 72.6767 113.375C72.7902 112.81 73.3384 114.425 73.3802 114.51C73.841 115.426 73.8016 114.23 73.8585 114.129C74.1137 113.666 74.4996 113.795 74.7261 113.449C74.8746 113.225 74.5538 112.154 74.7207 112.137C75.2745 112.077 75.9386 113.501 76.0138 112.056C76.0313 111.747 75.549 110.62 76.2245 111.41C76.2669 111.46 76.8199 112.204 76.8119 111.622C76.8108 111.549 76.7003 111.211 76.7181 111.173C76.839 110.931 77.0479 111.161 77.2056 110.967C77.3621 110.774 77.5408 110.504 77.8071 110.545C77.9672 110.57 78.3471 111.144 78.4618 111.278C78.7902 111.665 78.7604 110.87 79.0467 111.374C79.3334 111.881 79.3651 112.776 79.7777 113.033C79.5141 112.146 79.2585 111.232 79.0013 110.338C79.0519 110.325 79.1029 110.313 79.1542 110.302C79.167 110.3 79.2039 110.286 79.2167 110.284C79.8604 110.165 80.5552 110.233 81.1957 110.023C81.2814 109.994 81.0643 109.537 81.1535 109.494C81.532 109.312 81.9711 109.565 82.3605 109.326C82.6613 109.139 82.9119 108.542 83.248 108.335C83.6861 109.323 84.1385 108.865 84.553 108.893C84.697 108.902 84.735 109.182 84.847 109.257C85.2676 109.534 84.9502 108.638 85.031 108.477C85.3931 107.788 85.7247 109.877 86.2167 109.767C86.2387 109.762 86.4629 108.605 86.5095 108.531C86.7771 108.047 86.5952 108.917 86.7915 108.984C87.151 109.109 87.3965 109.363 87.7922 109.019C87.9041 108.917 88.1918 108.207 88.4327 108.752C88.4637 108.823 88.4456 109.196 88.47 109.218C88.9047 109.586 88.9407 108.417 89.2298 108.031C89.5245 107.645 89.895 108.483 89.9518 108.723C90.1132 109.341 89.7686 108.966 89.7516 109.025C89.5685 109.718 89.8602 109.616 90.0679 109.696C89.9921 110.842 90.2753 110.803 90.2835 109.775C90.2835 109.663 90.1055 109.752 90.0679 109.696C90.3579 108.591 90.7608 108.489 90.9754 109.586C91.0722 110.1 90.8285 110.641 91.3519 110.516C91.5921 110.463 91.649 109.669 91.8978 109.498C92.4802 109.11 92.9301 109.979 93.4205 110.001C93.6042 110.011 93.5571 109.546 93.6892 109.539C93.7009 109.539 93.7125 109.538 93.7239 109.539C93.8905 109.606 94.3708 109.787 94.5126 109.897C94.7897 109.971 94.8346 110.353 95.152 110.364C95.182 110.365 95.373 109.949 95.4506 109.992C96.0473 110.311 96.3798 110.871 96.9614 111.259C97.2425 111.446 97.8853 111.568 98.1486 111.802C98.6097 112.206 98.8647 113.166 99.3807 113.317C99.7181 113.419 99.9076 113 100.199 112.823C100.76 112.477 100.577 113.645 100.538 113.819C100.536 113.825 100.237 113.753 100.236 114.032C100.041 114.485 100.534 113.819 100.538 113.819C100.513 113.931 100.936 114.339 101.078 114.33C101.156 114.325 101.367 113.949 101.403 113.953C102.257 114.063 102.954 114.401 103.485 114.999C103.492 115.014 103.207 115.401 103.225 115.431C103.482 115.861 104.044 115.529 104.546 115.445C105.041 115.357 105.223 115.618 104.944 116.423C105.234 116.492 105.357 117.01 105.43 117.323C105.499 117.633 106.038 116.868 106.065 116.864C106.909 116.71 106.911 117.35 107.402 117.763C107.629 117.957 108.208 118.161 108.529 118.238C108.784 118.297 108.801 118.564 109.066 118.559C109.102 118.559 109.289 118.185 109.305 118.176C109.775 117.876 109.152 118.69 109.105 118.873C108.928 119.536 108.864 119.907 109.293 119.793C109.396 119.77 110.294 118.592 110.435 118.571C110.628 118.552 110.327 118.987 110.532 118.951C110.549 118.949 110.697 118.661 110.776 118.718C111.071 118.928 111.347 119.202 111.551 119.315C111.699 119.374 111.865 119.446 112.066 119.55C112.167 119.602 112.276 119.663 112.398 119.738C112.459 119.776 112.522 119.817 112.589 119.863C112.623 119.886 112.657 119.91 112.693 119.936C112.746 119.974 112.818 120.029 112.884 120.083C113.381 120.506 114.354 121.366 114.54 123.207C114.719 125.262 113.343 126.662 113.019 126.913C112.539 127.309 112.704 127.317 112.785 127.427C112.889 127.506 112.858 127.725 112.334 128.014C112.011 128.183 111.902 128.224 111.759 128.286C111.623 128.342 111.501 128.387 111.388 128.426C111.129 128.513 111.045 128.537 110.889 128.579C110.582 128.659 110.4 128.691 110.179 128.72C109.772 128.771 109.405 128.762 109.096 128.686C108.935 128.648 108.979 128.277 108.93 128.176C108.63 127.567 108.498 128.532 108.454 128.556C107.437 129.143 106.558 128.38 105.565 128.889C105.508 128.919 105.192 129.963 104.909 129.122C104.891 129.066 104.61 128.206 104.498 128.823C104.492 128.862 104.65 129.304 104.446 129.277C104.242 129.25 103.94 129.584 103.603 129.113C103.49 128.966 103.213 128.106 103.012 128.83C103 128.881 102.732 130.501 102.481 129.423C102.441 129.245 102.355 128.088 102.101 128.708C102.052 128.828 102.183 129.076 102.041 129.251C101.823 129.521 101.468 129.241 101.207 129.783C101.165 129.878 101.017 130.682 100.787 130.102C100.751 130.011 100.77 129.621 100.672 129.586C100.205 129.418 99.7554 129.717 99.2838 129.489C99.1147 129.409 99.1433 128.778 98.9602 128.626C98.7771 128.473 98.4179 128.342 98.2747 128.641C98.1264 128.942 98.4012 129.92 98.148 130.022C97.0213 130.466 95.8552 129.978 94.7144 129.989C94.5431 129.991 94.715 130.335 94.4637 130.363C93.5566 130.467 92.0088 130.935 91.1404 130.248C90.4527 129.697 91.207 129.168 90.7062 128.963C90.4651 128.865 90.3121 130.043 90.2588 130.084C89.7417 130.501 89.2957 130.024 88.8241 130.223C88.7251 130.265 88.8657 130.725 88.7809 130.755C88.4916 130.862 88.1591 130.68 87.8743 130.743C87.7465 130.773 87.8016 131.129 87.6799 131.111C87.3891 131.074 87.1359 130.945 86.8317 130.634C86.8041 130.605 86.933 130.146 86.724 130.147C86.3862 130.151 85.9334 129.858 85.5724 130.234C85.4679 130.347 85.5363 131.165 85.2411 130.622C85.1791 130.509 85.158 129.521 84.9466 130.395C84.9112 130.54 84.5296 131.727 84.2238 131.011C84.1433 130.823 83.9099 130.034 83.7807 130.173C83.7635 130.194 83.8791 130.627 83.7666 130.68C83.3807 130.859 82.9559 130.85 82.5516 131.025C82.4437 131.073 82.6507 131.512 82.4885 131.569C82.038 131.726 81.4673 131.661 81.0115 131.559C80.8431 131.521 80.9216 131.134 80.906 131.094C80.6535 130.446 80.6222 131.355 80.5633 131.414C80.1963 131.764 79.8471 131.37 79.5004 131.515C79.4035 131.554 79.5139 131.976 79.4976 132.016C79.3263 132.409 79.4084 131.625 79.2699 131.552C78.8818 131.346 78.4739 131.418 78.1035 131.508C77.9675 131.542 78.1692 132.025 78.0465 132.049C77.3278 132.203 76.5788 132.226 75.8347 132.02C75.6949 131.981 75.7431 131.59 75.7067 131.505C75.6779 131.437 75.6497 131.389 75.6223 131.356C75.4097 131.099 75.2497 131.783 75.2008 131.859C74.9508 132.249 74.8032 131.922 74.5529 132.011C73.3405 132.45 71.7925 132.392 70.6032 132.396C69.0599 132.401 67.8467 132.194 66.393 132.497C66.3023 132.516 66.4676 133.009 66.389 133.032C65.3362 133.298 64.396 133.273 62.8856 133.541C62.7547 133.56 62.9788 134.032 62.7623 134.079C62.5993 134.114 62.4111 134.136 62.2032 134.138C61.7732 134.144 61.2625 134.075 60.7578 133.901C60.3773 133.766 60.96 133.438 60.5898 133.309C59.7853 132.942 58.2897 132.809 56.652 130.723C56.0587 129.798 56.4764 131.547 55.7484 130.203C54.445 126.837 55.692 125.259 56.041 124.382C56.5415 123.475 57.0035 122.956 57.4706 122.509C57.8574 122.182 58.2936 121.898 58.8096 121.683C58.9041 121.644 59.7085 122.256 59.6942 121.983C59.4959 121.785 59.2506 121.566 59.0325 121.361C60.2052 119.815 61.7609 118.661 63.1352 117.314C63.1936 117.256 62.711 116.987 62.8223 116.874C63.4618 116.223 63.9803 115.484 65.0165 115.197C65.1191 115.168 65.7468 115.869 65.8412 115.574C65.8588 115.52 66.0557 115.147 65.9916 114.924C65.9803 114.892 65.6181 114.633 65.7043 114.53C66.2081 113.939 66.86 113.445 67.6136 113.099C67.7373 113.043 67.9593 113.476 68.0497 113.439C68.6832 113.181 68.9466 112.451 69.7265 112.33C70.2531 112.25 70.6472 112.977 71.3437 113.429C71.4359 113.496 71.6707 113.328 71.9646 113.687C72.7024 114.585 73.4182 115.642 74.219 116.588C74.3036 116.692 74.3413 116.655 74.3778 116.681C74.4132 116.707 74.4619 116.782 74.6495 117.045C74.6851 117.071 74.7265 117.311 74.8306 117.509C74.9079 117.642 75.2411 117.976 75.3271 118.156C75.412 118.337 75.1091 118.077 75.1767 118.32C75.2402 118.57 75.6409 118.929 75.5111 119.128ZM105.744 118.711C105.678 119.203 106.599 117.839 106.192 118.045C106.172 118.057 105.747 118.686 105.744 118.711ZM80.8362 111.449C81.3022 112.073 81.2123 110.992 80.8686 110.505C80.5216 110.019 80.6937 111.26 80.8362 111.449ZM78.1511 112.813C78.639 113.257 77.9761 111.02 77.7826 111.578C77.7713 111.609 78.1227 112.788 78.1511 112.813ZM70.7259 114.271C70.7399 114.288 70.8934 114.178 70.8808 114.16C70.605 113.706 70.3019 113.922 70.7259 114.271ZM75.5891 114.249C75.7833 114.518 75.9505 114.081 75.7094 113.747C75.5161 113.477 75.3478 113.914 75.5891 114.249ZM105.578 124.611C105.573 124.587 105.446 124.578 105.463 124.716C105.517 125.159 105.677 125.016 105.578 124.611ZM70.9347 115.729C71.6476 115.605 72.6363 117.317 71.8146 117.34C71.6667 117.344 71.9306 116.663 71.7053 116.55C71.2979 116.343 71.4364 117.565 70.9211 117.043C70.8284 116.947 70.8949 115.731 70.9352 115.726C70.935 115.727 70.9349 115.728 70.9347 115.729ZM104.772 120.435C104.764 120.456 104.898 120.567 104.913 120.551C105.274 120.163 105.006 119.94 104.772 120.435ZM98.2684 124.261C98.25 124.216 97.8578 124.207 97.8481 124.25C97.7161 125.119 98.5187 125.14 98.2684 124.261ZM94.4778 115.04C94.0336 115.378 93.8153 115.31 94.049 114.675C94.1856 114.806 94.3381 114.911 94.4778 115.04Z" fill="black"/>
<path d="M106.497 64.0684C106.902 64.2552 107.169 64.7439 107.278 65.1665C107.312 65.2977 107.058 65.4537 107.071 65.5527C107.096 65.7446 107.307 65.7626 107.307 65.9643C107.307 66.0325 106.923 66.2967 106.93 66.3607C106.969 66.7077 107.239 66.8365 107.348 67.1133C107.898 68.4955 108.553 69.6287 109.173 70.8446C109.376 71.244 109.339 71.9199 109.747 72.1915C109.794 72.2225 110.111 71.9679 110.145 71.9573C110.656 71.7998 109.951 72.2175 109.918 72.3635C109.793 72.9435 110.009 73.3357 110.354 73.5809C110.502 73.6843 111.087 73.1064 110.799 73.493C110.779 73.5193 110.395 73.7172 110.381 73.7803C110.35 73.9228 110.52 74.0462 110.534 74.1323C110.56 74.2991 110.577 74.3188 110.651 74.4448C110.748 74.6189 110.691 74.9324 110.885 75.0635C110.928 75.091 111.273 74.8085 111.375 74.832C111.478 74.8557 111.546 75.0408 111.491 75.1506C111.436 75.2604 111.124 75.4157 111.062 75.4667C110.536 75.8931 111.447 75.6052 111.482 75.6192C112.087 75.8715 111.857 76.5303 112.098 76.9564C112.283 77.2804 112.629 77.5481 112.776 77.8745C112.951 78.2655 112.905 78.6941 113.128 79.0441C113.151 79.0813 113.591 78.8014 113.62 78.8468C113.931 79.329 114.131 79.8719 114.051 80.5363C114.043 80.6028 113.598 80.7267 113.565 80.8041C113.371 81.2784 112.757 82.1161 114.662 81.5293C114.686 81.7809 114.722 82.0788 114.431 82.426C114.244 82.6493 113.734 82.7112 113.992 82.7867C114.05 82.804 114.436 82.5978 114.492 82.6366C114.729 82.8015 114.69 83.0939 114.984 83.2416C115.045 83.2711 115.405 83.1233 115.476 83.1121C116.051 83.0276 115.235 83.5342 115.185 83.5949C114.813 84.0686 115.077 84.2219 115.158 84.5095C115.177 84.5776 115.648 84.3366 115.685 84.3972C115.866 84.7146 115.929 85.0814 115.8 85.4833C115.769 85.5721 115.321 85.6221 115.284 85.67C115.153 85.8432 115.703 85.7432 115.81 85.8214C115.832 85.8395 115.837 85.8649 115.815 85.9006C115.788 85.9458 115.413 86.0189 115.374 86.0357C114.76 86.2911 115.685 86.1545 115.712 86.1788C116.063 86.4546 115.148 86.8514 115.33 87.1271C115.353 87.162 115.817 87.0042 115.852 87.1093C116.092 87.8144 115.993 88.6327 115.571 89.3043C115.506 89.4086 115.148 89.3122 115.103 89.3171C114.401 89.3815 115.33 89.5046 115.362 89.5443C115.595 89.8451 114.788 89.9962 115.868 90.326C115.335 91.4265 115.6 92.7462 114.263 93.4183C114.248 93.4268 113.828 93.2353 113.798 93.2525C113.44 93.4523 114.128 93.6591 114.845 94.2114C115.024 94.3535 113.986 94.0878 113.91 94.0669C113.628 93.999 113.023 93.6707 112.966 93.6641C112.513 93.6116 114.59 94.5237 114.502 94.7155C114.495 94.7197 114.129 94.5192 114.084 94.5172C113.943 94.5099 114.071 94.6278 113.919 94.6129C113.567 94.5784 112.562 94.1279 113.061 94.5639C113.126 94.6208 114.294 95.1611 114.157 95.2986C114.102 95.3531 113.973 95.6486 113.857 95.6878C113.741 95.7273 113.405 95.4772 113.386 95.4745C112.793 95.4204 112.635 95.2336 111.87 94.941C111.11 94.6452 112.811 95.5538 112.975 95.7004C113.139 95.847 112.662 95.773 112.505 95.7296C112.348 95.6868 112.145 95.5118 112.05 95.4986C111.429 95.4121 112.826 96.0693 113.049 96.2939C113.574 96.8311 112.268 96.2297 112.061 96.2998C112.004 96.3196 112.302 96.4572 112.306 96.5087C112.317 96.7122 111.888 96.5575 112.133 96.9345C112.174 96.9949 112.813 97.5907 112.229 97.332C112.145 97.2942 111.868 97.0671 111.763 97.0824C111.605 97.1044 111.438 97.2162 111.475 97.3752C111.502 97.493 112.043 97.741 111.833 97.7267C111.739 97.7199 111.502 97.4567 111.351 97.4591C111.199 97.4615 111.089 97.6494 111.051 97.7248C111.014 97.8 111.405 98.0165 111.426 98.0391C111.544 98.1707 111.626 98.4277 111.618 98.4393C111.241 99.0696 110.244 99.1507 110.019 99.8489C110.001 99.9035 110.394 100.162 110.395 100.173C110.436 100.442 109.539 99.5611 109.13 99.4063C109.894 99.9764 109.711 99.9309 109.713 100.098C109.714 100.18 110.026 100.38 110.052 100.408C110.435 100.828 109.824 100.433 109.698 100.354C109.232 100.066 109.695 100.517 109.383 100.324C109.074 100.133 108.714 99.7252 108.642 99.8263C108.888 100.066 109.644 100.547 109.698 100.712C109.9 101.337 108.93 101.422 108.693 101.597C108.454 101.773 108.444 101.884 108.242 101.935C107.878 102.025 108.458 102.362 108.571 102.699C108.683 103.038 107.491 101.927 107.205 101.724C106.919 101.52 107.177 101.773 107.008 101.675C106.84 101.577 106.702 101.37 106.598 101.383C106.494 101.396 106.837 101.955 107.1 102.211C107.658 102.752 108.343 103.2 107.992 103.174C107.972 103.172 107.668 102.868 107.606 102.875C107.124 102.938 106.871 103.208 106.42 103.292C106.357 103.303 106.02 102.964 105.98 102.967C105.97 102.968 105.961 102.969 105.953 102.97L105.96 102.962C105.593 102.995 106.239 103.454 106.773 104.16C105.923 103.331 105.328 102.907 105.171 103.067C105.076 103.163 105.473 103.497 105.683 103.808C105.747 103.902 105.42 103.732 105.588 103.909C106.135 104.491 106.853 105.028 106.434 104.959C106.415 104.955 106.116 104.636 106.073 104.644C105.791 104.694 106.386 105.278 106.293 105.528C106.221 105.723 105.615 105.631 105.405 105.736C104.428 104.828 104.512 105.187 105.131 105.873C105.007 105.952 104.941 106.1 104.754 106.114C104.69 106.12 104.428 105.835 104.393 105.811C103.85 105.434 104.465 106.086 104.47 106.133C104.495 106.609 103.813 106.347 104.084 107.03C104.094 107.055 104.762 107.697 104.208 107.3C104.17 107.273 103.931 106.909 103.806 106.997C103.681 107.084 103.125 106.954 103.3 107.398C103.342 107.505 103.809 108.108 103.308 107.784C103.24 107.74 103.054 107.549 102.932 107.463C102.543 107.19 103.208 107.85 102.573 107.366C101.937 106.881 101.394 106.592 101.656 107.118C101.663 107.133 102.176 107.672 102.123 107.713C102.038 107.777 101.823 107.782 101.752 107.866C101.719 107.906 102.081 108.194 102.081 108.206C102.033 108.64 101.561 108.547 101.174 108.706C101.102 108.735 101.432 109.305 100.975 109.069C100.487 108.819 98.9878 107.264 99.062 107.745C99.0527 107.752 99.0329 107.781 99.0238 107.788C99.026 107.802 99.0295 107.818 99.0343 107.835C99.1011 108.088 101.18 110.075 99.8859 109.302C99.8592 109.906 98.9998 109.744 99.0873 110.445C99.0905 110.477 99.6508 111.054 99.6089 111.085C99.5454 111.131 99.2365 110.915 99.183 110.939C98.9504 111.032 99.0531 111.399 98.8715 111.527C98.8031 111.576 98.5325 111.298 98.4525 111.354C98.3728 111.411 98.7045 111.805 98.4345 111.736C98.2271 111.685 97.3915 111.054 97.213 111.069C97.967 111.768 97.8918 111.819 97.9808 112.123C97.9981 112.182 98.2842 112.4 98.306 112.44C98.399 112.611 98.1455 112.448 98.2538 112.627C98.2798 112.67 98.537 112.909 98.5727 112.958C98.8845 113.382 98.1976 112.961 98.0784 112.887C97.6245 112.608 97.9239 112.957 97.7199 112.874C97.5154 112.791 97.409 112.529 97.2544 112.511C96.9322 112.478 96.8033 112.698 96.6591 112.826C96.6022 112.88 96.9792 113.164 96.9789 113.179C96.9508 113.382 96.4807 113.153 97.0928 113.863C95.2658 112.282 97.1955 114.095 96.6843 113.93C96.6433 113.917 95.8027 113.144 95.7301 112.978C95.658 112.811 95.9859 112.984 95.8653 112.732C95.8374 112.673 95.1529 111.84 95.1177 111.783C94.8445 111.336 96.0963 112.494 96.1695 112.553C96.9626 113.186 96.2354 112.278 96.2051 112.194C96.0746 111.801 96.3582 111.85 96.2787 111.553C96.2267 111.363 95.4166 110.593 95.4978 110.556C95.7623 110.438 96.9726 111.425 96.1527 110.32C95.9778 110.085 95.0397 109.301 95.8795 109.806C95.933 109.837 96.6764 110.326 96.3237 109.888C96.279 109.833 96.0154 109.593 96.0026 109.563C95.9209 109.365 96.1715 109.511 96.1381 109.345C96.1026 109.182 96.0335 108.956 96.1972 108.954C96.2972 108.951 96.8498 109.327 96.993 109.41C97.4068 109.648 96.8954 109.069 97.3598 109.399C97.8261 109.73 98.3986 110.388 98.7779 110.514C98.0866 109.9 97.3813 109.264 96.6877 108.645C96.9298 108.418 97.3662 108.369 97.5535 108.085C97.5762 108.049 97.1692 107.76 97.1834 107.714C97.2451 107.519 97.6241 107.619 97.6497 107.369C97.6681 107.175 97.384 106.696 97.4024 106.471C97.5306 106.56 97.6379 106.626 97.7283 106.674C97.7448 106.661 97.781 106.608 97.7979 106.596C98.3095 106.9 98.261 106.582 98.4251 106.525C98.4921 106.501 98.698 106.695 98.7961 106.724C99.1612 106.83 98.4177 106.257 98.3402 106.124C98.0105 105.554 99.5837 106.97 99.7019 106.763C99.7086 106.753 98.9787 105.879 98.9411 105.816C98.6927 105.41 99.2453 106.066 99.3625 106.061C99.5766 106.053 99.8457 106.158 99.7219 105.805C99.6846 105.701 99.2508 105.134 99.7188 105.428C99.7801 105.467 100.05 105.725 100.073 105.732C100.47 105.837 99.6116 105.04 99.3941 104.691C99.1766 104.341 99.8859 104.765 100.081 104.898C100.585 105.241 100.223 105.123 100.264 105.167C100.743 105.686 100.737 105.513 100.844 105.485C101.698 106.254 101.736 106.11 100.952 105.452C100.867 105.38 100.896 105.506 100.844 105.485C100.072 104.66 100.064 104.456 100.946 105.053C101.36 105.333 101.735 105.775 101.734 105.466C101.733 105.326 101.125 104.818 101.029 104.605C100.808 104.119 101.533 104.422 101.592 104.186C101.614 104.101 101.244 103.862 101.248 103.794C101.257 103.611 101.58 103.74 101.553 103.524C101.551 103.504 101.197 103.219 101.222 103.183C101.409 102.903 101.818 102.888 102.059 102.639C102.175 102.518 102.194 102.129 102.348 102.036C102.614 101.873 103.349 102.048 103.404 101.751C103.441 101.559 103.083 101.279 102.903 101.018C102.556 100.511 103.51 101.057 103.655 101.145C103.66 101.148 103.642 101.326 103.865 101.427C104.252 101.722 103.656 101.148 103.655 101.145C103.711 101.179 103.829 101.142 103.91 101.085L103.822 101.186C103.876 101.145 103.912 101.095 103.9 101.055C103.884 101.001 103.543 100.738 103.541 100.715C103.495 100.171 103.658 99.8071 104.06 99.6395C104.071 99.6399 104.433 99.9558 104.455 99.9528C104.762 99.9182 104.402 99.4316 104.25 99.0684C104.098 98.7054 104.279 98.6701 104.984 99.1122C104.991 98.94 105.397 99.0206 105.64 99.0731C105.883 99.1256 105.169 98.5215 105.161 98.5022C104.897 97.89 105.422 98.0921 105.685 97.8972C105.812 97.8058 105.89 97.4894 105.908 97.3004C105.921 97.1501 106.141 97.225 106.102 97.0472C106.097 97.0234 105.758 96.7803 105.748 96.7667C105.433 96.3601 106.2 97.0325 106.36 97.1228C106.942 97.4509 107.26 97.6161 107.115 97.2936C107.082 97.2189 105.983 96.2425 105.955 96.1375C105.922 96.0017 106.321 96.3448 106.275 96.1942C106.272 96.1816 106.012 95.9881 106.057 95.9513C106.265 95.7779 106.586 95.6599 106.717 95.4213C106.736 95.3896 106.291 95.1279 106.311 95.0778C106.404 94.8432 106.571 94.6374 106.901 94.5797C106.984 94.5661 107.261 94.7984 107.357 94.848C107.937 95.1451 107.22 94.5269 107.215 94.503C107.073 93.9018 107.964 94.0863 107.838 93.5111C107.831 93.4768 107.049 92.8206 107.833 93.1905C107.885 93.2159 108.69 93.5895 108.199 93.2295C108.168 93.2074 107.75 93.022 107.831 92.9745C107.912 92.9256 107.708 92.6681 108.199 92.8101C108.354 92.8562 109.173 93.1948 108.602 92.7711C108.564 92.7379 107.223 91.8722 108.224 92.3235C108.388 92.3978 109.42 92.9302 108.945 92.5493C108.852 92.4766 108.602 92.3991 108.484 92.2726C108.302 92.0804 108.635 92.1035 108.214 91.7847C108.14 91.7271 107.455 91.3305 108.025 91.5214C108.114 91.5508 108.46 91.7271 108.513 91.7137C108.77 91.6484 108.597 91.3924 108.905 91.3448C109.013 91.326 109.585 91.5835 109.765 91.5846C109.944 91.5861 110.143 91.5171 109.896 91.3573C109.648 91.1995 108.686 90.9256 108.64 90.8173C108.433 90.3594 109.085 90.2061 109.24 89.8782C109.262 89.8315 108.904 89.8009 108.911 89.7311C108.939 89.4565 108.644 89.0651 109.405 88.8863C110.016 88.7198 110.475 88.9659 110.725 88.8157C110.844 88.7324 109.682 88.6635 109.645 88.6531C109.271 88.5165 109.778 88.3906 109.609 88.2657C109.573 88.2416 109.108 88.3132 109.083 88.2942C108.995 88.2329 109.194 88.1318 109.146 88.0675C109.123 88.0391 108.769 88.1005 108.792 88.0701C108.843 87.9974 108.981 87.9151 109.297 87.7786C109.325 87.7651 109.773 87.7209 109.777 87.66C109.781 87.5851 109.958 87.4494 109.87 87.3764C109.841 87.3463 109.79 87.3222 109.706 87.3081C109.594 87.2891 108.802 87.5054 109.322 87.2597C109.431 87.2083 110.387 86.9673 109.535 87.0838C109.393 87.0997 108.237 87.2402 108.919 86.9378C109.098 86.8578 109.85 86.5568 109.711 86.5372C109.689 86.5357 109.278 86.697 109.222 86.6642C109.034 86.5459 109.024 86.3638 108.837 86.2428C108.786 86.211 108.377 86.4233 108.315 86.3722C108.145 86.2315 108.177 85.9744 108.244 85.7471C108.27 85.6631 108.641 85.576 108.678 85.557C109.275 85.2439 108.412 85.5148 108.353 85.5086C107.999 85.4635 108.348 85.1908 108.184 85.0836C108.14 85.0539 107.752 85.2427 107.713 85.2488C107.332 85.3058 108.074 85.0796 108.132 84.9945C108.295 84.7539 108.194 84.601 108.079 84.4701C108.037 84.4225 107.603 84.6795 107.57 84.6351C107.367 84.3762 107.278 84.0578 107.397 83.6554C107.42 83.5794 107.785 83.4529 107.859 83.405C108.381 83.0688 107.566 83.3042 107.482 83.3124C107.096 83.3473 107.382 83.1558 107.274 83.0771C106.744 82.6991 106.626 81.9673 106.489 81.4151C106.311 80.6991 106.353 80.0247 105.92 79.4693C105.893 79.4339 105.473 79.7302 105.444 79.7033C105.092 79.3456 105.015 78.8304 104.63 78.4913C104.599 78.4632 104.218 78.7683 104.155 78.7323C104.024 78.6605 103.958 78.5066 104.017 78.3113C104.045 78.2165 104.443 78.0671 104.464 77.9758C104.513 77.7625 104.454 77.6054 104.303 77.5153C104.237 77.4774 103.876 77.8322 103.824 77.7625C103.461 77.2939 103.074 76.8718 103.258 76.014C103.271 75.9556 104.075 75.3473 103.866 75.3863C103.634 75.542 103.365 75.7317 103.119 75.9016C102.494 75.2938 102.273 74.4103 101.788 73.7119C101.767 73.6824 101.387 74.0628 101.346 74.008C101.105 73.6924 100.757 73.5014 100.906 72.8587C100.92 72.7951 101.647 72.1995 101.462 72.2021C101.428 72.2028 101.218 72.1522 101.036 72.2542C101.009 72.27 100.7 72.5825 100.654 72.5496C100.39 72.3498 100.247 72.0447 100.233 71.643C100.23 71.5762 100.604 71.2917 100.605 71.2409C100.603 70.8814 100.163 70.9444 100.296 70.4878C100.378 70.1728 100.97 69.6214 101.439 68.9738C101.505 68.8819 101.438 68.7979 101.742 68.4493C102.504 67.571 103.399 66.664 104.207 65.7241C104.381 65.5211 104.044 65.6074 104.558 65.201C104.593 65.1737 104.844 65.1109 105.018 64.9742C105.139 64.8797 105.42 64.4995 105.591 64.3929C105.762 64.2873 105.539 64.6179 105.761 64.5129C105.983 64.4058 106.325 63.9928 106.497 64.0684ZM106.73 99.302C107.145 99.5025 105.875 98.4564 106.111 98.7915C106.123 98.8089 106.709 99.2923 106.73 99.302ZM98.3084 109.175C98.9506 109.541 98.1983 108.778 97.7097 108.488C97.2228 108.196 98.1144 109.064 98.3084 109.175ZM97.767 110.596C98.3018 110.856 96.5785 109.284 96.8172 109.724C96.8304 109.749 97.7359 110.581 97.767 110.596ZM101.912 69.1087C101.926 69.0919 101.883 69.0211 101.867 69.0355C101.476 69.3836 101.557 69.5211 101.912 69.1087ZM97.2253 112.042C97.4906 112.22 97.324 111.864 96.9929 111.644C96.7268 111.467 96.8953 111.82 97.2253 112.042ZM111.373 95.8848C111.395 95.8962 111.446 95.8546 111.327 95.7837C110.944 95.5555 111.007 95.6932 111.373 95.8848ZM95.5568 113.838C95.8678 113.642 97.4174 114.81 96.9802 114.951C96.9018 114.976 96.6465 114.412 96.457 114.358C96.1129 114.259 96.9084 115.177 96.3202 114.853C96.2134 114.793 95.5364 113.846 95.5553 113.836C95.5558 113.837 95.5563 113.838 95.5568 113.838ZM108.304 100.498C108.322 100.51 108.392 100.456 108.377 100.44C108 100.076 107.858 100.184 108.304 100.498ZM113.932 93.0257C113.978 93.0377 114.092 92.8533 114.054 92.8322C113.286 92.4454 113.062 92.7932 113.932 93.0257ZM105.377 105.714C105.699 106.14 105.668 106.265 105.132 105.873C105.221 105.827 105.289 105.762 105.377 105.714Z" fill="black"/>
</svg>
