<svg width="150" height="150" viewBox="0 0 150 150" fill="none" xmlns="http://www.w3.org/2000/svg">
<path d="M79.5071 42.6534C78.422 43.0286 76.7007 43.3606 75.3471 43.566C74.9317 43.6281 75.0456 43.2866 74.7459 43.3206C74.1607 43.3881 73.6749 43.6981 73.1043 43.7469C72.9085 43.7639 72.9876 43.2502 72.7844 43.2786C71.6718 43.438 70.7152 43.8976 69.6217 44.1865C64.2135 45.6235 58.9833 47.5389 53.6289 49.5354C52.7616 49.8606 51.84 50.1235 50.8436 50.4471C49.7693 50.7951 48.7153 51.1599 47.8006 51.6387C47.5976 51.7456 47.8774 52.0689 47.8499 52.1164C47.4099 52.8493 47.3054 52.0078 46.8477 52.0769C45.0376 52.3505 43.1848 53.0453 41.6333 53.8101C40.9799 54.1338 41.9548 54.6222 41.0999 54.4656C41.0407 54.4556 41.0623 53.9865 40.8566 54.016C40.3874 54.0849 39.6248 54.4551 39.2722 54.5502C38.6063 54.7264 38.5214 54.7624 37.9037 54.9845C37.0757 55.2776 36.0242 55.4294 35.1624 55.836C34.9792 55.9239 35.3777 56.2516 35.0989 56.4291C34.8257 56.6049 33.998 56.852 33.6957 56.845C33.3922 56.8387 33.3954 56.4711 33.3221 56.4121C32.7097 55.9129 32.0782 57.1041 31.9615 57.1663C29.8764 58.268 27.8132 58.3522 25.7163 58.9432C24.1155 59.3949 22.4337 60.0054 20.8598 60.3263C19.5067 60.6004 18.262 60.704 16.9608 60.8339C16.8655 60.8419 16.8034 60.8495 16.7964 60.8476C16.7968 60.8451 16.8273 60.8387 16.9221 60.8013C16.9874 60.7734 17.1274 60.7232 17.3503 60.5608C17.468 60.4694 17.5795 60.3865 17.7649 60.1507C18.0178 59.8416 18.2604 59.2226 18.1929 58.6509C18.1666 58.3698 18.086 58.1239 17.9957 57.935C17.9033 57.7482 17.8699 57.707 17.8083 57.617C17.696 57.4609 17.5957 57.3618 17.515 57.2889C17.3522 57.1455 17.2615 57.1001 17.2358 57.0835C17.1598 57.04 17.1422 57.0356 17.1517 57.039C17.1608 57.0433 17.2583 57.0785 17.3325 57.1C17.4664 57.1403 17.4671 56.5949 17.6403 56.6446C19.7734 57.2057 22.3019 57.8934 24.5598 58.9463C24.7859 59.0512 24.3504 59.3961 24.5684 59.5272C25.9269 60.3202 27.8959 61.9139 29.4023 60.3423C30.3611 60.7551 31.5266 61.2646 32.2401 61.9641C32.7079 62.4179 31.9889 62.6735 32.7487 62.7394C32.9173 62.7543 32.877 62.2723 33.1192 62.3259C34.1481 62.5557 35.1543 63.1183 36.1923 63.3168C36.4033 63.356 36.504 62.9757 36.5865 62.9347C37.2758 62.6111 37.6741 63.8129 37.8065 63.9475C38.8675 64.9798 39.8635 65.2277 41.0098 65.8041C41.2773 65.9395 41.1903 65.3132 41.4573 65.4276C42.7352 65.983 43.9877 66.6756 45.104 67.5079C45.1894 67.5727 45.2737 67.6378 45.3572 67.7033C45.602 67.8967 45.1407 68.1531 45.2474 68.2657C45.7262 68.7585 46.2443 68.08 46.7143 68.527C46.8139 68.6199 46.5746 68.9259 46.5768 68.9741C46.6131 69.7313 47.3312 69.0476 47.4238 69.0705C48.6375 69.3552 48.9366 70.5657 50.0907 70.9214C50.2283 70.9622 50.1273 70.3923 50.5007 70.5329C52.9854 71.4651 55.5727 72.5398 57.9976 73.728C58.3752 73.9124 57.9814 74.1662 57.9925 74.2167C58.1841 75.0123 58.7368 74.2058 58.8748 74.2127C59.9716 74.2942 60.7023 75.339 61.7317 74.4901C62.4504 74.7797 63.1809 75.0426 63.9186 75.2969C67.4725 76.5295 71.1764 77.2424 74.5908 79.0891C74.6432 79.1162 74.4157 79.5302 74.5206 79.5825C75.7831 80.2185 75.7247 79.4561 76.8624 78.88C77.15 78.7359 77.5238 79.9537 77.5605 80.0462C77.6948 80.3858 77.2692 80.9728 77.3258 81.0479C77.462 81.2202 77.606 81.1609 77.762 80.995C78.1405 80.5772 78.4704 79.4849 78.7616 79.5097C78.7779 79.5147 78.6794 79.9258 78.7202 79.9705C78.8587 80.1111 79.0042 79.9452 79.1625 80.0776C79.5169 80.3783 79.9637 81.4349 80.4761 80.6134C80.5349 80.5036 80.0276 79.3334 80.6249 79.173C80.862 79.1219 81.9517 78.5868 82.3116 78.4862C82.6657 78.3971 82.6398 78.8769 82.6706 78.8812C83.7998 78.9077 83.5663 79.2853 84.402 79.7575C85.2283 80.2285 84.1838 78.6017 84.2609 78.3144C84.3371 78.0283 85.2047 78.067 85.4341 78.1203C85.6683 78.171 85.5974 78.5105 85.7814 78.5109C87.0004 78.5053 85.7319 77.4467 85.897 77.0076C86.2868 75.9698 87.5437 76.9179 88.2823 76.6895C88.482 76.6279 88.1822 76.4171 88.3319 76.3048C88.9343 75.8615 89.5256 76.0608 90.0866 75.3278C90.184 75.205 90.4085 74.1393 91.0863 74.517C91.1811 74.5729 91.1766 74.9689 91.4913 74.9086C91.9564 74.8211 92.7535 74.5416 93.163 74.2307C93.4687 73.9991 92.8427 73.6335 93.3434 73.6126C93.5633 73.6053 93.3541 74.0714 93.7553 74.0321C94.1571 73.9912 95.0563 73.5953 95.4023 73.4424C95.7488 73.2878 95.3891 72.9537 95.406 72.9144C95.5126 72.6845 96.0977 72.2199 96.1617 72.196C97.1454 71.7897 98.1268 71.4978 99.1318 71.2395C101.138 70.7291 103.127 70.3276 105.035 69.4777C105.256 69.3798 104.948 68.9903 104.98 68.9708C105.697 68.5094 105.495 69.9044 106.185 70.1044C105.788 69.2339 106.174 69.281 106.686 68.9897C106.932 68.8488 106.666 68.5513 106.678 68.5072C106.892 67.8375 107.408 68.4235 107.528 68.5383C107.971 68.9598 108.036 68.2546 108.336 68.535C108.636 68.8126 108.4 69.4635 108.933 69.2688C108.97 68.8944 108.278 68.1926 108.635 67.9139C109.975 66.8633 113.043 66.5314 114.292 66.1749C115.541 65.818 115.915 65.6221 116.664 65.4942C118.033 65.2584 117.327 64.802 118.041 64.237C118.745 63.6762 118.88 65.35 119.108 65.6417C119.331 65.9352 119.342 65.5509 119.546 65.6846C119.749 65.8184 119.521 66.1475 119.875 66.1029C120.224 66.06 120.933 65.1631 120.929 64.7786C120.928 63.9614 120.257 63.3286 121.232 63.3025C121.287 63.3017 121.261 63.762 121.466 63.7385C123.097 63.5391 124.706 63.0298 126.337 62.8211C126.561 62.7933 126.515 63.3068 126.646 63.296C128.016 63.1875 127.322 62.5638 127.769 61.4959C127.953 62.6808 128.554 63.2523 129.522 62.981C130.115 62.8174 129.864 62.3504 130.156 61.8918C130.237 61.7554 130.757 61.9862 130.766 61.7328C130.811 61.0244 130.379 60.3636 130.937 60.2337C131.027 60.2131 131.147 60.2096 131.303 60.2245C131.349 60.2298 131.325 60.687 131.478 60.6742C131.973 60.6321 132.189 60.389 132.356 60.1178C132.437 59.9831 132.515 59.8351 132.548 59.7188C132.556 59.669 132.579 59.5932 132.431 59.6661C132.387 59.6925 132.332 59.7261 132.238 59.8299C132.153 59.9326 131.982 60.1161 131.899 60.5564C131.8 61.0198 132.028 61.6087 132.232 61.829C132.421 62.0578 132.549 62.129 132.631 62.1823C132.67 62.2065 132.703 62.2237 132.728 62.2364C131.925 61.937 130.735 60.8974 129.875 60.455C130.41 59.232 129.413 59.1512 128.722 59.864C128.145 59.5887 127.477 59.3773 126.949 59.0319C126.766 58.913 127.039 58.6054 127.029 58.5567C126.883 57.7953 126.292 58.5247 126.152 58.5077C124.63 58.2787 123.723 57.207 122.145 57.3213C122.089 57.3258 121.685 58.1636 121.564 57.3958C121.557 57.3434 122.149 57.1148 121.528 56.8476C120.907 56.5801 119.882 55.6703 118.851 55.7493C118.602 55.7678 117.804 56.2764 117.572 55.5661C117.542 55.47 117.696 55.2435 117.664 55.0741C117.555 54.533 117.087 55.3591 117.042 54.496C116.997 53.6329 116.539 52.8322 115.459 53.0252C115.426 53.03 114.962 53.6516 114.686 53.5394C114.243 53.3586 113.66 52.9838 113.192 52.8199C112.966 52.7412 112.953 53.2268 112.911 53.2206C111.319 52.9207 110.381 52.1465 108.834 51.396C108.544 51.2553 107.487 51.5401 107.081 50.8627C106.637 50.1211 108.061 48.2335 106.438 48.2116C105.787 48.2016 104.044 50.6188 103.531 48.8368C101.375 48.4185 99.792 46.9921 97.6131 46.6473C97.5126 46.6304 96.911 47.2458 96.7049 47.1452C96.4029 46.9958 96.3791 46.5765 96.1635 46.4543C95.2928 45.9449 94.2943 45.8332 93.4408 45.3293C93.1144 45.135 93.4346 44.8696 93.0421 44.6266C92.8858 44.5283 92.713 44.5221 92.5372 44.5119C92.2788 44.4631 92.0154 44.4108 91.8168 44.0818C91.5661 43.6604 91.823 42.5522 91.4044 42.0934C90.7774 42.9088 90.4558 42.6442 89.6996 42.4324C89.5536 42.3919 89.4676 42.7711 89.3878 42.767C89.0616 42.7591 89.0288 42.3709 88.7032 42.3859C88.6239 42.3888 88.4185 42.6736 88.3428 42.6925C87.6937 42.8653 87.5635 41.8163 87.5367 41.6328C87.4389 40.9352 87.0041 41.1951 86.8131 40.8254C86.6214 40.4568 87.2184 40.5358 86.9258 40.1991C86.3192 39.5025 85.2942 38.9599 84.4548 38.5623C84.1181 38.4065 84.1602 38.9391 84.1075 38.9266C83.7575 38.8351 83.4541 38.6254 83.1429 38.5306C82.811 38.4415 82.4932 38.4683 82.1801 38.8871C82.2368 36.4205 81.6965 39.0123 80.7834 38.3124C80.7097 38.2559 80.8569 37.1192 81.2039 37.025C81.5538 36.9319 81.9458 37.385 82.4448 37.2344C82.5571 37.1965 83.4282 36.3102 83.5395 36.2744C83.6269 36.2408 83.7013 36.2309 83.764 36.2398C83.7801 36.2449 83.8291 36.2576 83.845 36.2633C84.4698 36.396 84.0445 37.7127 84.047 37.7998C84.0581 38.8812 85.2005 38.1558 85.441 38.1939C86.4584 38.3127 87.0104 38.9381 87.7958 39.1334C88.3054 39.2635 88.968 38.3634 89.28 38.6139C90.3181 39.4564 89.7653 40.9815 91.5364 40.5945C91.9171 40.5157 92.4292 39.3754 92.6121 40.7015C92.627 40.7874 92.6519 41.8982 93.3023 41.6904C93.3848 41.6645 93.5955 41.3777 93.6657 41.3927C94.0509 41.4814 94.1611 41.7694 94.4501 41.9701L94.1743 41.7845C94.2236 41.8108 94.2813 41.8323 94.3512 41.8453C94.7584 41.9257 95.2841 41.9768 95.6635 42.3013C95.8835 42.4928 95.9643 43.2668 96.0195 43.4721C96.1933 44.0718 96.9352 43.5662 96.9353 44.1861C96.95 44.8154 96.1075 45.3882 96.6213 46.0169C97.0173 45.1809 97.4543 44.3361 97.8641 43.5003C99.2311 44.1312 100.535 44.9775 102.004 45.5055C102.185 45.5693 102.183 45.0351 102.38 45.091C103.218 45.331 103.806 45.9339 104.716 46.1251C105.408 46.2661 106.326 46.0457 107.062 46.1756C107.127 47.3275 108.278 47.3668 108.999 47.7315C109.25 47.8585 109.136 48.1177 109.292 48.2726C109.886 48.8511 109.873 47.8514 110.118 47.7839C111.159 47.4932 110.517 49.5116 111.517 49.8171C111.57 49.8338 112.591 49.003 112.703 48.9689C113.42 48.7403 112.664 49.372 112.984 49.5763C113.568 49.9485 113.927 50.3644 114.785 50.3229C115.036 50.3094 115.802 49.8385 116.041 50.5034C116.073 50.5906 115.915 50.93 115.953 50.9668C116.642 51.6034 117.064 50.5101 117.665 50.3063C118.266 50.1023 118.711 51.125 118.777 51.3974C118.954 52.1038 118.395 51.5324 118.354 51.5805C117.869 52.1534 118.436 52.2307 118.816 52.4329C118.48 53.5331 119.063 53.673 119.212 52.6384C119.227 52.525 118.878 52.5116 118.816 52.4329C119.554 51.5026 120.222 51.5933 120.539 52.8327C120.687 53.4134 120.187 53.842 121.225 54.0017C121.696 54.0752 121.803 53.2709 122.266 53.2131C123.323 53.0816 124.214 54.2052 125.168 54.4453C125.514 54.5324 125.346 54.0046 125.588 54.0503C126.23 54.1701 126.646 54.6789 127.308 54.7584C127.368 54.7652 127.399 54.2908 127.589 54.3586C129.037 54.8683 130.161 55.6296 131.647 56.2537C132.358 56.5513 133.741 56.8673 134.465 57.2412C134.592 57.3062 134.718 57.3779 134.845 57.4547C135.152 57.6437 135.557 57.6638 136.402 58.7458C136.803 59.2564 137.19 60.4548 136.995 61.3717C136.833 62.2609 136.476 62.7292 136.249 63.022C135.771 63.5831 135.521 63.6979 135.308 63.8398C135.096 63.9673 134.949 64.0327 134.812 64.0913C134.288 64.302 133.975 64.3495 133.649 64.4092C133.022 64.5114 132.49 64.5454 131.993 64.6092C131.666 64.6401 131.345 64.7076 131.072 64.8247C130.4 65.1136 130.683 65.5079 130.465 65.89C130.062 66.6254 128.731 65.9073 128.534 65.7948C128.531 65.7895 129.107 65.5032 128.716 65.3785C128.386 64.972 128.54 65.7908 128.534 65.7948C128.413 65.718 127.159 66.0012 126.938 66.1638C126.822 66.2505 127.025 66.6365 126.962 66.674C125.435 67.5644 123.83 68.2134 122.101 68.5852C122.069 68.5868 121.959 68.1168 121.886 68.1263C120.842 68.2538 120.42 69.019 119.735 69.6225C119.053 70.2248 118.378 70.3342 117.641 69.7161C117.063 70.0255 116.087 69.9781 115.518 69.9416C114.951 69.9046 115.186 70.8133 115.148 70.8459C113.984 71.8779 113.007 71.6525 111.571 72.0676C110.878 72.2671 109.593 72.8624 108.899 73.215C108.341 73.4988 107.935 73.4095 107.446 73.7303C107.38 73.7734 107.592 74.1404 107.575 74.1633C107.143 74.8437 107.092 73.7826 106.907 73.6547C106.249 73.1859 105.862 72.9488 105.197 73.5133C105.049 73.6413 105.031 75.202 104.739 75.3962C104.359 75.6457 104.335 75.0969 103.947 75.3689C103.914 75.3918 104.03 75.6945 103.759 75.7751C102.882 76.0395 101.944 76.2614 101.007 76.5409C100.605 76.6599 100.216 76.7891 99.8478 76.9358C99.6843 76.9999 100.077 77.4026 99.8379 77.5053C98.7349 77.9808 97.5086 78.45 96.3462 78.6852C96.0561 78.7432 96.081 78.341 95.981 78.2675C95.3689 77.826 95.2476 78.9069 95.1719 78.9606C93.4135 80.2422 91.5826 80.1995 89.8023 81.606C89.7076 81.6826 89.3659 83.0116 88.5797 82.458C88.5308 82.4192 87.7297 81.8502 87.6955 82.5589C87.6924 82.6037 88.1455 82.8739 87.7166 83.0568C87.2845 83.2415 86.7646 83.8754 85.9221 83.7577C85.6497 83.7237 84.8027 83.1785 84.5022 84.1103C84.5046 84.1685 84.1321 86.1052 83.2473 85.2725C83.0988 85.1317 82.791 84.033 82.051 84.9206C81.8918 85.093 82.3358 85.2255 81.8541 85.5446C81.09 86.0321 79.7544 86.027 78.253 86.4284C78.0351 86.5092 76.8345 87.079 76.0996 86.3966C76.0854 86.3658 76.0725 86.3313 76.0612 86.2926C76.0297 86.185 76.2556 85.8491 76.0691 85.7465C75.1821 85.2574 74.1074 85.2098 73.2024 84.6687C72.8812 84.4778 73.2329 83.9275 72.9156 83.6614C72.5984 83.3953 71.906 83.0297 71.4437 83.1958C70.9816 83.362 71.1279 84.4412 70.5308 84.3546C67.933 83.978 65.555 82.693 63.0347 81.8224C62.6607 81.6929 62.8691 82.132 62.3081 81.9639C62.1648 81.921 62.013 81.8768 61.8538 81.831C59.8839 81.272 56.6099 80.5349 55.1573 79.2983C53.9154 78.2409 55.8631 78.4073 54.8531 77.806C54.3678 77.5171 53.4158 78.4126 53.2741 78.401C51.8942 78.3053 51.202 77.4959 50.0255 77.1985C49.7815 77.1362 49.8348 77.6641 49.6277 77.6055C48.9204 77.4096 48.2877 76.9172 47.6339 76.6743C47.3372 76.5647 47.2473 76.9175 46.9929 76.7746C46.3807 76.4344 45.8869 76.0406 45.4204 75.4452C45.379 75.3914 45.9428 75.1655 45.4915 74.9314C44.7567 74.5509 44.0015 73.8005 43.0059 73.6596C42.7092 73.6182 42.3089 74.337 42.0447 73.5472C42.006 73.4312 42.2978 73.0104 42.1212 72.9091C42.0531 72.8698 41.9032 72.8904 41.6146 73.0227C41.4464 73.0907 39.9907 73.6107 39.8707 72.7152C39.8399 72.4792 39.8971 71.6003 39.5681 71.575C39.5225 71.5745 39.4681 72.0416 39.2259 71.9666C38.37 71.6931 37.5663 71.2474 36.6768 70.9816C36.4416 70.9129 36.5733 71.4786 36.2305 71.3641C35.2909 71.0511 34.2088 70.4416 33.3711 69.9308C33.0653 69.7427 33.4386 69.4906 33.431 69.4427C33.3101 68.6647 32.7192 69.3975 32.5732 69.3939C31.6592 69.3571 31.1933 68.7146 30.4169 68.5343C30.1979 68.4817 30.1907 68.9405 30.1354 68.9603C29.5731 69.1463 30.1687 68.5464 29.9279 68.3632C29.2623 67.8512 28.3963 67.5706 27.6054 67.3505C27.3125 67.2695 27.4676 67.8532 27.2081 67.7759C25.6777 67.3309 24.12 66.7764 22.6998 66.061C22.4337 65.9258 22.7213 65.6108 22.6879 65.5091C22.4725 64.8025 21.6081 65.4229 21.4599 65.4634C20.7248 65.6304 20.5946 65.2405 20.0028 65.141C19.066 64.9888 18.08 64.7724 17.013 64.4926C16.4886 64.3532 15.9457 64.2052 15.2507 63.9734C15.0645 63.91 14.889 63.85 14.5991 63.7351C14.4553 63.6762 14.346 63.6343 14.0615 63.4978C13.9316 63.4342 13.7866 63.3591 13.6128 63.2562C13.4976 63.1829 13.102 62.9681 12.5981 62.4856C12.3437 62.237 12.0388 61.9036 11.7329 61.3825C11.3523 60.8291 10.7791 59.1029 11.1939 57.6576C11.3701 56.9363 11.6965 56.3271 12.0251 55.8829C12.2212 55.6218 12.2776 55.5669 12.3812 55.4515C12.4766 55.3483 12.5701 55.2556 12.6608 55.1716C13.0249 54.8366 13.3366 54.6353 13.5963 54.4851C13.8566 54.3365 14.0691 54.2415 14.2522 54.1671C14.4087 54.1048 14.467 54.0856 14.5625 54.0531C14.7368 53.9951 14.8835 53.9547 15.0158 53.9217C15.3057 53.8511 15.4214 53.8345 15.5656 53.81C15.7041 53.7875 15.8332 53.77 15.9597 53.7548C16.8534 53.6711 17.7759 53.5567 18.6111 53.4309C21.9001 52.9161 24.5932 52.5233 27.7394 51.4413C27.9419 51.3715 27.5847 50.948 27.752 50.8832C29.9403 50.0604 32.1993 49.497 34.3866 48.5495C34.5675 48.4721 34.1397 48.1114 34.4188 47.9738C34.9844 47.6904 35.7647 47.4311 36.42 47.3515C36.7436 47.3102 36.4897 47.8493 36.8134 47.7993C37.5666 47.6839 38.3266 47.4321 39.0064 47.087C39.2958 46.9388 38.6622 46.6517 39.0524 46.495C41.7234 45.4102 44.3011 44.2744 47.2463 43.7361C47.4318 43.7021 47.9118 44.4216 48.2412 44.2759C48.2721 44.2622 48.3018 44.2413 48.3299 44.2118C48.2521 43.9411 48.1227 43.6386 48.02 43.3574C51.9397 41.5315 56.01 40.2374 60.0541 38.7158C60.229 38.6499 59.7343 38.2696 60.0714 38.1397C61.9797 37.4052 63.7929 36.5576 65.9687 36.33C66.1874 36.3059 66.4105 37.2237 66.9413 36.8812C67.0285 36.8216 67.8674 36.3891 68.0275 36.1171C68.0479 36.0774 67.7429 35.7198 68.0202 35.6087C69.6463 34.9668 71.4387 34.4703 73.2302 34.2066C73.5129 34.1671 73.3616 34.7007 73.5623 34.6772C75.0323 34.4945 76.4833 33.7222 78.0674 33.8379C79.1386 33.9272 78.9058 34.7936 79.5476 35.5002C79.6385 35.5966 80.2663 35.55 80.3394 36.0136C80.4768 37.1692 80.3321 38.4559 80.523 39.6842C80.5864 39.9431 80.9002 39.6506 80.7265 40.2983C80.7327 40.3385 80.4605 40.5718 80.3941 40.8026C80.3547 40.9598 80.5125 41.414 80.4227 41.6203C80.3407 41.8261 80.148 41.4553 79.9508 41.7212C79.765 41.9901 79.9741 42.491 79.5071 42.6534ZM112.95 69.7894C112.345 69.525 112.821 71.1016 113.185 70.5573C113.202 70.5292 112.981 69.802 112.95 69.7894ZM100.068 46.1198C100.397 47.0328 101.177 46.1918 100.975 45.5101C100.779 44.8311 99.9673 45.8426 100.068 46.1198ZM93.9439 43.9614C94.3224 44.807 95.4702 42.7724 94.6033 42.8522C94.555 42.8566 93.924 43.913 93.9439 43.9614ZM77.3001 36.1713C77.3144 36.1898 77.7074 36.1195 77.7198 36.0951C77.8191 35.5354 77.0008 35.6831 77.3001 36.1713ZM88.3548 40.7378C88.3705 41.1299 89.1316 41.2176 89.1176 40.7292C89.1043 40.3336 88.3322 40.2466 88.3548 40.7378ZM88.6723 77.3917C88.6538 77.3737 88.3969 77.4835 88.4668 77.6034C88.6903 77.9899 88.9749 77.6988 88.6723 77.3917ZM77.8069 36.7487C79.396 37.196 79.9559 39.2941 78.2453 38.6893C77.9374 38.58 79.0648 38.243 78.6986 37.983C78.027 37.5084 77.2739 38.5791 76.6568 37.7749C76.5494 37.6291 77.7148 36.7187 77.8103 36.7468C77.8092 36.7474 77.808 36.7481 77.8069 36.7487ZM112.035 68.0162C112.019 67.9987 111.642 68.1086 111.64 68.1323C111.612 68.6953 112.372 68.4741 112.035 68.0162ZM73.4552 79.2308C73.4471 79.1801 72.5822 78.8884 72.5422 78.9216C71.8519 79.6128 73.5968 80.2041 73.4552 79.2308ZM129.875 60.4162C129.284 60.7397 128.784 60.602 128.723 59.8653C129.096 60.0544 129.498 60.2249 129.875 60.4162Z" fill="black"/>
<path d="M47.7526 73.3842C47.9032 74.1441 47.7676 75.1586 47.5748 75.9405C47.515 76.1831 47.2208 76.0674 47.1666 76.2368C47.061 76.5745 47.2114 76.8678 47.0851 77.1995C47.0419 77.3094 46.5766 77.1864 46.5418 77.3015C46.3545 77.926 46.4897 78.5112 46.4121 79.1435C46.0305 82.2608 45.9953 85.3249 45.9803 88.4674C45.9758 89.5043 45.6447 90.7893 45.9118 91.8365C45.9434 91.959 46.3416 91.8528 46.3767 91.8737C46.916 92.2007 46.0905 92.1438 46.0017 92.3915C45.6528 93.3858 45.714 94.456 45.9675 95.3466C46.0769 95.7264 46.835 95.2533 46.4283 95.6863C46.4009 95.7163 45.9623 95.6679 45.9284 95.7772C45.852 96.0248 45.9837 96.4798 45.9721 96.6584C45.9506 97.0295 45.9625 97.0855 46.0026 97.4129C46.0568 97.8783 45.9257 98.4332 46.109 98.8857C46.149 98.979 46.5588 98.7715 46.6611 98.9076C46.7446 99.0119 46.7934 99.33 46.7601 99.4846C46.7535 99.5132 46.7444 99.5387 46.7324 99.5594C46.6578 99.69 46.3112 99.7329 46.2391 99.7722C45.6343 100.126 46.6539 100.249 46.6898 100.27C47.3585 100.942 47.3106 101.844 47.9513 102.572C48.4315 103.108 49.1409 103.496 49.7074 103.941C50.3838 104.473 50.9151 105.074 51.7288 105.457C51.8138 105.497 51.9574 104.987 52.06 105.034C53.1511 105.532 54.2484 106.052 55.3201 106.807C55.4279 106.883 55.1203 107.257 55.2202 107.359C55.8253 107.976 56.8138 109.222 57.8154 107.442C58.305 107.664 58.9107 107.909 59.2821 108.415C59.5226 108.741 59.1066 109.149 59.5337 109.036C59.63 109.011 59.6235 108.562 59.7592 108.557C60.3283 108.532 60.8816 108.804 61.46 108.7C61.5775 108.678 61.6304 108.291 61.6755 108.229C62.0486 107.729 62.2821 108.736 62.3631 108.822C62.9761 109.467 63.5426 109.371 64.2141 109.507C64.3691 109.538 64.2792 108.99 64.431 109.002C65.2219 109.069 66.0201 109.249 66.7528 109.602C66.9166 109.682 66.6875 110.097 66.7623 110.157C67.0951 110.42 67.2952 109.599 67.6224 109.835C67.6906 109.883 67.5903 110.253 67.5974 110.297C67.708 110.98 68.031 110.086 68.0871 110.074C68.8139 109.901 69.1122 110.929 69.7894 110.892C69.8713 110.886 69.7605 110.382 69.9925 110.397C70.2217 110.411 70.447 110.431 70.6671 110.457C71.9112 110.599 73.187 110.896 74.3998 111.343C74.6193 111.423 74.4245 111.769 74.4343 111.815C74.6018 112.532 74.8403 111.614 74.9169 111.585C75.5266 111.386 76.0082 112.21 76.4908 111.128C78.9439 111.694 81.4355 111.158 83.8991 112.184C83.9306 112.196 83.8689 112.656 83.9318 112.678C84.6908 112.943 84.5519 112.226 85.0548 111.352C85.1806 111.132 85.563 112.19 85.5978 112.268C85.7223 112.553 85.594 113.239 85.6357 113.294C85.9832 113.728 85.9211 111.461 86.3816 111.458C86.3962 111.462 86.3377 111.879 86.3769 111.921C86.4986 112.05 86.6174 111.884 86.7367 112.026C87.0096 112.356 87.1198 113.457 87.527 112.811C87.5786 112.727 87.4805 111.442 87.8948 111.497C88.0603 111.52 88.7872 111.484 88.9919 111.562C89.1979 111.641 89.0675 112.058 89.0823 112.076C89.6488 112.61 89.4447 112.842 89.7449 113.646C90.0463 114.446 89.9145 112.521 90.0206 112.303C90.1266 112.086 90.5435 112.525 90.6501 112.678C90.7553 112.832 90.6392 113.1 90.7313 113.186C91.3421 113.746 90.9566 112.22 91.1385 111.908C91.5626 111.167 91.9726 112.581 92.3988 112.703C92.5134 112.736 92.4068 112.414 92.5058 112.38C92.8964 112.245 93.157 112.68 93.5908 112.247C93.6623 112.177 93.979 111.299 94.2476 111.916C94.286 112.005 94.2115 112.366 94.3843 112.436C94.6474 112.541 95.1105 112.591 95.373 112.455C95.5666 112.354 95.3007 111.783 95.5623 111.948C95.679 112.022 95.4939 112.379 95.7136 112.489C95.9351 112.599 96.4728 112.546 96.6738 112.519C96.8751 112.492 96.7314 112.056 96.7455 112.025C96.8278 111.847 97.2087 111.602 97.2417 111.6C98.9659 111.41 100.644 112.001 102.293 111.543C102.419 111.508 102.274 111.053 102.293 111.043C102.715 110.79 102.521 112.074 102.897 112.446C102.724 111.508 102.938 111.654 103.236 111.507C103.379 111.435 103.246 111.081 103.254 111.042C103.392 110.457 103.663 111.148 103.723 111.289C103.955 111.805 104.021 111.144 104.175 111.489C104.331 111.83 104.182 112.396 104.481 112.342C104.511 111.992 104.15 111.147 104.356 110.968C105.121 110.3 106.822 110.68 107.492 110.561C107.634 110.538 107.746 110.515 107.842 110.493C108.206 110.406 108.37 110.318 108.677 110.291C109.384 110.202 108.868 109.712 109.051 109.263C109.219 108.808 109.929 110.278 110.167 110.543C110.412 110.801 110.278 110.459 110.454 110.573C110.632 110.685 110.608 110.988 110.819 110.932C111.041 110.873 111.112 110.039 110.928 109.715C110.552 109.021 109.875 108.528 110.403 108.46C110.434 108.456 110.644 108.839 110.751 108.805C111.6 108.514 112.248 107.87 113.054 107.411C113.166 107.348 113.447 107.748 113.516 107.715C114.072 107.445 113.742 107.183 113.38 106.672C113.265 106.523 113.143 106.356 113.022 106.175C113.883 106.985 114.625 107.284 114.977 106.694C115.166 106.357 114.671 106.174 114.429 105.828C114.353 105.731 114.773 105.644 114.56 105.514C113.859 105.106 112.962 104.996 113.44 104.666C113.462 104.65 113.859 104.844 113.907 104.777C114.21 104.333 113.411 104.082 113.4 103.556C113.391 103.146 113.97 102.43 114.071 101.904C115.404 101.98 115.117 101.43 114.198 101.227C114.24 100.884 114.184 100.52 114.302 100.179C114.343 100.062 114.731 100.127 114.772 100.112C115.42 99.8682 114.52 99.7432 114.482 99.671C114.108 98.8795 114.735 98.1577 114.007 97.4356C113.981 97.4101 113.054 97.4465 113.709 97.1803C113.754 97.1621 114.198 97.3802 114.196 97.0115C114.194 96.6426 114.616 95.8912 114.13 95.4272C114.013 95.3152 113.23 95.0882 113.783 94.7698C113.859 94.7268 114.127 94.7317 114.268 94.6656C114.717 94.4521 113.777 94.4805 114.544 94.1982C115.31 93.915 115.853 93.4531 115.241 93.0015C115.223 92.9869 114.471 92.9602 114.461 92.7956C114.446 92.5321 114.55 92.142 114.508 91.8704C114.488 91.7404 114.042 91.8853 114.031 91.8638C113.657 91.0233 113.978 90.3444 114.029 89.3815C114.039 89.2059 113.349 88.792 113.799 88.3942C114.291 87.9581 116.582 88.0384 115.941 87.277C115.685 86.9714 112.781 86.8899 114.187 86.1021C114.034 85.7593 113.987 85.4031 113.98 85.0557C113.984 84.2582 114.18 83.454 113.75 82.6532C113.723 82.6022 112.911 82.4934 112.912 82.3673C112.915 82.1799 113.28 82.0463 113.294 81.9116C113.362 81.343 113.002 80.857 113.008 80.3135C113.009 80.1064 113.401 80.147 113.402 79.9009C113.403 79.654 112.881 79.5343 113.099 79.1832C113.264 78.9173 114.281 78.5784 114.372 78.2321C113.347 78.311 113.348 78.0808 113.04 77.7008C112.981 77.6282 112.632 77.7445 112.585 77.7119C112.388 77.5816 112.67 77.4129 112.457 77.292C112.405 77.2618 112.056 77.294 111.994 77.2715C111.457 77.0844 112.203 76.6144 112.332 76.5315C112.825 76.2188 112.358 76.1458 112.541 75.924C112.723 75.7037 113.011 75.9717 113.11 75.7262C113.305 75.2299 113.189 74.6353 113.132 74.1503C113.132 74.148 113.13 74.1412 113.13 74.1389C113.127 74.1213 113.125 74.1038 113.123 74.0865C113.094 73.8888 112.654 74.1013 112.64 74.0748C112.457 73.7 112.861 73.1827 111.9 73.1721C114.185 72.3498 111.623 72.9872 111.941 72.3328C111.966 72.2816 113.043 71.8956 113.257 72.0321C113.471 72.1711 113.199 72.5371 113.511 72.7308C113.585 72.7717 114.708 72.9066 114.782 72.9493C115.358 73.2525 113.686 73.6086 113.598 73.6432C113.123 73.84 113.18 73.9854 113.37 74.0995C113.37 74.1029 113.372 74.113 113.372 74.1165C113.561 74.2333 113.888 74.3263 113.935 74.3742C114.362 74.8245 114.173 75.2757 114.478 75.6587C114.675 75.9108 115.788 75.8173 115.777 76.0377C115.738 76.7625 114.209 77.1522 115.616 77.6897C115.916 77.8042 117.12 77.5548 116.209 78.1502C116.152 78.1886 115.31 78.6424 115.882 78.811C115.954 78.8323 116.309 78.801 116.342 78.8346C116.555 79.061 116.286 79.2464 116.443 79.4969C116.601 79.7502 116.828 80.0478 116.732 80.3579C116.675 80.544 116.033 80.8292 115.878 80.9278C115.431 81.2078 116.216 81.4075 115.663 81.6033C115.108 81.8001 114.223 81.5723 113.887 81.9973C114.81 81.9394 115.759 81.8989 116.688 81.8499C116.724 82.7253 116.492 83.6041 116.601 84.4735C116.615 84.5807 117.102 84.432 117.13 84.5461C117.152 84.6374 117.159 84.7279 117.156 84.8181L117.147 84.7231C117.143 85.0888 116.973 85.4625 117.132 85.8444C117.287 86.2128 117.861 86.5634 118.043 86.9466C117.023 87.3214 117.457 87.8746 117.419 88.3212C117.406 88.478 117.124 88.5052 117.048 88.6262C116.765 89.0819 117.666 88.7652 117.826 88.858C118.514 89.2562 116.422 89.5818 116.552 90.1476C116.558 90.1776 117.726 90.397 117.803 90.439C118.301 90.7032 117.421 90.5457 117.366 90.7609C117.266 91.1537 117.034 91.4494 117.42 91.8445C117.534 91.9587 118.273 92.1763 117.766 92.4973C117.7 92.5394 117.328 92.5697 117.309 92.5989C117.011 93.1231 118.174 92.988 118.603 93.2142C119.032 93.4403 118.283 93.9722 118.061 94.0863C117.49 94.3865 117.784 93.9431 117.724 93.9379C117.007 93.8794 117.166 94.1756 117.135 94.4192C115.999 94.5896 116.106 94.9116 117.108 94.6722C117.217 94.6451 117.089 94.4726 117.135 94.4192C118.279 94.4912 118.467 94.8533 117.465 95.3742C116.995 95.6193 116.405 95.5028 116.675 96.0537C116.796 96.3035 117.573 96.1227 117.811 96.3361C118.354 96.8257 117.681 97.5904 117.836 98.1437C117.892 98.3442 118.31 98.1158 118.363 98.2527C118.506 98.6159 118.201 98.9714 118.384 99.3405C118.401 99.3748 118.85 99.2687 118.861 99.3895C118.951 100.298 118.675 101.114 118.626 102.114C118.605 102.595 118.783 103.514 118.65 104.062C118.437 105.012 117.514 106.052 117.277 106.979C117.11 107.6 117.562 107.681 117.693 108.1C117.886 108.796 116.804 109.227 116.3 109.266C116.215 109.25 116.148 109.235 116.116 109.226C116.114 109.226 116.132 109.183 116.144 109.127C116.217 108.968 116.259 108.761 116.004 108.831C115.878 108.789 115.822 108.794 115.807 108.828C115.791 108.895 116.116 109.223 116.116 109.226C116.002 109.194 115.424 109.686 115.38 109.861C115.358 109.955 115.706 110.21 115.689 110.254C115.26 111.29 114.489 112.235 113.34 112.883C113.317 112.89 113.047 112.491 112.997 112.512C112.294 112.785 112.238 113.532 111.82 114.181C111.405 114.826 110.783 114.981 110.101 114.368C109.841 114.542 109.434 114.578 109.057 114.542C108.845 114.506 108.638 114.446 108.477 114.397C108.072 114.276 108.281 115.185 108.25 115.212C107.453 116.013 106.857 115.582 105.943 115.662C105.527 115.695 104.72 115.96 104.282 116.126C103.932 116.26 103.705 116.07 103.394 116.253C103.352 116.277 103.451 116.684 103.44 116.702C103.135 117.244 103.18 116.211 103.081 116.041C102.729 115.42 102.531 115.09 102.106 115.454C102.006 115.538 101.87 117.03 101.686 117.136C101.446 117.273 101.483 116.74 101.232 116.895C101.21 116.908 101.25 117.23 101.083 117.234C100.323 117.252 99.4828 117.143 98.7009 117.243C98.593 117.255 98.7759 117.755 98.62 117.782C97.9073 117.904 97.102 117.946 96.3824 117.754C96.2037 117.706 96.2887 117.339 96.2436 117.235C95.966 116.606 95.7067 117.564 95.6529 117.585C94.3845 118.118 93.3636 117.319 92.0687 117.778C91.9971 117.805 91.4886 118.833 91.2105 117.978C91.1913 117.922 90.9191 117.047 90.7242 117.658C90.7119 117.696 90.879 118.146 90.6119 118.108C90.3477 118.07 89.9316 118.386 89.5548 117.896C89.4353 117.741 89.1434 116.867 88.8189 117.576C88.7994 117.626 88.2983 119.225 88.0895 118.132C88.0557 117.952 88.0693 116.791 87.6705 117.392C87.5943 117.508 87.7393 117.765 87.5361 117.93C87.2239 118.183 86.8034 117.876 86.4173 118.395C86.3501 118.487 86.0638 119.276 85.8297 118.679C85.7932 118.585 85.8613 118.198 85.7391 118.155C85.1584 117.948 84.548 118.204 83.9602 117.93C83.7523 117.834 83.8657 117.209 83.6512 117.039C83.4368 116.868 83.0034 116.7 82.7717 116.982C82.5392 117.264 82.7692 118.267 82.4248 118.34C80.9218 118.656 79.4601 118.017 77.9711 117.849C77.7505 117.824 77.9161 118.191 77.5862 118.179C76.3813 118.141 74.2383 118.306 73.2568 117.438C72.4742 116.745 73.5827 116.396 72.9686 116.082C72.6759 115.932 72.2145 117.047 72.1303 117.074C71.3419 117.355 70.8988 116.779 70.2071 116.839C70.0648 116.851 70.1325 117.336 70.0115 117.342C69.8809 117.349 69.7528 117.326 69.6269 117.292C69.3845 117.221 69.1383 117.093 68.8834 117.081C68.7246 117.076 68.7001 117.435 68.5582 117.386C68.2146 117.272 67.9185 117.074 67.6227 116.689C67.5955 116.654 67.8774 116.245 67.6144 116.188C67.1823 116.096 66.7054 115.687 66.1558 115.947C65.9929 116.026 65.8584 116.836 65.6271 116.224C65.5794 116.096 65.819 115.137 65.314 115.917C65.2338 116.048 64.4103 117.076 64.2266 116.293C64.1785 116.087 64.1103 115.256 63.9094 115.35C63.8814 115.366 63.9032 115.817 63.7463 115.833C63.1931 115.882 62.6513 115.735 62.0831 115.766C61.9312 115.775 62.0611 116.265 61.8363 116.264C61.2138 116.261 60.4873 115.994 59.929 115.726C59.7241 115.626 59.9545 115.29 59.9475 115.246C59.8401 114.538 59.4958 115.386 59.3991 115.418C58.803 115.606 58.502 115.099 57.9907 115.089C57.85 115.085 57.841 115.526 57.8052 115.557C57.4363 115.851 57.8306 115.153 57.6766 115.026C57.2464 114.669 56.694 114.558 56.1827 114.472C55.9945 114.441 56.0649 114.979 55.8965 114.945C54.895 114.752 53.8799 114.384 53.0107 113.785C52.8476 113.672 53.0899 113.35 53.0817 113.254C53.0339 112.585 52.3762 113.235 52.2566 113.275C51.7285 113.465 51.6949 113.086 51.3229 113.005C49.4803 112.61 47.4039 111.319 45.8822 110.073C43.8997 108.439 42.5783 106.7 41.1351 104.314C41.0452 104.158 40.6809 104.561 40.596 104.426C40.0007 103.447 39.6158 102.341 39.3693 101.213C39.2014 100.43 39.0923 99.7629 38.9206 99.0895C38.8913 98.9721 38.4382 99.2181 38.375 99.03C38.2408 98.6353 38.1991 98.1342 38.302 97.7124C38.3512 97.5068 38.7967 97.7147 38.8388 97.5149C38.9392 97.0603 38.9183 96.5763 38.793 96.1386C38.7383 95.9489 38.2765 96.2943 38.2439 96.0422C38.0159 94.3523 37.796 92.7186 38.3163 91.0005C38.3521 90.8835 39.3504 90.7131 39.1408 90.4847C38.8604 90.4859 38.5323 90.5096 38.2335 90.5223C37.9066 88.1277 38.1282 85.7438 38.0764 83.3488C38.0741 83.2477 37.5483 83.4458 37.5412 83.25C37.4996 82.117 37.3091 81.0262 37.8001 79.8476C37.8482 79.7308 38.7891 79.7623 38.6358 79.4253C38.6078 79.3654 38.4664 78.861 38.2587 78.738C38.2274 78.7211 37.7919 78.8269 37.7741 78.6643C37.6784 77.7081 37.7523 76.7012 38.0005 75.7423C38.0414 75.5853 38.5117 75.7418 38.5448 75.6302C38.7771 74.8602 38.4086 73.9982 38.8263 73.2504C39.1077 72.7436 39.9165 72.9343 40.7095 72.6607C40.8213 72.6202 40.8381 72.3107 41.3005 72.2959C42.4629 72.2543 43.7361 72.3958 44.9751 72.3339C45.2418 72.3184 44.9541 71.9377 45.5992 72.1627C45.6423 72.1771 45.8569 72.4591 46.0761 72.5315C46.2275 72.5808 46.6973 72.489 46.8914 72.5899C47.0853 72.6942 46.6918 72.7998 46.9204 72.9625C47.1521 73.1265 47.6861 73.0456 47.7526 73.3842ZM106.833 113.768C106.459 113.386 106.735 115.008 106.977 114.557C106.988 114.533 106.852 113.786 106.833 113.768ZM115.255 83.6955C114.559 84.1021 115.641 84.2621 116.18 83.9698C116.719 83.678 115.466 83.5713 115.255 83.6955ZM114.438 80.0836C113.901 80.5423 116.232 80.4186 115.726 80.0139C115.697 79.9902 114.469 80.0567 114.438 80.0836ZM40.9465 73.8754C40.9683 73.8709 40.987 73.6519 40.9653 73.6475C40.4415 73.5367 40.4045 73.9754 40.9465 73.8754ZM113.536 76.5031C113.236 76.6635 113.635 76.9989 114.009 76.7995C114.311 76.6378 113.91 76.3019 113.536 76.5031ZM92.4456 113.505C92.4403 113.48 92.2827 113.465 92.2918 113.603C92.3218 114.049 92.535 113.913 92.4456 113.505ZM112.17 70.3407C112.445 71.2704 110.773 72.3687 110.666 71.4288C110.643 71.2539 111.371 71.5597 111.458 71.2949C111.607 70.7906 110.386 70.9968 110.823 70.3662C110.901 70.246 112.158 70.2815 112.173 70.3413C112.172 70.3411 112.171 70.3409 112.17 70.3407ZM106.276 111.865C106.265 111.845 106.047 111.867 106.049 111.889C106.032 112.424 106.475 112.379 106.276 111.865ZM83.3178 112.626C83.3065 112.58 82.8075 112.528 82.7905 112.57C82.5121 113.419 83.5274 113.527 83.3178 112.626ZM114.107 101.898C113.592 101.655 113.536 101.397 114.197 101.228C114.16 101.448 114.149 101.679 114.107 101.898Z" fill="black"/>
<path d="M31.3501 65.9179C31.4934 66.1037 31.3402 66.3469 31.1299 66.5337C31.0646 66.5897 30.7731 66.5612 30.7149 66.6009C30.6016 66.6826 30.7446 66.7501 30.6095 66.831C30.5634 66.8557 30.1015 66.8248 30.0637 66.8509C29.8596 66.9975 29.9772 67.1407 29.8791 67.2864C29.4534 67.9363 29.2679 68.5659 29.0864 69.2225C29.0614 69.3094 29.0364 69.3987 29.011 69.4904C28.942 69.7356 28.5229 70.0318 28.7062 70.2892C28.728 70.3195 29.1334 70.3014 29.1668 70.3071C29.6782 70.3936 28.8599 70.3649 28.7512 70.422C28.3219 70.652 28.2846 70.9031 28.4411 71.1273C28.5089 71.2196 29.314 71.1267 28.8621 71.22C28.8316 71.2265 28.4011 71.2031 28.3552 71.2286C28.252 71.2862 28.329 71.397 28.2949 71.4427C28.227 71.5306 28.2313 71.5458 28.2265 71.6268C28.216 71.7381 28.0021 71.8724 28.0997 71.9951C28.1218 72.0205 28.5631 71.9866 28.6382 72.0271C28.7132 72.0676 28.6758 72.1757 28.5718 72.2126C28.4677 72.2493 28.1209 72.2339 28.0414 72.2404C27.3705 72.2941 28.2998 72.4208 28.3228 72.4373C28.7146 72.7293 28.1854 72.9857 28.1871 73.2621C28.1896 73.4759 28.3645 73.6953 28.3408 73.8988C28.3108 74.1344 28.0719 74.3417 28.1133 74.5707C28.1171 74.595 28.6359 74.5658 28.6417 74.5956C28.7024 74.9138 28.6463 75.2276 28.2966 75.545C28.2611 75.5766 27.8055 75.5366 27.7427 75.5683C27.3687 75.7617 26.4699 76.0722 28.4534 76.1825C28.3762 76.3135 28.2965 76.4746 27.897 76.5922C27.6398 76.6682 27.1434 76.5958 27.3554 76.6882C27.4026 76.7091 27.8371 76.6809 27.8751 76.7123C28.0344 76.8441 27.8935 76.9901 28.1183 77.1204C28.1651 77.1469 28.5545 77.1388 28.6246 77.1461C29.1926 77.2081 28.2541 77.3158 28.186 77.339C27.6777 77.5156 27.8782 77.6439 27.8662 77.8068C27.8632 77.8447 28.3861 77.7986 28.402 77.835C28.4775 78.0239 28.433 78.2206 28.2015 78.4061C28.1487 78.4474 27.7031 78.4108 27.655 78.4307C27.4488 78.5181 28.2904 78.5349 28.1088 78.6188C28.0716 78.6365 27.6901 78.6278 27.6482 78.6311C26.9908 78.6833 27.9227 78.7242 27.9433 78.737C28.2249 78.8989 27.2525 79.0062 27.3907 79.1635C27.4083 79.1823 27.8907 79.1382 27.9105 79.1912C28.0449 79.5437 27.9136 79.9175 27.5289 80.2684C27.4698 80.3229 27.1071 80.2855 27.0624 80.2891C26.3643 80.3476 27.3001 80.38 27.3354 80.3976C27.5896 80.5363 26.8055 80.6702 27.9203 80.7605C27.5361 81.3544 28.1647 81.939 27.1695 82.5319C27.158 82.5394 26.6971 82.5286 26.6761 82.5436C26.4183 82.7237 27.1343 82.686 28.0109 82.7997C28.231 82.8284 27.174 82.9254 27.0965 82.9339C26.8111 82.9648 26.1253 82.9384 26.0701 82.9485C25.6361 83.0323 27.9033 83.0059 27.9046 83.115C27.9009 83.1185 27.4835 83.1066 27.442 83.116C27.3119 83.1452 27.4779 83.1725 27.3345 83.2012C27.0025 83.2673 25.9009 83.2971 26.5427 83.3911C26.626 83.4029 27.9119 83.3761 27.8518 83.4742C27.8267 83.5134 27.8498 83.6853 27.7668 83.7339C27.6839 83.7827 27.2693 83.7523 27.2513 83.7558C26.7042 83.8902 26.4767 83.8421 25.6659 83.913C24.858 83.9838 26.7857 83.9527 27.001 83.9779C27.2158 84.0031 26.7643 84.1016 26.6073 84.126C26.4502 84.1505 26.1866 84.1231 26.0978 84.1446C25.5174 84.2865 27.0551 84.1984 27.3614 84.2416C28.0866 84.3433 26.6576 84.4382 26.5182 84.5375C26.4806 84.5644 26.806 84.5403 26.8366 84.5638C26.9536 84.6566 26.508 84.7163 26.9178 84.8192C26.9846 84.8362 27.8448 84.9163 27.2144 84.9772C27.1235 84.9858 26.7671 84.9661 26.6876 85.0068C26.5683 85.0676 26.4913 85.1758 26.6109 85.2387C26.6994 85.2852 27.286 85.2263 27.1041 85.2871C27.0229 85.3141 26.6791 85.2681 26.5552 85.3186C26.5334 85.3275 26.5159 85.3387 26.502 85.3513C26.4368 85.4117 26.4496 85.5051 26.4597 85.5448C26.4722 85.5929 26.9173 85.5627 26.9473 85.5663C27.1194 85.5885 27.3349 85.6788 27.3344 85.6868C27.3924 86.0965 26.6455 86.4853 26.898 86.8812C26.9172 86.9127 27.3865 86.8867 27.3943 86.8915C27.5921 86.9977 26.3428 86.9254 25.9257 87.0054C26.8785 86.9844 26.7064 87.0309 26.8117 87.1057C26.8632 87.1416 27.232 87.1178 27.2698 87.1207C27.8308 87.1688 27.1073 87.2141 26.9594 87.2254C26.4151 87.2671 27.0591 87.2989 26.6953 87.3271C26.3342 87.3553 25.7979 87.3052 25.8055 87.3777C26.1468 87.3945 27.0376 87.3302 27.1827 87.3843C27.7314 87.588 27.0366 87.983 26.966 88.1517C26.8954 88.3185 26.9591 88.3727 26.837 88.4718C26.6164 88.6507 27.2769 88.5778 27.581 88.6825C27.8851 88.7873 26.2572 88.7557 25.9076 88.7759C25.5582 88.7958 25.9183 88.8083 25.7264 88.8302C25.5345 88.852 25.2961 88.8133 25.2245 88.8597C25.153 88.9062 25.7767 89.0217 26.1427 89.0327C26.918 89.056 27.7305 88.9897 27.4464 89.1124C27.4295 89.1194 27.0013 89.1031 26.9585 89.1298C26.6319 89.3427 26.6146 89.56 26.3263 89.773C26.286 89.8024 25.8096 89.7836 25.7808 89.8008C25.4789 89.9797 26.2805 89.9056 27.1735 89.9873C25.9867 89.9838 25.2616 90.0466 25.2566 90.1791C25.2532 90.259 25.7712 90.2374 26.1372 90.2832C26.2475 90.297 25.8926 90.3587 26.1364 90.3651C26.9335 90.3862 27.8244 90.3198 27.4714 90.4607C27.4547 90.4669 27.0183 90.4548 26.9922 90.4757C26.8215 90.6105 27.6549 90.615 27.7581 90.7569C27.8391 90.868 27.3343 91.077 27.2539 91.207C25.92 91.2266 26.2275 91.3429 27.1479 91.3761C27.1117 91.4602 27.1653 91.55 27.0395 91.6326C26.9967 91.6611 26.6102 91.6496 26.5685 91.6538C25.9149 91.7189 26.8102 91.7394 26.8456 91.7567C27.19 91.9458 26.5148 92.117 27.1809 92.2911C27.2049 92.2973 28.1316 92.291 27.456 92.3533C27.4094 92.3574 26.9868 92.3035 26.9558 92.3919C26.9247 92.4804 26.4311 92.6537 26.8628 92.7681C26.9667 92.7957 27.7202 92.8558 27.1337 92.9266C27.0541 92.9361 26.7882 92.9325 26.6406 92.9468C26.1701 92.9929 27.107 92.9951 26.3122 93.0539C25.5176 93.1132 24.9236 93.2164 25.4749 93.3284C25.4909 93.332 26.2337 93.3464 26.2227 93.3851C26.2045 93.4466 26.0517 93.5379 26.0578 93.6022C26.061 93.633 26.5215 93.604 26.53 93.6091C26.7924 93.8106 26.3846 93.9671 26.2109 94.1922C26.1781 94.2332 26.8091 94.3377 26.3139 94.4268C25.7718 94.5247 23.5073 94.4839 24.0506 94.6712C24.2679 94.7474 27.1406 94.7874 25.6565 94.9634C26.0311 95.2351 25.2757 95.5107 25.8081 95.779C25.8317 95.791 26.6337 95.813 26.6235 95.8429C26.6068 95.8873 26.2329 95.92 26.2089 95.9519C26.0991 96.0861 26.4222 96.1991 26.3753 96.3273C26.3583 96.3759 25.9708 96.3679 25.9504 96.4259C25.9305 96.4838 26.4412 96.5101 26.1967 96.5938C26.0104 96.657 24.9698 96.7399 24.8501 96.8208C25.878 96.7999 25.8581 96.8539 26.1316 96.9429C26.1847 96.96 26.542 96.932 26.5855 96.9396C26.7707 96.9706 26.475 97.0101 26.6765 97.0389C26.7249 97.0459 27.0759 97.0381 27.1353 97.0434C27.6535 97.0879 26.8662 97.1995 26.7291 97.2187C26.2084 97.2923 26.6656 97.3103 26.4611 97.3622C26.2567 97.4141 25.998 97.3498 25.8746 97.4077C25.6192 97.5276 25.6793 97.6724 25.666 97.7884C25.6628 97.8346 26.1306 97.7921 26.141 97.7984C26.2621 97.891 25.766 97.9992 26.7005 98.03C24.289 98.1533 26.9359 98.0819 26.4561 98.2297C26.4173 98.2413 25.2765 98.2821 25.108 98.2449C24.9396 98.2076 25.2948 98.1366 25.0323 98.0856C24.9707 98.0735 23.8995 98.0213 23.8345 98.0122C23.3263 97.9412 25.0313 97.8891 25.1249 97.8825C26.1345 97.8088 24.9802 97.7412 24.9 97.7181C24.5326 97.6125 24.7701 97.5098 24.5075 97.4203C24.3378 97.3617 23.2206 97.3818 23.2537 97.3319C23.3628 97.166 24.9198 97.0726 23.5651 96.9501C23.2761 96.9239 22.056 96.9851 23.0133 96.8445C23.0736 96.8357 23.9499 96.7276 23.3932 96.6896C23.323 96.6849 22.9672 96.6933 22.9371 96.6856C22.7424 96.6336 23.025 96.5895 22.8879 96.5313C22.7507 96.4731 22.5466 96.404 22.6657 96.331C22.7369 96.2871 23.3986 96.2176 23.5604 96.1938C24.0267 96.1262 23.2587 96.0825 23.8241 96.0343C24.3923 95.9858 25.258 96.0358 25.6236 95.9341C24.6991 95.9516 23.75 95.965 22.8202 95.9804C22.8481 95.7743 23.1426 95.566 23.0972 95.3613C23.0907 95.336 22.5942 95.373 22.5744 95.3461C22.4929 95.2326 22.845 95.1231 22.7013 95.007C22.5882 94.9169 22.0598 94.8265 21.9251 94.732C22.9817 94.6502 22.6196 94.5145 22.714 94.4076C22.7467 94.3702 23.0293 94.3668 23.1209 94.3387C23.4597 94.2332 22.5259 94.299 22.3782 94.2751C21.7479 94.1728 23.8637 94.1191 23.8086 93.984C23.8064 93.9769 22.6767 93.9112 22.6062 93.9008C22.1466 93.8331 22.9985 93.88 23.0809 93.8302C23.2314 93.7391 23.4995 93.6725 23.1671 93.5753C23.0686 93.5469 22.3641 93.4885 22.9068 93.4194C22.9778 93.4102 23.3507 93.4071 23.3724 93.4005C23.7342 93.2813 22.5627 93.3013 22.1647 93.2446C21.7668 93.1878 22.5735 93.0727 22.8062 93.0483C23.4081 92.9841 23.0646 93.0836 23.1238 93.0853C23.8286 93.1051 23.706 93.0356 23.7644 92.9793C24.9129 92.9493 24.8425 92.8736 23.8204 92.9211C23.7088 92.9264 23.8167 92.9673 23.7644 92.9793C22.6366 92.9526 22.4906 92.8702 23.5419 92.7562C24.0347 92.7029 24.611 92.733 24.398 92.6045C24.3018 92.546 23.5113 92.5841 23.2947 92.5347C22.8005 92.4218 23.5353 92.249 23.4168 92.126C23.3738 92.0811 22.9417 92.1333 22.8974 92.1029C22.7784 92.0222 23.1019 91.9426 22.9341 91.8625C22.9183 91.8553 22.4654 91.8816 22.4592 91.8559C22.4031 91.6617 22.6904 91.4837 22.6951 91.2799C22.6971 91.1809 22.4442 91.007 22.4928 90.9043C22.5744 90.725 23.23 90.496 23.0675 90.3468C22.9635 90.2492 22.5106 90.2778 22.2011 90.2398C21.6011 90.166 22.6714 90.0064 22.8371 89.9842C22.8426 89.9836 22.9508 90.067 23.1828 90.0182C23.6672 89.9846 22.8393 89.9851 22.8371 89.9842C22.9442 89.9699 23.0446 89.7978 22.9575 89.7649C22.9099 89.7471 22.4805 89.7637 22.4638 89.7543C22.0762 89.5339 21.9638 89.3041 22.1615 89.072C22.1702 89.0678 22.6507 89.0675 22.6649 89.0577C22.8767 88.9214 22.2879 88.8417 21.9376 88.7372C21.5874 88.6318 21.7031 88.5424 22.527 88.4665C22.4221 88.3836 22.7853 88.2608 23.0057 88.1896C23.2261 88.1185 22.2908 88.1201 22.2722 88.1143C21.6782 87.9319 22.2122 87.8171 22.2933 87.6208C22.3335 87.5272 22.1958 87.3434 22.0924 87.2447C22.0092 87.1662 22.2279 87.1158 22.0869 87.0437C22.0681 87.0339 21.6518 87.0484 21.6358 87.0455C21.1367 86.9684 22.1551 86.9973 22.3367 86.9784C22.9972 86.9095 23.3489 86.8689 23.0368 86.7678C22.9654 86.7446 21.499 86.6891 21.4128 86.6457C21.3035 86.5893 21.8291 86.6058 21.7012 86.5468C21.6907 86.5418 21.3666 86.546 21.3806 86.5086C21.4409 86.3348 21.6278 86.1484 21.5937 85.9681C21.5903 85.9436 21.0765 85.9798 21.0631 85.9443C21.0006 85.7799 21.0181 85.5991 21.2574 85.4343C21.3179 85.3938 21.6781 85.4159 21.7849 85.4063C21.847 85.4007 21.8944 85.395 21.9294 85.3892C22.259 85.336 21.4892 85.2803 21.4729 85.2693C21.0189 84.9781 21.8676 84.7457 21.4606 84.4478C21.4367 84.4317 20.4284 84.3119 21.292 84.2503C21.3494 84.246 22.2329 84.1846 21.6282 84.1397C21.5904 84.1369 21.1356 84.1746 21.1816 84.114C21.2275 84.0533 20.9229 83.9579 21.4223 83.8712C21.5797 83.8438 22.4609 83.7754 21.7576 83.7021C21.7085 83.6974 20.1185 83.5867 21.2147 83.5365C21.3952 83.5283 22.5555 83.5284 21.96 83.4385C21.8446 83.4213 21.586 83.4554 21.4241 83.4093C21.1746 83.3386 21.4847 83.2402 20.9673 83.1552C20.8757 83.1403 20.0878 83.0792 20.6852 83.0228C20.7788 83.014 21.1663 83.0275 21.2095 82.9993C21.4166 82.8658 21.1567 82.727 21.424 82.5916C21.5179 82.5435 22.1443 82.5644 22.3118 82.5139C22.4793 82.4633 22.6402 82.3624 22.3537 82.3119C22.0672 82.2613 21.0694 82.3234 20.9891 82.2458C20.6405 81.9085 21.2244 81.5695 21.3085 81.2312C21.3211 81.1809 20.9641 81.2241 20.957 81.1501C20.9292 80.8775 20.5924 80.4081 21.3504 80.1687C21.9575 79.977 22.4212 80.2136 22.668 80.068C22.7857 79.9977 21.6251 79.9265 21.5885 79.9097C21.2168 79.7463 21.7304 79.6299 21.5722 79.4823C21.5394 79.4518 21.0692 79.4834 21.0464 79.4574C20.9646 79.3688 21.1742 79.2745 21.1355 79.1895C21.1171 79.1514 20.7579 79.1596 20.7855 79.1243C20.8474 79.0401 20.9982 78.9653 21.3346 78.8825C21.3653 78.8749 21.8122 78.9238 21.8287 78.8617C21.854 78.7614 22.1857 78.6351 21.8424 78.5205C21.7392 78.4864 20.9182 78.4874 21.4849 78.412C21.6033 78.3962 22.5892 78.4132 21.7371 78.3297C21.5956 78.3157 20.4463 78.1748 21.1867 78.1016C21.3815 78.0823 22.1881 78.0324 22.0612 77.9914C22.0409 77.9859 21.6 78.0095 21.5569 77.9754C21.4127 77.855 21.4594 77.7291 21.321 77.6056C21.2832 77.5725 20.827 77.623 20.7852 77.5737C20.6695 77.438 20.7853 77.2684 20.9278 77.1361C20.9812 77.0873 21.3593 77.1201 21.4004 77.1164C22.0694 77.058 21.1662 77.0258 21.1135 77.0069C20.7979 76.8892 21.222 76.7984 21.1095 76.6901C21.0796 76.6602 20.649 76.6823 20.6106 76.6764C20.2353 76.6154 21.0087 76.6598 21.0939 76.6206C21.335 76.5112 21.3002 76.387 21.2449 76.2763C21.224 76.2355 20.7248 76.2823 20.7118 76.2457C20.6254 76.0302 20.6728 75.8028 20.9477 75.5917C21.0003 75.5519 21.3849 75.5763 21.4727 75.5678C22.0869 75.51 21.2488 75.4277 21.1689 75.4081C20.8043 75.3205 21.1443 75.2858 21.0807 75.2084C20.7642 74.8325 20.9888 74.3619 21.1275 74.0056C21.3061 73.5384 21.6715 73.179 21.5763 72.7342C21.5707 72.7059 21.0593 72.7347 21.0479 72.7104C20.9244 72.3987 21.1241 72.0902 20.9762 71.7728C20.965 71.747 20.4801 71.7843 20.4458 71.743C20.372 71.6577 20.3983 71.5535 20.5531 71.465C20.6277 71.4226 21.0438 71.4793 21.1104 71.4367C21.2663 71.3376 21.3008 71.2327 21.2231 71.1336C21.1889 71.0911 20.693 71.156 20.6873 71.0997C20.638 70.7169 20.5526 70.3459 21.1947 69.9621C21.2388 69.9367 22.2467 69.9132 22.0534 69.8561C21.7737 69.8518 21.4447 69.8521 21.1457 69.8502C21.0844 69.6394 21.097 69.4267 21.1392 69.2225C21.2078 68.8786 21.3546 68.5388 21.3881 68.1956C21.3902 68.1722 20.8562 68.2126 20.8577 68.1674C20.8656 67.9052 20.7176 67.6547 21.2484 67.3851C21.3003 67.3597 22.2398 67.3723 22.0977 67.2928C22.0718 67.2772 21.9465 67.1652 21.7426 67.1311C21.7118 67.1269 21.2733 67.1488 21.2605 67.1101C21.1939 66.89 21.294 66.6571 21.562 66.4378C21.606 66.4034 22.073 66.44 22.1085 66.4156C22.3564 66.2352 22.0014 66.0398 22.4254 65.868C22.7108 65.753 23.5181 65.7956 24.3126 65.7347C24.4247 65.7266 24.4425 65.6556 24.9048 65.6516C26.0673 65.642 27.3402 65.6773 28.5793 65.6624C28.8462 65.6595 28.5587 65.5648 29.2037 65.6206C29.2468 65.6248 29.4609 65.6938 29.6797 65.7106C29.8309 65.723 30.3011 65.702 30.4947 65.725C30.6882 65.7497 30.2941 65.777 30.5216 65.8157C30.7519 65.8569 31.2868 65.8383 31.3501 65.9179ZM23.9909 87.8681C24.4392 87.7999 22.7942 87.8097 23.1886 87.8733C23.2096 87.8764 23.9689 87.8716 23.9909 87.8681ZM24.3831 95.5398C25.1067 95.4407 24.0388 95.4074 23.4799 95.4785C22.9216 95.5495 24.1638 95.5699 24.3831 95.5398ZM24.9321 96.3866C25.5018 96.2767 23.1694 96.3148 23.6432 96.4078C23.67 96.4132 24.899 96.393 24.9321 96.3866ZM24.5389 66.0186C24.5607 66.0171 24.582 65.9652 24.5604 65.9646C24.0379 65.9372 23.9957 66.0404 24.5389 66.0186ZM25.5284 97.2247C25.8432 97.1872 25.477 97.1088 25.0856 97.1555C24.7707 97.1931 25.1369 97.2715 25.5284 97.2247ZM25.7153 84.5461C25.7398 84.5449 25.7616 84.508 25.623 84.5097C25.1768 84.5155 25.3031 84.5657 25.7153 84.5461ZM25.5895 98.6709C25.6722 98.455 27.5955 98.2797 27.3837 98.5175C27.3454 98.5606 26.7672 98.4413 26.5948 98.4991C26.2807 98.6048 27.4918 98.6412 26.8461 98.7569C26.7279 98.7778 25.5805 98.6833 25.5868 98.6706C25.5877 98.6707 25.5886 98.6708 25.5895 98.6709ZM25.9662 87.8088C25.9879 87.8073 26.008 87.7566 25.9864 87.7556C25.4639 87.7343 25.4232 87.8366 25.9662 87.8088ZM26.7189 82.3987C26.7653 82.3957 26.808 82.2776 26.7653 82.2739C25.9109 82.2169 25.822 82.4558 26.7189 82.3987ZM27.2183 91.2096C27.7446 91.2561 27.8075 91.3208 27.1486 91.3759C27.1827 91.3206 27.1869 91.2654 27.2183 91.2096Z" fill="black"/>
</svg>
