<svg width="150" height="150" viewBox="0 0 150 150" fill="none" xmlns="http://www.w3.org/2000/svg">
<path d="M60.9308 61.4184C60.7993 60.2964 60.9682 58.8258 61.1904 57.7142C61.2593 57.3651 61.549 57.5413 61.6097 57.3011C61.728 56.836 61.5898 56.3908 61.7298 55.9243C61.7776 55.7724 62.2374 55.9674 62.2769 55.8074C62.3127 55.66 62.3394 55.5109 62.3597 55.3598C62.4601 54.6429 62.4001 53.9182 62.4898 53.1761C63.0219 48.7436 63.2441 44.3791 63.5102 39.8875C63.5975 38.4061 64.0397 36.6103 63.877 35.0772C63.8576 34.8976 63.4509 34.999 63.4179 34.9645C62.9138 34.4232 63.7296 34.6119 63.8431 34.2656C64.2912 32.889 64.3504 31.353 64.2141 30.0198C64.155 29.4548 63.3413 30.0117 63.8019 29.4453C63.833 29.4059 64.2612 29.557 64.3095 29.4016C64.4181 29.0496 64.3517 28.3831 64.3902 28.109C64.4665 27.5881 64.4636 27.4963 64.4767 26.9998C64.4984 26.324 64.7264 25.5094 64.642 24.7861C64.6228 24.6289 64.1778 24.8292 64.1073 24.5759C64.037 24.3209 64.0867 23.6708 64.1951 23.4459C64.3035 23.2262 64.6484 23.3277 64.7287 23.29C64.8868 23.2182 64.9581 23.1215 64.9743 23.0151C65.0279 22.6462 64.4883 22.1727 64.4725 22.0987C64.1235 20.2839 64.7026 18.7546 64.7853 17.0603C64.8485 15.7615 64.763 14.3687 64.9157 13.1005C65.0075 12.3514 65.1622 11.643 65.3486 10.9221C65.5876 10.151 65.5935 9.5628 66.3697 8.18342C66.6015 7.8564 65.8635 7.96301 66.2324 7.49426C66.2833 7.43466 66.3368 7.37593 66.3926 7.31854C66.6699 7.04245 66.9912 6.74563 67.6225 6.48376C68.2269 6.22029 69.1557 6.1781 69.7991 6.40079C71.0676 6.86631 71.3457 7.39476 71.6753 7.75434C72.2214 8.4711 72.4416 8.98376 72.6741 9.50575C73.0977 10.5102 73.3602 11.4577 73.552 12.4102C73.5895 12.6025 73.0746 12.5382 73.0867 12.7404C73.1722 13.9845 72.9993 16.0261 75.0989 15.9278C75.3151 16.679 75.6011 17.586 75.5023 18.3757C75.4416 18.8901 74.8152 18.6874 75.2261 19.1082C75.3185 19.2034 75.6537 18.8833 75.7621 19.0386C76.2198 19.6963 76.438 20.5268 76.9694 21.1312C77.0776 21.252 77.412 21.0478 77.4941 21.0576C78.1634 21.1475 77.5841 22.1044 77.5838 22.2573C77.5815 23.2345 77.9634 23.7985 78.3516 24.468C78.4199 24.5857 78.4888 24.7081 78.5566 24.8384C78.6629 25.0431 78.9948 24.5552 79.1139 24.7441C79.722 25.7197 80.2411 26.788 80.5622 27.8854C80.6327 28.1304 80.1319 28.1378 80.145 28.2649C80.2066 28.8203 81.0091 28.537 81.0819 29.0616C81.0987 29.1726 80.7338 29.2989 80.7059 29.3356C80.2669 29.9109 81.2151 29.71 81.2688 29.7673C81.9792 30.5064 81.4146 31.5184 81.9816 32.2951C82.0504 32.3879 82.3566 31.9346 82.524 32.2091C83.6385 34.0304 84.5745 36.0887 85.2161 38.1356C85.3164 38.4534 84.8865 38.4152 84.8566 38.4543C84.3951 39.0766 85.325 38.8346 85.4059 38.9126C86.023 39.5404 85.6961 40.6044 86.9493 40.5933C88.2537 43.895 90.425 46.7315 91.206 50.2649C91.2164 50.3106 91.2266 50.3562 91.2364 50.4018C91.2474 50.4478 90.801 50.5886 90.8246 50.6793C91.0935 51.7538 91.6349 51.2436 92.7446 51.4815C93.0235 51.5417 92.3362 52.5166 92.2895 52.5956C92.1161 52.8833 91.4227 53.0338 91.4005 53.1116C91.2335 53.7376 93.2202 52.6425 93.5224 53.2335C93.5285 53.254 93.1165 53.3646 93.1052 53.4337C93.0695 53.6507 93.2904 53.7194 93.2415 53.9406C93.1217 54.44 92.1997 55.0575 93.0369 55.2963C93.1453 55.3272 94.2433 54.6463 94.4553 55.2075C94.5357 55.4241 95.0254 56.3654 95.0774 56.663C95.1331 56.9664 94.6712 56.9651 94.6645 56.9923C94.5174 57.9408 94.183 57.7737 93.6237 58.4792C93.0673 59.1843 94.7564 58.2494 95.0192 58.2982C95.283 58.3511 95.1249 59.0606 95.0464 59.2557C94.9662 59.4483 94.6542 59.4115 94.6288 59.5608C94.4865 60.5696 95.6459 59.4513 96.03 59.5264C96.3635 59.5834 96.4102 59.7065 96.3498 59.8683C96.1808 59.8369 95.8879 59.9289 95.8474 60.1283C95.7949 60.3184 95.9257 60.5142 96.0766 60.5495C96.2099 60.58 96.0825 60.262 96.1916 60.2228C96.6293 60.0597 97.057 60.4178 97.6068 59.8912C97.6946 59.8053 98.057 58.8558 98.5202 59.4142C98.5847 59.4952 98.512 59.8697 98.7683 59.9055C99.1536 59.9579 99.8178 59.9368 100.199 59.7736C100.483 59.6524 100.079 59.1067 100.473 59.2471C100.647 59.3111 100.378 59.6837 100.698 59.7763C101.015 59.8668 101.789 59.7989 102.09 59.7784C102.382 59.7555 102.208 59.3165 102.23 59.2856C102.371 59.107 102.954 58.8838 103.01 58.8857C103.011 58.8857 103.013 58.8857 103.015 58.8856C105.526 58.8281 107.806 59.6226 110.245 59.4711C110.435 59.4599 110.328 58.9856 110.357 58.9791C111.02 58.8098 110.452 60.0355 110.889 60.4727C110.866 59.5179 111.126 59.7016 111.59 59.6193C111.815 59.579 111.712 59.2046 111.734 59.1679C112.093 58.6244 112.284 59.3595 112.335 59.5104C112.52 60.0656 112.797 59.4363 112.924 59.8082C113.051 60.1773 112.682 60.6929 113.12 60.7111C113.262 60.3777 112.988 59.4688 113.33 59.344C114.628 58.8683 116.95 59.7447 117.95 59.913C118.961 60.0785 119.288 60.0502 119.868 60.2348C120.901 60.5712 120.594 59.8727 121.288 59.6485C121.998 59.429 121.471 61.0049 121.524 61.3637C121.574 61.7221 121.714 61.3768 121.809 61.5826C121.9 61.7879 121.621 61.9921 121.882 62.0982C122.138 62.2027 122.959 61.6868 123.102 61.3385C123.414 60.6006 123.198 59.7462 123.88 60.1358C123.919 60.1587 123.723 60.5619 123.872 60.6282C125.091 61.1484 126.398 61.3896 127.572 62.0046C127.726 62.0894 127.449 62.5065 127.54 62.5622C127.64 62.6236 127.72 62.6684 127.788 62.6989C128.052 62.8282 128.157 62.7325 128.431 62.6106C128.672 62.524 129.165 62.2291 129.688 62.9743C129.077 62.8372 128.634 63.1332 128.285 63.1668C127.934 63.2194 127.76 63.176 127.566 63.371C127.366 63.5483 127.544 63.828 127.595 64.1858C127.606 64.267 127.609 64.3518 127.597 64.4403C127.571 64.5871 127.098 64.4588 127.172 64.698C127.408 65.4831 128.133 66.0955 127.229 66.2099C127.189 66.2133 127.071 65.7782 126.95 65.8176C126.159 66.0719 126.485 66.8425 125.777 67.3586C125.221 67.7629 123.925 67.9137 123.215 68.2286C122.562 67.0649 122.083 67.6952 122.286 68.6422C121.841 68.8586 121.398 69.1806 120.918 69.3193C120.754 69.3666 120.649 68.9795 120.609 68.9543C119.998 68.5572 120.264 69.4415 120.194 69.5247C119.37 70.4201 118.198 70.3462 117.603 71.5038C117.582 71.5452 118.024 72.3616 117.41 71.9496C117.368 71.9208 117.457 71.3653 116.992 71.6216C116.534 71.8729 115.425 71.9942 115.047 72.7548C114.958 72.9358 114.988 73.8162 114.372 73.5185C114.289 73.4781 114.185 73.2277 114.047 73.1422C113.6 72.8724 114.017 73.7202 113.354 73.2053C112.698 72.6862 111.899 72.5034 111.597 73.3714C111.586 73.398 111.858 74.1103 111.657 74.2327C111.335 74.4287 110.822 74.5934 110.498 74.823C110.347 74.9307 110.707 75.2422 110.685 75.2674C110.102 75.8817 109.48 76.1626 108.766 76.4763C108.431 76.6308 108.064 76.8016 107.676 77.021C107.458 77.1434 107.278 78.069 106.6 77.9618C105.854 77.848 104.907 75.7213 104.277 76.8845C104.022 77.353 105.292 79.999 103.695 79.3557C102.588 80.681 100.89 81.0448 99.8866 82.5062C99.8412 82.5717 100.149 83.3498 100.002 83.4515C99.7822 83.6024 99.4359 83.3988 99.2722 83.4967C98.5784 83.9012 98.2086 84.6029 97.5778 85.0395C97.3389 85.2059 97.1769 84.8402 96.8921 85.0385C96.61 85.2352 96.7423 85.7813 96.2231 85.8791C95.8276 85.9536 94.9015 85.3581 94.4585 85.5551C95.0857 86.3698 94.8161 86.557 94.5363 87.126C94.4821 87.2363 94.7979 87.4424 94.7838 87.509C94.7304 87.787 94.3969 87.6733 94.3603 87.9587C94.3516 88.0272 94.5681 88.3036 94.5734 88.375C94.6298 88.9906 93.6941 88.725 93.5359 88.6749C92.9163 88.4998 93.0716 88.9593 92.7169 88.9779C92.3672 88.9925 92.5391 88.5286 92.2032 88.6354C91.6725 88.8059 91.1693 89.1845 90.7142 89.5384C90.5635 89.6557 90.4265 89.7635 90.2909 89.8646C90.0666 90.0345 90.5064 90.2856 90.4809 90.3185C90.1004 90.7669 89.3368 90.7273 89.6541 91.6606C87.8635 89.9912 89.5256 92.0567 88.5673 92.1736C88.4918 92.1812 87.7419 91.3169 87.8398 91.034C87.9308 90.7562 88.4506 90.8096 88.56 90.3963C88.5885 90.2975 88.303 89.167 88.3099 89.0795C88.3925 88.3751 89.4908 89.681 89.5712 89.7373C90.428 90.3518 90.1657 89.0935 90.2385 88.9349C90.2387 88.9344 90.2389 88.9339 90.2392 88.9334C90.5539 88.2236 91.1565 88.0524 91.4463 87.4911C91.6392 87.1236 90.9709 86.2275 91.2243 86.0703C92.0638 85.5487 93.3019 86.5556 93.1873 84.9204C93.1628 84.5718 92.2492 83.7378 93.4042 84.0466C93.4761 84.0668 94.4386 84.424 94.3313 83.7996C94.3179 83.7208 94.0955 83.4429 94.1167 83.3878C94.2646 83.0234 94.6145 83.1076 94.8222 82.7693C95.0257 82.4344 95.2501 81.9979 95.6564 81.8299C95.9025 81.7269 96.5682 82.0456 96.7654 82.0966C97.3268 82.2485 97.1387 81.4197 97.6587 81.7306C98.1801 82.044 98.387 82.9821 99.0562 82.9221C98.4994 82.1835 97.9487 81.409 97.3988 80.6584C98.391 79.9163 99.5334 79.3979 100.488 78.5995C100.606 78.4997 100.175 78.2053 100.294 78.0882C100.796 77.5959 101.495 77.5006 101.981 76.9449C102.356 76.5134 102.521 75.7206 102.908 75.2557C103.836 75.876 104.311 75.0591 104.874 74.7524C105.072 74.6439 105.231 74.878 105.413 74.8559C106.092 74.7689 105.307 74.1909 105.348 73.9748C105.501 73.1998 106.458 74.233 107.129 74.2759C107.14 74.2688 107.17 74.245 107.181 74.2382C107.312 74.2486 107.434 74.2217 107.54 74.137C107.574 74.1097 107.364 72.8783 107.384 72.7788C107.504 72.1353 107.671 73.0567 107.962 72.9551C108.496 72.7682 108.945 72.7845 109.284 72.1506C109.38 71.9654 109.343 71.1384 109.95 71.3834C110.03 71.4158 110.218 71.7388 110.261 71.7356C111.029 71.6544 110.389 70.6741 110.496 70.1235C110.601 69.575 111.558 69.91 111.789 70.0366C112.391 70.3615 111.726 70.3877 111.743 70.4475C111.961 71.1484 112.265 70.8003 112.575 70.6671C113.246 71.6003 113.602 71.2841 112.897 70.5233C112.818 70.4413 112.659 70.6745 112.575 70.6671C112.196 69.5668 112.562 69.1534 113.613 69.7266C114.107 69.9949 114.21 70.6124 114.771 70.0008C115.032 69.7202 114.485 69.1314 114.643 68.7743C115.007 67.9576 116.221 68.0663 116.813 67.5641C117.028 67.3819 116.57 67.1558 116.709 67.0187C117.078 66.6531 117.624 66.7004 117.98 66.2909C118.011 66.2536 117.68 65.924 117.813 65.8372C118.815 65.1707 119.866 64.8882 120.955 64.269C121.48 63.9693 122.294 63.2187 122.858 62.9583C123.83 62.5048 125.313 62.4338 125.89 61.8861C125.953 61.8275 125.99 61.773 126.012 61.7197C125.931 61.5696 125.709 61.2804 125.473 61.1446C125.201 61.027 124.916 61.2704 124.823 62.4319C124.783 63.0055 125.008 63.8459 125.363 64.2934C125.709 64.754 126.005 64.8763 126.097 64.9198C126.112 64.9335 125.785 64.5663 125.66 64.1211C125.547 63.6832 125.581 63.4379 125.869 63.953C126.219 64.162 126.253 64.329 126.222 64.5281C126.193 64.7221 126.091 64.9108 126.097 64.9198C126.159 64.9484 126.357 65.1009 126.546 65.1907C126.735 65.2849 126.89 65.3212 126.965 65.3291C126.791 65.2396 126.514 65.161 126.419 65.1847C126.321 65.2092 126.267 65.6383 126.218 65.6434C125.025 65.7522 123.739 65.6528 122.464 65.2692C122.442 65.2574 122.544 64.7865 122.492 64.7647C121.753 64.4462 121.194 64.9692 120.516 65.2402C119.849 65.513 119.363 65.3439 119.067 64.4841C118.578 64.5377 117.919 64.1084 117.534 63.852C117.155 63.5959 117.016 64.5231 116.98 64.5384C115.835 65.035 115.244 64.4532 114.104 64.2934C113.568 64.216 112.474 64.2874 111.883 64.3603C111.413 64.4187 111.142 64.1865 110.707 64.3074C110.648 64.3235 110.689 64.7421 110.67 64.7574C110.17 65.2343 110.443 64.2273 110.351 64.0414C110.021 63.366 109.81 63.0047 109.18 63.2937C109.035 63.3599 108.575 64.8112 108.314 64.8894C107.977 64.9884 108.119 64.4667 107.765 64.5845C107.734 64.5941 107.732 64.9182 107.516 64.8984C106.517 64.8112 105.419 64.6051 104.377 64.6315C104.234 64.6338 104.415 65.1489 104.208 65.1609C103.825 65.1832 103.429 65.1941 103.028 65.185C102.529 65.1708 102.032 65.127 101.557 65.0193C101.362 64.9742 101.451 64.6058 101.4 64.5028C101.08 63.88 100.801 64.8577 100.751 64.8824C100.064 65.1938 99.4439 65.2067 98.6835 65.253C98.2976 65.2754 97.8922 65.3112 97.2845 65.3915C96.9723 65.4287 96.6079 65.4882 96.011 65.5102C95.439 65.5101 94.4299 65.5628 93.0533 64.8255C92.8604 64.725 91.9934 64.3353 91.3003 63.6014C90.6543 63.11 90.1948 62.645 90.5585 62.1623C90.5899 62.0994 91.1981 61.346 90.5212 61.3365C90.4789 61.336 90.1666 61.7332 90.04 61.3687C89.9152 61.0073 89.3882 60.6141 89.6251 59.9586C89.6999 59.7524 90.3299 59.0319 89.4946 58.9259C89.4393 58.9241 87.6984 58.9877 88.5683 58.2754C88.7125 58.1602 89.7678 57.6751 88.9906 57.4511C88.8399 57.4077 88.6955 57.6973 88.4246 57.5175C88.0154 57.257 88.031 56.5986 87.3371 56.3752C87.2109 56.3289 86.3399 56.3545 86.7248 55.7953C86.7863 55.71 87.1726 55.6143 87.1374 55.4507C86.9628 54.6551 86.3549 54.0453 86.2236 53.215C86.1849 52.9798 86.5674 52.8296 86.7325 52.606C86.7764 52.5484 86.8054 52.486 86.8079 52.4157C86.8193 52.0756 86.6834 51.4681 86.2832 51.3208C85.8832 51.174 85.1584 51.9414 84.8717 51.5661C83.62 49.9239 83.201 47.8641 82.3331 46.0269C82.2041 45.7538 82.0044 46.1417 81.791 45.7499C81.0077 44.3152 79.3942 41.9671 79.4035 40.3572C79.4108 39.067 80.4879 40.1184 80.3012 39.2335C80.2098 38.8071 78.9714 38.9464 78.8919 38.874C78.1019 38.1715 78.2355 37.3234 77.6799 36.6096C77.565 36.4621 77.2335 36.8414 77.1403 36.7136C76.8192 36.2805 76.741 35.6836 76.4689 35.2515C76.3452 35.0569 76.0475 35.2623 75.9733 35.063C75.7938 34.591 75.716 34.1217 75.7848 33.5327C75.7908 33.4785 76.328 33.5378 76.1668 33.1982C75.9057 32.6512 75.8491 31.8363 75.2189 31.3817C75.0307 31.2474 74.3036 31.6287 74.5955 30.9704C74.6564 30.8327 75.5814 30.4723 74.5877 30.4186C74.4234 30.4111 73.0022 30.1872 73.454 29.4616C73.5723 29.2692 74.1517 28.642 73.9219 28.4811C73.8881 28.4608 73.5633 28.7884 73.4277 28.6262C73.1455 28.2833 72.9151 27.8897 72.6789 27.5144C72.5099 27.242 72.3387 26.9725 72.1458 26.7193C72.0145 26.5479 71.7557 27.0409 71.5715 26.7752C71.0639 26.044 70.6867 25.009 70.4567 24.1789C70.3736 23.8747 70.8072 23.9096 70.8348 23.8716C71.287 23.2582 70.3784 23.4423 70.2799 23.3535C69.6806 22.7987 69.8369 22.1013 69.4626 21.5161C69.3609 21.3549 69.0178 21.6473 68.9678 21.628C68.4681 21.4137 69.2942 21.3791 69.275 21.1165C69.2264 20.3855 68.9025 19.6915 68.5919 19.0683C68.4785 18.8427 68.1209 19.2915 68.0247 19.087C67.4375 17.8587 66.9886 16.5562 66.7898 15.2953C66.7536 15.0592 67.165 15.0549 67.229 14.9776C67.6797 14.4443 66.7216 14.306 66.6071 14.2368C66.0858 13.9228 66.3305 13.6263 66.1148 13.2901C65.8704 12.9166 65.6045 12.4932 65.5478 12.4542C65.5396 12.4504 65.5522 12.4838 65.6349 12.5902C65.6814 12.6489 65.7493 12.7287 65.852 12.8303C65.9702 12.9462 66.1358 13.0948 66.3872 13.2638C66.8784 13.6233 68.2163 14.2002 69.6383 13.911C70.3466 13.7724 70.7983 13.5438 71.1816 13.3047C71.5148 13.0902 71.7188 12.9027 71.8774 12.7413C72.3563 12.2363 72.4682 11.9455 72.541 11.7983C72.6056 11.6485 72.6062 11.6104 72.599 11.6122C72.5794 11.6218 72.5182 11.7837 72.4642 11.965C72.3515 12.3398 72.2394 12.8376 72.1492 13.3047C71.7024 15.7417 71.2557 17.9107 71.2639 20.5137C71.2645 20.6777 71.7807 20.5278 71.7878 20.6696C71.8179 21.5106 71.7891 22.3098 71.7582 23.1504C71.7202 24.1792 71.6769 25.2091 71.7406 26.2547C71.7492 26.4099 72.2378 26.1945 72.2678 26.4444C72.3328 26.9596 72.2958 27.6056 72.1328 28.115C72.0542 28.365 71.6436 28.0212 71.573 28.2733C71.4075 28.8666 71.3632 29.4941 71.4318 30.1015C71.462 30.3594 71.9637 29.9783 71.9644 30.3133C71.9793 32.6021 72.0339 34.8451 71.3618 37.1484C71.3156 37.3063 70.306 37.4326 70.495 37.7718C70.7743 37.8008 71.1034 37.8036 71.4022 37.8185C71.5205 41.1517 71.1323 44.439 71.0406 47.7837C71.0368 47.9245 71.5735 47.6873 71.569 47.9596C71.5434 49.5365 71.6745 51.0704 71.1263 52.6817C71.0726 52.8422 70.1341 52.7437 70.2711 53.2213C70.2961 53.3104 70.4138 54.011 70.6157 54.205C70.6462 54.2303 71.0861 54.1052 71.0964 54.3348C71.1111 54.6954 71.1125 55.0894 71.1013 55.4532C71.0719 56.4321 70.9552 57.432 70.7516 58.3875C70.7053 58.598 70.2407 58.3689 70.2037 58.5179C69.9442 59.6059 70.2867 60.7799 69.8519 61.8142C69.5592 62.501 68.7546 62.2401 67.9563 62.5984C67.8437 62.6494 67.8216 63.0765 67.3591 63.0939C66.1961 63.1402 64.9253 62.9178 63.6854 62.9927C63.5519 63.001 63.5556 63.1468 63.5125 63.2545C63.491 63.3025 63.4578 63.3662 63.3899 63.3769C63.322 63.393 63.219 63.3258 63.0586 63.2425C63.0156 63.2141 62.8057 62.7955 62.588 62.6903C62.4375 62.6171 61.966 62.744 61.7739 62.5915C61.582 62.447 61.9777 62.2894 61.7528 62.0427C61.525 61.8034 60.989 61.9011 60.9308 61.4184ZM115.8 62.7154C115.459 62.239 115.283 63.8755 115.714 63.5134C115.735 63.494 115.818 62.7388 115.8 62.7154ZM100.295 80.3789C101.136 80.641 100.748 79.5902 100.124 79.367C99.5007 79.1445 100.039 80.3002 100.295 80.3789ZM96.5564 84.0064C97.3685 84.0925 95.9909 82.2078 95.795 82.965C95.7829 83.0086 96.5089 84.0017 96.5564 84.0064ZM67.748 60.8893C67.7261 60.894 67.7015 61.2014 67.7231 61.2101C68.2438 61.3799 68.2925 60.7635 67.748 60.8893ZM92.8934 87.6523C93.23 87.788 93.4176 87.174 92.996 87.0077C92.6536 86.8765 92.4736 87.4843 92.8934 87.6523ZM96.1275 61.351C96.1181 61.3293 95.8829 61.308 95.8783 61.4438C95.8789 61.8966 96.2745 61.7589 96.1275 61.351ZM86.0255 92.866C87.0595 92.3461 88.9027 93.3515 87.5454 94.0384C87.3033 94.154 87.6798 93.2054 87.2998 93.2535C86.6408 93.2973 86.9199 94.6478 85.8111 94.2915C85.7258 94.2487 85.8794 93.8972 85.9317 93.5517C85.9892 93.2074 85.9914 92.8773 86.0259 92.8627C86.0257 92.8638 86.0256 92.8649 86.0255 92.866ZM115.733 60.7287C115.727 60.7064 115.422 60.6631 115.413 60.6841C115.209 61.1928 115.822 61.28 115.733 60.7287ZM90.4565 49.8817C90.4905 49.8467 90.2003 49.1989 90.1497 49.1944C89.2213 49.2624 89.8076 50.5766 90.4565 49.8817ZM123.187 68.2038C123.157 68.8277 122.856 69.074 122.288 68.642C122.597 68.5016 122.879 68.3444 123.187 68.2038Z" fill="black"/>
<path d="M65.0701 65.7536C63.913 65.912 62.3906 65.7754 61.2299 65.5779C60.8671 65.5167 61.0499 65.2231 60.801 65.1677C60.3032 65.0598 59.8658 65.2076 59.3705 65.0781C59.2137 65.0336 59.4034 64.5697 59.2386 64.5337C58.3121 64.3398 57.4587 64.467 56.5188 64.3796C51.9312 63.9477 47.4369 63.8318 42.8 63.6894C41.6637 63.655 40.3612 63.432 39.1058 63.403C38.6938 63.3923 38.2991 63.4125 37.9211 63.4792C37.7534 63.5096 37.8754 63.9092 37.8452 63.9442C37.3744 64.4831 37.4915 63.657 37.1548 63.5712C35.8078 63.2357 34.3213 63.4014 33.0934 63.8048C32.5742 63.978 33.2672 64.6584 32.6436 64.3261C32.6001 64.3042 32.646 63.8544 32.4904 63.8405C32.1347 63.8092 31.5173 64.0319 31.2516 64.0633C30.7348 64.1219 30.6525 64.1482 30.1759 64.2704C29.5235 64.4349 28.6829 64.4558 27.9902 64.7611C27.8422 64.8276 28.1712 65.1909 27.9448 65.3356C27.7237 65.4789 27.0424 65.6383 26.7854 65.6021C26.5262 65.5671 26.531 65.2053 26.4688 65.1402C25.9647 64.5873 25.3982 65.6944 25.2857 65.7426C24.4956 66.1047 23.6427 66.273 22.752 66.2991C22.702 66.2905 22.619 66.3075 22.8344 66.2415C22.8625 66.232 22.8962 66.2202 22.937 66.2044C22.9734 66.1896 23.0314 66.169 23.1466 66.1128C23.2549 66.0588 23.3931 65.9828 23.5644 65.8475C23.6497 65.7796 23.743 65.6961 23.8398 65.5905C23.8881 65.5377 23.9372 65.4793 23.9859 65.4148C24.0522 65.3276 24.1311 65.2083 24.1964 65.0836C24.4805 64.5831 24.5441 63.8206 24.391 63.3265C24.3568 63.2009 24.315 63.0878 24.2712 62.9887C24.2428 62.9249 24.2134 62.8664 24.1839 62.8126C24.1247 62.7051 24.0654 62.6166 24.0098 62.5422C23.7919 62.2549 23.6071 62.1328 23.5637 62.1017C23.3104 61.9417 23.3673 62.0145 23.4 62.0381C23.4404 62.0717 23.515 62.1176 23.5994 62.1644C23.9405 62.3526 24.372 62.5424 24.8294 62.6911C26.0509 63.0843 27.4626 63.3381 28.6497 63.7489C30.0711 64.2413 31.2159 64.8786 32.6151 65.3354C32.7617 65.3839 32.7663 64.8343 32.9465 64.893C34.8749 65.523 36.754 66.3191 38.4798 67.4655C38.6519 67.5808 38.2273 67.8907 38.3873 68.0304C39.352 68.8485 40.6137 70.4161 42.1263 69.2601C42.1781 69.2198 42.2302 69.1762 42.2826 69.1292C42.9847 69.5871 43.8267 70.1287 44.2872 70.8332C44.5808 71.2853 43.9386 71.501 44.5513 71.5934C44.6906 71.6156 44.7469 71.1513 44.9402 71.2136C45.7503 71.4746 46.4798 72.04 47.3044 72.2456C47.4721 72.2863 47.6233 71.9246 47.6988 71.8866C48.3331 71.5915 48.45 72.7375 48.5396 72.8674C49.2494 73.8584 50.0472 74.0904 50.922 74.621C51.1257 74.745 51.1475 74.1502 51.356 74.2552C52.4269 74.8021 53.4633 75.4828 54.3366 76.2992C54.527 76.48 54.0909 76.7334 54.1695 76.8389C54.5294 77.3071 55.0808 76.6598 55.4239 77.0923C55.4972 77.183 55.2404 77.4718 55.235 77.518C55.153 78.2449 55.8848 77.6073 55.9649 77.6344C56.983 77.9551 57.0106 79.1369 57.902 79.57C58.0117 79.6229 58.0547 79.0697 58.3488 79.2446C60.2783 80.3888 62.1566 81.8969 63.6545 83.6327C63.8823 83.8987 63.4607 84.0201 63.4493 84.0687C63.2748 84.8316 64.0555 84.2693 64.1644 84.3165C65.0311 84.7286 65.0921 85.8641 66.35 85.5732C66.8162 86.1922 67.3098 86.7212 67.7945 87.7827C69.0797 90.9863 69.5946 94.1975 69.0149 97.2663C69.0068 97.3142 68.5411 97.2632 68.5268 97.3583C68.3472 98.4954 69.0455 98.2317 69.9683 98.9144C70.1999 99.0868 69.1814 99.7194 69.1074 99.7744C68.8343 99.9752 68.1378 99.8314 68.0866 99.896C67.6868 100.431 69.9428 100.197 69.9905 100.87C69.9883 100.891 69.5658 100.833 69.5283 100.892C69.4108 101.077 69.5888 101.239 69.4584 101.422C69.1564 101.837 68.0686 102.071 68.7583 102.62C68.848 102.688 70.1182 102.466 70.1113 103.062C70.106 103.301 70.2349 104.339 70.1884 104.637C70.1401 104.937 69.705 104.787 69.6896 104.809C69.2424 105.665 68.9808 105.393 68.2301 105.905C67.4856 106.422 69.3794 106.04 69.6153 106.169C69.85 106.299 69.4922 106.94 69.3621 107.11C69.2307 107.278 68.9412 107.143 68.8747 107.286C68.4483 108.232 69.8814 107.489 70.2309 107.706C71.0317 108.186 69.843 108.916 69.7645 109.537C69.762 109.559 69.7607 109.58 69.7608 109.602C69.762 109.775 70.0483 109.568 70.1118 109.707C70.3587 110.259 70.0039 110.703 70.5502 111.241C70.6396 111.331 71.6023 111.669 71.0681 112.149C70.991 112.218 70.6122 112.165 70.5918 112.424C70.5593 112.806 70.6407 113.479 70.8516 113.843C71.0066 114.108 71.4977 113.643 71.4075 114.044C71.367 114.222 70.9618 114.01 70.9135 114.336C70.8614 114.649 71.0705 115.436 71.1529 115.718C71.2362 116.003 71.6291 115.737 71.664 115.753C71.8651 115.85 72.2116 116.35 72.2248 116.405C72.9018 118.87 72.7796 121.341 73.7014 123.654C73.7728 123.835 74.1886 123.581 74.2041 123.608C74.5815 124.205 73.234 124.04 72.9638 124.607C73.8614 124.281 73.7657 124.572 74.0042 125.009C74.1184 125.213 74.4365 124.989 74.4787 124.998C75.112 125.161 74.481 125.575 74.3593 125.684C73.9042 126.061 74.5905 126.105 74.2859 126.353C73.9844 126.602 73.3706 126.429 73.5092 126.855C73.8735 126.879 74.6235 126.287 74.8652 126.579C75.7619 127.647 75.8561 130.125 76.1429 131.129C76.4227 132.13 76.5992 132.425 76.6868 133.045C76.8397 134.175 77.3333 133.567 77.8403 134.185C78.3391 134.841 76.662 134.896 76.352 135.086C76.0369 135.264 76.4108 135.277 76.25 135.436C76.0876 135.59 75.8028 135.405 75.7888 135.676C75.787 135.708 75.7956 135.744 75.8126 135.782C75.9462 136.1 76.5834 136.593 76.9177 136.611C77.7194 136.654 78.4426 136.152 78.3178 136.927C78.3103 136.972 77.8628 136.928 77.8553 137.097C77.8164 138.422 78.0777 139.745 78.234 140.999C78.2597 141.169 77.7617 141.211 77.7769 141.322C77.7887 141.402 77.8078 141.48 77.8307 141.546C77.8714 141.606 77.8284 141.63 78.0167 141.738C78.2673 141.824 78.3954 141.626 78.4112 141.604C78.4688 141.513 78.4762 141.466 78.4875 141.419C78.5062 141.324 78.496 141.264 78.4758 141.204C78.4316 141.098 78.3367 141.012 78.2076 140.95C77.9506 140.814 77.5681 140.703 77.1846 140.4C78.3479 140.665 79.1142 140.403 79.188 139.575C79.2319 139.08 78.7085 139.119 78.3677 138.778C78.2654 138.67 78.6448 138.354 78.4064 138.27C77.6268 137.999 76.7139 138.275 77.1268 137.454C77.1462 137.418 77.5731 137.565 77.6083 137.44C77.8376 136.625 77.0129 136.463 76.974 135.561C76.9434 134.849 77.5387 133.637 77.6815 132.84C79.0104 132.957 78.7626 132.181 77.8698 131.8C77.9477 131.284 77.9407 130.72 78.1093 130.223C78.1668 130.055 78.5423 130.2 78.5857 130.181C79.2655 129.905 78.3932 129.603 78.3679 129.486C78.2552 128.897 78.3701 128.375 78.4625 127.856C78.5649 127.276 78.6389 126.716 78.3523 126.083C78.3327 126.039 77.4162 125.889 78.1216 125.637C78.17 125.621 78.5502 126.052 78.6386 125.501C78.7274 124.947 79.3277 123.995 78.9887 123.178C78.9068 122.981 78.2114 122.443 78.84 122.135C78.9253 122.094 79.1826 122.181 79.3381 122.125C79.8339 121.947 78.9195 121.707 79.7425 121.533C80.5659 121.356 81.2238 120.888 80.7809 120.05C80.7682 120.024 80.056 119.747 80.0996 119.512C80.1682 119.148 80.3994 118.608 80.4511 118.216C80.4757 118.027 80.0021 118.082 79.9984 118.048C79.9287 116.732 80.4784 115.87 80.8847 114.546C80.962 114.292 80.465 113.485 81.0463 113.075C81.6809 112.641 83.8004 113.6 83.5004 112.306C83.3816 111.789 80.6943 110.583 82.3364 110.024C82.345 108.241 83.464 106.863 83.4185 105.063C83.4173 104.98 82.7139 104.521 82.7752 104.346C82.8664 104.092 83.2701 104.045 83.349 103.864C83.6873 103.115 83.606 102.299 83.8992 101.559C84.0098 101.279 84.3425 101.506 84.4775 101.167C84.6095 100.838 84.2045 100.442 84.5919 100.069C84.89 99.777 85.9939 99.7735 86.2659 99.3579C85.3011 99.0013 85.429 98.6989 85.3649 98.0445C85.3512 97.9207 84.9735 97.9204 84.9495 97.8561C84.8438 97.5933 85.1911 97.4899 85.0635 97.2351C85.0335 97.1719 84.7006 97.0602 84.657 97.0029C84.2735 96.5158 85.1893 96.2216 85.3496 96.1601C85.573 96.0815 85.6609 95.9906 85.696 95.8978C85.7608 95.7313 85.6708 95.5595 85.8474 95.4183C86.1268 95.1948 86.251 95.6872 86.4666 95.3936C86.9129 94.7844 87.1107 93.8922 87.3242 93.2041C87.4074 92.9289 86.9028 92.9886 86.9043 92.9462C86.9533 92.3425 87.5972 91.9014 86.7897 91.3289C89.2239 91.5944 86.6626 90.9201 87.3602 90.236C87.4161 90.1824 88.537 90.4143 88.6278 90.7066C88.7184 90.9993 88.2687 91.2756 88.4223 91.6899C88.4581 91.7878 89.3544 92.5458 89.3985 92.6273C89.7437 93.2634 88.0832 92.866 87.9856 92.8665C86.9284 92.8869 87.8736 93.7719 87.907 93.944C88.061 94.7301 87.6622 95.2462 87.7449 95.8929C87.7864 96.2296 88.4691 96.5213 88.6838 96.7708L88.694 96.7351C88.7483 96.8021 88.7718 96.8678 88.7461 96.9321C88.3176 97.9912 86.7216 97.8221 87.687 99.1854C87.8917 99.4769 89.1147 99.6772 87.9645 100.067C87.8929 100.089 86.8836 100.32 87.3088 100.793C87.3623 100.853 87.6994 100.967 87.7108 101.026C87.7839 101.411 87.4392 101.544 87.4525 101.932C87.463 102.329 87.5191 102.807 87.2764 103.17C87.133 103.381 86.3996 103.505 86.2103 103.568C85.6633 103.752 86.2875 104.339 85.6866 104.374C85.0793 104.421 84.372 103.762 83.8556 104.215C84.7372 104.495 85.6348 104.807 86.5185 105.099C86.1476 106.261 85.552 107.347 85.3025 108.561C85.2734 108.708 85.7925 108.674 85.7739 108.835C85.6921 109.521 85.2142 110.027 85.2001 110.765C85.1936 111.324 85.5855 112.032 85.605 112.622C84.4952 112.78 84.6891 113.684 84.4831 114.291C84.412 114.499 84.1363 114.436 84.0183 114.575C83.5798 115.104 84.5493 114.989 84.6664 115.175C85.1685 115.97 83.0737 115.662 82.9907 116.511C82.9856 116.554 84.0186 117.25 84.0772 117.334C84.4593 117.865 83.6773 117.35 83.5506 117.629C83.3177 118.154 83.0007 118.459 83.2386 119.139C83.309 119.341 83.946 119.868 83.3604 120.144C83.2836 120.181 82.9174 120.106 82.8908 120.141C82.4401 120.77 83.5985 120.954 83.9437 121.384C84.2893 121.81 83.4135 122.311 83.1672 122.409C82.5296 122.661 82.9411 122.13 82.8846 122.106C82.2104 121.816 82.2769 122.271 82.1773 122.607C81.0299 122.526 81.0446 122.995 82.0801 122.946C82.1934 122.938 82.1165 122.674 82.1773 122.607C83.2616 123.036 83.3472 123.547 82.2362 124.01C81.7164 124.222 81.1692 123.922 81.2924 124.746C81.3481 125.123 82.1497 125.064 82.3303 125.411C82.7409 126.218 81.9146 127.086 81.9582 127.882C81.9742 128.169 82.4307 127.932 82.4565 128.13C82.4605 128.16 82.4631 128.19 82.4645 128.219C82.4869 128.701 82.171 129.097 82.286 129.591C82.2977 129.638 82.7589 129.565 82.7512 129.722C82.7016 130.921 82.3284 131.948 82.2267 133.201C82.1773 133.809 82.3489 134.912 82.2551 135.539C82.095 136.62 81.3471 137.936 81.4374 138.898C81.494 139.524 81.9547 139.435 82.2419 139.725C82.8005 140.299 81.6297 141.225 81.4278 141.404C81.4286 141.384 81.4 140.725 81.1275 141.044C80.6239 141.169 81.4267 141.396 81.4278 141.404C81.3957 141.427 81.3525 141.546 81.2873 141.758C81.2444 141.898 81.2269 141.985 81.1008 142.346C81.0678 142.432 81.0389 142.519 80.9399 142.726C80.8926 142.823 80.834 142.934 80.7495 143.066C80.7048 143.136 80.6654 143.194 80.592 143.291C80.4915 143.422 80.3631 143.572 80.1806 143.735C79.8128 144.053 79.2321 144.461 78.254 144.514C77.2674 144.558 76.4841 144.092 76.1168 143.761C75.6471 143.336 75.5157 143.057 75.3947 142.843C75.0936 142.196 75.0255 141.901 74.9312 141.774C74.8385 141.649 74.4581 141.865 74.4175 141.795C73.5152 140.218 73.125 138.854 73.0039 137.347C73.007 137.319 73.4852 137.259 73.4867 137.196C73.5003 136.836 73.3951 136.556 73.2325 136.305C73.0243 136.077 72.6848 135.922 72.3999 135.69C71.9163 135.296 71.8576 134.789 72.503 134.14C72.2383 133.708 72.325 132.875 72.3891 132.393C72.4541 131.915 71.5509 132.164 71.5204 132.133C70.5638 131.189 70.8456 130.348 70.5429 129.137C70.3948 128.544 69.9247 127.487 69.6393 126.889C69.4189 126.442 69.5353 126.062 69.275 125.671C69.2395 125.616 68.8574 125.793 68.8367 125.779C68.2125 125.418 69.2601 125.374 69.4047 125.22C69.9272 124.645 70.2098 124.355 69.726 123.786C69.615 123.654 68.0881 123.637 67.9293 123.384C67.7274 123.061 68.2667 123.04 68.0469 122.72C68.0284 122.692 67.7177 122.784 67.6706 122.557C67.4385 121.467 67.3279 120.308 67.0139 119.216C66.9718 119.065 66.5239 119.388 66.4547 119.171C66.1406 118.191 65.8827 117.082 65.8707 116.021C65.8716 115.769 66.2577 115.833 66.349 115.756C66.9005 115.289 65.877 115.055 65.841 114.983C65.0812 113.504 65.3661 112.154 64.9174 110.653C64.8433 110.4 64.7546 110.145 64.6449 109.885C64.5975 109.785 63.4359 109.112 64.2198 108.573C64.2711 108.534 65.0766 108.015 64.4272 107.785C64.3866 107.77 63.9751 108.077 63.9552 107.661C63.9359 107.249 63.5386 106.63 63.9641 106.011C64.0977 105.814 64.9217 105.301 64.1671 104.867C64.114 104.842 62.449 104.199 63.5148 103.808C63.6905 103.745 64.8487 103.685 64.2028 103.133C64.0779 103.028 63.838 103.261 63.6509 102.968C63.3629 102.521 63.6252 101.88 63.0699 101.352C62.9717 101.262 62.1565 100.892 62.731 100.521C62.821 100.463 63.2141 100.536 63.2457 100.358C63.398 99.5117 63.0862 98.675 63.2963 97.8501C63.3699 97.5586 64.005 97.6582 64.1504 97.3481C64.2961 97.0395 64.4088 96.4303 64.0956 96.1513C63.7827 95.876 62.8197 96.293 62.698 95.8602C62.1683 93.9993 62.469 92.2451 62.0409 90.8533C61.9778 90.6529 61.7073 90.9381 61.5906 90.6688C61.5701 90.6227 61.548 90.5759 61.5247 90.5286C61.7455 91.0094 61.6512 90.8107 61.4637 90.6473C61.2708 90.4561 60.9894 90.1903 60.6884 89.8962C60.0916 89.3112 59.4536 88.6385 59.1841 87.9611C58.7064 86.8095 60.079 87.3013 59.5657 86.5836C59.3213 86.2431 58.2549 86.8916 58.1618 86.8675C57.1717 86.5881 56.9384 85.7877 56.1228 85.4074C55.9574 85.3315 55.8316 85.8175 55.6939 85.7489C55.2148 85.5138 54.8856 85.034 54.4364 84.7776C54.2399 84.6675 54.0749 84.9894 53.9186 84.8514C53.5376 84.522 53.2548 84.1548 53.0261 83.6043C53.0048 83.5538 53.5043 83.3456 53.1975 83.1263C52.7076 82.7774 52.2454 82.088 51.4739 82.0091C51.2438 81.9867 50.7951 82.6739 50.7231 81.9615C50.7067 81.8121 51.3284 81.037 50.4379 81.4881C50.2849 81.5595 48.9506 82.0892 48.9662 81.2341C48.9701 81.0087 49.1355 80.1665 48.8583 80.1483C48.8189 80.1483 48.7082 80.5959 48.5094 80.5271C47.8065 80.2743 47.1779 79.8493 46.452 79.5873C46.2616 79.5205 46.2878 80.0632 46.0115 79.9512C45.2464 79.6407 44.4165 79.0339 43.7813 78.5139C43.5512 78.3234 43.9132 78.0931 43.9147 78.0468C43.9403 77.2941 43.3189 77.9818 43.1926 77.9718C42.4038 77.8939 42.1466 77.2683 41.5019 77.0447C41.3277 76.9838 41.2352 77.4238 41.1851 77.4402C40.6786 77.5918 41.292 77.045 41.1244 76.8571C40.6538 76.3271 39.9763 76.0031 39.3537 75.7351C39.1234 75.6366 39.1374 76.2091 38.9335 76.1157C38.8201 76.0647 38.7064 76.0124 38.5927 75.9588C37.5981 75.4955 36.5951 74.9448 35.6903 74.2678C35.5027 74.1266 35.7902 73.8338 35.7822 73.7341C35.7272 73.0369 34.9394 73.61 34.8076 73.641C34.1985 73.778 34.1447 73.3878 33.7035 73.2761C31.5444 72.7316 29.0194 71.6011 27.0074 70.8002C25.7558 70.3005 24.6478 69.8212 23.5011 69.3518C22.9372 69.1189 22.3498 68.8877 21.6806 68.6222C21.3121 68.4704 21.036 68.3824 20.3316 68.0357C20.1864 67.9579 19.8726 67.8083 19.4345 67.4718C19.143 67.1893 18.5817 66.9599 17.9493 65.45C17.4876 64.4197 17.6747 62.4658 18.4519 61.4763C19.0071 60.6998 19.4303 60.4395 19.8068 60.1952C20.6145 59.7399 20.76 59.7655 21.0074 59.679C21.2247 59.6181 21.4357 59.5771 21.5508 59.5571C21.7717 59.5185 21.9578 59.4962 22.1374 59.4783C22.213 59.469 22.2928 59.4568 22.3761 59.4416C22.4849 59.4218 22.3088 58.9292 22.398 58.9057C23.5544 58.6285 25.4261 58.2295 27.3646 57.526C27.5251 57.4689 27.157 57.069 27.4109 56.9618C27.9353 56.7373 28.6553 56.5711 29.2693 56.5786C29.57 56.5811 29.291 57.0785 29.5907 57.0733C30.2815 57.0645 30.9968 56.9399 31.6735 56.7277C31.9612 56.6368 31.4198 56.2367 31.8055 56.1564C34.1569 55.6599 36.5768 55.3418 38.986 55.7494C39.2418 55.798 39.4969 55.854 39.7515 55.9181C39.9161 55.9597 40.0756 56.9652 40.4182 56.7667C40.4399 56.4866 40.4335 56.1576 40.4403 55.8585C43.89 55.6448 47.2988 55.947 50.7545 55.9573C50.9014 55.9576 50.641 55.4268 50.9251 55.4247C52.5568 55.412 54.1407 55.245 55.8164 55.7565C55.982 55.8065 55.9101 56.7468 56.3894 56.5992C56.48 56.5723 57.2159 56.4386 57.3957 56.2326C57.4219 56.2015 57.2799 55.7646 57.5215 55.7491C58.8969 55.667 60.3476 55.7512 61.7149 56.0041C61.9313 56.0458 61.7044 56.5153 61.8624 56.549C62.9953 56.7842 64.1866 56.4162 65.2673 56.8254C65.9805 57.1006 65.7327 57.9115 66.1156 58.6997C66.1734 58.8112 66.6146 58.8196 66.6358 59.2809C66.7251 60.4415 66.5492 61.7194 66.6676 62.9558C66.6795 63.0889 66.8367 63.0806 67.0018 63.1153C67.0537 63.1234 67.1035 63.134 67.1586 63.1491C67.2191 63.152 67.3053 63.1646 67.5739 63.1232C67.7172 63.0943 67.9168 63.0713 68.3257 62.8739C68.7025 62.7108 69.4908 62.0887 69.7692 61.2287C70.0316 60.3981 69.9268 60.0268 69.9525 60.4304C70.005 60.7843 69.5917 62.075 68.9391 62.5554C68.3277 63.0704 67.9606 63.1398 67.7483 63.2223C67.5319 63.291 67.4242 63.3158 67.3389 63.3413C67.1546 63.3899 67.1644 63.4156 67.1211 63.4528C67.0855 63.4886 67.0486 63.5273 67.006 63.5695C66.9428 63.6172 66.4647 63.8428 66.3733 64.0629C66.2959 64.2157 66.4519 64.683 66.2878 64.8797C66.1463 65.0758 65.948 64.685 65.712 64.916C65.4504 65.1502 65.5891 65.6833 65.0701 65.7536ZM72.683 130.221C72.9836 129.705 71.4038 130.168 71.9145 130.453C71.941 130.465 72.6686 130.247 72.683 130.221ZM84.3601 107.036C83.5297 107.355 84.4862 107.937 85.1139 107.733C85.7388 107.541 84.6123 106.939 84.3601 107.036ZM85.322 101.854C84.5934 102.244 86.7862 103.046 86.5314 102.303C86.5173 102.261 85.3642 101.832 85.322 101.854ZM64.3638 58.9508C64.3631 58.9726 64.6931 58.9898 64.6984 58.9681C64.8633 58.4435 64.2183 58.4094 64.3638 58.9508ZM86.4607 96.6353C86.106 96.724 86.287 97.3579 86.7325 97.2507C87.0944 97.1576 86.9062 96.516 86.4607 96.6353ZM68.9822 109.799C68.9906 109.794 68.9915 109.758 68.982 109.717C68.9666 109.65 68.9238 109.569 68.8403 109.591C68.6318 109.646 68.5693 109.742 68.6033 109.804C68.6398 109.871 68.7866 109.9 68.9822 109.799ZM88.9196 87.9366C88.489 89.253 86.4069 89.4242 87.0084 88.139C87.1155 87.9032 87.4504 88.8358 87.7063 88.5694C88.1783 88.0622 87.0999 87.3953 87.8606 86.9517C88.0032 86.8626 88.9526 87.8547 88.9216 87.9396C88.9209 87.9386 88.9203 87.9376 88.9196 87.9366ZM74.4844 129.378C74.5028 129.365 74.4212 129.055 74.3979 129.053C73.8471 129.051 74.0125 129.681 74.4844 129.378ZM68.5014 96.4478C68.5471 96.4269 68.5268 95.6829 68.481 95.6624C67.5977 95.3591 67.6355 96.8442 68.5014 96.4478ZM77.7179 132.831C77.2198 132.445 77.1896 132.028 77.869 131.802C77.8073 132.145 77.776 132.487 77.7179 132.831Z" fill="black"/>
</svg>
