<svg width="150" height="150" viewBox="0 0 150 150" fill="none" xmlns="http://www.w3.org/2000/svg">
<path d="M116.043 46.4441C114.276 46.5874 111.975 46.4341 110.234 46.2239C109.678 46.1586 109.953 45.8671 109.583 45.8089C108.841 45.6956 108.155 45.8386 107.42 45.7035C107.181 45.6574 107.479 45.1955 107.228 45.1577C106.036 44.9863 104.958 45.0418 103.766 45.0058C103.55 44.999 103.33 44.9888 103.105 44.9731C96.1449 44.4884 89.3143 44.3197 82.2768 44.1348C79.9583 44.0741 77.1355 43.6681 74.7406 43.8659C74.4612 43.8894 74.6303 44.2937 74.5773 44.3274C73.7461 44.844 74.0185 44.024 73.4727 43.9187C71.3083 43.5034 68.9002 43.4847 66.8234 43.6607C65.9368 43.7368 66.8333 44.5334 65.9372 44.0902C65.875 44.0602 66.0954 43.6276 65.8522 43.5841C65.3026 43.4861 64.2569 43.574 63.8298 43.5446C63.0078 43.4858 62.8747 43.4917 62.0933 43.496C61.0335 43.4982 59.7585 43.3008 58.6272 43.4146C58.3823 43.4403 58.713 43.8768 58.3235 43.9576C57.9312 44.0381 56.9136 44.0163 56.5624 43.918C56.2116 43.8196 56.3547 43.4704 56.2916 43.3919C55.7691 42.7292 54.6128 43.6787 54.4516 43.7047C51.6711 44.1468 49.2712 43.6697 46.66 43.7458C45.4391 43.7823 44.1212 43.8936 42.8988 43.9861C42.1224 44.0434 41.4153 44.0924 40.7025 44.118C38.5054 44.2003 36.5915 44.072 34.6007 44.42C34.3968 44.457 34.7161 44.9302 34.4754 44.9761C33.1733 45.2166 31.9978 45.5995 31.5407 45.9319C31.3044 46.0962 31.1621 46.2126 30.9665 46.5487C30.7774 46.8779 30.5997 47.4041 30.4561 48.0099C30.3979 48.2624 29.9732 47.8877 29.8883 48.1464C29.3726 49.7118 28.6426 52.7317 30.6673 53.7025C30.6621 53.9945 30.6579 54.3098 30.6497 54.6414C30.6216 55.6399 30.5508 56.7487 30.283 57.5876C30.0568 58.3178 29.5316 57.6511 29.7803 58.5128C29.8358 58.7082 30.2591 58.4326 30.3095 58.7279C30.5217 59.9783 30.4372 61.3511 30.7126 62.5806C30.7697 62.8305 31.1559 62.7459 31.2289 62.8145C31.8215 63.4015 30.924 64.4248 30.865 64.6523C30.4247 66.3279 30.6745 67.5335 30.7262 69.0789C30.738 69.4378 31.243 68.9931 31.2731 69.3359C31.4223 71.1227 31.4553 72.9735 31.2991 74.7341C31.2631 75.1259 30.8025 74.7869 30.7625 74.9752C30.5918 75.805 31.4405 75.9495 31.2935 76.7441C31.2637 76.9116 30.8785 76.835 30.838 76.8672C30.202 77.37 31.1512 77.74 31.1772 77.8606C31.5272 79.3883 30.6007 80.4168 30.8088 81.8986C30.8347 82.0758 31.2976 81.6515 31.341 82.1509C31.6331 85.4751 31.6817 88.9992 31.4977 92.314C31.4697 92.8255 31.0856 92.4854 31.0429 92.5201C30.3777 93.0796 31.3342 93.375 31.3797 93.5355C31.7167 94.8332 31.0198 96.1128 32.1985 96.9251C32.2008 97.4906 32.2181 98.0821 32.243 98.6354C32.3402 100.687 32.5591 102.693 32.8537 104.646C33.002 105.607 33.1707 106.576 33.3888 107.389C33.4883 107.783 33.6534 108.163 33.6625 108.206C33.6721 108.23 33.5094 108.108 33.3531 108.1C33.2036 108.093 33.2722 108.144 33.5107 108.13C34.3438 108.091 35.3475 108.065 36.2553 108.139C36.3273 108.143 36.2461 108.615 36.3896 108.621C38.1219 108.722 37.7245 108.045 38.8117 107.089C39.0771 106.85 40.0257 107.852 40.0956 107.927C40.3905 108.196 40.1404 108.897 40.2368 108.947C41.0288 109.338 40.7799 107.08 41.8275 107.028C41.8598 107.03 41.7449 107.453 41.833 107.49C42.1066 107.608 42.3781 107.429 42.6435 107.561C43.2756 107.866 43.5346 108.957 44.4269 108.28C44.5421 108.193 44.3138 106.914 45.2442 106.94C45.4283 106.945 45.8472 106.932 46.3351 106.922C46.87 106.912 47.4731 106.907 47.7142 106.945C48.1763 107.014 47.8732 107.438 47.9065 107.455C49.1597 107.966 48.6909 108.207 49.3398 109C49.9707 109.791 49.7504 107.869 49.9963 107.647C50.2513 107.425 51.1537 107.854 51.3873 108.005C51.6157 108.157 51.3441 108.427 51.5431 108.511C52.8584 109.059 52.0914 107.54 52.5168 107.223C53.5107 106.475 54.341 107.886 55.2734 108.005C55.525 108.037 55.313 107.716 55.5362 107.681C56.4272 107.545 56.9668 107.98 57.9667 107.551C58.1306 107.481 58.9308 106.605 59.4715 107.225C59.5484 107.315 59.3419 107.675 59.7229 107.748C60.2895 107.856 61.3108 107.915 61.9147 107.785C62.3621 107.689 61.8365 107.111 62.4056 107.283C62.6583 107.36 62.1995 107.712 62.6725 107.828C63.1426 107.944 64.3418 107.908 64.7976 107.888C65.253 107.868 64.9961 107.427 65.0324 107.397C65.2522 107.221 66.1227 106.992 66.1999 106.991C70.094 106.873 73.7014 107.573 77.4875 107.277C77.7823 107.255 77.5799 106.788 77.6249 106.779C78.6466 106.57 77.8566 107.828 78.572 108.237C78.4576 107.286 78.8794 107.453 79.5971 107.34C79.9401 107.285 79.7486 106.919 79.7796 106.88C80.2846 106.314 80.6553 107.034 80.7465 107.181C81.0846 107.722 81.4584 107.074 81.6908 107.436C81.924 107.795 81.4036 108.336 82.0842 108.322C82.272 107.979 81.7526 107.093 82.2759 106.943C82.7951 106.794 83.4352 106.73 84.1087 106.717C86.0418 106.682 88.3521 107.067 89.5231 107.12C91.1126 107.191 91.6107 107.13 92.5432 107.255C94.2011 107.484 93.6018 106.821 94.6389 106.524C95.6749 106.228 95.1598 107.852 95.3058 108.203C95.4485 108.554 95.6146 108.195 95.7957 108.388C95.9764 108.582 95.5803 108.817 96.0079 108.892C96.4345 108.968 97.6018 108.357 97.7611 107.993C98.0888 107.222 97.5764 106.402 98.6963 106.701C98.7603 106.719 98.5466 107.144 98.7921 107.191C100.769 107.544 102.823 107.599 104.791 107.931C105.058 107.977 104.809 108.448 104.964 108.481C106.617 108.821 106.018 108.005 106.958 107.135C106.73 108.317 107.201 109.053 108.456 109.092C109.204 109.116 109.079 108.595 109.584 108.243C109.735 108.137 110.253 108.508 110.353 108.267C110.685 107.479 110.225 106.573 111.499 106.966C111.554 106.984 111.363 107.415 111.555 107.447C112.819 107.658 112.992 106.83 114.36 106.774C115.428 106.73 117.326 107.306 118.524 107.432C118.457 108.764 119.618 108.501 120.113 107.597C120.759 107.649 121.536 107.648 122.061 107.704C121.984 107.711 121.828 107.754 121.716 107.84C121.605 107.922 121.558 108.008 121.548 108.043C121.532 108.116 121.656 108.112 121.75 108.16C121.85 108.201 121.942 108.257 121.964 108.258C122.328 108.236 122.317 107.955 122.19 107.793C122.065 107.615 121.843 107.481 121.833 107.397C121.601 105.654 122.229 104.104 121.551 102.369C121.526 102.308 120.599 102.222 121.268 101.739C121.314 101.707 121.745 102.275 121.764 101.457C121.784 100.631 122.252 99.0528 121.801 97.9098C121.729 97.7303 121.371 97.3742 121.302 96.9707C121.267 96.7753 121.308 96.569 121.504 96.3725C121.582 96.2951 121.849 96.373 121.995 96.2603C122.459 95.8879 121.519 95.7314 122.306 95.2975C123.093 94.857 123.671 93.9967 123.097 92.8424C123.08 92.8021 122.332 92.5499 122.336 92.1848C122.342 91.5945 122.478 90.7714 122.459 90.1601C122.449 89.8708 121.993 90.0667 121.983 90.0166C121.679 88.0646 122.056 86.66 122.182 84.5565C122.206 84.1681 121.55 83.0815 122.027 82.3231C122.55 81.493 124.834 82.2717 124.246 80.4068C124.011 79.6515 121.115 78.77 122.566 77.3673C122.125 74.7334 122.818 72.2722 122.214 69.6333C122.188 69.5144 121.376 69.163 121.378 68.8829C121.384 68.4641 121.751 68.225 121.767 67.9283C121.843 66.6774 121.488 65.5554 121.5 64.3496C121.504 63.8932 121.896 64.0486 121.901 63.4977C121.905 62.9504 121.384 62.6118 121.606 61.8638C121.776 61.3115 122.799 60.7101 122.896 59.9713C121.867 59.9716 121.872 59.481 121.57 58.5773C121.511 58.4066 121.16 58.6038 121.114 58.5238C120.918 58.2027 121.204 57.8787 120.992 57.5692C120.941 57.4941 120.59 57.503 120.528 57.4427C120.426 57.3451 120.371 57.2341 120.35 57.118C120.259 56.5968 120.775 55.9994 120.881 55.8624C121.381 55.2647 120.914 55.0071 121.102 54.5586C121.29 54.1142 121.573 54.7595 121.677 54.2375C121.89 53.1503 121.769 51.7624 121.713 50.6718C121.687 50.2264 121.24 50.5619 121.226 50.4988C121.048 49.6122 121.458 48.6464 120.472 48.2588C122.786 47.3455 120.196 47.7438 120.444 46.4461C120.462 46.3422 121.553 45.9686 121.798 46.3422C122.043 46.7239 121.786 47.3897 122.112 47.9128C122.189 48.0265 123.334 48.6787 123.407 48.7869C123.987 49.5653 122.289 49.8066 122.2 49.8564C121.229 50.4031 122.434 51.228 122.526 51.4632C122.952 52.532 122.752 53.4662 123.05 54.3661C123.242 54.9396 124.361 54.9765 124.345 55.4307C124.323 56.0817 124.047 56.5397 123.83 56.9932C123.52 57.6057 123.328 58.1552 124.151 58.9891C124.45 59.2944 125.66 58.9296 124.738 60.0909C124.68 60.1622 123.829 61.0187 124.4 61.4817C124.472 61.5391 124.828 61.5256 124.86 61.6034C125.071 62.126 124.799 62.4982 124.953 63.0683C125.107 63.6501 125.331 64.3308 125.231 65.0033C125.171 65.4002 124.524 65.9341 124.368 66.1318C123.916 66.6826 124.7 67.2376 124.144 67.5907C123.585 67.9425 122.702 67.3128 122.36 68.2032C123.286 68.2084 124.236 68.2554 125.168 68.2805C125.192 70.2171 124.948 72.1298 125.043 74.0699C125.056 74.3108 125.546 74.0505 125.572 74.3083C125.682 75.3936 125.354 76.355 125.525 77.4802C125.66 78.3508 126.211 79.2948 126.368 80.206C125.325 80.7925 125.719 82.1368 125.648 83.1266C125.623 83.4726 125.34 83.4565 125.254 83.7034C124.937 84.6384 125.86 84.1813 126.014 84.4316C126.669 85.501 124.556 85.652 124.639 86.933C124.643 87.0032 125.791 87.8016 125.864 87.9163C126.339 88.6375 125.474 88.0477 125.402 88.506C125.269 89.3342 125.013 89.9207 125.366 90.8937C125.47 91.1734 126.189 91.8451 125.657 92.4066C125.588 92.4802 125.214 92.4487 125.193 92.507C124.853 93.5832 126.024 93.566 126.434 94.1765C126.844 94.7679 126.054 95.7321 125.825 95.9174C125.232 96.4343 125.559 95.5427 125.5 95.5202C124.789 95.2217 124.924 95.8869 124.875 96.4205C124.184 96.48 123.939 96.7654 124.077 96.9178C124.167 97.0239 124.424 97.0717 124.828 96.9569C124.849 96.9508 124.862 96.9312 124.87 96.9026C124.902 96.786 124.834 96.5069 124.875 96.4205C125.21 96.549 125.46 96.7079 125.62 96.8883C126.001 97.3424 125.865 97.9186 125.134 98.555C124.648 98.9699 124.066 98.6038 124.299 99.8526C124.404 100.422 125.191 100.18 125.415 100.688C125.927 101.833 125.212 103.338 125.332 104.553C125.375 104.989 125.808 104.559 125.852 104.865C125.968 105.676 125.643 106.371 125.761 107.289C125.772 107.375 126.237 107.192 126.225 107.486C126.206 107.86 126.184 108.229 126.067 108.814C125.995 109.112 125.947 109.452 125.61 110.135C125.419 110.49 125.151 110.966 124.491 111.49C123.849 112.015 122.866 112.294 122.271 112.296C120.586 112.239 119.715 112.034 118.329 111.987C117.396 111.95 115.737 112.141 114.77 112.058C113.116 111.917 111.081 111.195 109.656 111.317C108.708 111.393 108.919 111.853 108.511 112.151C107.718 112.729 106.397 111.625 106.217 111.455C106.206 111.449 107.017 111.361 106.591 111.118C106.347 110.628 106.227 111.453 106.217 111.455C106.107 111.345 104.505 111.207 104.191 111.288C104.018 111.332 104.106 111.763 104.015 111.778C101.876 112.12 99.7424 112.197 97.5845 111.973C97.5464 111.964 97.6091 111.484 97.5192 111.469C96.2709 111.242 95.4552 111.824 94.4306 112.166C93.3865 112.509 92.5881 112.39 91.9699 111.563C91.1971 111.665 90.0681 111.301 89.4327 111.08C88.7914 110.86 88.7019 111.796 88.6457 111.815C86.9242 112.398 85.9182 111.907 84.158 111.822C84.1167 111.82 84.0749 111.818 84.0324 111.817C83.156 111.784 81.4289 111.938 80.4863 112.051C79.7325 112.142 79.2862 111.928 78.5992 112.076C78.5068 112.096 78.6054 112.512 78.5773 112.528C77.8161 113.035 78.1716 112.013 78.0106 111.833C77.4252 111.179 77.0652 110.831 76.0869 111.155C75.8618 111.229 75.2155 112.703 74.806 112.795C74.27 112.911 74.4618 112.383 73.9028 112.517C73.8549 112.529 73.8698 112.852 73.5223 112.843C71.9077 112.803 70.1454 112.64 68.4689 112.699C68.2399 112.706 68.5416 113.215 68.2108 113.233C66.6592 113.318 64.9574 113.328 63.4411 113.114C63.0677 113.059 63.2948 112.695 63.2121 112.59C62.7054 111.952 62.0174 112.904 61.902 112.924C59.144 113.427 57.0107 112.618 54.1989 113.087C54.05 113.114 52.8935 114.149 52.3429 113.299C52.3025 113.242 51.7698 112.371 51.3184 112.987C51.2909 113.026 51.6276 113.472 51.0588 113.441C50.4981 113.409 49.5976 113.737 48.8015 113.26C48.5586 113.11 47.9409 112.246 47.2342 112.972C47.2099 112.998 46.9007 113.452 46.5635 113.728C46.2358 113.981 45.8855 114.084 45.68 113.566C45.6107 113.388 45.6214 112.226 44.7848 112.853C44.62 112.975 44.9349 113.222 44.499 113.4C43.8469 113.675 42.9412 113.402 42.15 113.958C42.019 114.055 41.4504 114.872 40.9361 114.301C40.8563 114.212 40.9783 113.817 40.7227 113.788C39.4955 113.648 38.2582 113.989 37.0728 113.832C36.6519 113.779 36.7998 113.134 36.3543 113.013C35.9032 112.89 35.0749 112.84 34.6143 113.204C34.2447 113.479 34.5793 114.068 34.3879 114.422C34.3143 114.532 34.2149 114.631 33.6895 114.687C33.1029 114.749 31.9975 114.741 30.8856 114.285C29.7693 113.841 28.9557 113.101 28.4801 112.54C27.5316 111.38 27.2983 110.642 27.0437 109.994C26.6034 108.733 26.4681 107.797 26.3443 106.862C26.123 105.029 26.1003 103.345 25.9733 101.699C25.9373 101.209 25.6198 101.635 25.5449 100.927C25.4908 100.411 25.4237 99.847 25.3525 99.21C25.06 96.6325 24.7546 93.3561 25.2607 91.5166C25.7629 89.683 26.3563 91.9226 26.5236 90.5304C26.6037 89.867 25.4055 89.2137 25.3602 89.053C24.9046 87.5188 25.3616 86.4009 25.1339 85.0102C25.0867 84.7209 24.6312 85.0298 24.5962 84.783C24.473 83.9491 24.6395 83.0497 24.5631 82.2494C24.5276 81.8892 24.172 81.9719 24.184 81.6385C24.2089 80.8442 24.3271 80.1315 24.6283 79.3442C24.6558 79.2723 25.1238 79.7274 25.1137 79.1396C25.0961 78.1876 25.3755 76.995 24.9852 75.9178C24.868 75.5984 24.0472 75.6212 24.5835 74.8997C24.6955 74.7485 25.6883 74.892 24.8025 74.1182C24.6552 73.9872 23.4493 72.6752 24.161 71.9729C24.3483 71.7879 25.1353 71.304 24.9925 70.9217C24.97 70.8695 24.5383 71.1004 24.4818 70.7781C24.2903 69.644 24.2883 68.4557 24.102 67.2896C24.0515 66.9795 23.6146 67.4621 23.5539 66.9999C23.386 65.7241 23.437 64.1318 23.528 62.8719C23.5626 62.4114 23.9533 62.7126 23.9931 62.6775C24.6397 62.1203 23.7237 61.8269 23.6638 61.6529C23.303 60.5636 23.6912 59.6912 23.5356 58.6751C23.494 58.3978 23.0722 58.6136 23.0314 58.5598C22.6317 57.9927 23.4229 58.3938 23.4921 58.0188C23.6787 57.047 23.612 55.9424 23.5182 54.9678C23.5126 54.9082 23.5069 54.8492 23.5012 54.7907C23.4624 54.403 22.9837 54.8618 22.9548 54.5153C22.7892 52.4851 22.6672 50.3137 23.1032 47.7585C23.1937 47.2754 23.5532 47.613 23.6488 47.5185C24.3053 46.9028 23.6763 45.648 23.6898 45.2973C23.6961 43.8519 24.2545 43.2817 25.0522 41.9468C27.4863 38.3009 31.0938 37.7567 33.2523 37.3653C35.5986 37.0193 37.6143 36.9988 39.3772 36.9637C40.5328 36.9452 41.5778 36.9579 42.6302 36.9758C45.6507 37.0354 48.4049 37.1513 51.5367 37.0134C51.8031 37.0023 51.5234 36.4965 51.7534 36.4804C54.7314 36.2954 57.6672 36.4493 60.6453 36.2632C60.8889 36.2488 60.5319 35.7685 60.9216 35.7292C61.7193 35.6453 62.7503 35.6595 63.5593 35.8054C63.9566 35.8756 63.4293 36.2975 63.8292 36.3597C64.7647 36.5055 65.755 36.5301 66.7126 36.4434C67.1198 36.4054 66.5008 35.9153 67.0296 35.9046C70.6242 35.8224 74.1584 35.7135 77.7924 36.3376C78.0422 36.3805 78.2662 37.3873 78.7944 37.1915C78.833 36.9116 78.8293 36.5826 78.8453 36.2836C84.078 36.0984 89.2538 36.4362 94.4989 36.4853C94.7206 36.4873 94.3373 35.9536 94.7659 35.9547C97.2425 35.9603 99.6521 35.8117 102.175 36.3424C102.417 36.3943 102.303 37.3338 103.045 37.1917C103.112 37.1784 103.436 37.1391 103.766 37.0765C104.1 37.0168 104.439 36.9361 104.578 36.8366C104.617 36.8058 104.416 36.3673 104.771 36.3545C106.844 36.2879 109.049 36.388 111.129 36.656C111.467 36.7 111.108 37.167 111.348 37.2025C113.039 37.4503 114.88 37.0954 116.516 37.5194C117.59 37.8048 117.202 38.612 117.775 39.4066C117.853 39.5187 118.532 39.5365 118.564 39.9988C118.653 41.1613 118.328 42.4342 118.462 43.6733C118.491 43.9402 119.385 43.6527 118.856 44.2976C118.821 44.3408 118.163 44.5549 118.005 44.7737C117.89 44.9249 118.089 45.3951 117.868 45.5887C117.63 45.7822 117.395 45.3881 117.008 45.6156C116.632 45.8459 116.799 46.3808 116.043 46.4441ZM86.5304 110.102C85.9269 109.657 85.8493 111.303 86.4957 110.905C86.5269 110.884 86.5615 110.124 86.5304 110.102ZM123.707 72.1538C123.004 72.9575 124.085 73.462 124.63 72.8951C125.174 72.3254 123.92 71.9095 123.707 72.1538ZM122.936 64.0579C122.393 64.9884 124.729 65.0623 124.227 64.0962C124.199 64.0403 122.968 64.0038 122.936 64.0579ZM115.099 39.6329C115.101 39.6547 115.596 39.676 115.603 39.6544C115.862 39.1319 114.891 39.0897 115.099 39.6329ZM122.089 56.0305C121.784 56.3203 122.178 57.1354 122.557 56.7633C122.862 56.4627 122.468 55.6589 122.089 56.0305ZM55.3161 108.807C55.3059 108.783 54.9613 108.769 54.9713 108.907C55.0043 109.353 55.4811 109.216 55.3161 108.807ZM119.837 42.3989C120.811 44.3748 119.245 46.019 118.721 44.1368C118.6 43.7815 119.609 44.6055 119.574 44.1039C119.478 43.1302 118.124 43.2178 118.2 42.0941C118.212 41.8829 119.787 42.2778 119.841 42.4008C119.84 42.4002 119.839 42.3995 119.837 42.3989ZM86.1718 108.129C86.1569 108.107 85.6824 108.09 85.6703 108.111C85.4159 108.635 86.3768 108.671 86.1718 108.129ZM35.0011 108.737C34.9664 108.69 33.8357 108.816 33.817 108.862C33.3691 109.792 35.6037 109.553 35.0011 108.737ZM118.541 107.468C119.103 106.963 119.708 106.922 120.111 107.596C119.587 107.543 119.081 107.52 118.541 107.468Z" fill="black"/>
<path d="M70.3322 60.9706C70.4774 61.5811 70.329 62.4307 70.1232 63.0376C70.0594 63.236 69.7671 63.1377 69.71 63.2763C69.5987 63.5439 69.7436 63.7787 69.6108 64.0474C69.5654 64.1361 69.1027 64.0301 69.0656 64.1232C68.8658 64.6159 68.9881 65.1024 68.8951 65.5969C68.437 68.0927 68.299 70.5423 68.1348 73.0684C68.0811 73.9006 67.6821 74.9228 67.8838 75.7746C67.9077 75.8743 68.3117 75.8059 68.3455 75.8242C68.8633 76.1123 68.043 76.0306 67.9386 76.2288C67.5264 77.0122 67.5093 77.8766 67.6843 78.6183C67.76 78.9341 68.5569 78.5957 68.1132 78.9265C68.0832 78.9494 67.6508 78.8799 67.6072 78.968C67.5089 79.1679 67.5956 79.5403 67.5655 79.6941C67.5055 79.9906 67.5111 80.039 67.5138 80.3182C67.5138 80.7001 67.3126 81.1581 67.4221 81.5649C67.4467 81.6516 67.8844 81.5231 67.9636 81.6601C68.0426 81.7973 68.0162 82.1664 67.916 82.2934C67.8158 82.4204 67.4675 82.3783 67.3887 82.4027C66.7235 82.6028 67.6658 83.0028 67.6905 83.0562C68.1135 84.0397 67.6139 84.9146 67.6502 85.8533C67.6789 86.5641 67.8835 87.3133 67.8885 87.9947C67.8923 88.7958 67.6845 89.487 67.7645 90.2727C67.7724 90.3547 68.2858 90.2327 68.2965 90.3326C68.4103 91.3997 68.4118 92.4465 68.1314 93.5326C68.1027 93.6396 67.6393 93.5343 67.5835 93.6431C67.5551 93.7 67.5231 93.7597 67.4895 93.8214C67.3081 94.125 67.0941 94.4982 67.1704 94.7772C67.2413 95.0518 67.6245 95.2264 68.4533 94.847C68.4258 94.8352 68.3934 94.7918 68.2729 94.6644C68.1564 94.5487 67.9083 94.2907 67.4272 94.1374C66.9436 93.9782 66.4362 94.0904 66.2549 94.2205C66.0543 94.3517 66.0398 94.4716 66.0735 94.5659C66.2183 94.7764 66.4961 95.1959 66.4607 94.946C66.456 94.8863 66.1295 94.5965 66.1368 94.5376C66.1455 94.4732 66.1775 94.4098 66.2218 94.3417C66.4421 94.0419 66.7254 93.7894 66.8512 93.4173C66.8847 93.315 66.5862 93.0637 66.5551 92.9949C66.312 92.4283 67.2583 92.8085 67.364 92.8004C68.1757 92.7134 68.37 92.2576 68.8215 91.8704C68.9265 91.7812 68.4568 91.4988 68.5465 91.3981C69.0181 90.88 69.6082 90.4501 70.2832 90.219C70.434 90.1689 70.5986 90.6052 70.6841 90.5997C71.0554 90.574 70.6013 89.8624 70.9534 89.8262C71.0266 89.8183 71.2253 90.1459 71.2595 90.1726C71.793 90.5955 71.3667 89.7535 71.3932 89.7089C71.7083 89.1341 72.5703 89.7203 72.9508 89.2994C72.9968 89.2478 72.6027 88.9304 72.7494 88.8092C73.7256 87.9995 74.9347 87.4281 76.1826 87.1668C76.376 87.1258 76.4367 87.5078 76.4691 87.5408C76.9785 88.0553 76.6303 87.1782 76.6666 87.1177C76.9693 86.6586 77.7369 87.1348 77.4986 85.9977C77.5309 85.9875 77.563 85.977 77.5951 85.9663C79.5088 85.3369 80.9714 83.8867 83.17 83.8344C83.1979 83.8327 83.3731 84.2613 83.4279 84.2562C84.0864 84.2006 83.6495 83.6215 83.5986 82.6579C83.5859 82.4159 84.3516 83.2078 84.4131 83.2631C84.635 83.469 84.8623 84.1242 84.9178 84.1575C85.3655 84.4127 84.2685 82.428 84.5989 82.2536C84.6111 82.2515 84.7612 82.644 84.8085 82.666C84.9561 82.7356 84.9649 82.5437 85.116 82.6267C85.4634 82.8199 86.0408 83.761 86.0403 83.0377C86.0389 82.9446 85.3872 81.834 85.7092 81.7344C85.8405 81.6944 86.3492 81.4046 86.5374 81.401C86.7228 81.3986 86.8127 81.8189 86.8314 81.8293C87.4781 82.1114 87.4301 82.3921 88.0017 83.0099C88.5707 83.6256 87.6309 81.9413 87.6129 81.7085C87.595 81.4762 88.0904 81.7296 88.2344 81.8324C88.3775 81.9356 88.4092 82.2155 88.513 82.2621C89.1954 82.5654 88.2588 81.3171 88.2571 80.974C88.2574 80.1599 89.1596 81.3047 89.5217 81.2781C89.6191 81.2711 89.4063 81.0139 89.464 80.9505C89.6996 80.7008 90.0663 81.0154 90.2123 80.4844C90.2359 80.398 90.1133 79.498 90.5682 79.9762C90.633 80.0456 90.7232 80.3987 90.8808 80.4094C91.1136 80.4272 91.481 80.3324 91.6231 80.13C91.7307 79.979 91.3044 79.5342 91.5689 79.6077C91.6861 79.6409 91.6865 80.0231 91.8937 80.0601C92.0971 80.0988 92.4819 79.8952 92.6248 79.8134C92.7684 79.7308 92.4939 79.3687 92.4929 79.3359C92.4916 79.1457 92.6829 78.8162 92.7102 78.8039C93.5954 78.3399 94.6114 78.2709 95.538 78.0112C95.9065 77.9106 96.2602 77.7648 96.5193 77.5351C96.5872 77.4747 96.3009 77.0974 96.3088 77.0839C96.425 76.7833 96.892 77.9653 97.3282 78.1775C96.7536 77.4158 96.984 77.4702 96.9821 77.3221C96.9649 77.2651 96.6682 77.0433 96.6435 77.0143C96.4096 76.8531 96.3512 77.0096 96.4338 77.1675C96.511 77.3324 96.7212 77.4535 96.7933 77.4819C96.7963 77.4833 96.7992 77.4846 96.802 77.486C97.3358 77.4186 96.7006 77.315 97.0588 77.249C97.4142 77.154 97.9645 77.3105 97.9361 77.0542C97.5909 77.0358 96.7184 77.2537 96.5617 77.1566C96.264 76.9994 96.2466 76.8084 96.1692 76.4726C96.0981 76.1458 95.9652 75.7346 95.8049 75.5439C95.4889 75.1711 95.3081 75.1291 95.1289 74.8544C94.7934 74.3672 94.5967 75.0308 94.1661 75.1243C93.734 75.224 94.671 73.8868 94.8006 73.5576C94.9252 73.2265 94.6983 73.5121 94.7323 73.3116C94.7649 73.1104 95.0092 72.9727 94.902 72.8321C94.796 72.6909 94.1218 73.0447 93.9138 73.351C93.4696 73.9962 93.2718 74.8035 93.0575 74.3824C93.0448 74.3575 93.2948 74.0028 93.2361 73.9268C92.7621 73.336 92.0935 73.0313 91.5508 72.503C91.4752 72.4292 91.7315 72.0187 91.689 71.9706C91.2477 71.4708 91.1525 72.2959 90.5359 73.0143C91.026 71.9315 91.1173 71.1882 90.6945 71.0231C90.4407 70.9239 90.3046 71.4263 90.0152 71.7089C89.9284 71.7943 89.8717 71.3946 89.7555 71.6117C89.3756 72.3212 89.2385 73.22 88.9286 72.7298C88.9154 72.7071 89.1244 72.3189 89.0678 72.2703C88.7019 71.9542 88.369 72.7203 87.8737 72.6493C87.4861 72.5942 87.0101 71.8825 86.6236 71.6516C87.0931 70.403 86.6022 70.5471 86.1182 71.3474C85.8642 71.2116 85.5495 71.1465 85.3372 70.9262C85.2641 70.8508 85.4645 70.5146 85.4686 70.4714C85.5412 69.7962 85.0907 70.5792 85.019 70.588C84.2576 70.6463 84.0242 69.8074 83.1423 70.1148C83.1117 70.1262 82.6618 70.9384 82.8009 70.2508C82.8129 70.2045 83.1971 69.9268 82.9344 69.7567C82.6582 69.5795 82.4009 68.8712 81.8011 68.986C81.6856 69.0073 81.2462 69.2919 81.1356 69.107C81.1296 69.1034 81.1134 69.0894 81.1075 69.0855C81.0867 69.0407 81.0919 68.963 81.1361 68.8379C81.1644 68.7588 81.3503 68.5666 81.4107 68.4264C81.5998 67.9768 80.9774 68.6797 81.3426 67.958C81.7079 67.2368 81.8 66.5601 81.1323 66.7586C81.1117 66.7635 80.6006 67.3108 80.5016 67.2271C80.3426 67.0918 80.1848 66.7967 79.9993 66.6792C79.9108 66.6234 79.7116 67.0445 79.6918 67.0415C78.9729 66.8764 78.7788 66.2707 78.2176 65.7354C78.1137 65.6355 77.4648 65.9883 77.4742 65.4262C77.479 64.809 78.8374 62.9686 77.9525 63.1065C77.5872 63.1574 75.9787 65.5563 76.2074 64.0099C75.1916 63.9197 74.6951 62.86 73.5996 62.9722C73.55 62.9768 73.1185 63.6652 73.0312 63.6176C72.9016 63.5452 72.966 63.1673 72.8768 63.1047C72.5031 62.8327 72.0073 62.9843 71.6232 62.7874C71.4773 62.7136 71.6658 62.3704 71.4892 62.2822C71.3113 62.1943 71.0177 62.63 70.8515 62.3093C70.7285 62.0663 70.8809 61.015 70.6639 60.8121C70.4315 61.4675 70.2802 61.6432 70.0844 61.7358C69.9971 61.78 69.8934 61.8019 69.7642 61.8461C69.6871 61.8727 69.6202 62.2306 69.5768 62.2602C69.3952 62.3876 69.3997 62.0702 69.217 62.2127C69.1728 62.2467 69.0388 62.5713 68.9944 62.6171C68.6075 63.0181 68.6116 62.1598 68.6183 62.0123C68.6343 61.4491 68.3616 61.8269 68.2972 61.5718C68.2383 61.3189 68.5606 61.1835 68.4444 60.9931C68.2048 60.5996 67.7358 60.4383 67.3931 60.2532C67.2548 60.1811 67.1449 60.6489 67.1204 60.6484C66.7758 60.6126 66.7064 60.0218 66.128 60.7768C67.0039 58.5165 65.849 60.8999 65.6498 60.2596C65.6345 60.2081 66.106 59.1676 66.305 59.0799C66.5033 58.9921 66.5329 59.4059 66.8229 59.2584C66.8892 59.2229 67.6011 58.382 67.6588 58.3382C68.1314 58.0068 67.4131 59.5541 67.3859 59.6452C67.0894 60.6261 67.8867 59.7323 67.9923 59.6946C68.4948 59.5318 68.6801 59.8843 69.072 59.7771C69.3271 59.7083 69.801 58.696 69.9235 58.7878C70.3193 59.0846 69.9101 60.6015 70.8376 59.5094C70.9338 59.3941 71.0638 59.0503 71.17 58.8524L71.0721 58.8176C71.1813 58.6118 71.2793 58.5653 71.3237 59.0965C71.3301 59.1626 71.3348 60.0939 71.6882 59.6298C71.7329 59.5712 71.851 59.2355 71.8893 59.2174C72.1443 59.1027 72.1761 59.4154 72.4283 59.3629C72.6824 59.3111 73.0023 59.214 73.197 59.4171C73.3143 59.5389 73.2575 60.2278 73.2653 60.405C73.2833 60.9137 73.7677 60.281 73.6749 60.8539C73.5786 61.4286 73.0341 62.1411 73.1937 62.602C73.5519 61.7494 73.9347 60.8805 74.3037 60.0267C74.9799 60.3369 75.5306 60.9 76.2229 61.1734C76.3094 61.2067 76.4312 60.7154 76.5304 60.74C76.9487 60.8467 77.1285 61.3254 77.5835 61.3934C77.9368 61.4446 78.5119 61.1473 78.8967 61.2005C78.5988 62.239 79.23 62.1715 79.5221 62.4482C79.6234 62.5439 79.4759 62.7853 79.5132 62.9127C79.6546 63.3873 79.9766 62.4941 80.1372 62.417C80.8318 62.0962 79.7829 63.9341 80.2243 64.1433C80.2458 64.1537 81.1176 63.368 81.1955 63.3346C81.6856 63.1032 81.0257 63.6917 81.1315 63.8582C81.324 64.163 81.3601 64.5087 81.8613 64.4492C82.0064 64.4292 82.6328 64.0065 82.4996 64.5784C82.4821 64.6531 82.254 64.9486 82.2601 64.9796C82.3843 65.5144 83.0769 64.5711 83.511 64.3973C83.9468 64.225 83.763 65.1017 83.6783 65.3313C83.4661 65.9291 83.4017 65.4434 83.3569 65.4842C82.8319 65.9698 83.1168 66.0335 83.239 66.2046C82.9895 66.5421 82.8655 66.7715 82.8351 66.8844L82.8022 66.8593C82.739 67.0452 82.9461 66.8673 83.289 66.3143C83.3214 66.2623 83.2936 66.2477 83.2644 66.2359L83.3142 66.274C83.2774 66.2534 83.2388 66.2345 83.239 66.2046C83.3816 66.071 83.5099 65.9629 83.6228 65.8808L83.5621 65.8344C84.0273 65.37 84.0851 65.4729 83.7863 66.3154C83.6238 66.7938 83.2247 67.2304 83.6695 67.244C83.8695 67.2471 84.1931 66.522 84.4238 66.4016C84.9392 66.1208 85.019 66.9777 85.4294 67.0324C85.5716 67.0492 85.6252 66.5995 85.7273 66.5967C85.996 66.5864 86.0817 66.9752 86.3807 66.9178C86.4081 66.9121 86.5274 66.4712 86.6028 66.4957C87.1805 66.6737 87.5838 67.1374 88.2109 67.3774C88.513 67.493 89.1492 67.4574 89.4577 67.6217C89.99 67.903 90.4718 68.7762 91.0208 68.8075C91.3783 68.8298 91.4657 68.379 91.7132 68.1413C92.194 67.6807 92.3005 68.8688 92.3041 69.0486C92.304 69.0542 91.9829 69.0459 92.0507 69.3209C91.9645 69.8072 92.3 69.0492 92.3041 69.0486C92.3082 69.1643 92.8362 69.4812 92.9829 69.4478C93.0621 69.4286 93.188 69.0162 93.2265 69.0139C94.1411 68.9684 94.995 69.2159 95.7388 69.8122C95.7497 69.8274 95.5125 70.2459 95.5403 70.2759C95.9174 70.7058 96.4954 70.3516 97.0917 70.2976C97.6945 70.2492 97.9961 70.5906 97.7725 71.4433C98.1463 71.5768 98.3916 72.2387 98.4894 72.6318C98.5904 73.0248 99.2802 72.3997 99.3195 72.4113C100.503 72.7955 100.632 73.7686 101.074 75.1435C101.279 75.7379 101.601 76.9565 101.618 77.7845C101.599 78.2695 101.499 78.6837 101.396 78.9958C100.964 80.1655 100.531 80.432 100.239 80.7114C99.9373 80.9638 99.7036 81.1151 99.5097 81.3365C99.4575 81.3952 99.7574 81.6942 99.7471 81.7208C99.4891 82.4882 99.2071 81.4513 99.0124 81.361C98.3532 80.9849 98.0534 80.7469 97.7819 81.2252C97.7253 81.3322 98.0647 82.7902 97.929 82.9433C97.8098 83.0787 97.7125 82.8673 97.6076 82.7988C97.568 82.7664 97.5292 82.7599 97.4927 82.8178C97.4821 82.8338 97.6148 83.1294 97.503 83.1627C96.9869 83.3207 96.3638 83.3967 95.8564 83.6695C95.7875 83.7053 96.0952 84.129 95.9994 84.1882C95.5457 84.4678 95.0077 84.7045 94.4315 84.7175C94.2871 84.7201 94.2034 84.3606 94.1311 84.2769C93.6938 83.7705 93.884 84.7239 93.8553 84.758C93.1911 85.5883 92.1427 85.1637 91.4345 85.9785C91.3985 86.0235 91.4834 87.1112 90.9242 86.4272C90.8869 86.3817 90.3196 85.6793 90.449 86.2923C90.4572 86.3306 90.7687 86.6821 90.5671 86.7337C90.3688 86.7836 90.218 87.2034 89.7437 86.8861C89.5946 86.7859 89.0024 86.0997 89.0933 86.8446C89.101 86.8958 89.4777 88.4914 88.8404 87.5871C88.7358 87.4382 88.222 86.3974 88.22 87.0696C88.2203 87.1996 88.4367 87.3785 88.3715 87.5949C88.2695 87.9294 87.8471 87.7998 87.8207 88.3975C87.8151 88.5038 87.9905 89.3013 87.5548 88.8551C87.4866 88.7851 87.353 88.4177 87.2498 88.423C86.7576 88.4471 86.4649 88.8946 85.9421 88.868C85.756 88.86 85.5359 88.2679 85.3084 88.1985C85.0804 88.1293 84.7105 88.1428 84.6877 88.4788C84.6664 88.8143 85.3028 89.6065 85.1093 89.7996C84.2661 90.6401 82.9929 90.6558 81.9456 91.1188C81.7904 91.1873 82.0829 91.4359 81.8655 91.5599C81.5873 91.719 81.2715 91.9393 80.9141 92.1594C80.2702 92.5585 79.5563 92.9273 78.8847 92.7376C78.0636 92.5096 78.4871 91.7305 77.9626 91.7481C77.7085 91.7591 78.0914 92.8809 78.0664 92.9384C77.8167 93.5187 77.2498 93.2638 76.9482 93.641C76.8866 93.7189 77.2162 94.0668 77.1616 94.1283C76.9793 94.341 76.6306 94.3178 76.4401 94.4911C76.3556 94.5696 76.5733 94.8562 76.4724 94.8908C76.2325 94.9779 75.9692 94.9764 75.5773 94.8412C75.5412 94.8292 75.4061 94.3773 75.2447 94.4712C74.9849 94.6241 74.483 94.58 74.4163 95.0625C74.3975 95.2068 74.8964 95.8582 74.3795 95.5421C74.2717 95.4762 73.7067 94.6656 74.0353 95.4919C74.085 95.6324 74.492 96.7799 73.8664 96.3391C73.7012 96.2231 73.0732 95.6974 73.0619 95.8741C73.0628 95.9 73.3991 96.1924 73.3519 96.2897C73.1817 96.626 72.8796 96.8339 72.7144 97.178C72.6715 97.2701 73.0854 97.5072 73.013 97.6326C72.8158 97.9766 72.4002 98.2254 72.0363 98.399C71.9015 98.4623 71.6946 98.1319 71.6581 98.1106C71.0579 97.7702 71.6466 98.4631 71.6489 98.5377C71.6482 98.7918 71.5052 98.8751 71.3518 98.9538C71.1268 99.1267 70.8784 99.3081 70.5805 99.6407C70.3876 99.8476 70.818 100.044 70.7996 100.111C70.4997 100.837 70.4279 99.9084 70.0106 100.114C69.377 100.355 68.5218 101.08 66.3565 101.003C65.3065 100.94 64.1984 100.442 63.5474 99.9166C62.8715 99.3839 62.5347 98.9209 62.2701 98.5347C61.9336 98.005 61.8533 98.871 61.5627 98.3712C60.4133 95.9877 60.6728 95.2709 60.7661 94.2694C60.7784 94.2231 60.7917 94.1768 60.8058 94.1305C60.8494 93.9902 61.2388 94.0512 61.3245 94.017C61.9248 93.7817 61.0701 93.543 60.9862 93.4793C60.603 93.1884 60.936 93.06 60.8568 92.7945C60.4638 91.4995 60.6102 89.8771 60.6964 88.6433C60.8063 87.037 61.126 85.7874 60.9799 84.2755C60.9711 84.1789 60.4632 84.2936 60.4491 84.2105C60.2901 83.1424 60.4577 82.0779 60.2799 81.0085C60.2662 80.9206 59.785 81.0613 59.7468 80.9207C59.665 80.6323 59.6813 80.2631 59.8283 79.9657C59.8991 79.8206 60.3201 80.0015 60.3828 79.8558C60.5299 79.5163 60.5552 79.1568 60.4689 78.814C60.4311 78.6682 59.9409 78.9018 59.9304 78.7113C59.8491 77.4161 59.7352 76.141 60.3508 74.8183C60.3931 74.7275 61.3992 74.6285 61.2022 74.4422C60.9223 74.4334 60.5933 74.4406 60.2943 74.4403C60.0961 72.559 60.4143 70.6827 60.4423 68.7909C60.4433 68.7113 59.9113 68.856 59.9106 68.7022C59.9063 67.8103 59.7476 66.9381 60.2685 66.022C60.3194 65.9299 61.2593 65.9656 61.1144 65.6997C61.0879 65.6505 60.9587 65.2611 60.7537 65.1533C60.7228 65.1392 60.285 65.2184 60.2709 65.0863C60.197 64.3299 60.2905 63.5461 60.5533 62.7844C60.5966 62.6651 61.0644 62.7886 61.0993 62.7038C61.343 62.0767 60.9847 61.4248 61.407 60.8257C61.6914 60.4325 62.499 60.59 63.2932 60.3674C63.4052 60.3349 63.4227 60.0911 63.885 60.0802C65.0475 60.0482 66.3205 60.1615 67.5595 60.1137C67.8264 60.101 67.5389 59.7988 68.1839 59.9775C68.227 59.9886 68.4412 60.2148 68.6601 60.2745C68.8114 60.3149 69.2815 60.241 69.4752 60.3237C69.6688 60.4074 69.2749 60.5012 69.5027 60.6284C69.7334 60.7603 70.268 60.6968 70.3322 60.9706ZM98.8055 74.4534C98.6117 74.9622 100.031 74.1274 99.4723 74.0067C99.4433 74.0022 98.8135 74.4268 98.8055 74.4534ZM75.0235 62.0388C74.994 62.8189 75.6133 61.9287 75.6531 61.332C75.6887 60.7345 75.0295 61.8012 75.0235 62.0388ZM72.0442 61.403C72.1552 62.0553 73.0337 59.8937 72.5216 60.2053C72.4921 60.2227 72.0374 61.3651 72.0442 61.403ZM63.5223 61.3317C63.5441 61.3282 63.5647 61.159 63.5431 61.1556C63.0203 61.0675 62.9794 61.4058 63.5223 61.3317ZM69.1669 60.9419C69.1343 61.2723 69.542 61.0484 69.5801 60.6388C69.6133 60.3108 69.2112 60.5332 69.1669 60.9419ZM89.893 81.9901C89.879 81.9697 89.7583 82.0063 89.8232 82.1287C90.033 82.5227 90.1294 82.3325 89.893 81.9901ZM64.7703 58.8327C65.3778 59.2397 64.9034 61.1584 64.2925 60.6058C64.1816 60.5054 64.8469 60.1978 64.7624 59.9602C64.6052 59.5258 63.8643 60.5064 63.8507 59.772C63.8506 59.6388 64.7383 58.8061 64.7727 58.8309C64.7719 58.8315 64.7711 58.8321 64.7703 58.8327ZM97.2688 75.7049C97.2543 75.7207 97.3273 75.8746 97.3469 75.8672C97.851 75.6881 97.6771 75.333 97.2688 75.7049ZM82.972 84.4483C82.9424 84.4114 82.5676 84.5612 82.5754 84.6054C82.791 85.4578 83.5496 85.1575 82.972 84.4483ZM86.6294 71.6158C86.271 72.0436 86.0287 72.0194 86.1188 71.3483C86.2841 71.4479 86.4637 71.5202 86.6294 71.6158Z" fill="black"/>
</svg>
