<svg width="150" height="150" viewBox="0 0 150 150" fill="none" xmlns="http://www.w3.org/2000/svg">
<path d="M107.667 55.0944C106.508 55.237 104.99 55.0826 103.827 54.8711C103.468 54.8055 103.651 54.5142 103.398 54.4557C102.878 54.3418 102.47 54.4844 101.961 54.3487C101.796 54.3024 102.003 53.8408 101.829 53.8027C100.927 53.5976 100.053 53.7141 99.1005 53.6146C94.52 53.1237 89.967 52.9416 85.3269 52.7204C83.7909 52.6478 81.9371 52.2241 80.3335 52.4031C80.1509 52.4245 80.2586 52.8301 80.2238 52.8634C79.6762 53.3734 79.8599 52.5556 79.5013 52.4459C78.0597 52.0128 76.4756 51.971 75.0981 52.1233C74.5145 52.1894 75.0979 52.9962 74.5101 52.5426C74.4692 52.5119 74.6192 52.0819 74.4586 52.0355C74.0964 51.9312 73.3908 52.006 73.1133 51.971C72.5747 51.9015 72.4849 51.9055 71.9702 51.899C71.2635 51.8864 70.4229 51.6697 69.6731 51.7649C69.512 51.7864 69.7239 52.2284 69.4666 52.3026C69.2096 52.3768 68.5245 52.3371 68.292 52.2323C68.0595 52.1275 68.161 51.781 68.1203 51.7013C67.7931 51.0293 67.0057 51.9559 66.9037 51.9786C65.0388 52.3638 63.464 51.8289 61.7363 51.824C61.1702 51.8229 60.5831 51.8538 59.9946 51.8869C59.212 51.9306 58.4478 51.9761 57.7355 51.9558C56.2326 51.9113 54.9629 51.6532 53.5064 51.6664C53.3534 51.6672 53.5222 52.1894 53.3358 52.1915C51.3366 52.2132 49.3583 52.1022 47.4053 51.7078C47.2115 51.668 47.4738 51.2181 47.278 51.151C46.0852 50.7474 44.1666 49.8275 43.4895 51.8222C42.6942 51.7508 41.7547 51.6997 41.0346 51.3445C40.5686 51.1169 40.9734 50.5913 40.4303 50.843C40.3088 50.8998 40.5044 51.3202 40.3219 51.3728C39.8926 51.4969 39.4383 51.5378 38.99 51.6111C39.1184 51.6345 39.4875 51.441 39.6135 51.3891C39.681 51.3724 40.007 51.583 40.0791 51.5989C40.374 51.6552 40.3054 51.5491 40.1209 51.5714C39.9406 51.5764 39.6706 51.6728 39.6332 51.702C39.0481 52.3367 39.3109 53.1756 39.4212 54.0521C39.4496 54.2719 39.9298 53.9389 39.9761 54.1453C40.2065 55.1781 40.4088 56.3065 40.4567 57.4477C40.4655 57.6977 39.9783 57.5888 39.9606 57.7148C39.8904 58.2718 40.7399 58.1904 40.6932 58.7098C40.6853 58.8214 40.3018 58.8655 40.2665 58.8952C39.7139 59.3648 40.6853 59.3738 40.7266 59.4434C41.2691 60.3141 40.5255 61.2103 40.951 62.1016C41.0031 62.2081 41.3832 61.8104 41.5015 62.1183C42.2864 64.1441 42.9217 66.3627 43.3059 68.5358C43.3662 68.8733 42.943 68.7718 42.9083 68.8071C42.3722 69.3738 43.3285 69.2619 43.3996 69.3528C43.9385 70.0788 43.492 71.119 44.7435 71.2751C45.6907 74.8598 47.6407 78.028 48.0934 81.8164C48.1004 81.8648 47.6412 81.9581 47.6571 82.0539C47.7137 82.406 47.8036 82.5973 47.9349 82.7094C48.1965 82.8752 48.7542 82.7255 49.2219 82.3345C49.301 82.2566 49.1367 82.3953 49.0313 82.623C48.9192 82.8463 48.8698 83.1399 48.8672 83.1806C48.8532 83.4866 48.466 84.0654 48.4843 84.1338C48.8362 84.7281 49.3518 82.5113 49.6943 82.5549C49.7087 82.5601 49.6065 82.9693 49.6417 83.0145C49.7614 83.1572 49.905 82.9985 50.0424 83.144C50.3599 83.4774 50.5864 84.5762 51.119 83.8858C51.1848 83.7944 50.9576 82.531 51.5044 82.5266C51.73 82.529 52.7231 82.3517 53.041 82.3775C53.3385 82.4099 53.2162 82.8521 53.2392 82.8663C54.1224 83.265 53.8722 83.5399 54.4145 84.2649C54.966 84.984 54.4992 83.1099 54.6246 82.8673C54.7421 82.6268 55.4138 82.9588 55.5914 83.0848C55.762 83.2123 55.6353 83.5046 55.7777 83.568C56.7311 83.978 55.9702 82.5571 56.196 82.2027C56.7191 81.3661 57.5057 82.6739 58.1379 82.7029C58.3117 82.7102 58.1178 82.4141 58.2622 82.3574C58.8126 82.142 59.2541 82.5185 59.8426 82.0081C59.939 81.9247 60.3535 80.9882 60.7955 81.5599C60.8586 81.6424 60.7711 82.0157 61.0329 82.0572C61.4329 82.1181 62.0983 82.1031 62.4934 81.9318C62.782 81.8055 62.3671 81.267 62.761 81.4004C62.936 81.4604 62.6741 81.8395 62.9984 81.9241C63.3202 82.0081 64.1182 81.901 64.414 81.859C64.7142 81.8153 64.5036 81.3897 64.5247 81.3573C64.6549 81.1703 65.2257 80.8992 65.2738 80.8958C67.8904 80.6003 70.3311 81.257 72.8602 81.0401C73.0604 81.024 72.934 80.5527 72.9646 80.5454C73.6476 80.3636 73.1126 81.5557 73.5384 82.0032C73.5461 82.0112 73.5541 82.019 73.5624 82.0266C73.5139 81.0724 73.7983 81.2509 74.2809 81.1593C74.5131 81.1145 74.3976 80.7423 74.4197 80.7051C74.7784 80.1543 74.9918 80.8853 75.047 81.0352C75.2525 81.5866 75.5107 80.9513 75.6592 81.3208C75.8022 81.6875 75.4262 82.2101 75.8882 82.2199C76.0302 81.8837 75.7194 80.9803 76.0762 80.8489C77.3868 80.3457 79.85 81.1801 80.8751 81.3315C81.9337 81.4808 82.2593 81.4466 82.872 81.6233C83.9423 81.9439 83.6088 81.2498 84.3325 81.0168C85.0537 80.7865 84.5467 82.3706 84.6086 82.7286C84.6671 83.0864 84.8032 82.739 84.9049 82.9434C85.0058 83.1478 84.7172 83.3554 84.9943 83.4585C85.2747 83.561 86.0928 83.0316 86.2402 82.682C86.55 81.9399 86.3011 81.0875 87.0231 81.4684C87.0639 81.4908 86.8691 81.8969 87.0278 81.9612C88.2947 82.4597 89.6421 82.6899 90.8801 83.2205C91.0515 83.2945 90.8029 83.7318 90.9007 83.78C91.8872 84.2833 91.6868 83.4272 92.4531 82.6771C92.0696 83.8095 92.2546 84.5856 93.0299 84.775C93.5131 84.8954 93.5436 84.3704 93.9444 84.0943C94.0707 84.0123 94.3214 84.4454 94.4421 84.2257C94.8457 83.5103 94.7635 82.5591 95.512 83.1375C95.5432 83.164 95.31 83.5509 95.4257 83.6114C96.201 84.0181 96.5386 83.2491 97.4688 83.4516C98.1799 83.5964 99.3015 84.5918 99.7684 84.7689C99.6224 85.4165 99.7429 85.711 99.9175 85.6827C100.13 85.6539 100.303 85.2944 100.204 84.8369C100.423 84.7982 100.556 84.6216 100.839 84.3706C100.936 84.2822 101.241 84.5307 101.285 84.537C102.013 84.5508 101.263 83.9817 101.252 83.9024C101.241 82.83 101.994 81.9384 101.429 80.7412C101.408 80.6981 100.489 80.5709 101.185 80.314C101.233 80.2965 101.628 80.7076 101.697 80.1659C101.766 79.631 102.317 78.6269 101.935 77.8371C101.843 77.6445 101.122 77.1255 101.737 76.7852C101.82 76.7408 102.081 76.815 102.234 76.7536C102.721 76.5572 101.797 76.3521 102.613 76.1438C103.43 75.9339 104.069 75.4462 103.615 74.6358C103.602 74.611 102.887 74.3385 102.932 74.0977C103.004 73.7157 103.242 73.1981 103.313 72.8028C103.346 72.613 102.87 72.6475 102.868 72.6129C102.872 71.3036 103.479 70.4664 104.135 69.3017C104.136 69.2986 104.14 69.2898 104.141 69.2868C104.167 69.2521 104.192 69.217 104.217 69.1814C104.371 68.9662 104.16 68.0273 104.826 67.8323C105.562 67.6038 107.306 69.1504 107.408 67.7997C107.455 67.246 105.199 65.3665 106.937 65.242C107.409 63.5203 108.82 62.4114 109.112 60.5967C109.125 60.515 108.51 59.945 108.597 59.7879C108.734 59.5428 109.137 59.5666 109.243 59.4001C109.694 58.7114 109.725 57.8787 110.087 57.1901C110.229 56.9176 110.54 57.1713 110.705 56.8507C110.866 56.5382 110.5 56.1017 110.913 55.7603C111.23 55.4927 112.331 55.563 112.635 55.1361C111.69 54.7299 111.834 54.4346 111.799 53.7744C111.79 53.6499 111.413 53.6342 111.392 53.5689C111.295 53.3072 111.648 53.2113 111.531 52.95C111.503 52.8864 111.175 52.7625 111.133 52.7043C110.768 52.2026 111.697 51.9385 111.861 51.8813C112.477 51.6931 112.101 51.3725 112.383 51.1628C112.666 50.9502 112.781 51.4428 113.003 51.1501C113.464 50.541 113.656 49.6176 113.823 48.9023C113.888 48.615 113.388 48.7162 113.387 48.6728C113.392 48.0734 113.978 47.5374 113.093 47.0923C115.462 46.98 113.069 46.7215 113.416 46.0077L113.569 46.3048C113.584 46.3031 113.598 46.295 113.604 46.2809C113.624 46.2639 113.608 45.9886 113.59 45.6922C113.587 45.5441 113.597 45.3866 113.681 45.2596C113.767 45.1387 113.956 45.0263 114.274 45.1418C114.552 45.3309 114.814 45.7743 114.772 46.1078C114.781 46.1179 114.788 46.1285 114.794 46.1396C114.941 46.4226 114.549 46.7974 114.761 47.2009C114.814 47.2899 115.799 47.9644 115.849 48.0526C116.254 48.7176 114.555 48.4862 114.46 48.4954C113.411 48.6116 114.405 49.4476 114.441 49.6297C114.618 50.4512 114.209 51.0024 114.27 51.6779C114.311 52.1077 115.353 52.5129 115.219 52.8061C114.755 53.8131 113.168 53.6037 114.068 55.0184C114.255 55.3277 115.473 55.5768 114.291 55.9405C114.213 55.9725 113.192 56.1475 113.573 56.6727C113.621 56.7386 113.949 56.8766 113.955 56.9389C113.994 57.3422 113.633 57.4638 113.6 57.8797C113.569 58.2898 113.554 58.821 113.26 59.1761C113.081 59.397 112.332 59.4389 112.133 59.4838C111.559 59.6119 112.081 60.3044 111.477 60.2578C110.867 60.2173 110.272 59.4541 109.689 59.8258C110.515 60.2417 111.351 60.6944 112.175 61.1261C111.584 62.2945 110.751 63.3096 110.198 64.4983C110.132 64.6421 110.649 64.7213 110.589 64.8819C110.333 65.5644 109.725 65.9751 109.504 66.7125C109.328 67.2938 109.508 68.0879 109.334 68.7044C108.232 68.528 108.112 69.5256 107.727 70.0413C107.59 70.2277 107.348 70.0814 107.189 70.1825C106.595 70.57 107.556 70.755 107.605 70.9758C107.62 71.0439 107.623 71.1023 107.618 71.1524L107.797 70.7676C107.87 71.2477 106.12 70.7164 105.962 71.4014C105.949 71.4461 106.912 72.1954 106.968 72.2663C107.317 72.7605 106.571 72.2335 106.43 72.4624C106.175 72.8836 105.842 73.172 106.071 73.7956C106.139 73.981 106.775 74.4725 106.194 74.7249C106.118 74.7588 105.751 74.6867 105.725 74.7191C105.283 75.317 106.448 75.4716 106.806 75.8689C107.165 76.2655 106.313 76.766 106.071 76.8718C105.446 77.1382 105.833 76.6126 105.776 76.5914C105.09 76.3341 105.175 76.7757 105.092 77.1017C103.943 77.0667 103.979 77.548 105.011 77.4443C105.124 77.4328 105.035 77.1641 105.092 77.1017C106.195 77.4753 106.307 77.9824 105.222 78.4965C104.713 78.7412 104.154 78.448 104.316 79.2913C104.389 79.677 105.188 79.5712 105.383 79.9259C105.827 80.7332 105.02 81.7266 105.02 82.6209C105.019 82.9481 105.491 82.6916 105.503 82.921C105.528 83.5602 105.114 84.0552 105.066 84.816C105.06 84.8904 105.548 84.8453 105.478 85.093C105.239 85.905 104.836 86.848 103.875 87.8021C102.936 88.7796 101.278 89.3756 100.072 89.3515C99.5517 89.3649 99.1521 89.2955 98.8543 89.2358C97.5737 88.9366 96.7082 88.7951 96.1221 88.5578C95.2004 88.1431 94.1919 87.1584 93.2851 87.0946C92.7009 87.0526 92.7203 87.5264 92.4078 87.7684C91.8232 88.2421 91.24 87.0202 91.1553 86.8344C91.1549 86.8282 91.6605 86.8261 91.4509 86.5437C91.3994 86.0372 91.1607 86.8334 91.1553 86.8344C91.0965 86.7104 90.143 86.4182 89.9203 86.4681C89.8076 86.4957 89.7891 86.929 89.732 86.9354C88.3505 87.0762 87.0146 86.99 85.6681 86.6229C85.6458 86.6115 85.7394 86.1389 85.6858 86.1178C84.9319 85.8115 84.3353 86.3385 83.6538 86.6206C82.9415 86.9001 82.4698 86.7415 82.1338 85.8852C81.6088 85.9445 80.9492 85.5285 80.5309 85.2775C80.1212 85.0271 80.0135 85.9578 79.9738 85.9736C78.7999 86.4902 78.1912 85.9204 76.9877 85.782C76.4502 85.7157 75.2827 85.8079 74.693 85.8935C74.2106 85.9616 73.9216 85.7348 73.4613 85.8642C73.4569 85.8654 73.4531 85.8686 73.4498 85.8736C73.408 85.9384 73.4501 86.3003 73.4331 86.3149C72.9395 86.8028 73.1917 85.7901 73.0944 85.6063C72.7414 84.9394 72.5171 84.5832 71.8937 84.8938C71.7448 84.9648 71.3352 86.4326 71.0849 86.5219C70.7551 86.6354 70.8758 86.1078 70.5258 86.242C70.4958 86.2531 70.5085 86.5767 70.2913 86.5677C69.2927 86.5302 68.1982 86.3937 67.1521 86.5027C67.0116 86.5162 67.2289 87.0156 67.0281 87.0437C66.0722 87.1761 65.0335 87.2588 64.0699 87.1314C63.8318 87.0985 63.9335 86.7239 63.8705 86.6238C63.4813 86.019 63.1668 87.0073 63.0943 87.0351C61.4434 87.7111 59.9923 87.0907 58.2823 87.8165C58.1785 87.8595 57.6326 88.9866 57.119 88.2053C57.0833 88.1535 56.5857 87.3486 56.3983 87.9997C56.3866 88.0405 56.6874 88.4462 56.3026 88.4726C55.9248 88.4976 55.3705 88.9129 54.7497 88.5179C54.5416 88.3955 54.0129 87.5966 53.5944 88.3785C53.5864 88.4311 52.9661 90.1382 52.4886 89.092C52.4093 88.9186 52.3242 87.7676 51.7003 88.4336C51.569 88.5623 51.8574 88.7952 51.4904 88.9918C50.9286 89.2876 50.1025 89.0438 49.0095 89.4584C48.8543 89.5365 47.8137 90.2206 47.0616 89.3463C46.9578 89.212 47.3247 88.9325 46.9072 88.7373C45.3343 88.1019 43.3953 86.2652 42.9434 84.7169C42.8882 84.5325 42.8464 84.3379 42.8308 84.1295C42.8062 83.8165 43.4446 83.7251 43.4815 83.3679C43.5273 83.0327 43.4375 82.379 43.0519 82.1878C42.6668 81.9979 41.8727 82.6978 41.6174 82.278C40.5012 80.4353 40.2609 78.2561 39.5666 76.2377C39.4639 75.9385 39.2263 76.3131 39.0505 75.8791C38.4004 74.2863 37.0307 71.5981 37.2348 69.9189C37.3973 68.5767 38.3468 69.8485 38.2682 68.8987C38.2299 68.4426 36.9764 68.378 36.9061 68.2881C36.2053 67.4141 36.4529 66.5516 36.0023 65.7008C35.9094 65.5254 35.5238 65.8562 35.4497 65.7049C35.189 65.1789 35.2033 64.5435 34.999 64.026C34.906 63.7931 34.5773 63.9449 34.5349 63.717C34.431 63.1765 34.4324 62.6636 34.6022 62.0512C34.6179 61.996 35.1393 62.1835 35.0405 61.7906C34.8814 61.1603 34.9776 60.2818 34.4498 59.6215C34.2923 59.4266 33.4928 59.6189 33.9224 59.0037C34.0121 58.8722 35.0018 58.7756 34.0352 58.4035C33.874 58.3457 32.529 57.6326 33.1536 56.9743C33.3168 56.8001 34.0479 56.343 33.8684 56.0654C33.8413 56.029 33.4366 56.2689 33.3499 56.0317C33.058 55.2107 32.9655 54.2812 32.7635 53.2448C32.7107 52.9733 32.2766 53.4139 32.214 52.9941C32.152 51.7644 31.8207 50.1016 33.7335 47.2504C34.5641 46.2679 34.3035 47.2172 34.3946 47.1617C35.7615 46.5343 36.2609 45.3885 36.7726 45.1304C37.231 44.9127 37.6961 44.7776 38.1341 44.7049C38.7947 44.5161 39.3861 44.7543 40.0296 44.6095C40.239 44.5642 40.0578 44.1457 40.0972 44.1044C40.512 43.6994 40.2373 44.4933 40.5182 44.5603C41.3024 44.752 42.1385 44.6881 42.8849 44.6208C43.1572 44.5956 42.8421 44.1011 43.0884 44.0845C44.5523 43.9787 46.0135 44.0523 47.3452 44.3558C47.5997 44.414 47.4304 44.7949 47.4812 44.8839C47.8235 45.5058 48.3737 44.6806 48.4953 44.6037C49.057 44.2526 49.2636 44.5979 49.7437 44.5462C52.1167 44.2904 54.977 44.5753 57.1833 44.7365C58.2013 44.8104 59.1076 44.9025 60.0206 44.9868C61.718 45.1427 63.2903 45.2809 65.0853 45.2255C65.2599 45.2206 65.0857 44.7085 65.2362 44.6977C67.2047 44.5812 69.1332 44.7875 71.0884 44.646C71.2511 44.6353 71.0183 44.1496 71.2793 44.1162C71.8147 44.0441 72.4858 44.0725 73.0156 44.229C73.274 44.3044 72.926 44.7194 73.1859 44.7867C73.8011 44.9446 74.4664 44.9811 75.091 44.9052C75.3571 44.8719 74.9574 44.3748 75.3029 44.3701C77.6872 44.3279 79.9964 44.2488 82.4006 44.897C82.5624 44.9415 82.702 45.9497 83.0579 45.7573C83.0852 45.4777 83.0846 45.1486 83.097 44.8497C86.5674 44.6972 89.9454 45.054 93.4371 45.1144C93.5834 45.1168 93.3318 44.5823 93.6145 44.5843C95.2463 44.5951 96.8354 44.4498 98.5132 44.9831C98.6774 45.0352 98.5949 45.9746 99.073 45.8332C99.1569 45.8074 99.9121 45.6831 100.096 45.4794C100.121 45.4487 99.9894 45.01 100.223 44.9975C101.611 44.9328 103.051 45.0345 104.429 45.3038C104.655 45.3481 104.414 45.8148 104.574 45.8504C105.693 46.0994 106.921 45.7453 107.993 46.1698C108.71 46.4557 108.438 47.2627 108.824 48.0575C108.854 48.1135 108.985 48.146 109.091 48.2223C109.221 48.2986 109.339 48.4186 109.346 48.6498C109.402 49.8123 109.195 51.0851 109.281 52.3242C109.289 52.5911 109.873 52.3037 109.54 52.9487C109.523 52.9918 109.058 53.2058 108.978 53.4246C108.905 53.5758 109.038 54.046 108.886 54.2396C108.711 54.433 108.582 54.0388 108.313 54.2662C108.044 54.4964 108.193 55.0313 107.667 55.0944ZM78.7072 84.1716C78.3491 83.702 78.2051 85.3417 78.6374 84.9712C78.6583 84.9514 78.7256 84.1947 78.7072 84.1716ZM109.635 62.7563C108.758 62.8936 109.551 63.6905 110.217 63.6112C110.882 63.5336 109.904 62.7092 109.635 62.7563ZM111.475 57.6251C110.704 57.9476 112.79 58.9953 112.63 58.1992C112.622 58.1522 111.52 57.6054 111.475 57.6251ZM107.052 48.2828C107.06 48.3047 107.383 48.3262 107.388 48.3045C107.559 47.7822 106.916 47.7395 107.052 48.2828ZM112.951 52.4044C112.591 52.482 112.749 53.1185 113.199 53.0277C113.562 52.952 113.401 52.3034 112.951 52.4044ZM58.296 83.4903C58.2852 83.4673 58.0539 83.4865 58.0834 83.622C58.1776 84.0584 58.4715 83.8777 58.296 83.4903ZM111.295 47.3977C112.241 46.2028 114.088 47.1644 113.143 47.9048C112.963 48.0683 112.982 47.1245 112.657 47.2497C112.027 47.5304 112.819 48.5237 111.964 48.6812C111.798 48.7211 111.228 47.47 111.294 47.3941C111.294 47.3953 111.295 47.3965 111.295 47.3977ZM78.5945 82.1865C78.5883 82.1643 78.2755 82.127 78.2665 82.1482C78.0699 82.6607 78.6978 82.736 78.5945 82.1865ZM47.3589 81.1977C47.3962 81.1664 47.1556 80.4537 47.11 80.4549C46.1733 80.4155 46.6497 81.8382 47.3589 81.1977ZM99.7682 84.8051C99.8719 84.634 99.9127 84.5018 99.8652 84.4453C99.9656 84.3358 99.9933 84.4587 100.203 84.8365C100.11 84.8452 100.011 84.8539 99.8822 84.8471C99.8813 84.8402 99.8366 84.8308 99.7682 84.8051Z" fill="black"/>
<path d="M118.297 52.4733C118.563 53.5629 118.624 55.1486 118.582 56.3346C118.572 56.7199 118.257 56.5794 118.236 56.8388C118.193 57.3355 118.407 57.8041 118.347 58.3144C118.326 58.4822 117.839 58.35 117.827 58.5249C117.767 59.5007 118.02 60.3709 118.076 61.3612C118.339 66.1639 118.955 70.8746 119.577 75.706C119.782 77.2991 119.707 79.2991 120.177 80.9024C120.232 81.0894 120.611 80.905 120.65 80.9355C121.255 81.4156 120.415 81.3691 120.374 81.7599C120.214 83.3117 120.472 84.9614 120.882 86.3517C121.058 86.9454 121.741 86.195 121.406 86.8844C121.384 86.9321 120.933 86.8556 120.918 87.0296C120.884 87.425 121.089 88.117 121.109 88.4188C121.145 88.9941 121.166 89.0861 121.258 89.6156C121.38 90.3375 121.331 91.2504 121.57 92.0016C121.622 92.1652 122.015 91.8629 122.139 92.1163C122.262 92.3706 122.356 93.0784 122.297 93.3311C122.239 93.5846 121.879 93.5485 121.809 93.6045C121.212 94.067 122.28 94.7188 122.322 94.8151C123.065 96.6457 122.854 98.3601 123.204 100.151C123.333 100.808 123.525 101.547 123.698 102.208C123.906 103.051 124.016 103.872 124.019 104.655C123.987 106.1 123.817 107.285 123.065 108.913C122.825 109.385 122.536 109.838 122.19 110.275C122.036 110.464 122.623 110.576 122.421 110.818C120.009 113.404 117.35 113.62 115.167 113.733C114.943 113.737 115.145 113.239 114.917 113.215C113.526 113.081 111.416 112.426 110.896 114.483C110.024 114.507 108.98 114.545 108.166 114.237C107.65 114.038 108.068 113.489 107.488 113.771C107.357 113.834 107.586 114.244 107.385 114.306C106.548 114.565 105.602 114.54 104.784 114.876C104.617 114.945 104.716 115.325 104.678 115.401C104.358 116.016 103.553 115.182 103.391 115.137C102.208 114.794 101.415 115.122 100.371 115.287C100.133 115.325 100.503 115.792 100.277 115.847C99.0927 116.129 97.8527 116.322 96.6509 116.34C96.3798 116.344 96.526 115.857 96.3911 115.837C95.7883 115.756 95.8643 116.601 95.3024 116.542C95.1843 116.531 95.161 116.145 95.1315 116.109C94.6676 115.541 94.6011 116.514 94.5252 116.553C93.5899 117.065 92.6862 116.291 91.7428 116.687C91.6297 116.735 92.0205 117.13 91.6955 117.238C90.4222 117.666 89.1066 118.041 87.7549 118.367C86.7739 118.607 85.8117 118.777 84.8381 118.89C84.4709 118.932 84.6232 118.512 84.5887 118.475C84.0429 117.904 84.064 118.868 83.9582 118.933C83.1292 119.423 82.0834 118.878 81.7344 120.109C77.8053 120.664 73.9643 121.943 69.9514 121.334C69.9007 121.328 69.9444 120.86 69.8437 120.849C68.6336 120.703 68.9434 121.392 68.2086 122.33C68.0209 122.566 67.3376 121.553 67.2816 121.479C67.0692 121.207 67.2246 120.509 67.1564 120.459C66.5988 120.059 66.8318 122.317 66.0867 122.358C66.0635 122.356 66.1385 121.934 66.0746 121.896C65.8764 121.776 65.6952 121.95 65.5024 121.815C65.0574 121.502 64.8826 120.408 64.2492 121.07C64.1695 121.155 64.3347 122.438 63.675 122.394C63.4152 122.377 62.2555 122.416 61.929 122.331C61.6051 122.248 61.8269 121.834 61.8036 121.816C60.9399 121.267 61.2759 121.04 60.8492 120.225C60.4291 119.412 60.5237 121.341 60.3423 121.554C60.1596 121.766 59.5371 121.3 59.3902 121.138C59.2417 120.977 59.4394 120.719 59.3066 120.626C58.4084 120.016 58.8714 121.569 58.5555 121.865C57.8079 122.561 57.3147 121.105 56.6765 120.926C56.5038 120.878 56.6266 121.212 56.4686 121.232C55.85 121.309 55.4939 120.836 54.7616 121.186C54.6454 121.243 53.9907 122.048 53.6753 121.383C53.6319 121.287 53.815 120.948 53.559 120.842C53.1799 120.684 52.4812 120.529 52.043 120.595C51.7217 120.645 52.0063 121.272 51.6372 121.042C51.4746 120.939 51.8367 120.639 51.5294 120.475C51.2228 120.312 50.3792 120.21 50.0732 120.176C49.7584 120.141 49.8621 120.606 49.833 120.632C49.648 120.779 49.0019 120.894 48.9497 120.885C46.2124 120.486 43.8963 119.219 41.2725 118.641C41.0728 118.596 41.0556 119.084 41.0236 119.082C40.241 119.027 41.1949 118.032 40.8684 117.476C40.625 118.4 40.3837 118.137 39.8757 118.052C39.6308 118.011 39.6139 118.4 39.581 118.428C38.9883 118.795 39.0496 118.028 39.035 117.859C39.0245 117.52 38.8698 117.519 38.7334 117.512C38.6362 117.511 38.5516 117.512 38.5605 117.339C38.5688 116.947 39.1275 116.606 38.6784 116.419C38.4331 116.687 38.3842 117.63 38.0381 117.645C36.8647 117.717 34.3865 116.627 33.2555 115.892C32.9656 115.723 32.7311 115.565 32.5341 115.419C32.0126 115.023 31.7424 114.794 31.4322 114.356C30.7375 113.266 30.5585 114.049 29.8062 113.538C29.0824 112.985 30.7015 112.48 30.9361 112.201C31.1844 111.936 30.8198 112.026 30.926 111.822C31.0359 111.623 31.3669 111.732 31.298 111.456C31.2292 111.195 30.3548 110.76 29.9736 110.775C29.1716 110.843 28.542 111.511 28.5174 110.587C28.5178 110.535 28.9736 110.548 28.9552 110.358C28.8057 108.865 28.5921 107.414 28.767 105.999C28.7923 105.807 29.2803 105.937 29.3008 105.827C29.5298 104.673 28.7582 105.137 27.843 104.518C29.035 104.629 29.7408 104.254 29.7524 103.42C29.7627 102.912 29.2444 102.991 28.8879 102.64C28.7804 102.535 29.1495 102.182 28.9094 102.105C28.1248 101.848 27.2115 102.163 27.619 101.253C27.6383 101.214 28.0656 101.369 28.1006 101.232C28.3327 100.361 27.5113 100.178 27.5063 99.1986C27.5032 98.4222 28.1778 97.1452 28.3885 96.3129C29.7049 96.525 29.5225 95.6963 28.6691 95.2231C28.7956 94.682 28.8473 94.0814 29.0683 93.5781C29.144 93.4051 29.5022 93.5935 29.5474 93.5782C30.2547 93.3503 29.4197 92.951 29.4076 92.8262C29.3141 91.4943 30.193 90.5956 29.8014 89.2616C29.787 89.2154 28.8963 88.9487 29.6279 88.7679C29.678 88.7572 30.0034 89.2448 30.1586 88.6846C30.3128 88.129 31.0326 87.1806 30.7903 86.2992C30.7323 86.0851 30.1024 85.4559 30.7635 85.1922C30.8528 85.1584 31.0997 85.2723 31.2605 85.2306C31.7737 85.0942 30.8876 84.7641 31.7255 84.6607C32.5669 84.5388 33.2751 84.1011 32.9077 83.1781C32.8979 83.1472 32.208 82.8203 32.2709 82.5703C32.3731 82.1664 32.6319 81.6453 32.7007 81.2224C32.7322 81.0267 32.2562 81.0733 32.2537 81.038C32.242 80.4331 32.3335 79.9174 32.4457 79.4458C32.4458 79.4422 32.4473 79.4316 32.4476 79.428C32.6167 78.7862 32.8657 78.1517 33.0539 77.356C33.1171 77.0933 32.5734 76.2676 33.119 75.8048C33.7159 75.2942 35.9132 76.0995 35.5011 74.7338C35.336 74.1794 32.5357 73.268 34.0955 72.451C33.8779 70.5926 34.7551 68.9511 34.3447 67.0787C34.3266 66.9945 33.5429 66.6843 33.5656 66.4914C33.6008 66.2046 33.9841 66.069 34.0209 65.8648C34.1846 65.009 33.9091 64.2027 34.0044 63.374C34.0397 63.0597 34.4203 63.191 34.4623 62.8154C34.5039 62.4401 34.0081 62.1622 34.281 61.6653C34.4887 61.2908 35.5498 60.9594 35.6978 60.4545C34.6722 60.3812 34.7116 60.0319 34.4731 59.3932C34.4267 59.2705 34.0627 59.3806 34.0223 59.3215C33.8502 59.0808 34.1574 58.8835 33.9684 58.6531C33.9231 58.5971 33.5726 58.5763 33.5157 58.5296C33.0187 58.1317 33.8396 57.5615 33.9825 57.464C34.5253 57.0903 34.0795 56.8768 34.3014 56.5797C34.5233 56.2832 34.7552 56.7568 34.8992 56.4045C35.1972 55.6726 35.194 54.7133 35.2547 53.9583C35.2768 53.6569 34.7968 53.835 34.7891 53.7913C34.7105 53.1831 35.2037 52.6051 34.4336 52.2021C34.4337 52.1959 34.4362 52.1775 34.4367 52.1713C34.4071 52.1526 34.3754 52.134 34.3416 52.1156C36.7931 52.0246 34.1584 51.7061 34.7835 50.885C34.834 50.821 35.9737 50.9259 36.0951 51.2156C36.2167 51.5038 35.801 51.8441 36.0091 52.2422C36.0222 52.2676 36.1041 52.3318 36.2178 52.4141L36.2276 52.3164C36.5503 52.5207 37.1145 52.8396 37.1586 52.8928C37.6307 53.4638 35.9239 53.4358 35.8285 53.4594C34.7995 53.7246 35.9137 54.4121 35.9839 54.5796C36.3054 55.346 36.031 55.9667 36.2573 56.6056C36.4033 57.0227 37.5169 57.1232 37.4657 57.4415C37.2963 58.5015 35.7206 58.7924 37.0178 59.8701C37.2944 60.1009 38.5252 59.9491 37.5258 60.674C37.4628 60.7196 36.5555 61.248 37.0928 61.6101C37.1606 61.6555 37.5161 61.6729 37.5431 61.7295C37.7167 62.1085 37.4204 62.3408 37.5345 62.75C37.6485 63.1601 37.8243 63.6554 37.6782 64.1098C37.5907 64.3834 36.9086 64.7021 36.7389 64.8257C36.2508 65.1738 36.9929 65.6199 36.4138 65.8195C35.8318 66.0198 34.996 65.5126 34.5926 66.1025C35.5142 66.1803 36.4585 66.2893 37.3846 66.3817C37.271 67.73 36.8864 69.0405 36.8287 70.4009C36.8224 70.5697 37.3308 70.4335 37.3368 70.6157C37.3595 71.3852 36.9546 72.0246 37.0298 72.8282C37.0899 73.4505 37.5555 74.1707 37.6278 74.8286C36.5382 75.1249 36.8043 76.1103 36.6349 76.7954C36.5762 77.035 36.2968 76.989 36.1868 77.1515C35.7776 77.7651 36.7398 77.5619 36.8665 77.757C37.4044 78.5974 35.2949 78.4227 35.2382 79.3248C35.2359 79.3539 35.625 79.633 35.9415 79.8685L35.9533 79.7584C36.1596 79.9197 36.3329 80.0696 36.356 80.1102C36.7387 80.7821 35.9559 80.1656 35.8247 80.5369C35.5862 81.1563 35.2492 81.53 35.439 82.3123C35.499 82.524 36.0918 83.1563 35.4773 83.4414C35.3972 83.4768 35.0377 83.3739 35.0081 83.4094C34.5005 84.0605 35.636 84.3456 35.936 84.8368C36.2329 85.3397 35.2993 85.8131 35.044 85.8868C34.38 86.094 34.85 85.5719 34.7959 85.5424C34.1552 85.1781 34.173 85.6588 34.0349 86.004C32.902 85.8061 32.858 86.3184 33.8962 86.3628C34.0092 86.3692 33.9678 86.0634 34.0349 86.004C35.0627 86.5735 35.0867 87.1259 33.9223 87.506C33.3783 87.6771 32.876 87.2834 32.8927 88.1784C32.8998 88.5857 33.7041 88.6121 33.8413 88.9918C34.1527 89.8651 33.216 90.7105 33.1668 91.5273C33.1494 91.8219 33.6307 91.6303 33.6336 91.8344C33.6427 92.3764 33.2329 92.7714 33.2964 93.3223C33.3028 93.3722 33.7699 93.3429 33.7447 93.5051C33.5643 94.7338 33.0926 95.7413 32.8948 97.0069C32.7979 97.6187 32.9026 98.7366 32.7865 99.354C32.5811 100.418 31.8258 101.711 31.9599 102.631C32.0454 103.232 32.5042 103.109 32.8092 103.36C33.3993 103.827 32.349 104.671 32.1907 104.796C32.1844 104.801 32.0615 104.309 31.8373 104.581C31.3579 104.754 32.1884 104.791 32.1907 104.796C32.0813 104.869 32.0423 105.87 32.1526 106.041C32.2102 106.141 32.6317 106.039 32.6536 106.091C33.1658 107.299 33.5055 108.36 33.6957 109.359C33.6945 109.379 33.2391 109.535 33.2427 109.582C33.2883 110.243 34.0079 110.306 34.5043 110.409C35.0089 110.515 35.0423 110.712 34.6567 111.481C34.8083 111.546 34.901 111.721 34.991 111.928C34.9983 112.06 35.0333 112.238 35.0827 112.378C35.2078 112.683 35.6141 111.831 35.6327 111.82C36.4525 111.506 36.9344 112.13 38.3579 112.604C38.8576 112.776 39.8606 113.013 40.7972 113.402C40.9026 113.424 41.0677 113.467 41.1822 113.487C41.5592 113.558 41.7257 113.855 42.1581 113.861C42.2144 113.861 42.3022 113.45 42.3227 113.44C42.9009 113.114 42.3753 114.008 42.4067 114.211C42.5397 114.952 42.6483 115.359 43.3432 115.241C43.4979 115.212 44.3272 113.924 44.5776 113.902C44.9271 113.883 44.669 114.359 45.0535 114.327C45.0842 114.324 45.1683 114.011 45.3684 114.076C46.3483 114.386 47.3983 114.805 48.4841 114.974C48.6283 114.998 48.5382 114.458 48.7473 114.483C49.7535 114.606 50.8173 114.792 51.7636 115.162C51.999 115.254 51.7992 115.591 51.8382 115.704C52.0821 116.389 52.6495 115.512 52.7274 115.503C54.5661 115.264 55.8858 116.229 57.7673 115.922C57.8742 115.905 58.6746 114.933 58.9922 115.807C59.0103 115.865 59.3403 116.761 59.6535 116.164C59.673 116.127 59.4739 115.667 59.8409 115.722C60.2073 115.778 60.8182 115.484 61.3221 115.985C61.4802 116.144 61.8677 117.027 62.3542 116.32C62.3924 116.271 63.1074 114.672 63.3916 115.762C63.4386 115.941 63.4191 117.104 63.9886 116.493C64.0967 116.374 63.8869 116.121 64.1751 115.951C64.6194 115.688 65.209 115.975 65.7339 115.43C65.8252 115.334 66.1879 114.525 66.5404 115.102C66.5966 115.192 66.5249 115.585 66.6982 115.617C67.5267 115.773 68.3639 115.446 69.2142 115.633C69.518 115.698 69.4278 116.337 69.756 116.472C70.0882 116.608 70.7208 116.7 71.0132 116.377C71.3024 116.054 70.833 115.106 71.3015 114.968C73.3169 114.369 75.4406 114.615 77.5128 114.277C77.8197 114.226 77.4956 113.929 77.9365 113.829C79.5852 113.465 82.2683 112.432 83.8851 112.734C85.179 112.982 83.8964 113.849 84.8317 113.827C85.2875 113.812 85.3937 112.562 85.4811 112.496C85.5868 112.415 85.6919 112.347 85.7966 112.291C86.6496 111.852 87.4166 112.014 88.2476 111.625C88.441 111.534 88.1102 111.141 88.2768 111.069C88.846 110.818 89.5126 110.849 90.0759 110.658C90.3254 110.571 90.1858 110.237 90.4268 110.202C90.9967 110.115 91.5397 110.132 92.1665 110.324C92.2232 110.342 91.9968 110.858 92.4125 110.772C93.0747 110.636 93.9982 110.761 94.6803 110.26C94.8837 110.11 94.7263 109.304 95.3414 109.752C95.47 109.846 95.5413 110.838 95.9389 109.885C95.9971 109.728 96.7591 108.402 97.3742 109.041C97.5388 109.208 97.9939 109.943 98.2545 109.766C98.2888 109.74 98.0574 109.334 98.2817 109.249C99.0681 108.96 99.9288 108.862 100.733 108.595C100.947 108.523 100.548 108.124 100.871 108.031C101.78 107.771 102.937 107.723 103.838 107.748C104.177 107.757 103.997 108.162 104.026 108.2C104.499 108.812 104.605 107.888 104.725 107.82C105.475 107.406 106.112 107.757 106.83 107.559C107.025 107.506 106.834 107.095 106.869 107.052C107.234 106.632 107.02 107.435 107.286 107.49C108.039 107.646 108.833 107.521 109.541 107.384C109.798 107.333 109.45 106.871 109.68 106.831C111.058 106.584 112.456 106.463 113.687 106.532C113.919 106.545 113.845 106.948 113.907 107.026C114.337 107.576 114.644 106.66 114.714 106.562C115.08 106.109 115.307 106.403 115.636 106.245C116.128 106.001 116.534 105.77 116.647 105.68C116.771 105.57 116.581 105.77 116.6 105.862C116.52 106.101 116.614 105.971 116.662 105.811C116.718 105.642 116.769 105.406 116.803 105.169C116.88 104.617 116.904 104.022 116.886 103.561C116.674 101.673 116.492 99.9295 116.052 97.9665C116.012 97.7858 115.544 98.0647 115.503 97.9099C114.996 95.9016 114.818 93.8571 114.299 91.8569C114.257 91.6912 113.825 92.021 113.741 91.7577C113.566 91.2155 113.466 90.5246 113.516 89.9366C113.54 89.6509 114.016 89.9414 114.032 89.6554C114.069 88.989 113.98 88.309 113.785 87.6665C113.701 87.3938 113.289 87.9029 113.218 87.5413C112.725 85.092 112.21 82.689 112.406 80.0901C112.42 79.9121 113.386 79.5887 113.133 79.2605C112.853 79.2814 112.529 79.3396 112.232 79.3792C111.446 75.8169 111.186 72.2217 110.642 68.5977C110.619 68.4456 110.135 68.7948 110.088 68.5008C109.815 66.7949 109.401 65.1659 109.648 63.3273C109.672 63.1467 110.614 63.0865 110.394 62.6058C110.356 62.5321 110.109 61.7562 109.877 61.5942C109.843 61.572 109.431 61.7789 109.38 61.5336C109.09 60.0903 108.965 58.5797 109.022 57.0656C109.034 56.8298 109.53 57.0091 109.543 56.8413C109.62 55.6039 109.096 54.3592 109.389 53.1183C109.591 52.2895 110.425 52.5137 111.178 52.006C111.283 51.9373 111.266 51.4482 111.727 51.3813C112.884 51.2576 114.168 51.4068 115.399 51.2409C115.66 51.17 115.361 50.8185 116.013 51.007C116.054 50.9961 116.289 51.3647 116.515 51.4244C116.671 51.4743 117.131 51.3269 117.334 51.4365C117.536 51.5403 117.16 51.762 117.407 51.948C117.66 52.1542 118.18 51.9935 118.297 52.4733ZM36.171 113.789C36.4391 114.322 36.8958 112.741 36.3993 113.019C36.3753 113.034 36.1575 113.762 36.171 113.789ZM35.6456 68.9494C34.8849 69.4439 35.9225 69.8909 36.5085 69.545C37.0938 69.1977 35.8762 68.798 35.6456 68.9494ZM35.4557 63.2812C34.8499 63.8835 37.1734 64.1127 36.7399 63.4061C36.7154 63.3651 35.4909 63.2459 35.4557 63.2812ZM111.605 53.8921C111.626 53.8815 111.606 53.5355 111.584 53.5319C111.043 53.409 111.083 54.1035 111.605 53.8921ZM35.1736 57.6724C34.848 57.8537 35.1819 58.4417 35.5867 58.2168C35.9122 58.0362 35.5786 57.4469 35.1736 57.6724ZM56.708 120.124C56.7128 120.149 56.9514 120.185 56.9546 120.046C56.9638 119.6 56.6255 119.706 56.708 120.124ZM36.1121 48.3088C35.7964 49.6898 33.7496 50.1837 34.2209 48.7293C34.3055 48.4652 34.7276 49.4158 34.9575 49.1C35.3775 48.5178 34.2516 47.9057 34.9926 47.362C35.1285 47.2632 36.1354 48.228 36.1144 48.3117C36.1136 48.3107 36.1129 48.3098 36.1121 48.3088ZM35.8987 115.759C35.9013 115.783 36.2195 115.884 36.2324 115.865C36.5331 115.402 35.8972 115.199 35.8987 115.759ZM70.8037 120.794C70.8262 120.839 71.6052 120.794 71.6262 120.747C71.9248 119.854 70.3663 119.941 70.8037 120.794ZM28.4257 96.3048C27.9604 95.8619 27.9695 95.4078 28.6682 95.2247C28.5745 95.5804 28.5122 95.9445 28.4257 96.3048Z" fill="black"/>
<path d="M50.2141 47.1597C50.057 46.7397 50.2031 46.2497 50.4096 45.8855C50.4736 45.7654 50.7658 45.825 50.8232 45.7467C50.9352 45.5976 50.7911 45.4448 50.9254 45.3008C50.9713 45.2512 51.4334 45.3102 51.471 45.2583C51.6737 44.9657 51.5556 44.701 51.6539 44.4186C52.1395 43.0122 52.3295 41.6435 52.5661 40.2403C52.6438 39.7778 53.0747 39.2273 52.9031 38.7386C52.8826 38.6829 52.4766 38.7061 52.4435 38.6948C51.9361 38.5177 52.7529 38.5922 52.8642 38.4869C53.304 38.0632 53.3541 37.5892 53.2098 37.1668C53.1471 36.9897 52.3372 37.1422 52.7941 36.9784C52.825 36.967 53.2539 37.0242 53.3012 36.9773C53.4076 36.8712 53.337 36.6595 53.3737 36.5743C53.4467 36.4106 53.4431 36.3865 53.4529 36.2318C53.4699 36.0227 53.6922 35.7693 53.6022 35.5441C53.5818 35.4952 53.1386 35.5442 53.0661 35.4647C52.9938 35.3853 53.0382 35.1812 53.1446 35.1151C53.251 35.0492 53.5966 35.0909 53.6765 35.0813C54.3506 35.0025 53.4303 34.7346 53.4084 34.7034C53.0371 34.1327 53.5843 33.678 53.6039 33.1529C53.6174 32.7619 53.4609 32.3233 53.5012 31.9518C53.5211 31.773 53.5741 31.6055 53.6292 31.4403C53.715 31.1356 53.8116 30.8584 53.8331 30.5069C53.8374 30.4468 53.3134 30.4482 53.3184 30.371C53.439 29.5773 53.4548 28.3253 55.3675 27.2129C55.5545 27.13 55.6019 27.6452 55.7858 27.6C56.3579 27.4503 57.0329 27.6489 57.4123 27.6982C57.8144 27.7391 58.1189 27.5491 58.5811 26.6473C58.8917 26.8 59.1546 26.9713 59.2617 27.2481C59.2817 27.3195 59.2965 27.401 59.3042 27.4951C59.3293 27.7798 59.0398 28.2011 59.2624 28.0582C59.3122 28.0263 59.4197 27.6028 59.4819 27.5853C59.7425 27.5116 59.9254 27.7234 60.2025 27.5764C60.2592 27.5455 60.3659 27.1708 60.3989 27.1077C60.6658 26.597 60.5548 27.5445 60.5745 27.6215C60.7087 28.1923 60.9866 28.0616 61.254 28.144C61.3159 28.1633 61.3732 27.6378 61.4366 27.6379C61.7624 27.6444 62.0795 27.7653 62.3412 28.0597C62.4 28.1266 62.241 28.548 62.2647 28.6023C62.3728 28.8368 62.5796 28.0203 62.686 28.2279C62.709 28.2706 62.6156 28.6408 62.6128 28.683C62.5695 29.3453 62.829 28.4469 62.8544 28.431C63.1857 28.2098 63.1931 29.2006 63.4982 29.1147C63.5343 29.1033 63.5437 28.615 63.6393 28.6119C64.2791 28.5885 64.9179 28.8179 65.4953 29.2826C65.5855 29.3542 65.469 29.7046 65.4693 29.7497C65.4813 30.4555 65.6669 29.5358 65.7029 29.5049C65.9881 29.2853 66.1324 30.0925 66.4325 29.0052C67.4617 29.5127 68.5896 28.9853 69.5928 30.0615C69.6058 30.0741 69.5466 30.5317 69.5728 30.5548C69.8862 30.8374 69.875 30.1184 70.1546 29.2601C70.2244 29.0446 70.3188 30.1111 70.3288 30.1895C70.3637 30.4782 70.2606 31.1583 70.275 31.2148C70.3975 31.6585 70.5258 29.3948 70.7272 29.4074C70.7332 29.4116 70.6793 29.8263 70.6935 29.8688C70.7377 30.0022 70.8007 29.8402 70.843 29.9869C70.9395 30.3262 70.9126 31.4284 71.1348 30.7999C71.163 30.7183 71.2081 29.4326 71.3849 29.5043C71.4554 29.5341 71.7758 29.5312 71.8602 29.6195C71.9447 29.7078 71.8593 30.118 71.8646 30.1363C72.0745 30.6974 71.9699 30.9188 72.0456 31.7358C72.1222 32.5497 72.1969 30.623 72.2583 30.411C72.3198 30.1995 72.4723 30.6608 72.5076 30.8201C72.5427 30.9796 72.4737 31.2395 72.5078 31.3305C72.7345 31.9251 72.6728 30.3812 72.7739 30.0802C73.0118 29.3674 73.0915 30.8033 73.2681 30.9527C73.3158 30.993 73.2921 30.6658 73.3378 30.6376C73.5184 30.5304 73.6012 30.9813 73.8208 30.5828C73.8568 30.5178 74.0599 29.6673 74.1329 30.3025C74.1432 30.394 74.0837 30.7478 74.1544 30.8312C74.26 30.9563 74.4568 31.0438 74.5827 30.9307C74.6755 30.8469 74.6022 30.2557 74.7049 30.4432C74.7505 30.5269 74.6422 30.8655 74.7294 30.9942C74.8161 31.1228 75.0536 31.119 75.1441 31.1114C75.2346 31.1035 75.2064 30.6564 75.2151 30.6268C75.2672 30.4572 75.4495 30.2508 75.4647 30.2521C76.2374 30.2341 76.9118 31.0167 77.6746 30.8054C77.7346 30.7895 77.7183 30.3185 77.7276 30.3113C77.9397 30.1247 77.7188 31.3638 77.8389 31.7882C77.8658 30.8354 77.9405 31.0119 78.0876 30.9146C78.1585 30.867 78.1399 30.4966 78.148 30.4592C78.2778 29.9046 78.3118 30.6311 78.3223 30.7799C78.3613 31.3274 78.468 30.6884 78.4953 31.0544C78.5225 31.4176 78.3894 31.9472 78.5262 31.9474C78.5823 31.6087 78.5268 30.7132 78.6384 30.5744C79.0591 30.0487 79.7545 30.7878 80.0634 30.8793C80.3705 30.9704 80.4798 30.9143 80.6549 31.0489C80.9714 31.2926 80.8927 30.6248 81.1187 30.3364C81.3452 30.0482 81.1346 31.6651 81.1403 32.0161C81.1455 32.3669 81.2019 32.01 81.2248 32.2042C81.2475 32.3984 81.1535 32.6304 81.2328 32.7082C81.3118 32.7858 81.5854 32.1817 81.6421 31.8192C81.7617 31.0509 81.7165 30.232 81.9209 30.5337C81.9326 30.5515 81.8589 30.9751 81.9051 31.0219C82.2709 31.3796 82.682 31.4333 83.0445 31.7582C83.095 31.8036 83.0043 32.2734 83.033 32.3051C83.3306 32.6378 83.2863 31.828 83.5507 30.9573C83.3982 32.1348 83.4285 32.8664 83.6672 32.8973C83.8118 32.9164 83.8404 32.3985 83.9741 32.0451C84.0147 31.9386 84.0826 32.3035 84.1272 32.0632C84.2746 31.2779 84.2698 30.3801 84.4911 30.7615C84.5006 30.7795 84.4168 31.209 84.4528 31.2396C84.684 31.4394 84.8075 30.6146 85.1008 30.5483C85.3317 30.4963 85.6453 31.0494 85.8837 31.1669C85.6937 32.4872 85.9587 32.2166 86.1886 31.3211C86.3391 31.3817 86.522 31.3577 86.6564 31.5086C86.7025 31.5601 86.6048 31.9355 86.6048 31.9778C86.5982 32.6402 86.8131 31.7691 86.8539 31.7405C86.9631 31.6704 87.0566 31.6662 87.142 31.6886C87.3903 31.6894 87.679 32.0153 87.8164 32.2222C87.908 32.4834 87.7645 32.7929 88.3234 32.8888C88.3499 32.8922 89.2311 32.603 88.628 32.9278C88.5858 32.9485 88.1474 32.9718 88.1747 33.1491C88.2039 33.332 87.8266 33.7828 88.3035 33.8952C88.4182 33.9204 89.1862 33.8765 88.6477 34.1437C88.5744 34.179 88.3126 34.2281 88.1749 34.2865C87.7354 34.4705 88.6546 34.2857 87.901 34.5553C87.1473 34.8253 86.5995 35.0977 87.1801 35.2004C87.197 35.2034 87.9357 35.1111 87.9381 35.1866C87.9412 35.3054 87.8173 35.4939 87.8409 35.6114C87.8525 35.6677 88.302 35.5591 88.3119 35.5677C88.6292 35.9268 88.2573 36.271 88.116 36.6998C88.089 36.7754 88.7333 36.9573 88.2457 37.1387C87.7111 37.331 85.4447 37.2921 85.9969 37.5939C86.2168 37.7041 89.0932 37.8442 87.6068 38.1298C87.9764 38.6513 87.1982 39.0948 87.6887 39.6371C87.7104 39.6609 88.5044 39.7932 88.4892 39.8495C88.4652 39.9323 88.0882 39.9474 88.0588 40.0045C87.9262 40.2394 88.2234 40.4962 88.1483 40.7293C88.1205 40.818 87.739 40.7446 87.7057 40.8479C87.6787 40.9325 88.0058 41.0353 87.9843 41.1329C87.9808 41.1496 87.9593 41.1721 87.9122 41.1952C87.7169 41.2891 86.6692 41.3296 86.5383 41.4756C87.5641 41.5454 87.5364 41.6458 87.7979 41.8385C87.8487 41.8755 88.2079 41.8577 88.2504 41.8761C88.4312 41.9502 88.132 41.9958 88.3296 42.0671C88.3771 42.0843 88.7278 42.1014 88.7864 42.1162C89.2981 42.2416 88.5022 42.3772 88.3637 42.4027C87.8375 42.4966 88.292 42.5667 88.0836 42.6468C87.8753 42.7278 87.6226 42.5881 87.4946 42.6872C87.2298 42.8935 87.2797 43.1716 87.2595 43.3887C87.2535 43.4754 87.7233 43.425 87.7333 43.4376C87.8488 43.6176 87.3477 43.7916 88.2798 43.9028C85.8646 43.9949 88.5124 44.0132 88.0265 44.2611C87.9872 44.2807 86.8455 44.2949 86.6787 44.2154C86.5121 44.1358 86.8703 44.0221 86.6105 43.9108C86.5495 43.8847 85.4821 43.722 85.4176 43.7002C84.9138 43.5325 86.6198 43.5385 86.7136 43.5322C87.7261 43.4563 86.5775 43.2562 86.499 43.2057C86.139 42.9793 86.3839 42.799 86.1295 42.6066C85.9652 42.4807 84.849 42.4294 84.8868 42.3325C85.0124 42.0065 86.5741 41.9759 85.2412 41.5971C84.9573 41.5148 83.7338 41.5095 84.7074 41.3227C84.7688 41.3098 85.6569 41.191 85.1104 41.0478C85.0415 41.0296 84.6865 41.0038 84.658 40.9839C84.5914 40.936 84.5868 40.8976 84.6021 40.8619C84.6087 40.8363 84.6074 40.7558 84.6151 40.7305C84.643 40.6814 84.7325 40.6413 84.654 40.5651C84.5309 40.4464 84.343 40.3022 84.4747 40.2004C84.5536 40.1388 85.2223 40.113 85.3872 40.0938C85.8621 40.0395 85.1075 39.8681 85.6767 39.8571C86.2491 39.8421 87.1001 40.0402 87.4806 39.8996C86.5594 39.8194 85.6144 39.7304 84.688 39.6484C84.7465 39.3204 85.0635 39.0112 85.0323 38.6796C85.0274 38.6388 84.5294 38.666 84.5113 38.6229C84.437 38.4445 84.7932 38.2923 84.6512 38.108C84.5394 37.9654 84.0102 37.825 83.8729 37.6936C84.9276 37.571 84.5586 37.3643 84.6442 37.2073C84.6738 37.1511 84.9559 37.1342 85.0448 37.0877C85.373 36.9107 84.4465 37.0573 84.2967 37.0308C83.6569 36.9273 85.7628 36.711 85.6858 36.4949C85.6823 36.4808 84.5463 36.4866 84.4746 36.4818C84.0061 36.4336 84.8615 36.412 84.9345 36.3303C85.0675 36.1815 85.3191 36.0431 84.9673 35.9466C84.8628 35.9162 84.1539 35.9462 84.6721 35.7626C84.7399 35.7381 85.1071 35.6726 85.1267 35.6593C85.4503 35.4209 84.3014 35.6545 83.8963 35.6594C83.4919 35.6672 84.2488 35.357 84.4671 35.2697C85.0337 35.0499 84.7313 35.2635 84.7895 35.2532C85.4856 35.1357 85.3424 35.0583 85.3788 34.9618C86.4886 34.6638 86.3877 34.5528 85.4117 34.8623C85.305 34.8957 85.4254 34.932 85.3788 34.9618C84.268 35.1684 84.1056 35.1186 85.0774 34.6895C85.5318 34.4865 86.1027 34.3819 85.8372 34.2377C85.717 34.1737 84.9755 34.452 84.7466 34.4463C84.2271 34.4416 84.8456 33.985 84.6661 33.8518C84.6024 33.8072 84.2251 34.0289 84.1684 34.0058C84.085 33.9733 84.1269 33.8937 84.147 33.8204L86.4304 35.6271C86.3811 35.5787 86.3279 35.5447 86.2541 35.6077C86.2393 35.6209 86.1914 36.0727 86.1489 36.0712C85.824 36.0687 85.5855 35.7377 85.2403 35.6807C85.07 35.6527 84.7414 35.8614 84.5723 35.79C84.2774 35.668 83.9749 34.9709 83.6867 35.102C83.5006 35.1858 83.4921 35.6408 83.3877 35.9407C83.1893 36.5224 83.0406 35.4309 83.0198 35.2622C83.0192 35.2566 83.18 35.1645 83.1214 34.9252C83.1198 34.438 83.0215 35.2603 83.0198 35.2622C83.0079 35.1532 82.712 35.023 82.644 35.1042C82.6076 35.1486 82.5883 35.5781 82.5701 35.5931C82.1391 35.9414 81.7227 36.0181 81.3282 35.7882C81.3215 35.779 81.3672 35.3006 81.351 35.285C81.1263 35.0546 80.9264 35.63 80.7086 35.9652C80.4887 36.3001 80.3402 36.1736 80.2732 35.343C80.1153 35.4371 79.9211 35.06 79.8097 34.8317C79.6978 34.6035 79.6256 35.5361 79.6137 35.554C79.2375 36.1249 79.0682 35.5793 78.7166 35.477C78.5498 35.4268 78.2015 35.5445 78.0133 35.6374C77.8638 35.7123 77.7868 35.489 77.645 35.6223C77.6258 35.6401 77.6236 36.0569 77.6172 36.0726C77.4423 36.5628 77.5647 35.5496 77.5426 35.3665C77.4623 34.7006 77.4086 34.3454 77.1999 34.6466C77.1519 34.7156 76.9518 36.1735 76.8666 36.2552C76.7558 36.3588 76.8208 35.8359 76.704 35.9577C76.694 35.9677 76.6806 36.2915 76.6128 36.274C76.2974 36.1968 75.9598 35.9922 75.6261 36.009C75.5805 36.0101 75.6146 36.5264 75.5484 36.5364C75.237 36.5828 74.9007 36.5479 74.6104 36.2931C74.539 36.2288 74.6028 35.8714 74.5918 35.7639C74.5238 35.1132 74.3384 36.045 74.3142 36.0618C73.7394 36.4861 73.3566 35.6158 72.7681 35.9904C72.7363 36.0125 72.4437 37.0058 72.3835 36.1373C72.3792 36.0795 72.3222 35.1912 72.196 35.7895C72.1881 35.827 72.229 36.2849 72.1166 36.2323C72.0044 36.1798 71.8018 36.4728 71.6722 35.9645C71.6309 35.8044 71.5646 34.9174 71.3743 35.6102C71.3626 35.6587 71.035 37.2312 71.0183 36.1316C71.0159 35.9506 71.1009 34.7934 70.8859 35.3762C70.8446 35.4891 70.8906 35.7513 70.7904 35.907C70.6365 36.147 70.4735 35.8252 70.2694 36.3297C70.2342 36.4191 70.0536 37.1965 69.9914 36.5931C69.9818 36.4986 70.0383 36.1142 69.9874 36.0673C69.7459 35.8424 69.4599 36.0819 69.2195 35.7953C69.134 35.6945 69.2279 35.0735 69.1448 34.899C69.0615 34.7245 68.8822 34.5488 68.7597 34.8261C68.6369 35.1036 68.6678 36.1073 68.5099 36.1748C67.8199 36.4673 67.2104 35.8247 66.5534 35.6711C66.4561 35.6482 66.5013 36.012 66.3546 36.0035C65.8138 35.975 64.8215 36.1937 64.4473 35.3757C64.1537 34.7221 64.6872 34.3281 64.4369 34.044C64.3159 33.9082 64.0016 35.0353 63.9616 35.0664C63.5739 35.3851 63.4263 34.8423 63.0978 34.949C63.0302 34.9712 63.016 35.4454 62.9588 35.459C62.7621 35.5095 62.6052 35.27 62.4254 35.2773C62.3444 35.2816 62.296 35.6379 62.2286 35.5977C62.0631 35.5048 61.9343 35.3274 61.8285 34.9644C61.8192 34.9314 62.0056 34.5121 61.8821 34.4715C61.6808 34.4068 61.4977 34.0314 61.1868 34.3161C61.0951 34.402 60.9187 35.2041 60.8848 34.6165C60.8775 34.4936 61.1311 33.5403 60.7703 34.3326C60.713 34.4651 60.1496 35.5151 60.1653 34.757C60.1699 34.5577 60.2603 33.7497 60.1455 33.8519C60.1289 33.8686 60.0703 34.3084 59.9881 34.3324C59.7 34.4092 59.4461 34.2943 59.1412 34.353C59.0596 34.3695 59.0445 34.839 58.9254 34.8491C58.5982 34.8776 58.255 34.6536 58.0033 34.4224C57.9114 34.3365 58.1027 34.001 58.1072 33.9593C58.1908 33.2831 57.8374 34.1171 57.7777 34.1527C57.4202 34.3654 57.348 33.8901 57.0698 33.9067C56.9923 33.9096 56.8893 34.3308 56.8625 34.3617C56.5887 34.6597 56.9662 33.9755 56.9086 33.8625C56.8638 33.773 56.8098 33.7028 56.7493 33.6469C56.6476 33.5243 56.5695 33.5275 56.5616 33.5669C56.5617 33.5888 56.3961 34.0601 56.4071 34.0772C56.452 34.1317 56.6595 34.2259 57.1908 34.2142C57.697 34.2118 58.6581 33.9786 59.3282 33.3981C59.566 33.188 59.188 32.9701 59.1926 32.8634C59.1547 32.1634 59.9882 32.4826 60.1372 32.4305C60.717 32.2959 60.4891 31.9852 60.646 31.8245C60.9519 31.4939 60.9795 31.3924 60.9665 31.4231C60.9481 31.4523 60.8693 31.5954 60.7987 31.7633C60.7703 31.8739 60.7419 31.9804 60.7158 32.0819C60.4994 32.9258 60.1065 33.585 60.1708 34.4024C60.1743 34.455 60.6874 34.4213 60.6971 34.4669C60.7987 35.051 60.5791 35.6104 60.708 36.1953C60.7177 36.2433 61.2045 36.1903 61.2364 36.2678C61.305 36.4271 61.2726 36.6213 61.113 36.7739C61.036 36.8496 60.6234 36.7323 60.5544 36.8088C60.3929 36.9868 60.3527 37.1799 60.4251 37.3658C60.457 37.4449 60.956 37.3414 60.9588 37.4429C60.988 38.1477 61.0561 38.828 60.3986 39.521C60.3535 39.5675 59.345 39.5879 59.536 39.697C59.8154 39.7108 60.1444 39.7173 60.4432 39.7271C60.5828 40.7494 60.2174 41.7436 60.1537 42.7615C60.1511 42.8049 60.6858 42.7351 60.6836 42.8187C60.6714 43.2896 60.8164 43.7651 60.2848 44.2459C60.2328 44.2947 59.2933 44.2691 59.4353 44.4123C59.4612 44.4379 59.5865 44.6485 59.7905 44.7073C59.8213 44.7148 60.2597 44.6749 60.2726 44.7446C60.3398 45.1399 60.2419 45.5609 59.9789 45.9549C59.9356 46.017 59.4679 45.9574 59.433 46.0017C59.1893 46.3276 59.5508 46.6676 59.1368 46.9461C58.8586 47.1353 58.0489 47.0912 57.2606 47.2346C57.1495 47.2585 57.1377 47.343 56.6774 47.3805C55.523 47.5208 54.2475 47.5513 53.0167 47.6991C52.8869 47.7246 52.8876 47.7735 52.8912 48.0491C52.8934 48.0891 52.8885 48.0991 52.8989 48.1791C52.9191 48.2941 52.944 48.444 53.0423 48.7019C53.1443 48.9502 53.3245 49.3706 53.8461 49.8247C54.3541 50.2931 55.2098 50.5123 55.5197 50.526C55.8512 50.5414 55.7249 50.611 55.0943 50.5283C54.4559 50.4659 53.5109 49.8609 53.1763 49.3641C52.8009 48.8676 52.7039 48.5645 52.6096 48.3652C52.5877 48.3147 52.5685 48.27 52.5507 48.2295C52.5372 48.2086 52.5264 48.2004 52.514 48.1859C52.4899 48.1593 52.4654 48.1331 52.4404 48.1075C52.3573 47.895 52.1268 47.6256 51.9066 47.6109C51.7534 47.585 51.2882 47.6802 51.0903 47.6168C50.8925 47.548 51.2825 47.4571 51.051 47.3701C50.8168 47.2778 50.2837 47.3415 50.2141 47.1597ZM79.2997 33.8118C79.2069 33.3568 79.0987 34.9983 79.2472 34.6124C79.2545 34.5918 79.3045 33.8341 79.2997 33.8118ZM86.2999 39.0714C87.0315 38.959 85.9687 38.8194 85.405 38.896C84.842 38.9667 86.0782 39.1028 86.2999 39.0714ZM86.7073 40.6225C87.295 40.5069 84.9772 40.2429 85.4273 40.4688C85.4527 40.4818 86.6732 40.629 86.7073 40.6225ZM57.0165 46.7596C56.9947 46.7624 56.9759 46.852 56.9976 46.8527C57.5211 46.8837 57.5584 46.7084 57.0165 46.7596ZM87.1658 42.3147C87.4832 42.2702 87.1264 42.0904 86.7313 42.1446C86.4133 42.1895 86.7707 42.3714 87.1658 42.3147ZM73.2316 31.7548C73.231 31.7303 73.1636 31.7047 73.1578 31.8431C73.1393 32.2891 73.2414 32.1682 73.2316 31.7548ZM87.1431 45.0403C87.2337 44.6398 89.1627 44.4152 88.9418 44.8468C88.9019 44.9252 88.3287 44.6726 88.1542 44.7714C87.8363 44.9525 89.0453 45.0829 88.3957 45.2657C88.2768 45.2988 87.1336 45.0632 87.1404 45.0396C87.1413 45.0398 87.1422 45.0401 87.1431 45.0403ZM79.3416 31.8352C79.3402 31.8133 79.2466 31.7875 79.2433 31.8089C79.1634 32.3275 79.3515 32.3798 79.3416 31.8352ZM69.3071 30.4909C69.3054 30.4444 69.0908 30.3841 69.0803 30.426C68.8981 31.2684 69.3357 31.3931 69.3071 30.4909ZM85.8826 31.2027C86.0623 30.6974 86.2024 30.6554 86.1882 31.3204C86.0892 31.2702 85.9843 31.2497 85.8826 31.2027Z" fill="black"/>
<path d="M70.7787 85.9305C70.9427 86.0615 70.8233 86.2895 70.6421 86.483C70.5859 86.5429 70.2941 86.5654 70.2425 86.6093C70.1419 86.6957 70.2938 86.7361 70.1721 86.8256C70.1305 86.8559 69.6706 86.9062 69.6374 86.9364C69.4589 87.1024 69.5967 87.2052 69.5243 87.3547C69.1679 88.0931 69.1336 88.7744 69.0891 89.4417C69.0741 89.6593 68.7394 90.0186 68.9752 90.1596C69.003 90.1756 69.3859 90.0417 69.4191 90.036C69.9268 89.946 69.1395 90.1702 69.0496 90.246C68.6946 90.5458 68.7291 90.7537 68.9266 90.8231C69.011 90.8503 69.7337 90.4911 69.3362 90.7118C69.3096 90.7273 68.9076 90.8818 68.8714 90.9141C68.7908 90.9889 68.8859 91.0127 68.8645 91.0467C68.8211 91.1136 68.8285 91.1184 68.8385 91.1482C68.8436 91.1712 68.7879 91.2265 68.7567 91.2564C68.7343 91.2769 68.7267 91.289 68.7604 91.2666C68.778 91.2532 69.138 90.9979 69.1935 90.9467C69.2488 90.8949 69.1962 90.8894 69.1108 90.9502C69.0254 91.0109 68.7722 91.2481 68.7125 91.3005C68.2263 91.7628 68.8903 91.1127 68.8884 91.0794C68.9895 90.906 68.9046 90.8872 68.8289 90.9413C68.7489 90.9921 68.6773 91.1073 68.6728 91.1051C68.6675 91.1008 68.7128 90.9345 68.7539 90.9607C68.8025 90.9943 68.9059 91.2324 69.0346 91.1769C69.0478 91.1716 68.975 90.6577 68.9885 90.6504C69.1241 90.5739 69.3122 90.5958 69.6262 90.8756C69.6578 90.9041 69.7438 91.3525 69.7836 91.407C70.0165 91.7342 70.5786 92.5025 70.0534 90.5868C70.1787 90.6275 70.3289 90.6605 70.5589 91.0027C70.7084 91.2224 70.8151 91.7115 70.8228 91.4835C70.8246 91.4326 70.6527 91.0327 70.666 90.9875C70.7221 90.7977 70.8925 90.8841 70.9201 90.6323C70.9253 90.5801 70.7773 90.2198 70.7579 90.1521C70.6007 89.6039 71.033 90.4421 71.0795 90.497C71.4197 90.9084 71.4524 90.6782 71.5986 90.6301C71.6326 90.6191 71.3905 90.1536 71.4156 90.1258C71.5502 89.9875 71.7284 89.9592 71.9849 90.0997C72.0423 90.1321 72.1892 90.5543 72.226 90.5906C72.3869 90.7452 72.0621 89.9687 72.2077 90.1028C72.2381 90.13 72.3853 90.482 72.4052 90.519C72.7179 91.0995 72.3752 90.232 72.3777 90.2083C72.4039 89.8883 72.9 90.7313 72.9833 90.5417C72.9926 90.5182 72.7543 90.0965 72.7927 90.0574C73.0483 89.7938 73.4367 89.7589 73.9171 89.9603C73.9914 89.9911 74.11 90.3359 74.132 90.3749C74.478 90.984 74.114 90.1213 74.115 90.082C74.1335 89.7933 74.5843 90.4486 74.1988 89.3986C74.8984 89.4984 75.1876 88.6739 76.1461 89.3397C76.1577 89.3472 76.333 89.7736 76.3553 89.7867C76.6262 89.9494 76.3027 89.3095 76.063 88.4579C76.0035 88.2438 76.5141 89.1747 76.5522 89.2427C76.6938 89.4926 76.9394 90.1334 76.9707 90.1801C77.2184 90.5461 76.3023 88.4721 76.4077 88.4257C76.4125 88.4278 76.5641 88.8169 76.5892 88.8512C76.6679 88.9591 76.6292 88.7953 76.7124 88.9159C76.9046 89.1952 77.3562 90.2002 77.1971 89.5712C77.1764 89.4896 76.6565 88.3131 76.7754 88.3289C76.823 88.3362 76.9824 88.2459 77.0613 88.3037C77.1399 88.3614 77.2652 88.758 77.2755 88.7732C77.6077 89.2292 77.6465 89.4588 78.0123 90.1859C78.3752 90.9109 77.6358 89.1305 77.581 88.9206C77.5267 88.7111 77.7871 89.0938 77.8671 89.2313C77.9474 89.3686 78.017 89.6243 78.0694 89.6992C78.4118 90.189 77.7751 88.7866 77.7072 88.4845C77.5495 87.7681 78.1493 89.0691 78.2907 89.1652C78.3297 89.1908 78.1932 88.8944 78.2054 88.8572C78.2564 88.7136 78.4659 89.1114 78.4283 88.6895C78.4213 88.621 78.2151 87.7813 78.4846 88.3549C78.523 88.4377 78.6215 88.7809 78.6871 88.8422C78.7849 88.9343 78.9147 88.9712 78.9388 88.837C78.9568 88.7377 78.7121 88.201 78.8311 88.353C78.8838 88.421 78.9464 88.7625 79.0353 88.8636C79.1238 88.9646 79.2416 88.9094 79.2848 88.8829C79.3277 88.8561 79.1643 88.441 79.1588 88.4113C79.1287 88.2403 79.1564 88.0058 79.1655 88.0036C79.5831 87.8142 80.1701 88.4293 80.524 88.0933C80.5531 88.0673 80.4268 87.6145 80.4301 87.6058C80.505 87.3873 80.6871 88.6259 80.852 89.0174C80.637 88.0891 80.7199 88.2473 80.7778 88.1284C80.8058 88.0704 80.7103 87.7134 80.7061 87.6757C80.6535 87.1143 80.8394 87.8154 80.8772 87.9589C81.0194 88.4861 80.9381 87.8464 81.0317 88.1993C81.1227 88.5499 81.1657 89.0868 81.2354 89.0669C81.1954 88.7275 80.9763 87.8613 81.0112 87.7081C81.0913 87.3644 81.3295 87.4405 81.5355 87.577C81.6336 87.6764 81.7324 87.7949 81.7897 87.8137C81.9275 87.8594 81.9481 87.7878 82.0518 87.8866C82.2427 88.0613 82.0008 87.443 81.9469 87.1412C81.8807 86.8426 82.4586 88.3635 82.597 88.6851C82.7426 89.0034 82.6244 88.663 82.7168 88.8326C82.812 89.001 82.8575 89.2401 82.9378 89.2844C83.0244 89.3267 82.8973 88.6972 82.7333 88.3691C82.4002 87.6688 81.996 86.963 82.1738 87.1913C82.1854 87.2043 82.3846 87.5832 82.4195 87.6131C82.6998 87.8318 82.8402 87.7586 83.1652 87.8406C83.2118 87.8509 83.5392 88.1973 83.5722 88.2048C83.9285 88.267 83.2915 87.7703 82.6274 87.1751C83.547 87.9234 84.1533 88.3352 84.2664 88.1823C84.3286 88.0965 83.8825 87.8305 83.5957 87.5996C83.5076 87.5328 83.8438 87.6617 83.6359 87.5337C82.9506 87.1261 82.1517 86.7304 82.4905 86.8473C82.5071 86.8518 82.8936 87.0541 82.9227 87.0547C83.117 87.0481 82.356 86.7061 82.2776 86.6271C82.215 86.5698 82.7319 86.614 82.8325 86.5358C84.1364 86.8203 83.8639 86.6226 82.961 86.4405C83.0083 86.3858 82.9657 86.313 83.0989 86.2633C83.1444 86.2459 83.5269 86.301 83.5687 86.3027C84.2252 86.3199 83.3376 86.198 83.3037 86.1828C83.1556 86.0952 83.215 86.0322 83.2626 85.9642C83.3196 85.8886 83.3587 85.8024 82.9961 85.7253C82.9721 85.7189 82.0456 85.728 82.7213 85.6792C82.7678 85.6743 83.1906 85.7162 83.2214 85.643C83.2527 85.5759 83.7395 85.3898 83.301 85.3215C83.1953 85.3025 82.4421 85.3327 83.0196 85.2149C83.0979 85.1984 83.3626 85.1726 83.508 85.1437C83.9707 85.0476 83.0405 85.1575 83.8226 85.006C84.6048 84.8551 85.1758 84.6443 84.6107 84.6086C84.5941 84.6066 83.8591 84.7142 83.8636 84.6764C83.8712 84.6143 84.0044 84.4971 83.9852 84.4349C83.9758 84.4054 83.531 84.5282 83.5216 84.5249C83.2267 84.3982 83.5904 84.1677 83.697 83.9033C83.7168 83.8524 83.0849 83.9381 83.5334 83.7119C84.0223 83.4586 86.1994 82.8296 85.6127 82.782C85.3747 82.755 82.644 83.6452 83.988 82.9935C83.802 82.9359 83.8007 82.8148 83.8174 82.6845C83.8411 82.5032 83.8994 82.3025 83.552 82.2706C83.5254 82.2677 82.7736 82.5476 82.7723 82.5172C82.7716 82.471 83.1054 82.2996 83.1155 82.261C83.166 82.0951 82.8245 82.1164 82.8181 81.9821C82.8148 81.9312 83.174 81.7855 83.1696 81.724C83.1647 81.6623 82.6861 81.8421 82.8768 81.6682C83.0224 81.5363 83.9405 81.0392 84.0155 80.9136C83.0848 81.3505 83.0808 81.2925 82.7949 81.3236C82.7395 81.3299 82.4252 81.502 82.3824 81.5129C82.2011 81.5614 82.4545 81.4039 82.2592 81.4613C82.2123 81.4749 81.8959 81.6271 81.8397 81.647C81.3503 81.8225 82.0215 81.3967 82.1379 81.3218C82.5808 81.0384 82.1578 81.213 82.3221 81.0808C82.486 80.9482 82.7477 80.8979 82.8355 80.7936C83.0167 80.5771 82.9003 80.4699 82.8629 80.3589C82.846 80.3155 82.4409 80.5532 82.4287 80.5519C82.28 80.5201 82.6821 80.2099 81.8244 80.5823C83.9509 79.4383 81.5895 80.6364 81.96 80.298C81.9901 80.2709 83.0028 79.7439 83.171 79.7054C83.3393 79.6671 83.0489 79.8838 83.3082 79.8179C83.369 79.8023 84.3602 79.3925 84.4231 79.3734C84.914 79.2226 83.394 79.9971 83.3122 80.0429C82.4303 80.5398 83.5037 80.1103 83.5866 80.0981C83.9652 80.04 83.7942 80.2355 84.0712 80.2088C84.2506 80.1923 85.2572 79.7073 85.2493 79.7692C85.2244 79.9763 83.8444 80.7029 85.1337 80.2666C85.409 80.1742 86.4971 79.6184 85.6846 80.1463C85.6336 80.1801 84.8787 80.6388 85.405 80.4527C85.4714 80.4292 85.7937 80.2784 85.8247 80.2741C86.0262 80.2486 85.7865 80.4056 85.9381 80.4101C86.0898 80.4148 86.3085 80.4064 86.2311 80.5282C86.185 80.6016 85.6047 80.928 85.4653 81.0141C85.0634 81.261 85.7917 81.0123 85.289 81.2761C84.783 81.5394 83.9626 81.8206 83.6639 82.0555C84.5129 81.6892 85.3864 81.3179 86.2417 80.9528C86.3052 81.1804 86.1192 81.5081 86.2442 81.7126C86.2444 81.7129 86.2445 81.7131 86.2447 81.7133C86.2612 81.7385 86.7115 81.5257 86.7413 81.5485C86.8656 81.6471 86.579 81.8879 86.7623 81.9744C86.9059 82.0406 87.4448 81.982 87.6132 82.0614C86.6406 82.4849 87.0385 82.5384 86.9893 82.7025C86.9722 82.7589 86.7018 82.8412 86.6239 82.9008C86.3358 83.1224 87.2117 82.7908 87.3632 82.7827C88.012 82.7592 85.9858 83.3698 86.0801 83.5144C86.0838 83.5197 87.2041 83.3421 87.2771 83.3445C87.7483 83.3376 86.9015 83.46 86.837 83.545C86.719 83.7011 86.4746 83.8376 86.8279 83.907C86.932 83.9246 87.6434 83.8912 87.1259 84.0811C87.0581 84.1056 86.6907 84.1696 86.6708 84.1822C86.3412 84.3998 87.4948 84.1982 87.9035 84.2371C88.3126 84.2793 87.5351 84.559 87.3072 84.6159C86.7196 84.7725 87.0439 84.5905 86.9845 84.5942C86.2804 84.6451 86.4148 84.7278 86.365 84.8108C85.2265 84.9638 85.3052 85.045 86.3176 84.8958C86.4281 84.8786 86.3148 84.8322 86.365 84.8108C87.4915 84.7351 87.6533 84.8804 86.615 85.1061C86.1279 85.209 85.5507 85.1964 85.772 85.3529C85.8713 85.4258 86.6596 85.3525 86.8787 85.4224C87.3791 85.5935 86.643 85.8514 86.7523 86.0342C86.792 86.1048 87.2272 86.0526 87.2691 86.1037C87.2808 86.118 87.2876 86.1321 87.2907 86.1459C87.3176 86.2522 87.0672 86.3341 87.207 86.4587C87.2216 86.4718 87.6758 86.4781 87.6783 86.5201C87.7035 86.8471 87.3786 87.1105 87.2928 87.481C87.2539 87.6576 87.4038 88.0715 87.2811 88.2732C87.0746 88.631 86.2783 88.7874 86.2485 89.1453C86.2213 89.3891 86.6273 89.5909 86.8256 89.8531C87.1944 90.387 86.0805 90.0693 85.9354 89.9789C85.9318 89.9758 85.9761 89.7503 85.7271 89.6886C85.3144 89.428 85.9365 89.9742 85.9354 89.9789C85.8337 89.9392 85.4874 90.1668 85.4868 90.2824C85.4885 90.3469 85.805 90.6382 85.7988 90.6672C85.6373 91.3614 85.1213 91.8512 84.5227 91.9257C84.5101 91.9224 84.3056 91.4874 84.2798 91.4843C83.9195 91.4249 83.9923 92.0297 83.8655 92.4488C83.7379 92.8661 83.4895 92.8168 83.1439 92.0562C83.0114 92.2009 82.698 91.8978 82.5447 91.7015C82.389 91.5063 82.5355 92.4293 82.5263 92.4499C82.4314 92.7021 82.3206 92.7776 82.2066 92.7728C82.1546 92.7491 82.0753 92.5406 81.9948 92.5023C81.932 92.4705 81.8388 92.6252 81.7975 92.7381C81.765 92.8287 81.689 92.6207 81.671 92.768C81.6686 92.7877 81.7642 93.1931 81.7657 93.2092C81.8242 93.7065 81.6265 92.7076 81.5756 92.5327C81.3898 91.8968 81.2754 91.5616 81.2717 91.8825C81.2687 91.9565 81.5721 93.3914 81.5679 93.4809C81.559 93.5954 81.442 93.083 81.4343 93.2165C81.4336 93.2274 81.5162 93.5408 81.489 93.5332C81.3629 93.5023 81.1857 93.3565 81.07 93.4255C81.0541 93.4337 81.2247 93.9192 81.205 93.9389C81.1115 94.0311 80.9853 94.0517 80.7941 93.8621C80.7464 93.814 80.649 93.4669 80.6086 93.3678C80.3613 92.7686 80.6079 93.6775 80.6058 93.6972C80.5426 94.197 80.0814 93.4605 79.9908 93.9291C79.9855 93.9565 80.2578 94.9314 79.8989 94.1444C79.8754 94.0918 79.5059 93.2874 79.69 93.8646C79.7017 93.9006 79.8968 94.3127 79.8328 94.2883C79.7683 94.2642 79.807 94.5762 79.5533 94.1398C79.4737 94.0022 79.0874 93.2076 79.2923 93.8835C79.3055 93.9311 79.8228 95.4372 79.365 94.4402C79.2896 94.2761 78.8457 93.2039 78.9997 93.7847C79.03 93.8971 79.1572 94.1243 79.182 94.2893C79.221 94.5433 79.0216 94.2906 79.1542 94.7963C79.1776 94.8859 79.4385 95.6311 79.158 95.1012C79.114 95.0183 78.9722 94.6575 78.9322 94.6277C78.7403 94.4844 78.7299 94.7721 78.5093 94.577C78.4311 94.5087 78.1966 93.9276 78.086 93.7932C77.9754 93.6588 77.8232 93.5503 77.8962 93.8313C77.9695 94.1123 78.4281 95.0003 78.3955 95.1027C78.2551 95.5468 77.7253 95.1464 77.3914 95.2073C77.3421 95.2162 77.5292 95.523 77.4673 95.5593C77.2415 95.6937 76.9608 96.1951 76.4215 95.6094C75.9903 95.14 76.0131 94.6186 75.7758 94.4564C75.6621 94.3793 76.0832 95.4633 76.0829 95.5037C76.0879 95.9107 75.7636 95.4946 75.6898 95.7024C75.6746 95.7455 75.9002 96.1594 75.885 96.1913C75.8345 96.3045 75.6576 96.1548 75.5924 96.2269C75.5636 96.2602 75.7198 96.5838 75.6744 96.574C75.5661 96.5551 75.4303 96.451 75.2114 96.1805C75.1915 96.1558 75.0562 95.7266 74.989 95.7387C74.8801 95.7598 74.6247 95.5104 74.6498 95.8746C74.6574 95.984 74.9881 96.7355 74.6841 96.25C74.6205 96.1486 74.2435 95.2375 74.5 96.0552C74.5436 96.1907 74.8535 97.309 74.4859 96.661C74.3891 96.4905 74.0222 95.7702 74.0309 95.9044C74.033 95.9255 74.23 96.3208 74.2112 96.3757C74.1409 96.5623 73.9889 96.5752 73.9095 96.7574C73.8884 96.807 74.1156 97.2068 74.0779 97.2675C73.9772 97.4338 73.7356 97.4057 73.5333 97.3311C73.4581 97.303 73.3597 96.9357 73.3406 96.899C73.0349 96.3 73.3229 97.1567 73.3194 97.2144C73.2988 97.5599 73.0363 97.2052 72.9459 97.3575C72.9198 97.3987 73.0922 97.7942 73.0981 97.8329C73.1487 98.2135 72.9432 97.4655 72.8668 97.4024C72.6524 97.2229 72.5185 97.306 72.3906 97.4066C72.3444 97.4438 72.5612 97.898 72.517 97.9263C72.2601 98.1018 71.922 98.1546 71.539 97.9714C71.4673 97.9358 71.406 97.5543 71.3716 97.4726C71.1382 96.8989 71.2261 97.7406 71.2108 97.8264C71.1588 98.214 71.0253 97.8957 70.9165 97.9845C70.3781 98.4275 69.4222 98.3427 68.5573 98.1717C67.4307 97.944 66.416 97.3845 65.141 96.6825C65.0594 96.6355 64.8588 97.116 64.7806 97.0777C63.8235 96.5746 63.2646 95.698 62.727 95.0028C62.6863 94.9511 62.6456 94.901 62.6045 94.8524C62.5592 94.7969 62.1926 95.1313 62.1038 95.0462C61.9187 94.8726 61.8207 94.6221 61.8833 94.3931C61.9125 94.2808 62.3386 94.2083 62.3619 94.1019C62.4187 93.8562 62.3777 93.6734 62.2428 93.5484C62.184 93.4941 61.7659 93.7831 61.7244 93.6956C61.437 93.108 61.1984 92.6257 61.6781 91.9725C61.7111 91.9276 62.6729 91.625 62.4686 91.6124C62.1978 91.6828 61.881 91.7716 61.5925 91.8498C61.249 91.2168 61.4448 90.5119 61.3692 89.889C61.3659 89.8625 60.8526 90.017 60.8434 89.9658C60.7902 89.6715 60.5887 89.4134 61.0555 89.021C61.1011 88.9822 62.0277 88.8267 61.8723 88.7673C61.8439 88.7569 61.6976 88.6525 61.4911 88.6561C61.46 88.6569 61.0327 88.7585 61.0125 88.7185C60.9037 88.4887 60.9586 88.2155 61.184 87.9315C61.2213 87.8857 61.6889 87.8523 61.7195 87.8193C61.9329 87.5861 61.5493 87.4276 61.9413 87.177C62.2051 87.0066 63.0111 86.9401 63.7889 86.7658C63.8986 86.7409 63.9055 86.6619 64.3631 86.5959C65.5136 86.4287 66.779 86.2874 68.0047 86.1048C68.2685 86.0648 67.973 86.025 68.6184 85.9845C68.6615 85.9815 68.8816 86.0106 69.1004 85.9955C69.2517 85.9847 69.7147 85.9012 69.9094 85.8949C70.1037 85.8876 69.7164 85.9635 69.9465 85.9651C70.1793 85.9655 70.7068 85.8767 70.7787 85.9305ZM81.9289 90.7993C81.8188 90.3609 82.0401 91.991 82.0316 91.595C82.0309 91.5739 81.9343 90.8208 81.9289 90.7993ZM84.9703 81.9819C84.3329 82.3393 85.344 81.994 85.8385 81.7225C86.3311 81.4482 85.1628 81.8719 84.9703 81.9819ZM84.1211 81.3588C83.6415 81.686 85.7739 80.7402 85.2976 80.8318C85.2705 80.8368 84.1489 81.3396 84.1211 81.3588ZM64.0556 87.0265C64.077 87.0222 64.0901 86.9654 64.0685 86.9675C63.5474 87.0154 63.5219 87.1304 64.0556 87.0265ZM83.227 80.8163C82.9565 80.9816 83.3225 80.9017 83.6592 80.6966C83.9298 80.531 83.5631 80.61 83.227 80.8163ZM78.5785 89.9148C78.5688 89.8923 78.5269 89.8846 78.5771 90.0138C78.7384 90.4299 78.7401 90.2945 78.5785 89.9148ZM82.5526 79.5274C82.5712 79.7581 80.9101 80.7432 80.9996 80.4387C81.0157 80.3835 81.5886 80.2416 81.7194 80.1154C81.9573 79.8848 80.849 80.3744 81.3819 79.9918C81.4795 79.922 82.5554 79.5123 82.5552 79.5265C82.5543 79.5268 82.5535 79.5271 82.5526 79.5274ZM81.6337 88.8453C81.6296 88.8239 81.5768 88.8104 81.5786 88.832C81.6269 89.3526 81.7271 89.3808 81.6337 88.8453ZM76.2037 89.8067C76.1822 89.7655 76.0556 89.7749 76.0696 89.8155C76.3648 90.6191 76.6186 90.6038 76.2037 89.8067ZM82.8676 86.5418C82.3611 86.3969 82.3041 86.3649 82.9603 86.4406C82.9192 86.4743 82.907 86.5117 82.8676 86.5418Z" fill="black"/>
</svg>
